<?xml version="1.0" encoding="utf-8"?>
<!-- Generator: Adobe Illustrator 19.1.0, SVG Export Plug-In . SVG Version: 6.00 Build 0)  -->
<svg version="1.1" id="Capa_1" xmlns="http://www.w3.org/2000/svg" xmlns:xlink="http://www.w3.org/1999/xlink" x="0px" y="0px"
	 viewBox="-184 372 241.8 50" style="enable-background:new -184 372 241.8 50;" xml:space="preserve">
<style type="text/css">
	.st0{fill:#231F20;}
	.st1{fill:#202020;}
</style>
<g>
	<path class="st0" d="M-94.7,402.7v7.4h-3.2v-5.2h-7.7v5.2h-3.2v-7.4l5.5-15.2h3.2L-94.7,402.7z M-105.1,401.7h6.6l-3.3-9h-0.1
		L-105.1,401.7z"/>
	<path class="st0" d="M-75.4,403.1v1.3c0,3.2-2.6,5.8-5.8,5.8h-6.3h-2.1v-22.6h3.2h4.5c3.2,0,5.8,2.6,5.8,5.8v1.3
		c0,1.5-0.5,2.9-1.5,3.9C-76.2,399.6-75.4,401.2-75.4,403.1z M-86.3,390.8v6.4h4.5c1.5,0,2.6-1.1,2.6-2.6v-1.3
		c0-1.5-1.1-2.6-2.6-2.6L-86.3,390.8L-86.3,390.8z M-78.6,403.1c0-1.5-1.1-2.6-2.6-2.6h-5.2v6.4h5.2c1.5,0,2.6-1.1,2.6-2.6V403.1z"
		/>
	<path class="st0" d="M-64.4,410.2c-3.2,0-5.8-2.6-5.8-5.8v-11c0-3.2,2.6-5.8,5.8-5.8h2.6c3.2,0,5.8,2.6,5.8,5.8v10.9
		c0,3.2-2.6,5.8-5.8,5.8h-2.6V410.2z M-59.2,404.3v-10.9c0-1.5-1.1-2.6-2.6-2.6h-2.6c-1.5,0-2.6,1.2-2.6,2.6v10.9
		c0,1.4,1.2,2.6,2.6,2.6h2.6C-60.4,406.9-59.2,405.7-59.2,404.3z"/>
	<path class="st0" d="M-36.7,404.3c0,3.2-2.6,5.8-5.8,5.8H-45c-3.2,0-5.8-2.6-5.8-5.8v-16.7h3.2v16.7c0,1.4,1.2,2.6,2.6,2.6h2.6
		c1.4,0,2.6-1.2,2.6-2.6v-16.7h3.2v16.7H-36.7z"/>
	<path class="st0" d="M-17.3,390.8h-5.5v19.3H-26v-19.3h-5.5v-3.2h8.7h5.5V390.8z"/>
</g>
<g>
	<path class="st1" d="M-71.7,379.6c-0.2,0.1-0.1,0.3,0.4,0.2l0.3-0.3L-71.7,379.6z"/>
	<path class="st1" d="M-68.3,380c0.6-0.2,1.2-0.5,0.8-0.8c-0.6,0.4-0.7,0.2-1.3,0.7c-0.5,0.1-0.9-0.1-0.8-0.2c-0.2,0.1-0.8,0-1,0.2
		c0.7,0.2,1.5,0.2,2.3-0.1C-68.1,379.8-68.3,379.9-68.3,380z"/>
	<path class="st1" d="M-19.9,381.9l-0.3-0.1C-20.1,381.9-20,381.9-19.9,381.9z"/>
	<path class="st1" d="M6.5,390.8c-0.1-0.2-0.1-0.3-0.1-0.3C6.4,390.8,6.5,390.9,6.5,390.8z"/>
	<path class="st1" d="M6.2,395.7c0-0.1,0.1-0.2,0.1-0.3C6.2,395.5,6.2,395.6,6.2,395.7z"/>
	<path class="st1" d="M-19.9,381.9l0.8,0.2C-19.1,382-19.5,382-19.9,381.9z"/>
	<path class="st1" d="M-61.7,378.9c-0.2,0-0.3,0.1-0.4,0.1C-61.9,378.9-61.8,378.9-61.7,378.9L-61.7,378.9z"/>
	<path class="st1" d="M-33.1,380.9h-0.2c-0.1,0-0.1,0.1-0.2,0.1L-33.1,380.9z"/>
	<path class="st1" d="M-43.2,380.4c0.2,0,0.3-0.3,0.4-0.4c-0.1,0.1-0.3,0.2-0.5,0.2C-43.3,380.3-43.3,380.4-43.2,380.4z"/>
	<path class="st1" d="M-59.3,379.9l-0.3,0.1C-59.5,379.9-59.4,379.9-59.3,379.9z"/>
	<path class="st1" d="M-25.9,381.6l0.1,0.1C-25.8,381.7-25.8,381.6-25.9,381.6z"/>
	<path class="st1" d="M-56.2,372.8L-56.2,372.8C-56.1,372.8-56.1,372.8-56.2,372.8z"/>
	<path class="st1" d="M-44.4,373.8h-0.2c0,0,0,0.1,0,0.2L-44.4,373.8z"/>
	<path class="st1" d="M2.5,403.6L2.5,403.6C2.6,403.3,2.5,403.5,2.5,403.6z"/>
	<path class="st1" d="M-78.5,417.7c1,0.3-1.6,0.2-0.2,0.6C-78.8,418.2-77.3,418-78.5,417.7z"/>
	<path class="st1" d="M-61.4,378.9h0.4C-61.2,378.9-61.3,378.9-61.4,378.9z"/>
	<path class="st1" d="M-78.7,418.3L-78.7,418.3h0.2C-78.6,418.3-78.6,418.3-78.7,418.3z"/>
	<path class="st1" d="M-14.6,414.7c0.1,0,0.2,0,0.2,0.1C-14.4,414.8-14.5,414.8-14.6,414.7z"/>
	<path class="st1" d="M-0.6,407.9l-0.3,0.2C-0.8,408-0.7,408-0.6,407.9z"/>
	<path class="st1" d="M-22.6,417c-0.2,0-0.3,0-0.6,0.1h0.1C-23,417-22.8,417-22.6,417z"/>
	<path class="st1" d="M-31.2,418.1c0.1,0,0.1,0,0.2,0s0.2,0,0.3,0H-31.2z"/>
	<path class="st1" d="M-82.7,374.2c0.2,0.1,0.3,0.1,0.4,0.2C-82.4,374.3-81.2,374.1-82.7,374.2z"/>
	<path class="st1" d="M-61.6,379c0.1-0.1,0.1-0.1,0.3-0.1C-61.5,378.9-61.6,378.9-61.6,379C-61.7,378.9-61.7,379-61.6,379z"/>
	<path class="st1" d="M-22.6,419.2c-0.5,0.1-0.9,0.1-1.4,0.2C-23.6,419.4-23,419.3-22.6,419.2z"/>
	<path class="st1" d="M-133.4,401.7l-0.2-0.3C-133.6,401.5-133.5,401.6-133.4,401.7z"/>
	<path class="st1" d="M-28.1,420c-0.3-0.1-0.5-0.1-0.8-0.1c-0.1,0-0.1,0-0.2,0.1H-28.1z"/>
	<path class="st1" d="M-82.3,374.5L-82.3,374.5L-82.3,374.5z"/>
	<path class="st1" d="M-73.2,373.2c-1.3,0.1-0.6,0.4-0.9,0.6c-1.6,0.2-0.8-0.2-1.3-0.4c-1,0.2-1.7,0.6-2.5,0.6
		c-0.1-0.1-0.2-0.1,0-0.2c-1,0.4-3.1,0.2-4.3,0.7c-0.1,0-0.1,0-0.2-0.1c0.2,0.2,0.3,0.4,0.2,0.5c-0.6,0-1.1,0.3-1.3,0.1
		c0.4,0,0.4-0.1,0.5-0.2l-0.6,0.2c-0.6-0.3,0.8-0.2,0.8-0.4c-1.2,0.2-2.6,0.6-3.5,0.6c-0.1-0.4,2.3-0.4,1-0.6h1.4
		c-1.1-0.4,0.9,0-0.2-0.5c-1.9,0.1-2.1,0.4-4,0.4c-0.3,0.3,0.3,0.3-0.1,0.6c-2.6,0.6-2.2-0.6-4.1,0c-0.5,0.3-0.6,0.7-2,0.7l0.4-0.4
		c-1.8,0.2-1,0.7-2.9,0.7c0.3-0.3,1.3-0.4,1.1-0.4c-1.3-0.1-0.8,0.3-1.8,0.5l-0.2-0.4c-1.9,0.3-4,0.9-6.2,1.4
		c0.1-0.1,0.4-0.3-0.1-0.3c-2.7,0.7-5.7,1.2-8.4,1.8l-0.9,0.6c-0.2,0.1-0.5,0-0.2-0.1c-1,0.2,0,0.2-0.4,0.5
		c-0.6,0.2-0.8,0.1-0.5-0.1c-1.7,0.8-4.7,2.4-6.5,3l0.3-0.3c-1.4,0.6-1.2,1.3-2.6,1.8l0.2-0.2c-2.9,1.5-5.6,3.9-7.7,5.6
		c0,0.3-0.6,0.9-1.1,1.6c-0.5,0.7-0.9,1.3-0.7,1.6c-0.6,0.8-0.8,1.1-1.1,1.5c-0.2,0.4-0.6,0.9-0.9,2.4c-0.1,0.8,0.2,1.2,0.4,2.1
		h-0.3c0.1,0.4,0.3,0.8,0.5,1.2l-0.2,0.8c0.1,0.3,0.2,0.6,0.4,0.8c-0.1-0.3-0.1-0.8,0-0.7c0.5,1.3,1.2,3.1,1.2,3.2
		c0.7,0.8,1.4,1.6,2.2,2.3c-0.1,0-0.5-0.3-0.9-0.6c1.4,1,0,0.5,1.3,1.3c-0.1-0.2,0.2-0.1,0.3-0.1c0.4,0.7,1.8,1.8,2.9,2.4h-0.3
		c1.8,1.3,4.2,2.4,6.5,3.4c-0.8-0.5-0.4-0.7,0.2-0.4l0.1,0.4c0.5,0-0.7-0.4,0.3-0.3c0.8,0.4,0.4,0.6-0.1,0.5
		c0.4,0.1,0.7,0.2,1.1,0.3c0,0.1-0.2,0.1-0.3,0.2c0.5,0,1.7,1,2.5,0.9v0.1c2.4,0.8,3.5,1,5.5,1.5c0.1-0.3,0.9,0,1.5-0.1
		c1.4,0.4,3,1,4.8,1.3c1.3,0.1,0.4-0.2,1-0.2c0,0.3,1.8,0.6,0.9,0.6c2.1,0.3,2.7,0.4,5.4,0.6c-0.3-0.2-0.6-0.2-0.4-0.3
		c0.5,0,1.1,0.3,1,0.4h-0.1c3,0,6.9,1.6,9.3,1.3h-0.1l2.5-0.1c1.1,0.1-0.7,0.1,0.1,0.4c2.7-0.2,4.3,0.4,6.5,0.2
		c1.7,0.9,6.1,0.3,8.4,0.8l-0.1-0.2c0.6-0.2,0.7,0.1,1.2,0.2c-0.1-0.1-0.6-0.2-0.3-0.3c5.1,0,10.4,0.6,15.7,0.8
		c1.9,0.1,1.1-0.9,3.5-0.5l-0.7,0.3c3.8-0.4,7.9,0,11.7-0.5c-0.2,0.1-0.2,0.2-0.6,0.2c0.8,0.2,2.9-0.1,2.9-0.3
		c0.6,0,0.2,0.2,0.5,0.3c0.8,0.1,2-0.5,2.4-0.2c0.1,0-0.2,0.1-0.4,0.1c0.5-0.1,2.4-0.2,1.9-0.4c1.4,0,2.7-0.4,3.8-0.3
		c0.7-0.4,2.4-0.2,2.6-0.6c0,0.5,2.5,0,3.4-0.4c-0.3,0.2,0.8,0,0.5,0.3c1-0.2,1.9-0.4,1.7-0.6c2,0.2,3.6-1.2,4.8-0.8
		c2.9-1,5.6-2.1,8.1-3.3c0.1,0.5-2.8,1.2-2.5,1.6c2.4-1.1,3.6-2.1,6-3.3c0.6-0.3-0.2,0.4-0.4,0.5c2.2-1.5,4.4-2.8,5.9-4.6
		c0,0-0.1,0.3-0.3,0.4c0.3-0.3,0.8-0.7,0.6-0.8l-0.3,0.4c-0.7,0.3,0.9-1.7,0.8-1.9c-0.1,1,1.6-1.7,1.4-0.2c0.2-0.3,0.3-0.6,0.2-0.7
		c0.3-0.3,0.5-0.4,0.3,0.1c0.9-1.4,0.4-1.1,1.2-2.3c0.1,0.1,0,0.3,0,0.5c0.3-0.8,0.5-1.5,1.1-2.6c0,0.1,0.2,0,0,0.3
		c0.9-2,1-3.6,1.6-6c0.3,0.8,0.3-0.8,0.6-0.9c0-0.4,0-0.9,0-1.3l-0.2,0.5c0.1-1.2-0.3-2.2-0.3-3.2c0.1,0.3,0.2,0.5,0.3,0.8
		c-0.1-0.7-0.3-1.5-0.5-2.1c0.1,0.4,0.1,0.8,0.2,1.2c-0.5-1.1-0.4,0.2-0.7-1.3c0.1,0.3-0.4-1-0.6-1.7l0,0c-0.4-0.4-0.9-0.8-1.4-1.4
		c-0.1-0.2,0.4-0.2,0.3-0.4c-0.3-0.1-0.9-0.5-1.5-0.8s-1.3-0.5-1.7-0.5c0.2,0,0.3-0.2,0.3-0.2c-0.2,0-0.4,0.1-0.5,0.1
		c-0.5-0.2-0.5-0.3-0.4-0.4c-1.5-0.5,0.4,0.6-1.4-0.1c0.1,0,0.1,0,0.4,0c-1.8-0.5-3.5-0.5-5.1-1c-0.4-0.5,1.5,0.2,1-0.2
		c-2.4-0.4-5-0.4-7.3-0.9l0.4,0.1c-0.7,0.5-1.9-0.5-3.2-0.4c0.3,0,0.4-0.2,0.3-0.2c-1.6-0.3-3.3-0.3-5.7-0.5l0.3-0.1
		c-0.9-0.2-2.5-0.4-3.5-0.6c-0.3,0.1-0.9,0-0.6,0.3c-3.1-1.1-6-0.2-8.7-1.1c0.3,0,0.8-0.1,0.5-0.1c-0.8,0-1.6-0.1-2.4-0.1
		c0.3,0.3,0.5,0.3,1,0.5c-0.3,0.1-1,0.2-1.6,0.1c1.1-0.1,0-0.4-0.4-0.5c0.1,0.1-0.1,0.1-0.1,0.2c-1.2-0.5-0.2,0.4-1.9,0.1l0.1-0.1
		c-0.7,0-1.3,0.1-1.9,0.1c-0.3-0.3,0.7-0.1,0.7-0.3c-1,0-1.9,0.4-2.8,0.1c0.4-0.1,1,0,1.4-0.1c-0.9-0.4-1.1-0.3-1.8-0.4h0.1
		l-1.6-0.2l0.4,0.1c-1.2,0.7-2.5,0-4.1,0.5c1.6-0.4,0.3-0.3,0.4-0.6c-0.4-0.1-1-0.2-0.9-0.3c-0.7,0.2-1.2-0.2-2.3,0.1
		c-0.1-0.1-0.8,0-0.7-0.3c-1,0.1,0.2,0.2,0.2,0.3c-1.5,0.3-3.6-0.4-5.8,0.1c-1.9,0.2-2.3,0.6-4,0.8c-0.6-0.1,0.5-0.4,0.5-0.4
		c-1-0.1-1.7-0.1-2.6,0.1c0.2-0.1,0-0.2-0.3-0.3c-0.7,0.1-0.5,0.4-1.4,0.3c0.2-0.1,0.4-0.3,0.7-0.4c-0.9,0.1-1.7,0.3-2.6,0.5
		c-0.2-0.2,0.5-0.3,0.8-0.4c-1,0.1-2.6,0.3-2.9,0.6l0.6,0.1c-0.4,0-0.2-0.2,0.1-0.3c0.8-0.3,1.2,0,1.3,0.1l-0.6,0.1
		c0.7,0.5,2.5-0.2,3.8-0.2L-62,380l1.3-0.4c0.3,0.1,0.5,0.3-0.2,0.4c0.9,0.2,0.8-0.2,1.6,0c0.1,0,0.1,0.1,0,0.1l0.8-0.3
		c-0.2,0.1,0.2,0.3-0.4,0.3c1.6,0.2,2.6-0.4,3.2-0.1h-0.1c2.2-0.2,0.2-0.3,1.9-0.7l1.1,0.8l0.2-0.3c0.2,0,0.7,0,0.6,0.2
		c0.8-0.2-0.2-0.1,0.3-0.3c1.1,0.3,3-0.1,3.3,0.4c0.4-0.2-1.1-0.2,0.1-0.3c0.3,0.5,1.4-0.1,2.4,0.2c-0.3,0.3-1.3,0.1-0.3,0.4
		c0.6-0.4,1.9,0.1,2.8,0.1c0.1-0.4,1.8-0.1,3.3-0.1c-0.1,0.1,2.7,0.3,4,0.5v0.1c0.3-0.7,1.6-0.5,2.6-0.5c0,0.2-0.2,0.3-0.8,0.3
		l0.9,0.1c0.3-0.1,0.6-0.1,1.2-0.2l-0.3,0.3c1.2,0.1,2.5-0.1,4.1,0.2c0.1-0.3-1.2-0.8,0.5-0.9c0.1,0.1,0.1,0.4-0.4,0.4
		c0.2,0,0.5-0.1,0.8,0l-0.7,0.2c0.7,0.2,0.4-0.2,1-0.1c0,0.2,0.4,0.2,0.3,0.3c-0.2,0-0.5-0.1-0.7-0.1c0.7,0.1,1.4,0.3,1.7,0.5
		c-0.1-0.1,0-0.3,0.5-0.2c1.2,0.1,0.4,0.3,1.1,0.4c0.3-0.1,1.1,0.1,1.1-0.2c0.4,0,0.4,0.2,0.5,0.3c0.7-0.1,3,0.3,2.3-0.1h-0.2h0.1
		l0,0l0,0c2.1-0.1,4.3,0.7,6.4,0.9v0.1c1.3,0.1,2.8,0.4,3.7,0.3c0.4,0.1,0.8,0.3,0.7,0.4c0.9,0.1,1.1,0,2.4,0.4c-1,0,0.3,0.2-1,0
		c1.2,0.3,1.5,0.5,2.8,0.5c-0.4,0.2,1,0.5,1.6,0.5l-0.8-0.3c0.7,0.1,1.2,0.2,1.8,0.4l-0.4,0.3c1.2,0.4,2.4,0.5,3.4,0.6s2,0.3,2.6,1
		c0.3,0,0.1-0.1-0.2-0.3c-0.3-0.2-0.6-0.3-0.3-0.4c1.1,0.4,1.7,1.5,1.9,1.7c0.4,0.5,0.7,0.7,1,0.8c0.3,0.2,0.6,0.4,0.9,1.1
		c0-0.2,0.3-0.6,0.8,0.5c0.3,1.1-0.2,1.4-0.4,0.8c-0.1-0.3-0.1-0.4,0-0.4c-0.1-0.3-0.3-0.7-0.3-0.3l0.2,0.1c0.1,0.5,0.3,2,0,1.7
		c0.2,0.8,0.2,0.3,0.2-0.3c0,1.4,0.1,2.2-0.2,3.6c0.1-0.2,0.3-0.4,0.2-0.2c-0.5,2.1,0.1,1-0.2,2.5c-0.4,0.8-0.3-0.4-0.6,1
		c-0.4,0.8-0.4,0.1-0.3-0.3c-0.2,1.3-1.1,2.2-1.5,2.9l0.2-0.7c-0.1,0.4-0.3,0.7-0.5,1l0.4-0.2c-0.2,0.4-0.4,0.6-0.5,0.6
		c-0.1,0.4,0.5-0.1,0.3,0.8c-0.4,0.4-0.8,1.5-1.2,1.5c1.1-1.4-0.4,0,0.4-1.3c-0.1,0.3-0.3,0.5-0.6,0.8c-0.1,0,0-0.1,0-0.2
		c-1.2,1.1-0.1,0.8-1.3,2.2c0-0.3-0.5,0.1-0.7,0.3c0.5-0.5,0.4,0,0.1,0.5c-0.9,0.7-0.8,0.9-1.2,1.3l0.5-0.4
		c-0.1,0.3-0.5,0.7-1.1,1.2c-0.1-0.1,0.5-0.5,0.2-0.4c-0.5,0.8-1.7,1-2.6,1.8c-0.5,0.2-0.2-0.2-0.7,0c-1,0.9-1.4,0.6-2.5,1.4
		c0.5,0,0.5-0.1-0.3,0.6c0.7-0.4,1.3-0.8,2-1.3c-0.4,0.3-0.8,0.7-1.1,1c0.6-0.3,1.2-0.9,1.6-1.1c-0.5,0.5-0.5,0.5-0.1,0.5
		c-1,0.2-1.6,1.2-2.7,1.5l-0.2-0.5c-1.6,0.5-2.6,1.5-4.8,2.1l0.7-0.1c-0.2,0.3-1.3,0.5-1.9,0.8c0-0.2-0.4-0.1-0.8-0.2
		c0.1,0.1-1.6,0.4-1.7,0.9h-1c-1.8,0.3-1.9,1-3.6,1.3c0.5-0.3-0.3-0.3,0.8-0.7c-0.6,0.1-1.1,0.2-1.1,0.3c-0.4-0.1-1.5,0.5-2.1,0.5
		c-0.2,0.1-0.3,0.3-0.9,0.4c-0.1,0,0-0.1,0-0.1c0,0.1-1,0.3-0.4,0.4c-1.9-0.3-5,0.7-6.6,0.4c-1.3,0.2-2.8,0.4-3.9,0.5
		c0.1-0.1,0-0.1,0.2-0.1c-1.6-0.1-0.9,0.7-2.8,0.5c-0.8-0.3,1.1-0.2,0.5-0.3c-0.3-0.6-2.2,0.2-3.4-0.1h0.3c-0.9-0.2-2.3,0.3-3.8,0.3
		c0,0,0.1-0.1,0-0.1c-1,0.3-3,0.5-4.5,0.6c0.5-0.3,0.7-0.1,0.4-0.4c-0.7,0,0.2,0.4-1.1,0.5c-0.4-0.1-1.4-0.3-1.5-0.5h1.2
		c-0.6-0.4-1.6,0-2.3-0.1l0.1-0.2c-1.9,0-1.9,0.4-4,0.4l0.2,0.1c-1.1,0.4-0.9-0.2-2.1,0l-0.3-0.4c-0.7,0.1-2.6,0.3-3.9,0.3
		c0.8-0.3,2.3-0.4,3.3-0.5c-0.7,0-2.5,0-2.9,0.2c0.3,0,0.7-0.1,1,0c-0.9,0.3-2.1,0.4-3.6,0.4c0.3-0.8-3.8-0.3-4.8-0.9
		c-2.6,0.2-5.1-0.3-8.1-0.4c1,0.7-0.9,0-0.7,0.6c-0.7,0-1,0-1-0.1l-2.1-0.5c-0.5-0.2,0.7-0.1,0.6-0.2c-1.5-0.2-0.6-0.3-1.6-0.5
		c0.2,0.2-0.5,0.3-1.4,0.1l1.2,0.4c-2.2,0.2-1.8-0.6-4-0.5l0.7-0.1c-1.1,0-4-0.4-5.2,0c-0.2-0.1-0.4-0.3,0.1-0.3
		c-2.6-0.3-5.9-0.2-7.9-0.8l0.2-0.1c-0.5,0-0.9,0.2-1.5-0.1c0-0.1,0.2-0.1,0-0.2c-0.3,0-1.3,0-2-0.2l0.6-0.1c-2.5-0.6-4-0.3-6.1-0.6
		c0.1-0.4-1.8-1-2.8-1.3h0.1c-2.9-0.8-5-0.9-7.6-1.7c-1.4-1-5.2-2.4-7.3-4.1c0.3,0.3-0.2,0.3-0.7,0c-0.5-0.4-1.6-0.8-1.3-1l0.2,0.1
		c-0.2-0.6-1.2-1.3-1.9-2l-0.5,0.3c-0.7-1.2-1.8-2.4-2.5-3.7c-0.7-1.3-1-2.6-0.7-3.3c-0.2-0.6-0.1-1.3-0.1-1.9l0.3,0.1
		c0.5-1.5,0.8-2.2,2-4c0,0.1-0.1,0.3-0.1,0.5c0.7-0.9,0.3-1.7,1-2.5l0.5,0.1c0.8-0.8,1.6-1.4,2.5-2c0.4-0.3,0.9-0.6,1.3-0.9
		c0.4-0.3,0.9-0.6,1.3-1c0,0.1,0,0.2-0.3,0.4c0.8-0.6,3.5-1.7,2.9-2.1c0.2,0.3,2-1,3-1.6l-0.1,0.3c0.8-0.7,0.8-0.8,2-1.4
		c0.3-0.1,0.4,0.1-0.1,0.2c1.1-0.3,0.7-0.5,2-0.9l-0.4,0.3c1.1-0.4,1-0.4,1.5-0.8c0.7-0.3,2.1-0.6,2.3-0.4c0.1-0.2,0.7-0.6,1.3-0.7
		c0.1,0.1-0.1,0.2-0.2,0.2c1.9-0.3,2.7-1,4-1c0,0.1,0.1,0.1,0.3,0.1c-1.5,0.3-2.7,0.6-2.6,0.5c0.1,0.2,1.3,0,0.4,0.6
		c0.9-0.4,2.5-1.2,3.7-1.3c0.1,0,0.1,0,0.2,0.1l-0.1,0.1c0.3,0,0.5-0.1,0.7-0.2c0.4,0,0.6,0,1-0.1c0.2,0.2,1.4-0.1,2-0.2
		c-0.1-0.3,0.7-0.3-0.1-0.5c0.1,0-0.1,0-0.5,0.1c-0.1,0-0.2,0-0.3,0.1l0,0c-0.4,0.1-0.9,0.2-1.5,0.3c0.5-0.2,0.9-0.4,1.6-0.4
		c0.3-0.2,0.6-0.5,0.8-0.6c1.3,0.2,3,0.2,3.2,0.4c1.8-0.4,4.4-0.6,5.5-1.3c0.5-0.1,0.6,0.1,0.8,0.1c-0.3,0.1-0.7,0.1-0.8,0.2
		c1-0.3,3.1-0.4,3.4-0.8c1.4,0-0.7,0.4,1.1,0.2l-0.2,0.1c3.7,0.3,5.8-1.4,9.9-1c-0.3,0-0.4,0-0.5-0.1c4.6,0,9.5-0.9,14-0.5
		c1.3,0.1,1.4-0.2,2.2-0.4l0.3,0.3l1.3-0.4c1.9-0.3,3.3,0.6,5.7,0.1l-0.3-0.2c0.9,0,2.8-0.2,2.6,0c0.1,0,0.3-0.2,0.6-0.1v0.2
		l2.1-0.3c1.7,0.1-0.2,0.6,2.2,0.6c1,0.1,2.7-0.4,2.3-0.5c-0.4,0-0.9-0.1-1-0.2l0.9-0.1c0.1-0.5,0.8-1-1.3-1.2l-1.4,0.3l-0.4-0.2
		h1.2c-0.7-0.2-1.1,0-1.6,0.1c-0.1-0.1-0.3-0.2-0.6-0.2l-1.4,0.4c-0.2-0.2,0.6-0.4-0.3-0.5c-0.6,0.2,0.6,0.4-0.4,0.6
		c-0.7-0.2-0.5-0.4-1.3-0.2c-0.1-0.1,0.1-0.2,0.4-0.3c-0.7,0.2-1.9,0.1-2.2,0.4c-0.7-0.2-2.4,0.1-2.3-0.3c-0.2,0.1-1.2,0.4-1.9,0.4
		c1.2-0.6-2.4,0-2.1-0.5c-0.9,0.5-3.2,0.3-4.7,0.7c0.1,0,0.3-0.1,0.4-0.1c-0.9,0-1.1-0.1-1.7-0.2c-0.1,0.4-1.4,0.5-2.2,0.8
		c-1.1-0.3,0.6-0.5,0.3-0.8c0.1,0.3-1.8,0.4-1.5,0.7c-0.8-0.2-0.7-0.1-1.2-0.4c-0.1,0.4-0.7,0-1.4,0.4c-1.2-0.2-0.3-0.4-1.6-0.2
		C-74.3,373.4-73.2,373.2-73.2,373.2z M-103.9,377.3L-103.9,377.3c0.3-0.1,0.5-0.1,0.6-0.1C-103.4,377.2-103.6,377.2-103.9,377.3z
		 M-106.4,377.8c0.3-0.1,0.7-0.2,1.1-0.2c0.1,0.1,0,0.2-0.2,0.3C-105.4,377.7-106,377.8-106.4,377.8z M-100.7,378.7
		c-0.4,0.1-0.5,0.1-0.6,0c0.2,0,0.4-0.1,0.7-0.1l0,0C-100.6,378.6-100.6,378.7-100.7,378.7z"/>
	<path class="st1" d="M-100,378.2c0.1,0,0.1,0,0.2-0.1C-100,378.2-100.1,378.2-100,378.2c-0.1,0-0.2,0-0.2,0S-100.1,378.2-100,378.2
		z"/>
	<path class="st1" d="M-20.3,381.8L-20.3,381.8L-20.3,381.8L-20.3,381.8z"/>
	<polygon class="st1" points="-134.4,398.6 -134.3,398.6 -134.4,398.3 	"/>
	<path class="st1" d="M-34.4,379.5c0,0-0.1-0.1-0.2-0.1C-34.6,379.5-34.5,379.5-34.4,379.5z"/>
	<path class="st1" d="M-40.6,379.1l-0.9-0.1C-41,379.1-40.8,379.1-40.6,379.1z"/>
	<path class="st1" d="M-45.3,378.8c-0.1,0.1-0.1,0.1-0.1,0.1l0,0L-45.3,378.8z"/>
	<path class="st1" d="M0.9,409.1c-0.1,0-0.1,0.1-0.1,0.1C0.4,409.5,0.6,409.3,0.9,409.1z"/>
	<path class="st1" d="M6.5,388c0.2,0.2,0.4,0.4,0.5,0.6C6.8,388.2,6.6,387.9,6.5,388z"/>
	<path class="st1" d="M-22.4,419.2L-22.4,419.2c-0.1,0-0.1,0-0.2,0H-22.4z"/>
	<path class="st1" d="M7.4,389.6c-0.1-0.4-0.2-0.8-0.4-1C7.1,388.9,7.3,389.3,7.4,389.6z"/>
	<path class="st1" d="M-65.9,379h-0.2c0,0,0,0,0,0.1L-65.9,379z"/>
	<path class="st1" d="M-66.1,379.1h-0.3C-66.3,379.1-66.2,379.1-66.1,379.1z"/>
	<path class="st1" d="M-66.9,379.2l0.5-0.1C-66.6,379.1-66.8,379.1-66.9,379.2z"/>
	<path class="st1" d="M-59.6,378.9l0.1-0.1C-59.6,378.8-59.6,378.8-59.6,378.9z"/>
	<path class="st1" d="M-57.7,378.8c-0.5,0-1.2-0.2-1.8-0.1v0.1C-59.2,378.6-58.1,379-57.7,378.8z"/>
	<path class="st1" d="M-49.7,380l-1.6-0.1c0.3,0.1,0.6,0.3-0.1,0.3C-49.4,380.5-51.8,380-49.7,380z"/>
	<path class="st1" d="M-44.8,380.2c-0.9,0,0,0.2,0,0.2C-44.3,380.4-44.1,380.4-44.8,380.2z"/>
	<path class="st1" d="M-9.3,383.6l-0.1,0.2C-8.7,383.9-9.4,383.8-9.3,383.6z"/>
	<polygon class="st1" points="-2.3,383.6 -2.9,383.3 -3.3,383.4 	"/>
	<path class="st1" d="M1.2,386.2H0.9c0.3,0.1,0.7,0.1,1,0.2C1.7,386.3,1.4,386.3,1.2,386.2z"/>
	<path class="st1" d="M-29.7,417.7l0.2,0.3C-29,417.9-28.9,417.6-29.7,417.7z"/>
	<path class="st1" d="M-55.4,419c-0.3-0.2-1-0.3-1.5-0.1C-56.3,418.8-55.7,419-55.4,419z"/>
	<path class="st1" d="M-129.3,403.8l0.4,0.3c-0.2-0.2-0.5-0.4-0.7-0.6L-129.3,403.8z"/>
</g>
</svg>
