<?xml version="1.0" encoding="utf-8"?>
<!-- Generator: Adobe Illustrator 24.1.2, SVG Export Plug-In . SVG Version: 6.00 Build 0)  -->
<svg version="1.1" id="Capa_1" xmlns="http://www.w3.org/2000/svg" xmlns:xlink="http://www.w3.org/1999/xlink" x="0px" y="0px"
	 viewBox="0 0 241.8 50" style="enable-background:new 0 0 241.8 50;" xml:space="preserve">
<style type="text/css">
	.st0{fill:#231F20;}
</style>
<g>
	<path class="st0" d="M89.3,30.7v7.4h-3.2v-5.2h-7.7v5.2h-3.2v-7.4l5.5-15.2h3.2L89.3,30.7z M78.9,29.7h6.6l-3.3-9h-0.1L78.9,29.7z"
		/>
	<path class="st0" d="M108.6,31.1v1.3c0,3.2-2.6,5.8-5.8,5.8h-6.3h-2.1V15.6h3.2h4.5c3.2,0,5.8,2.6,5.8,5.8v1.3
		c0,1.5-0.5,2.9-1.5,3.9C107.8,27.6,108.6,29.2,108.6,31.1z M97.7,18.8v6.4h4.5c1.5,0,2.6-1.1,2.6-2.6v-1.3c0-1.5-1.1-2.6-2.6-2.6
		H97.7z M105.4,31.1c0-1.5-1.1-2.6-2.6-2.6h-5.2v6.4h5.2c1.5,0,2.6-1.1,2.6-2.6V31.1z"/>
	<path class="st0" d="M119.6,38.2c-3.2,0-5.8-2.6-5.8-5.8V21.4c0-3.2,2.6-5.8,5.8-5.8h2.6c3.2,0,5.8,2.6,5.8,5.8v10.9
		c0,3.2-2.6,5.8-5.8,5.8H119.6z M124.8,32.3V21.4c0-1.5-1.1-2.6-2.6-2.6h-2.6c-1.5,0-2.6,1.2-2.6,2.6v10.9c0,1.4,1.2,2.6,2.6,2.6
		h2.6C123.6,34.9,124.8,33.7,124.8,32.3z"/>
	<path class="st0" d="M147.3,32.3c0,3.2-2.6,5.8-5.8,5.8H139c-3.2,0-5.8-2.6-5.8-5.8V15.6h3.2v16.7c0,1.4,1.2,2.6,2.6,2.6h2.6
		c1.4,0,2.6-1.2,2.6-2.6V15.6h3.2V32.3z"/>
	<path class="st0" d="M166.7,18.8h-5.5v19.3H158V18.8h-5.5v-3.2h8.7h5.5V18.8z"/>
</g>
</svg>
