<?xml version="1.0" encoding="utf-8"?>
<!-- Generator: Adobe Illustrator 24.1.2, SVG Export Plug-In . SVG Version: 6.00 Build 0)  -->
<svg version="1.1" id="Capa_1" xmlns="http://www.w3.org/2000/svg" xmlns:xlink="http://www.w3.org/1999/xlink" x="0px" y="0px"
	 viewBox="0 0 310.62 82.28" style="enable-background:new 0 0 310.62 82.28;" xml:space="preserve">
<style type="text/css">
	.st0{fill:#231F20;}
	.st1{fill:#202020;}
</style>
<g>
	<g>
		<path class="st0" d="M61.43,51.6v7.42h-3.22v-5.22h-7.74v5.22h-3.22V51.6l5.48-15.15h3.22L61.43,51.6z M51.05,50.57h6.58
			l-3.26-9.03h-0.06L51.05,50.57z"/>
		<path class="st0" d="M80.78,42.25v1.93c0,3.22-2.58,5.8-5.8,5.8h-5.16v9.03h-3.22V36.45h3.22h5.16
			C78.2,36.45,80.78,39.03,80.78,42.25z M77.56,42.25c0-1.45-1.13-2.58-2.58-2.58h-5.16v7.09h5.16c1.45,0,2.58-1.13,2.58-2.58V42.25
			z"/>
		<path class="st0" d="M100.13,42.25v1.93c0,3.22-2.58,5.8-5.8,5.8h-5.16v9.03h-3.22V36.45h3.22h5.16
			C97.55,36.45,100.13,39.03,100.13,42.25z M96.91,42.25c0-1.45-1.13-2.58-2.58-2.58h-5.16v7.09h5.16c1.45,0,2.58-1.13,2.58-2.58
			V42.25z"/>
		<path class="st0" d="M119.48,55.79v3.22h-14.19V36.45h3.22v19.35H119.48z"/>
		<path class="st0" d="M127.86,39.67v5.9h9.67v3.22h-9.67v7h10.96v3.22h-14.19V48.79v-9.12v-3.22h14.19v3.22H127.86z"/>
		<path class="st0" d="M177.52,36.45v22.57h-3.22V43.54l-3,6.38h-1.74l-3-6.38v15.48h-3.22V36.45h3.22l3.87,8.42l3.87-8.42H177.52z"
			/>
		<path class="st0" d="M196.87,53.18c0,3.19-2.61,5.84-5.8,5.84h-2.58c-3.22,0-5.8-2.64-5.8-5.84V36.45h3.22v16.73
			c0,1.42,1.16,2.58,2.58,2.58h2.58c1.42,0,2.58-1.16,2.58-2.58V36.45h3.22V53.18z"/>
		<path class="st0" d="M205.25,51.73v1.29c0,1.52,1.26,2.77,2.77,2.77h2.16c1.64,0,2.81-1.03,2.81-2.45
			c0-4.45-10.64-5.42-10.64-11.54c0-3.16,2.48-5.35,6-5.35h1.52c3.32,0,6.03,2.68,6.03,6v0.97h-3.22v-0.97
			c0-1.55-1.26-2.77-2.8-2.77h-1.52c-1.74,0-2.77,0.81-2.77,2.13c0,3.42,10.64,4.74,10.64,11.54c0,3.22-2.61,5.67-6.03,5.67h-2.16
			c-3.32,0-6-2.68-6-6v-1.29H205.25z"/>
		<path class="st0" d="M230.08,39.67v16.12h5.48v3.22h-8.71h-5.48v-3.22h5.48V39.67h-5.48v-3.22h8.71h5.48v3.22H230.08z"/>
		<path class="st0" d="M251.69,42.25c0-1.45-1.13-2.58-2.58-2.58h-2.58c-1.45,0-2.58,1.16-2.58,2.58v10.93
			c0,1.42,1.16,2.58,2.58,2.58h2.58c1.42,0,2.58-1.16,2.58-2.58v-1.77h3.22v1.77c0,3.19-2.58,5.84-5.8,5.84h-2.58
			c-3.19,0-5.8-2.64-5.8-5.84V42.25c0-3.22,2.61-5.8,5.8-5.8h2.58c3.22,0,5.8,2.58,5.8,5.8v1.77h-3.22V42.25z"/>
	</g>
	<g>
		<path class="st1" d="M152.78,18.99c0.34-0.07,0.16-0.28-0.78-0.28l-0.68,0.3L152.78,18.99z"/>
		<path class="st1" d="M146.49,18.11c-1.11,0.11-2.4,0.35-1.69,0.68c1.11-0.27,1.37-0.13,2.56-0.46c0.94,0,1.64,0.17,1.47,0.29
			c0.34-0.07,1.46,0.13,1.97-0.05c-1.21-0.31-2.76-0.38-4.39-0.24C146.07,18.24,146.41,18.17,146.49,18.11z"/>
		<path class="st1" d="M54.87,22.56l0.59-0.1C55.3,22.48,55.1,22.51,54.87,22.56z"/>
		<path class="st1" d="M5.47,48.54c0.19-0.4,0.25-0.58,0.23-0.62C5.54,48.31,5.4,48.62,5.47,48.54z"/>
		<path class="st1" d="M3.03,58.27c0.01-0.22,0.01-0.41,0.02-0.61C3.02,57.9,3.01,58.13,3.03,58.27z"/>
		<path class="st1" d="M54.87,22.56l-1.51,0.24C53.29,22.93,54.14,22.7,54.87,22.56z"/>
		<path class="st1" d="M133.8,18.47c0.32-0.01,0.58-0.03,0.83-0.06c-0.26,0-0.51,0.01-0.78,0.01
			C133.83,18.43,133.82,18.45,133.8,18.47z"/>
		<path class="st1" d="M79.67,18.26l0.46-0.05c0.13-0.05,0.25-0.11,0.37-0.18L79.67,18.26z"/>
		<path class="st1" d="M98.93,16.84c-0.44,0-0.58,0.29-0.74,0.42c0.24-0.12,0.56-0.19,0.94-0.22
			C99.14,16.98,99.08,16.92,98.93,16.84z"/>
		<path class="st1" d="M129.51,17.21l0.54-0.02C129.91,17.19,129.68,17.2,129.51,17.21z"/>
		<path class="st1" d="M65.95,20.03c-0.04-0.04-0.11-0.06-0.19-0.07C65.76,20,65.83,20.02,65.95,20.03z"/>
		<path class="st1" d="M179.21,6.94c0.02-0.02,0-0.03,0-0.05C179.1,6.91,179.06,6.92,179.21,6.94z"/>
		<path class="st1" d="M157.1,3.55l0.31,0.01c0.04-0.05,0.08-0.1,0.08-0.15L157.1,3.55z"/>
		<path class="st1" d="M12.81,73.51c-0.03-0.02-0.04-0.03-0.07-0.04C12.28,73.26,12.53,73.39,12.81,73.51z"/>
		<path class="st1" d="M176.25,78.49c-1.86-0.19,3-0.43,0.2-0.61C176.71,77.98,173.93,78.41,176.25,78.49z"/>
		<path class="st1" d="M133.3,18.42c-0.26-0.01-0.52-0.01-0.79-0.02C132.87,18.42,133.11,18.42,133.3,18.42z"/>
		<path class="st1" d="M176.45,77.88L176.45,77.88l-0.29-0.02C176.28,77.87,176.35,77.88,176.45,77.88z"/>
		<path class="st1" d="M53.82,78.34c-0.08-0.05-0.24-0.1-0.41-0.14C53.42,78.23,53.51,78.27,53.82,78.34z"/>
		<path class="st1" d="M23.25,76.15l0.75,0.15C23.71,76.23,23.47,76.18,23.25,76.15z"/>
		<path class="st1" d="M69.69,78.46c0.41,0.03,0.55,0.08,1.11,0.06c-0.05-0.02-0.1-0.03-0.17-0.04
			C70.43,78.51,70.16,78.52,69.69,78.46z"/>
		<path class="st1" d="M86.21,78.86c-0.09-0.02-0.2-0.04-0.3-0.06c-0.16,0-0.35,0-0.52,0L86.21,78.86z"/>
		<path class="st1" d="M228.93,13.12c-0.35-0.13-0.55-0.25-0.71-0.36C228.43,12.99,226.03,12.7,228.93,13.12z"/>
		<path class="st1" d="M133.79,18.31c-0.1,0.07-0.24,0.1-0.49,0.11c0.19,0,0.37,0,0.55,0C133.9,18.38,133.91,18.34,133.79,18.31z"/>
		<path class="st1" d="M70.43,76.26l2.62,0.12C72.31,76.33,71.36,76.29,70.43,76.26z"/>
		<path class="st1" d="M286.38,65.58l0.56-0.19C286.72,65.44,286.52,65.5,286.38,65.58z"/>
		<path class="st1" d="M80.82,76.52c0.47,0.11,0.96,0.18,1.47,0.23c0.11-0.02,0.23-0.03,0.31-0.07L80.82,76.52z"/>
		<path class="st1" d="M228.21,12.75C228.21,12.75,228.21,12.75,228.21,12.75C228.21,12.75,228.21,12.75,228.21,12.75z"/>
		<path class="st1" d="M211.03,10.96c2.47,0.34,1.21-0.2,1.76-0.34c2.97,0.31,1.33,0.46,2.31,0.79c1.86,0.16,3.32,0.01,4.69,0.23
			c0.09,0.08,0.36,0.14,0.03,0.17c1.99-0.01,5.78,0.82,8.1,0.81c0.16,0.06,0.24,0.1,0.28,0.14c-0.34-0.24-0.37-0.43-0.27-0.55
			c1.11,0.16,2.09,0.08,2.47,0.38c-0.68-0.11-0.75-0.02-1.08,0l1.18,0.07c0.99,0.5-1.6-0.12-1.64,0.13
			c2.28,0.22,4.96,0.37,6.67,0.74c0.31,0.39-4.07-0.53-1.8,0.14l-2.66-0.55c1.96,0.85-1.62-0.29,0.17,0.57
			c3.51,0.66,3.97,0.44,7.46,1.12c0.82-0.06-0.22-0.32,0.61-0.37c5.05,0.48,3.79,1.49,7.53,1.67c0.99-0.06,1.43-0.43,4,0.26
			l-0.96,0.22c3.39,0.64,2.04-0.2,5.55,0.69c-0.66,0.03-2.7-0.35-2.19-0.22c2.25,0.71,1.67,0.07,3.44,0.4l0.3,0.4
			c3.61,0.62,7.61,1.19,11.56,2.13c-0.24,0.04-0.94-0.03-0.05,0.31c4.98,1.09,10.43,3.11,14.74,5.35c0.6,0.17,1.19,0.37,1.79,0.56
			c0.39,0.2,0.65,0.48,0.21,0.32c1.64,0.95,0.17-0.12,1.04,0.19c0.96,0.5,1.15,0.86,0.52,0.59c0.74,0.37,1.67,0.8,2.63,1.34
			c0.93,0.59,1.99,1.15,2.95,1.88c0.95,0.72,1.95,1.41,2.74,2.22c0.82,0.77,1.58,1.49,2.09,2.21l-0.52-0.44
			c0.87,1.04,1.51,1.5,2.11,1.97c0.55,0.51,1.09,1.02,1.75,2.1l-0.34-0.35c1.75,2.38,3.26,5.14,3.94,7.93
			c0.35,1.39,0.47,2.77,0.36,4.05c-0.05,0.64-0.16,1.24-0.34,1.81c-0.08,0.28-0.17,0.56-0.25,0.83c-0.12,0.25-0.24,0.5-0.35,0.74
			c0.03,0.23-0.06,0.67-0.33,1.17c-0.13,0.25-0.25,0.54-0.42,0.82c-0.18,0.27-0.37,0.55-0.56,0.83c-0.37,0.56-0.84,1.03-1.13,1.46
			c-0.34,0.39-0.55,0.71-0.51,0.88c-1.3,1.05-1.85,1.3-2.52,1.68c-0.32,0.2-0.7,0.4-1.25,0.69c-0.53,0.31-1.27,0.68-2.33,1.18
			c-1.13,0.54-1.52,1.16-2.96,1.81l-0.15-0.27c-0.62,0.36-1.25,0.72-1.89,1.05c-0.4,0.01-0.8,0.02-1.2,0.01
			c-0.46,0.17-0.92,0.35-1.39,0.51c0.57-0.14,1.24-0.23,1.18-0.12c-2.17,0.83-5.56,1.25-5.65,1.11c-1.78,0.51-3.57,0.99-5.37,1.43
			c0.1-0.15,1-0.36,1.7-0.6c-2.84,0.9-0.59-0.2-3.19,0.6c0.37,0-0.16,0.22-0.21,0.29c-1.36,0.07-4.4,0.6-6.65,1.02l0.4-0.28
			c-4.08,0.58-8.6,1.3-13.21,1.79c1.66-0.08,1.33,0.33-0.03,0.51l-0.58-0.27c-0.85,0.29,1.43-0.03-0.34,0.41
			c-1.73,0.14-1.2-0.25-0.22-0.46l-2.09,0.33c-0.13-0.08,0.35-0.18,0.47-0.32c-0.84,0.29-3.65,0.03-4.86,0.49l-0.13-0.09
			c-4.62,0.46-6.72,0.66-10.49,1.04c-0.05,0.29-1.53,0.35-2.64,0.67c-2.78,0.16-5.88,0.14-9.22,0.42c-2.34,0.32-0.67,0.29-1.71,0.53
			c-0.19-0.24-3.53,0.03-1.81-0.28c-4.01,0.35-5.12,0.4-10.19,0.94c0.56,0.07,1.18,0.07,0.87,0.18c-0.92,0.1-2.1,0.03-1.98-0.1
			l0.24-0.04c-5.68,0.78-13.21,0-17.72,0.8l0.25-0.04l-4.7,0.49c-2.17,0.05,1.29-0.25-0.32-0.34c-5.07,0.64-8.03,0.32-12.21,0.74
			c-3.27-0.64-11.5,0.47-15.9,0.08l0.26,0.17c-1.13,0.2-1.37-0.07-2.21-0.09c0.12,0.14,1.23,0.13,0.53,0.24
			c-9.58,0.48-19.79,0.14-29.62,0.05c-3.59-0.02-2.04,0.95-6.57,0.52l1.29-0.33c-3.63,0.2-7.34,0.2-11.03,0.19
			c-3.69-0.04-7.36-0.09-10.91,0.06c0.42-0.07,0.44-0.17,1.13-0.17c-1.5-0.25-5.55-0.06-5.57,0.13c-1.11-0.04-0.25-0.18-0.93-0.29
			c-1.5-0.16-3.78,0.25-4.58,0c-0.14-0.04,0.42-0.07,0.7-0.09c-0.98,0.1-4.57-0.1-3.63,0.19c-2.66-0.17-5.1,0.03-7.22-0.18
			c-1.39,0.28-4.56-0.25-5.01,0.17c0.2-0.45-4.66-0.46-6.35-0.31c0.57-0.12-1.46-0.19-0.8-0.35c-1.92-0.05-3.69-0.02-3.36,0.22
			c-3.53-0.65-7.14,0.23-9.11-0.54c-5.72,0.03-11.01,0.02-16.15-0.11c0.2-0.44,5.68,0.2,5.48-0.29c-4.88-0.02-7.71,0.24-12.53-0.07
			c-1.25-0.12,0.72-0.16,1.15-0.22c-4.88-0.01-9.34-0.49-13.55-1.1c0.02-0.04,0.48,0,0.91,0.05c-0.83-0.14-1.89-0.43-1.84-0.23
			c0.27,0.05,0.54,0.08,0.81,0.11c0.63,0.26-0.22,0.29-1.25,0.18c-1.03-0.08-2.23-0.31-2.33-0.26c0.77-0.09-0.24-0.39-1.12-0.75
			c-0.87-0.38-1.62-0.72-0.45-0.7c-0.53-0.14-1.19-0.3-1.13-0.13c-0.73-0.36-0.92-0.54-0.12-0.35c-1.38-0.52-1.81-0.7-2.23-0.85
			c-0.21-0.08-0.41-0.14-0.71-0.28c-0.28-0.16-0.65-0.39-1.21-0.75c0.07-0.08,0.54,0.19,0.83,0.24c-0.31-0.14-0.61-0.29-0.93-0.44
			c-0.31-0.17-0.61-0.38-0.93-0.59c-0.33-0.22-0.68-0.46-1-0.8c-0.32-0.33-0.72-0.65-1.04-1.11c0.14,0.06,0.01-0.17,0.46,0.32
			c-0.34-0.34-0.6-0.71-0.9-1.05c-0.31-0.33-0.55-0.68-0.79-1.04c-0.52-0.69-0.94-1.4-1.32-2.16c-0.73-1.52-1.23-3.27-1.19-5.41
			c0.45,1.24,0.1-1.45,0.55-1.65c-0.01-0.75,0.08-1.5,0.17-2.25C5.18,54.5,5.1,54.8,4.99,55.09c0.29-1.97,0.56-3.78,1.35-5.34
			c-0.16,0.48-0.28,0.96-0.4,1.45c0.37-1.2,0.9-2.35,1.46-3.47c-0.37,0.61-0.76,1.22-1.06,1.87c0.31-0.99,0.22-0.97,0.15-1.04
			c-0.05-0.05-0.08-0.19,0.64-1.37C7,47.44,7.26,47,7.65,46.39c0.42-0.59,0.96-1.33,1.39-1.67l0,0.01c0.51-0.88,1.12-1.76,2.24-2.79
			c0.37-0.19,0.06,0.51,0.31,0.39c0.24-0.46,1.08-1.31,2.02-2.11c0.93-0.8,1.93-1.58,2.37-2.07c-0.3,0.31-0.21,0.48-0.07,0.43
			l0.55-0.69c0.84-0.47,0.98-0.5,0.93-0.29c2.45-1.47-1.04,0.05,1.99-1.53c-0.22,0.15-0.1,0.11-0.55,0.44
			c2.99-1.64,5.79-3.24,8.75-4.35c1-0.03-2.5,1.17-1.39,1.04c2.05-0.97,4.24-1.86,6.38-2.81c1.08-0.46,2.14-0.94,3.22-1.34
			c1.08-0.38,2.16-0.74,3.21-1.07l-0.79,0.22c0.42-0.68,3.2-0.81,5.26-1.69c-0.52,0.18-0.61,0.47-0.48,0.38
			c1.47-0.36,2.95-0.81,4.6-1.34c0.83-0.27,1.7-0.55,2.65-0.85c0.95-0.26,1.97-0.54,3.08-0.85l-0.52,0.26
			c1.77-0.26,4.58-1.04,6.49-1.31c0.53-0.24,1.62-0.42,0.93-0.49c2.99-0.16,5.74-0.83,8.45-1.31c2.7-0.53,5.32-1.07,7.98-1.02
			c-0.63,0.07-1.48,0.29-0.98,0.23l4.44-0.64c-0.38-0.19-0.6-0.07-1.56-0.14c0.55-0.2,1.8-0.46,2.91-0.57
			c-2,0.37,0.05,0.35,0.94,0.42c-0.15-0.06,0.14-0.16,0.06-0.23c2.38,0.21,0.35-0.5,3.57-0.49l-0.16,0.14
			c1.19-0.16,2.28-0.42,3.58-0.48c0.55,0.22-1.27,0.22-1.33,0.45c1.81-0.18,3.55-0.73,5.21-0.57c-0.77,0.12-1.88,0.18-2.64,0.3
			c1.81,0.21,2.01,0.12,3.34,0.09l-0.13,0l3.08-0.04l-0.79-0.04c2.24-0.82,4.62-0.3,7.67-0.87c-2.97,0.53-0.48,0.27-0.7,0.58
			c0.78,0.06,1.97,0.11,1.64,0.21c1.44-0.27,2.42,0.16,4.45-0.23c0.09,0.1,1.55-0.01,1.22,0.24c1.88-0.1-0.45-0.16-0.29-0.29
			c2.9-0.4,6.82,0.39,10.99-0.06c3.6-0.12,4.27-0.44,7.62-0.55c1.12,0.18-0.93,0.34-0.93,0.34c1.82,0.17,3.19,0.2,4.9,0.13
			c-0.35,0.08,0.01,0.16,0.53,0.28c1.38,0.01,0.93-0.33,2.74-0.13c-0.31,0.1-0.72,0.26-1.39,0.35c1.62-0.05,3.23-0.18,4.91-0.2
			c0.44,0.19-1.02,0.22-1.62,0.31c1.89-0.01,4.89,0.02,5.48-0.22l-1.21-0.14c0.69,0.01,0.34,0.24-0.16,0.27
			c-1.62,0.15-2.33-0.18-2.42-0.28l1.2-0.02c-1.21-0.62-4.81-0.09-7.21-0.18l1.02-0.39l-2.48,0.27c-0.52-0.12-0.88-0.37,0.32-0.39
			c-1.72-0.25-1.53,0.1-3.01-0.17c-0.16-0.04-0.09-0.06,0.06-0.07l-1.69,0.09c0.33-0.08-0.27-0.3,0.76-0.22
			c-3.03-0.29-4.89,0.23-6.03-0.11l0.25-0.02c-4.2,0.07-0.41,0.29-3.57,0.63l-2.12-0.76l-0.41,0.3c-0.43-0.01-1.29-0.04-1.13-0.16
			c-1.61,0.2,0.27,0.13-0.66,0.33c-2.09-0.31-5.75,0.19-6.23-0.31c-0.75,0.24,2,0.15-0.23,0.34c-0.64-0.51-2.57,0.1-4.48-0.07
			c0.58-0.3,2.39-0.19,0.47-0.38c-1.14,0.5-3.72,0.03-5.32,0.17c-0.03,0.18-0.9,0.25-2.11,0.3c-1.2,0.08-2.73,0.14-4.08,0.28
			c0.16-0.14-5.09,0.08-7.6,0.21l0.07-0.07c-0.45,0.42-3.05,0.54-4.91,0.81c0.05-0.22,0.38-0.37,1.39-0.55
			c-0.59,0.04-1.18,0.11-1.77,0.18c-0.4,0.17-0.95,0.29-2.09,0.46l0.41-0.32c-2.35,0.31-4.7,0.81-7.73,1.12
			c-0.13,0.28,2.49,0.35-0.66,0.99c-0.14-0.12-0.29-0.34,0.53-0.52c-0.27,0.06-0.95,0.26-1.51,0.28l1.23-0.42
			c-1.38,0.1-0.69,0.3-1.78,0.44c-0.01-0.2-0.83-0.02-0.7-0.2c0.28-0.06,0.97-0.06,1.38-0.2c-1.24,0.15-2.75,0.26-3.27,0.18
			c0.13,0.1,0.04,0.25-0.85,0.44c-2.32,0.45-0.84-0.08-2.21,0.07c-0.54,0.24-2.05,0.38-2.03,0.68c-0.68,0.13-0.83,0.02-1.11-0.01
			c-1.19,0.3-5.59,1.24-4.17,1.24l0.31-0.05c-0.06,0.02-0.12,0.04-0.19,0.06c0.01,0,0,0,0.01,0l-0.01,0c-1.92,0.6-3.96,1-5.99,1.45
			c-2.02,0.5-4.04,0.97-5.94,1.56l-0.02-0.1c-2.26,0.74-5.01,1.69-6.56,2.39c-0.67,0.22-1.63,0.35-1.39,0.14
			c-1.7,0.65-1.83,0.88-4.34,1.66c1.64-0.82-0.64,0.08,1.7-0.79c-2.23,0.77-2.8,0.82-5.06,1.98c0.71-0.56-1.78,0.36-2.78,0.91
			l1.6-0.49c-1.16,0.51-2.17,0.96-3.2,1.41l0.41-0.56c-2.3,0.83-4.2,2-5.91,3.17c-1.71,1.17-3.22,2.32-4.91,3.22
			c-0.89,0.98,2.22-1.5,1.46-0.57c-1.84,1.27-3.9,2.54-4.41,3.06c-1.17,1.05-1.55,1.72-1.94,2.37c-0.36,0.68-0.74,1.35-1.67,2.7
			c0.34-0.29,0.75-0.46-0.32,1.67c-0.54,0.98-0.91,1.57-1.12,1.73c-0.21,0.16-0.25-0.1-0.01-0.78c0.22-0.5,0.39-0.72,0.41-0.68
			c0.27-0.69,0.73-1.55,0.16-0.82l-0.03,0.32c-0.15,0.24-0.36,0.6-0.58,0.99c-0.19,0.4-0.4,0.84-0.58,1.22
			c-0.34,0.77-0.57,1.34-0.54,0.95c-0.43,1.71-0.07,0.76,0.42-0.43c-0.6,1.35-0.88,2.49-1.11,3.64c-0.21,1.15-0.36,2.33-0.41,3.87
			c0.06-0.49,0.2-0.93,0.2-0.45c-0.01,0.56-0.03,1.01-0.02,1.38c0.03,0.37,0.05,0.65,0.08,0.87c0.05,0.44,0.11,0.64,0.18,0.78
			c0.07,0.15,0.13,0.25,0.22,0.5C3.79,61,3.9,61.39,4.11,62.11c0.13,0.85,0,0.74-0.06,0.77C4,62.9,4,63.11,4.66,64.5
			c0.7,1.76-0.11,0.51-0.53-0.16c1.37,2.52,2.64,4.69,3.86,5.84l-1.14-1.02c0.69,0.61,1.19,1.17,1.78,1.65
			c-0.18-0.23-0.33-0.49-0.48-0.76c0.59,0.66,1.22,1.08,1.13,1.16c0.81,0.43-0.3-0.71,1.23,0.18c0.87,0.78,3.03,1.67,3.26,2.09
			c-1.58-0.85-1.52-0.77-1.42-0.59c0.11,0.15,0.25,0.42-1.1-0.35c0.52,0.31,1.17,0.61,1.92,1.08c0.1,0.09-0.14,0-0.36-0.1
			c3.06,1.71,1.58,0.43,4.92,1.58c-0.48,0.04,0.69,0.56,1.26,0.68c-1.38-0.42-0.58-0.44,0.71-0.27c1.08,0.34,1.68,0.44,2.16,0.48
			c0.48,0.05,0.82,0.07,1.39,0.17c-0.44-0.09-0.87-0.21-1.3-0.31c0.48-0.08,1.57,0.14,3.11,0.3c0.11,0.16-1.4-0.12-0.87,0.03
			c1.74-0.05,3.82,0.82,6.23,0.77c1.1,0.2,0.09,0.35,1.05,0.48c2.69-0.08,2.88,0.38,5.69,0.31c-0.8-0.27-0.94-0.22,1.04-0.37
			l-4.6-0.03l2.96-0.22c-1.39-0.06-2.93,0.03-3.76-0.05c1.42-0.13,1.27-0.08,0.61-0.31c1.88,0.44,3.77-0.05,5.95,0.29l-0.09,0.59
			c3.29,0.4,5.87-0.03,10.15,0.26l-1.37-0.15c0.58-0.21,2.65,0.06,4.04,0.02c-0.14,0.19,0.73,0.3,1.32,0.44
			c-0.07-0.15,3.14,0.13,3.54-0.25l1.9,0.33c3.46,0.22,3.97-0.44,7.29-0.27c-1.01,0.18,0.5,0.37-1.73,0.46
			c1.11,0.04,2.11,0.1,2.13-0.04c0.65,0.14,3.09-0.17,4.1,0.04c0.47-0.07,0.63-0.27,1.88-0.22c0.13,0.04-0.01,0.1-0.01,0.1
			c0.01-0.09,1.95-0.08,0.87-0.33c3.4,0.69,9.56,0.17,12.53,0.77c2.43-0.02,5.35-0.05,7.55-0.02c-0.14,0.06-0.01,0.1-0.42,0.07
			c3.03,0.23,1.87-0.54,5.32-0.28c1.76,0.35-1.84,0.14-0.74,0.28c0.47,0.66,4.17-0.03,6.49,0.36l-0.56,0.03
			c1.78,0.23,4.34-0.21,7.24-0.14c0,0-0.14,0.06-0.02,0.1c1.99-0.3,5.75-0.43,8.54-0.52c-0.87,0.25-1.27,0.13-0.74,0.39
			c1.25-0.04-0.37-0.41,2.13-0.49c0.81,0.14,2.62,0.26,2.86,0.54l-2.36,0.02c1.21,0.36,3.05-0.01,4.29,0.05l-0.16,0.16
			c3.61-0.06,3.66-0.47,7.54-0.47l-0.4-0.11c2.12-0.41,1.78,0.2,3.89-0.1l0.64,0.39c1.4-0.1,4.9-0.44,7.41-0.56
			c-1.42,0.31-4.35,0.53-6.17,0.71c1.39,0,4.72-0.1,5.44-0.3c-0.56,0.05-1.26,0.16-1.82,0.11c1.7-0.34,3.93-0.53,6.7-0.57
			c-0.48,0.78,7.21,0.07,9.23,0.59c4.88-0.41,9.71-0.12,15.41-0.39c-2.04-0.52,1.66-0.08,1.29-0.67c1.33-0.09,1.83-0.09,1.95-0.06
			l4.04,0.22c0.96,0.14-1.26,0.19-1.13,0.32c2.91-0.07,1.23,0.21,3.16,0.29c-0.4-0.2,1-0.36,2.66-0.35l-2.34-0.18
			c4.04-0.51,3.53,0.36,7.61-0.15l-1.29,0.25c2.1-0.19,7.75-0.37,9.78-0.98c0.38,0.05,0.87,0.19-0.05,0.28
			c2.51-0.1,5.29-0.38,7.94-0.63c2.64-0.27,5.15-0.51,7.11-0.48l-0.37,0.17c0.93-0.1,1.61-0.39,2.79-0.31
			c-0.06,0.07-0.37,0.17,0.07,0.15c0.49-0.08,2.47-0.42,3.71-0.42l-1.05,0.24c4.9-0.15,7.47-0.97,11.56-1.37
			c0.02,0.44,3.88,0.29,5.8,0.19l-0.06,0.07c5.69-0.44,9.63-1.17,14.87-1.85c3.31,0.17,11.09-0.93,16.36-1.45
			c-0.81,0.04,0.08-0.36,1-0.54c1.24-0.1,3.34-0.83,3.21-0.41l-0.44,0.07c0.99,0.24,3.49-0.3,5.46-0.67l0.22-0.58
			c2.63-0.12,5.97-0.92,8.98-1.79c3.04-0.86,5.69-1.96,7.16-2.22c1.13-0.63,2.58-1.31,3.63-2.08l0.08,0.28
			c0.81-0.41,1.47-0.86,2.11-1.25c0.61-0.45,1.22-0.83,1.78-1.33c0.28-0.24,0.57-0.49,0.87-0.75c0.28-0.29,0.57-0.58,0.88-0.9
			c0.32-0.3,0.6-0.68,0.92-1.07c0.16-0.2,0.32-0.4,0.48-0.62c0.15-0.23,0.3-0.47,0.45-0.71c-0.12,0.3-0.23,0.62-0.37,0.91
			c0.39-0.54,0.63-1.04,0.83-1.47c0.17-0.45,0.25-0.88,0.34-1.28c0.1-0.4,0.14-0.8,0.2-1.25c0.07-0.44,0.21-0.9,0.31-1.48l0.57-0.61
			c0.93-4.54-0.4-9.34-2.98-12.81c0.09,0.03,0.26,0.08,0.64,0.69c-0.9-1.91-4.5-6.62-4.49-5.62c0.12-0.13-0.61-1-1.65-1.95
			c-1.08-0.9-2.38-1.99-3.38-2.6l0.46,0.01c-1.77-0.94-1.85-0.93-4.18-2.35c-0.52-0.39-0.35-0.5,0.33,0.04
			c-0.85-0.67-1.25-0.83-1.7-1c-0.45-0.18-0.94-0.39-2.03-1.11l0.93,0.33c-0.95-0.58-1.42-0.78-1.78-0.91
			c-0.36-0.13-0.63-0.18-1.22-0.36c-0.64-0.28-1.57-0.73-2.39-1.14c-0.81-0.42-1.48-0.84-1.58-1.02c-0.34,0.03-1.54-0.21-2.72-0.74
			c-0.13-0.15,0.33-0.04,0.56,0.02c-1.68-0.76-3.03-1.07-4.2-1.41c-1.19-0.28-2.24-0.54-3.41-1.02c-0.03-0.1-0.17-0.19-0.37-0.27
			c2.81,0.79,5.05,1.54,4.83,1.51c0.09-0.25-2.16-1.03-0.25-0.78c-0.93-0.22-2.22-0.42-3.53-0.7c-1.32-0.25-2.68-0.53-3.77-0.88
			c-0.1-0.05-0.2-0.1-0.27-0.16l0.24,0.03c-0.51-0.15-0.98-0.24-1.42-0.3c-0.7-0.21-1.15-0.35-1.84-0.51
			c-0.22-0.26-2.62-0.7-3.77-0.93c0.04,0.29-1.46-0.05-0.09,0.46c-0.18-0.05,0.22,0.01,0.99,0.16c0.17,0.03,0.38,0.07,0.49,0.08
			c-0.02,0-0.05,0-0.08,0.01c0.75,0.16,1.74,0.37,2.85,0.61c-0.94-0.07-1.91-0.15-3.14-0.58c-0.62,0.04-1.31,0.11-1.69,0.12
			c-1.49-0.71-4.49-1.48-4.87-1.79c-3.54-0.48-8.3-1.36-10.6-1.21c-1.01-0.1-1.12-0.35-1.48-0.49c0.59,0.05,1.27,0.17,1.6,0.15
			c-2.02-0.22-5.94-0.93-6.47-0.65c-2.5-0.58,1.47-0.1-2-0.61l0.49-0.04c-6.74-1.67-11.24-0.81-18.71-2.65
			c0.52,0.12,0.78,0.18,0.88,0.26c-8.6-1.57-17.87-2.11-26.36-3.62c-2.42-0.38-2.71-0.18-4.22-0.17l-0.49-0.36l-2.58,0.07
			c-3.63-0.14-6.16-1.4-10.78-1.37l0.57,0.26c-1.64-0.19-5.21-0.37-4.91-0.58c-0.17,0.02-0.56,0.16-1.19-0.01l-0.04-0.16l-4.06-0.09
			c-3.12-0.38,0.54-0.59-4.02-1c-1.7-0.08-4.87,0.06-4.24,0.22c0.68,0.06,1.74,0.24,1.78,0.4l-1.56-0.04
			c-0.32,0.44-1.55,0.82,2.23,1.45l2.67-0.07l0.83,0.29l-2.23-0.17c1.25,0.32,2.07,0.19,2.97,0.14c0.2,0.14,0.57,0.25,1.09,0.35
			l2.64-0.21c0.3,0.21-1.2,0.26,0.54,0.51c1.24-0.1-1.13-0.51,0.9-0.47c1.25,0.33,0.86,0.47,2.36,0.43c0.2,0.14-0.12,0.19-0.72,0.18
			c1.34-0.02,3.51,0.27,4.21,0.09c1.29,0.39,4.47,0.38,4.3,0.8c0.43-0.06,2.36-0.12,3.58,0c-2.27,0.29,4.54,0.52,3.89,1.02
			c1.69-0.29,5.95,0.45,8.88,0.53c-0.17,0.02-0.49,0.06-0.75,0c1.63,0.23,2.09,0.43,3.13,0.65c0.26-0.37,2.81-0.15,4.21-0.21
			c1.95,0.63-1.27,0.3-0.69,0.74c-0.06-0.33,3.52,0.12,2.87-0.22c1.5,0.43,1.3,0.28,2.05,0.7c0.33-0.45,1.43,0.11,2.74-0.02
			c2.18,0.53,0.51,0.53,2.96,0.7C213.22,11.08,211.03,10.96,211.03,10.96z M268.58,19.89L268.58,19.89
			c-0.48-0.12-0.9-0.21-1.17-0.27C267.66,19.68,268,19.74,268.58,19.89z M273.28,21.2c-0.57-0.17-1.27-0.39-2.02-0.61
			c-0.14-0.14,0.07-0.19,0.54-0.04C271.52,20.53,272.6,20.91,273.28,21.2z M263.7,16.74c0.77,0.13,1.02,0.24,1.11,0.31
			c-0.36-0.07-0.79-0.15-1.34-0.26c-0.02,0-0.07,0.01-0.1,0.01C263.45,16.77,263.55,16.74,263.7,16.74z"/>
		<path class="st1" d="M262.25,16.8c-0.11-0.02-0.17-0.02-0.32-0.05c0.15,0.06,0.3,0.11,0.44,0.16c0.1-0.01,0.2-0.02,0.29-0.03
			C262.52,16.86,262.38,16.83,262.25,16.8z"/>
		<path class="st1" d="M55.56,22.45l-0.1,0.02c0.09-0.01,0.17-0.02,0.22-0.01C55.61,22.46,55.61,22.45,55.56,22.45z"/>
		<polygon class="st1" points="291.39,63.76 291.42,63.83 291.79,63.62 		"/>
		<path class="st1" d="M82.39,19.27c0.05,0.02,0.16,0.04,0.36,0.04C82.73,19.29,82.57,19.28,82.39,19.27z"/>
		<path class="st1" d="M94.01,18.47l1.65,0.01C94.94,18.46,94.42,18.47,94.01,18.47z"/>
		<path class="st1" d="M102.96,18.24c0.11-0.05,0.14-0.09,0.17-0.13l-0.02,0L102.96,18.24z"/>
		<path class="st1" d="M22.97,74.19c0.12,0.02,0.23,0.04,0.33,0.05C24.1,74.3,23.56,74.26,22.97,74.19z"/>
		<path class="st1" d="M9.03,44.72c-0.23,0.38-0.45,0.76-0.67,1.16C8.77,45.27,9.16,44.84,9.03,44.72z"/>
		<path class="st1" d="M70.14,76.25C70.14,76.25,70.14,76.25,70.14,76.25c0.1,0.01,0.19,0.01,0.29,0.01L70.14,76.25z"/>
		<path class="st1" d="M7.35,47.52c0.41-0.62,0.72-1.15,1.02-1.64C8,46.37,7.61,46.97,7.35,47.52z"/>
		<path class="st1" d="M141.79,18.76l0.43,0.03c-0.01-0.02,0.02-0.03,0.05-0.04L141.79,18.76z"/>
		<path class="st1" d="M142.27,18.74l0.48-0.02C142.53,18.72,142.34,18.72,142.27,18.74z"/>
		<path class="st1" d="M143.76,18.69l-1.01,0.03C143.1,18.74,143.53,18.77,143.76,18.69z"/>
		<path class="st1" d="M129.93,18.25l-0.14,0.1C129.86,18.33,129.91,18.3,129.93,18.25z"/>
		<path class="st1" d="M126.32,18.21c0.86,0.04,2.15,0.25,3.35,0.22l0.11-0.08C129.22,18.48,127.14,18.05,126.32,18.21z"/>
		<path class="st1" d="M111.27,16.85c1.01,0.01,2.02,0.03,3.03,0.06c-0.53-0.11-1.23-0.26,0.15-0.28
			C110.63,16.31,115.23,16.85,111.27,16.85z"/>
		<path class="st1" d="M101.87,16.88c1.63-0.11-0.02-0.16,0.06-0.22C100.9,16.8,100.66,16.83,101.87,16.88z"/>
		<path class="st1" d="M35.1,28.03l0.07-0.29C33.99,28.2,35.18,27.82,35.1,28.03z"/>
		<polygon class="st1" points="23.61,34.14 24.77,33.77 25.2,33.32 		"/>
		<path class="st1" d="M16.01,36.3l0.45-0.34c-0.59,0.41-1.16,0.84-1.73,1.28C15.16,36.93,15.58,36.61,16.01,36.3z"/>
		<path class="st1" d="M83.26,79.04l-0.37-0.32C82.04,78.75,81.86,79.1,83.26,79.04z"/>
		<path class="st1" d="M132.43,79.04c0.54,0.15,1.92,0.24,2.77,0.08C134.1,79.11,132.99,78.99,132.43,79.04z"/>
		<polygon class="st1" points="279.58,69.66 278.63,69.96 280.45,69.49 		"/>
	</g>
</g>
</svg>
