<?xml version="1.0" encoding="utf-8"?>
<!-- Generator: Adobe Illustrator 24.1.2, SVG Export Plug-In . SVG Version: 6.00 Build 0)  -->
<svg version="1.1" id="Capa_1" xmlns="http://www.w3.org/2000/svg" xmlns:xlink="http://www.w3.org/1999/xlink" x="0px" y="0px"
	 viewBox="0 0 241.8 50" style="enable-background:new 0 0 241.8 50;" xml:space="preserve">
<style type="text/css">
	.st0{fill:#231F20;}
</style>
<g>
	<path class="st0" d="M108.6,31.1v1.3c0,3.2-2.6,5.8-5.8,5.8h-6.3h-2.1V15.6h3.2h4.5c3.2,0,5.8,2.6,5.8,5.8v1.3
		c0,1.5-0.5,2.9-1.5,3.9C107.8,27.6,108.6,29.2,108.6,31.1z M97.7,18.8v6.4h4.5c1.5,0,2.6-1.1,2.6-2.6v-1.3c0-1.5-1.1-2.6-2.6-2.6
		H97.7z M105.4,31.1c0-1.5-1.1-2.6-2.6-2.6h-5.2v6.4h5.2c1.5,0,2.6-1.1,2.6-2.6V31.1z"/>
	<path class="st0" d="M122.5,18.8v16.1h5.5v3.2h-8.7h-5.5v-3.2h5.5V18.8h-5.5v-3.2h8.7h5.5v3.2H122.5z"/>
	<path class="st0" d="M139,38.2c-3.2,0-5.8-2.6-5.8-5.8V21.4c0-3.2,2.6-5.8,5.8-5.8h2.6c3.2,0,5.8,2.6,5.8,5.8v10.9
		c0,3.2-2.6,5.8-5.8,5.8H139z M144.1,32.3V21.4c0-1.5-1.1-2.6-2.6-2.6H139c-1.5,0-2.6,1.2-2.6,2.6v10.9c0,1.4,1.2,2.6,2.6,2.6h2.6
		C143,34.9,144.1,33.7,144.1,32.3z"/>
</g>
</svg>
