<?xml version="1.0" encoding="utf-8"?>
<!-- Generator: Adobe Illustrator 19.1.0, SVG Export Plug-In . SVG Version: 6.00 Build 0)  -->
<svg version="1.1" id="Capa_1" xmlns="http://www.w3.org/2000/svg" xmlns:xlink="http://www.w3.org/1999/xlink" x="0px" y="0px"
	 viewBox="-176 395.9 241.8 50" style="enable-background:new -176 395.9 241.8 50;" xml:space="preserve">
<style type="text/css">
	.st0{fill:#231F20;}
	.st1{fill:#202020;}
</style>
<g>
	<path class="st0" d="M-67.4,427v1.3c0,3.2-2.6,5.8-5.8,5.8h-6.3h-2.1v-22.6h3.2h4.5c3.2,0,5.8,2.6,5.8,5.8v1.3
		c0,1.5-0.5,2.9-1.5,3.9C-68.2,423.5-67.4,425.1-67.4,427z M-78.3,414.7v6.4h4.5c1.5,0,2.6-1.1,2.6-2.6v-1.3c0-1.5-1.1-2.6-2.6-2.6
		h-4.5V414.7z M-70.6,427c0-1.5-1.1-2.6-2.6-2.6h-5.2v6.4h5.2c1.5,0,2.6-1.1,2.6-2.6V427z"/>
	<path class="st0" d="M-53.5,414.7v16.1h5.5v3.2h-8.7h-5.5v-3.2h5.5v-16.1h-5.5v-3.2h8.7h5.5v3.2H-53.5z"/>
	<path class="st0" d="M-37,434.1c-3.2,0-5.8-2.6-5.8-5.8v-11c0-3.2,2.6-5.8,5.8-5.8h2.6c3.2,0,5.8,2.6,5.8,5.8v10.9
		c0,3.2-2.6,5.8-5.8,5.8H-37V434.1z M-31.9,428.2v-10.9c0-1.5-1.1-2.6-2.6-2.6H-37c-1.5,0-2.6,1.2-2.6,2.6v10.9
		c0,1.4,1.2,2.6,2.6,2.6h2.6C-33,430.8-31.9,429.6-31.9,428.2z"/>
</g>
<g>
	<path class="st1" d="M-63.7,403.5c-0.2,0.1-0.1,0.3,0.4,0.2l0.3-0.3L-63.7,403.5z"/>
	<path class="st1" d="M-60.3,403.9c0.6-0.2,1.2-0.5,0.8-0.8c-0.6,0.4-0.7,0.2-1.3,0.7c-0.5,0.1-0.9-0.1-0.8-0.2
		c-0.2,0.1-0.8,0-1,0.2c0.7,0.2,1.5,0.2,2.3-0.1C-60.1,403.7-60.3,403.8-60.3,403.9z"/>
	<path class="st1" d="M-11.9,405.8l-0.3-0.1C-12.1,405.8-12,405.8-11.9,405.8z"/>
	<path class="st1" d="M14.5,414.7c-0.1-0.2-0.1-0.3-0.1-0.3C14.4,414.7,14.5,414.8,14.5,414.7z"/>
	<path class="st1" d="M14.2,419.6c0-0.1,0.1-0.2,0.1-0.3C14.2,419.4,14.2,419.5,14.2,419.6z"/>
	<path class="st1" d="M-11.9,405.8l0.8,0.2C-11.1,405.9-11.5,405.9-11.9,405.8z"/>
	<path class="st1" d="M-53.7,402.8c-0.2,0-0.3,0.1-0.4,0.1C-53.9,402.8-53.8,402.8-53.7,402.8L-53.7,402.8z"/>
	<path class="st1" d="M-25.1,404.8h-0.2c-0.1,0-0.1,0.1-0.2,0.1L-25.1,404.8z"/>
	<path class="st1" d="M-35.2,404.3c0.2,0,0.3-0.3,0.4-0.4c-0.1,0.1-0.3,0.2-0.5,0.2C-35.3,404.2-35.3,404.3-35.2,404.3z"/>
	<path class="st1" d="M-51.3,403.8l-0.3,0.1C-51.5,403.8-51.4,403.8-51.3,403.8z"/>
	<path class="st1" d="M-17.9,405.5l0.1,0.1C-17.8,405.6-17.8,405.5-17.9,405.5z"/>
	<path class="st1" d="M-48.2,396.7L-48.2,396.7C-48.1,396.7-48.1,396.7-48.2,396.7z"/>
	<path class="st1" d="M-36.4,397.7h-0.2c0,0,0,0.1,0,0.2L-36.4,397.7z"/>
	<path class="st1" d="M10.5,427.5L10.5,427.5C10.6,427.2,10.5,427.4,10.5,427.5z"/>
	<path class="st1" d="M-70.5,441.6c1,0.3-1.6,0.2-0.2,0.6C-70.8,442.1-69.3,441.9-70.5,441.6z"/>
	<path class="st1" d="M-53.4,402.8h0.4C-53.2,402.8-53.3,402.8-53.4,402.8z"/>
	<path class="st1" d="M-70.7,442.2L-70.7,442.2h0.2C-70.6,442.2-70.6,442.2-70.7,442.2z"/>
	<path class="st1" d="M-6.6,438.6c0.1,0,0.2,0,0.2,0.1C-6.4,438.7-6.5,438.7-6.6,438.6z"/>
	<path class="st1" d="M7.4,431.8L7.1,432C7.2,431.9,7.3,431.9,7.4,431.8z"/>
	<path class="st1" d="M-14.6,440.9c-0.2,0-0.3,0-0.6,0.1h0.1C-15,440.9-14.8,440.9-14.6,440.9z"/>
	<path class="st1" d="M-23.2,442c0.1,0,0.1,0,0.2,0s0.2,0,0.3,0H-23.2z"/>
	<path class="st1" d="M-74.7,398.1c0.2,0.1,0.3,0.1,0.4,0.2C-74.4,398.2-73.2,398-74.7,398.1z"/>
	<path class="st1" d="M-53.6,402.9c0.1-0.1,0.1-0.1,0.3-0.1C-53.5,402.8-53.6,402.8-53.6,402.9C-53.7,402.8-53.7,402.9-53.6,402.9z"
		/>
	<path class="st1" d="M-14.6,443.1c-0.5,0.1-0.9,0.1-1.4,0.2C-15.6,443.3-15,443.2-14.6,443.1z"/>
	<path class="st1" d="M-125.4,425.6l-0.2-0.3C-125.6,425.4-125.5,425.5-125.4,425.6z"/>
	<path class="st1" d="M-20.1,443.9c-0.3-0.1-0.5-0.1-0.8-0.1c-0.1,0-0.1,0-0.2,0.1H-20.1z"/>
	<path class="st1" d="M-74.3,398.4L-74.3,398.4L-74.3,398.4z"/>
	<path class="st1" d="M-65.2,397.1c-1.3,0.1-0.6,0.4-0.9,0.6c-1.6,0.2-0.8-0.2-1.3-0.4c-1,0.2-1.7,0.6-2.5,0.6
		c-0.1-0.1-0.2-0.1,0-0.2c-1,0.4-3.1,0.2-4.3,0.7c-0.1,0-0.1,0-0.2-0.1c0.2,0.2,0.3,0.4,0.2,0.5c-0.6,0-1.1,0.3-1.3,0.1
		c0.4,0,0.4-0.1,0.5-0.2l-0.6,0.2c-0.6-0.3,0.8-0.2,0.8-0.4c-1.2,0.2-2.6,0.6-3.5,0.6c-0.1-0.4,2.3-0.4,1-0.6h1.4
		c-1.1-0.4,0.9,0-0.2-0.5c-1.9,0.1-2.1,0.4-4,0.4c-0.3,0.3,0.3,0.3-0.1,0.6c-2.6,0.6-2.2-0.6-4.1,0c-0.5,0.3-0.6,0.7-2,0.7l0.4-0.4
		c-1.8,0.2-1,0.7-2.9,0.7c0.3-0.3,1.3-0.4,1.1-0.4c-1.3-0.1-0.8,0.3-1.8,0.5l-0.2-0.4c-1.9,0.3-4,0.9-6.2,1.4
		c0.1-0.1,0.4-0.3-0.1-0.3c-2.7,0.7-5.7,1.2-8.4,1.8l-0.9,0.6c-0.2,0.1-0.5,0-0.2-0.1c-1,0.2,0,0.2-0.4,0.5
		c-0.6,0.2-0.8,0.1-0.5-0.1c-1.7,0.8-4.7,2.4-6.5,3l0.3-0.3c-1.4,0.6-1.2,1.3-2.6,1.8l0.2-0.2c-2.9,1.5-5.6,3.9-7.7,5.6
		c0,0.3-0.6,0.9-1.1,1.6s-0.9,1.3-0.7,1.6c-0.6,0.8-0.8,1.1-1.1,1.5c-0.2,0.4-0.6,0.9-0.9,2.4c-0.1,0.8,0.2,1.2,0.4,2.1h-0.3
		c0.1,0.4,0.3,0.8,0.5,1.2l-0.2,0.8c0.1,0.3,0.2,0.6,0.4,0.8c-0.1-0.3-0.1-0.8,0-0.7c0.5,1.3,1.2,3.1,1.2,3.2
		c0.7,0.8,1.4,1.6,2.2,2.3c-0.1,0-0.5-0.3-0.9-0.6c1.4,1,0,0.5,1.3,1.3c-0.1-0.2,0.2-0.1,0.3-0.1c0.4,0.7,1.8,1.8,2.9,2.4h-0.3
		c1.8,1.3,4.2,2.4,6.5,3.4c-0.8-0.5-0.4-0.7,0.2-0.4l0.1,0.4c0.5,0-0.7-0.4,0.3-0.3c0.8,0.4,0.4,0.6-0.1,0.5
		c0.4,0.1,0.7,0.2,1.1,0.3c0,0.1-0.2,0.1-0.3,0.2c0.5,0,1.7,1,2.5,0.9v0.1c2.4,0.8,3.5,1,5.5,1.5c0.1-0.3,0.9,0,1.5-0.1
		c1.4,0.4,3,1,4.8,1.3c1.3,0.1,0.4-0.2,1-0.2c0,0.3,1.8,0.6,0.9,0.6c2.1,0.3,2.7,0.4,5.4,0.6c-0.3-0.2-0.6-0.2-0.4-0.3
		c0.5,0,1.1,0.3,1,0.4h-0.1c3,0,6.9,1.6,9.3,1.3h-0.1l2.5-0.1c1.1,0.1-0.7,0.1,0.1,0.4c2.7-0.2,4.3,0.4,6.5,0.2
		c1.7,0.9,6.1,0.3,8.4,0.8l-0.1-0.2c0.6-0.2,0.7,0.1,1.2,0.2c-0.1-0.1-0.6-0.2-0.3-0.3c5.1,0,10.4,0.6,15.7,0.8
		c1.9,0.1,1.1-0.9,3.5-0.5l-0.7,0.3c3.8-0.4,7.9,0,11.7-0.5c-0.2,0.1-0.2,0.2-0.6,0.2c0.8,0.2,2.9-0.1,2.9-0.3
		c0.6,0,0.2,0.2,0.5,0.3c0.8,0.1,2-0.5,2.4-0.2c0.1,0-0.2,0.1-0.4,0.1c0.5-0.1,2.4-0.2,1.9-0.4c1.4,0,2.7-0.4,3.8-0.3
		c0.7-0.4,2.4-0.2,2.6-0.6c0,0.5,2.5,0,3.4-0.4c-0.3,0.2,0.8,0,0.5,0.3c1-0.2,1.9-0.4,1.7-0.6c2,0.2,3.6-1.2,4.8-0.8
		c2.9-1,5.6-2.1,8.1-3.3c0.1,0.5-2.8,1.2-2.5,1.6c2.4-1.1,3.6-2.1,6-3.3c0.6-0.3-0.2,0.4-0.4,0.5c2.2-1.5,4.4-2.8,5.9-4.6
		c0,0-0.1,0.3-0.3,0.4c0.3-0.3,0.8-0.7,0.6-0.8l-0.3,0.4c-0.7,0.3,0.9-1.7,0.8-1.9c-0.1,1,1.6-1.7,1.4-0.2c0.2-0.3,0.3-0.6,0.2-0.7
		c0.3-0.3,0.5-0.4,0.3,0.1c0.9-1.4,0.4-1.1,1.2-2.3c0.1,0.1,0,0.3,0,0.5c0.3-0.8,0.5-1.5,1.1-2.6c0,0.1,0.2,0,0,0.3
		c0.9-2,1-3.6,1.6-6c0.3,0.8,0.3-0.8,0.6-0.9c0-0.4,0-0.9,0-1.3l-0.2,0.5c0.1-1.2-0.3-2.2-0.3-3.2c0.1,0.3,0.2,0.5,0.3,0.8
		c-0.1-0.7-0.3-1.5-0.5-2.1c0.1,0.4,0.1,0.8,0.2,1.2c-0.5-1.1-0.4,0.2-0.7-1.3c0.1,0.3-0.4-1-0.6-1.7l0,0c-0.4-0.4-0.9-0.8-1.4-1.4
		c-0.1-0.2,0.4-0.2,0.3-0.4c-0.3-0.1-0.9-0.5-1.5-0.8c-0.6-0.3-1.3-0.5-1.7-0.5c0.2,0,0.3-0.2,0.3-0.2c-0.2,0-0.4,0.1-0.5,0.1
		c-0.5-0.2-0.5-0.3-0.4-0.4c-1.5-0.5,0.4,0.6-1.4-0.1c0.1,0,0.1,0,0.4,0c-1.8-0.5-3.5-0.5-5.1-1c-0.4-0.5,1.5,0.2,1-0.2
		c-2.4-0.4-5-0.4-7.3-0.9l0.4,0.1c-0.7,0.5-1.9-0.5-3.2-0.4c0.3,0,0.4-0.2,0.3-0.2c-1.6-0.3-3.3-0.3-5.7-0.5l0.3-0.1
		c-0.9-0.2-2.5-0.4-3.5-0.6c-0.3,0.1-0.9,0-0.6,0.3c-3.1-1.1-6-0.2-8.7-1.1c0.3,0,0.8-0.1,0.5-0.1c-0.8,0-1.6-0.1-2.4-0.1
		c0.3,0.3,0.5,0.3,1,0.5c-0.3,0.1-1,0.2-1.6,0.1c1.1-0.1,0-0.4-0.4-0.5c0.1,0.1-0.1,0.1-0.1,0.2c-1.2-0.5-0.2,0.4-1.9,0.1l0.1-0.1
		c-0.7,0-1.3,0.1-1.9,0.1c-0.3-0.3,0.7-0.1,0.7-0.3c-1,0-1.9,0.4-2.8,0.1c0.4-0.1,1,0,1.4-0.1c-0.9-0.4-1.1-0.3-1.8-0.4h0.1
		l-1.6-0.2l0.4,0.1c-1.2,0.7-2.5,0-4.1,0.5c1.6-0.4,0.3-0.3,0.4-0.6c-0.4-0.1-1-0.2-0.9-0.3c-0.7,0.2-1.2-0.2-2.3,0.1
		c-0.1-0.1-0.8,0-0.7-0.3c-1,0.1,0.2,0.2,0.2,0.3c-1.5,0.3-3.6-0.4-5.8,0.1c-1.9,0.2-2.3,0.6-4,0.8c-0.6-0.1,0.5-0.4,0.5-0.4
		c-1-0.1-1.7-0.1-2.6,0.1c0.2-0.1,0-0.2-0.3-0.3c-0.7,0.1-0.5,0.4-1.4,0.3c0.2-0.1,0.4-0.3,0.7-0.4c-0.9,0.1-1.7,0.3-2.6,0.5
		c-0.2-0.2,0.5-0.3,0.8-0.4c-1,0.1-2.6,0.3-2.9,0.6l0.6,0.1c-0.4,0-0.2-0.2,0.1-0.3c0.8-0.3,1.2,0,1.3,0.1l-0.6,0.1
		c0.7,0.5,2.5-0.2,3.8-0.2l-0.5,0.5l1.3-0.4c0.3,0.1,0.5,0.3-0.2,0.4c0.9,0.2,0.8-0.2,1.6,0c0.1,0,0.1,0.1,0,0.1l0.8-0.3
		c-0.2,0.1,0.2,0.3-0.4,0.3c1.6,0.2,2.6-0.4,3.2-0.1h-0.1c2.2-0.2,0.2-0.3,1.9-0.7l1.1,0.8l0.2-0.3c0.2,0,0.7,0,0.6,0.2
		c0.8-0.2-0.2-0.1,0.3-0.3c1.1,0.3,3-0.1,3.3,0.4c0.4-0.2-1.1-0.2,0.1-0.3c0.3,0.5,1.4-0.1,2.4,0.2c-0.3,0.3-1.3,0.1-0.3,0.4
		c0.6-0.4,1.9,0.1,2.8,0.1c0.1-0.4,1.8-0.1,3.3-0.1c-0.1,0.1,2.7,0.3,4,0.5v0.1c0.3-0.7,1.6-0.5,2.6-0.5c0,0.2-0.2,0.3-0.8,0.3
		l0.9,0.1c0.3-0.1,0.6-0.1,1.2-0.2l-0.3,0.3c1.2,0.1,2.5-0.1,4.1,0.2c0.1-0.3-1.2-0.8,0.5-0.9c0.1,0.1,0.1,0.4-0.4,0.4
		c0.2,0,0.5-0.1,0.8,0l-0.7,0.2c0.7,0.2,0.4-0.2,1-0.1c0,0.2,0.4,0.2,0.3,0.3c-0.2,0-0.5-0.1-0.7-0.1c0.7,0.1,1.4,0.3,1.7,0.5
		c-0.1-0.1,0-0.3,0.5-0.2c1.2,0.1,0.4,0.3,1.1,0.4c0.3-0.1,1.1,0.1,1.1-0.2c0.4,0,0.4,0.2,0.5,0.3c0.7-0.1,3,0.3,2.3-0.1h-0.2h0.1
		l0,0l0,0c2.1-0.1,4.3,0.7,6.4,0.9v0.1c1.3,0.1,2.8,0.4,3.7,0.3c0.4,0.1,0.8,0.3,0.7,0.4c0.9,0.1,1.1,0,2.4,0.4c-1,0,0.3,0.2-1,0
		c1.2,0.3,1.5,0.5,2.8,0.5c-0.4,0.2,1,0.5,1.6,0.5l-0.8-0.3c0.7,0.1,1.2,0.2,1.8,0.4l-0.4,0.3c1.2,0.4,2.4,0.5,3.4,0.6s2,0.3,2.6,1
		c0.3,0,0.1-0.1-0.2-0.3c-0.3-0.2-0.6-0.3-0.3-0.4c1.1,0.4,1.7,1.5,1.9,1.7c0.4,0.5,0.7,0.7,1,0.8c0.3,0.2,0.6,0.4,0.9,1.1
		c0-0.2,0.3-0.6,0.8,0.5c0.3,1.1-0.2,1.4-0.4,0.8c-0.1-0.3-0.1-0.4,0-0.4c-0.1-0.3-0.3-0.7-0.3-0.3l0.2,0.1c0.1,0.5,0.3,2,0,1.7
		c0.2,0.8,0.2,0.3,0.2-0.3c0,1.4,0.1,2.2-0.2,3.6c0.1-0.2,0.3-0.4,0.2-0.2c-0.5,2.1,0.1,1-0.2,2.5c-0.4,0.8-0.3-0.4-0.6,1
		c-0.4,0.8-0.4,0.1-0.3-0.3c-0.2,1.3-1.1,2.2-1.5,2.9l0.2-0.7c-0.1,0.4-0.3,0.7-0.5,1l0.4-0.2c-0.2,0.4-0.4,0.6-0.5,0.6
		c-0.1,0.4,0.5-0.1,0.3,0.8c-0.4,0.4-0.8,1.5-1.2,1.5c1.1-1.4-0.4,0,0.4-1.3c-0.1,0.3-0.3,0.5-0.6,0.8c-0.1,0,0-0.1,0-0.2
		c-1.2,1.1-0.1,0.8-1.3,2.2c0-0.3-0.5,0.1-0.7,0.3c0.5-0.5,0.4,0,0.1,0.5c-0.9,0.7-0.8,0.9-1.2,1.3l0.5-0.4
		c-0.1,0.3-0.5,0.7-1.1,1.2c-0.1-0.1,0.5-0.5,0.2-0.4c-0.5,0.8-1.7,1-2.6,1.8c-0.5,0.2-0.2-0.2-0.7,0c-1,0.9-1.4,0.6-2.5,1.4
		c0.5,0,0.5-0.1-0.3,0.6c0.7-0.4,1.3-0.8,2-1.3c-0.4,0.3-0.8,0.7-1.1,1c0.6-0.3,1.2-0.9,1.6-1.1c-0.5,0.5-0.5,0.5-0.1,0.5
		c-1,0.2-1.6,1.2-2.7,1.5l-0.2-0.5c-1.6,0.5-2.6,1.5-4.8,2.1l0.7-0.1c-0.2,0.3-1.3,0.5-1.9,0.8c0-0.2-0.4-0.1-0.8-0.2
		c0.1,0.1-1.6,0.4-1.7,0.9h-1c-1.8,0.3-1.9,1-3.6,1.3c0.5-0.3-0.3-0.3,0.8-0.7c-0.6,0.1-1.1,0.2-1.1,0.3c-0.4-0.1-1.5,0.5-2.1,0.5
		c-0.2,0.1-0.3,0.3-0.9,0.4c-0.1,0,0-0.1,0-0.1c0,0.1-1,0.3-0.4,0.4c-1.9-0.3-5,0.7-6.6,0.4c-1.3,0.2-2.8,0.4-3.9,0.5
		c0.1-0.1,0-0.1,0.2-0.1c-1.6-0.1-0.9,0.7-2.8,0.5c-0.8-0.3,1.1-0.2,0.5-0.3c-0.3-0.6-2.2,0.2-3.4-0.1h0.3c-0.9-0.2-2.3,0.3-3.8,0.3
		c0,0,0.1-0.1,0-0.1c-1,0.3-3,0.5-4.5,0.6c0.5-0.3,0.7-0.1,0.4-0.4c-0.7,0,0.2,0.4-1.1,0.5c-0.4-0.1-1.4-0.3-1.5-0.5h1.2
		c-0.6-0.4-1.6,0-2.3-0.1l0.1-0.2c-1.9,0-1.9,0.4-4,0.4l0.2,0.1c-1.1,0.4-0.9-0.2-2.1,0l-0.3-0.4c-0.7,0.1-2.6,0.3-3.9,0.3
		c0.8-0.3,2.3-0.4,3.3-0.5c-0.7,0-2.5,0-2.9,0.2c0.3,0,0.7-0.1,1,0c-0.9,0.3-2.1,0.4-3.6,0.4c0.3-0.8-3.8-0.3-4.8-0.9
		c-2.6,0.2-5.1-0.3-8.1-0.4c1,0.7-0.9,0-0.7,0.6c-0.7,0-1,0-1-0.1l-2.1-0.5c-0.5-0.2,0.7-0.1,0.6-0.2c-1.5-0.2-0.6-0.3-1.6-0.5
		c0.2,0.2-0.5,0.3-1.4,0.1l1.2,0.4c-2.2,0.2-1.8-0.6-4-0.5l0.7-0.1c-1.1,0-4-0.4-5.2,0c-0.2-0.1-0.4-0.3,0.1-0.3
		c-2.6-0.3-5.9-0.2-7.9-0.8l0.2-0.1c-0.5,0-0.9,0.2-1.5-0.1c0-0.1,0.2-0.1,0-0.2c-0.3,0-1.3,0-2-0.2l0.6-0.1c-2.5-0.6-4-0.3-6.1-0.6
		c0.1-0.4-1.8-1-2.8-1.3h0.1c-2.9-0.8-5-0.9-7.6-1.7c-1.4-1-5.2-2.4-7.3-4.1c0.3,0.3-0.2,0.3-0.7,0c-0.5-0.4-1.6-0.8-1.3-1l0.2,0.1
		c-0.2-0.6-1.2-1.3-1.9-2l-0.5,0.3c-0.7-1.2-1.8-2.4-2.5-3.7c-0.7-1.3-1-2.6-0.7-3.3c-0.2-0.6-0.1-1.3-0.1-1.9l0.3,0.1
		c0.5-1.5,0.8-2.2,2-4c0,0.1-0.1,0.3-0.1,0.5c0.7-0.9,0.3-1.7,1-2.5l0.5,0.1c0.8-0.8,1.6-1.4,2.5-2c0.4-0.3,0.9-0.6,1.3-0.9
		s0.9-0.6,1.3-1c0,0.1,0,0.2-0.3,0.4c0.8-0.6,3.5-1.7,2.9-2.1c0.2,0.3,2-1,3-1.6l-0.1,0.3c0.8-0.7,0.8-0.8,2-1.4
		c0.3-0.1,0.4,0.1-0.1,0.2c1.1-0.3,0.7-0.5,2-0.9l-0.4,0.3c1.1-0.4,1-0.4,1.5-0.8c0.7-0.3,2.1-0.6,2.3-0.4c0.1-0.2,0.7-0.6,1.3-0.7
		c0.1,0.1-0.1,0.2-0.2,0.2c1.9-0.3,2.7-1,4-1c0,0.1,0.1,0.1,0.3,0.1c-1.5,0.3-2.7,0.6-2.6,0.5c0.1,0.2,1.3,0,0.4,0.6
		c0.9-0.4,2.5-1.2,3.7-1.3c0.1,0,0.1,0,0.2,0.1l-0.1,0.1c0.3,0,0.5-0.1,0.7-0.2c0.4,0,0.6,0,1-0.1c0.2,0.2,1.4-0.1,2-0.2
		c-0.1-0.3,0.7-0.3-0.1-0.5c0.1,0-0.1,0-0.5,0.1c-0.1,0-0.2,0-0.3,0.1l0,0c-0.4,0.1-0.9,0.2-1.5,0.3c0.5-0.2,0.9-0.4,1.6-0.4
		c0.3-0.2,0.6-0.5,0.8-0.6c1.3,0.2,3,0.2,3.2,0.4c1.8-0.4,4.4-0.6,5.5-1.3c0.5-0.1,0.6,0.1,0.8,0.1c-0.3,0.1-0.7,0.1-0.8,0.2
		c1-0.3,3.1-0.4,3.4-0.8c1.4,0-0.7,0.4,1.1,0.2l-0.2,0.1c3.7,0.3,5.8-1.4,9.9-1c-0.3,0-0.4,0-0.5-0.1c4.6,0,9.5-0.9,14-0.5
		c1.3,0.1,1.4-0.2,2.2-0.4l0.3,0.3l1.3-0.4c1.9-0.3,3.3,0.6,5.7,0.1l-0.3-0.2c0.9,0,2.8-0.2,2.6,0c0.1,0,0.3-0.2,0.6-0.1v0.2
		l2.1-0.3c1.7,0.1-0.2,0.6,2.2,0.6c1,0.1,2.7-0.4,2.3-0.5c-0.4,0-0.9-0.1-1-0.2l0.9-0.1c0.1-0.5,0.8-1-1.3-1.2l-1.4,0.3l-0.4-0.2
		h1.2c-0.7-0.2-1.1,0-1.6,0.1c-0.1-0.1-0.3-0.2-0.6-0.2L-42,397c-0.2-0.2,0.6-0.4-0.3-0.5c-0.6,0.2,0.6,0.4-0.4,0.6
		c-0.7-0.2-0.5-0.4-1.3-0.2c-0.1-0.1,0.1-0.2,0.4-0.3c-0.7,0.2-1.9,0.1-2.2,0.4c-0.7-0.2-2.4,0.1-2.3-0.3c-0.2,0.1-1.2,0.4-1.9,0.4
		c1.2-0.6-2.4,0-2.1-0.5c-0.9,0.5-3.2,0.3-4.7,0.7c0.1,0,0.3-0.1,0.4-0.1c-0.9,0-1.1-0.1-1.7-0.2c-0.1,0.4-1.4,0.5-2.2,0.8
		c-1.1-0.3,0.6-0.5,0.3-0.8c0.1,0.3-1.8,0.4-1.5,0.7c-0.8-0.2-0.7-0.1-1.2-0.4c-0.1,0.4-0.7,0-1.4,0.4c-1.2-0.2-0.3-0.4-1.6-0.2
		C-66.3,397.3-65.2,397.1-65.2,397.1z M-95.9,401.2L-95.9,401.2c0.3-0.1,0.5-0.1,0.6-0.1C-95.4,401.1-95.6,401.1-95.9,401.2z
		 M-98.4,401.7c0.3-0.1,0.7-0.2,1.1-0.2c0.1,0.1,0,0.2-0.2,0.3C-97.4,401.6-98,401.7-98.4,401.7z M-92.7,402.6
		c-0.4,0.1-0.5,0.1-0.6,0c0.2,0,0.4-0.1,0.7-0.1l0,0C-92.6,402.5-92.6,402.6-92.7,402.6z"/>
	<path class="st1" d="M-92,402.1c0.1,0,0.1,0,0.2-0.1C-92,402.1-92.1,402.1-92,402.1c-0.1,0-0.2,0-0.2,0S-92.1,402.1-92,402.1z"/>
	<path class="st1" d="M-12.3,405.7L-12.3,405.7L-12.3,405.7L-12.3,405.7z"/>
	<polygon class="st1" points="-126.4,422.5 -126.3,422.5 -126.4,422.2 	"/>
	<path class="st1" d="M-26.4,403.4c0,0-0.1-0.1-0.2-0.1C-26.6,403.4-26.5,403.4-26.4,403.4z"/>
	<path class="st1" d="M-32.6,403l-0.9-0.1C-33,403-32.8,403-32.6,403z"/>
	<path class="st1" d="M-37.3,402.7c-0.1,0.1-0.1,0.1-0.1,0.1l0,0L-37.3,402.7z"/>
	<path class="st1" d="M8.9,433c-0.1,0-0.1,0.1-0.1,0.1C8.4,433.4,8.6,433.2,8.9,433z"/>
	<path class="st1" d="M14.5,411.9c0.2,0.2,0.4,0.4,0.5,0.6C14.8,412.1,14.6,411.8,14.5,411.9z"/>
	<path class="st1" d="M-14.4,443.1L-14.4,443.1c-0.1,0-0.1,0-0.2,0H-14.4z"/>
	<path class="st1" d="M15.4,413.5c-0.1-0.4-0.2-0.8-0.4-1C15.1,412.8,15.3,413.2,15.4,413.5z"/>
	<path class="st1" d="M-57.9,402.9h-0.2c0,0,0,0,0,0.1L-57.9,402.9z"/>
	<path class="st1" d="M-58.1,403h-0.3C-58.3,403-58.2,403-58.1,403z"/>
	<path class="st1" d="M-58.9,403.1l0.5-0.1C-58.6,403-58.8,403-58.9,403.1z"/>
	<path class="st1" d="M-51.6,402.8l0.1-0.1C-51.6,402.7-51.6,402.7-51.6,402.8z"/>
	<path class="st1" d="M-49.7,402.7c-0.5,0-1.2-0.2-1.8-0.1v0.1C-51.2,402.5-50.1,402.9-49.7,402.7z"/>
	<path class="st1" d="M-41.7,403.9l-1.6-0.1c0.3,0.1,0.6,0.3-0.1,0.3C-41.4,404.4-43.8,403.9-41.7,403.9z"/>
	<path class="st1" d="M-36.8,404.1c-0.9,0,0,0.2,0,0.2C-36.3,404.3-36.1,404.3-36.8,404.1z"/>
	<path class="st1" d="M-1.3,407.5l-0.1,0.2C-0.7,407.8-1.4,407.7-1.3,407.5z"/>
	<polygon class="st1" points="5.7,407.5 5.1,407.2 4.7,407.3 	"/>
	<path class="st1" d="M9.2,410.1H8.9c0.3,0.1,0.7,0.1,1,0.2C9.7,410.2,9.4,410.2,9.2,410.1z"/>
	<path class="st1" d="M-21.7,441.6l0.2,0.3C-21,441.8-20.9,441.5-21.7,441.6z"/>
	<path class="st1" d="M-47.4,442.9c-0.3-0.2-1-0.3-1.5-0.1C-48.3,442.7-47.7,442.9-47.4,442.9z"/>
	<path class="st1" d="M-121.3,427.7l0.4,0.3c-0.2-0.2-0.5-0.4-0.7-0.6L-121.3,427.7z"/>
</g>
</svg>
