<?xml version="1.0" encoding="utf-8"?>
<!-- Generator: Adobe Illustrator 19.1.0, SVG Export Plug-In . SVG Version: 6.00 Build 0)  -->
<svg version="1.1" id="Capa_1" xmlns="http://www.w3.org/2000/svg" xmlns:xlink="http://www.w3.org/1999/xlink" x="0px" y="0px"
	 viewBox="-184 372 241.8 50" style="enable-background:new -184 372 241.8 50;" xml:space="preserve">
<style type="text/css">
	.st0{fill:#202020;}
</style>
<g>
	<path class="st0" d="M-77.5,379.9c-0.3,0.1-0.1,0.3,0.7,0.2l0.6-0.3L-77.5,379.9z"/>
	<path class="st0" d="M-72.1,380.3c0.9-0.2,2-0.5,1.4-0.8c-0.9,0.4-1.1,0.2-2.1,0.6c-0.8,0.1-1.4,0-1.3-0.2c-0.3,0.1-1.2,0-1.7,0.2
		c1,0.2,2.3,0.2,3.7-0.1C-71.8,380.1-72.1,380.2-72.1,380.3z"/>
	<path class="st0" d="M5.4,381.9l-0.5-0.1C5.1,381.8,5.3,381.8,5.4,381.9z"/>
	<path class="st0" d="M52.6,388.2c-0.3-0.2-0.4-0.2-0.5-0.2C52.4,388.1,52.7,388.2,52.6,388.2z"/>
	<path class="st0" d="M55.2,394.5c0-0.2,0.1-0.3,0.1-0.4C55.2,394.3,55.2,394.4,55.2,394.5z"/>
	<path class="st0" d="M5.4,381.9l1.3,0.2C6.8,381.9,6.1,381.9,5.4,381.9z"/>
	<path class="st0" d="M-61.4,379.1c-0.3,0-0.5,0.1-0.7,0.1C-61.9,379.2-61.7,379.2-61.4,379.1C-61.5,379.2-61.4,379.1-61.4,379.1z"
		/>
	<path class="st0" d="M-15.7,381l-0.4,0c-0.1,0-0.2,0.1-0.3,0.1L-15.7,381z"/>
	<path class="st0" d="M-32,380.6c0.4,0,0.5-0.3,0.6-0.4c-0.2,0.1-0.5,0.2-0.8,0.2C-32.1,380.5-32.1,380.5-32,380.6z"/>
	<path class="st0" d="M-57.8,380.2l-0.5,0C-58.1,380.2-57.9,380.2-57.8,380.2z"/>
	<path class="st0" d="M-4.1,381.6c0,0,0.1,0.1,0.1,0.1C-4,381.7-4,381.6-4.1,381.6z"/>
	<path class="st0" d="M-50.2,373C-50.2,373-50.2,373-50.2,373C-50.1,373-50.1,373-50.2,373z"/>
	<path class="st0" d="M-31.3,374.1l-0.3,0c0,0-0.1,0.1-0.1,0.2L-31.3,374.1z"/>
	<path class="st0" d="M46.7,405.2C46.7,405.2,46.7,405.2,46.7,405.2C47,405,46.8,405.1,46.7,405.2z"/>
	<path class="st0" d="M-88.4,418c1.6,0.3-2.6,0.2-0.2,0.6C-88.8,418.5-86.5,418.2-88.4,418z"/>
	<path class="st0" d="M-61,379.1c0.2,0,0.4,0,0.7,0C-60.6,379.1-60.8,379.1-61,379.1z"/>
	<path class="st0" d="M-88.6,418.6L-88.6,418.6l0.2,0C-88.5,418.6-88.5,418.6-88.6,418.6z"/>
	<path class="st0" d="M14.6,415.7c0.1,0,0.2,0.1,0.4,0.1C14.9,415.8,14.9,415.7,14.6,415.7z"/>
	<path class="st0" d="M39.4,409.8c-0.2,0.1-0.4,0.1-0.6,0.2C39,410,39.2,409.9,39.4,409.8z"/>
	<path class="st0" d="M1.4,417.6c-0.4,0-0.5,0-0.9,0.1c0,0,0.1,0,0.1,0C0.8,417.6,1,417.6,1.4,417.6z"/>
	<path class="st0" d="M-12.5,418.6c0.1,0,0.2,0,0.3,0c0.1,0,0.3,0,0.4,0H-12.5z"/>
	<path class="st0" d="M-92.6,374.3c0.3,0.1,0.5,0.1,0.7,0.2C-92.2,374.4-90.1,374.2-92.6,374.3z"/>
	<path class="st0" d="M-61.4,379.3c0.1-0.1,0.2-0.1,0.4-0.1c-0.2,0-0.3,0-0.5,0C-61.5,379.2-61.5,379.3-61.4,379.3z"/>
	<path class="st0" d="M1,419.9l-2.2,0.1C-0.6,420,0.2,420,1,419.9z"/>
	<path class="st0" d="M-180.3,403.1l-0.4-0.4C-180.6,402.9-180.5,403-180.3,403.1z"/>
	<path class="st0" d="M-7.8,420.5c-0.4-0.1-0.8-0.1-1.3-0.1c-0.1,0-0.2,0.1-0.3,0.1L-7.8,420.5z"/>
	<path class="st0" d="M-91.9,374.6L-91.9,374.6L-91.9,374.6z"/>
	<path class="st0" d="M-77.4,373.4c-2.1,0.1-1,0.4-1.4,0.6c-2.5,0.2-1.2-0.2-2-0.4c-1.6,0.2-2.8,0.5-3.9,0.6
		c-0.1-0.1-0.3-0.1-0.1-0.2c-1.7,0.4-4.9,0.2-6.9,0.7c-0.2,0-0.2-0.1-0.3-0.1c0.3,0.2,0.4,0.4,0.3,0.5c-0.9,0.1-1.7,0.3-2.1,0.1
		c0.6,0,0.6-0.1,0.9-0.2l-1,0.1c-0.9-0.3,1.3-0.2,1.3-0.4c-1.9,0.2-4.2,0.6-5.7,0.6c-0.3-0.3,3.5-0.3,1.5-0.5l2.3,0
		c-1.8-0.4,1.4,0-0.2-0.5c-3,0-3.4,0.3-6.4,0.4c-0.7,0.2,0.2,0.3-0.4,0.5c-4.3,0.6-3.4-0.7-6.5,0c-0.8,0.3-1.1,0.7-3.3,0.6l0.7-0.4
		c-2.9,0.2-1.6,0.7-4.7,0.6c0.5-0.2,2.3-0.3,1.8-0.3c-2-0.2-1.4,0.3-2.9,0.4l-0.3-0.3c-3.1,0.3-6.5,0.8-9.9,1.2
		c0.2-0.1,0.8-0.3-0.1-0.3c-4.3,0.6-9.3,0.9-13.5,1.4l-1.5,0.5c-0.4,0.1-0.7,0-0.3-0.1c-1.6,0.2,0,0.2-0.8,0.4
		c-0.9,0.2-1.3,0-0.7-0.1c-2.8,0.7-8,2-11.1,2.5l0.6-0.2c-2.4,0.4-2.4,1.3-4.7,1.6l0.4-0.2c-5,1.3-10.3,3.5-14.1,4.9
		c-0.3,0.4-1.4,0.9-2.5,1.5c-1.1,0.6-2.1,1.3-2.1,1.6c-1.3,0.8-1.8,1.1-2.4,1.5c-0.3,0.2-0.6,0.5-1,0.9c-0.4,0.4-1,1-1.6,2
		c-0.2,0.3-0.3,0.6-0.3,0.8c-0.1,0.3-0.1,0.5-0.1,0.8c0,0.5,0,1.1,0,1.9l-0.3,0c0.1,0.4,0.2,0.7,0.3,1.1c0.2,0.3,0.3,0.7,0.5,1
		c0,0.4,0.1,0.8,0.2,1.2c0.3,0.4,0.6,0.8,0.9,1.1c-0.4-0.5-0.6-1.1-0.5-1c1.3,1.8,3.6,3.8,3.5,4c1.4,0.9,2.9,1.6,4.4,2.3
		c-0.2,0.1-0.9-0.3-1.5-0.5c2.5,0.9,0.3,0.5,2.6,1.3c-0.3-0.2,0.2-0.1,0.3-0.1c1,0.7,3.5,1.7,5.4,2.2l-0.4,0.1
		c3.4,1.3,7.2,2.1,11.1,3c-1.4-0.4-1-0.7,0.2-0.5l0.4,0.4c0.8,0-1.2-0.4,0.4-0.3c1.4,0.3,0.9,0.6,0,0.5l1.8,0.3
		c0.1,0.1-0.3,0.1-0.5,0.2c0.8-0.1,3,0.9,4.1,0.8l0.1,0.1c3.9,0.7,5.7,0.8,8.9,1.3c0.1-0.3,1.3,0,2.3-0.2c2.3,0.4,4.9,0.9,7.7,1.2
		c2,0.1,0.6-0.2,1.5-0.3c0.1,0.3,2.9,0.5,1.5,0.6c3.4,0.3,4.3,0.4,8.7,0.5c-0.5-0.1-1-0.2-0.7-0.3c0.8,0,1.8,0.3,1.6,0.4l-0.2,0
		c4.8,0,11.1,1.5,15,1.2l-0.2,0l4-0.1c1.8,0.1-1.1,0.1,0.2,0.4c4.3-0.2,6.8,0.3,10.3,0.2c2.7,0.9,9.7,0.2,13.4,0.8l-0.2-0.2
		c1-0.1,1.2,0.1,1.9,0.2c-0.1-0.1-1-0.2-0.4-0.3c8.1,0,16.7,0.6,25,0.8c3,0.1,1.7-0.9,5.6-0.5l-1.1,0.3c6.1-0.4,12.6,0,18.6-0.4
		c-0.4,0.1-0.4,0.2-0.9,0.2c1.3,0.2,4.7-0.1,4.7-0.3c0.9,0,0.2,0.2,0.8,0.3c1.3,0.1,3.2-0.4,3.9-0.2c0.1,0-0.4,0.1-0.6,0.1
		c0.8-0.1,3.9-0.1,3.1-0.4c2.3,0,4.3-0.3,6.1-0.3c1.1-0.4,3.9-0.1,4.2-0.6c-0.1,0.5,4,0.1,5.4-0.3c-0.5,0.2,1.3,0,0.7,0.3
		c1.6-0.2,3.1-0.4,2.8-0.6c3.1,0.2,6-1.1,7.7-0.6c4.8-0.9,9.2-1.8,13.4-2.8c-0.1,0.5-4.7,1-4.5,1.4c4.1-0.9,6.3-1.8,10.3-2.8
		c1-0.2-0.5,0.4-0.9,0.5c4-1.3,7.7-2.3,11.1-4.1c0,0-0.3,0.3-0.7,0.4c0.7-0.3,1.6-0.7,1.4-0.8c-0.2,0.1-0.4,0.3-0.6,0.4
		c-1.2,0.2,2.4-1.8,2.4-2.1c-0.4,0.5,0.4,0.2,1.2-0.2c0.7-0.4,1.4-0.7,0.8,0.1c0.4-0.3,0.9-0.7,0.7-0.7c0.6-0.4,0.9-0.4,0.3,0.1
		c1.1-0.8,1.4-1.1,1.7-1.4c0.3-0.3,0.6-0.5,1.5-1.3c0.1,0.1-0.3,0.4-0.4,0.7c0.9-0.9,1.7-1.8,3.1-3.2c0,0.1,0.2,0-0.3,0.4
		c1.2-1.3,2.1-2.6,2.8-3.9c0.7-1.4,1.3-2.9,1.6-4.8c0.1,0.6,0.2,0.3,0.3-0.2c0.1-0.5,0.1-1.2,0.3-1.4c-0.1-0.8-0.3-1.5-0.6-2.2
		c0.1,0.3,0.1,0.6,0.1,0.9c-0.2-1-0.7-1.8-1.2-2.5c-0.5-0.7-1.2-1.2-1.8-1.8c0.4,0.2,0.8,0.5,1.2,0.8c-0.9-0.9-1.9-1.5-2.9-2
		c0.6,0.3,1.1,0.7,1.6,1.1c-0.8-0.5-0.9-0.3-0.9-0.3c-0.1,0.1-0.1,0-1.2-0.5c0.2,0.1-0.2-0.1-0.8-0.4c-0.6-0.2-1.3-0.5-1.7-0.8h0
		c-0.9-0.1-1.8-0.2-3.1-0.5c-0.3-0.2,0.3-0.4,0.1-0.5c-0.9,0.1-4.1-0.5-5.3-0.3c0.4,0,0.4-0.2,0.3-0.3l-0.8,0.2
		c-0.8-0.2-0.9-0.2-0.8-0.4c-2.4-0.3,0.7,0.6-2.1,0c0.2,0,0.1,0,0.6,0c-2.9-0.4-5.6-0.5-8.3-0.8c-0.8-0.5,2.3,0.1,1.5-0.3
		c-3.9-0.3-8-0.3-11.7-0.8l0.7,0.1c-0.6,0.5-2.8-0.5-4.7-0.4c0.5,0,0.6-0.2,0.5-0.2c-2.6-0.3-5.2-0.3-9.1-0.4l0.5-0.1
		c-1.5-0.2-4-0.4-5.6-0.5c-0.5,0.1-1.4,0-0.9,0.3c-5-1.1-9.6-0.1-14-0.9c0.5,0,1.3-0.1,0.9-0.1l-3.8,0c0.3,0.2,0.5,0.2,1.3,0.4
		c-0.5,0.1-1.6,0.2-2.5,0.1c1.7-0.1,0-0.4-0.7-0.5c0.1,0.1-0.1,0.1-0.1,0.2c-2-0.5-0.4,0.4-3.1,0.1l0.1-0.1c-1,0-2,0.2-3.1,0.1
		c-0.4-0.3,1.1-0.1,1.2-0.3c-1.5,0-3,0.4-4.4,0.1c0.6-0.1,1.6,0,2.3-0.1c-1.5-0.4-1.7-0.3-2.8-0.3l0.1,0l-2.6-0.2l0.7,0.1
		c-1.9,0.6-3.9,0-6.5,0.5c2.5-0.4,0.4-0.3,0.6-0.5c-0.7-0.1-1.7-0.2-1.4-0.3c-1.2,0.2-2.1-0.2-3.8,0.1c-0.1-0.1-1.3,0-1-0.3
		c-1.6,0.1,0.4,0.2,0.2,0.3c-2.5,0.3-5.8-0.4-9.3,0.1c-3,0.2-3.6,0.5-6.4,0.8c-1-0.1,0.8-0.4,0.8-0.4c-1.5-0.1-2.7-0.1-4.2,0.1
		c0.3-0.1,0-0.2-0.5-0.3c-1.2,0.1-0.8,0.4-2.3,0.3c0.3-0.1,0.6-0.3,1.2-0.4c-1.4,0.1-2.7,0.4-4.1,0.5c-0.4-0.2,0.8-0.3,1.3-0.4
		c-1.6,0.1-4.1,0.3-4.6,0.6l1,0.1c-0.6,0-0.3-0.2,0.1-0.3c1.4-0.3,2,0,2.1,0.1l-1,0.1c1.1,0.5,4.1-0.2,6.1-0.2l-0.8,0.4l2.1-0.4
		c0.4,0.1,0.8,0.3-0.3,0.4c1.5,0.2,1.3-0.2,2.5,0c0.1,0,0.1,0.1-0.1,0.1l1.4-0.1c-0.3,0.1,0.2,0.3-0.6,0.3c2.6,0.2,4.1-0.4,5.1-0.1
		l-0.2,0c3.5-0.2,0.3-0.3,3-0.7l1.8,0.7l0.4-0.3c0.4,0,1.1,0,1,0.2c1.4-0.2-0.2-0.1,0.6-0.3c1.8,0.3,4.9-0.1,5.3,0.4
		c0.6-0.2-1.7-0.2,0.2-0.3c0.5,0.5,2.2-0.1,3.8,0.2c-0.5,0.3-2,0.1-0.4,0.4c1-0.4,3.1,0.1,4.5,0.1c0.1-0.4,2.9-0.1,5.2-0.2
		c-0.1,0.1,4.3,0.3,6.4,0.5l-0.1,0.1c0.4-0.4,2.6-0.2,4.2-0.2c-0.1,0.2-0.4,0.3-1.2,0.4l1.5,0c0.4-0.1,0.8-0.1,1.8-0.1l-0.4,0.3
		c2,0.1,4-0.2,6.6,0.1c0.2-0.3-2-0.8,0.7-0.9c0.1,0.1,0.2,0.4-0.5,0.4c0.2,0,0.8-0.1,1.3,0l-1.1,0.2c1.2,0.2,0.6-0.2,1.6-0.1
		c0,0.2,0.7,0.2,0.5,0.3c-0.2,0-0.8-0.1-1.2-0.1c1.1,0.1,2.3,0.3,2.7,0.4c-0.1-0.1,0-0.3,0.8-0.3c2,0.1,0.7,0.3,1.8,0.4
		c0.5-0.1,1.8,0.1,1.8-0.2c0.6,0,0.7,0.2,0.9,0.3c1-0.1,4.8,0.3,3.7-0.1l-0.3,0c0.1,0,0.1,0,0.2,0c0,0,0,0,0,0h0
		c3.4-0.1,7,0.6,10.3,0.8l0,0.1c2,0.1,4.4,0.3,5.9,0.2c0.6,0.1,1.4,0.3,1.1,0.4c1.5,0.1,1.7,0,3.9,0.3c-1.6,0,0.5,0.2-1.6,0
		c2,0.3,2.4,0.5,4.6,0.4c-0.8,0.2,1.5,0.5,2.4,0.5l-1.4-0.3c1.1,0.1,2,0.2,2.9,0.3l-0.5,0.3c4,0.8,7.4,0.1,10.4,1.1
		c1.1-0.1-2.2-0.4-1.2-0.6c1.9,0.3,3.7,1,4.2,1.1c1.2,0.3,1.8,0.3,2.4,0.3c0.6,0,1.3,0,2.4,0.5c-0.3-0.2-0.4-0.7,1.4,0
		c0.8,0.4,1.2,0.9,1.3,1.1s-0.2,0.2-0.6,0c-0.4-0.2-0.5-0.4-0.5-0.4c-0.5-0.2-1.2-0.5-0.6-0.1h0.3c0.4,0.2,1,0.7,1.5,1.1
		c0.4,0.4,0.7,0.8,0.4,0.6c0.4,0.4,0.5,0.5,0.5,0.4c-0.1-0.1-0.3-0.5-0.6-0.8c0.7,0.8,1.1,1.5,1.4,2.2c0.3,0.8,0.4,1.6,0.3,2.7
		c0.1-0.3,0.2-0.7,0.2-0.3c-0.2,1.6-0.4,2-0.3,2.3c0,0.2,0.1,0.4-0.3,1.5c-0.7,1.1-0.1-0.6-1.1,1.5c-0.9,1.1-0.4,0.1-0.2-0.4
		c-0.9,1.9-2.5,3-3.4,3.8l0.7-0.9c-0.4,0.5-0.8,0.9-1.2,1.3c0.2-0.1,0.4-0.2,0.6-0.3c-0.5,0.4-0.9,0.8-1,0.7c-0.4,0.6,0.7,0-0.3,1
		c-0.8,0.5-2.1,1.8-2.6,1.7c2.4-1.5-0.4-0.1,1.5-1.5c-0.3,0.3-0.8,0.6-1.4,1c-0.1,0,0-0.1,0.2-0.2c-2.4,1.2-0.8,1-3.3,2.4
		c0.2-0.3-0.7,0-1.1,0.3c1-0.5,0.6,0-0.3,0.6c-1.7,0.7-1.8,0.9-2.6,1.3l1-0.4c-0.3,0.3-1.1,0.7-2.3,1.2c-0.1-0.1,1-0.5,0.6-0.4
		c-1.2,0.8-3.1,0.9-4.9,1.7c-0.9,0.2-0.2-0.3-1-0.1c-2.1,0.9-2.4,0.4-4.6,1.2c0.7,0.1,0.8,0-0.7,0.6c1.2-0.4,2.5-0.7,3.7-1.1
		c-0.8,0.3-1.5,0.7-2.3,1c1.1-0.3,2.3-0.8,3-0.9c-1.1,0.5-1,0.4-0.4,0.5c-1.6,0.1-3,1-4.9,1.2l-0.1-0.6c-2.7,0.4-4.7,1.4-8.3,1.8
		l1.2-0.1c-0.4,0.3-2.2,0.4-3.3,0.7c0.1-0.2-0.6-0.2-1.2-0.2c0.1,0.1-2.6,0.4-2.9,0.8l-1.6-0.1c-2.9,0.3-3.2,0.9-6,1.2
		c0.8-0.3-0.5-0.3,1.4-0.7c-0.9,0.1-1.8,0.1-1.8,0.3c-0.6-0.1-2.6,0.5-3.4,0.4c-0.4,0.1-0.5,0.4-1.5,0.4c-0.1,0,0-0.1,0-0.1
		c0,0.1-1.6,0.3-0.7,0.4c-2.9-0.4-8,0.6-10.6,0.2c-2,0.2-4.5,0.3-6.4,0.4c0.1-0.1,0-0.1,0.4-0.1c-2.6-0.1-1.6,0.6-4.5,0.5
		c-1.5-0.3,1.5-0.2,0.6-0.3c-0.4-0.6-3.5,0.2-5.5-0.2l0.5,0c-1.5-0.2-3.6,0.3-6.1,0.3c0,0,0.1-0.1,0-0.1c-1.7,0.4-4.8,0.5-7.2,0.6
		c0.7-0.3,1.1-0.1,0.6-0.4c-1.1,0,0.3,0.4-1.8,0.5c-0.7-0.1-2.2-0.3-2.4-0.5l2,0c-1-0.4-2.6,0-3.6-0.1l0.1-0.1
		c-3.1,0-3.1,0.4-6.4,0.4l0.3,0.1c-1.8,0.4-1.5-0.2-3.3,0l-0.5-0.4c-1.2,0.1-4.1,0.3-6.3,0.4c1.2-0.3,3.7-0.4,5.2-0.5
		c-1.2,0-4,0-4.6,0.2c0.5,0,1.1-0.1,1.5-0.1c-1.4,0.3-3.3,0.4-5.7,0.4c0.4-0.8-6.1-0.3-7.8-0.9c-4.1,0.2-8.2-0.3-13-0.4
		c1.7,0.6-1.4,0-1.1,0.6c-1.1,0-1.6,0-1.7-0.1l-3.4-0.5c-0.8-0.2,1.1-0.1,1-0.2c-2.4-0.1-1-0.3-2.6-0.5c0.3,0.2-0.9,0.3-2.3,0.1
		l1.9,0.4c-3.4,0.2-2.9-0.6-6.4-0.5l1.1-0.1c-1.8,0-6.5-0.3-8.3,0.1c-0.3-0.1-0.7-0.3,0.1-0.3c-4.2-0.3-9.4-0.1-12.7-0.7l0.3-0.1
		c-0.8,0-1.4,0.2-2.4-0.1c0.1-0.1,0.3-0.1,0-0.2c-0.4,0-2.1,0.1-3.1-0.1l0.9-0.1c-4.1-0.6-6.3-0.2-9.8-0.5c0.1-0.4-3.1-1-4.7-1.3
		l0.1,0c-4.7-0.7-8.1-0.8-12.5-1.4c-1.3-0.5-3.6-1-6-1.6s-5.1-1.4-7.1-2.2c0.6,0.3-0.2,0.3-1,0.1c-0.9-0.4-2.8-0.7-2.5-1l0.3,0.1
		c-0.6-0.6-2.6-1.3-4-2l-0.5,0.4c-1.8-1.3-4.2-2.5-6-4.2c-0.9-0.8-1.6-1.7-1.9-2.5c-0.3-0.8-0.3-1.6-0.1-2c-0.1-0.8,0.4-1.8,0.8-2.7
		l0.2,0.2c0.8-1,1.6-1.7,2.4-2.4c0.9-0.7,1.9-1.4,3.4-2.3l-0.5,0.5c1.7-1,1.8-1.9,3.5-2.7l0.7,0.2c3.2-1.5,6.7-2.3,9.9-3.7
		c0,0.1-0.1,0.2-0.6,0.4c1.6-0.5,6.2-1.5,5.5-1.9c0.1,0.4,3.5-0.9,5.4-1.4l-0.2,0.3c1.5-0.7,1.5-0.8,3.7-1.3
		c0.5-0.1,0.5,0.1-0.2,0.2c1.8-0.2,1.3-0.5,3.5-0.7l-0.8,0.3c1.8-0.3,1.7-0.4,2.6-0.7c1.1-0.3,3.5-0.4,3.8-0.2
		c0.2-0.2,1.2-0.5,2.3-0.6c0.2,0.1-0.2,0.2-0.4,0.2c3.1-0.2,4.5-0.9,6.6-0.8c0.1,0.1,0.2,0.1,0.4,0.1c-2.4,0.2-4.4,0.5-4.2,0.4
		c0,0.3,2,0.1,0.5,0.6c1.5-0.4,4.2-1.1,6.1-1.1c0.1,0,0.2,0,0.3,0.1l-0.2,0c0.4,0,0.8-0.1,1.2-0.1c0.6,0,1,0,1.6-0.1
		c0.2,0.2,2.3-0.1,3.2-0.1c-0.1-0.3,1.2-0.3,0-0.5c0.2,0-0.2,0-0.8,0.1c-0.1,0-0.3,0-0.4,0.1c0,0,0,0,0.1,0
		c-0.6,0.1-1.5,0.1-2.4,0.2c0.8-0.2,1.6-0.4,2.7-0.3c0.5-0.2,1-0.5,1.3-0.6c1.4,0.3,4,0.3,4.4,0.5c3-0.4,7.1-0.6,8.9-1.2
		c0.8-0.1,1,0.1,1.3,0.2c-0.5,0.1-1.1,0.1-1.3,0.2c1.7-0.3,5.1-0.3,5.4-0.7c2.2,0.1-1.2,0.4,1.8,0.2l-0.4,0.1
		c5.8,0.3,9.4-1.4,15.9-0.9c-0.4,0-0.7,0-0.8-0.1c7.4,0.1,15.2-0.8,22.5-0.4c2.1,0.1,2.3-0.2,3.5-0.4l0.4,0.3l2.2-0.4
		c3.1-0.3,5.3,0.6,9.2,0.1l-0.5-0.2c1.4,0,4.4-0.2,4.2,0c0.1,0,0.4-0.2,1-0.1l0,0.2l3.4-0.3c2.6,0.1-0.4,0.6,3.5,0.6
		c1.4-0.1,4.1-0.5,3.5-0.6c-0.6,0-1.5-0.1-1.5-0.2l1.3-0.1c0.2-0.5,1.2-1-2-1.2l-2.2,0.3l-0.7-0.2l1.9,0c-1.1-0.2-1.8,0-2.5,0.1
		c-0.2-0.1-0.5-0.2-0.9-0.2l-2.2,0.5c-0.3-0.2,1-0.4-0.5-0.4c-1,0.2,1,0.4-0.7,0.6c-1.1-0.2-0.8-0.4-2-0.2c-0.2-0.1,0.1-0.2,0.6-0.3
		c-1.1,0.2-3,0.1-3.6,0.4c-1.1-0.2-3.8,0.1-3.7-0.3c-0.4,0.1-2,0.4-3,0.4c1.9-0.6-3.9,0-3.4-0.5c-1.4,0.5-5,0.3-7.5,0.6
		c0.1,0,0.4-0.1,0.6-0.1c-1.4,0-1.8-0.1-2.7-0.2c-0.2,0.4-2.3,0.5-3.5,0.8c-1.7-0.3,1-0.5,0.5-0.8c0.1,0.3-3,0.4-2.4,0.6
		c-1.3-0.2-1.1-0.1-1.8-0.4c-0.2,0.5-1.2,0.1-2.3,0.5c-1.9-0.2-0.5-0.4-2.6-0.2C-79.2,373.6-77.4,373.4-77.4,373.4z M-126.6,377
		L-126.6,377c0.4,0,0.8-0.1,1-0.1C-125.8,376.9-126.1,376.9-126.6,377z M-130.7,377.4c0.5-0.1,1.1-0.1,1.8-0.2
		c0.1,0.1,0,0.2-0.4,0.2C-129.1,377.4-130.1,377.4-130.7,377.4z M-121.8,378.5c-0.7,0.1-0.9,0.1-1,0c0.3,0,0.7-0.1,1.1-0.1
		c0,0,0,0,0.1,0C-121.6,378.4-121.7,378.5-121.8,378.5z"/>
	<path class="st0" d="M-120.7,378c0.1,0,0.1,0,0.3,0c-0.1,0-0.3,0-0.4,0c-0.1,0-0.1,0.1-0.2,0.1C-120.9,378.1-120.8,378-120.7,378z"
		/>
	<path class="st0" d="M4.9,381.8L4.9,381.8C4.9,381.8,4.8,381.7,4.9,381.8C4.8,381.7,4.8,381.8,4.9,381.8z"/>
	<polygon class="st0" points="-182.7,398.3 -182.6,398.3 -182.7,397.9 	"/>
	<path class="st0" d="M-17.9,379.7c0,0-0.1-0.1-0.3-0.1C-18.2,379.6-18,379.6-17.9,379.7z"/>
	<path class="st0" d="M-27.7,379.3l-1.4-0.1C-28.5,379.3-28.1,379.3-27.7,379.3z"/>
	<path class="st0" d="M-35.3,379.1c-0.1,0-0.1,0.1-0.1,0.1c0,0,0,0,0,0L-35.3,379.1z"/>
	<path class="st0" d="M40.6,411.4c-0.1,0-0.2,0.1-0.3,0.1C39.7,411.8,40.1,411.6,40.6,411.4z"/>
	<path class="st0" d="M49.1,385.6c0.4,0,0.8,0.1,1.2,0.2C49.7,385.5,49.2,385.4,49.1,385.6z"/>
	<path class="st0" d="M1.3,419.9L1.3,419.9c-0.1,0-0.2,0-0.2,0L1.3,419.9z"/>
	<path class="st0" d="M51.9,386.4c-0.6-0.3-1.1-0.5-1.6-0.6C50.8,386,51.4,386.2,51.9,386.4z"/>
	<path class="st0" d="M-68.2,379.3h-0.4c0,0,0,0,0,0L-68.2,379.3z"/>
	<path class="st0" d="M-68.6,379.3l-0.4,0.1C-68.8,379.4-68.7,379.4-68.6,379.3z"/>
	<path class="st0" d="M-69.9,379.5l0.8-0.1C-69.3,379.4-69.7,379.4-69.9,379.5z"/>
	<path class="st0" d="M-58.2,379.2l0.1-0.1C-58.1,379.1-58.1,379.1-58.2,379.2z"/>
	<path class="st0" d="M-55.1,379.1c-0.7,0-1.8-0.2-2.8-0.1L-58,379C-57.6,378.9-55.8,379.3-55.1,379.1z"/>
	<path class="st0" d="M-42.4,380.3l-2.6-0.1c0.4,0.1,1,0.3-0.1,0.3C-41.8,380.8-45.7,380.2-42.4,380.3z"/>
	<path class="st0" d="M-34.4,380.5c-1.4,0,0,0.2-0.1,0.2C-33.6,380.6-33.4,380.6-34.4,380.5z"/>
	<path class="st0" d="M22.6,383.4l-0.2,0.2C23.5,383.7,22.5,383.5,22.6,383.4z"/>
	<polygon class="st0" points="33.7,383.1 32.7,382.9 32.1,383 	"/>
	<polygon class="st0" points="39.9,385.6 39.4,385.6 41.2,385.7 	"/>
	<path class="st0" d="M-10,418.2l0.3,0.3C-9,418.4-8.9,418-10,418.2z"/>
	<path class="st0" d="M-51.5,419.2c-0.4-0.2-1.6-0.3-2.3-0.1C-52.9,419.1-51.9,419.2-51.5,419.2z"/>
	<path class="st0" d="M-173.8,405c0.3,0.1,0.5,0.2,0.8,0.3c-0.5-0.2-0.9-0.4-1.4-0.7C-174.2,404.8-174,404.9-173.8,405z"/>
</g>
<g>
	<path d="M-152.9,403.1v1.3c0,3.2-2.6,5.8-5.8,5.8h-6.3h-2.1v-22.6h3.2h4.5c3.2,0,5.8,2.6,5.8,5.8v1.3c0,1.5-0.5,2.9-1.5,3.9
		C-153.8,399.7-152.9,401.3-152.9,403.1z M-163.9,390.9v6.5h4.5c1.5,0,2.6-1.1,2.6-2.6v-1.3c0-1.5-1.1-2.6-2.6-2.6H-163.9z
		 M-156.1,403.1c0-1.5-1.1-2.6-2.6-2.6h-5.2v6.5h5.2c1.5,0,2.6-1.1,2.6-2.6V403.1z"/>
	<path d="M-133.5,404.4c0,3.2-2.6,5.8-5.8,5.8h-2.6c-3.2,0-5.8-2.6-5.8-5.8v-16.8h3.2v16.8c0,1.4,1.2,2.6,2.6,2.6h2.6
		c1.4,0,2.6-1.2,2.6-2.6v-16.8h3.2V404.4z"/>
	<path d="M-114.2,387.6v7.4l-5.5,7.2v8h-3.2v-8l-5.5-6.8v-7.8h3.2v6.6l3.8,4.7h0.1l3.9-5.1v-6.3H-114.2z"/>
	<path d="M-75.4,390.9h-5.5v19.4h-3.2v-19.4h-5.5v-3.2h8.7h5.5V390.9z"/>
	<path d="M-61.5,390.9V407h5.5v3.2h-8.7h-5.5V407h5.5v-16.2h-5.5v-3.2h8.7h5.5v3.2H-61.5z"/>
	<path d="M-39.8,393.4c0-1.5-1.1-2.6-2.6-2.6H-45c-1.5,0-2.6,1.2-2.6,2.6v10.9c0,1.4,1.2,2.6,2.6,2.6h2.6c1.4,0,2.6-1.2,2.6-2.6
		v-1.8h3.2v1.8c0,3.2-2.6,5.8-5.8,5.8H-45c-3.2,0-5.8-2.6-5.8-5.8v-10.9c0-3.2,2.6-5.8,5.8-5.8h2.6c3.2,0,5.8,2.6,5.8,5.8v1.8h-3.2
		V393.4z"/>
	<path d="M-24.2,398.9l6.9,11.3H-21l-5.9-9.7h-1.2v9.7h-3.2v-22.6h3.2v9.7h1.2l5.9-9.7h3.8L-24.2,398.9z"/>
	<path d="M-8.8,390.9v5.9h9.7v3.2h-9.7v7h11v3.2h-14.2V400v-9.1v-3.2H2.2v3.2H-8.8z"/>
	<path d="M21.5,390.9H16v19.4h-3.2v-19.4H7.3v-3.2H16h5.5V390.9z"/>
	<path d="M29.9,402.9v1.3c0,1.5,1.3,2.8,2.8,2.8h2.2c1.6,0,2.8-1,2.8-2.5c0-4.5-10.7-5.4-10.7-11.6c0-3.2,2.5-5.4,6-5.4h1.5
		c3.3,0,6,2.7,6,6v1h-3.2v-1c0-1.6-1.3-2.8-2.8-2.8H33c-1.7,0-2.8,0.8-2.8,2.1c0,3.4,10.7,4.7,10.7,11.6c0,3.2-2.6,5.7-6,5.7h-2.2
		c-3.3,0-6-2.7-6-6v-1.3H29.9z"/>
</g>
</svg>
