<?xml version="1.0" encoding="utf-8"?>
<!-- Generator: Adobe Illustrator 19.1.0, SVG Export Plug-In . SVG Version: 6.00 Build 0)  -->
<svg version="1.1" id="Layer_1" xmlns="http://www.w3.org/2000/svg" xmlns:xlink="http://www.w3.org/1999/xlink" x="0px" y="0px"
	 viewBox="0 0 896.7 153" style="enable-background:new 0 0 896.7 153;" xml:space="preserve">
<style type="text/css">
	.st0{fill:#AC0D56;}
	.st1{fill:#FFFFFF;}
</style>
<rect class="st0" width="896.7" height="153"/>
<g>
	<path class="st1" d="M116.8,111.4c-2.2,2.2-4.7,3.3-5.8,3.8c-5.2,2.3-9.7,2.7-15.2,2.7H45.1v-83h49.1c2.3,0,4.7,0.1,7.1,0.5
		c4.9,0.7,10.8,2.8,14.3,6.5c0.7,0.8,2.1,2.5,3.3,4.9c1.4,2.8,2.1,6,2.1,9.2c0,2.7-0.8,10.6-7.5,15.9c-1.3,0.9-2.6,1.8-5.5,3.1
		l3.5,1.1c2.6,0.8,4.6,2.2,6.6,4.2c5.1,5.3,5.2,11.3,5.2,14C123.3,96.9,122.9,105.6,116.8,111.4z M95.4,87.6
		c-2.4-3.9-7.3-3.8-8.3-3.8H71.2V100h16.4c2.9,0,5.6-0.6,7.5-3.3c1.3-1.9,1.4-3.8,1.4-4.7C96.6,91.1,96.5,89.3,95.4,87.6z
		 M93.3,55.4c-2-3.2-6-2.9-6.9-2.9h-15v14h14.5c2.8,0,6-0.2,7.6-3.1c0.9-1.4,0.9-3.2,0.9-3.9C94.3,57.4,93.8,56.1,93.3,55.4z"/>
	<path class="st1" d="M203.7,99.3c-5.8,15-20.8,20.8-35.6,20.8c-3.1,0-11.3-0.2-19.5-3.9c-3.5-1.5-12-5.6-15.9-15.9
		c-1.5-4.1-2.1-7.5-2.1-16.2V34.9h26.3v51.8c0,0.8-0.1,3.8,0.8,6.4c2.1,6.3,8.7,6.7,10.6,6.7c1.8,0,8.3-0.4,10.7-6.6
		c0.8-2.1,0.8-4,0.8-6.5V34.9h26.4v49.7C206.3,89.9,205.5,94.4,203.7,99.3z"/>
	<path class="st1" d="M270.6,83v34.9h-26.3V83L211,34.9h30.3l16.3,27.6l16-27.6h30.3L270.6,83z"/>
	<path class="st1" d="M388.5,55.4v62.5h-26.2V55.4h-21.2V34.9h68.4v20.4H388.5z"/>
	<path class="st1" d="M415,117.9v-83h26.3v83H415z"/>
	<path class="st1" d="M526.7,106.4c-4.9,5.6-15.5,14.1-34,14.1c-10.6,0-20-2.6-28.1-9.5c-13.9-11.6-14.9-28.2-14.9-34.1
		c0-5.1,0.6-16.6,8.6-27.7c11.4-16.1,27.3-17.3,34.5-17.3c18.9,0,30.2,9.9,34.8,15.2c2.5,2.8,3.6,4.8,5.4,8l-22,10.9
		c-0.4-0.8-0.8-1.6-1.2-2.5c-1.4-2.8-5.5-11.4-16.1-11.3c-4.8,0-7.9,1.8-9.5,2.9c-8.2,6.1-7.9,18.1-7.9,20.2
		c0,11.4,3.6,17.5,7.6,20.7c4.1,3.2,7.9,3.3,9.9,3.3c9,0,13.3-6.1,14.9-8.9c0.6-1.2,1.1-2.2,1.9-4.7l22.4,10.8
		C530.3,101.9,528.7,104,526.7,106.4z"/>
	<path class="st1" d="M596.8,117.9l-18.3-33.1l-12.3,13.5v19.6H540v-83h26.2v31.4l26.1-31.4h32l-28.8,31.5l30.9,51.5H596.8z"/>
	<path class="st1" d="M630.6,117.9v-83h65.7v18.2h-39.4v12.3h36.8v18h-36.9v16.4h43v18H630.6z"/>
	<path class="st1" d="M748.6,55.4v62.5h-26.2V55.4h-21.2V34.9h68.4v20.4H748.6z"/>
	<path class="st1" d="M841.2,112.7c-10.7,7.9-24.7,7.6-28.2,7.6c-12.1,0-23.6-2-33.5-9.4c-3.8-2.8-6-5.3-8.8-8.9l20.1-12.8
		c1.8,2.8,2.8,4.1,4,5.1c4.7,4.1,13.4,5.9,19.2,5.9c7.4,0,12.6-2.2,12.6-6.4c0-0.9-0.5-1.6-0.6-2c-0.6-1.2-1.5-2.2-4-3.1
		c-2.9-1.1-8.2-1.8-15.6-3.3c-11.4-2.2-17.5-5.1-21.5-8.6c-2.6-2.2-7.3-7.8-7.2-16.8c0-2.2,0.1-7.3,3.1-12.6
		c8.5-15.5,30.4-15.3,33.6-15.3c4.2,0,19.2,0.2,31,8.9c2.6,1.9,4.1,3.5,6.3,5.8l-16.6,13.7c-1.1-1.4-1.6-2.1-2.3-2.7
		c-4.8-4.5-13.2-5.8-19.4-5.8c-0.6,0-3.8,0-6.2,1.1c-0.5,0.2-3.3,1.5-3.3,4.4c0,1.5,0.9,2.9,2.1,3.8c2.1,1.3,7,2.2,9.3,2.6
		c2.9,0.5,10.7,1.5,18.9,4.2c5.2,1.6,18,6.2,18,22.8C852.2,103.3,844.9,110,841.2,112.7z"/>
</g>
</svg>
