<?xml version="1.0" encoding="utf-8"?>
<!-- Generator: Adobe Illustrator 19.1.0, SVG Export Plug-In . SVG Version: 6.00 Build 0)  -->
<svg version="1.1" id="Layer_1" xmlns="http://www.w3.org/2000/svg" xmlns:xlink="http://www.w3.org/1999/xlink" x="0px" y="0px"
	 viewBox="0 0 173.3 55" style="enable-background:new 0 0 173.3 55;" xml:space="preserve">
<style type="text/css">
	.st0{fill:#202020;}
</style>
<g>
	<path class="st0" d="M170.3,50.6c0.1-0.1,0-0.3-0.2-0.3l-0.2,0.3L170.3,50.6z"/>
	<path class="st0" d="M168.7,50c-0.3,0.1-0.6,0.4-0.5,0.7c0.3-0.3,0.4-0.2,0.7-0.5c0.2,0,0.4,0.1,0.4,0.2c0.1-0.1,0.4,0.1,0.5-0.1
		c-0.3-0.3-0.7-0.3-1.1-0.1C168.6,50.1,168.6,50,168.7,50z"/>
	<path class="st0" d="M145,48.6l0.2,0C145.1,48.7,145.1,48.6,145,48.6z"/>
	<path class="st0" d="M130.3,48c0.1,0,0.2,0,0.2-0.1C130.4,48,130.3,48,130.3,48z"/>
	<path class="st0" d="M127.8,47.6c0.1,0,0.1,0,0.1,0C127.9,47.6,127.9,47.6,127.8,47.6z"/>
	<path class="st0" d="M145,48.6l-0.4-0.1C144.6,48.6,144.8,48.6,145,48.6z"/>
	<path class="st0" d="M165.4,50.6c0.1,0,0.2,0,0.2-0.1L165.4,50.6C165.4,50.6,165.4,50.6,165.4,50.6z"/>
	<path class="st0" d="M151.5,48.6l0.1,0c0,0,0.1-0.1,0.1-0.1L151.5,48.6z"/>
	<path class="st0" d="M156.4,48.7c-0.1,0-0.2,0.3-0.2,0.4c0.1-0.1,0.2-0.2,0.3-0.2C156.5,48.8,156.5,48.8,156.4,48.7z"/>
	<path class="st0" d="M164.3,49.5l0.1,0C164.4,49.4,164.3,49.4,164.3,49.5z"/>
	<path class="st0" d="M147.9,48.4c0,0,0-0.1,0-0.1C147.9,48.3,147.9,48.4,147.9,48.4z"/>
	<path class="st0" d="M9.1,49.1C9.1,49.1,9.1,49.1,9.1,49.1C9.1,49.1,9.1,49.1,9.1,49.1z"/>
	<path class="st0" d="M3.3,47.8L3.3,47.8c0.1-0.1,0.1-0.1,0.1-0.2L3.3,47.8z"/>
	<path class="st0" d="M123.3,47.1C123.3,47.1,123.3,47.1,123.3,47.1C123.4,47.1,123.3,47.1,123.3,47.1z"/>
	<path class="st0" d="M81.2,46.6c0.5,0.3-0.8,0.3-0.1,0.6C81,47.1,81.8,46.8,81.2,46.6z"/>
	<path class="st0" d="M165.2,50.6c-0.1,0-0.1,0-0.2,0C165.1,50.6,165.2,50.6,165.2,50.6z"/>
	<path class="st0" d="M81.1,47.2L81.1,47.2L81.1,47.2C81.1,47.2,81.1,47.2,81.1,47.2z"/>
	<path class="st0" d="M112.7,47.1c0,0,0.1,0.1,0.1,0.1C112.8,47.2,112.8,47.1,112.7,47.1z"/>
	<path class="st0" d="M120.6,47.6l-0.2,0C120.4,47.6,120.5,47.6,120.6,47.6z"/>
	<path class="st0" d="M108.6,47.4c-0.1,0-0.1-0.1-0.3,0c0,0,0,0,0,0C108.4,47.3,108.5,47.3,108.6,47.4z"/>
	<path class="st0" d="M104.4,47.3C104.4,47.3,104.4,47.3,104.4,47.3c0.1,0.1,0.2,0,0.2,0L104.4,47.3z"/>
	<path class="st0" d="M22,48.8c-0.1-0.1-0.2-0.2-0.2-0.3C21.9,48.8,21.3,48.9,22,48.8z"/>
	<path class="st0" d="M165.4,50.5c0,0.1-0.1,0.1-0.1,0.1l0.1,0C165.4,50.5,165.4,50.5,165.4,50.5z"/>
	<path class="st0" d="M108.4,49.6l-0.7-0.1C107.9,49.6,108.2,49.6,108.4,49.6z"/>
	<path class="st0" d="M52.5,48.7l-0.2,0C52.4,48.8,52.5,48.7,52.5,48.7z"/>
	<path class="st0" d="M105.7,49.5c-0.1-0.1-0.2-0.2-0.4-0.2c0,0-0.1,0-0.1,0.1L105.7,49.5z"/>
	<path class="st0" d="M21.8,48.6L21.8,48.6L21.8,48.6z"/>
	<path class="st0" d="M17.4,49.3c0.6,0,0.3-0.4,0.4-0.6c0.8-0.1,0.4,0.3,0.6,0.5c0.5-0.1,0.8-0.4,1.2-0.4c0,0.1,0.1,0.1,0,0.2
		c0.5-0.3,1.5,0,2.1-0.4c0,0,0.1,0.1,0.1,0.1c-0.1-0.2-0.1-0.4-0.1-0.5c0.3,0,0.5-0.2,0.6,0c-0.2,0-0.2,0.1-0.3,0.2l0.3-0.1
		c0.3,0.3-0.4,0.1-0.4,0.4c0.6-0.1,1.3-0.4,1.7-0.3c0.1,0.3-1.1,0.1-0.5,0.4l-0.7-0.1c0.5,0.5-0.4,0,0.1,0.5c0.9,0.1,1-0.2,1.9-0.1
		c0.2-0.2-0.1-0.3,0.1-0.5c1.3-0.3,1,0.8,2,0.4c0.2-0.2,0.3-0.7,1-0.4l-0.2,0.4c0.9,0,0.5-0.6,1.4-0.3c-0.2,0.2-0.7,0.1-0.6,0.2
		c0.6,0.3,0.4-0.2,0.9-0.2l0.1,0.3c0.9-0.1,2-0.3,3-0.4c-0.1,0.1-0.2,0.2,0,0.3c1.3-0.2,2.8,0,4.1,0.2l0.5-0.3
		c0.1,0,0.2,0.1,0.1,0.2c0.5,0.1,0-0.2,0.3-0.3c0.3,0,0.4,0.2,0.2,0.3c0.9-0.3,2.5-0.5,3.4-0.2l-0.2,0.1c0.7,0.1,0.8-0.6,1.5-0.3
		l-0.1,0.1c1.6,0.1,3.3-0.1,4.5,0.3c0.2-0.4,1.5,0.2,1.6-0.4c0.9,0.3,0.6,0.4,1.9,0.6c0.3,0,0.5-0.4,0.9-0.4l0,0.3l0.6-0.3l0.3,0.4
		l0.4-0.1c-0.2,0-0.3-0.1-0.3-0.2c0.6-0.1,1.5,0.2,1.5,0.4l1.4-0.3c0,0.1-0.3,0.2-0.5,0.2c0.8-0.3,0.1,0.3,0.8,0
		c-0.1-0.1,0.1-0.2,0.1-0.2c0.4,0.2,1.1,0.2,1.7,0.1L57.1,49c1.1,0.1,2.3-0.1,3.5-0.1c-0.4-0.1-0.3-0.5,0-0.5l0.1,0.3
		c0.2-0.2-0.4-0.1,0.1-0.4c0.4,0,0.3,0.4,0,0.5l0.5-0.1c0,0.1-0.1,0.1-0.1,0.3c0.2-0.2,0.9,0.3,1.3,0l0,0.1c1.2,0,1.7-0.1,2.7-0.1
		c0-0.3,0.4-0.2,0.7-0.4c0.7,0.1,1.5,0.3,2.4,0.3c0.6-0.1,0.2-0.2,0.5-0.4c0,0.3,0.9,0.2,0.5,0.4c1,0,1.3,0,2.6-0.2
		c-0.1-0.1-0.3-0.2-0.2-0.2c0.2,0,0.5,0.1,0.5,0.2l-0.1,0c1.5-0.4,3.4,0.8,4.6,0.3l-0.1,0l1.2-0.3c0.6,0.1-0.3,0.2,0.1,0.4
		c1.3-0.4,2.1,0.1,3.2-0.2c0.8,0.8,3,0,4.1,0.5l-0.1-0.2c0.3-0.2,0.4,0.1,0.6,0.1c0-0.1-0.3-0.2-0.1-0.3c2.5-0.2,5.1,0.3,7.6,0.5
		c0.9,0.1,0.5-0.9,1.7-0.5l-0.3,0.3c1.9-0.4,3.8,0.1,5.7-0.2c-0.1,0.1-0.1,0.2-0.3,0.2c0.4,0.2,1.4,0,1.4-0.2c0.3,0,0.1,0.2,0.2,0.3
		c0.4,0.1,1-0.3,1.2,0c0,0-0.1,0.1-0.2,0.1c0.3-0.1,1.2,0.1,0.9-0.2c0.7,0.1,1.3-0.1,1.9,0.1c0.4-0.3,1.2,0.2,1.3-0.3
		c-0.1,0.5,1.2,0.4,1.6,0.2c-0.1,0.1,0.4,0.1,0.2,0.3c0.5,0,1-0.1,0.9-0.3c0.9,0.6,1.8-0.4,2.3,0.3c1.5-0.2,2.8-0.3,4.2-0.4
		c-0.1,0.4-1.5,0-1.4,0.5c1.3-0.2,2-0.5,3.2-0.4c0.3,0.1-0.2,0.2-0.3,0.3c1.3-0.2,2.4,0.1,3.5-0.1c0,0-0.1,0.1-0.2,0.1
		c0.2,0,0.5,0.1,0.5-0.1l-0.2,0.1c-0.3-0.3,0.9-0.6,0.9-0.8c-0.4,0.6,1.1,0.2,0.5,0.9c0.1,0,0.3-0.1,0.3-0.3c0.2,0,0.3,0.1,0.1,0.3
		c0.8-0.1,0.5-0.3,1.2-0.3c0,0.1-0.2,0.1-0.2,0.2c0.4-0.2,0.7-0.4,1.3-0.3c0,0.1,0,0.1-0.1,0.1c1,0,1.8-0.5,2.9-0.3
		c-0.3,0.4,0.4,0.2,0.4,0.5l0.6-0.1l-0.2-0.2c0.5,0,1-0.2,1.5-0.1l-0.4,0.1l1,0l-0.6-0.2c0.5-0.2,0-0.6,0.7-0.5
		c-0.1,0,0.5,0.1,0.8,0.1h0c0.3,0,0.5-0.1,0.9,0c0.1,0.1-0.1,0.5,0,0.5c0.3-0.3,1.3,0,1.6-0.3c-0.1,0.1-0.1,0.3-0.1,0.3l0.2-0.2
		c0.2,0.1,0.3,0.1,0.2,0.3c0.7,0.1-0.2-0.5,0.7-0.3c-0.1,0,0,0.1-0.2,0.1c0.9,0.1,1.7-0.1,2.5,0c0.2,0.4-0.7,0.1-0.4,0.4
		c1.2,0,2.5-0.4,3.6-0.3l-0.2,0c0.2-0.5,0.8,0.3,1.4,0.1c-0.1,0-0.2,0.3-0.2,0.2c0.8,0.1,1.6-0.1,2.8-0.2l-0.2,0.1
		c0.5,0.1,1.2,0.1,1.7,0.2c0.2-0.1,0.4-0.1,0.3-0.3c1.5,0.8,2.9-0.3,4.3,0.4c-0.2,0-0.4,0.1-0.3,0.1l1.2-0.1
		c-0.1-0.2-0.1-0.1-0.4-0.3c0.2-0.1,0.5-0.2,0.8-0.2c-0.5,0.1,0,0.4,0.2,0.5c0-0.1,0-0.1,0-0.2c0.6,0.4,0.1-0.5,0.9-0.2l0,0.1
		c0.3-0.1,0.6-0.2,0.9-0.2c0.1,0.3-0.3,0.1-0.4,0.3c0.5,0,0.9-0.5,1.4-0.2c-0.2,0.1-0.5,0.1-0.7,0.1c0.5,0.3,0.5,0.3,0.8,0.3l0,0
		l0.8,0.2l-0.2-0.1c0.6-0.7,1.2-0.1,2-0.5c-0.8,0.4-0.1,0.2-0.2,0.5c0.2,0.1,0.5,0.2,0.4,0.3c0.4-0.2,0.6,0.2,1.2-0.1
		c0,0.1,0.4,0,0.3,0.3c0.5-0.1-0.1-0.2-0.1-0.3c0.8-0.3,1.7,0.5,2.8,0c0.9-0.2,1.1-0.5,2-0.6c0.3,0.2-0.3,0.3-0.3,0.3
		c0.5,0.2,0.8,0.1,1.3,0.1c-0.1,0.1,0,0.2,0.1,0.3c0.4,0,0.3-0.3,0.7-0.2c-0.1,0.1-0.2,0.3-0.4,0.4c0.4-0.1,0.8-0.2,1.3-0.3
		c0.1,0.2-0.3,0.2-0.4,0.4c0.5-0.1,1.3-0.1,1.4-0.4l-0.3-0.1c0.2,0,0.1,0.2-0.1,0.3c-0.4,0.2-0.6-0.1-0.6-0.2l0.3-0.1
		c-0.3-0.6-1.2,0-1.9,0l0.3-0.4L165,50c-0.1-0.1-0.2-0.3,0.1-0.4c-0.4-0.2-0.4,0.1-0.8-0.1c0,0,0-0.1,0-0.1l-0.4,0.1
		c0.1-0.1-0.1-0.3,0.2-0.2c-0.8-0.3-1.3,0.3-1.6-0.1l0.1,0c-1.1,0.1-0.1,0.3-0.9,0.6l-0.5-0.8l-0.1,0.3c-0.1,0-0.3,0-0.3-0.2
		c-0.4,0.2,0.1,0.1-0.2,0.3c-0.5-0.3-1.5,0.1-1.6-0.4c-0.2,0.2,0.5,0.2-0.1,0.3c-0.1-0.5-0.7,0.1-1.1-0.2c0.2-0.3,0.6-0.1,0.1-0.4
		c-0.3,0.4-1-0.1-1.4-0.1c0,0.4-0.9,0.1-1.6,0.2c0-0.1-1.3-0.2-1.9-0.4l0-0.1c-0.1,0.4-0.8,0.3-1.3,0.3c0-0.2,0.1-0.3,0.4-0.4
		l-0.5,0c-0.1,0.1-0.3,0.2-0.6,0.2l0.1-0.3c-0.6,0-1.2,0.3-2,0.1c-0.1,0.3,0.6,0.7-0.2,0.9c0-0.1,0-0.4,0.2-0.4
		c-0.1,0-0.3,0.1-0.4,0l0.3-0.2c-0.4-0.1-0.2,0.2-0.5,0.2c0-0.2-0.2-0.1-0.2-0.3c0.1,0,0.2,0.1,0.4,0c-0.3,0-0.7-0.2-0.8-0.3
		c0,0.1,0,0.3-0.2,0.3c-0.6,0-0.2-0.2-0.6-0.4c-0.2,0.1-0.5,0-0.6,0.3c-0.2,0-0.2,0-0.3-0.1c-0.3,0.1-1.5-0.6-1.1,0.4h0.1
		c0,0,0,0-0.1,0h0h0c-1,0-2.1-0.3-3.2-0.2l0-0.1c-0.6,0.1-1.4,0-1.8,0.2c-0.2,0-0.4-0.2-0.3-0.3c-0.5,0.1-0.5,0.2-1.2,0
		c0.5-0.2-0.2-0.2,0.5-0.1c-0.6-0.1-0.7-0.3-1.4,0c0.2-0.2-0.4-0.3-0.7-0.3l0.4,0.2c-0.3,0-0.6,0-0.9,0l0.2-0.3
		c-1.2-0.4-2.3,0.6-3.2-0.1c-0.3,0.2,0.7,0.2,0.4,0.4c-0.6-0.1-1.2-0.6-1.3-0.6c-0.8-0.2-0.7,0.5-1.6,0.3c0.1,0.1,0.2,0.4-0.4,0.5
		c-0.6-0.1-0.7-0.5-0.3-0.6c0.1,0,0.2,0,0.2,0.1c0.2,0,0.4-0.1,0.2-0.2l-0.1,0.1c-0.3-0.1-1.1-0.1-0.9-0.3c-0.4,0.1-0.2,0.2,0.1,0.3
		c-0.7-0.2-1.1,0-1.9-0.2c0.1,0.1,0.2,0.2,0.1,0.2c-1.1-0.2-0.5,0.2-1.2,0.2c-0.4-0.2,0.2-0.4-0.6-0.3c-0.5-0.1-0.1-0.3,0.1-0.4
		c-0.7,0.2-1.3-0.2-1.7-0.2l0.4-0.1c-0.2,0.1-0.4,0-0.6,0l0.2,0.2c-0.2,0-0.4-0.1-0.4-0.2c-0.2,0.1,0.2,0.4-0.3,0.6
		c-0.3-0.1-0.9,0.1-1-0.2c0.9,0.1-0.1-0.3,0.7-0.4c-0.1,0-0.3,0-0.5,0c0,0,0-0.1,0.1-0.1c-0.8-0.3-0.4,0.3-1.3,0.3
		c0.1-0.2-0.2-0.3-0.3-0.3c0.4,0,0.2,0.3-0.2,0.4c-0.6-0.2-0.6,0.1-0.9,0.1l0.3,0.1c-0.1,0.2-0.4,0.1-0.8,0.2c0-0.1,0.4-0.1,0.2-0.2
		c-0.4,0.3-1-0.3-1.6-0.2c-0.3-0.1,0-0.3-0.3-0.4c-0.7,0.2-0.7-0.3-1.5-0.1c0.2,0.2,0.2,0.2-0.3,0.4l1.2-0.1l-0.8,0.3
		c0.4,0,0.8-0.1,1-0.1c-0.4,0.2-0.3,0.1-0.2,0.3c-0.5-0.4-1,0.2-1.5-0.1l0-0.6c-0.8-0.3-1.5,0.3-2.6,0.1l0.4,0.1
		c-0.2,0.2-0.7,0-1,0.1c0-0.2-0.2-0.3-0.3-0.4c0,0.1-0.8,0-0.9,0.4l-0.5-0.3c-0.9-0.1-1,0.5-1.9,0.5c0.3-0.2-0.1-0.4,0.5-0.5
		c-0.3,0-0.5,0-0.6,0.1c-0.2-0.1-0.8,0.3-1.1,0.1c-0.1,0.1-0.2,0.3-0.5,0.3c0,0,0-0.1,0-0.1c0,0.1-0.5,0.1-0.2,0.3
		c-0.9-0.6-2.5,0-3.2-0.5c-0.6,0.1-1.4,0.1-1.9,0.1c0-0.1,0-0.1,0.1-0.1c-0.8-0.2-0.5,0.6-1.4,0.3c-0.4-0.3,0.5-0.2,0.2-0.3
		c-0.1-0.7-1.1,0.1-1.7-0.3l0.1,0c-0.5-0.2-1.1,0.2-1.9,0.2c0,0,0-0.1,0-0.1c-0.5,0.3-1.5,0.4-2.2,0.5c0.2-0.3,0.3-0.1,0.2-0.4
		c-0.3,0,0.1,0.4-0.6,0.5c-0.2-0.1-0.7-0.3-0.7-0.5l0.6,0c-0.3-0.4-0.8,0-1.1-0.1l0-0.2c-0.9,0-0.9,0.4-1.9,0.4l0.1,0.1
		c-0.6,0.4-0.5-0.2-1,0.1l-0.2-0.4c-0.4,0.1-1.3,0.4-1.9,0.4c0.4-0.3,1.1-0.4,1.6-0.6c-0.4,0-1.2,0-1.4,0.2c0.1,0,0.3-0.1,0.5-0.1
		c-0.4,0.3-1,0.4-1.7,0.4c0.1-0.8-1.9-0.2-2.4-0.8c-1.3,0.3-2.5-0.1-4-0.1c0.5,0.6-0.4,0-0.3,0.6c-0.3,0-0.5,0-0.5,0l-1-0.4
		c-0.2-0.2,0.3-0.1,0.3-0.3c-0.7-0.1-0.3-0.3-0.8-0.4c0.1,0.2-0.3,0.3-0.7,0.2l0.6,0.3c-1,0.3-0.9-0.5-2-0.2l0.3-0.2
		c-0.5,0.1-2,0-2.5,0.5c-0.1-0.1-0.2-0.2,0-0.3c-1.3-0.1-2.9,0.5-3.9,0.2l0.1-0.1c-0.2,0-0.4,0.3-0.7,0.1c0-0.1,0.1-0.1,0-0.2
		c-0.1,0.1-0.6,0.3-1,0.2l0.3-0.2c-1.3-0.2-1.9,0.4-3,0.5c0-0.4-1-0.6-1.5-0.7l0-0.1c-1.5-0.1-2.5,0.4-3.9,0.5
		c-0.8-0.5-2.9-0.2-4.2-0.5c0.2,0.1,0,0.3-0.3,0.4c-0.3-0.1-0.9,0.3-0.8-0.1l0.1,0c-0.2-0.4-0.9-0.3-1.4-0.3l-0.1,0.5
		c-1.3-0.8-3.5,0.3-4.2-0.4c-0.3,0.1-0.7,0.1-1,0.3l0-0.3c-0.9-0.1-1.3-0.1-2.4,0l0.2-0.2c-0.6,0-0.8,0.8-1.4,0.8l-0.2-0.4
		c-1.1,0-2.2-0.4-3.3,0c0-0.1,0-0.2,0.2-0.2c-0.5,0-2-0.3-1.8,0.3c0-0.4-1.1,0-1.7,0.1l0.1-0.3c-0.5,0.4-0.5,0.5-1.2,0.6
		c-0.2,0-0.1-0.2,0.1-0.2c-0.5-0.1-0.4,0.3-1.1,0.1l0.2-0.2c-0.6,0-0.5,0.1-0.8,0.3c-0.4,0.1-1.1-0.1-1.2-0.3
		c-0.1,0.2-0.4,0.4-0.7,0.3c0-0.1,0.1-0.2,0.1-0.2c-0.9-0.2-1.4,0.3-2,0.1c0-0.1-0.1-0.1-0.1-0.2c0.7,0,1.3,0,1.3,0
		c0-0.3-0.6-0.3-0.1-0.7c-0.5,0.2-1.3,0.6-1.9,0.5c0,0-0.1,0-0.1-0.1l0.1,0c-0.1,0-0.3,0-0.4,0c-0.2,0-0.3-0.1-0.5-0.1
		c-0.1-0.2-0.7-0.1-1-0.1c0,0.3-0.4,0.2,0,0.5c0,0,0.1,0,0.3,0c0,0,0.1,0,0.1,0l0,0c0.2,0,0.5,0,0.7,0c-0.2,0.1-0.5,0.3-0.8,0.1
		c-0.2,0.2-0.3,0.4-0.4,0.5c-0.4-0.4-1.2-0.6-1.3-0.8c-0.9,0.2-2.2,0.1-2.7,0.6c-0.3,0.1-0.3-0.1-0.4-0.2c0.2-0.1,0.3,0,0.4-0.1
		c-0.5,0.1-1.5,0.1-1.7,0.4c-0.7-0.2,0.4-0.3-0.5-0.3l0.1-0.1c-1.8-0.6-2.9,1-4.9,0.2c0.1,0,0.2,0.1,0.2,0.1
		c-2.3-0.3-4.6,0.3-6.9-0.2c-0.6-0.1-0.7,0.1-1.1,0.3L11.4,47l-0.7,0.4c-0.9,0.3-1.6-0.7-2.8-0.2l0.2,0.2c-0.4,0-1.3,0.1-1.3-0.1
		c0,0-0.1,0.2-0.3,0.1l0-0.2l-1,0.3c-0.8-0.1,0.1-0.6-1.1-0.6c-0.4,0.1-1.2,0.5-1.1,0.6c0.2,0,0.5,0.1,0.5,0.3l-0.4,0.1
		C3.3,48.2,3,48.7,4,49l0.7-0.3l0.2,0.2l-0.6,0c0.3,0.2,0.5,0,0.8-0.1C5.2,49,5.3,49,5.4,49.1l0.7-0.5c0.1,0.2-0.3,0.4,0.2,0.5
		c0.3-0.2-0.3-0.4,0.2-0.5c0.3,0.2,0.2,0.4,0.6,0.2c0.1,0.1,0,0.2-0.2,0.3c0.3-0.1,0.9-0.1,1.1-0.3c0.3,0.3,1.2-0.1,1.1,0.4
		c0.1-0.1,0.6-0.4,0.9-0.4c-0.6,0.5,1.2,0,1,0.6c0.4-0.5,1.5-0.2,2.3-0.5c0,0-0.1,0.1-0.2,0.1c0.4,0,0.5,0.2,0.8,0.3
		c0.1-0.4,0.7-0.5,1.1-0.7c0.5,0.4-0.3,0.5-0.1,0.8c0-0.3,0.9-0.3,0.7-0.6c0.4,0.2,0.3,0.1,0.6,0.4c0.1-0.5,0.4-0.1,0.7-0.4
		c0.6,0.2,0.2,0.5,0.8,0.3C17.9,49.1,17.4,49.3,17.4,49.3z M32.4,48.3L32.4,48.3c-0.1,0-0.2,0-0.3,0C32.1,48.4,32.2,48.4,32.4,48.3z
		 M33.7,48.3c-0.2,0-0.3,0-0.5,0c0-0.1,0-0.2,0.1-0.2C33.2,48.2,33.5,48.2,33.7,48.3z M31,46.4c0.2,0,0.3,0,0.3,0.1
		c-0.1,0-0.2,0-0.4,0l0,0C30.9,46.5,30.9,46.4,31,46.4z"/>
	<path class="st0" d="M30.6,46.8C30.6,46.8,30.6,46.8,30.6,46.8C30.6,46.8,30.6,46.8,30.6,46.8l0.1,0C30.7,46.8,30.7,46.8,30.6,46.8
		z"/>
	<path class="st0" d="M145.2,48.7L145.2,48.7C145.2,48.7,145.2,48.7,145.2,48.7C145.2,48.7,145.2,48.7,145.2,48.7z"/>
	<polygon class="st0" points="51.1,48.9 51.1,48.8 51,48.8 	"/>
	<path class="st0" d="M152.1,49.9C152.1,49.9,152.2,49.9,152.1,49.9C152.2,49.9,152.2,49.9,152.1,49.9z"/>
	<path class="st0" d="M155.1,50l0.4,0.1C155.4,50.1,155.2,50.1,155.1,50z"/>
	<path class="st0" d="M157.4,50.2c0,0,0-0.1,0-0.1l0,0L157.4,50.2z"/>
	<path class="st0" d="M120.7,49.5C120.6,49.5,120.6,49.5,120.7,49.5C120.4,49.6,120.5,49.6,120.7,49.5z"/>
	<path class="st0" d="M131.6,49.1c-0.1,0-0.2,0.1-0.4,0.1C131.5,49.3,131.6,49.3,131.6,49.1z"/>
	<polygon class="st0" points="108.5,49.6 108.5,49.6 108.4,49.6 	"/>
	<path class="st0" d="M130.8,49.2c0.2,0.1,0.4,0.1,0.5,0C131.1,49.2,130.9,49.2,130.8,49.2z"/>
	<path class="st0" d="M167.4,50.7l0.1,0c0,0,0,0,0,0L167.4,50.7z"/>
	<path class="st0" d="M167.6,50.7l0.1,0C167.6,50.7,167.6,50.7,167.6,50.7z"/>
	<path class="st0" d="M167.9,50.6l-0.3,0.1C167.8,50.7,167.9,50.7,167.9,50.6z"/>
	<path class="st0" d="M164.4,50.5l0,0.1C164.4,50.6,164.4,50.5,164.4,50.5z"/>
	<path class="st0" d="M163.4,50.5c0.2,0,0.5,0.2,0.9,0.2l0-0.1C164.2,50.7,163.7,50.3,163.4,50.5z"/>
	<path class="st0" d="M159.6,49.1l0.8,0.1c-0.1-0.1-0.3-0.3,0-0.3C159.5,48.6,160.6,49.2,159.6,49.1z"/>
	<path class="st0" d="M157.2,48.9c0.4,0,0-0.2,0-0.2C157,48.7,156.9,48.7,157.2,48.9z"/>
	<path class="st0" d="M139.7,48.3l0-0.3C139.5,48.1,139.8,48.1,139.7,48.3z"/>
	<polygon class="st0" points="136.4,49.5 136.7,49.7 136.8,49.5 	"/>
	<polygon class="st0" points="134.4,47.6 134.6,47.6 134,47.7 	"/>
	<path class="st0" d="M105.1,47.1l0.1,0.3C105.4,47.3,105.5,47,105.1,47.1z"/>
	<path class="st0" d="M92.4,47.2c-0.1-0.2-0.5-0.3-0.7-0.1C92,47.1,92.3,47.2,92.4,47.2z"/>
	<polygon class="st0" points="54.5,46.3 54.7,46.2 54.2,46.3 	"/>
</g>
<g>
	<path d="M21.7,15.8v7.3h12v4h-12v8.7h13.6v4H17.7V27.2V15.8v-4h17.6v4H21.7z"/>
	<path d="M59.3,32.6c0,4-3.2,7.2-7.2,7.2h-3.2c-4,0-7.2-3.3-7.2-7.2V11.8h4v20.8c0,1.8,1.4,3.2,3.2,3.2h3.2c1.8,0,3.2-1.4,3.2-3.2
		V11.8h4V32.6z"/>
	<path d="M78,28.4l5.2,11.5h-4.4l-5.1-11.2h-4.1v11.2h-4v-28h4h6.4c4,0,7.2,3.2,7.2,7.2v2.4C83.3,24.8,81.1,27.5,78,28.4z M79.3,19
		c0-1.8-1.4-3.2-3.2-3.2h-6.4v8.8h6.4c1.8,0,3.2-1.4,3.2-3.2V19z"/>
	<path d="M96.9,39.8c-4,0-7.2-3.3-7.2-7.2V19c0-4,3.2-7.2,7.2-7.2h3.2c4,0,7.2,3.2,7.2,7.2v13.6c0,4-3.2,7.2-7.2,7.2H96.9z
		 M103.3,32.6V19c0-1.8-1.4-3.2-3.2-3.2h-3.2c-1.8,0-3.2,1.4-3.2,3.2v13.6c0,1.8,1.4,3.2,3.2,3.2h3.2
		C101.8,35.8,103.3,34.4,103.3,32.6z"/>
	<path d="M131.3,19v2.4c0,4-3.2,7.2-7.2,7.2h-6.4v11.2h-4v-28h4h6.4C128.1,11.8,131.3,15,131.3,19z M127.3,19c0-1.8-1.4-3.2-3.2-3.2
		h-6.4v8.8h6.4c1.8,0,3.2-1.4,3.2-3.2V19z"/>
	<path d="M155.3,30.6v9.2h-4v-6.5h-9.6v6.5h-4v-9.2l6.8-18.8h4L155.3,30.6z M142.4,29.4h8.2l-4-11.2h-0.1L142.4,29.4z"/>
</g>
</svg>
