<?xml version="1.0" encoding="utf-8"?>
<!-- Generator: Adobe Illustrator 24.1.2, SVG Export Plug-In . SVG Version: 6.00 Build 0)  -->
<svg version="1.1" id="Capa_1" xmlns="http://www.w3.org/2000/svg" xmlns:xlink="http://www.w3.org/1999/xlink" x="0px" y="0px"
	 viewBox="0 0 241.79 50" style="enable-background:new 0 0 241.79 50;" xml:space="preserve">
<style type="text/css">
	.st0{fill:#231F20;}
</style>
<g>
	<path class="st0" d="M89.29,15.6v22.57h-3.22V22.7l-3,6.38h-1.74l-3-6.38v15.48H75.1V15.6h3.22l3.87,8.42l3.87-8.42H89.29z"/>
	<path class="st0" d="M97.68,18.83v5.9h9.67v3.22h-9.67v7h10.96v3.22H94.45V27.95v-9.12V15.6h14.19v3.22H97.68z"/>
	<path class="st0" d="M123.76,28.92l4.22,9.25h-3.55l-4.09-9.03h-3.32v9.03h-3.22V15.6h3.22h5.16c3.22,0,5.8,2.58,5.8,5.8v1.93
		C127.99,26.02,126.21,28.24,123.76,28.92z M124.76,21.41c0-1.45-1.13-2.58-2.58-2.58h-5.16v7.09h5.16c1.45,0,2.58-1.13,2.58-2.58
		V21.41z"/>
	<path class="st0" d="M144.11,21.41c0-1.45-1.13-2.58-2.58-2.58h-2.58c-1.45,0-2.58,1.16-2.58,2.58v10.93
		c0,1.42,1.16,2.58,2.58,2.58h2.58c1.42,0,2.58-1.16,2.58-2.58v-1.77h3.22v1.77c0,3.19-2.58,5.84-5.8,5.84h-2.58
		c-3.19,0-5.8-2.64-5.8-5.84V21.41c0-3.22,2.61-5.8,5.8-5.8h2.58c3.22,0,5.8,2.58,5.8,5.8v1.77h-3.22V21.41z"/>
	<path class="st0" d="M166.68,15.6v12.25v10.32h-3.22V27.86h-7.74v10.32h-3.22V24.63V15.6h3.22v9.03h7.74V15.6H166.68z"/>
</g>
</svg>
