<?xml version="1.0" encoding="utf-8"?>
<!-- Generator: Adobe Illustrator 19.1.0, SVG Export Plug-In . SVG Version: 6.00 Build 0)  -->
<svg version="1.1" id="Capa_1" xmlns="http://www.w3.org/2000/svg" xmlns:xlink="http://www.w3.org/1999/xlink" x="0px" y="0px"
	 viewBox="-48 3 241.8 50" style="enable-background:new -48 3 241.8 50;" xml:space="preserve">
<style type="text/css">
	.st0{fill:#231F20;}
	.st1{fill:#202020;}
</style>
<g>
	<path class="st0" d="M41.3,18.6v22.6h-3.2V25.7l-3,6.4h-1.7l-3-6.4v15.5h-3.2V18.6h3.2l3.9,8.4l3.9-8.4H41.3z"/>
	<path class="st0" d="M49.7,21.8v5.9h9.7v3.2h-9.7v7h11v3.2H46.4V31v-9.1v-3.2h14.2v3.2L49.7,21.8L49.7,21.8z"/>
	<path class="st0" d="M75.8,31.9l4.2,9.2h-3.6l-4.1-9H69v9h-3.2V18.6H69h5.2c3.2,0,5.8,2.6,5.8,5.8v1.9C80,29,78.2,31.2,75.8,31.9z
		 M76.8,24.4c0-1.5-1.1-2.6-2.6-2.6H69v7.1h5.2c1.4,0,2.6-1.1,2.6-2.6C76.8,26.3,76.8,24.4,76.8,24.4z"/>
	<path class="st0" d="M96.1,24.4c0-1.5-1.1-2.6-2.6-2.6h-2.6c-1.4,0-2.6,1.2-2.6,2.6v10.9c0,1.4,1.2,2.6,2.6,2.6h2.6
		c1.4,0,2.6-1.2,2.6-2.6v-1.8h3.2v1.8c0,3.2-2.6,5.8-5.8,5.8h-2.6c-3.2,0-5.8-2.6-5.8-5.8V24.4c0-3.2,2.6-5.8,5.8-5.8h2.6
		c3.2,0,5.8,2.6,5.8,5.8v1.8h-3.2V24.4z"/>
	<path class="st0" d="M118.7,18.6v12.3v10.3h-3.2V30.9h-7.7v10.3h-3.2V27.6v-9h3.2v9h7.7v-9H118.7z"/>
</g>
<g>
	<path class="st1" d="M64.2,10.7C64,10.8,64.1,11,64.6,11l0.3-0.4L64.2,10.7z"/>
	<path class="st1" d="M67.6,11.1c0.6-0.2,1.2-0.5,0.8-0.8c-0.6,0.4-0.7,0.2-1.3,0.6c-0.5,0.1-0.9-0.1-0.8-0.2c-0.2,0.1-0.8,0-1,0.2
		c0.7,0.2,1.5,0.2,2.3-0.1C67.8,11,67.6,11.1,67.6,11.1z"/>
	<path class="st1" d="M116,13.1l-0.3-0.1C115.8,13,115.9,13,116,13.1z"/>
	<path class="st1" d="M142.4,22c-0.1-0.2-0.1-0.3-0.1-0.3C142.3,21.9,142.4,22,142.4,22z"/>
	<path class="st1" d="M142.1,26.8c0-0.1,0.1-0.2,0.1-0.3C142.1,26.6,142.1,26.7,142.1,26.8z"/>
	<path class="st1" d="M116,13.1l0.8,0.2C116.8,13.2,116.4,13.1,116,13.1z"/>
	<path class="st1" d="M74.2,10c-0.2,0-0.3,0.1-0.4,0.1C73.9,10.1,74.1,10.1,74.2,10C74.2,10,74.2,10,74.2,10z"/>
	<path class="st1" d="M102.8,12l-0.2,0c-0.1,0-0.1,0.1-0.2,0.1L102.8,12z"/>
	<path class="st1" d="M92.6,11.6c0.2,0,0.3-0.3,0.4-0.4c-0.1,0.1-0.3,0.2-0.5,0.2C92.5,11.4,92.6,11.5,92.6,11.6z"/>
	<path class="st1" d="M76.6,11.1l-0.3,0.1C76.3,11.1,76.5,11.1,76.6,11.1z"/>
	<path class="st1" d="M110,12.7c0,0,0.1,0.1,0.1,0.1C110.1,12.8,110.1,12.8,110,12.7z"/>
	<path class="st1" d="M79.7,3.9C79.7,3.9,79.7,3.9,79.7,3.9C79.8,3.9,79.8,3.9,79.7,3.9z"/>
	<path class="st1" d="M91.5,5l-0.2,0c0,0,0,0.1,0,0.2L91.5,5z"/>
	<path class="st1" d="M138.3,34.7C138.4,34.7,138.4,34.7,138.3,34.7C138.5,34.5,138.4,34.6,138.3,34.7z"/>
	<path class="st1" d="M57.4,48.9c1,0.3-1.6,0.2-0.2,0.6C57.1,49.3,58.6,49.1,57.4,48.9z"/>
	<path class="st1" d="M74.5,10l0.4,0C74.7,10,74.6,10,74.5,10z"/>
	<path class="st1" d="M57.2,49.4L57.2,49.4l0.2,0C57.3,49.5,57.3,49.5,57.2,49.4z"/>
	<path class="st1" d="M121.3,45.9c0.1,0,0.2,0,0.2,0.1C121.5,45.9,121.4,45.9,121.3,45.9z"/>
	<path class="st1" d="M135.2,39l-0.3,0.2C135.1,39.2,135.2,39.1,135.2,39z"/>
	<path class="st1" d="M113.3,48.1c-0.2,0-0.3,0-0.6,0.1c0,0,0.1,0,0.1,0C112.9,48.1,113,48.1,113.3,48.1z"/>
	<path class="st1" d="M104.7,49.3c0.1,0,0.1,0,0.2,0c0.1,0,0.2,0,0.3,0L104.7,49.3z"/>
	<path class="st1" d="M53.2,5.4c0.2,0.1,0.3,0.1,0.4,0.2C53.5,5.4,54.7,5.2,53.2,5.4z"/>
	<path class="st1" d="M74.2,10.1c0.1-0.1,0.1-0.1,0.3-0.1c-0.1,0-0.2,0-0.3,0C74.2,10.1,74.2,10.1,74.2,10.1z"/>
	<path class="st1" d="M113.3,50.3c-0.5,0.1-0.9,0.1-1.4,0.2C112.3,50.5,112.8,50.4,113.3,50.3z"/>
	<path class="st1" d="M2.4,32.8l-0.2-0.3C2.3,32.6,2.4,32.7,2.4,32.8z"/>
	<path class="st1" d="M107.8,51.2c-0.3-0.1-0.5-0.1-0.8-0.1c-0.1,0-0.1,0-0.2,0.1L107.8,51.2z"/>
	<path class="st1" d="M53.6,5.6L53.6,5.6L53.6,5.6z"/>
	<path class="st1" d="M62.7,4.3c-1.3,0.1-0.6,0.4-0.9,0.6c-1.6,0.2-0.8-0.2-1.3-0.4c-1,0.2-1.7,0.6-2.5,0.6C58,5.1,57.9,5.1,58,5
		c-1,0.4-3.1,0.2-4.3,0.7c-0.1,0-0.1,0-0.2-0.1c0.2,0.2,0.3,0.4,0.2,0.5c-0.6,0-1.1,0.3-1.3,0.1c0.4,0,0.4-0.1,0.5-0.2l-0.6,0.2
		c-0.6-0.3,0.8-0.2,0.8-0.4c-1.2,0.2-2.6,0.6-3.5,0.6C49.5,6,51.9,6,50.6,5.8l1.4,0c-1.1-0.4,0.9,0-0.2-0.5c-1.9,0.1-2.1,0.4-4,0.4
		c-0.4,0.2,0.2,0.3-0.2,0.5c-2.6,0.6-2.2-0.6-4.1,0c-0.5,0.3-0.6,0.7-2,0.7l0.4-0.4c-1.8,0.2-1,0.7-2.9,0.7c0.3-0.2,1.4-0.3,1.1-0.3
		c-1.3-0.1-0.8,0.3-1.8,0.5L38.1,7c-1.9,0.3-4,0.9-6.1,1.4C32.1,8.2,32.4,8,31.9,8c-2.7,0.7-5.7,1.2-8.4,1.8l-0.9,0.6
		c-0.2,0.1-0.5,0-0.2-0.1c-1,0.2,0,0.2-0.4,0.5c-0.5,0.2-0.8,0.1-0.5-0.1c-1.7,0.8-4.7,2.4-6.5,3l0.3-0.3c-1.4,0.6-1.2,1.3-2.6,1.8
		L13,15c-2.9,1.5-5.6,3.9-7.7,5.6c0,0.3-0.6,0.9-1.1,1.6s-0.9,1.3-0.7,1.6c-0.6,0.8-0.8,1.1-1.1,1.5c-0.2,0.4-0.6,0.9-0.9,2.4
		c-0.1,0.8,0.2,1.2,0.4,2.1l-0.3,0c0.1,0.4,0.3,0.8,0.5,1.2l-0.2,0.8c0.1,0.3,0.2,0.6,0.4,0.8c-0.1-0.3-0.1-0.8,0-0.7
		C2.8,33,3.5,34.9,3.4,35c0.7,0.8,1.4,1.6,2.2,2.3c-0.1,0-0.5-0.3-0.9-0.6c1.4,1,0,0.5,1.3,1.3C6,37.8,6.3,38,6.3,37.9
		c0.4,0.7,1.8,1.8,2.9,2.4l-0.3,0c1.9,1.3,4.1,2.4,6.5,3.4c-0.8-0.5-0.5-0.7,0.2-0.4l0.1,0.4c0.5,0-0.7-0.4,0.3-0.3
		c0.9,0.4,0.4,0.6-0.1,0.5c0.4,0.1,0.7,0.2,1.1,0.3c0,0.1-0.2,0.1-0.4,0.2c0.5,0,1.7,1,2.5,0.9l0,0.1c2.4,0.8,3.5,1,5.5,1.5
		c0.1-0.3,0.9,0,1.5-0.1c1.4,0.4,3,1,4.8,1.3c1.3,0.1,0.4-0.2,1-0.2c0,0.3,1.8,0.6,0.9,0.6c2.1,0.3,2.7,0.4,5.4,0.6
		c-0.3-0.2-0.6-0.2-0.4-0.3c0.5,0,1.1,0.3,1,0.4l-0.1,0c3,0,6.9,1.6,9.3,1.3l-0.1,0l2.5-0.1c1.1,0.1-0.7,0.1,0.1,0.4
		c2.7-0.2,4.3,0.4,6.5,0.2c1.7,0.9,6.1,0.3,8.4,0.8l-0.1-0.2c0.6-0.2,0.7,0.1,1.2,0.2c-0.1-0.1-0.6-0.2-0.3-0.3
		c5.1,0,10.4,0.6,15.7,0.8c1.9,0.1,1.1-0.9,3.5-0.5l-0.7,0.3c3.8-0.4,7.9,0,11.7-0.5c-0.2,0.1-0.2,0.2-0.6,0.2
		c0.8,0.2,2.9-0.1,2.9-0.3c0.6,0,0.2,0.2,0.5,0.3c0.8,0.1,2-0.5,2.4-0.2c0.1,0-0.2,0.1-0.4,0.1c0.5-0.1,2.4-0.2,1.9-0.4
		c1.4,0,2.7-0.4,3.8-0.3c0.7-0.4,2.4-0.2,2.6-0.6c0,0.5,2.5,0,3.4-0.4c-0.3,0.2,0.8,0,0.5,0.3c1-0.2,1.9-0.4,1.7-0.6
		c2,0.2,3.6-1.2,4.8-0.8c2.9-1,5.6-2.1,8.1-3.3c0.1,0.5-2.8,1.2-2.5,1.6c2.4-1.1,3.6-2.1,6-3.3c0.6-0.3-0.2,0.4-0.4,0.5
		c2.2-1.5,4.4-2.8,5.9-4.6c0,0-0.1,0.3-0.3,0.4c0.3-0.3,0.8-0.7,0.6-0.8l-0.3,0.4c-0.7,0.3,0.9-1.7,0.8-1.9c-0.1,1,1.6-1.7,1.4-0.2
		c0.2-0.3,0.3-0.6,0.2-0.7c0.3-0.3,0.5-0.4,0.3,0.1c0.9-1.4,0.4-1.1,1.2-2.3c0.1,0.1,0,0.3,0,0.5c0.3-0.8,0.5-1.5,1.1-2.6
		c0,0.1,0.2,0,0,0.3c0.9-2,1-3.6,1.6-6c0.3,0.8,0.3-0.8,0.6-0.9c0-0.4,0-0.9,0-1.3l-0.2,0.5c0.1-1.2-0.3-2.2-0.3-3.2
		c0.1,0.3,0.2,0.5,0.3,0.8c-0.1-0.7-0.3-1.5-0.5-2.2c0.1,0.4,0.1,0.8,0.2,1.2c-0.5-1.1-0.4,0.2-0.7-1.3c0.1,0.3-0.4-1-0.6-1.7l0,0
		c-0.4-0.4-0.9-0.8-1.4-1.4c-0.1-0.2,0.4-0.2,0.3-0.3c-0.3-0.1-0.9-0.5-1.5-0.8c-0.6-0.3-1.3-0.5-1.7-0.5c0.2,0,0.3-0.2,0.3-0.2
		c-0.2,0-0.4,0.1-0.5,0.1c-0.5-0.2-0.5-0.3-0.4-0.4c-1.5-0.5,0.4,0.6-1.4-0.1c0.1,0,0.1,0,0.4,0c-1.8-0.5-3.5-0.5-5.1-1
		c-0.4-0.5,1.5,0.2,1-0.2c-2.4-0.4-5-0.4-7.3-0.9l0.4,0.1c-0.4,0.5-1.7-0.5-2.9-0.5c0.3,0,0.4-0.2,0.3-0.2c-1.6-0.3-3.3-0.3-5.7-0.5
		l0.3-0.1c-0.9-0.2-2.5-0.4-3.5-0.6c-0.3,0.1-0.9,0-0.6,0.3c-3.1-1.1-6-0.2-8.7-1.1c0.3,0,0.8,0,0.5-0.1c-0.8,0-1.6-0.1-2.4-0.1
		c0.2,0.2,0.3,0.2,0.8,0.4c-0.3,0.1-1,0.2-1.6,0.1c1.1-0.1,0-0.4-0.4-0.5c0.1,0.1-0.1,0.1-0.1,0.2c-1.2-0.5-0.2,0.5-1.9,0.1l0.1-0.1
		c-0.7,0-1.3,0.1-1.9,0.1c-0.3-0.3,0.7-0.1,0.7-0.3c-1,0-1.9,0.4-2.8,0.1c0.4-0.1,1,0,1.4-0.1c-0.9-0.4-1.1-0.3-1.8-0.4l0.1,0
		l-1.6-0.2l0.4,0.1c-1.2,0.7-2.5,0-4.1,0.5c1.6-0.4,0.3-0.3,0.4-0.5c-0.4-0.1-1-0.2-0.9-0.3c-0.8,0.2-1.3-0.2-2.4,0.1
		c-0.1-0.1-0.8,0-0.7-0.3c-1,0.1,0.2,0.2,0.2,0.3c-1.5,0.3-3.6-0.4-5.8,0.1c-1.9,0.2-2.3,0.6-4,0.8c-0.6-0.1,0.5-0.4,0.5-0.4
		c-1-0.1-1.7-0.1-2.6,0.1c0.2-0.1,0-0.2-0.3-0.3c-0.7,0.1-0.5,0.4-1.4,0.3c0.2-0.1,0.4-0.3,0.7-0.4c-0.9,0.1-1.7,0.4-2.6,0.5
		c-0.2-0.2,0.5-0.3,0.8-0.4c-1,0.1-2.6,0.3-2.9,0.6l0.6,0.1c-0.4,0-0.2-0.2,0.1-0.3c0.8-0.3,1.2,0,1.3,0.1l-0.6,0.1
		c0.7,0.5,2.5-0.2,3.8-0.2l-0.5,0.5l1.3-0.4c0.3,0.1,0.5,0.3-0.2,0.4c0.9,0.2,0.8-0.2,1.6,0c0.1,0,0.1,0.1,0,0.1l0.9-0.1
		c-0.2,0.1,0.2,0.3-0.4,0.2c1.6,0.2,2.6-0.4,3.2-0.1l-0.1,0c2.2-0.2,0.2-0.3,1.9-0.7l1.1,0.8l0.2-0.3c0.2,0,0.7,0,0.6,0.2
		c0.8-0.2-0.2-0.1,0.3-0.3c1.1,0.3,3-0.1,3.3,0.4c0.4-0.2-1.1-0.2,0.1-0.3c0.3,0.5,1.4-0.1,2.4,0.2c-0.3,0.3-1.3,0.1-0.3,0.4
		c0.6-0.4,1.9,0.1,2.8,0.1c0.1-0.4,1.8-0.1,3.3-0.1c-0.1,0.1,2.7,0.3,4,0.5l0,0.1c0.3-0.4,1.6-0.2,2.6-0.2c-0.1,0.2-0.2,0.3-0.8,0.4
		l0.9,0.1c0.2-0.1,0.5-0.1,1.1-0.1l-0.3,0.3c1.2,0.1,2.5-0.1,4.1,0.2c0.1-0.3-1.2-0.8,0.5-0.9c0.1,0.1,0.1,0.4-0.4,0.4
		c0.2,0,0.5-0.1,0.8,0l-0.7,0.2c0.7,0.2,0.4-0.2,1-0.1c0,0.2,0.4,0.2,0.3,0.3c-0.2,0-0.5-0.1-0.7-0.1c0.7,0.1,1.4,0.3,1.7,0.5
		c-0.1-0.1,0-0.3,0.5-0.2c1.2,0.1,0.4,0.3,1.1,0.4c0.3-0.1,1.1,0.1,1.1-0.2c0.4,0,0.4,0.2,0.5,0.3c0.7-0.1,3,0.3,2.3-0.1l-0.2,0
		c0,0,0.1,0,0.1,0c0,0,0,0,0,0h0c2.1-0.1,4.3,0.7,6.4,0.9l0,0.1c1.3,0.1,2.8,0.4,3.7,0.3c0.4,0.1,0.8,0.3,0.7,0.4
		c0.9,0.1,1.1,0,2.4,0.4c-1,0,0.3,0.2-1,0c1.2,0.3,1.5,0.5,2.8,0.5c-0.5,0.2,0.9,0.5,1.4,0.5l-0.8-0.3c0.7,0.1,1.2,0.2,1.8,0.4
		l-0.4,0.3c1.2,0.4,2.4,0.5,3.4,0.6c1,0.1,2,0.3,2.6,1c0.3,0,0.1-0.1-0.2-0.3c-0.3-0.2-0.6-0.3-0.3-0.4c1.1,0.4,1.7,1.5,1.9,1.7
		c0.4,0.5,0.7,0.7,1,0.8c0.3,0.2,0.6,0.4,0.9,1.1c0-0.2,0.3-0.6,0.8,0.5c0.3,1.1-0.2,1.4-0.4,0.8c-0.1-0.3-0.1-0.4,0-0.4
		c-0.1-0.3-0.3-0.7-0.3-0.3l0.2,0.1c0.1,0.5,0.3,2,0,1.7c0.2,0.8,0.2,0.3,0.2-0.3c0,1.4,0.1,2.2-0.2,3.6c0.1-0.2,0.3-0.4,0.2-0.2
		c-0.5,2.1,0.1,1-0.2,2.5c-0.4,0.8-0.3-0.4-0.6,1c-0.4,0.8-0.4,0.1-0.3-0.3c-0.2,1.3-1.1,2.2-1.5,2.9l0.2-0.7
		c-0.1,0.4-0.3,0.7-0.5,1l0.4-0.2c-0.2,0.4-0.4,0.6-0.5,0.6c-0.1,0.5,0.5-0.1,0.3,0.8c-0.4,0.4-0.8,1.5-1.2,1.5
		c1.1-1.4-0.4,0,0.4-1.3c-0.1,0.3-0.3,0.5-0.6,0.9c-0.1,0,0-0.1,0-0.2c-1.2,1.1-0.1,0.8-1.3,2.2c0-0.3-0.5,0.1-0.7,0.3
		c0.5-0.5,0.4,0,0.1,0.5c-0.9,0.7-0.8,0.9-1.2,1.3l0.5-0.4c-0.1,0.3-0.5,0.7-1.1,1.2c-0.1-0.1,0.5-0.5,0.2-0.4
		c-0.5,0.8-1.7,1-2.6,1.8c-0.5,0.2-0.2-0.2-0.7,0c-1,0.9-1.4,0.6-2.5,1.4c0.5,0,0.5-0.1-0.3,0.6c0.7-0.4,1.3-0.8,2-1.3
		c-0.4,0.3-0.8,0.7-1.1,1c0.6-0.3,1.2-0.9,1.6-1.1c-0.5,0.5-0.5,0.5-0.1,0.5c-1,0.2-1.6,1.2-2.7,1.5l-0.2-0.5
		c-1.6,0.5-2.6,1.5-4.8,2.1l0.7-0.1c-0.2,0.3-1.3,0.5-1.9,0.8c0-0.2-0.4-0.1-0.8-0.2c0.1,0.1-1.6,0.4-1.7,0.9l-1,0
		c-1.8,0.3-1.9,1-3.6,1.3c0.5-0.3-0.3-0.3,0.8-0.7c-0.6,0.1-1.1,0.2-1.1,0.3c-0.4-0.1-1.5,0.5-2.1,0.5c-0.2,0.1-0.3,0.3-0.9,0.4
		c-0.1,0,0-0.1,0-0.1c0,0.1-1,0.3-0.4,0.4c-1.9-0.3-5,0.7-6.6,0.4c-1.3,0.2-2.8,0.4-3.9,0.5c0.1-0.1,0-0.1,0.2-0.1
		c-1.6-0.1-0.9,0.7-2.8,0.5c-0.9-0.3,0.9-0.2,0.4-0.3c-0.3-0.6-2.2,0.2-3.4-0.1l0.3,0c-0.9-0.2-2.3,0.3-3.8,0.3c0,0,0.1-0.1,0-0.1
		c-1,0.3-3,0.5-4.5,0.6c0.5-0.3,0.7-0.1,0.4-0.4c-0.7,0,0.2,0.4-1.1,0.5c-0.4-0.1-1.4-0.3-1.5-0.5l1.2,0c-0.6-0.4-1.6,0-2.3-0.1
		l0.1-0.2c-1.9,0-1.9,0.4-4,0.4l0.2,0.1c-1.1,0.4-0.9-0.2-2.1,0L78,50c-0.7,0.1-2.6,0.3-3.9,0.3c0.8-0.3,2.3-0.4,3.3-0.5
		c-0.7,0-2.5,0-2.9,0.2c0.3,0,0.7-0.1,1,0c-0.9,0.3-2.1,0.4-3.6,0.4c0.3-0.8-3.8-0.3-4.8-0.9C64.5,49.5,62,49,59,48.9
		c1,0.7-0.9,0-0.7,0.6c-0.7,0-1,0-1-0.1l-2.1-0.5c-0.5-0.2,0.7-0.1,0.6-0.2c-1.5-0.2-0.6-0.3-1.6-0.5c0.2,0.2-0.5,0.3-1.4,0.1
		l1.2,0.4c-2.2,0.2-1.8-0.6-4-0.5l0.7-0.1c-1.1,0-4-0.4-5.2,0c-0.2-0.1-0.4-0.3,0.1-0.3c-2.6-0.3-5.9-0.2-7.9-0.8l0.2-0.1
		c-0.5,0-0.9,0.2-1.5-0.1c0-0.1,0.2-0.1,0-0.2c-0.3,0-1.3,0-2-0.2l0.6-0.1c-2.5-0.6-4-0.3-6.1-0.6c0.1-0.4-1.8-1-2.8-1.3l0,0
		c-2.9-0.8-5-0.9-7.6-1.7c-1.4-1-5.2-2.4-7.3-4.1c0.3,0.3-0.2,0.3-0.7,0c-0.5-0.4-1.6-0.8-1.3-1l0.2,0.1c-0.1-0.6-1.2-1.3-1.9-2
		L7.2,36c-0.7-1.2-1.8-2.4-2.5-3.7c-0.7-1.3-1-2.6-0.7-3.3C3.9,28.5,4,27.8,4,27.2l0.3,0.1c0.5-1.5,0.8-2.2,2-4
		c0,0.1-0.1,0.3-0.1,0.5c0.7-0.9,0.3-1.7,1-2.5l0.5,0.1c0.7-0.8,1.6-1.4,2.5-2c0.5-0.3,0.9-0.6,1.3-0.9c0.4-0.3,0.9-0.6,1.3-1
		c0,0.1,0,0.2-0.3,0.4c0.8-0.6,3.5-1.7,2.9-2.1c0.2,0.3,2-1,3-1.6l-0.1,0.3c0.8-0.7,0.8-0.8,2-1.4c0.3-0.1,0.4,0.1-0.1,0.2
		c1.1-0.3,0.7-0.5,2-0.9L22,12.7c1.1-0.4,1-0.4,1.5-0.8c0.6-0.3,2.1-0.6,2.3-0.4c0.1-0.2,0.6-0.6,1.3-0.7c0.1,0.1-0.1,0.2-0.2,0.2
		c1.9-0.3,2.7-1,4-1c0,0.1,0.1,0.1,0.3,0.1c-1.5,0.3-2.7,0.6-2.6,0.5c0.1,0.2,1.3,0,0.4,0.6c0.9-0.4,2.5-1.2,3.7-1.3
		c0.1,0,0.1,0,0.2,0.1l-0.1,0.1c0.3,0,0.5-0.1,0.7-0.2c0.4,0,0.6,0,1-0.1c0.2,0.2,1.4-0.1,2-0.2c-0.1-0.3,0.7-0.4-0.1-0.5
		c0.1,0-0.1,0.1-0.5,0.1c-0.1,0-0.2,0-0.3,0.1l0,0c-0.4,0.1-0.9,0.2-1.5,0.3c0.5-0.2,0.9-0.4,1.6-0.4c0.3-0.2,0.6-0.5,0.8-0.6
		C37.4,9,39.1,9,39.3,9.2c1.8-0.4,4.4-0.6,5.5-1.3C45.3,7.8,45.4,8,45.6,8c-0.3,0.1-0.7,0.1-0.8,0.2c1-0.2,3.1-0.4,3.4-0.8
		c1.4,0-0.7,0.4,1.1,0.2l-0.2,0.1c3.7,0.3,5.8-1.4,9.9-1c-0.3,0-0.4,0-0.5-0.1c4.6,0,9.5-0.9,14-0.5c1.3,0.1,1.4-0.2,2.2-0.4L75,6.1
		l1.3-0.4c1.9-0.3,3.3,0.6,5.7,0.1l-0.3-0.2c0.9,0,2.8-0.2,2.6,0c0.1,0,0.3-0.2,0.6-0.1l0,0.2l2.1-0.3C88.8,5.4,86.9,6,89.3,6
		c0.9-0.1,2.6-0.5,2.2-0.6c-0.4,0-0.9-0.1-1-0.2L91.4,5c0.1-0.5,0.8-1-1.3-1.2l-1.4,0.3l-0.5-0.2l1.2,0c-0.7-0.2-1.1,0-1.6,0.1
		c-0.1-0.1-0.3-0.2-0.6-0.2l-1.4,0.4c-0.2-0.2,0.6-0.4-0.3-0.5c-0.6,0.2,0.6,0.4-0.4,0.6c-0.7-0.2-0.5-0.4-1.3-0.2
		c-0.1-0.1,0.1-0.2,0.4-0.3C83.5,4,82.4,4,82,4.2c-0.7-0.2-2.4,0.1-2.3-0.3c-0.2,0.1-1.2,0.4-1.9,0.4c1.2-0.6-2.4,0-2.1-0.5
		c-0.9,0.5-3.2,0.3-4.7,0.7c0.1,0,0.3-0.1,0.4-0.1c-0.9,0-1.1-0.1-1.7-0.2c-0.1,0.4-1.4,0.5-2.2,0.8c-1.1-0.3,0.6-0.5,0.3-0.8
		c0.1,0.3-1.8,0.4-1.5,0.7c-0.8-0.2-0.7-0.1-1.2-0.4c-0.1,0.5-0.8,0.1-1.4,0.5c-1.2-0.2-0.3-0.4-1.6-0.2C61.5,4.6,62.7,4.3,62.7,4.3
		z M32,8.4L32,8.4c0.3-0.1,0.5-0.1,0.6-0.1C32.5,8.3,32.3,8.4,32,8.4z M29.4,9c0.3-0.1,0.7-0.1,1.1-0.2c0.1,0.1,0,0.2-0.2,0.3
		C30.5,8.9,29.8,9,29.4,9z M35.2,9.8c-0.4,0.1-0.5,0.1-0.6,0c0.2,0,0.4-0.1,0.7-0.2c0,0,0,0,0,0C35.3,9.7,35.3,9.8,35.2,9.8z"/>
	<path class="st1" d="M35.8,9.4c0.1,0,0.1,0,0.2-0.1C35.9,9.3,35.8,9.3,35.8,9.4c-0.1,0-0.2,0-0.2,0C35.7,9.4,35.8,9.4,35.8,9.4z"/>
	<path class="st1" d="M115.6,13L115.6,13C115.6,13,115.6,13,115.6,13C115.6,12.9,115.6,13,115.6,13z"/>
	<polygon class="st1" points="1.5,29.7 1.6,29.7 1.5,29.4 	"/>
	<path class="st1" d="M101.5,10.7c0,0-0.1-0.1-0.2-0.1C101.3,10.6,101.4,10.6,101.5,10.7z"/>
	<path class="st1" d="M95.3,10.3l-0.9-0.1C94.8,10.2,95.1,10.2,95.3,10.3z"/>
	<path class="st1" d="M90.6,10c-0.1,0.1-0.1,0.1-0.1,0.1h0L90.6,10z"/>
	<path class="st1" d="M136.8,40.2c-0.1,0-0.1,0.1-0.1,0.1C136.3,40.7,136.5,40.5,136.8,40.2z"/>
	<path class="st1" d="M142.4,19.1c0.2,0.2,0.4,0.4,0.5,0.6C142.7,19.3,142.5,19.1,142.4,19.1z"/>
	<path class="st1" d="M113.5,50.3L113.5,50.3c-0.1,0-0.1,0-0.2,0L113.5,50.3z"/>
	<path class="st1" d="M143.3,20.8c-0.1-0.4-0.2-0.8-0.4-1C143,20.1,143.1,20.4,143.3,20.8z"/>
	<path class="st1" d="M70,10.2h-0.2c0,0,0,0,0,0L70,10.2z"/>
	<path class="st1" d="M69.7,10.2l-0.3,0.1C69.6,10.3,69.7,10.2,69.7,10.2z"/>
	<path class="st1" d="M69,10.4l0.5-0.1C69.3,10.3,69.1,10.3,69,10.4z"/>
	<path class="st1" d="M76.3,10L76.3,10C76.3,9.9,76.3,10,76.3,10z"/>
	<path class="st1" d="M78.2,9.9c-0.5,0-1.2-0.2-1.8-0.1l-0.1,0.1C76.7,9.8,77.8,10.1,78.2,9.9z"/>
	<path class="st1" d="M86.2,11.1l-1.6-0.1c0.3,0.1,0.6,0.3-0.1,0.3C86.5,11.7,84.1,11.1,86.2,11.1z"/>
	<path class="st1" d="M91.1,11.4c-0.9,0,0,0.2,0,0.2C91.6,11.5,91.7,11.5,91.1,11.4z"/>
	<path class="st1" d="M126.6,14.8l-0.1,0.2C127.2,15.1,126.5,14.9,126.6,14.8z"/>
	<polygon class="st1" points="133.6,14.7 133,14.4 132.6,14.6 	"/>
	<path class="st1" d="M137.1,17.3l-0.3,0c0.3,0.1,0.7,0.1,1,0.2C137.6,17.4,137.3,17.4,137.1,17.3z"/>
	<path class="st1" d="M106.2,48.9l0.2,0.3C106.9,49.1,106.9,48.7,106.2,48.9z"/>
	<path class="st1" d="M80.4,50.1c-0.3-0.2-1-0.3-1.5-0.1C79.6,50,80.1,50.1,80.4,50.1z"/>
	<path class="st1" d="M6.6,34.9L7,35.2c-0.2-0.2-0.4-0.4-0.7-0.6L6.6,34.9z"/>
</g>
</svg>
