<?xml version="1.0" encoding="utf-8"?>
<!-- Generator: Adobe Illustrator 19.1.0, SVG Export Plug-In . SVG Version: 6.00 Build 0)  -->
<svg version="1.1" id="Capa_1" xmlns="http://www.w3.org/2000/svg" xmlns:xlink="http://www.w3.org/1999/xlink" x="0px" y="0px"
	 viewBox="-176 395.9 241.8 50" style="enable-background:new -176 395.9 241.8 50;" xml:space="preserve">
<style type="text/css">
	.st0{fill:#231F20;}
	.st1{fill:#202020;}
</style>
<g>
	<path class="st0" d="M-86.7,411.5v22.6h-3.2v-15.5l-3,6.4h-1.7l-3-6.4v15.5h-3.2v-22.6h3.2l3.9,8.4l3.9-8.4H-86.7z"/>
	<path class="st0" d="M-67.4,428.2c0,3.2-2.6,5.8-5.8,5.8h-2.6c-3.2,0-5.8-2.6-5.8-5.8v-16.7h3.2v16.7c0,1.4,1.2,2.6,2.6,2.6h2.6
		c1.4,0,2.6-1.2,2.6-2.6v-16.7h3.2V428.2z"/>
	<path class="st0" d="M-59,426.8v1.3c0,1.5,1.3,2.8,2.8,2.8h2.2c1.6,0,2.8-1,2.8-2.4c0-4.5-10.6-5.4-10.6-11.5c0-3.2,2.5-5.4,6-5.4
		h1.5c3.3,0,6,2.7,6,6v1h-3.2v-1c0-1.5-1.3-2.8-2.8-2.8h-1.5c-1.7,0-2.8,0.8-2.8,2.1c0,3.4,10.6,4.7,10.6,11.5c0,3.2-2.6,5.7-6,5.7
		h-2.2c-3.3,0-6-2.7-6-6v-1.3H-59z"/>
	<path class="st0" d="M-34.1,414.7v16.1h5.5v3.2h-8.7h-5.5v-3.2h5.5v-16.1h-5.5v-3.2h8.7h5.5v3.2L-34.1,414.7L-34.1,414.7z"/>
	<path class="st0" d="M-12.5,417.3c0-1.4-1.1-2.6-2.6-2.6h-2.6c-1.4,0-2.6,1.2-2.6,2.6v10.9c0,1.4,1.2,2.6,2.6,2.6h2.6
		c1.4,0,2.6-1.2,2.6-2.6v-1.8h3.2v1.8c0,3.2-2.6,5.8-5.8,5.8h-2.6c-3.2,0-5.8-2.6-5.8-5.8v-10.9c0-3.2,2.6-5.8,5.8-5.8h2.6
		c3.2,0,5.8,2.6,5.8,5.8v1.8h-3.2V417.3z"/>
</g>
<g>
	<path class="st1" d="M-62.7,403.5c-0.2,0.1-0.1,0.3,0.4,0.2l0.3-0.3L-62.7,403.5z"/>
	<path class="st1" d="M-59.3,403.9c0.6-0.2,1.2-0.5,0.8-0.8c-0.6,0.4-0.7,0.2-1.3,0.7c-0.5,0.1-0.9-0.1-0.8-0.2
		c-0.2,0.1-0.8,0-1,0.2c0.7,0.2,1.5,0.2,2.3-0.1C-59.1,403.7-59.3,403.8-59.3,403.9z"/>
	<path class="st1" d="M-10.9,405.8l-0.3-0.1C-11.1,405.8-11,405.8-10.9,405.8z"/>
	<path class="st1" d="M15.5,414.7c-0.1-0.2-0.1-0.3-0.1-0.3C15.4,414.7,15.5,414.8,15.5,414.7z"/>
	<path class="st1" d="M15.2,419.6c0-0.1,0.1-0.2,0.1-0.3C15.2,419.4,15.2,419.5,15.2,419.6z"/>
	<path class="st1" d="M-10.9,405.8l0.8,0.2C-10.1,405.9-10.5,405.9-10.9,405.8z"/>
	<path class="st1" d="M-52.7,402.8c-0.2,0-0.3,0.1-0.4,0.1C-52.9,402.8-52.8,402.8-52.7,402.8L-52.7,402.8z"/>
	<path class="st1" d="M-24.1,404.8h-0.2c-0.1,0-0.1,0.1-0.2,0.1L-24.1,404.8z"/>
	<path class="st1" d="M-34.2,404.3c0.2,0,0.3-0.3,0.4-0.4c-0.1,0.1-0.3,0.2-0.5,0.2C-34.3,404.2-34.3,404.3-34.2,404.3z"/>
	<path class="st1" d="M-50.3,403.8l-0.3,0.1C-50.5,403.8-50.4,403.8-50.3,403.8z"/>
	<path class="st1" d="M-16.9,405.5l0.1,0.1C-16.8,405.6-16.8,405.5-16.9,405.5z"/>
	<path class="st1" d="M-47.2,396.7L-47.2,396.7C-47.1,396.7-47.1,396.7-47.2,396.7z"/>
	<path class="st1" d="M-35.4,397.7h-0.2c0,0,0,0.1,0,0.2L-35.4,397.7z"/>
	<path class="st1" d="M11.5,427.5L11.5,427.5C11.6,427.2,11.5,427.4,11.5,427.5z"/>
	<path class="st1" d="M-69.5,441.6c1,0.3-1.6,0.2-0.2,0.6C-69.8,442.1-68.3,441.9-69.5,441.6z"/>
	<path class="st1" d="M-52.4,402.8h0.4C-52.2,402.8-52.3,402.8-52.4,402.8z"/>
	<path class="st1" d="M-69.7,442.2L-69.7,442.2h0.2C-69.6,442.2-69.6,442.2-69.7,442.2z"/>
	<path class="st1" d="M-5.6,438.6c0.1,0,0.2,0,0.2,0.1C-5.4,438.7-5.5,438.7-5.6,438.6z"/>
	<path class="st1" d="M8.4,431.8L8.1,432C8.2,431.9,8.3,431.9,8.4,431.8z"/>
	<path class="st1" d="M-13.6,440.9c-0.2,0-0.3,0-0.6,0.1h0.1C-14,440.9-13.8,440.9-13.6,440.9z"/>
	<path class="st1" d="M-22.2,442c0.1,0,0.1,0,0.2,0s0.2,0,0.3,0H-22.2z"/>
	<path class="st1" d="M-73.7,398.1c0.2,0.1,0.3,0.1,0.4,0.2C-73.4,398.2-72.2,398-73.7,398.1z"/>
	<path class="st1" d="M-52.6,402.9c0.1-0.1,0.1-0.1,0.3-0.1C-52.5,402.8-52.6,402.8-52.6,402.9C-52.7,402.8-52.7,402.9-52.6,402.9z"
		/>
	<path class="st1" d="M-13.6,443.1c-0.5,0.1-0.9,0.1-1.4,0.2C-14.6,443.3-14,443.2-13.6,443.1z"/>
	<path class="st1" d="M-124.4,425.6l-0.2-0.3C-124.6,425.4-124.5,425.5-124.4,425.6z"/>
	<path class="st1" d="M-19.1,443.9c-0.3-0.1-0.5-0.1-0.8-0.1c-0.1,0-0.1,0-0.2,0.1H-19.1z"/>
	<path class="st1" d="M-73.3,398.4L-73.3,398.4L-73.3,398.4z"/>
	<path class="st1" d="M-64.2,397.1c-1.3,0.1-0.6,0.4-0.9,0.6c-1.6,0.2-0.8-0.2-1.3-0.4c-1,0.2-1.7,0.6-2.5,0.6
		c-0.1-0.1-0.2-0.1,0-0.2c-1,0.4-3.1,0.2-4.3,0.7c-0.1,0-0.1,0-0.2-0.1c0.2,0.2,0.3,0.4,0.2,0.5c-0.6,0-1.1,0.3-1.3,0.1
		c0.4,0,0.4-0.1,0.5-0.2l-0.6,0.2c-0.6-0.3,0.8-0.2,0.8-0.4c-1.2,0.2-2.6,0.6-3.5,0.6c-0.1-0.4,2.3-0.4,1-0.6h1.4
		c-1.1-0.4,0.9,0-0.2-0.5c-1.9,0.1-2.1,0.4-4,0.4c-0.3,0.3,0.3,0.3-0.1,0.6c-2.6,0.6-2.2-0.6-4.1,0c-0.5,0.3-0.6,0.7-2,0.7l0.4-0.4
		c-1.8,0.2-1,0.7-2.9,0.7c0.3-0.3,1.3-0.4,1.1-0.4c-1.3-0.1-0.8,0.3-1.8,0.5l-0.2-0.4c-1.9,0.3-4,0.9-6.2,1.4
		c0.1-0.1,0.4-0.3-0.1-0.3c-2.7,0.7-5.7,1.2-8.4,1.8l-0.9,0.6c-0.2,0.1-0.5,0-0.2-0.1c-1,0.2,0,0.2-0.4,0.5
		c-0.6,0.2-0.8,0.1-0.5-0.1c-1.7,0.8-4.7,2.4-6.5,3l0.3-0.3c-1.4,0.6-1.2,1.3-2.6,1.8l0.2-0.2c-2.9,1.5-5.6,3.9-7.7,5.6
		c0,0.3-0.6,0.9-1.1,1.6s-0.9,1.3-0.7,1.6c-0.6,0.8-0.8,1.1-1.1,1.5c-0.2,0.4-0.6,0.9-0.9,2.4c-0.1,0.8,0.2,1.2,0.4,2.1h-0.3
		c0.1,0.4,0.3,0.8,0.5,1.2l-0.2,0.8c0.1,0.3,0.2,0.6,0.4,0.8c-0.1-0.3-0.1-0.8,0-0.7c0.5,1.3,1.2,3.1,1.2,3.2
		c0.7,0.8,1.4,1.6,2.2,2.3c-0.1,0-0.5-0.3-0.9-0.6c1.4,1,0,0.5,1.3,1.3c-0.1-0.2,0.2-0.1,0.3-0.1c0.4,0.7,1.8,1.8,2.9,2.4h-0.3
		c1.8,1.3,4.2,2.4,6.5,3.4c-0.8-0.5-0.4-0.7,0.2-0.4l0.1,0.4c0.5,0-0.7-0.4,0.3-0.3c0.8,0.4,0.4,0.6-0.1,0.5
		c0.4,0.1,0.7,0.2,1.1,0.3c0,0.1-0.2,0.1-0.3,0.2c0.5,0,1.7,1,2.5,0.9v0.1c2.4,0.8,3.5,1,5.5,1.5c0.1-0.3,0.9,0,1.5-0.1
		c1.4,0.4,3,1,4.8,1.3c1.3,0.1,0.4-0.2,1-0.2c0,0.3,1.8,0.6,0.9,0.6c2.1,0.3,2.7,0.4,5.4,0.6c-0.3-0.2-0.6-0.2-0.4-0.3
		c0.5,0,1.1,0.3,1,0.4h-0.1c3,0,6.9,1.6,9.3,1.3h-0.1l2.5-0.1c1.1,0.1-0.7,0.1,0.1,0.4c2.7-0.2,4.3,0.4,6.5,0.2
		c1.7,0.9,6.1,0.3,8.4,0.8l-0.1-0.2c0.6-0.2,0.7,0.1,1.2,0.2c-0.1-0.1-0.6-0.2-0.3-0.3c5.1,0,10.4,0.6,15.7,0.8
		c1.9,0.1,1.1-0.9,3.5-0.5l-0.7,0.3c3.8-0.4,7.9,0,11.7-0.5c-0.2,0.1-0.2,0.2-0.6,0.2c0.8,0.2,2.9-0.1,2.9-0.3
		c0.6,0,0.2,0.2,0.5,0.3c0.8,0.1,2-0.5,2.4-0.2c0.1,0-0.2,0.1-0.4,0.1c0.5-0.1,2.4-0.2,1.9-0.4c1.4,0,2.7-0.4,3.8-0.3
		c0.7-0.4,2.4-0.2,2.6-0.6c0,0.5,2.5,0,3.4-0.4c-0.3,0.2,0.8,0,0.5,0.3c1-0.2,1.9-0.4,1.7-0.6c2,0.2,3.6-1.2,4.8-0.8
		c2.9-1,5.6-2.1,8.1-3.3c0.1,0.5-2.8,1.2-2.5,1.6c2.4-1.1,3.6-2.1,6-3.3c0.6-0.3-0.2,0.4-0.4,0.5c2.2-1.5,4.4-2.8,5.9-4.6
		c0,0-0.1,0.3-0.3,0.4c0.3-0.3,0.8-0.7,0.6-0.8l-0.3,0.4c-0.7,0.3,0.9-1.7,0.8-1.9c-0.1,1,1.6-1.7,1.4-0.2c0.2-0.3,0.3-0.6,0.2-0.7
		c0.3-0.3,0.5-0.4,0.3,0.1c0.9-1.4,0.4-1.1,1.2-2.3c0.1,0.1,0,0.3,0,0.5c0.3-0.8,0.5-1.5,1.1-2.6c0,0.1,0.2,0,0,0.3
		c0.9-2,1-3.6,1.6-6c0.3,0.8,0.3-0.8,0.6-0.9c0-0.4,0-0.9,0-1.3l-0.2,0.5c0.1-1.2-0.3-2.2-0.3-3.2c0.1,0.3,0.2,0.5,0.3,0.8
		c-0.1-0.7-0.3-1.5-0.5-2.1c0.1,0.4,0.1,0.8,0.2,1.2c-0.5-1.1-0.4,0.2-0.7-1.3c0.1,0.3-0.4-1-0.6-1.7l0,0c-0.4-0.4-0.9-0.8-1.4-1.4
		c-0.1-0.2,0.4-0.2,0.3-0.4c-0.3-0.1-0.9-0.5-1.5-0.8c-0.6-0.3-1.3-0.5-1.7-0.5c0.2,0,0.3-0.2,0.3-0.2c-0.2,0-0.4,0.1-0.5,0.1
		c-0.5-0.2-0.5-0.3-0.4-0.4c-1.5-0.5,0.4,0.6-1.4-0.1c0.1,0,0.1,0,0.4,0c-1.8-0.5-3.5-0.5-5.1-1c-0.4-0.5,1.5,0.2,1-0.2
		c-2.4-0.4-5-0.4-7.3-0.9l0.4,0.1c-0.7,0.5-1.9-0.5-3.2-0.4c0.3,0,0.4-0.2,0.3-0.2c-1.6-0.3-3.3-0.3-5.7-0.5l0.3-0.1
		c-0.9-0.2-2.5-0.4-3.5-0.6c-0.3,0.1-0.9,0-0.6,0.3c-3.1-1.1-6-0.2-8.7-1.1c0.3,0,0.8-0.1,0.5-0.1c-0.8,0-1.6-0.1-2.4-0.1
		c0.3,0.3,0.5,0.3,1,0.5c-0.3,0.1-1,0.2-1.6,0.1c1.1-0.1,0-0.4-0.4-0.5c0.1,0.1-0.1,0.1-0.1,0.2c-1.2-0.5-0.2,0.4-1.9,0.1l0.1-0.1
		c-0.7,0-1.3,0.1-1.9,0.1c-0.3-0.3,0.7-0.1,0.7-0.3c-1,0-1.9,0.4-2.8,0.1c0.4-0.1,1,0,1.4-0.1c-0.9-0.4-1.1-0.3-1.8-0.4h0.1
		l-1.6-0.2l0.4,0.1c-1.2,0.7-2.5,0-4.1,0.5c1.6-0.4,0.3-0.3,0.4-0.6c-0.4-0.1-1-0.2-0.9-0.3c-0.7,0.2-1.2-0.2-2.3,0.1
		c-0.1-0.1-0.8,0-0.7-0.3c-1,0.1,0.2,0.2,0.2,0.3c-1.5,0.3-3.6-0.4-5.8,0.1c-1.9,0.2-2.3,0.6-4,0.8c-0.6-0.1,0.5-0.4,0.5-0.4
		c-1-0.1-1.7-0.1-2.6,0.1c0.2-0.1,0-0.2-0.3-0.3c-0.7,0.1-0.5,0.4-1.4,0.3c0.2-0.1,0.4-0.3,0.7-0.4c-0.9,0.1-1.7,0.3-2.6,0.5
		c-0.2-0.2,0.5-0.3,0.8-0.4c-1,0.1-2.6,0.3-2.9,0.6l0.6,0.1c-0.4,0-0.2-0.2,0.1-0.3c0.8-0.3,1.2,0,1.3,0.1l-0.6,0.1
		c0.7,0.5,2.5-0.2,3.8-0.2l-0.5,0.5l1.3-0.4c0.3,0.1,0.5,0.3-0.2,0.4c0.9,0.2,0.8-0.2,1.6,0c0.1,0,0.1,0.1,0,0.1l0.8-0.3
		c-0.2,0.1,0.2,0.3-0.4,0.3c1.6,0.2,2.6-0.4,3.2-0.1h-0.1c2.2-0.2,0.2-0.3,1.9-0.7l1.1,0.8l0.2-0.3c0.2,0,0.7,0,0.6,0.2
		c0.8-0.2-0.2-0.1,0.3-0.3c1.1,0.3,3-0.1,3.3,0.4c0.4-0.2-1.1-0.2,0.1-0.3c0.3,0.5,1.4-0.1,2.4,0.2c-0.3,0.3-1.3,0.1-0.3,0.4
		c0.6-0.4,1.9,0.1,2.8,0.1c0.1-0.4,1.8-0.1,3.3-0.1c-0.1,0.1,2.7,0.3,4,0.5v0.1c0.3-0.7,1.6-0.5,2.6-0.5c0,0.2-0.2,0.3-0.8,0.3
		l0.9,0.1c0.3-0.1,0.6-0.1,1.2-0.2l-0.3,0.3c1.2,0.1,2.5-0.1,4.1,0.2c0.1-0.3-1.2-0.8,0.5-0.9c0.1,0.1,0.1,0.4-0.4,0.4
		c0.2,0,0.5-0.1,0.8,0l-0.7,0.2c0.7,0.2,0.4-0.2,1-0.1c0,0.2,0.4,0.2,0.3,0.3c-0.2,0-0.5-0.1-0.7-0.1c0.7,0.1,1.4,0.3,1.7,0.5
		c-0.1-0.1,0-0.3,0.5-0.2c1.2,0.1,0.4,0.3,1.1,0.4c0.3-0.1,1.1,0.1,1.1-0.2c0.4,0,0.4,0.2,0.5,0.3c0.7-0.1,3,0.3,2.3-0.1h-0.2h0.1
		l0,0l0,0c2.1-0.1,4.3,0.7,6.4,0.9v0.1c1.3,0.1,2.8,0.4,3.7,0.3c0.4,0.1,0.8,0.3,0.7,0.4c0.9,0.1,1.1,0,2.4,0.4c-1,0,0.3,0.2-1,0
		c1.2,0.3,1.5,0.5,2.8,0.5c-0.4,0.2,1,0.5,1.6,0.5l-0.8-0.3c0.7,0.1,1.2,0.2,1.8,0.4l-0.4,0.3c1.2,0.4,2.4,0.5,3.4,0.6s2,0.3,2.6,1
		c0.3,0,0.1-0.1-0.2-0.3c-0.3-0.2-0.6-0.3-0.3-0.4c1.1,0.4,1.7,1.5,1.9,1.7c0.4,0.5,0.7,0.7,1,0.8c0.3,0.2,0.6,0.4,0.9,1.1
		c0-0.2,0.3-0.6,0.8,0.5c0.3,1.1-0.2,1.4-0.4,0.8c-0.1-0.3-0.1-0.4,0-0.4c-0.1-0.3-0.3-0.7-0.3-0.3l0.2,0.1c0.1,0.5,0.3,2,0,1.7
		c0.2,0.8,0.2,0.3,0.2-0.3c0,1.4,0.1,2.2-0.2,3.6c0.1-0.2,0.3-0.4,0.2-0.2c-0.5,2.1,0.1,1-0.2,2.5c-0.4,0.8-0.3-0.4-0.6,1
		c-0.4,0.8-0.4,0.1-0.3-0.3c-0.2,1.3-1.1,2.2-1.5,2.9l0.2-0.7c-0.1,0.4-0.3,0.7-0.5,1l0.4-0.2c-0.2,0.4-0.4,0.6-0.5,0.6
		c-0.1,0.4,0.5-0.1,0.3,0.8c-0.4,0.4-0.8,1.5-1.2,1.5c1.1-1.4-0.4,0,0.4-1.3c-0.1,0.3-0.3,0.5-0.6,0.8c-0.1,0,0-0.1,0-0.2
		c-1.2,1.1-0.1,0.8-1.3,2.2c0-0.3-0.5,0.1-0.7,0.3c0.5-0.5,0.4,0,0.1,0.5c-0.9,0.7-0.8,0.9-1.2,1.3l0.5-0.4
		c-0.1,0.3-0.5,0.7-1.1,1.2c-0.1-0.1,0.5-0.5,0.2-0.4c-0.5,0.8-1.7,1-2.6,1.8c-0.5,0.2-0.2-0.2-0.7,0c-1,0.9-1.4,0.6-2.5,1.4
		c0.5,0,0.5-0.1-0.3,0.6c0.7-0.4,1.3-0.8,2-1.3c-0.4,0.3-0.8,0.7-1.1,1c0.6-0.3,1.2-0.9,1.6-1.1c-0.5,0.5-0.5,0.5-0.1,0.5
		c-1,0.2-1.6,1.2-2.7,1.5l-0.2-0.5c-1.6,0.5-2.6,1.5-4.8,2.1l0.7-0.1c-0.2,0.3-1.3,0.5-1.9,0.8c0-0.2-0.4-0.1-0.8-0.2
		c0.1,0.1-1.6,0.4-1.7,0.9h-1c-1.8,0.3-1.9,1-3.6,1.3c0.5-0.3-0.3-0.3,0.8-0.7c-0.6,0.1-1.1,0.2-1.1,0.3c-0.4-0.1-1.5,0.5-2.1,0.5
		c-0.2,0.1-0.3,0.3-0.9,0.4c-0.1,0,0-0.1,0-0.1c0,0.1-1,0.3-0.4,0.4c-1.9-0.3-5,0.7-6.6,0.4c-1.3,0.2-2.8,0.4-3.9,0.5
		c0.1-0.1,0-0.1,0.2-0.1c-1.6-0.1-0.9,0.7-2.8,0.5c-0.8-0.3,1.1-0.2,0.5-0.3c-0.3-0.6-2.2,0.2-3.4-0.1h0.3c-0.9-0.2-2.3,0.3-3.8,0.3
		c0,0,0.1-0.1,0-0.1c-1,0.3-3,0.5-4.5,0.6c0.5-0.3,0.7-0.1,0.4-0.4c-0.7,0,0.2,0.4-1.1,0.5c-0.4-0.1-1.4-0.3-1.5-0.5h1.2
		c-0.6-0.4-1.6,0-2.3-0.1l0.1-0.2c-1.9,0-1.9,0.4-4,0.4l0.2,0.1c-1.1,0.4-0.9-0.2-2.1,0l-0.3-0.4c-0.7,0.1-2.6,0.3-3.9,0.3
		c0.8-0.3,2.3-0.4,3.3-0.5c-0.7,0-2.5,0-2.9,0.2c0.3,0,0.7-0.1,1,0c-0.9,0.3-2.1,0.4-3.6,0.4c0.3-0.8-3.8-0.3-4.8-0.9
		c-2.6,0.2-5.1-0.3-8.1-0.4c1,0.7-0.9,0-0.7,0.6c-0.7,0-1,0-1-0.1l-2.1-0.5c-0.5-0.2,0.7-0.1,0.6-0.2c-1.5-0.2-0.6-0.3-1.6-0.5
		c0.2,0.2-0.5,0.3-1.4,0.1l1.2,0.4c-2.2,0.2-1.8-0.6-4-0.5l0.7-0.1c-1.1,0-4-0.4-5.2,0c-0.2-0.1-0.4-0.3,0.1-0.3
		c-2.6-0.3-5.9-0.2-7.9-0.8l0.2-0.1c-0.5,0-0.9,0.2-1.5-0.1c0-0.1,0.2-0.1,0-0.2c-0.3,0-1.3,0-2-0.2l0.6-0.1c-2.5-0.6-4-0.3-6.1-0.6
		c0.1-0.4-1.8-1-2.8-1.3h0.1c-2.9-0.8-5-0.9-7.6-1.7c-1.4-1-5.2-2.4-7.3-4.1c0.3,0.3-0.2,0.3-0.7,0c-0.5-0.4-1.6-0.8-1.3-1l0.2,0.1
		c-0.2-0.6-1.2-1.3-1.9-2l-0.5,0.3c-0.7-1.2-1.8-2.4-2.5-3.7c-0.7-1.3-1-2.6-0.7-3.3c-0.2-0.6-0.1-1.3-0.1-1.9l0.3,0.1
		c0.5-1.5,0.8-2.2,2-4c0,0.1-0.1,0.3-0.1,0.5c0.7-0.9,0.3-1.7,1-2.5l0.5,0.1c0.8-0.8,1.6-1.4,2.5-2c0.4-0.3,0.9-0.6,1.3-0.9
		s0.9-0.6,1.3-1c0,0.1,0,0.2-0.3,0.4c0.8-0.6,3.5-1.7,2.9-2.1c0.2,0.3,2-1,3-1.6l-0.1,0.3c0.8-0.7,0.8-0.8,2-1.4
		c0.3-0.1,0.4,0.1-0.1,0.2c1.1-0.3,0.7-0.5,2-0.9l-0.4,0.3c1.1-0.4,1-0.4,1.5-0.8c0.7-0.3,2.1-0.6,2.3-0.4c0.1-0.2,0.7-0.6,1.3-0.7
		c0.1,0.1-0.1,0.2-0.2,0.2c1.9-0.3,2.7-1,4-1c0,0.1,0.1,0.1,0.3,0.1c-1.5,0.3-2.7,0.6-2.6,0.5c0.1,0.2,1.3,0,0.4,0.6
		c0.9-0.4,2.5-1.2,3.7-1.3c0.1,0,0.1,0,0.2,0.1l-0.1,0.1c0.3,0,0.5-0.1,0.7-0.2c0.4,0,0.6,0,1-0.1c0.2,0.2,1.4-0.1,2-0.2
		c-0.1-0.3,0.7-0.3-0.1-0.5c0.1,0-0.1,0-0.5,0.1c-0.1,0-0.2,0-0.3,0.1l0,0c-0.4,0.1-0.9,0.2-1.5,0.3c0.5-0.2,0.9-0.4,1.6-0.4
		c0.3-0.2,0.6-0.5,0.8-0.6c1.3,0.2,3,0.2,3.2,0.4c1.8-0.4,4.4-0.6,5.5-1.3c0.5-0.1,0.6,0.1,0.8,0.1c-0.3,0.1-0.7,0.1-0.8,0.2
		c1-0.3,3.1-0.4,3.4-0.8c1.4,0-0.7,0.4,1.1,0.2l-0.2,0.1c3.7,0.3,5.8-1.4,9.9-1c-0.3,0-0.4,0-0.5-0.1c4.6,0,9.5-0.9,14-0.5
		c1.3,0.1,1.4-0.2,2.2-0.4l0.3,0.3l1.3-0.4c1.9-0.3,3.3,0.6,5.7,0.1l-0.3-0.2c0.9,0,2.8-0.2,2.6,0c0.1,0,0.3-0.2,0.6-0.1v0.2
		l2.1-0.3c1.7,0.1-0.2,0.6,2.2,0.6c1,0.1,2.7-0.4,2.3-0.5c-0.4,0-0.9-0.1-1-0.2l0.9-0.1c0.1-0.5,0.8-1-1.3-1.2l-1.4,0.3l-0.4-0.2
		h1.2c-0.7-0.2-1.1,0-1.6,0.1c-0.1-0.1-0.3-0.2-0.6-0.2L-41,397c-0.2-0.2,0.6-0.4-0.3-0.5c-0.6,0.2,0.6,0.4-0.4,0.6
		c-0.7-0.2-0.5-0.4-1.3-0.2c-0.1-0.1,0.1-0.2,0.4-0.3c-0.7,0.2-1.9,0.1-2.2,0.4c-0.7-0.2-2.4,0.1-2.3-0.3c-0.2,0.1-1.2,0.4-1.9,0.4
		c1.2-0.6-2.4,0-2.1-0.5c-0.9,0.5-3.2,0.3-4.7,0.7c0.1,0,0.3-0.1,0.4-0.1c-0.9,0-1.1-0.1-1.7-0.2c-0.1,0.4-1.4,0.5-2.2,0.8
		c-1.1-0.3,0.6-0.5,0.3-0.8c0.1,0.3-1.8,0.4-1.5,0.7c-0.8-0.2-0.7-0.1-1.2-0.4c-0.1,0.4-0.7,0-1.4,0.4c-1.2-0.2-0.3-0.4-1.6-0.2
		C-65.3,397.3-64.2,397.1-64.2,397.1z M-94.9,401.2L-94.9,401.2c0.3-0.1,0.5-0.1,0.6-0.1C-94.4,401.1-94.6,401.1-94.9,401.2z
		 M-97.4,401.7c0.3-0.1,0.7-0.2,1.1-0.2c0.1,0.1,0,0.2-0.2,0.3C-96.4,401.6-97,401.7-97.4,401.7z M-91.7,402.6
		c-0.4,0.1-0.5,0.1-0.6,0c0.2,0,0.4-0.1,0.7-0.1l0,0C-91.6,402.5-91.6,402.6-91.7,402.6z"/>
	<path class="st1" d="M-91,402.1c0.1,0,0.1,0,0.2-0.1C-91,402.1-91.1,402.1-91,402.1c-0.1,0-0.2,0-0.2,0S-91.1,402.1-91,402.1z"/>
	<path class="st1" d="M-11.3,405.7L-11.3,405.7L-11.3,405.7L-11.3,405.7z"/>
	<polygon class="st1" points="-125.4,422.5 -125.3,422.5 -125.4,422.2 	"/>
	<path class="st1" d="M-25.4,403.4c0,0-0.1-0.1-0.2-0.1C-25.6,403.4-25.5,403.4-25.4,403.4z"/>
	<path class="st1" d="M-31.6,403l-0.9-0.1C-32,403-31.8,403-31.6,403z"/>
	<path class="st1" d="M-36.3,402.7c-0.1,0.1-0.1,0.1-0.1,0.1l0,0L-36.3,402.7z"/>
	<path class="st1" d="M9.9,433c-0.1,0-0.1,0.1-0.1,0.1C9.4,433.4,9.6,433.2,9.9,433z"/>
	<path class="st1" d="M15.5,411.9c0.2,0.2,0.4,0.4,0.5,0.6C15.8,412.1,15.6,411.8,15.5,411.9z"/>
	<path class="st1" d="M-13.4,443.1L-13.4,443.1c-0.1,0-0.1,0-0.2,0H-13.4z"/>
	<path class="st1" d="M16.4,413.5c-0.1-0.4-0.2-0.8-0.4-1C16.1,412.8,16.3,413.2,16.4,413.5z"/>
	<path class="st1" d="M-56.9,402.9h-0.2c0,0,0,0,0,0.1L-56.9,402.9z"/>
	<path class="st1" d="M-57.1,403h-0.3C-57.3,403-57.2,403-57.1,403z"/>
	<path class="st1" d="M-57.9,403.1l0.5-0.1C-57.6,403-57.8,403-57.9,403.1z"/>
	<path class="st1" d="M-50.6,402.8l0.1-0.1C-50.6,402.7-50.6,402.7-50.6,402.8z"/>
	<path class="st1" d="M-48.7,402.7c-0.5,0-1.2-0.2-1.8-0.1v0.1C-50.2,402.5-49.1,402.9-48.7,402.7z"/>
	<path class="st1" d="M-40.7,403.9l-1.6-0.1c0.3,0.1,0.6,0.3-0.1,0.3C-40.4,404.4-42.8,403.9-40.7,403.9z"/>
	<path class="st1" d="M-35.8,404.1c-0.9,0,0,0.2,0,0.2C-35.3,404.3-35.1,404.3-35.8,404.1z"/>
	<path class="st1" d="M-0.3,407.5l-0.1,0.2C0.3,407.8-0.4,407.7-0.3,407.5z"/>
	<polygon class="st1" points="6.7,407.5 6.1,407.2 5.7,407.3 	"/>
	<path class="st1" d="M10.2,410.1H9.9c0.3,0.1,0.7,0.1,1,0.2C10.7,410.2,10.4,410.2,10.2,410.1z"/>
	<path class="st1" d="M-20.7,441.6l0.2,0.3C-20,441.8-19.9,441.5-20.7,441.6z"/>
	<path class="st1" d="M-46.4,442.9c-0.3-0.2-1-0.3-1.5-0.1C-47.3,442.7-46.7,442.9-46.4,442.9z"/>
	<path class="st1" d="M-120.3,427.7l0.4,0.3c-0.2-0.2-0.5-0.4-0.7-0.6L-120.3,427.7z"/>
</g>
</svg>
