<?xml version="1.0" encoding="utf-8"?>
<!-- Generator: Adobe Illustrator 24.1.2, SVG Export Plug-In . SVG Version: 6.00 Build 0)  -->
<svg version="1.1" id="Capa_1" xmlns="http://www.w3.org/2000/svg" xmlns:xlink="http://www.w3.org/1999/xlink" x="0px" y="0px"
	 viewBox="0 0 241.79 50" style="enable-background:new 0 0 241.79 50;" xml:space="preserve">
<style type="text/css">
	.st0{fill:#231F20;}
</style>
<g>
	<path class="st0" d="M89.29,15.6v22.57h-3.22V22.7l-3,6.38h-1.74l-3-6.38v15.48H75.1V15.6h3.22l3.87,8.42l3.87-8.42H89.29z"/>
	<path class="st0" d="M108.64,32.34c0,3.19-2.61,5.84-5.8,5.84h-2.58c-3.22,0-5.8-2.64-5.8-5.84V15.6h3.22v16.73
		c0,1.42,1.16,2.58,2.58,2.58h2.58c1.42,0,2.58-1.16,2.58-2.58V15.6h3.22V32.34z"/>
	<path class="st0" d="M117.02,30.89v1.29c0,1.52,1.26,2.77,2.77,2.77h2.16c1.64,0,2.81-1.03,2.81-2.45
		c0-4.45-10.64-5.42-10.64-11.54c0-3.16,2.48-5.35,6-5.35h1.52c3.32,0,6.03,2.68,6.03,6v0.97h-3.22V21.6c0-1.55-1.26-2.77-2.8-2.77
		h-1.52c-1.74,0-2.77,0.81-2.77,2.13c0,3.42,10.64,4.74,10.64,11.54c0,3.22-2.61,5.68-6.03,5.68h-2.16c-3.32,0-6-2.68-6-6v-1.29
		H117.02z"/>
	<path class="st0" d="M141.85,18.83v16.12h5.48v3.22h-8.71h-5.48v-3.22h5.48V18.83h-5.48V15.6h8.71h5.48v3.22H141.85z"/>
	<path class="st0" d="M163.46,21.41c0-1.45-1.13-2.58-2.58-2.58h-2.58c-1.45,0-2.58,1.16-2.58,2.58v10.93
		c0,1.42,1.16,2.58,2.58,2.58h2.58c1.42,0,2.58-1.16,2.58-2.58v-1.77h3.22v1.77c0,3.19-2.58,5.84-5.8,5.84h-2.58
		c-3.19,0-5.8-2.64-5.8-5.84V21.41c0-3.22,2.61-5.8,5.8-5.8h2.58c3.22,0,5.8,2.58,5.8,5.8v1.77h-3.22V21.41z"/>
</g>
</svg>
