<?xml version="1.0" encoding="utf-8"?>
<!-- Generator: Adobe Illustrator 19.1.0, SVG Export Plug-In . SVG Version: 6.00 Build 0)  -->
<svg version="1.1" id="Layer_1" xmlns="http://www.w3.org/2000/svg" xmlns:xlink="http://www.w3.org/1999/xlink" x="0px" y="0px"
	 viewBox="0 0 288.5 55" style="enable-background:new 0 0 288.5 55;" xml:space="preserve">
<style type="text/css">
	.st0{fill:#202020;}
</style>
<g>
	<path d="M33,19.4v2.4c0,4-3.2,7.2-7.2,7.2h-6.4v11.2h-4v-28h4h6.4C29.8,12.2,33,15.4,33,19.4z M29,19.4c0-1.8-1.4-3.2-3.2-3.2h-6.4
		V25h6.4c1.8,0,3.2-1.4,3.2-3.2V19.4z"/>
	<path d="M57,32.9c0,4-3.2,7.2-7.2,7.2h-3.2c-4,0-7.2-3.3-7.2-7.2V12.2h4v20.8c0,1.8,1.4,3.2,3.2,3.2h3.2c1.8,0,3.2-1.4,3.2-3.2
		V12.2h4V32.9z"/>
	<path d="M67.4,16.2v7.3h12v4h-12v8.7H81v4H63.4V27.5V16.2v-4H81v4H67.4z"/>
	<path d="M99.7,28.7l5.2,11.5h-4.4L95.5,29h-4.1v11.2h-4v-28h4h6.4c4,0,7.2,3.2,7.2,7.2v2.4C105,25.1,102.8,27.9,99.7,28.7z
		 M101,19.4c0-1.8-1.4-3.2-3.2-3.2h-6.4V25h6.4c1.8,0,3.2-1.4,3.2-3.2V19.4z"/>
	<path d="M129,16.2h-6.8v24h-4v-24h-6.8v-4h10.8h6.8V16.2z"/>
	<path d="M142.6,40.2c-4,0-7.2-3.3-7.2-7.2V19.4c0-4,3.2-7.2,7.2-7.2h3.2c4,0,7.2,3.2,7.2,7.2v13.6c0,4-3.2,7.2-7.2,7.2H142.6z
		 M149,32.9V19.4c0-1.8-1.4-3.2-3.2-3.2h-3.2c-1.8,0-3.2,1.4-3.2,3.2v13.6c0,1.8,1.4,3.2,3.2,3.2h3.2C147.5,36.1,149,34.7,149,32.9z
		"/>
	<path d="M195.7,28.7l5.2,11.5h-4.4L191.5,29h-4.1v11.2h-4v-28h4h6.4c4,0,7.2,3.2,7.2,7.2v2.4C201,25.1,198.8,27.9,195.7,28.7z
		 M197,19.4c0-1.8-1.4-3.2-3.2-3.2h-6.4V25h6.4c1.8,0,3.2-1.4,3.2-3.2V19.4z"/>
	<path d="M218.2,16.2v20h6.8v4h-10.8h-6.8v-4h6.8v-20h-6.8v-4h10.8h6.8v4H218.2z"/>
	<path d="M245,19.4c0-1.8-1.4-3.2-3.2-3.2h-3.2c-1.8,0-3.2,1.4-3.2,3.2v13.6c0,1.8,1.4,3.2,3.2,3.2h3.2c1.8,0,3.2-1.4,3.2-3.2v-2.2
		h4v2.2c0,4-3.2,7.2-7.2,7.2h-3.2c-4,0-7.2-3.3-7.2-7.2V19.4c0-4,3.2-7.2,7.2-7.2h3.2c4,0,7.2,3.2,7.2,7.2v2.2h-4V19.4z"/>
	<path d="M262.6,40.2c-4,0-7.2-3.3-7.2-7.2V19.4c0-4,3.2-7.2,7.2-7.2h3.2c4,0,7.2,3.2,7.2,7.2v13.6c0,4-3.2,7.2-7.2,7.2H262.6z
		 M269,32.9V19.4c0-1.8-1.4-3.2-3.2-3.2h-3.2c-1.8,0-3.2,1.4-3.2,3.2v13.6c0,1.8,1.4,3.2,3.2,3.2h3.2C267.5,36.1,269,34.7,269,32.9z
		"/>
</g>
<g>
	<path class="st0" d="M284.2,46.9c0.1-0.1,0.1-0.3-0.4-0.2l-0.3,0.3L284.2,46.9z"/>
	<path class="st0" d="M281.4,46.3c-0.5,0.2-1,0.5-0.7,0.8c0.5-0.3,0.6-0.2,1.1-0.6c0.4-0.1,0.7,0.1,0.6,0.2c0.1-0.1,0.6,0.1,0.8-0.2
		c-0.5-0.2-1.2-0.2-1.9,0C281.2,46.5,281.4,46.4,281.4,46.3z"/>
	<path class="st0" d="M241.7,47l0.3,0C241.9,47,241.8,47,241.7,47z"/>
	<path class="st0" d="M217.1,47.4c0.2,0,0.3,0,0.3-0.1C217.2,47.4,217.1,47.4,217.1,47.4z"/>
	<path class="st0" d="M212.9,47.1c0.1,0,0.2,0,0.2,0C213.1,47.1,213,47.1,212.9,47.1z"/>
	<path class="st0" d="M241.7,47l-0.7-0.1C241,47.1,241.4,47,241.7,47z"/>
	<path class="st0" d="M276,47.3c0.1,0,0.3-0.1,0.4-0.1L276,47.3C276,47.3,276,47.3,276,47.3z"/>
	<path class="st0" d="M252.5,46.5l0.2,0c0.1,0,0.1-0.1,0.2-0.1L252.5,46.5z"/>
	<path class="st0" d="M260.9,46.2c-0.2,0-0.2,0.3-0.3,0.4c0.1-0.1,0.2-0.2,0.4-0.2C261,46.3,260.9,46.3,260.9,46.2z"/>
	<path class="st0" d="M274.1,46.2l0.2,0C274.2,46.2,274.1,46.2,274.1,46.2z"/>
	<path class="st0" d="M246.6,46.6C246.6,46.5,246.5,46.5,246.6,46.6C246.5,46.5,246.5,46.5,246.6,46.6z"/>
	<path class="st0" d="M13.8,48.6C13.8,48.6,13.8,48.6,13.8,48.6C13.7,48.6,13.7,48.6,13.8,48.6z"/>
	<path class="st0" d="M4.2,47l0.1,0c0-0.1,0-0.1,0-0.2L4.2,47z"/>
	<path class="st0" d="M205.2,46.9C205.2,46.9,205.2,46.9,205.2,46.9C205.4,46.9,205.3,46.9,205.2,46.9z"/>
	<path class="st0" d="M134.7,47.8c0.8,0.3-1.3,0.3-0.1,0.6C134.4,48.3,135.7,47.9,134.7,47.8z"/>
	<path class="st0" d="M275.8,47.3l-0.3,0C275.6,47.3,275.7,47.3,275.8,47.3z"/>
	<path class="st0" d="M134.6,48.4L134.6,48.4l0.1,0C134.6,48.4,134.6,48.4,134.6,48.4z"/>
	<path class="st0" d="M187.5,47.3c0,0,0.1,0.1,0.2,0.1C187.7,47.4,187.6,47.4,187.5,47.3z"/>
	<path class="st0" d="M200.7,47.6l-0.3,0C200.5,47.5,200.6,47.6,200.7,47.6z"/>
	<path class="st0" d="M180.7,47.8c-0.2,0-0.2-0.1-0.5,0c0,0,0,0,0.1,0C180.3,47.8,180.5,47.8,180.7,47.8z"/>
	<path class="st0" d="M173.5,47.9c0,0,0.1,0,0.1,0.1c0.1,0,0.2,0,0.2,0L173.5,47.9z"/>
	<path class="st0" d="M35.4,49c-0.2-0.1-0.2-0.2-0.3-0.3C35.2,49,34.2,49,35.4,49z"/>
	<path class="st0" d="M276,47.2c0,0.1-0.1,0.1-0.2,0.1c0.1,0,0.2,0,0.2,0C276,47.2,276,47.2,276,47.2z"/>
	<path class="st0" d="M180.4,50.1l-1.1,0C179.6,50.1,180,50.1,180.4,50.1z"/>
	<path class="st0" d="M86.6,49.8l-0.3,0C86.5,49.9,86.6,49.9,86.6,49.8z"/>
	<path class="st0" d="M175.9,50.1c-0.2-0.1-0.4-0.2-0.6-0.2c0,0-0.1,0-0.1,0.1L175.9,50.1z"/>
	<path class="st0" d="M35.1,48.8L35.1,48.8L35.1,48.8z"/>
	<path class="st0" d="M27.6,49.3c1.1,0,0.5-0.3,0.8-0.6c1.3-0.1,0.6,0.3,1,0.5c0.8-0.1,1.4-0.4,2-0.4c0,0.1,0.2,0.1,0,0.2
		c0.9-0.3,2.5,0,3.5-0.3c0.1,0,0.1,0.1,0.1,0.1c-0.2-0.2-0.2-0.4-0.1-0.5c0.5,0,0.9-0.2,1.1,0c-0.3,0-0.3,0.1-0.5,0.2l0.5-0.1
		c0.4,0.4-0.7,0.1-0.7,0.4c1-0.1,2.2-0.3,2.9-0.2c0.2,0.3-1.8,0.1-0.8,0.4l-1.2-0.2c0.9,0.6-0.7-0.1,0.1,0.5c1.5,0.1,1.7-0.1,3.3,0
		c0.4-0.2-0.1-0.3,0.2-0.5c2.2-0.3,1.7,0.9,3.3,0.5c0.4-0.2,0.6-0.6,1.7-0.4l-0.4,0.4c1.5,0.1,0.9-0.5,2.4-0.2
		c-0.3,0.1-1.2,0.1-1,0.2c1,0.3,0.7-0.2,1.5-0.2l0.2,0.3c1.6,0,3.3-0.2,5.1-0.3c-0.1,0.1-0.4,0.2,0,0.3c2.2-0.1,4.7,0.1,6.9,0.4
		l0.8-0.3c0.2,0,0.4,0.1,0.1,0.2c0.8,0.1,0-0.2,0.4-0.3c0.5,0,0.6,0.2,0.3,0.3c1.5-0.2,4.2-0.5,5.8-0.1L67,49.6
		c1.2,0.1,1.4-0.6,2.5-0.3l-0.2,0c2.6,0.2,5.5-0.1,7.5,0.4c0.4-0.4,2.6,0.2,2.8-0.4c1.5,0.3,1.1,0.4,3.2,0.6c0.6,0,0.8-0.4,1.5-0.4
		l0,0.3l0.9-0.3l0.5,0.4l0.7-0.1c-0.3,0-0.6-0.1-0.5-0.2c1-0.1,2.5,0.2,2.5,0.4l2.4-0.2C90.7,49.9,90.3,50,90,50
		c1.3-0.3,0.2,0.3,1.4,0.1c-0.2-0.1,0.1-0.2,0.1-0.2c0.6,0.2,1.9,0.2,2.9,0.1l-0.2,0.2c1.8,0.1,3.8-0.1,5.8-0.1
		c-0.7-0.1-0.6-0.5,0-0.5l0.2,0.3c0.4-0.2-0.6-0.1,0.2-0.4c0.8,0,0.5,0.4,0.1,0.5l0.9-0.1c0.1,0.1-0.2,0.1-0.2,0.3
		c0.4-0.2,1.6,0.3,2.1,0l0.1,0.1c2,0,2.9-0.1,4.6-0.1c0-0.3,0.7-0.2,1.2-0.4c1.2,0.1,2.5,0.3,4,0.3c1-0.1,0.3-0.2,0.8-0.4
		c0.1,0.3,1.5,0.2,0.8,0.4c1.7,0,2.2,0,4.4-0.2c-0.2-0.1-0.5-0.2-0.4-0.2c0.4,0,0.9,0.1,0.9,0.2l-0.1,0c2.5-0.4,5.7,0.8,7.7,0.2
		l-0.1,0l2-0.3c0.9,0-0.6,0.2,0.1,0.4c2.2-0.4,3.5,0.1,5.3-0.2c1.4,0.8,5-0.1,6.9,0.4l-0.1-0.2c0.5-0.2,0.6,0.1,1,0.1
		c-0.1-0.1-0.5-0.2-0.2-0.3c4.1-0.2,8.6,0.2,12.8,0.4c1.6,0,0.9-0.9,2.8-0.5l-0.6,0.3c3.1-0.4,6.4,0,9.5-0.4
		c-0.2,0.1-0.2,0.2-0.5,0.2c0.7,0.2,2.4,0,2.4-0.2c0.5,0,0.1,0.2,0.4,0.3c0.7,0.1,1.6-0.3,2-0.1c0.1,0-0.2,0.1-0.3,0.1
		c0.4-0.1,2,0,1.6-0.3c1.2,0.1,2.2-0.1,3.1,0c0.6-0.3,2,0.1,2.2-0.3c-0.1,0.5,2,0.3,2.8,0.1c-0.2,0.1,0.6,0.1,0.4,0.3
		c0.8,0,1.6-0.1,1.4-0.3c1.5,0.5,3.1-0.5,3.9,0.2c2.5-0.3,4.8-0.5,7-0.6c-0.1,0.5-2.5,0.1-2.4,0.5c2.1-0.2,3.3-0.6,5.4-0.5
		c0.5,0.1-0.3,0.2-0.5,0.3c2.1-0.2,4.1,0,5.9-0.3c0,0-0.2,0.1-0.4,0.1c0.4,0,0.9,0.1,0.8-0.2l-0.4,0.1c-0.6-0.3,1.5-0.6,1.5-0.8
		c-0.6,0.6,1.9,0.1,0.9,0.9c0.2,0,0.5-0.1,0.5-0.3c0.4,0,0.5,0.1,0.1,0.3c1.3-0.1,0.8-0.3,2-0.4c0,0.1-0.2,0.1-0.4,0.3
		c0.6-0.2,1.2-0.4,2.2-0.3c-0.1,0.1,0.1,0.1-0.2,0.1c1.7-0.1,3-0.6,4.9-0.4c-0.6,0.4,0.7,0.1,0.8,0.5l1-0.1l-0.4-0.2
		c0.9,0,1.7-0.3,2.5-0.2l-0.7,0.2l1.7-0.1l-1-0.1c0.9-0.2-0.1-0.2,1.1-0.2c-0.2,0,0.9,0.4,1.4,0.4h0c0.4,0,0.9-0.5,1.6-0.4
		c0.2,0.1-0.1,0.3,0,0.4c0.4-0.3,2.1-0.2,2.7-0.5c-0.2,0.1-0.2,0.2-0.1,0.3l0.4-0.3c0.4,0.1,0.5,0.1,0.4,0.3c1.3,0-0.4-0.5,1.1-0.3
		c-0.1,0-0.1,0.1-0.3,0.1c1.5,0.1,2.9-0.2,4.3-0.1c0.4,0.4-1.2,0.1-0.7,0.4c2-0.1,4.1-0.5,6-0.5l-0.4,0c0.3-0.5,1.4,0.2,2.4,0
		c-0.2,0-0.3,0.3-0.2,0.2c1.3,0.1,2.7-0.2,4.7-0.4l-0.2,0.1c0.8,0.1,2,0,2.9,0.1c0.2-0.1,0.7-0.1,0.4-0.3c2.6,0.7,4.9-0.5,7.2,0
		c-0.3,0-0.6,0.1-0.4,0.1l1.9-0.2c-0.2-0.2-0.3-0.1-0.7-0.3c0.2-0.1,0.8-0.3,1.3-0.3c-0.9,0.2,0,0.4,0.4,0.5c-0.1-0.1,0.1-0.2,0-0.2
		c1,0.4,0.2-0.5,1.6-0.2l-0.1,0.1c0.5-0.1,1-0.3,1.6-0.2c0.2,0.3-0.5,0.1-0.6,0.4c0.8,0,1.5-0.6,2.3-0.3c-0.3,0.1-0.8,0.1-1.1,0.2
		c0.8,0.3,0.9,0.2,1.4,0.2l-0.1,0l1.3,0.1l-0.3-0.1c1-0.7,2-0.2,3.3-0.7c-1.3,0.5-0.2,0.3-0.3,0.6c0.3,0.1,0.9,0.2,0.7,0.2
		c0.6-0.3,1.1,0.2,1.9-0.2c0,0.1,0.7,0,0.5,0.2c0.8-0.1-0.2-0.2-0.1-0.3c1.2-0.4,3,0.3,4.8-0.2c1.6-0.2,1.8-0.6,3.3-0.8
		c0.5,0.1-0.4,0.4-0.4,0.4c0.8,0.1,1.4,0.1,2.1-0.1c-0.1,0.1,0,0.2,0.2,0.3c0.6,0,0.4-0.4,1.2-0.3c-0.1,0.1-0.3,0.3-0.6,0.4
		c0.7-0.1,1.4-0.3,2.1-0.4c0.2,0.2-0.4,0.3-0.7,0.4c0.8-0.1,2.1-0.2,2.4-0.5l-0.5-0.1c0.3,0,0.2,0.2-0.1,0.3c-0.7,0.2-1-0.1-1.1-0.2
		l0.5-0.1c-0.6-0.6-2.1,0.2-3.1,0.2l0.4-0.4l-1.1,0.4c-0.2-0.1-0.4-0.3,0.1-0.4c-0.8-0.2-0.7,0.2-1.3,0c-0.1,0,0-0.1,0-0.1l-0.7,0.1
		c0.1-0.1-0.1-0.3,0.3-0.2c-1.3-0.2-2.1,0.4-2.6,0.1l0.1,0c-1.8,0.2-0.2,0.3-1.5,0.7l-0.9-0.7l-0.2,0.3c-0.2,0-0.6,0-0.5-0.1
		c-0.7,0.2,0.1,0.1-0.3,0.3c-0.9-0.2-2.5,0.2-2.7-0.3c-0.3,0.2,0.9,0.2-0.1,0.3c-0.3-0.5-1.1,0.1-1.9-0.1c0.2-0.3,1-0.2,0.2-0.4
		c-0.5,0.5-1.6-0.1-2.3,0.1c0,0.4-1.5,0.2-2.7,0.4c0.1-0.1-2.2-0.1-3.3-0.2l0-0.1c-0.2,0.4-1.3,0.3-2.1,0.4c0-0.2,0.2-0.3,0.6-0.4
		l-0.8,0c-0.2,0.1-0.4,0.2-0.9,0.2l0.2-0.3c-1,0-2,0.4-3.4,0.2c-0.1,0.3,1.1,0.7-0.3,0.9c-0.1-0.1-0.1-0.4,0.2-0.4
		c-0.1,0-0.4,0.1-0.7,0.1l0.5-0.2c-0.6-0.1-0.3,0.2-0.8,0.2c0-0.2-0.4-0.1-0.3-0.3c0.1,0,0.4,0.1,0.6,0c-0.5,0-1.2-0.1-1.4-0.3
		c0,0.1,0,0.3-0.4,0.3c-1,0-0.4-0.2-1-0.3c-0.2,0.1-0.9,0-0.9,0.3c-0.3,0-0.4-0.1-0.5-0.2c-0.5,0.1-2.5,0.1-1.9,0.4l0.1-0.1
		c0,0-0.1-0.1-0.1-0.1h0h0c-1.7,1-3.9,0.1-4.9,0.3v-0.1c-1,0.1-2.5,0.1-3.2,0.4c-0.3,0-0.8-0.2-0.7-0.3c-0.8,0.1-0.9,0.2-2,0.1
		c0.8-0.2-0.3-0.1,0.8-0.1c-1-0.1-1.3-0.2-2.3,0.1c0.4-0.3-0.8-0.3-1.3-0.2l0.7,0.2c-0.5,0-1,0-1.5,0l0.3-0.3
		c-2.1-0.4-3.7,0.8-5.3,0.1c-0.5,0.2,1.1,0.1,0.6,0.4c-1,0-2-0.5-2.3-0.5c-1.3-0.2-1.2,0.5-2.6,0.4c0.2,0.1,0.4,0.4-0.7,0.6
		c-1,0-1.2-0.5-0.6-0.6c0.2,0,0.3,0,0.3,0.1c0.3,0,0.7-0.1,0.3-0.2l-0.1,0.1c-0.5-0.1-1.8-0.1-1.5-0.3c-0.7,0.1-0.3,0.2,0.2,0.3
		c-1.2-0.1-1.9,0-3.2-0.1c0.2,0.1,0.4,0.2,0.2,0.2c-1.9-0.1-0.8,0.2-2.1,0.3c-0.7-0.2,0.2-0.4-1-0.3c-0.8-0.1-0.2-0.3,0.1-0.4
		c-1.1,0.2-2.2-0.1-2.8-0.1l0.6-0.1c-0.4,0.1-0.7,0.1-1,0.1l0.4,0.2c-0.4,0-0.7,0-0.7-0.1c-0.4,0.2,0.3,0.4-0.4,0.6
		c-0.5-0.1-1.4,0.2-1.6-0.2c1.5,0.1-0.2-0.3,1.1-0.4c-0.2,0-0.5,0-0.9,0c-0.1,0,0-0.1,0.1-0.1c-1.4-0.3-0.7,0.4-2.1,0.4
		c0.2-0.2-0.3-0.3-0.6-0.3c0.6,0,0.3,0.3-0.3,0.4c-1-0.1-1,0.1-1.5,0.1l0.6,0.1c-0.2,0.2-0.7,0.2-1.3,0.2c-0.1-0.1,0.6-0.1,0.4-0.2
		c-0.7,0.3-1.7-0.3-2.7-0.1c-0.5-0.1-0.1-0.3-0.5-0.4c-1.1,0.2-1.2-0.2-2.5,0c0.4,0.2,0.4,0.2-0.4,0.4l2-0.2l-1.3,0.4
		c0.6,0,1.3-0.2,1.6-0.1c-0.6,0.2-0.5,0.1-0.3,0.3c-0.8-0.3-1.6,0.2-2.6,0l0-0.6c-1.4-0.2-2.5,0.3-4.4,0.2l0.6,0.1
		c-0.2,0.2-1.1,0-1.7,0.2c0.1-0.2-0.3-0.3-0.6-0.4c0,0.1-1.4,0-1.5,0.4l-0.8-0.2c-1.5-0.1-1.7,0.6-3.1,0.5c0.4-0.2-0.2-0.4,0.7-0.5
		c-0.5,0-0.9,0-0.9,0.1c-0.3-0.1-1.3,0.3-1.8,0.1c-0.2,0.1-0.3,0.3-0.8,0.3c-0.1,0,0-0.1,0-0.1c0,0.1-0.8,0.1-0.4,0.4
		c-1.5-0.6-4.1,0.1-5.4-0.4c-1,0.1-2.3,0.2-3.3,0.2c0.1-0.1,0-0.1,0.2-0.1c-1.3-0.2-0.8,0.6-2.3,0.4c-0.8-0.3,0.8-0.2,0.3-0.3
		c-0.2-0.6-1.8,0.1-2.8-0.3l0.2,0c-0.8-0.2-1.9,0.3-3.1,0.2c0,0,0.1-0.1,0-0.1c-0.9,0.3-2.5,0.5-3.7,0.6c0.4-0.3,0.5-0.1,0.3-0.4
		c-0.5,0,0.2,0.4-0.9,0.5c-0.4-0.1-1.1-0.3-1.2-0.5l1,0c-0.5-0.4-1.3,0-1.9,0l0.1-0.2c-1.6,0.1-1.6,0.5-3.3,0.4l0.2,0.1
		c-0.9,0.4-0.8-0.2-1.7,0.1l-0.3-0.4c-0.6,0.1-2.1,0.4-3.2,0.5c0.6-0.3,1.9-0.5,2.7-0.6c-0.6,0-2,0-2.3,0.2c0.2,0,0.5-0.1,0.8-0.1
		c-0.7,0.3-1.7,0.5-2.9,0.5c0.2-0.8-3.1-0.2-4-0.8c-2.1,0.3-4.2-0.1-6.7-0.1c0.9,0.6-0.7,0-0.6,0.6c-0.6,0-0.8,0-0.8,0l-1.7-0.4
		c-0.4-0.2,0.5-0.1,0.5-0.3c-1.3,0-0.5-0.3-1.4-0.4c0.2,0.2-0.4,0.3-1.2,0.2l1,0.3c-1.8,0.3-1.5-0.5-3.3-0.2l0.6-0.2
		c-0.9,0.1-3.3,0-4.2,0.5c-0.2-0.1-0.4-0.2,0-0.3c-2.2-0.1-4.8,0.5-6.5,0.2l0.2-0.1c-0.4,0-0.7,0.3-1.2,0.1c0-0.1,0.2-0.1,0-0.2
		c-0.2,0.1-1.1,0.3-1.6,0.2l0.5-0.2c-2.1-0.2-3.2,0.4-5,0.5c0-0.4-1.7-0.6-2.5-0.7l0-0.1c-2.5-0.1-4.2,0.3-6.5,0.5
		c-1.4-0.5-4.8-0.2-7.1-0.5c0.3,0.1-0.1,0.3-0.5,0.4c-0.5-0.1-1.5,0.3-1.4-0.1l0.2,0c-0.4-0.4-1.5-0.3-2.4-0.3L91,47.9
		c-2.2-0.8-5.9,0.2-7.1-0.5c-0.5,0.1-1.2,0.1-1.7,0.2l0-0.3c-1.5-0.1-2.2-0.1-4.1-0.1l0.4-0.2c-1,0-1.3,0.8-2.3,0.8l-0.3-0.4
		c-1.8,0-3.7-0.4-5.5-0.1c0-0.1,0.1-0.2,0.4-0.2c-0.9,0-3.3-0.3-3,0.2c0-0.4-1.9-0.1-2.9,0.1l0.2-0.3c-0.8,0.3-0.9,0.4-2,0.5
		c-0.3,0-0.2-0.2,0.1-0.1c-0.9-0.2-0.7,0.3-1.8,0.1l0.4-0.2c-0.9,0-0.9,0.1-1.4,0.3c-0.6,0.1-1.8-0.1-1.9-0.4
		c-0.1,0.2-0.6,0.3-1.2,0.3c-0.1-0.1,0.1-0.2,0.2-0.2c-1.6-0.2-2.3,0.3-3.4,0c0-0.1-0.1-0.1-0.2-0.2c1.3,0,2.3,0.1,2.2,0.1
		c0-0.3-1-0.3-0.2-0.7c-0.8,0.2-2.2,0.6-3.2,0.4c0,0-0.1-0.1-0.1-0.1l0.1,0c-0.2,0-0.4,0-0.6,0c-0.3,0-0.5-0.1-0.8-0.1
		c-0.1-0.2-1.2-0.1-1.7-0.2c0,0.3-0.6,0.2,0,0.5c-0.1,0,0.1,0,0.4,0c0.1,0,0.2,0,0.2,0l0,0c0.3,0,0.8,0,1.3,0
		c-0.4,0.1-0.8,0.2-1.4,0.1c-0.3,0.2-0.6,0.4-0.7,0.4c-0.7-0.4-2-0.6-2.2-0.9c-1.5,0.1-3.6,0-4.6,0.5c-0.4,0.1-0.5-0.2-0.7-0.2
		c0.3,0,0.6,0,0.7-0.1c-0.9,0.1-2.6,0-2.8,0.4c-1.1-0.2,0.6-0.3-0.9-0.3l0.2-0.1c-3-0.7-4.9,0.8-8.2,0c0.2,0.1,0.3,0.1,0.4,0.1
		c-3.8-0.4-7.8,0.1-11.5-0.5c-1.1-0.1-1.2,0.1-1.8,0.3l-0.2-0.3L16.6,47c-1.6,0.2-2.7-0.8-4.7-0.4l0.3,0.2c-0.7-0.1-2.3,0.1-2.1-0.2
		c-0.1,0-0.2,0.2-0.5,0.1l0-0.2l-1.8,0.2C6.4,46.7,8,46.2,6,46.1c-0.7,0-2.1,0.4-1.8,0.5c0.3,0,0.8,0.1,0.8,0.3L4.3,47
		c-0.1,0.5-0.7,0.9,1,1.3L6.4,48l0.4,0.2l-1,0c0.5,0.2,0.9,0,1.3-0.1c0.1,0.1,0.2,0.2,0.5,0.3L8.7,48c0.1,0.2-0.5,0.3,0.2,0.5
		c0.5-0.2-0.5-0.4,0.4-0.5c0.5,0.2,0.4,0.4,1,0.2c0.1,0.1-0.1,0.2-0.3,0.2c0.6-0.1,1.5,0,1.8-0.3c0.6,0.3,1.9,0,1.9,0.4
		c0.2-0.1,1-0.3,1.5-0.3c-1,0.5,2,0.1,1.7,0.6c0.7-0.5,2.6-0.1,3.9-0.4c-0.1,0-0.2,0.1-0.3,0.1c0.7,0.1,0.9,0.2,1.4,0.3
		c0.1-0.4,1.2-0.5,1.8-0.7c0.9,0.4-0.5,0.4-0.3,0.8c0-0.3,1.5-0.3,1.2-0.6c0.7,0.2,0.6,0.1,0.9,0.5c0.1-0.5,0.6-0.1,1.2-0.4
		c1,0.3,0.2,0.5,1.3,0.3C28.6,49.1,27.6,49.3,27.6,49.3z M52.9,49L52.9,49c-0.2,0-0.4,0-0.5,0C52.5,49,52.6,49,52.9,49z M55,49
		c-0.3,0-0.6,0-0.9,0c-0.1-0.1,0-0.2,0.2-0.2C54.2,48.8,54.7,48.9,55,49z M50.5,47c0.3,0,0.4,0,0.5,0.1c-0.2,0-0.3,0-0.6,0
		c0,0,0,0,0,0C50.4,47.1,50.5,47,50.5,47z"/>
	<path class="st0" d="M49.9,47.3c0,0-0.1,0-0.1,0C49.9,47.4,49.9,47.4,49.9,47.3c0.1,0.1,0.1,0,0.2,0C50.1,47.3,50,47.3,49.9,47.3z"
		/>
	<path class="st0" d="M242,47.1L242,47.1C242,47.1,242,47.1,242,47.1C242,47.1,242,47.1,242,47.1z"/>
	<polygon class="st0" points="84.3,50 84.3,49.9 84.1,49.9 	"/>
	<path class="st0" d="M253.7,47.7c0,0,0.1,0,0.2,0.1C253.9,47.8,253.8,47.7,253.7,47.7z"/>
	<path class="st0" d="M258.8,47.6l0.7,0.1C259.2,47.7,258.9,47.6,258.8,47.6z"/>
	<path class="st0" d="M262.6,47.7c0-0.1,0.1-0.1,0.1-0.1l0,0L262.6,47.7z"/>
	<path class="st0" d="M201,49.4c-0.1,0-0.1,0-0.1,0C200.5,49.5,200.7,49.5,201,49.4z"/>
	<path class="st0" d="M219.3,48.4c-0.2,0.1-0.4,0.1-0.6,0.1C219.1,48.6,219.3,48.6,219.3,48.4z"/>
	<path class="st0" d="M180.5,50.1L180.5,50.1c0,0-0.1,0-0.1,0L180.5,50.1z"/>
	<path class="st0" d="M217.9,48.6c0.3,0,0.6,0,0.9,0C218.5,48.6,218.2,48.5,217.9,48.6z"/>
	<path class="st0" d="M279.4,47.2l0.2,0c0,0,0,0,0,0L279.4,47.2z"/>
	<path class="st0" d="M279.6,47.2l0.2,0C279.8,47.2,279.7,47.2,279.6,47.2z"/>
	<path class="st0" d="M280.3,47.1l-0.4,0.1C280,47.1,280.2,47.2,280.3,47.1z"/>
	<path class="st0" d="M274.3,47.3l-0.1,0.1C274.3,47.4,274.3,47.3,274.3,47.3z"/>
	<path class="st0" d="M272.7,47.4c0.4,0,0.9,0.2,1.5,0.1l0-0.1C274,47.5,273.1,47.2,272.7,47.4z"/>
	<path class="st0" d="M266.2,46.3l1.3,0c-0.2-0.1-0.5-0.2,0.1-0.3C265.9,45.8,267.9,46.3,266.2,46.3z"/>
	<path class="st0" d="M262.1,46.3c0.7-0.1,0-0.2,0-0.2C261.7,46.2,261.6,46.2,262.1,46.3z"/>
	<path class="st0" d="M232.9,47.1l0.1-0.3C232.4,46.9,232.9,46.9,232.9,47.1z"/>
	<polygon class="st0" points="227.3,48.5 227.8,48.7 228.1,48.4 	"/>
	<polygon class="st0" points="224,46.8 224.2,46.7 223.3,46.8 	"/>
	<path class="st0" d="M174.8,47.7L175,48C175.3,47.9,175.4,47.5,174.8,47.7z"/>
	<path class="st0" d="M153.6,48.1c-0.2-0.2-0.8-0.3-1.2-0.1C152.9,48.1,153.3,48.2,153.6,48.1z"/>
	<polygon class="st0" points="89.9,47.5 90.3,47.4 89.5,47.5 	"/>
</g>
</svg>
