<?xml version="1.0" encoding="utf-8"?>
<!-- Generator: Adobe Illustrator 19.1.0, SVG Export Plug-In . SVG Version: 6.00 Build 0)  -->
<svg version="1.1" id="Layer_1" xmlns="http://www.w3.org/2000/svg" xmlns:xlink="http://www.w3.org/1999/xlink" x="0px" y="0px"
	 viewBox="-127 429.1 340 17" style="enable-background:new -127 429.1 340 17;" xml:space="preserve">
<style type="text/css">
	.st0{fill:#202020;}
</style>
<g>
	<g>
		<path class="st0" d="M211.1,435.4c0.2-0.1,0.1-0.3-0.4-0.2l-0.3,0.3L211.1,435.4z"/>
		<path class="st0" d="M207.8,434.9c-0.6,0.2-1.2,0.5-0.8,0.8c0.6-0.3,0.7-0.2,1.3-0.6c0.5-0.1,0.9,0.1,0.8,0.2c0.2-0.1,0.8,0,1-0.2
			c-0.6-0.2-1.4-0.2-2.3,0C207.6,435,207.7,434.9,207.8,434.9z"/>
		<path class="st0" d="M160.1,435.8h0.3C160.3,435.8,160.2,435.8,160.1,435.8z"/>
		<path class="st0" d="M130.6,436.3c0.2,0,0.3,0,0.3-0.1C130.7,436.3,130.5,436.3,130.6,436.3z"/>
		<path class="st0" d="M125.5,436c0.1,0,0.2,0,0.3,0C125.7,436,125.6,436,125.5,436z"/>
		<path class="st0" d="M160.1,435.8l-0.8-0.1C159.3,435.8,159.7,435.8,160.1,435.8z"/>
		<path class="st0" d="M201.2,435.9c0.2,0,0.3-0.1,0.4-0.1C201.5,435.8,201.4,435.8,201.2,435.9L201.2,435.9z"/>
		<path class="st0" d="M173.1,435.2h0.2c0.1,0,0.1-0.1,0.2-0.1L173.1,435.2z"/>
		<path class="st0" d="M183.1,434.8c-0.2,0-0.3,0.3-0.4,0.4c0.1-0.1,0.3-0.2,0.5-0.2C183.2,435,183.2,434.9,183.1,434.8z"/>
		<path class="st0" d="M198.9,434.8h0.3C199.2,434.8,199,434.8,198.9,434.8z"/>
		<path class="st0" d="M166,435.3C165.9,435.3,165.9,435.3,166,435.3C165.9,435.3,165.9,435.3,166,435.3z"/>
		<path class="st0" d="M-113.5,437.4L-113.5,437.4C-113.6,437.4-113.6,437.4-113.5,437.4z"/>
		<path class="st0" d="M-125.1,435.7h0.2c0-0.1,0-0.1,0-0.2L-125.1,435.7z"/>
		<path class="st0" d="M116.3,435.8L116.3,435.8C116.6,435.8,116.4,435.8,116.3,435.8z"/>
		<path class="st0" d="M31.6,436.8c1,0.3-1.6,0.3-0.1,0.6C31.3,437.3,32.8,437,31.6,436.8z"/>
		<path class="st0" d="M201,435.9h-0.4C200.7,435.9,200.9,435.9,201,435.9z"/>
		<path class="st0" d="M31.5,437.4L31.5,437.4h0.1C31.5,437.4,31.5,437.4,31.5,437.4z"/>
		<path class="st0" d="M95,436.3c0,0,0.1,0.1,0.2,0.1C95.2,436.4,95.2,436.4,95,436.3z"/>
		<path class="st0" d="M110.9,436.5h-0.4C110.6,436.5,110.8,436.5,110.9,436.5z"/>
		<path class="st0" d="M86.8,436.8c-0.2,0-0.3-0.1-0.6,0h0.1C86.4,436.8,86.6,436.8,86.8,436.8z"/>
		<path class="st0" d="M78.2,436.9c0,0,0.1,0,0.2,0.1c0.1,0,0.2,0,0.3,0L78.2,436.9z"/>
		<path class="st0" d="M-87.5,437.9c-0.2-0.1-0.3-0.2-0.4-0.3C-87.8,437.8-89,437.9-87.5,437.9z"/>
		<path class="st0" d="M201.2,435.7c0,0.1-0.1,0.1-0.3,0.1C201,435.8,201.1,435.8,201.2,435.7C201.3,435.8,201.3,435.8,201.2,435.7z
			"/>
		<path class="st0" d="M86.5,439.1h-1.4C85.5,439.1,86,439.1,86.5,439.1z"/>
		<path class="st0" d="M-26.1,438.9h-0.3C-26.3,438.9-26.2,438.9-26.1,438.9z"/>
		<path class="st0" d="M81.1,439.1c-0.2-0.1-0.5-0.2-0.8-0.2c-0.1,0-0.1,0-0.2,0.1L81.1,439.1z"/>
		<path class="st0" d="M-87.9,437.6L-87.9,437.6L-87.9,437.6z"/>
		<path class="st0" d="M-96.9,438.1c1.3,0,0.6-0.3,0.9-0.6c1.5-0.1,0.7,0.3,1.2,0.5c1-0.1,1.7-0.4,2.4-0.4c0.1,0.1,0.2,0.1,0,0.2
			c1-0.3,3,0.1,4.2-0.3c0.1,0,0.1,0.1,0.2,0.1c-0.2-0.2-0.2-0.4-0.2-0.5c0.6,0,1.1-0.2,1.3,0c-0.4,0-0.4,0.1-0.6,0.2l0.6-0.1
			c0.5,0.4-0.8,0.1-0.8,0.4c1.2-0.1,2.6-0.3,3.5-0.2c0.2,0.3-2.1,0.1-0.9,0.4l-1.4-0.2c1.1,0.6-0.9-0.1,0.1,0.5
			c1.9,0.1,2.1-0.1,3.9,0c0.4-0.2-0.1-0.3,0.3-0.5c2.6-0.3,2,0.9,4,0.5c0.5-0.2,0.7-0.6,2.1-0.4l-0.5,0.4c1.8,0.1,1-0.5,2.9-0.2
			c-0.3,0.1-1.4,0.1-1.1,0.2c1.2,0.3,0.9-0.2,1.8-0.2l0.2,0.3c1.9,0,4-0.2,6.1-0.2c-0.1,0.1-0.5,0.2,0,0.3c2.7-0.1,5.7,0.2,8.3,0.4
			l1-0.3c0.2,0,0.4,0.1,0.2,0.2c1,0.1,0.1-0.2,0.5-0.3c0.6,0,0.8,0.2,0.4,0.3c1.8-0.2,5-0.5,6.9-0.1l-0.4,0.1c1.5,0.1,1.6-0.6,3-0.3
			h-0.3c3.1,0.2,6.6,0,9,0.4c0.5-0.4,3.1,0.2,3.3-0.4c1.8,0.3,1.3,0.4,3.8,0.6c0.7,0,1-0.4,1.9-0.4v0.3l1.1-0.3l0.6,0.4l0.8-0.1
			c-0.3,0-0.7-0.1-0.6-0.2c1.2-0.1,3,0.2,3,0.4l2.9-0.2c-0.1,0.1-0.6,0.2-0.9,0.2c1.6-0.3,0.3,0.3,1.7,0.1c-0.2-0.1,0.1-0.2,0.1-0.2
			c0.7,0.2,2.3,0.2,3.5,0.1l-0.2,0.2c2.2,0.1,4.5-0.1,7,0c-0.9-0.1-0.7-0.5,0-0.5l0.3,0.3c0.5-0.2-0.7-0.1,0.2-0.4
			c0.9,0,0.6,0.4,0.1,0.5l1.1-0.1c0.1,0.1-0.2,0.1-0.3,0.3c0.5-0.2,1.9,0.3,2.5,0l0.1,0.1c2.4,0,3.5-0.1,5.5-0.1
			c0-0.3,0.8-0.2,1.4-0.4c1.4,0.1,3,0.3,4.8,0.3c1.2-0.1,0.4-0.2,0.9-0.4c0.1,0.3,1.8,0.2,0.9,0.4c2.1,0,2.7,0,5.3-0.2
			c-0.3-0.1-0.6-0.2-0.4-0.2c0.5,0,1.1,0.1,1,0.2h-0.1c3-0.4,6.8,0.8,9.2,0.2h-0.1l2.4-0.3c1.1,0-0.7,0.2,0.2,0.4
			c2.6-0.4,4.2,0.1,6.4-0.2c1.7,0.8,6-0.1,8.3,0.4l-0.1-0.2c0.6-0.2,0.7,0.1,1.1,0.1c-0.1-0.1-0.6-0.2-0.3-0.3
			c5-0.2,10.3,0.2,15.4,0.4c1.9,0,1.1-0.9,3.4-0.5l-0.7,0.3c3.8-0.4,7.7,0,11.4-0.4c-0.2,0.1-0.2,0.2-0.6,0.2c0.8,0.2,2.9,0,2.9-0.2
			c0.6,0,0.1,0.2,0.5,0.3c0.8,0.1,2-0.3,2.4-0.1c0.1,0-0.2,0.1-0.4,0.1c0.5-0.1,2.4,0,1.9-0.3c1.4,0.1,2.6-0.1,3.8,0
			c0.7-0.3,2.4,0.1,2.6-0.3c-0.1,0.5,2.4,0.3,3.3,0.1c-0.3,0.1,0.8,0.1,0.4,0.3c1,0,1.9-0.1,1.7-0.3c1.8,0.5,3.7-0.5,4.7,0.2
			c3-0.3,5.7-0.5,8.4-0.6c-0.1,0.5-2.9,0.1-2.8,0.6c2.5-0.2,4-0.6,6.5-0.6c0.7,0.1-0.4,0.2-0.6,0.3c2.5-0.2,4.9,0,7.1-0.3
			c0,0-0.2,0.1-0.5,0.1c0.4,0,1,0,1-0.2l-0.4,0.1c-0.7-0.3,1.8-0.7,1.8-0.8c-0.7,0.6,2.2,0.1,1,0.9c0.3,0,0.7-0.1,0.6-0.3
			c0.4,0,0.6,0.1,0.1,0.3c1.6-0.1,1-0.3,2.5-0.4c0,0.1-0.3,0.1-0.4,0.3c0.7-0.2,1.5-0.4,2.7-0.3c-0.1,0.1,0.1,0.1-0.3,0.1
			c2.1-0.1,3.6-0.6,5.8-0.4c-0.7,0.4,0.8,0.1,0.9,0.5l1.2-0.1l-0.5-0.2c1.1,0,2-0.3,3-0.2l-0.8,0.2l2-0.1l-1.1-0.1
			c1.1-0.2-0.1-0.5,1.3-0.4c-0.3,0,1.1,0,1.6,0.2l0,0c0.5-0.1,1.1-0.3,1.9-0.2c0.2,0.1-0.2,0.4,0,0.5c0.5-0.3,2.5-0.1,3.2-0.5
			c-0.2,0.1-0.2,0.3-0.2,0.3l0.4-0.3c0.5,0.1,0.6,0.1,0.5,0.3c1.5,0-0.5-0.5,1.3-0.3c-0.1,0-0.1,0.1-0.4,0.1
			c1.8,0.1,3.5-0.2,5.1-0.1c0.5,0.4-1.4,0.1-0.9,0.4c2.4-0.1,4.9-0.6,7.2-0.5h-0.4c0.3-0.5,1.7,0.2,2.9-0.1c-0.3,0-0.4,0.3-0.3,0.2
			c1.6,0,3.2-0.2,5.6-0.4l-0.3,0.1c0.9,0.1,2.4,0,3.4,0c0.3-0.1,0.9-0.1,0.5-0.3c3.1,0.7,5.9-0.6,8.6,0c-0.3,0-0.8,0.1-0.5,0.1
			l2.3-0.2c-0.2-0.2-0.3-0.1-0.8-0.3c0.3-0.1,0.9-0.3,1.5-0.3c-1,0.2,0,0.4,0.5,0.5c-0.1-0.1,0.1-0.2,0-0.2c1.2,0.4,0.2-0.5,1.9-0.2
			l-0.1,0.1c0.6-0.1,1.2-0.3,1.9-0.2c0.3,0.3-0.7,0.1-0.7,0.4c0.9,0,1.8-0.6,2.7-0.3c-0.4,0.1-1,0.1-1.4,0.2c0.9,0.3,1,0.2,1.7,0.2
			h-0.1l1.6,0.1l-0.4-0.1c1.2-0.7,2.4-0.2,4-0.7c-1.5,0.5-0.2,0.3-0.4,0.6c0.4,0.1,1,0.1,0.9,0.2c0.7-0.3,1.3,0.2,2.3-0.2
			c0.1,0.1,0.8,0,0.6,0.2c1-0.1-0.2-0.2-0.2-0.3c1.5-0.4,3.6,0.3,5.7-0.2c1.9-0.3,2.2-0.6,3.9-0.8c0.6,0.1-0.5,0.4-0.5,0.4
			c0.9,0.1,1.7,0.1,2.5-0.1c-0.2,0.1,0,0.2,0.3,0.3c0.7,0,0.5-0.4,1.4-0.3c-0.2,0.1-0.4,0.3-0.7,0.4c0.8-0.1,1.7-0.3,2.5-0.4
			c0.2,0.2-0.5,0.3-0.8,0.4c1-0.1,2.5-0.2,2.8-0.5l-0.6-0.1c0.4,0,0.2,0.2-0.1,0.3c-0.8,0.2-1.2-0.1-1.3-0.1l0.6-0.1
			c-0.7-0.6-2.5,0.2-3.7,0.2l0.5-0.4l-1.3,0.4c-0.3-0.1-0.5-0.3,0.1-0.4c-0.9-0.2-0.8,0.2-1.6,0c-0.1,0,0-0.1,0-0.1l-0.9,0.2
			c0.2-0.1-0.2-0.3,0.4-0.2c-1.6-0.2-2.5,0.4-3.1,0.1h0.1c-2.2,0.2-0.2,0.3-1.8,0.7l-1.1-0.7l-0.2,0.3c-0.2,0-0.7,0-0.6-0.1
			c-0.8,0.2,0.1,0.1-0.3,0.3c-1.1-0.2-3,0.2-3.2-0.3c-0.4,0.2,1,0.1-0.1,0.3c-0.3-0.5-1.3,0.1-2.3-0.1c0.3-0.3,1.2-0.2,0.2-0.4
			c-0.6,0.5-1.9,0-2.8,0.1c0,0.4-1.8,0.2-3.2,0.4c0.1-0.1-2.6-0.1-3.9-0.2v-0.1c-0.2,0.4-1.6,0.3-2.6,0.4c0-0.2,0.2-0.3,0.7-0.4
			h-0.9c-0.2,0.1-0.5,0.2-1.1,0.3l0.2-0.3c-1.2,0.1-2.5,0.4-4,0.3c-0.1,0.3,1.3,0.7-0.4,0.9c-0.1-0.1-0.1-0.4,0.3-0.4
			c-0.1,0-0.5,0.1-0.8,0.1l0.7-0.2c-0.7-0.1-0.4,0.2-0.9,0.2c0-0.2-0.4-0.1-0.3-0.3c0.1,0,0.5,0.1,0.7,0c-0.6,0-1.4-0.1-1.7-0.3
			c0.1,0.1,0,0.3-0.5,0.3c-1.2,0-0.4-0.2-1.1-0.3c-0.3,0.1-1.1,0-1.1,0.3c-0.4,0-0.4-0.1-0.6-0.2c-0.6,0.1-3,0.1-2.2,0.4l0.2-0.2
			l-0.1-0.2l0,0l0,0c-2.1,1-4.5,0.4-6.5,0.5v-0.5c-1,0.1-2.6,0.1-3.5,0.4c-0.4,0-0.8-0.2-0.7-0.3c-0.9,0.1-1,0.2-2.4,0.1
			c0.9-0.2-0.3-0.1,1-0.1c-1.2-0.1-1.5-0.2-2.8,0.1c0.4-0.3-0.9-0.3-1.5-0.2l0.9,0.2c-0.7,0.1-1.2,0-1.8,0l0.3-0.3
			c-2.5-0.4-4.5,0.8-6.4,0.1c-0.7,0.2,1.4,0.1,0.8,0.4c-1.1,0-2.4-0.5-2.7-0.5c-1.6-0.2-1.5,0.5-3.1,0.4c0.2,0.1,0.4,0.4-0.8,0.6
			c-1.2,0-1.4-0.5-0.7-0.6c0.3,0,0.4,0,0.4,0.1c0.4-0.1,0.9-0.1,0.4-0.2l-0.1,0.1c-0.6-0.1-2.2-0.1-1.8-0.3
			c-0.9,0.1-0.4,0.2,0.3,0.3c-1.5-0.1-2.3,0-3.8,0c0.2,0.1,0.5,0.2,0.2,0.2c-2.2-0.1-1,0.2-2.5,0.3c-0.9-0.2,0.3-0.4-1.2-0.3
			c-0.9-0.1-0.2-0.3,0.2-0.4c-1.4,0.3-2.6-0.1-3.4-0.1l0.7-0.1c-0.4,0.1-0.8,0.1-1.2,0.1l0.4,0.2c-0.4,0-0.8,0-0.8-0.1
			c-0.4,0.2,0.3,0.4-0.5,0.6c-0.6-0.1-1.7,0.2-1.9-0.2c1.8,0.1-0.2-0.3,1.3-0.4c-0.3,0-0.6,0-1.1,0c-0.1,0,0.1-0.1,0.2-0.1
			c-1.7-0.3-0.8,0.4-2.6,0.4c0.2-0.2-0.4-0.3-0.7-0.3c0.7,0,0.3,0.3-0.3,0.4c-1.1-0.1-1.2,0.1-1.8,0.1l0.7,0.1
			c-0.2,0.2-0.8,0.2-1.6,0.2c-0.1-0.1,0.7-0.1,0.4-0.2c-0.9,0.3-2-0.3-3.2-0.1c-0.6-0.1-0.1-0.3-0.6-0.4c-1.4,0.3-1.5-0.2-2.9,0
			c0.4,0.2,0.5,0.2-0.5,0.4l2.4-0.2l-1.5,0.4c0.7,0,1.5-0.2,1.9-0.1c-0.7,0.2-0.7,0.1-0.3,0.3c-1-0.3-1.9,0.2-3.1,0v-0.6
			c-1.7-0.2-3,0.3-5.3,0.2l0.7,0.1c-0.3,0.2-1.4,0.1-2.1,0.2c0.1-0.2-0.4-0.3-0.7-0.4c0,0.1-1.6,0-1.8,0.4l-1-0.2
			c-1.8-0.1-2,0.6-3.8,0.5c0.5-0.2-0.3-0.4,0.9-0.5c-0.6,0-1.1,0-1.1,0.1c-0.3-0.1-1.6,0.3-2.1,0.1c-0.2,0.1-0.3,0.3-1,0.3
			c-0.1,0,0-0.1,0-0.1c0,0.1-1,0.1-0.4,0.4c-1.8-0.6-5,0.1-6.5-0.4c-1.3,0.1-2.8,0.2-3.9,0.2c0.1-0.1,0-0.1,0.2-0.1
			c-1.6-0.2-1,0.6-2.8,0.4c-0.9-0.3,0.9-0.2,0.4-0.3c-0.3-0.6-2.2,0.1-3.4-0.3h0.3c-0.9-0.2-2.2,0.3-3.8,0.2c0,0,0.1-0.1,0-0.1
			c-1,0.3-3,0.5-4.4,0.6c0.4-0.3,0.7-0.1,0.4-0.4c-0.6,0,0.2,0.4-1.1,0.5c-0.4-0.1-1.4-0.3-1.5-0.5h1.2c-0.6-0.4-1.6,0-2.2,0
			l0.7-0.3c-1.9,0.1-1.9,0.5-3.9,0.4l0.2,0.1c-1.1,0.4-0.9-0.2-2,0.1l-0.3-0.4c-0.7,0.1-2.5,0.4-3.8,0.5c0.7-0.3,2.3-0.5,3.2-0.6
			c-0.7,0-2.4,0-2.8,0.2c0.3,0,0.7-0.1,0.9-0.1c-0.9,0.3-2,0.5-3.5,0.5c0.3-0.8-3.7-0.2-4.8-0.8c-2.5,0.3-5-0.1-8-0.1
			c1,0.6-0.9,0-0.7,0.6c-0.7,0-1,0-1,0l-2.1-0.4c-0.5-0.2,0.7-0.1,0.6-0.3c-1.5,0-0.6-0.3-1.6-0.4c0.2,0.2-0.5,0.3-1.4,0.2l1.2,0.3
			c-2.1,0.3-1.8-0.5-3.9-0.2l0.7-0.2c-1.1,0.1-4,0-5.1,0.5c-0.2-0.1-0.4-0.2,0-0.3c-2.6-0.1-5.8,0.5-7.8,0.2l0.2-0.1
			c-0.5,0-0.8,0.3-1.5,0.1c0-0.1,0.2-0.1,0-0.2c-0.3,0.1-1.3,0.3-1.9,0.2l0.6-0.2c-2.5-0.2-3.9,0.4-6,0.5c0-0.4-2-0.6-3-0.7v-0.1
			c-3-0.1-5,0.3-7.8,0.5c-1.7-0.5-5.8-0.2-8.5-0.5c0.4,0.1-0.1,0.3-0.6,0.4c-0.6-0.1-1.8,0.3-1.7-0.1h0.2c-0.5-0.4-1.8-0.3-2.8-0.3
			l-0.2,0.5c-2.7-0.8-7.1,0.2-8.5-0.5c-0.7,0.1-1.5,0.1-2.1,0.2v-0.3c-1.8-0.1-2.7-0.1-4.9-0.1l0.5-0.2c-1.3,0-1.6,0.8-2.8,0.8
			l-0.3-0.1c-2.2,0-4.4-0.4-6.6-0.1c0-0.1,0.1-0.2,0.5-0.2c-1,0-4-0.3-3.6,0.2c0-0.4-2.3-0.1-3.4,0.1l0.2-0.3c-1,0.3-1,0.4-2.4,0.5
			c-0.3,0-0.3-0.2,0.2-0.1c-1.1-0.2-0.9,0.3-2.2,0.1l0.5-0.2c-1.1,0-1,0.1-1.7,0.3c-0.7,0.1-2.1-0.1-2.3-0.4
			c-0.2,0.2-0.8,0.3-1.4,0.3c-0.1-0.1,0.2-0.2,0.3-0.2c-1.9-0.2-2.8,0.3-4.1,0c0-0.1-0.1-0.1-0.2-0.2c1.5,0,2.7,0.1,2.6,0.1
			c0-0.3-1.2-0.3-0.2-0.7c-1,0.2-2.7,0.6-3.8,0.4c-0.1,0-0.1-0.1-0.2-0.1h0.1c-0.3,0-0.5,0-0.7,0c-0.4,0-0.6-0.1-1-0.1
			c-0.1-0.2-1.4-0.1-2-0.2c0,0.3-0.7,0.2,0,0.5c-0.1,0,0.1,0,0.5,0c0.1,0,0.2,0,0.3,0l0,0c0.4,0,0.9,0,1.5,0c-0.5,0.1-1,0.2-1.6,0.1
			c-0.3,0.2-0.7,0.4-0.9,0.4c-0.8-0.4-2.4-0.7-2.6-0.9c-1.9,0.1-4.4,0-5.5,0.5c-0.5,0.1-0.6-0.2-0.8-0.2c0.3,0,0.7,0,0.8-0.1
			c-1.1,0.1-3.1,0-3.4,0.4c-1.3-0.2,0.8-0.3-1.1-0.3l0.2-0.1c-3.6-0.7-5.8,0.8-9.8,0c0.3,0.1,0.4,0.1,0.5,0.1
			c-4.5-0.4-9.3,0.1-13.8-0.5c-1.3-0.1-1.4,0.1-2.2,0.2l-0.3-0.3l-1.3,0.3c-1.9,0.2-3.2-0.8-5.6-0.4l0.3,0.2c-0.9-0.1-2.7,0-2.6-0.2
			c-0.1,0-0.3,0.2-0.6,0.1v-0.2l-2.1,0.2c-1.6-0.2,0.3-0.6-2.1-0.7c-0.9,0-2.5,0.4-2.2,0.5c0.4,0,0.9,0.1,0.9,0.3l-0.8,0.1
			c-0.2,0.5-0.8,0.9,1.2,1.3l1.4-0.2l0.4,0.2h-1.2c0.5,0.2,0.9,0,1.4-0.1c0.1,0.1,0.3,0.2,0.6,0.3l1.4-0.4c0.2,0.2-0.6,0.3,0.3,0.5
			c0.6-0.2-0.6-0.4,0.5-0.5c0.5,0.1,0.3,0.3,1.1,0.1c0.1,0.1-0.1,0.2-0.4,0.2c0.7-0.1,1.8,0,2.2-0.2c0.7,0.3,2.3,0,2.3,0.4
			c0.2-0.1,1.2-0.3,1.9-0.3c-1.2,0.5,2.4,0.1,2,0.7c0.9-0.5,3.1-0.1,4.6-0.3c-0.1,0-0.3,0.1-0.4,0.1c0.9,0.1,1.1,0.2,1.6,0.3
			c0.1-0.4,1.5-0.4,2.2-0.7c1,0.4-0.6,0.4-0.3,0.8c0-0.3,1.8-0.3,1.5-0.5c0.8,0.3,0.7,0.1,1.1,0.5c0.2-0.5,0.7-0.1,1.4-0.4
			c1.2,0.3,0.3,0.5,1.6,0.3C-95.8,437.9-96.9,438.1-96.9,438.1z M-66.6,437.9L-66.6,437.9c-0.3,0-0.5,0-0.6,0
			C-67.1,437.9-66.9,437.9-66.6,437.9z M-64,437.9c-0.3,0-0.7,0-1.1,0c-0.1-0.1,0-0.2,0.3-0.2C-65,437.8-64.4,437.8-64,437.9z
			 M-69.4,435.9c0.4,0,0.5,0,0.6,0.1c-0.2,0-0.4,0-0.7,0l0,0C-69.5,436-69.5,435.9-69.4,435.9z"/>
		<path class="st0" d="M-70.1,436.2c-0.1,0-0.1,0-0.2,0C-70.2,436.3-70.1,436.3-70.1,436.2c0.1,0.1,0.2,0,0.2,0
			C-70,436.2-70.1,436.2-70.1,436.2z"/>
		<path class="st0" d="M160.5,435.8L160.5,435.8C160.5,435.8,160.5,435.9,160.5,435.8C160.5,435.9,160.5,435.9,160.5,435.8z"/>
		<polygon class="st0" points="-28.9,439 -28.9,438.9 -29.1,439 		"/>
		<path class="st0" d="M174.5,436.4c0,0,0.1,0,0.2,0.1C174.7,436.5,174.6,436.5,174.5,436.4z"/>
		<path class="st0" d="M180.5,436.3l0.9,0.1C181,436.3,180.8,436.3,180.5,436.3z"/>
		<path class="st0" d="M185.2,436.3c0.1-0.1,0.1-0.1,0.1-0.1l0,0L185.2,436.3z"/>
		<path class="st0" d="M111.2,438.4c-0.1,0-0.1,0-0.2,0C110.6,438.5,110.9,438.4,111.2,438.4z"/>
		<path class="st0" d="M133.2,437.3c-0.2,0.1-0.5,0.1-0.7,0.1C132.9,437.5,133.2,437.5,133.2,437.3z"/>
		<path class="st0" d="M86.6,439.1L86.6,439.1c-0.1,0-0.1,0-0.1,0H86.6z"/>
		<path class="st0" d="M131.5,437.5c0.4,0,0.7,0,1,0C132.2,437.5,131.8,437.4,131.5,437.5z"/>
		<path class="st0" d="M205.4,435.8h0.2l0,0H205.4z"/>
		<path class="st0" d="M205.6,435.7h0.2C205.8,435.7,205.7,435.7,205.6,435.7z"/>
		<path class="st0" d="M206.4,435.6l-0.5,0.1C206.1,435.7,206.3,435.7,206.4,435.6z"/>
		<path class="st0" d="M199.2,435.9l-0.1,0.1C199.2,435.9,199.2,435.9,199.2,435.9z"/>
		<path class="st0" d="M197.3,436c0.4,0,1.1,0.2,1.7,0.1l0.1-0.1C198.9,436.1,197.8,435.8,197.3,436z"/>
		<path class="st0" d="M189.5,435h1.6c-0.3-0.1-0.6-0.2,0.1-0.3C189.1,434.4,191.5,434.9,189.5,435z"/>
		<path class="st0" d="M184.6,434.9c0.8-0.1,0-0.2,0-0.2C184.1,434.8,184,434.9,184.6,434.9z"/>
		<path class="st0" d="M149.5,435.9l0.1-0.3C148.9,435.7,149.6,435.7,149.5,435.9z"/>
		<polygon class="st0" points="142.8,437.4 143.4,437.5 143.7,437.3 		"/>
		<polygon class="st0" points="138.8,435.6 139.1,435.6 138,435.7 		"/>
		<path class="st0" d="M79.8,436.7L80,437C80.4,436.9,80.5,436.6,79.8,436.7z"/>
		<path class="st0" d="M54.3,437.2c-0.3-0.2-1-0.3-1.4-0.1C53.4,437.1,54,437.2,54.3,437.2z"/>
		<polygon class="st0" points="-22.1,436.5 -21.6,436.4 -22.6,436.5 		"/>
	</g>
</g>
</svg>
