<?xml version="1.0" encoding="utf-8"?>
<!-- Generator: Adobe Illustrator 19.1.0, SVG Export Plug-In . SVG Version: 6.00 Build 0)  -->
<svg version="1.1" id="Capa_1" xmlns="http://www.w3.org/2000/svg" xmlns:xlink="http://www.w3.org/1999/xlink" x="0px" y="0px"
	 viewBox="-184 372 241.8 50" style="enable-background:new -184 372 241.8 50;" xml:space="preserve">
<g>
	<path d="M-134.8,401.1v1.3c0,1.5,1.3,2.8,2.8,2.8h2.2c1.6,0,2.8-1,2.8-2.5c0-4.5-10.7-5.4-10.7-11.6c0-3.2,2.5-5.4,6-5.4h1.5
		c3.3,0,6,2.7,6,6v1h-3.2v-1c0-1.5-1.3-2.8-2.8-2.8h-1.5c-1.7,0-2.8,0.8-2.8,2.1c0,3.4,10.7,4.7,10.7,11.6c0,3.2-2.6,5.7-6,5.7h-2.2
		c-3.3,0-6-2.7-6-6v-1.3H-134.8z"/>
	<path d="M-112.8,408.4c-3.2,0-5.8-2.6-5.8-5.8v-10.9c0-3.2,2.6-5.8,5.8-5.8h2.6c3.2,0,5.8,2.6,5.8,5.8v10.9c0,3.2-2.6,5.8-5.8,5.8
		H-112.8z M-107.7,402.6v-10.9c0-1.5-1.1-2.6-2.6-2.6h-2.6c-1.5,0-2.6,1.2-2.6,2.6v10.9c0,1.4,1.2,2.6,2.6,2.6h2.6
		C-108.8,405.1-107.7,404-107.7,402.6z"/>
	<path d="M-85.1,405.2v3.2h-14.2v-22.6h3.2v19.4H-85.1z"/>
	<path d="M-65.7,391.6v10.9c0,3.2-2.6,5.8-5.8,5.8h-6.1h-2.3v-22.6h3.2h5.2C-68.3,385.8-65.7,388.4-65.7,391.6z M-68.9,391.6
		c0-1.4-1.1-2.6-2.6-2.6h-5.2v16.1h5.2c1.4,0,2.6-1.2,2.6-2.6V391.6z"/>
	<path d="M-35.3,408.4c-3.2,0-5.8-2.6-5.8-5.8v-10.9c0-3.2,2.6-5.8,5.8-5.8h2.6c3.2,0,5.8,2.6,5.8,5.8v10.9c0,3.2-2.6,5.8-5.8,5.8
		H-35.3z M-30.2,402.6v-10.9c0-1.5-1.1-2.6-2.6-2.6h-2.6c-1.5,0-2.6,1.2-2.6,2.6v10.9c0,1.4,1.2,2.6,2.6,2.6h2.6
		C-31.3,405.1-30.2,404-30.2,402.6z"/>
	<path d="M-7.6,402.6c0,3.2-2.6,5.8-5.8,5.8H-16c-3.2,0-5.8-2.6-5.8-5.8v-16.8h3.2v16.8c0,1.4,1.2,2.6,2.6,2.6h2.6
		c1.4,0,2.6-1.2,2.6-2.6v-16.8h3.2V402.6z"/>
	<path d="M11.8,389H6.3v19.4H3.1V389h-5.5v-3.2h8.7h5.5V389z"/>
</g>
<g>
	<path d="M28.9,398.3c0.1-0.1,0-0.3-0.2-0.2l-0.2,0.3L28.9,398.3z"/>
	<path d="M27.1,397.6c-0.3,0.2-0.7,0.4-0.5,0.7c0.3-0.3,0.4-0.2,0.7-0.6c0.3,0,0.5,0.1,0.4,0.2c0.1-0.1,0.4,0.1,0.6-0.1
		c-0.3-0.3-0.8-0.3-1.2-0.1C27,397.8,27.1,397.7,27.1,397.6z"/>
	<path d="M1,397l0.2,0C1.1,397,1.1,397,1,397z"/>
	<path d="M-15.2,396.7c0.1,0,0.2,0,0.2-0.1C-15.1,396.6-15.2,396.6-15.2,396.7z"/>
	<path d="M-17.9,396.3c0.1,0,0.1,0,0.2,0C-17.8,396.3-17.9,396.3-17.9,396.3z"/>
	<path d="M1,397l-0.4-0.1C0.6,397,0.8,396.9,1,397z"/>
	<path d="M23.5,398.4c0.1,0,0.2,0,0.2-0.1C23.7,398.3,23.6,398.4,23.5,398.4C23.5,398.4,23.5,398.4,23.5,398.4z"/>
	<path d="M8.1,396.7l0.1,0c0,0,0.1-0.1,0.1-0.1L8.1,396.7z"/>
	<path d="M13.6,396.7c-0.1,0-0.2,0.3-0.2,0.4c0.1-0.1,0.2-0.2,0.3-0.2C13.7,396.9,13.7,396.8,13.6,396.7z"/>
	<path d="M22.3,397.3l0.2,0C22.4,397.2,22.3,397.3,22.3,397.3z"/>
	<path d="M4.2,396.6c0,0,0-0.1,0-0.1C4.2,396.6,4.2,396.6,4.2,396.6z"/>
	<path d="M-148.8,397.8C-148.8,397.7-148.8,397.7-148.8,397.8C-148.8,397.7-148.8,397.8-148.8,397.8z"/>
	<path d="M-155.1,396.3L-155.1,396.3c0.1-0.1,0.1-0.1,0.1-0.2L-155.1,396.3z"/>
	<path d="M-23,395.9C-22.9,395.9-22.9,395.9-23,395.9C-22.8,395.9-22.9,395.9-23,395.9z"/>
	<path d="M-69.3,395.8c0.5,0.3-0.9,0.3-0.1,0.6C-69.5,396.3-68.7,396-69.3,395.8z"/>
	<path d="M23.4,398.4c-0.1,0-0.1,0-0.2,0C23.2,398.4,23.3,398.4,23.4,398.4z"/>
	<path d="M-69.4,396.4C-69.4,396.4-69.4,396.4-69.4,396.4L-69.4,396.4C-69.4,396.4-69.4,396.4-69.4,396.4z"/>
	<path d="M-34.6,396c0,0,0.1,0.1,0.1,0.1C-34.5,396.1-34.5,396-34.6,396z"/>
	<path d="M-25.9,396.4l-0.2,0C-26.1,396.4-26,396.4-25.9,396.4z"/>
	<path d="M-39.1,396.4c-0.1,0-0.2-0.1-0.3,0c0,0,0,0,0,0C-39.3,396.3-39.2,396.3-39.1,396.4z"/>
	<path d="M-43.8,396.3C-43.8,396.3-43.7,396.4-43.8,396.3c0.1,0.1,0.2,0,0.2,0L-43.8,396.3z"/>
	<path d="M-134.5,397.7c-0.1-0.1-0.2-0.2-0.2-0.3C-134.7,397.7-135.4,397.7-134.5,397.7z"/>
	<path d="M23.5,398.3c0,0.1-0.1,0.1-0.1,0.1c0.1,0,0.1,0,0.2,0C23.5,398.3,23.5,398.3,23.5,398.3z"/>
	<path d="M-39.3,398.6l-0.7,0C-39.8,398.6-39.6,398.6-39.3,398.6z"/>
	<path d="M-100.9,397.9l-0.2,0C-101,397.9-101,397.9-100.9,397.9z"/>
	<path d="M-42.3,398.5c-0.1-0.1-0.3-0.2-0.4-0.2c0,0-0.1,0-0.1,0.1L-42.3,398.5z"/>
	<path d="M-134.7,397.5C-134.7,397.5-134.7,397.5-134.7,397.5C-134.7,397.5-134.7,397.5-134.7,397.5z"/>
	<path d="M-139.7,398.1c0.7,0,0.3-0.4,0.5-0.6c0.8-0.1,0.4,0.3,0.7,0.5c0.5-0.1,0.9-0.4,1.3-0.4c0,0.1,0.1,0.1,0,0.2
		c0.6-0.3,1.7,0,2.3-0.4c0,0,0.1,0.1,0.1,0.1c-0.1-0.2-0.1-0.4-0.1-0.5c0.3,0,0.6-0.2,0.7,0c-0.2,0-0.2,0.1-0.3,0.2l0.3-0.1
		c0.3,0.3-0.5,0.1-0.5,0.4c0.7-0.1,1.4-0.4,1.9-0.3c0.1,0.3-1.2,0.1-0.5,0.4l-0.8-0.1c0.6,0.5-0.5,0,0.1,0.5c1,0.1,1.1-0.2,2.1-0.1
		c0.2-0.2-0.1-0.3,0.2-0.5c1.4-0.3,1.1,0.9,2.2,0.4c0.3-0.2,0.4-0.7,1.1-0.4l-0.3,0.4c1,0,0.6-0.5,1.6-0.3c-0.2,0.1-0.8,0.1-0.6,0.2
		c0.7,0.3,0.5-0.2,1-0.2l0.1,0.3c1,0,2.2-0.3,3.4-0.3c-0.1,0.1-0.3,0.2,0,0.3c1.5-0.2,3.1,0.1,4.5,0.3l0.5-0.3
		c0.1,0,0.2,0.1,0.1,0.2c0.5,0.1,0-0.2,0.3-0.3c0.3,0,0.4,0.2,0.2,0.3c1-0.2,2.8-0.5,3.8-0.2l-0.2,0.1c0.8,0.1,0.9-0.6,1.6-0.3
		l-0.1,0.1c1.7,0.1,3.6-0.1,4.9,0.3c0.3-0.4,1.7,0.2,1.8-0.4c1,0.3,0.7,0.4,2.1,0.6c0.4,0,0.6-0.4,1-0.4l0,0.3l0.6-0.3l0.3,0.4
		l0.4-0.1c-0.2,0-0.4-0.1-0.3-0.2c0.7-0.1,1.6,0.2,1.6,0.4l1.6-0.3c0,0.1-0.3,0.2-0.5,0.2c0.8-0.3,0.2,0.3,0.9,0
		c-0.1-0.1,0.1-0.2,0.1-0.2c0.4,0.2,1.3,0.2,1.9,0.1l-0.1,0.2c1.2,0.1,2.5-0.1,3.8-0.1c-0.5-0.1-0.4-0.5,0-0.5l0.2,0.3
		c0.3-0.2-0.4-0.1,0.1-0.4c0.5,0,0.3,0.4,0,0.5l0.6-0.1c0,0.1-0.1,0.1-0.1,0.3c0.2-0.2,1,0.3,1.4,0l0,0.1c1.3,0,1.9-0.1,3-0.1
		c0-0.3,0.4-0.2,0.8-0.4c0.8,0.1,1.7,0.3,2.6,0.3c0.7-0.1,0.2-0.2,0.5-0.4c0,0.3,1,0.2,0.5,0.4c1.1,0,1.5,0,2.9-0.2
		c-0.2-0.1-0.3-0.2-0.2-0.2c0.3,0,0.6,0.1,0.6,0.2l-0.1,0c1.6-0.4,3.7,0.8,5,0.2l-0.1,0l1.3-0.3c0.6,0-0.4,0.2,0.1,0.4
		c1.4-0.4,2.3,0.1,3.5-0.2c0.9,0.8,3.3,0,4.5,0.5l-0.1-0.2c0.3-0.2,0.4,0.1,0.6,0.1c0-0.1-0.3-0.2-0.1-0.3c2.7-0.2,5.6,0.3,8.4,0.5
		c1,0.1,0.6-0.9,1.9-0.5l-0.4,0.3c2.1-0.4,4.2,0,6.2-0.3c-0.1,0.1-0.1,0.2-0.3,0.2c0.4,0.2,1.6,0,1.6-0.2c0.3,0,0.1,0.2,0.3,0.3
		c0.4,0.1,1.1-0.3,1.3-0.1c0,0-0.1,0.1-0.2,0.1c0.3-0.1,1.3,0,1-0.2c0.8,0.1,1.4-0.1,2.1,0.1c0.4-0.3,1.3,0.2,1.4-0.3
		c-0.1,0.5,1.3,0.4,1.8,0.2c-0.2,0.1,0.4,0.1,0.2,0.3c0.5,0,1-0.1,1-0.3c1,0.5,2-0.4,2.6,0.3c1.6-0.2,3.1-0.4,4.6-0.5
		c-0.1,0.5-1.6,0-1.6,0.5c1.4-0.2,2.2-0.6,3.6-0.4c0.4,0.1-0.2,0.2-0.3,0.3c1.4-0.2,2.7,0.1,3.9-0.2c0,0-0.1,0.1-0.3,0.1
		c0.2,0,0.6,0.1,0.5-0.1l-0.2,0.1c-0.4-0.3,1-0.6,1-0.8c-0.4,0.6,1.2,0.2,0.6,0.9c0.2,0,0.4-0.1,0.3-0.3c0.2,0,0.3,0.1,0.1,0.3
		c0.9-0.1,0.6-0.3,1.4-0.3c0,0.1-0.2,0.1-0.2,0.3c0.4-0.2,0.8-0.4,1.5-0.3c0,0.1,0,0.1-0.2,0.1c1.1,0,2-0.5,3.2-0.3
		c-0.4,0.4,0.4,0.1,0.5,0.5l0.7-0.1l-0.3-0.2c0.6,0,1.1-0.3,1.6-0.1l-0.4,0.2l1.1-0.1l-0.6-0.1c0.6-0.2-0.1-0.5,0.7-0.4
		c-0.2,0,0.6,0,0.9,0.2c0,0,0,0,0,0c0.3-0.1,0.6-0.2,1-0.1c0.1,0.1-0.1,0.4,0,0.5c0.3-0.3,1.4-0.1,1.8-0.4c-0.1,0.1-0.1,0.3-0.1,0.3
		l0.2-0.3c0.3,0.1,0.3,0.1,0.3,0.3c0.8,0.1-0.3-0.5,0.7-0.3c-0.1,0,0,0.1-0.2,0.1c1,0.1,1.9-0.1,2.8,0c0.3,0.4-0.8,0.1-0.5,0.4
		c1.3-0.1,2.7-0.4,4-0.3l-0.2,0c0.2-0.5,0.9,0.3,1.6,0c-0.2,0-0.2,0.3-0.2,0.2c0.9,0.1,1.8-0.1,3.1-0.3L0.3,398
		c0.5,0.1,1.3,0.1,1.9,0.1c0.2-0.1,0.5-0.1,0.3-0.3c1.7,0.8,3.2-0.4,4.7,0.3c-0.2,0-0.4,0.1-0.3,0.1l1.3-0.1
		c-0.1-0.2-0.2-0.1-0.4-0.3c0.2-0.1,0.5-0.2,0.8-0.2c-0.6,0.1,0,0.4,0.2,0.5c0-0.1,0-0.1,0-0.2c0.7,0.4,0.1-0.5,1-0.2l0,0.1
		c0.3-0.1,0.7-0.2,1-0.2c0.2,0.3-0.4,0.1-0.4,0.3c0.5,0,1-0.5,1.5-0.2c-0.2,0.1-0.5,0.1-0.8,0.1c0.5,0.3,0.6,0.2,0.9,0.3l0,0
		l0.9,0.1l-0.2-0.1c0.7-0.7,1.3-0.1,2.2-0.6c-0.8,0.4-0.1,0.2-0.2,0.6c0.2,0.1,0.6,0.2,0.5,0.3c0.4-0.2,0.7,0.2,1.3-0.2
		c0,0.1,0.4,0,0.3,0.3c0.5-0.1-0.1-0.2-0.1-0.3c0.8-0.3,1.9,0.4,3.1,0c1-0.2,1.2-0.5,2.2-0.7c0.3,0.2-0.3,0.4-0.3,0.4
		c0.5,0.1,0.9,0.1,1.4,0c-0.1,0.1,0,0.2,0.1,0.3c0.4,0,0.3-0.4,0.8-0.2c-0.1,0.1-0.2,0.3-0.4,0.4c0.5-0.1,0.9-0.3,1.4-0.4
		c0.1,0.2-0.3,0.3-0.5,0.4c0.5-0.1,1.4-0.1,1.6-0.4l-0.3-0.1c0.2,0,0.1,0.2,0,0.3c-0.5,0.2-0.7-0.1-0.7-0.2l0.3-0.1
		c-0.3-0.6-1.4,0.1-2,0l0.3-0.4l-0.7,0.3c-0.1-0.1-0.2-0.3,0.1-0.4c-0.5-0.2-0.4,0.1-0.9-0.1c0,0,0-0.1,0-0.1l-0.5,0.1
		c0.1-0.1-0.1-0.3,0.2-0.2c-0.9-0.2-1.4,0.3-1.7,0l0.1,0c-1.2,0.1-0.1,0.3-1,0.7l-0.6-0.8l-0.1,0.3c-0.1,0-0.4,0-0.3-0.2
		c-0.5,0.2,0.1,0.1-0.2,0.3c-0.6-0.3-1.6,0.1-1.8-0.4c-0.2,0.2,0.6,0.2-0.1,0.3c-0.2-0.5-0.7,0.1-1.3-0.2c0.2-0.3,0.7-0.1,0.1-0.4
		c-0.3,0.5-1.1-0.1-1.5,0c0,0.4-1,0.1-1.8,0.3c0-0.1-1.4-0.2-2.2-0.3l0-0.1c-0.1,0.4-0.9,0.3-1.4,0.4c0-0.2,0.1-0.3,0.4-0.4l-0.5,0
		c-0.1,0.1-0.3,0.2-0.6,0.2l0.1-0.3c-0.7,0-1.4,0.3-2.2,0.1c-0.1,0.3,0.7,0.7-0.2,0.9c0-0.1-0.1-0.4,0.2-0.4c-0.1,0-0.3,0.1-0.4,0.1
		l0.4-0.2c-0.4-0.1-0.2,0.2-0.5,0.2c0-0.2-0.2-0.1-0.2-0.3c0.1,0,0.3,0.1,0.4,0c-0.4,0-0.8-0.2-0.9-0.3c0,0.1,0,0.3-0.3,0.3
		c-0.7,0-0.2-0.2-0.6-0.3c-0.2,0.1-0.6,0-0.6,0.3c-0.2,0-0.2-0.1-0.3-0.2c-0.3,0.1-1.6,0-1.2,0.3l0.1,0c0,0,0,0-0.1,0c0,0,0,0,0,0h0
		c-1.1,0.3-2.4-0.2-3.5-0.1l0-0.1c-0.7,0.1-1.5,0.1-2,0.3c-0.2,0-0.5-0.2-0.4-0.3c-0.5,0.1-0.6,0.2-1.3,0c0.5-0.2-0.2-0.2,0.5-0.1
		c-0.7-0.1-0.8-0.2-1.5,0c0.2-0.3-0.5-0.3-0.8-0.2l0.5,0.2c-0.4,0-0.7,0-1,0l0.2-0.3c-1.4-0.4-2.5,0.7-3.5,0
		c-0.4,0.2,0.7,0.2,0.4,0.4c-0.6,0-1.3-0.5-1.5-0.5c-0.9-0.2-0.8,0.5-1.7,0.3c0.1,0.1,0.2,0.4-0.5,0.5c-0.6,0-0.8-0.5-0.4-0.6
		c0.2,0,0.2,0,0.2,0.1c0.2,0,0.5-0.1,0.2-0.2l-0.1,0.1c-0.3-0.1-1.2-0.1-1-0.3c-0.5,0.1-0.2,0.2,0.1,0.3c-0.8-0.2-1.3,0-2.1-0.1
		c0.1,0.1,0.3,0.2,0.1,0.2c-1.2-0.2-0.5,0.2-1.4,0.3c-0.5-0.2,0.2-0.4-0.7-0.3c-0.5-0.1-0.1-0.3,0.1-0.4c-0.8,0.2-1.4-0.2-1.8-0.2
		l0.4-0.1c-0.2,0.1-0.4,0.1-0.6,0.1l0.2,0.2c-0.2,0-0.4,0-0.4-0.1c-0.2,0.2,0.2,0.4-0.3,0.6c-0.3-0.1-1,0.1-1.1-0.2
		c1,0.1-0.1-0.3,0.7-0.4c-0.2,0-0.4,0-0.6,0c0,0,0-0.1,0.1-0.1c-0.9-0.3-0.4,0.4-1.4,0.3c0.1-0.2-0.2-0.3-0.4-0.3
		c0.4,0,0.2,0.3-0.2,0.4c-0.6-0.1-0.7,0.1-1,0.1l0.4,0.1c-0.1,0.2-0.4,0.2-0.9,0.2c0-0.1,0.4-0.1,0.2-0.2c-0.5,0.3-1.1-0.3-1.8-0.1
		c-0.3-0.1,0-0.3-0.3-0.4c-0.8,0.2-0.8-0.2-1.6-0.1c0.2,0.2,0.3,0.2-0.3,0.4l1.3-0.2l-0.8,0.3c0.4,0,0.8-0.1,1.1-0.1
		c-0.4,0.2-0.4,0.1-0.2,0.3c-0.5-0.4-1.1,0.2-1.7,0l0-0.6c-0.9-0.3-1.7,0.3-2.9,0.1l0.4,0.1c-0.2,0.2-0.8,0-1.1,0.1
		c0-0.2-0.2-0.3-0.4-0.4c0,0.1-0.9,0-1,0.4l-0.5-0.3c-1-0.1-1.1,0.6-2.1,0.5c0.3-0.2-0.1-0.4,0.5-0.5c-0.3,0-0.6,0-0.6,0.1
		c-0.2-0.1-0.9,0.3-1.2,0.1c-0.1,0.1-0.2,0.3-0.5,0.3c0,0,0-0.1,0-0.1c0,0.1-0.6,0.1-0.2,0.3c-1-0.6-2.7,0-3.6-0.5
		c-0.7,0.1-1.5,0.1-2.1,0.1c0-0.1,0-0.1,0.1-0.1c-0.9-0.2-0.5,0.6-1.5,0.4c-0.5-0.3,0.5-0.2,0.2-0.3c-0.1-0.7-1.2,0.1-1.8-0.3l0.2,0
		c-0.5-0.2-1.2,0.2-2.1,0.2c0,0,0-0.1,0-0.1c-0.6,0.3-1.6,0.4-2.4,0.5c0.2-0.3,0.4-0.1,0.2-0.4c-0.4,0,0.1,0.4-0.6,0.5
		c-0.2-0.1-0.7-0.3-0.8-0.5l0.7,0c-0.3-0.4-0.9,0-1.2-0.1l0-0.2c-1,0-1,0.4-2.1,0.4l0.1,0.1c-0.6,0.4-0.5-0.2-1.1,0.1l-0.2-0.4
		c-0.4,0.1-1.4,0.4-2.1,0.4c0.4-0.3,1.2-0.4,1.8-0.6c-0.4,0-1.3,0-1.5,0.2c0.2,0,0.4-0.1,0.5-0.1c-0.5,0.3-1.1,0.5-1.9,0.4
		c0.1-0.8-2-0.2-2.6-0.8c-1.4,0.3-2.8-0.1-4.4-0.1c0.6,0.6-0.5,0-0.4,0.6c-0.4,0-0.5,0-0.6,0l-1.1-0.4c-0.3-0.2,0.4-0.1,0.3-0.3
		c-0.8-0.1-0.3-0.3-0.9-0.4c0.1,0.2-0.3,0.3-0.8,0.2l0.7,0.3c-1.2,0.3-1-0.5-2.2-0.2l0.4-0.2c-0.6,0.1-2.2,0-2.8,0.5
		c-0.1-0.1-0.2-0.2,0-0.3c-1.4-0.1-3.2,0.5-4.3,0.2l0.1-0.1c-0.3,0-0.5,0.3-0.8,0.1c0-0.1,0.1-0.1,0-0.2c-0.1,0.1-0.7,0.3-1.1,0.2
		l0.3-0.2c-1.4-0.2-2.1,0.4-3.3,0.5c0-0.4-1.1-0.6-1.6-0.7l0-0.1c-1.6-0.1-2.8,0.3-4.3,0.5c-0.9-0.5-3.1-0.2-4.6-0.5
		c0.2,0.1,0,0.3-0.3,0.4c-0.4-0.1-1,0.3-0.9-0.1l0.1,0c-0.3-0.4-1-0.3-1.5-0.3l-0.1,0.5c-1.5-0.8-3.9,0.3-4.7-0.4
		c-0.4,0.1-0.8,0.1-1.1,0.3l0-0.3c-1-0.1-1.5-0.1-2.7-0.1l0.2-0.2c-0.7,0-0.9,0.8-1.5,0.8l-0.2-0.4c-1.2,0-2.4-0.4-3.6,0
		c0-0.1,0.1-0.2,0.2-0.2c-0.6,0-2.2-0.3-2,0.3c0-0.4-1.2,0-1.9,0.1l0.1-0.3c-0.5,0.4-0.6,0.4-1.3,0.5c-0.2,0-0.2-0.2,0.1-0.2
		c-0.6-0.1-0.5,0.3-1.2,0.1l0.3-0.2c-0.6,0-0.6,0.1-0.9,0.3c-0.4,0.1-1.2-0.1-1.3-0.3c-0.1,0.2-0.4,0.4-0.8,0.3
		c0-0.1,0.1-0.2,0.2-0.2c-1-0.2-1.5,0.3-2.3,0c0-0.1-0.1-0.1-0.1-0.2c0.8,0,1.5,0,1.4,0.1c0-0.3-0.7-0.3-0.1-0.7
		c-0.5,0.2-1.4,0.6-2.1,0.5c0,0-0.1,0-0.1-0.1l0.1,0c-0.1,0-0.3,0-0.4,0c-0.2,0-0.3-0.1-0.5-0.1c-0.1-0.2-0.8-0.1-1.1-0.1
		c0,0.3-0.4,0.2,0,0.5c-0.1,0,0.1,0,0.3,0c0,0,0.1,0,0.1,0c0,0,0,0,0,0c0.2,0,0.5,0,0.8,0c-0.3,0.1-0.5,0.3-0.9,0.1
		c-0.2,0.2-0.4,0.4-0.5,0.5c-0.5-0.4-1.3-0.6-1.4-0.9c-1,0.2-2.4,0.1-3,0.6c-0.3,0.1-0.3-0.2-0.4-0.2c0.2-0.1,0.4,0,0.5-0.1
		c-0.6,0.1-1.7,0-1.8,0.4c-0.7-0.2,0.4-0.3-0.6-0.3l0.1-0.1c-2-0.6-3.2,0.9-5.4,0.1c0.2,0,0.2,0.1,0.3,0.1c-2.5-0.3-5.1,0.3-7.5-0.3
		c-0.7-0.1-0.8,0.1-1.2,0.3l-0.1-0.3l-0.7,0.3c-1,0.2-1.8-0.8-3.1-0.3l0.2,0.2c-0.5,0-1.5,0.1-1.4-0.1c0,0-0.2,0.2-0.3,0.1l0-0.2
		l-1.2,0.3c-0.9-0.1,0.1-0.6-1.2-0.7c-0.5,0.1-1.4,0.5-1.2,0.6c0.2,0,0.5,0.1,0.5,0.3l-0.4,0.1c-0.1,0.5-0.4,0.9,0.7,1.3l0.8-0.3
		l0.2,0.2l-0.6,0c0.4,0.2,0.6,0,0.8-0.1c0.1,0.1,0.2,0.2,0.3,0.3l0.7-0.4c0.1,0.2-0.3,0.4,0.2,0.5c0.3-0.2-0.3-0.4,0.2-0.5
		c0.4,0.2,0.3,0.4,0.7,0.2c0.1,0.1,0,0.2-0.2,0.2c0.4-0.1,1-0.1,1.2-0.3c0.4,0.3,1.3-0.1,1.2,0.4c0.1-0.1,0.7-0.3,1-0.4
		c-0.6,0.5,1.3,0,1.1,0.6c0.5-0.5,1.7-0.2,2.5-0.5c0,0-0.1,0.1-0.2,0.1c0.5,0,0.6,0.2,0.9,0.3c0.1-0.4,0.8-0.5,1.2-0.7
		c0.6,0.4-0.4,0.5-0.2,0.8c0-0.3,1-0.3,0.8-0.6c0.4,0.2,0.4,0.1,0.6,0.4c0.1-0.5,0.4-0.1,0.8-0.4c0.6,0.2,0.2,0.5,0.9,0.3
		C-139,397.9-139.7,398.1-139.7,398.1z M-123.1,397.4C-123.1,397.4-123.1,397.4-123.1,397.4c-0.1,0-0.3,0-0.3,0
		C-123.3,397.4-123.2,397.4-123.1,397.4z M-121.7,397.4c-0.2,0-0.4,0-0.6,0c0-0.1,0-0.2,0.1-0.2
		C-122.2,397.2-121.9,397.3-121.7,397.4z M-124.6,395.4c0.2,0,0.3,0,0.3,0.1c-0.1,0-0.2,0-0.4,0c0,0,0,0,0,0
		C-124.7,395.5-124.7,395.4-124.6,395.4z"/>
	<path d="M-125,395.8C-125,395.8-125.1,395.8-125,395.8C-125.1,395.8-125,395.8-125,395.8c0.1,0.1,0.1,0,0.1,0
		C-124.9,395.8-125,395.8-125,395.8z"/>
	<path d="M1.2,397L1.2,397C1.2,397,1.2,397,1.2,397C1.2,397,1.2,397,1.2,397z"/>
	<polygon points="-102.5,398 -102.5,398 -102.6,398 	"/>
	<path d="M8.9,398c0,0,0,0.1,0.1,0.1C9,398.1,8.9,398,8.9,398z"/>
	<path d="M12.2,398.1l0.5,0.1C12.5,398.1,12.3,398.1,12.2,398.1z"/>
	<path d="M14.7,398.3c0,0,0-0.1,0.1-0.1c0,0,0,0,0,0L14.7,398.3z"/>
	<path d="M-25.8,398.3C-25.8,398.3-25.8,398.3-25.8,398.3C-26.1,398.4-25.9,398.4-25.8,398.3z"/>
	<path d="M-13.7,397.7c-0.1,0.1-0.3,0.1-0.4,0.1C-13.9,397.9-13.7,397.9-13.7,397.7z"/>
	<path d="M-39.2,398.6C-39.2,398.6-39.2,398.6-39.2,398.6C-39.3,398.6-39.3,398.6-39.2,398.6L-39.2,398.6z"/>
	<path d="M-14.7,397.9c0.2,0.1,0.4,0,0.6,0C-14.3,397.9-14.5,397.8-14.7,397.9z"/>
	<path d="M25.8,398.5l0.1,0c0,0,0,0,0,0L25.8,398.5z"/>
	<path d="M25.9,398.4l0.1,0C26,398.4,25.9,398.4,25.9,398.4z"/>
	<path d="M26.3,398.3l-0.3,0.1C26.1,398.4,26.3,398.4,26.3,398.3z"/>
	<path d="M22.4,398.3l0,0.1C22.4,398.4,22.4,398.4,22.4,398.3z"/>
	<path d="M21.4,398.3c0.2,0,0.6,0.2,1,0.2l0-0.1C22.2,398.6,21.6,398.2,21.4,398.3z"/>
	<path d="M17.1,397l0.9,0.1c-0.1-0.1-0.3-0.3,0-0.3C16.9,396.5,18.2,397.1,17.1,397z"/>
	<path d="M14.4,396.9c0.5,0,0-0.2,0-0.2C14.2,396.7,14.1,396.8,14.4,396.9z"/>
	<path d="M-4.8,396.7l0-0.3C-5.1,396.5-4.7,396.6-4.8,396.7z"/>
	<polygon points="-8.5,398 -8.1,398.2 -8,398 	"/>
	<polygon points="-10.6,396.2 -10.5,396.2 -11.1,396.3 	"/>
	<path d="M-43,396.1l0.1,0.3C-42.6,396.3-42.6,396-43,396.1z"/>
	<path d="M-56.9,396.3c-0.2-0.2-0.5-0.3-0.8-0.1C-57.4,396.2-57.1,396.3-56.9,396.3z"/>
	<polygon points="-98.7,395.5 -98.5,395.4 -99,395.5 	"/>
</g>
</svg>
