<?xml version="1.0" encoding="utf-8"?>
<!-- Generator: Adobe Illustrator 24.1.2, SVG Export Plug-In . SVG Version: 6.00 Build 0)  -->
<svg version="1.1" id="Capa_1" xmlns="http://www.w3.org/2000/svg" xmlns:xlink="http://www.w3.org/1999/xlink" x="0px" y="0px"
	 viewBox="0 0 231.62 82.28" style="enable-background:new 0 0 231.62 82.28;" xml:space="preserve">
<style type="text/css">
	.st0{fill:#231F20;}
	.st1{fill:#202020;}
</style>
<g>
	<path class="st0" d="M54.63,45.86v1.29c0,1.52,1.26,2.77,2.77,2.77h2.16c1.64,0,2.81-1.03,2.81-2.45c0-4.45-10.64-5.42-10.64-11.54
		c0-3.16,2.48-5.35,6-5.35h1.52c3.32,0,6.03,2.68,6.03,6v0.97h-3.22v-0.97c0-1.55-1.26-2.77-2.8-2.77h-1.52
		c-1.74,0-2.77,0.81-2.77,2.13c0,3.42,10.64,4.74,10.64,11.54c0,3.22-2.61,5.67-6.03,5.67H57.4c-3.32,0-6-2.68-6-6v-1.29H54.63z"/>
	<path class="st0" d="M84.94,36.38v1.93c0,3.22-2.58,5.8-5.8,5.8h-5.16v9.03h-3.22V30.58h3.22h5.16
		C82.36,30.58,84.94,33.16,84.94,36.38z M81.71,36.38c0-1.45-1.13-2.58-2.58-2.58h-5.16v7.09h5.16c1.45,0,2.58-1.13,2.58-2.58V36.38
		z"/>
	<path class="st0" d="M95.9,53.15c-3.19,0-5.8-2.64-5.8-5.84V36.38c0-3.22,2.61-5.8,5.8-5.8h2.58c3.22,0,5.8,2.58,5.8,5.8v10.93
		c0,3.19-2.58,5.84-5.8,5.84H95.9z M101.06,47.31V36.38c0-1.45-1.13-2.58-2.58-2.58H95.9c-1.45,0-2.58,1.16-2.58,2.58v10.93
		c0,1.42,1.16,2.58,2.58,2.58h2.58C99.9,49.89,101.06,48.73,101.06,47.31z"/>
	<path class="st0" d="M123.63,33.8h-5.48v19.35h-3.22V33.8h-5.48v-3.22h8.7h5.48V33.8z"/>
	<path class="st0" d="M137.5,33.8v16.12h5.48v3.22h-8.71h-5.48v-3.22h5.48V33.8h-5.48v-3.22h8.71h5.48v3.22H137.5z"/>
	<path class="st0" d="M151.37,33.8v6.87h9.67v3.22h-9.67v9.25h-3.22V40.67V30.58h14.19v3.22H151.37z"/>
	<path class="st0" d="M181.68,30.58v7.35l-5.48,7.19v8.03h-3.22v-8.03l-5.48-6.8v-7.74h3.22v6.58l3.8,4.74h0.06l3.87-5.06v-6.25
		H181.68z"/>
</g>
<g>
	<path class="st1" d="M101.95,14.24c-0.28,0.11-0.1,0.29,0.68,0.2l0.53-0.37L101.95,14.24z"/>
	<path class="st1" d="M107.3,14.49c0.91-0.22,1.97-0.58,1.35-0.84c-0.9,0.38-1.13,0.26-2.09,0.71c-0.79,0.09-1.38-0.01-1.26-0.14
		c-0.27,0.1-1.23,0.01-1.64,0.25c1.04,0.18,2.34,0.11,3.68-0.2C107.63,14.32,107.36,14.43,107.3,14.49z"/>
	<path class="st1" d="M184.21,17.25l-0.49-0.1C183.86,17.19,184.02,17.23,184.21,17.25z"/>
	<path class="st1" d="M226.54,31.61c-0.09-0.34-0.16-0.47-0.19-0.48C226.45,31.44,226.53,31.69,226.54,31.61z"/>
	<path class="st1" d="M226.25,39.41c0.04-0.17,0.07-0.3,0.1-0.45C226.29,39.13,226.25,39.3,226.25,39.41z"/>
	<path class="st1" d="M184.21,17.25l1.25,0.25C185.57,17.41,184.83,17.35,184.21,17.25z"/>
	<path class="st1" d="M117.89,13.15c-0.27,0.03-0.49,0.06-0.69,0.11c0.22-0.02,0.43-0.04,0.65-0.06
		C117.86,13.19,117.87,13.17,117.89,13.15z"/>
	<path class="st1" d="M163.25,15.48l-0.39-0.03c-0.12,0.03-0.23,0.07-0.33,0.11L163.25,15.48z"/>
	<path class="st1" d="M147.14,14.7c0.36,0.02,0.5-0.25,0.64-0.37c-0.21,0.11-0.48,0.15-0.8,0.17
		C146.97,14.55,147.02,14.61,147.14,14.7z"/>
	<path class="st1" d="M121.55,14.16l-0.45,0.05C121.21,14.2,121.41,14.18,121.55,14.16z"/>
	<path class="st1" d="M174.75,16.54c0.02,0.04,0.08,0.09,0.14,0.11C174.89,16.61,174.84,16.58,174.75,16.54z"/>
	<path class="st1" d="M126.56,3.74c-0.01,0.02,0.01,0.03,0,0.05C126.66,3.76,126.68,3.74,126.56,3.74z"/>
	<path class="st1" d="M145.33,4.63l-0.26,0.02c-0.03,0.05-0.05,0.11-0.05,0.16L145.33,4.63z"/>
	<path class="st1" d="M220.37,52.41c0.02-0.02,0.02-0.03,0.04-0.05C220.6,52.03,220.49,52.21,220.37,52.41z"/>
	<path class="st1" d="M91.07,75.07c1.53,0.34-2.54,0.18-0.22,0.59C90.63,75.53,92.99,75.34,91.07,75.07z"/>
	<path class="st1" d="M118.31,13.17c0.22-0.01,0.44-0.02,0.66-0.03C118.67,13.15,118.46,13.16,118.31,13.17z"/>
	<path class="st1" d="M90.84,75.66L90.84,75.66l0.24,0.04C90.98,75.68,90.93,75.67,90.84,75.66z"/>
	<path class="st1" d="M192.78,70.33c0.08,0.03,0.22,0.03,0.37,0.02C193.13,70.32,193.04,70.31,192.78,70.33z"/>
	<path class="st1" d="M215.11,59.12l-0.49,0.39C214.82,59.37,214.97,59.24,215.11,59.12z"/>
	<path class="st1" d="M180.01,73.65c-0.34,0.04-0.46,0.02-0.92,0.14c0.05,0.01,0.09,0.01,0.15,0.01
		C179.4,73.73,179.62,73.67,180.01,73.65z"/>
	<path class="st1" d="M166.36,75.54c0.08,0.01,0.17,0.02,0.26,0.03c0.14-0.02,0.29-0.04,0.43-0.06L166.36,75.54z"/>
	<path class="st1" d="M84.48,6.02c0.31,0.05,0.5,0.13,0.66,0.2C84.9,6.03,86.93,5.8,84.48,6.02z"/>
	<path class="st1" d="M117.9,13.31c0.08-0.07,0.2-0.11,0.41-0.14c-0.16,0.01-0.31,0.02-0.46,0.03
		C117.81,13.25,117.8,13.29,117.9,13.31z"/>
	<path class="st1" d="M179.84,75.93c-0.73,0.13-1.46,0.22-2.2,0.32C178.26,76.18,179.06,76.08,179.84,75.93z"/>
	<path class="st1" d="M4.44,48.65L4.2,48.17C4.27,48.36,4.36,48.54,4.44,48.65z"/>
	<path class="st1" d="M171.14,77.23c-0.4-0.04-0.83-0.06-1.26-0.05c-0.09,0.03-0.19,0.06-0.25,0.1
		C170.13,77.27,170.64,77.26,171.14,77.23z"/>
	<path class="st1" d="M85.14,6.22L85.14,6.22L85.14,6.22z"/>
	<path class="st1" d="M99.58,4.58c-2.1,0.11-0.96,0.42-1.4,0.66c-2.5,0.25-1.17-0.2-2.04-0.34c-1.56,0.2-2.73,0.62-3.9,0.68
		c-0.09-0.06-0.32-0.06-0.06-0.16c-1.63,0.4-4.9,0.36-6.79,0.88c-0.15-0.02-0.22-0.05-0.26-0.07c0.33,0.16,0.39,0.34,0.34,0.48
		c-0.94,0.08-1.72,0.38-2.09,0.16c0.58-0.04,0.61-0.14,0.88-0.24l-0.97,0.19c-0.91-0.27,1.33-0.23,1.31-0.49
		C82.69,6.59,80.48,7.06,79,7.11c-0.34-0.31,3.42-0.43,1.44-0.55l2.28-0.06c-1.78-0.39,1.38-0.08-0.26-0.52
		c-3,0.15-3.33,0.47-6.33,0.64c-0.65,0.26,0.25,0.26-0.4,0.51c-4.2,0.77-3.42-0.52-6.49,0.28c-0.78,0.32-1.04,0.77-3.28,0.81
		l0.71-0.47c-2.9,0.32-1.58,0.74-4.64,0.88c0.52-0.23,2.25-0.42,1.81-0.41c-2-0.05-1.36,0.4-2.86,0.6l-0.36-0.29
		c-3.07,0.48-6.41,1.25-9.77,1.97c0.17-0.14,0.73-0.35-0.08-0.3c-4.23,0.98-9.08,1.93-13.17,2.98l-1.45,0.76
		c-0.36,0.11-0.7,0.08-0.33-0.09c-1.6,0.41-0.02,0.2-0.73,0.56c-0.87,0.33-1.22,0.25-0.69-0.03C31.7,15.5,26.9,17.85,24.06,19
		l0.49-0.35c-2.19,0.97-2.1,1.76-4.14,2.63l0.34-0.26c-4.54,2.49-8.96,6.13-11.94,8.87c-0.1,0.42-0.99,1.38-1.76,2.37
		c-0.76,1-1.38,2.06-1.21,2.35C5,35.87,4.71,36.35,4.36,36.97c-0.3,0.64-0.78,1.41-1.23,3.61c-0.16,1.2,0.18,1.81,0.34,3.24
		l-0.3,0.06c0.15,0.66,0.38,1.29,0.61,1.91L3.68,46.9c0.16,0.43,0.34,0.85,0.52,1.27c-0.17-0.52-0.25-1.14-0.14-1.08
		c0.38,0.99,0.85,2.16,1.26,3.11c0.42,0.93,0.74,1.64,0.7,1.7c1,1.33,2.13,2.53,3.33,3.62c-0.17,0.02-0.77-0.54-1.26-0.98
		c0.99,0.87,1.04,0.98,1.04,1.11c0.01,0.11-0.03,0.25,0.95,0.96c-0.19-0.27,0.25-0.02,0.33-0.03c0.37,0.47,1.08,1.14,1.91,1.82
		c0.84,0.67,1.8,1.32,2.63,1.85l-0.43-0.04c2.91,2.08,6.47,3.85,10.12,5.44c-1.27-0.67-0.81-0.86,0.26-0.43l0.3,0.48
		c0.77,0.11-1.07-0.59,0.44-0.21c1.34,0.6,0.78,0.73-0.05,0.5c0.56,0.21,1.14,0.38,1.71,0.57c0.06,0.13-0.35,0.02-0.5,0.1
		c0.75,0.09,2.8,1.43,3.93,1.42l0.06,0.12c3.76,1.26,5.53,1.61,8.64,2.4c0.13-0.25,1.33,0.1,2.31,0.11
		c2.27,0.63,4.77,1.38,7.55,1.91c1.98,0.23,0.62-0.13,1.52-0.12c0.1,0.28,2.88,0.78,1.4,0.69c3.35,0.54,4.28,0.71,8.56,1.13
		c-0.45-0.17-0.96-0.3-0.68-0.34c0.77,0.07,1.73,0.37,1.61,0.47l-0.21,0c4.81,0.3,10.94,2.11,14.82,1.92l-0.22,0.01l3.98,0.07
		c1.82,0.18-1.11,0.11,0.23,0.37c4.3-0.09,6.75,0.56,10.29,0.48c2.69,0.93,9.67,0.43,13.33,1.05l-0.21-0.19
		c0.96-0.14,1.15,0.14,1.85,0.21c-0.09-0.14-1.03-0.2-0.43-0.27c8.06,0.06,16.6,0.8,24.88,1.09c3.03,0.09,1.73-0.89,5.54-0.44
		l-1.08,0.32c6.11-0.35,12.5-0.01,18.47-0.61c-0.35,0.09-0.36,0.19-0.94,0.21c1.27,0.21,4.68-0.22,4.68-0.41
		c0.93-0.03,0.23,0.17,0.81,0.23c1.28,0.07,3.16-0.53,3.85-0.34c0.12,0.03-0.35,0.1-0.58,0.14c0.82-0.16,3.85-0.29,3.03-0.5
		c2.26-0.05,4.27-0.54,6.07-0.58c1.13-0.43,3.84-0.35,4.15-0.83c-0.1,0.49,3.96-0.23,5.33-0.67c-0.45,0.22,1.24-0.08,0.73,0.2
		c1.6-0.3,3.05-0.65,2.73-0.83c3.06-0.03,5.8-1.67,7.6-1.44c4.64-1.46,8.87-3.05,12.8-4.96c0.02,0.23-1.07,0.76-2.16,1.2
		c-1.07,0.47-2.13,0.85-1.95,1.05c3.83-1.67,5.85-3.02,9.48-4.97c0.96-0.48-0.43,0.47-0.7,0.72c3.53-2.2,6.85-4.37,9.38-7.13
		c0.02,0.04-0.23,0.36-0.49,0.63c0.54-0.5,1.27-1.15,1.07-1.23l-0.47,0.54c-0.52,0.3-0.11-0.32,0.42-1.04
		c0.53-0.71,1.12-1.58,1.11-1.68c-0.21,0.64,0.47,0.03,1.02-0.58c0.57-0.59,1.1-1.11,0.75-0.12c0.28-0.4,0.59-0.93,0.41-0.93
		c0.46-0.55,0.66-0.68,0.35,0c0.75-1.09,0.94-1.48,1.1-1.85c0.16-0.37,0.34-0.68,0.97-1.69c0.08,0.06-0.13,0.5-0.18,0.76
		c0.49-1.13,0.94-2.25,1.91-4.01c0,0.13,0.19-0.03-0.1,0.5c0.38-0.78,0.67-1.53,0.94-2.26c0.22-0.75,0.47-1.45,0.64-2.19
		c0.17-0.74,0.38-1.47,0.54-2.27c0.09-0.4,0.18-0.8,0.28-1.22c0.08-0.43,0.17-0.87,0.27-1.33c0.12,0.58,0.21,0.27,0.32-0.21
		c0.11-0.48,0.18-1.13,0.38-1.21c0.04-0.69,0.07-1.38,0.04-2.07c-0.06,0.28-0.14,0.55-0.21,0.82c0.11-1.81-0.26-3.39-0.42-4.93
		c0.13,0.43,0.25,0.87,0.35,1.31c-0.15-1.13-0.4-2.25-0.78-3.33c0.17,0.63,0.27,1.27,0.35,1.9c-0.28-0.88-0.4-0.79-0.48-0.79
		c-0.1,0-0.12-0.09-0.45-1.22c0.1,0.22-0.04-0.2-0.26-0.78c-0.21-0.59-0.57-1.3-0.74-1.76l0,0c-0.6-0.69-1.25-1.32-2.19-2.24
		c-0.2-0.31,0.48-0.14,0.36-0.34c-0.45-0.17-1.32-0.81-2.3-1.3c-0.97-0.5-2.02-0.87-2.6-0.89c0.37,0.05,0.46-0.13,0.36-0.2
		c-0.26,0-0.52-0.01-0.77,0c-0.76-0.33-0.87-0.39-0.69-0.51c-2.38-0.69,0.64,0.63-2.15-0.28c0.23,0.03,0.13-0.03,0.6,0.04
		c-2.84-0.78-5.54-0.94-8.14-1.58c-0.71-0.52,2.31,0.34,1.48-0.14c-1.9-0.33-3.88-0.58-5.84-0.81c-1.96-0.23-3.9-0.52-5.74-0.83
		l0.68,0.15c-0.59,0.45-2.7-0.68-4.6-0.72c0.46,0.03,0.64-0.2,0.51-0.16c-2.51-0.49-5.18-0.59-9.03-0.96l0.49-0.07
		c-1.47-0.31-3.92-0.54-5.52-0.79c-0.49,0.08-1.41-0.05-0.87,0.21c-2.44-0.67-4.83-0.78-7.15-0.91c-2.32-0.1-4.56-0.13-6.75-0.65
		c0.53,0.04,1.27-0.01,0.85-0.05c-1.26-0.07-2.52-0.12-3.78-0.16c0.28,0.25,0.48,0.17,1.26,0.41c-0.49,0.1-1.56,0.14-2.49,0.08
		c1.71-0.04,0.01-0.37-0.71-0.55c0.12,0.08-0.14,0.14-0.08,0.22c-1.94-0.54-0.36,0.44-3.03-0.02l0.15-0.11
		c-1.01,0.01-1.95,0.12-3.03,0.03c-0.44-0.29,1.08-0.07,1.16-0.29c-1.53-0.06-3.04,0.35-4.4,0.02c0.65-0.04,1.58,0,2.23-0.04
		c-1.49-0.39-1.67-0.32-2.78-0.42l0.11,0.01l-2.58-0.24l0.66,0.11c-1.94,0.64-3.9-0.02-6.48,0.38c2.51-0.38,0.42-0.24,0.62-0.54
		c-0.66-0.1-1.65-0.21-1.37-0.29c-1.22,0.22-2.03-0.23-3.76,0.1c-0.08-0.1-1.3-0.03-1.03-0.27c-1.59,0.05,0.37,0.17,0.24,0.3
		c-2.44,0.32-5.74-0.43-9.25,0.07c-3.03,0.25-3.58,0.57-6.38,0.81c-0.95-0.12,0.77-0.38,0.77-0.38c-1.53-0.09-2.68-0.02-4.12,0.14
		c0.29-0.1-0.01-0.16-0.46-0.25c-1.16,0.07-0.76,0.38-2.29,0.29c0.26-0.12,0.59-0.3,1.14-0.43c-1.36,0.13-2.7,0.39-4.1,0.55
		c-0.38-0.15,0.84-0.3,1.33-0.44c-1.58,0.16-4.1,0.37-4.57,0.66l1.02,0.04c-0.58,0.04-0.31-0.22,0.11-0.29
		c1.35-0.28,1.96-0.01,2.04,0.09l-1,0.11c1.06,0.52,4.02-0.32,6.05-0.33l-0.83,0.44l2.06-0.42c0.44,0.09,0.75,0.31-0.24,0.41
		c1.45,0.16,1.28-0.19,2.53-0.01c0.14,0.03,0.08,0.05-0.05,0.07l1.41-0.17c-0.27,0.1,0.24,0.29-0.63,0.26
		c2.54,0.17,4.09-0.39,5.05-0.1l-0.21,0.03c3.52-0.2,0.34-0.31,2.98-0.71l1.78,0.75l0.35-0.31c0.36,0.01,1.08,0.03,0.95,0.16
		c1.35-0.21-0.23-0.13,0.55-0.33c1.75,0.26,4.83-0.12,5.22,0.39c0.63-0.22-1.67-0.21,0.2-0.34c0.53,0.53,2.16-0.05,3.75,0.21
		c-0.5,0.26-2.01,0.09-0.41,0.36c0.97-0.45,3.11,0.18,4.45,0.14c0.07-0.35,2.93-0.07,5.2-0.08c-0.15,0.12,4.24,0.4,6.33,0.66
		l-0.07,0.06c0.43-0.34,2.59-0.12,4.17-0.09c-0.08,0.22-0.37,0.28-1.23,0.32l1.48,0.1c0.36-0.09,0.82-0.12,1.79-0.1l-0.39,0.25
		c1.97,0.13,3.99,0.01,6.51,0.4c0.17-0.24-1.95-0.88,0.74-0.82c0.09,0.15,0.16,0.39-0.54,0.39c0.23,0,0.83-0.05,1.29,0.06
		l-1.09,0.14c1.14,0.2,0.62-0.15,1.54-0.03c-0.04,0.19,0.67,0.21,0.52,0.35c-0.24,0-0.8-0.16-1.16-0.12
		c1.04,0.14,2.28,0.38,2.68,0.58c-0.08-0.12,0.03-0.26,0.79-0.21c1.97,0.19,0.65,0.3,1.78,0.52c0.49-0.09,1.73,0.18,1.79-0.11
		c0.57,0.07,0.66,0.22,0.88,0.33c1.03-0.01,4.75,0.53,3.64,0.08l-0.26-0.05c0.05,0,0.11,0,0.17,0.01c-0.01,0,0,0-0.01,0l0.01,0
		c3.37,0.09,6.89,1.07,10.2,1.4l-0.02,0.1c1.98,0.19,4.38,0.6,5.81,0.61c0.58,0.09,1.34,0.41,1.07,0.48
		c1.51,0.18,1.69,0.1,3.83,0.63c-1.53-0.09,0.49,0.24-1.56-0.14c1.93,0.42,2.34,0.63,4.47,0.75c-0.75,0.12,1.4,0.59,2.33,0.69
		l-1.32-0.43c1.04,0.16,1.94,0.35,2.86,0.55l-0.56,0.23c1.94,0.57,3.77,0.72,5.41,0.98c1.64,0.25,3.17,0.63,4.34,1.55
		c0.51,0.11,0.06-0.15-0.41-0.41c-0.48-0.25-0.98-0.5-0.5-0.46c1.71,0.68,2.94,2.12,3.3,2.46c0.81,0.8,1.2,1.14,1.64,1.5
		c0.43,0.36,0.88,0.78,1.34,1.95c-0.01-0.17,0.02-0.36,0.17-0.29c0.14,0.07,0.43,0.39,0.78,1.31c0.44,1.8-0.01,2.27-0.3,1.19
		c-0.1-0.41-0.13-0.61-0.08-0.61c-0.19-0.54-0.48-1.22-0.39-0.53l0.18,0.18c0.2,0.85,0.5,3.25,0.23,2.71
		c0.22,1.31,0.26,0.55,0.2-0.44c0.09,2.26,0.18,3.56-0.22,5.91c0.12-0.36,0.28-0.7,0.24-0.32c-0.72,3.43-0.02,1.56-0.5,3.91
		c-0.57,1.25-0.27-0.58-0.84,1.75c-0.64,1.32-0.38,0.18-0.31-0.39c-0.49,2.12-1.64,3.68-2.27,4.72l0.44-1.04
		c-0.26,0.62-0.52,1.11-0.79,1.61l0.51-0.46c-0.33,0.58-0.64,1.05-0.72,0.99c-0.22,0.67,0.62-0.26,0.09,1.04
		c-0.56,0.71-1.41,2.38-1.87,2.43c1.73-2.24-0.41,0.08,0.89-1.91c-0.23,0.4-0.52,0.87-0.96,1.39c-0.09,0.06,0-0.11,0.1-0.27
		c-1.84,1.96-0.43,1.22-2.24,3.36c0.11-0.38-0.69,0.25-0.97,0.61c0.76-0.82,0.59-0.2-0.02,0.66c-1.38,1.18-1.32,1.46-2.04,2.08
		c0.28-0.23,0.57-0.45,0.84-0.68c-0.15,0.38-0.83,0.99-1.76,1.85c-0.16-0.03,0.82-0.82,0.43-0.57c-0.87,1.16-2.64,1.78-4.14,3.03
		c-0.82,0.41-0.26-0.23-0.96,0.15c-1.73,1.35-2.12,1.05-4.04,2.31c0.7-0.1,0.78-0.21-0.55,0.76c1.1-0.63,2.18-1.29,3.23-1.99
		c-0.64,0.51-1.28,1.02-1.94,1.51c1.01-0.55,2.04-1.32,2.63-1.66c-0.88,0.78-0.82,0.67-0.24,0.55c-1.53,0.5-2.61,1.76-4.37,2.34
		l-0.21-0.55c-2.55,0.94-4.28,2.3-7.69,3.33l1.11-0.28c-0.37,0.39-2.06,0.76-3.14,1.19c0.04-0.22-0.67-0.08-1.17-0.06
		c0.1,0.14-2.5,0.7-2.72,1.16l-1.61,0.14c-2.82,0.57-3.07,1.31-5.82,1.79c0.78-0.38-0.48-0.26,1.3-0.78
		c-0.91,0.18-1.73,0.31-1.72,0.45c-0.55-0.02-2.48,0.72-3.35,0.69c-0.37,0.16-0.46,0.39-1.49,0.53c-0.12-0.02-0.01-0.1-0.01-0.1
		c0.01,0.1-1.59,0.38-0.66,0.46c-2.91-0.11-7.93,1.14-10.46,0.88c-2.01,0.26-4.44,0.56-6.27,0.69c0.11-0.07,0-0.1,0.35-0.1
		c-2.54-0.01-1.52,0.7-4.42,0.65c-1.49-0.24,1.52-0.26,0.6-0.33c-0.44-0.63-3.48,0.29-5.44-0.03l0.47-0.06
		c-1.49-0.15-3.61,0.38-6.04,0.39c0,0,0.12-0.06,0.01-0.1c-1.65,0.36-4.8,0.52-7.14,0.61c0.73-0.26,1.06-0.14,0.62-0.39
		c-1.05,0.04,0.31,0.41-1.79,0.49c-0.68-0.13-2.19-0.27-2.39-0.55l1.97,0c-1.01-0.36-2.55,0-3.59-0.07l0.13-0.15
		c-3.02,0.02-3.07,0.41-6.32,0.33l0.33,0.12c-1.79,0.35-1.49-0.25-3.27,0l-0.53-0.41c-1.17,0.07-4.12,0.28-6.23,0.29
		c1.2-0.26,3.67-0.34,5.19-0.48c-1.16-0.03-3.95-0.07-4.56,0.11c0.47-0.02,1.06-0.11,1.52-0.03c-1.43,0.27-3.32,0.37-5.63,0.3
		c0.43-0.75-6.04-0.38-7.69-1.03c-4.11,0.14-8.12-0.42-12.88-0.62c1.66,0.68-1.39-0.05-1.13,0.57c-1.11-0.02-1.54-0.06-1.63-0.1
		l-3.34-0.57c-0.78-0.23,1.06-0.07,0.97-0.21c-2.42-0.21-1-0.33-2.59-0.59c0.31,0.24-0.87,0.26-2.24,0.08l1.93,0.42
		c-3.41,0.09-2.89-0.72-6.33-0.67l1.09-0.1c-1.76-0.02-6.45-0.57-8.21-0.27c-0.3-0.1-0.69-0.31,0.08-0.28
		c-4.16-0.51-9.34-0.55-12.52-1.36l0.34-0.1c-0.78-0.07-1.39,0.08-2.33-0.22c0.06-0.05,0.33-0.1-0.02-0.16
		c-0.42-0.02-2.09-0.09-3.1-0.34l0.9-0.02c-2-0.42-3.56-0.62-5.04-0.76c-1.49-0.13-2.9-0.25-4.59-0.56c0.1-0.42-3.01-1.23-4.54-1.7
		l0.07-0.05c-4.58-1.19-7.86-1.7-12.04-3.05c-1.19-0.69-3.31-1.57-5.55-2.66c-2.24-1.08-4.6-2.39-6.33-3.67
		c0.51,0.43-0.27,0.23-0.95-0.15c-0.79-0.64-2.48-1.37-2.1-1.6l0.28,0.22c-0.38-0.76-2.06-1.94-3.19-3.06l-0.56,0.19
		c-1.23-1.75-3.03-3.78-4.15-5.96c-0.57-1.08-0.97-2.17-1.18-3.14c-0.18-0.97-0.2-1.8-0.03-2.34c-0.18-0.95-0.02-2.14,0.04-3.12
		l0.27,0.11c0.34-1.29,0.73-2.22,1.19-3.2c0.5-0.97,1.06-2.01,2.05-3.4c-0.09,0.22-0.16,0.45-0.24,0.68
		c1.13-1.51,0.84-2.44,2.08-3.8l0.69-0.09c1.22-1.21,2.58-2.27,4.01-3.26c0.71-0.5,1.42-1,2.11-1.53c0.71-0.5,1.41-1,2.08-1.55
		c-0.01,0.08-0.03,0.24-0.5,0.56c0.35-0.21,0.86-0.53,1.42-0.87c0.58-0.31,1.21-0.66,1.78-0.98c1.11-0.67,2-1.18,1.6-1.31
		c0.11,0.16,0.91-0.24,1.89-0.81c0.99-0.55,2.18-1.22,3.01-1.69l-0.16,0.38c1.3-0.99,1.34-1.05,3.37-1.99
		c0.51-0.16,0.51,0.04-0.17,0.23c1.69-0.5,1.2-0.72,3.26-1.31l-0.69,0.44c1.71-0.59,1.55-0.62,2.44-1.12
		c0.53-0.23,1.36-0.47,2.1-0.63c0.74-0.14,1.39-0.21,1.56-0.12c0.19-0.21,1.1-0.69,2.16-0.89c0.16,0.06-0.2,0.21-0.38,0.29
		c1.5-0.27,2.58-0.62,3.55-0.93c0.97-0.28,1.84-0.53,2.89-0.62c0.06,0.08,0.2,0.1,0.38,0.09c-2.36,0.5-4.26,0.92-4.09,0.87
		c0.06,0.24,1.96-0.16,0.54,0.54c1.47-0.54,4-1.52,5.9-1.75c0.1,0.01,0.19,0.01,0.26,0.04l-0.19,0.07c0.44-0.06,0.82-0.16,1.17-0.27
		c0.61-0.06,0.99-0.1,1.57-0.19c0.26,0.17,2.22-0.27,3.19-0.4c-0.12-0.27,1.15-0.41-0.07-0.46c0.16,0-0.18,0.06-0.82,0.17
		c-0.14,0.03-0.31,0.06-0.41,0.09c0.02-0.01,0.04-0.02,0.06-0.03c-0.63,0.11-1.45,0.26-2.39,0.42c0.73-0.27,1.51-0.53,2.6-0.55
		c0.47-0.25,0.98-0.52,1.28-0.65c1.38,0.17,3.96,0.04,4.35,0.23c2.93-0.56,6.96-0.96,8.76-1.69c0.84-0.16,0.99,0.05,1.31,0.1
		c-0.48,0.1-1.06,0.15-1.32,0.26c1.67-0.32,5-0.57,5.36-0.98c2.15-0.03-1.17,0.45,1.76,0.12L77.8,8.63
		c5.8,0.05,9.29-1.75,15.75-1.43c-0.45-0.02-0.67-0.02-0.76-0.08c7.32-0.15,15.04-1.18,22.28-0.93c2.05,0.03,2.27-0.21,3.51-0.44
		l0.46,0.29l2.13-0.42c3.03-0.35,5.28,0.57,9.11-0.02l-0.5-0.19c1.38,0,4.37-0.24,4.15,0c0.14-0.04,0.45-0.22,0.99-0.13l0.05,0.16
		l3.39-0.36c2.63,0.05-0.4,0.64,3.44,0.57c1.43-0.1,4.05-0.56,3.51-0.65c-0.58,0.01-1.47-0.06-1.52-0.22l1.3-0.11
		c0.22-0.47,1.22-0.97-1.99-1.22l-2.23,0.34l-0.72-0.21l1.88-0.06c-1.07-0.19-1.74,0.02-2.5,0.17c-0.18-0.12-0.5-0.19-0.94-0.22
		l-2.18,0.5c-0.27-0.18,0.97-0.39-0.5-0.45c-1.02,0.23,1,0.38-0.7,0.56c-1.07-0.18-0.77-0.36-2.02-0.15
		c-0.18-0.12,0.08-0.2,0.58-0.26c-1.11,0.17-2.95,0.14-3.52,0.4c-1.12-0.23-3.77,0.18-3.67-0.27c-0.35,0.11-1.96,0.41-2.98,0.46
		c1.86-0.59-3.84,0.09-3.36-0.49c-1.37,0.52-5,0.39-7.45,0.75c0.14-0.04,0.4-0.13,0.62-0.11c-1.38,0.02-1.79-0.11-2.68-0.16
		c-0.16,0.4-2.31,0.59-3.46,0.88c-1.71-0.3,1.01-0.51,0.46-0.84c0.1,0.31-2.93,0.45-2.34,0.69c-1.31-0.17-1.12-0.06-1.81-0.35
		c-0.2,0.5-1.2,0.14-2.26,0.5c-1.89-0.14-0.51-0.43-2.56-0.16C97.76,4.86,99.58,4.58,99.58,4.58z M50.87,10.59L50.87,10.59
		c0.41-0.09,0.77-0.17,0.99-0.21C51.65,10.42,51.37,10.48,50.87,10.59z M46.82,11.43c0.49-0.1,1.11-0.23,1.76-0.37
		c0.16,0.06,0.03,0.2-0.38,0.28C48.4,11.23,47.44,11.38,46.82,11.43z M55.72,11.7c-0.63,0.15-0.85,0.13-0.95,0.09
		c0.3-0.06,0.65-0.13,1.11-0.22c0.02-0.01,0.05-0.03,0.07-0.05C55.9,11.58,55.84,11.65,55.72,11.7z"/>
	<path class="st1" d="M56.81,11.15c0.09-0.02,0.14-0.04,0.26-0.06c-0.14,0-0.26,0-0.39,0c-0.07,0.04-0.15,0.08-0.21,0.12
		C56.58,11.19,56.7,11.17,56.81,11.15z"/>
	<path class="st1" d="M183.64,17.14l0.09,0.02c-0.07-0.02-0.13-0.04-0.18-0.06C183.6,17.12,183.6,17.13,183.64,17.14z"/>
	<polygon class="st1" points="3.09,43.89 3.16,43.88 3.06,43.49 	"/>
	<path class="st1" d="M161.16,14.06c-0.04-0.03-0.12-0.06-0.29-0.09C160.88,13.99,161.01,14.02,161.16,14.06z"/>
	<path class="st1" d="M151.38,13.45l-1.38-0.15C150.59,13.37,151.03,13.42,151.38,13.45z"/>
	<path class="st1" d="M143.85,13.06c-0.1,0.05-0.12,0.08-0.15,0.12c0.01,0,0.01,0,0.01,0L143.85,13.06z"/>
	<path class="st1" d="M216.76,60.16c-0.07,0.07-0.15,0.14-0.21,0.21C216.06,60.88,216.4,60.55,216.76,60.16z"/>
	<path class="st1" d="M225.91,27.3c0.25,0.3,0.5,0.62,0.71,0.97C226.34,27.67,226.04,27.23,225.91,27.3z"/>
	<path class="st1" d="M180.08,75.89L180.08,75.89c-0.08,0.01-0.16,0.02-0.24,0.04L180.08,75.89z"/>
	<path class="st1" d="M227.29,29.87c-0.17-0.64-0.4-1.15-0.67-1.6C226.85,28.77,227.07,29.37,227.29,29.87z"/>
	<path class="st1" d="M111.17,13.44l-0.36,0.01c0.01,0.02-0.01,0.03-0.04,0.05L111.17,13.44z"/>
	<path class="st1" d="M110.76,13.49l-0.4,0.05C110.55,13.54,110.71,13.53,110.76,13.49z"/>
	<path class="st1" d="M109.52,13.66l0.84-0.11C110.07,13.56,109.7,13.57,109.52,13.66z"/>
	<path class="st1" d="M121.15,13.14l0.11-0.11C121.2,13.06,121.16,13.09,121.15,13.14z"/>
	<path class="st1" d="M124.18,13.03c-0.72-0.02-1.82-0.18-2.83-0.08l-0.09,0.08C121.73,12.87,123.5,13.2,124.18,13.03z"/>
	<path class="st1" d="M136.83,14.18l-2.53-0.08c0.44,0.11,1.02,0.25-0.13,0.28C137.36,14.7,133.51,14.14,136.83,14.18z"/>
	<path class="st1" d="M144.69,14.48c-1.36,0.01,0.01,0.16-0.06,0.22C145.49,14.62,145.7,14.61,144.69,14.48z"/>
	<path class="st1" d="M201.16,19.88l-0.18,0.23C202.02,20.25,201,20.01,201.16,19.88z"/>
	<polygon class="st1" points="212.09,20.5 211.11,20.15 210.59,20.29 	"/>
	<path class="st1" d="M217.88,23.67l-0.43-0.09c0.55,0.12,1.08,0.27,1.61,0.43C218.68,23.88,218.28,23.77,217.88,23.67z"/>
	<path class="st1" d="M168.77,75.02l0.35,0.28C169.82,75.17,169.92,74.8,168.77,75.02z"/>
	<path class="st1" d="M127.73,76.77c-0.45-0.17-1.6-0.29-2.32-0.15C126.34,76.66,127.26,76.8,127.73,76.77z"/>
	<path class="st1" d="M9.86,52.7l0.61,0.51c-0.36-0.34-0.71-0.69-1.04-1.06L9.86,52.7z"/>
</g>
</svg>
