<?xml version="1.0" encoding="utf-8"?>
<!-- Generator: Adobe Illustrator 24.1.2, SVG Export Plug-In . SVG Version: 6.00 Build 0)  -->
<svg version="1.1" id="Capa_1" xmlns="http://www.w3.org/2000/svg" xmlns:xlink="http://www.w3.org/1999/xlink" x="0px" y="0px"
	 viewBox="0 0 241.79 50" style="enable-background:new 0 0 241.79 50;" xml:space="preserve">
<style type="text/css">
	.st0{fill:#231F20;}
</style>
<g>
	<path class="st0" d="M98.96,18.83h-5.48v19.35h-3.22V18.83h-5.48V15.6h8.71h5.48V18.83z"/>
	<path class="st0" d="M109.93,38.17c-3.19,0-5.8-2.64-5.8-5.84V21.41c0-3.22,2.61-5.8,5.8-5.8h2.58c3.22,0,5.8,2.58,5.8,5.8v10.93
		c0,3.19-2.58,5.84-5.8,5.84H109.93z M115.09,32.34V21.41c0-1.45-1.13-2.58-2.58-2.58h-2.58c-1.45,0-2.58,1.16-2.58,2.58v10.93
		c0,1.42,1.16,2.58,2.58,2.58h2.58C113.93,34.92,115.09,33.75,115.09,32.34z"/>
	<path class="st0" d="M137.66,32.34c0,3.19-2.61,5.84-5.8,5.84h-2.58c-3.22,0-5.8-2.64-5.8-5.84V15.6h3.22v16.73
		c0,1.42,1.16,2.58,2.58,2.58h2.58c1.42,0,2.58-1.16,2.58-2.58V15.6h3.22V32.34z"/>
	<path class="st0" d="M152.78,28.92l4.22,9.25h-3.55l-4.09-9.03h-3.32v9.03h-3.22V15.6h3.22h5.16c3.22,0,5.8,2.58,5.8,5.8v1.93
		C157.01,26.02,155.23,28.24,152.78,28.92z M153.78,21.41c0-1.45-1.13-2.58-2.58-2.58h-5.16v7.09h5.16c1.45,0,2.58-1.13,2.58-2.58
		V21.41z"/>
</g>
</svg>
