<?xml version="1.0" encoding="utf-8"?>
<!-- Generator: Adobe Illustrator 24.1.2, SVG Export Plug-In . SVG Version: 6.00 Build 0)  -->
<svg version="1.1" id="Capa_1" xmlns="http://www.w3.org/2000/svg" xmlns:xlink="http://www.w3.org/1999/xlink" x="0px" y="0px"
	 viewBox="0 0 241.79 50" style="enable-background:new 0 0 241.79 50;" xml:space="preserve">
<style type="text/css">
	.st0{fill:#231F20;}
</style>
<g>
	<path class="st0" d="M79.62,15.6v7.42l-5.48,15.15h-3.22l-5.48-15.15V15.6h3.22v6.84l3.84,10.64h0.06l3.84-10.64V15.6H79.62z"/>
	<path class="st0" d="M93.48,18.83v16.12h5.48v3.22h-8.71h-5.48v-3.22h5.48V18.83h-5.48V15.6h8.71h5.48v3.22H93.48z"/>
	<path class="st0" d="M118.31,21.41v10.93c0,3.19-2.61,5.84-5.8,5.84h-6.13h-2.26V15.6h3.22h5.16
		C115.7,15.6,118.31,18.18,118.31,21.41z M115.09,21.41c0-1.42-1.13-2.58-2.58-2.58h-5.16v16.09h5.16c1.42,0,2.58-1.16,2.58-2.58
		V21.41z"/>
	<path class="st0" d="M126.7,18.83v5.9h9.67v3.22h-9.67v7h10.96v3.22h-14.19V27.95v-9.12V15.6h14.19v3.22H126.7z"/>
	<path class="st0" d="M148.62,38.17c-3.19,0-5.8-2.64-5.8-5.84V21.41c0-3.22,2.61-5.8,5.8-5.8h2.58c3.22,0,5.8,2.58,5.8,5.8v10.93
		c0,3.19-2.58,5.84-5.8,5.84H148.62z M153.78,32.34V21.41c0-1.45-1.13-2.58-2.58-2.58h-2.58c-1.45,0-2.58,1.16-2.58,2.58v10.93
		c0,1.42,1.16,2.58,2.58,2.58h2.58C152.62,34.92,153.78,33.75,153.78,32.34z"/>
	<path class="st0" d="M165.39,30.89v1.29c0,1.52,1.26,2.77,2.77,2.77h2.16c1.64,0,2.81-1.03,2.81-2.45
		c0-4.45-10.64-5.42-10.64-11.54c0-3.16,2.48-5.35,6-5.35H170c3.32,0,6.03,2.68,6.03,6v0.97h-3.22V21.6c0-1.55-1.26-2.77-2.8-2.77
		h-1.52c-1.74,0-2.77,0.81-2.77,2.13c0,3.42,10.64,4.74,10.64,11.54c0,3.22-2.61,5.68-6.03,5.68h-2.16c-3.32,0-6-2.68-6-6v-1.29
		H165.39z"/>
</g>
</svg>
