<?xml version="1.0" encoding="utf-8"?>
<!-- Generator: Adobe Illustrator 19.1.0, SVG Export Plug-In . SVG Version: 6.00 Build 0)  -->
<svg version="1.1" id="Capa_1" xmlns="http://www.w3.org/2000/svg" xmlns:xlink="http://www.w3.org/1999/xlink" x="0px" y="0px"
	 viewBox="-48 3 241.8 50" style="enable-background:new -48 3 241.8 50;" xml:space="preserve">
<style type="text/css">
	.st0{fill:#231F20;}
	.st1{fill:#202020;}
</style>
<g>
	<path class="st0" d="M31.6,18.6V26l-5.5,15.1h-3.2L17.4,26v-7.4h3.2v6.8l3.8,10.6h0.1l3.8-10.6v-6.8H31.6z"/>
	<path class="st0" d="M45.5,21.8V38H51v3.2h-8.7h-5.5V38h5.5V21.8h-5.5v-3.2h8.7H51v3.2L45.5,21.8L45.5,21.8z"/>
	<path class="st0" d="M70.3,24.4v10.9c0,3.2-2.6,5.8-5.8,5.8h-6.1h-2.3V18.6h3.2h5.2C67.7,18.6,70.3,21.2,70.3,24.4z M67.1,24.4
		c0-1.4-1.1-2.6-2.6-2.6h-5.2v16.1h5.2c1.4,0,2.6-1.2,2.6-2.6V24.4z"/>
	<path class="st0" d="M78.7,21.8v5.9h9.7v3.2h-9.7v7h11v3.2H75.5V31v-9.1v-3.2h14.2v3.2L78.7,21.8L78.7,21.8z"/>
	<path class="st0" d="M100.6,41.2c-3.2,0-5.8-2.6-5.8-5.8V24.4c0-3.2,2.6-5.8,5.8-5.8h2.6c3.2,0,5.8,2.6,5.8,5.8v10.9
		c0,3.2-2.6,5.8-5.8,5.8L100.6,41.2L100.6,41.2z M105.8,35.3V24.4c0-1.5-1.1-2.6-2.6-2.6h-2.6c-1.4,0-2.6,1.2-2.6,2.6v10.9
		c0,1.4,1.2,2.6,2.6,2.6h2.6C104.6,37.9,105.8,36.8,105.8,35.3z"/>
	<path class="st0" d="M117.4,33.9v1.3c0,1.5,1.3,2.8,2.8,2.8h2.2c1.6,0,2.8-1,2.8-2.5c0-4.5-10.6-5.4-10.6-11.5c0-3.2,2.5-5.4,6-5.4
		h1.5c3.3,0,6,2.7,6,6v1h-3.2v-1c0-1.5-1.3-2.8-2.8-2.8h-1.5c-1.7,0-2.8,0.8-2.8,2.1c0,3.4,10.6,4.7,10.6,11.5c0,3.2-2.6,5.7-6,5.7
		h-2.2c-3.3,0-6-2.7-6-6v-1.3H117.4z"/>
</g>
<g>
	<path class="st1" d="M64.3,10.6c-0.2,0.1-0.1,0.3,0.4,0.2l0.3-0.3L64.3,10.6z"/>
	<path class="st1" d="M67.7,11c0.6-0.2,1.2-0.5,0.8-0.8c-0.6,0.4-0.7,0.2-1.3,0.7c-0.5,0.1-0.9-0.1-0.8-0.2c-0.2,0.1-0.8,0-1,0.2
		c0.7,0.2,1.5,0.2,2.3-0.1C67.9,10.8,67.7,10.9,67.7,11z"/>
	<path class="st1" d="M116.1,12.9l-0.3-0.1C115.9,12.9,116,12.9,116.1,12.9z"/>
	<path class="st1" d="M142.5,21.8c-0.1-0.2-0.1-0.3-0.1-0.3C142.4,21.8,142.5,21.9,142.5,21.8z"/>
	<path class="st1" d="M142.2,26.7c0-0.1,0.1-0.2,0.1-0.3C142.2,26.5,142.2,26.6,142.2,26.7z"/>
	<path class="st1" d="M116.1,12.9l0.8,0.2C116.9,13,116.5,13,116.1,12.9z"/>
	<path class="st1" d="M74.3,9.9c-0.2,0-0.3,0.1-0.4,0.1C74.1,9.9,74.2,9.9,74.3,9.9L74.3,9.9z"/>
	<path class="st1" d="M102.9,11.9h-0.2c-0.1,0-0.1,0.1-0.2,0.1L102.9,11.9z"/>
	<path class="st1" d="M92.8,11.4c0.2,0,0.3-0.3,0.4-0.4c-0.1,0.1-0.3,0.2-0.5,0.2C92.7,11.3,92.7,11.4,92.8,11.4z"/>
	<path class="st1" d="M76.7,10.9L76.4,11C76.5,10.9,76.6,10.9,76.7,10.9z"/>
	<path class="st1" d="M110.1,12.6l0.1,0.1C110.2,12.7,110.2,12.6,110.1,12.6z"/>
	<path class="st1" d="M79.8,3.8L79.8,3.8C79.9,3.8,79.9,3.8,79.8,3.8z"/>
	<path class="st1" d="M91.6,4.8h-0.2c0,0,0,0.1,0,0.2L91.6,4.8z"/>
	<path class="st1" d="M138.5,34.6L138.5,34.6C138.6,34.3,138.5,34.5,138.5,34.6z"/>
	<path class="st1" d="M57.5,48.7c1,0.3-1.6,0.2-0.2,0.6C57.2,49.2,58.7,49,57.5,48.7z"/>
	<path class="st1" d="M74.6,9.9H75C74.8,9.9,74.7,9.9,74.6,9.9z"/>
	<path class="st1" d="M57.3,49.3L57.3,49.3h0.2C57.4,49.3,57.4,49.3,57.3,49.3z"/>
	<path class="st1" d="M121.4,45.7c0.1,0,0.2,0,0.2,0.1C121.6,45.8,121.5,45.8,121.4,45.7z"/>
	<path class="st1" d="M135.4,38.9l-0.3,0.2C135.2,39,135.3,39,135.4,38.9z"/>
	<path class="st1" d="M113.4,48c-0.2,0-0.3,0-0.6,0.1h0.1C113,48,113.2,48,113.4,48z"/>
	<path class="st1" d="M104.8,49.1c0.1,0,0.1,0,0.2,0s0.2,0,0.3,0H104.8z"/>
	<path class="st1" d="M53.3,5.2c0.2,0.1,0.3,0.1,0.4,0.2C53.6,5.3,54.8,5.1,53.3,5.2z"/>
	<path class="st1" d="M74.4,10c0.1-0.1,0.1-0.1,0.3-0.1C74.5,9.9,74.4,9.9,74.4,10C74.3,9.9,74.3,10,74.4,10z"/>
	<path class="st1" d="M113.4,50.2c-0.5,0.1-0.9,0.1-1.4,0.2C112.4,50.4,113,50.3,113.4,50.2z"/>
	<path class="st1" d="M2.6,32.7l-0.2-0.3C2.4,32.5,2.5,32.6,2.6,32.7z"/>
	<path class="st1" d="M107.9,51c-0.3-0.1-0.5-0.1-0.8-0.1c-0.1,0-0.1,0-0.2,0.1H107.9z"/>
	<path class="st1" d="M53.7,5.5L53.7,5.5L53.7,5.5z"/>
	<path class="st1" d="M62.8,4.2c-1.3,0.1-0.6,0.4-0.9,0.6c-1.6,0.2-0.8-0.2-1.3-0.4c-1,0.2-1.7,0.6-2.5,0.6c-0.1-0.1-0.2-0.1,0-0.2
		c-1,0.4-3.1,0.2-4.3,0.7c-0.1,0-0.1,0-0.2-0.1c0.2,0.2,0.3,0.4,0.2,0.5c-0.6,0-1.1,0.3-1.3,0.1c0.4,0,0.4-0.1,0.5-0.2L52.4,6
		c-0.6-0.3,0.8-0.2,0.8-0.4c-1.2,0.2-2.6,0.6-3.5,0.6c-0.1-0.4,2.3-0.4,1-0.6h1.4c-1.1-0.4,0.9,0-0.2-0.5c-1.9,0.1-2.1,0.4-4,0.4
		c-0.3,0.3,0.3,0.3-0.1,0.6c-2.6,0.6-2.2-0.6-4.1,0c-0.5,0.3-0.6,0.7-2,0.7l0.4-0.4c-1.8,0.2-1,0.7-2.9,0.7c0.3-0.3,1.3-0.4,1.1-0.4
		C39,6.6,39.5,7,38.5,7.2l-0.2-0.4c-1.9,0.3-4,0.9-6.2,1.4c0.1-0.1,0.4-0.3-0.1-0.3c-2.7,0.7-5.7,1.2-8.4,1.8l-0.9,0.6
		c-0.2,0.1-0.5,0-0.2-0.1c-1,0.2,0,0.2-0.4,0.5c-0.6,0.2-0.8,0.1-0.5-0.1c-1.7,0.8-4.7,2.4-6.5,3l0.3-0.3c-1.4,0.6-1.2,1.3-2.6,1.8
		l0.2-0.2c-2.9,1.5-5.6,3.9-7.7,5.6c0,0.3-0.6,0.9-1.1,1.6s-0.9,1.3-0.7,1.6c-0.6,0.8-0.8,1.1-1.1,1.5c-0.2,0.4-0.6,0.9-0.9,2.4
		c-0.1,0.8,0.2,1.2,0.4,2.1H1.6c0.1,0.4,0.3,0.8,0.5,1.2l-0.2,0.8C2,32,2.1,32.3,2.3,32.5c-0.1-0.3-0.1-0.8,0-0.7
		c0.5,1.3,1.2,3.1,1.2,3.2c0.7,0.8,1.4,1.6,2.2,2.3c-0.1,0-0.5-0.3-0.9-0.6c1.4,1,0,0.5,1.3,1.3c-0.1-0.2,0.2-0.1,0.3-0.1
		c0.4,0.7,1.8,1.8,2.9,2.4H9c1.8,1.3,4.2,2.4,6.5,3.4c-0.8-0.5-0.4-0.7,0.2-0.4l0.1,0.4c0.5,0-0.7-0.4,0.3-0.3
		c0.8,0.4,0.4,0.6-0.1,0.5c0.4,0.1,0.7,0.2,1.1,0.3c0,0.1-0.2,0.1-0.3,0.2c0.5,0,1.7,1,2.5,0.9v0.1c2.4,0.8,3.5,1,5.5,1.5
		c0.1-0.3,0.9,0,1.5-0.1c1.4,0.4,3,1,4.8,1.3c1.3,0.1,0.4-0.2,1-0.2c0,0.3,1.8,0.6,0.9,0.6c2.1,0.3,2.7,0.4,5.4,0.6
		c-0.3-0.2-0.6-0.2-0.4-0.3c0.5,0,1.1,0.3,1,0.4h-0.1c3,0,6.9,1.6,9.3,1.3h-0.1l2.5-0.1c1.1,0.1-0.7,0.1,0.1,0.4
		c2.7-0.2,4.3,0.4,6.5,0.2c1.7,0.9,6.1,0.3,8.4,0.8l-0.1-0.2c0.6-0.2,0.7,0.1,1.2,0.2c-0.1-0.1-0.6-0.2-0.3-0.3
		c5.1,0,10.4,0.6,15.7,0.8c1.9,0.1,1.1-0.9,3.5-0.5l-0.7,0.3c3.8-0.4,7.9,0,11.7-0.5c-0.2,0.1-0.2,0.2-0.6,0.2
		c0.8,0.2,2.9-0.1,2.9-0.3c0.6,0,0.2,0.2,0.5,0.3c0.8,0.1,2-0.5,2.4-0.2c0.1,0-0.2,0.1-0.4,0.1c0.5-0.1,2.4-0.2,1.9-0.4
		c1.4,0,2.7-0.4,3.8-0.3c0.7-0.4,2.4-0.2,2.6-0.6c0,0.5,2.5,0,3.4-0.4c-0.3,0.2,0.8,0,0.5,0.3c1-0.2,1.9-0.4,1.7-0.6
		c2,0.2,3.6-1.2,4.8-0.8c2.9-1,5.6-2.1,8.1-3.3c0.1,0.5-2.8,1.2-2.5,1.6c2.4-1.1,3.6-2.1,6-3.3c0.6-0.3-0.2,0.4-0.4,0.5
		c2.2-1.5,4.4-2.8,5.9-4.6c0,0-0.1,0.3-0.3,0.4c0.3-0.3,0.8-0.7,0.6-0.8l-0.3,0.4c-0.7,0.3,0.9-1.7,0.8-1.9c-0.1,1,1.6-1.7,1.4-0.2
		c0.2-0.3,0.3-0.6,0.2-0.7c0.3-0.3,0.5-0.4,0.3,0.1c0.9-1.4,0.4-1.1,1.2-2.3c0.1,0.1,0,0.3,0,0.5c0.3-0.8,0.5-1.5,1.1-2.6
		c0,0.1,0.2,0,0,0.3c0.9-2,1-3.6,1.6-6c0.3,0.8,0.3-0.8,0.6-0.9c0-0.4,0-0.9,0-1.3l-0.2,0.5c0.1-1.2-0.3-2.2-0.3-3.2
		c0.1,0.3,0.2,0.5,0.3,0.8c-0.1-0.7-0.3-1.5-0.5-2.1c0.1,0.4,0.1,0.8,0.2,1.2c-0.5-1.1-0.4,0.2-0.7-1.3c0.1,0.3-0.4-1-0.6-1.7l0,0
		c-0.4-0.4-0.9-0.8-1.4-1.4c-0.1-0.2,0.4-0.2,0.3-0.4c-0.3-0.1-0.9-0.5-1.5-0.8s-1.3-0.5-1.7-0.5c0.2,0,0.3-0.2,0.3-0.2
		c-0.2,0-0.4,0.1-0.5,0.1c-0.5-0.2-0.5-0.3-0.4-0.4c-1.5-0.5,0.4,0.6-1.4-0.1c0.1,0,0.1,0,0.4,0c-1.8-0.5-3.5-0.5-5.1-1
		c-0.4-0.5,1.5,0.2,1-0.2c-2.4-0.4-5-0.4-7.3-0.9l0.4,0.1c-0.7,0.5-1.9-0.5-3.2-0.4c0.3,0,0.4-0.2,0.3-0.2c-1.6-0.3-3.3-0.3-5.7-0.5
		l0.3-0.1c-0.9-0.2-2.5-0.4-3.5-0.6c-0.3,0.1-0.9,0-0.6,0.3c-3.1-1.1-6-0.2-8.7-1.1c0.3,0,0.8-0.1,0.5-0.1c-0.8,0-1.6-0.1-2.4-0.1
		c0.3,0.3,0.5,0.3,1,0.5c-0.3,0.1-1,0.2-1.6,0.1c1.1-0.1,0-0.4-0.4-0.5c0.1,0.1-0.1,0.1-0.1,0.2c-1.2-0.5-0.2,0.4-1.9,0.1l0.1-0.1
		c-0.7,0-1.3,0.1-1.9,0.1c-0.3-0.3,0.7-0.1,0.7-0.3c-1,0-1.9,0.4-2.8,0.1c0.4-0.1,1,0,1.4-0.1c-0.9-0.4-1.1-0.3-1.8-0.4h0.1L93.9,10
		l0.4,0.1c-1.2,0.7-2.5,0-4.1,0.5c1.6-0.4,0.3-0.3,0.4-0.6c-0.4-0.1-1-0.2-0.9-0.3c-0.7,0.2-1.2-0.2-2.3,0.1c-0.1-0.1-0.8,0-0.7-0.3
		c-1,0.1,0.2,0.2,0.2,0.3c-1.5,0.3-3.6-0.4-5.8,0.1c-1.9,0.2-2.3,0.6-4,0.8c-0.6-0.1,0.5-0.4,0.5-0.4c-1-0.1-1.7-0.1-2.6,0.1
		c0.2-0.1,0-0.2-0.3-0.3c-0.7,0.1-0.5,0.4-1.4,0.3c0.2-0.1,0.4-0.3,0.7-0.4c-0.9,0.1-1.7,0.3-2.6,0.5c-0.2-0.2,0.5-0.3,0.8-0.4
		c-1,0.1-2.6,0.3-2.9,0.6l0.6,0.1c-0.4,0-0.2-0.2,0.1-0.3c0.8-0.3,1.2,0,1.3,0.1l-0.6,0.1c0.7,0.5,2.5-0.2,3.8-0.2L74,11l1.3-0.4
		c0.3,0.1,0.5,0.3-0.2,0.4c0.9,0.2,0.8-0.2,1.6,0c0.1,0,0.1,0.1,0,0.1l0.8-0.3c-0.2,0.1,0.2,0.3-0.4,0.3c1.6,0.2,2.6-0.4,3.2-0.1
		h-0.1c2.2-0.2,0.2-0.3,1.9-0.7l1.1,0.8l0.2-0.3c0.2,0,0.7,0,0.6,0.2c0.8-0.2-0.2-0.1,0.3-0.3c1.1,0.3,3-0.1,3.3,0.4
		c0.4-0.2-1.1-0.2,0.1-0.3c0.3,0.5,1.4-0.1,2.4,0.2c-0.3,0.3-1.3,0.1-0.3,0.4c0.6-0.4,1.9,0.1,2.8,0.1c0.1-0.4,1.8-0.1,3.3-0.1
		c-0.1,0.1,2.7,0.3,4,0.5V12c0.3-0.7,1.6-0.5,2.6-0.5c0,0.2-0.2,0.3-0.8,0.3l0.9,0.1c0.3-0.1,0.6-0.1,1.2-0.2l-0.3,0.3
		c1.2,0.1,2.5-0.1,4.1,0.2c0.1-0.3-1.2-0.8,0.5-0.9c0.1,0.1,0.1,0.4-0.4,0.4c0.2,0,0.5-0.1,0.8,0l-0.7,0.2c0.7,0.2,0.4-0.2,1-0.1
		c0,0.2,0.4,0.2,0.3,0.3c-0.2,0-0.5-0.1-0.7-0.1c0.7,0.1,1.4,0.3,1.7,0.5c-0.1-0.1,0-0.3,0.5-0.2c1.2,0.1,0.4,0.3,1.1,0.4
		c0.3-0.1,1.1,0.1,1.1-0.2c0.4,0,0.4,0.2,0.5,0.3c0.7-0.1,3,0.3,2.3-0.1h-0.2h0.1l0,0l0,0c2.1-0.1,4.3,0.7,6.4,0.9v0.1
		c1.3,0.1,2.8,0.4,3.7,0.3c0.4,0.1,0.8,0.3,0.7,0.4c0.9,0.1,1.1,0,2.4,0.4c-1,0,0.3,0.2-1,0c1.2,0.3,1.5,0.5,2.8,0.5
		c-0.4,0.2,1,0.5,1.6,0.5l-0.8-0.3c0.7,0.1,1.2,0.2,1.8,0.4l-0.4,0.3c1.2,0.4,2.4,0.5,3.4,0.6c1,0.1,2,0.3,2.6,1
		c0.3,0,0.1-0.1-0.2-0.3s-0.6-0.3-0.3-0.4c1.1,0.4,1.7,1.5,1.9,1.7c0.4,0.5,0.7,0.7,1,0.8c0.3,0.2,0.6,0.4,0.9,1.1
		c0-0.2,0.3-0.6,0.8,0.5c0.3,1.1-0.2,1.4-0.4,0.8c-0.1-0.3-0.1-0.4,0-0.4c-0.1-0.3-0.3-0.7-0.3-0.3l0.2,0.1c0.1,0.5,0.3,2,0,1.7
		c0.2,0.8,0.2,0.3,0.2-0.3c0,1.4,0.1,2.2-0.2,3.6c0.1-0.2,0.3-0.4,0.2-0.2c-0.5,2.1,0.1,1-0.2,2.5c-0.4,0.8-0.3-0.4-0.6,1
		c-0.4,0.8-0.4,0.1-0.3-0.3c-0.2,1.3-1.1,2.2-1.5,2.9l0.2-0.7c-0.1,0.4-0.3,0.7-0.5,1l0.4-0.2c-0.2,0.4-0.4,0.6-0.5,0.6
		c-0.1,0.4,0.5-0.1,0.3,0.8c-0.4,0.4-0.8,1.5-1.2,1.5c1.1-1.4-0.4,0,0.4-1.3c-0.1,0.3-0.3,0.5-0.6,0.8c-0.1,0,0-0.1,0-0.2
		c-1.2,1.1-0.1,0.8-1.3,2.2c0-0.3-0.5,0.1-0.7,0.3c0.5-0.5,0.4,0,0.1,0.5c-0.9,0.7-0.8,0.9-1.2,1.3l0.5-0.4
		c-0.1,0.3-0.5,0.7-1.1,1.2c-0.1-0.1,0.5-0.5,0.2-0.4c-0.5,0.8-1.7,1-2.6,1.8c-0.5,0.2-0.2-0.2-0.7,0c-1,0.9-1.4,0.6-2.5,1.4
		c0.5,0,0.5-0.1-0.3,0.6c0.7-0.4,1.3-0.8,2-1.3c-0.4,0.3-0.8,0.7-1.1,1c0.6-0.3,1.2-0.9,1.6-1.1c-0.5,0.5-0.5,0.5-0.1,0.5
		c-1,0.2-1.6,1.2-2.7,1.5l-0.2-0.5c-1.6,0.5-2.6,1.5-4.8,2.1l0.7-0.1c-0.2,0.3-1.3,0.5-1.9,0.8c0-0.2-0.4-0.1-0.8-0.2
		c0.1,0.1-1.6,0.4-1.7,0.9h-1c-1.8,0.3-1.9,1-3.6,1.3c0.5-0.3-0.3-0.3,0.8-0.7c-0.6,0.1-1.1,0.2-1.1,0.3c-0.4-0.1-1.5,0.5-2.1,0.5
		c-0.2,0.1-0.3,0.3-0.9,0.4c-0.1,0,0-0.1,0-0.1c0,0.1-1,0.3-0.4,0.4c-1.9-0.3-5,0.7-6.6,0.4c-1.3,0.2-2.8,0.4-3.9,0.5
		c0.1-0.1,0-0.1,0.2-0.1c-1.6-0.1-0.9,0.7-2.8,0.5c-0.8-0.3,1.1-0.2,0.5-0.3c-0.3-0.6-2.2,0.2-3.4-0.1h0.3C94.9,49.5,93.5,50,92,50
		c0,0,0.1-0.1,0-0.1c-1,0.3-3,0.5-4.5,0.6c0.5-0.3,0.7-0.1,0.4-0.4c-0.7,0,0.2,0.4-1.1,0.5c-0.4-0.1-1.4-0.3-1.5-0.5h1.2
		c-0.6-0.4-1.6,0-2.3-0.1l0.1-0.2c-1.9,0-1.9,0.4-4,0.4l0.2,0.1c-1.1,0.4-0.9-0.2-2.1,0l-0.3-0.4c-0.7,0.1-2.6,0.3-3.9,0.3
		c0.8-0.3,2.3-0.4,3.3-0.5c-0.7,0-2.5,0-2.9,0.2c0.3,0,0.7-0.1,1,0c-0.9,0.3-2.1,0.4-3.6,0.4c0.3-0.8-3.8-0.3-4.8-0.9
		c-2.6,0.2-5.1-0.3-8.1-0.4c1,0.7-0.9,0-0.7,0.6c-0.7,0-1,0-1-0.1L55.3,49c-0.5-0.2,0.7-0.1,0.6-0.2c-1.5-0.2-0.6-0.3-1.6-0.5
		c0.2,0.2-0.5,0.3-1.4,0.1l1.2,0.4c-2.2,0.2-1.8-0.6-4-0.5l0.7-0.1c-1.1,0-4-0.4-5.2,0c-0.2-0.1-0.4-0.3,0.1-0.3
		c-2.6-0.3-5.9-0.2-7.9-0.8L38,47c-0.5,0-0.9,0.2-1.5-0.1c0-0.1,0.2-0.1,0-0.2c-0.3,0-1.3,0-2-0.2l0.6-0.1c-2.5-0.6-4-0.3-6.1-0.6
		c0.1-0.4-1.8-1-2.8-1.3h0.1c-2.9-0.8-5-0.9-7.6-1.7c-1.4-1-5.2-2.4-7.3-4.1c0.3,0.3-0.2,0.3-0.7,0c-0.5-0.4-1.6-0.8-1.3-1l0.2,0.1
		c-0.2-0.6-1.2-1.3-1.9-2l-0.5,0.3c-0.7-1.2-1.8-2.4-2.5-3.7s-1-2.6-0.7-3.3c-0.2-0.6-0.1-1.3-0.1-1.9l0.3,0.1c0.5-1.5,0.8-2.2,2-4
		c0,0.1-0.1,0.3-0.1,0.5c0.7-0.9,0.3-1.7,1-2.5l0.5,0.1c0.8-0.8,1.6-1.4,2.5-2c0.4-0.3,0.9-0.6,1.3-0.9s0.9-0.6,1.3-1
		c0,0.1,0,0.2-0.3,0.4c0.8-0.6,3.5-1.7,2.9-2.1c0.2,0.3,2-1,3-1.6l-0.1,0.3c0.8-0.7,0.8-0.8,2-1.4c0.3-0.1,0.4,0.1-0.1,0.2
		c1.1-0.3,0.7-0.5,2-0.9l-0.4,0.3c1.1-0.4,1-0.4,1.5-0.8c0.7-0.3,2.1-0.6,2.3-0.4c0.1-0.2,0.7-0.6,1.3-0.7c0.1,0.1-0.1,0.2-0.2,0.2
		c1.9-0.3,2.7-1,4-1c0,0.1,0.1,0.1,0.3,0.1c-1.5,0.3-2.7,0.6-2.6,0.5c0.1,0.2,1.3,0,0.4,0.6c0.9-0.4,2.5-1.2,3.7-1.3
		c0.1,0,0.1,0,0.2,0.1l-0.1,0.1c0.3,0,0.5-0.1,0.7-0.2c0.4,0,0.6,0,1-0.1c0.2,0.2,1.4-0.1,2-0.2c-0.1-0.3,0.7-0.3-0.1-0.5
		c0.1,0-0.1,0-0.5,0.1c-0.1,0-0.2,0-0.3,0.1l0,0c-0.4,0.1-0.9,0.2-1.5,0.3c0.5-0.2,0.9-0.4,1.6-0.4C35.7,9,36,8.7,36.2,8.6
		c1.3,0.2,3,0.2,3.2,0.4c1.8-0.4,4.4-0.6,5.5-1.3c0.5-0.1,0.6,0.1,0.8,0.1C45.4,7.9,45,7.9,44.9,8c1-0.3,3.1-0.4,3.4-0.8
		c1.4,0-0.7,0.4,1.1,0.2l-0.2,0.1c3.7,0.3,5.8-1.4,9.9-1c-0.3,0-0.4,0-0.5-0.1c4.6,0,9.5-0.9,14-0.5C73.9,6,74,5.7,74.8,5.5l0.3,0.3
		l1.3-0.4c1.9-0.3,3.3,0.6,5.7,0.1l-0.3-0.2c0.9,0,2.8-0.2,2.6,0c0.1,0,0.3-0.2,0.6-0.1v0.2l2.1-0.3c1.7,0.1-0.2,0.6,2.2,0.6
		c1,0.1,2.7-0.4,2.3-0.5c-0.4,0-0.9-0.1-1-0.2l0.9-0.1c0.1-0.5,0.8-1-1.3-1.2L88.8,4l-0.4-0.2h1.2c-0.7-0.2-1.1,0-1.6,0.1
		c-0.1-0.1-0.3-0.2-0.6-0.2L86,4.1c-0.2-0.2,0.6-0.4-0.3-0.5c-0.6,0.2,0.6,0.4-0.4,0.6C84.6,4,84.8,3.8,84,4
		c-0.1-0.1,0.1-0.2,0.4-0.3c-0.7,0.2-1.9,0.1-2.2,0.4c-0.7-0.2-2.4,0.1-2.3-0.3c-0.2,0.1-1.2,0.4-1.9,0.4c1.2-0.6-2.4,0-2.1-0.5
		C75,4.2,72.7,4,71.2,4.4c0.1,0,0.3-0.1,0.4-0.1c-0.9,0-1.1-0.1-1.7-0.2c-0.1,0.4-1.4,0.5-2.2,0.8c-1.1-0.3,0.6-0.5,0.3-0.8
		c0.1,0.3-1.8,0.4-1.5,0.7c-0.8-0.2-0.7-0.1-1.2-0.4c-0.1,0.4-0.7,0-1.4,0.4c-1.2-0.2-0.3-0.4-1.6-0.2C61.7,4.4,62.8,4.2,62.8,4.2z
		 M32.1,8.3L32.1,8.3c0.3-0.1,0.5-0.1,0.6-0.1C32.6,8.2,32.4,8.2,32.1,8.3z M29.6,8.8c0.3-0.1,0.7-0.2,1.1-0.2
		c0.1,0.1,0,0.2-0.2,0.3C30.6,8.7,30,8.8,29.6,8.8z M35.3,9.7c-0.4,0.1-0.5,0.1-0.6,0c0.2,0,0.4-0.1,0.7-0.1l0,0
		C35.4,9.6,35.4,9.7,35.3,9.7z"/>
	<path class="st1" d="M36,9.2c0.1,0,0.1,0,0.2-0.1C36,9.2,35.9,9.2,36,9.2c-0.1,0-0.2,0-0.2,0S35.9,9.2,36,9.2z"/>
	<path class="st1" d="M115.7,12.8L115.7,12.8L115.7,12.8L115.7,12.8z"/>
	<polygon class="st1" points="1.6,29.6 1.7,29.6 1.6,29.3 	"/>
	<path class="st1" d="M101.6,10.5c0,0-0.1-0.1-0.2-0.1C101.4,10.5,101.5,10.5,101.6,10.5z"/>
	<path class="st1" d="M95.4,10.1L94.5,10C95,10.1,95.2,10.1,95.4,10.1z"/>
	<path class="st1" d="M90.7,9.8c-0.1,0.1-0.1,0.1-0.1,0.1l0,0L90.7,9.8z"/>
	<path class="st1" d="M136.9,40.1c-0.1,0-0.1,0.1-0.1,0.1C136.4,40.5,136.6,40.3,136.9,40.1z"/>
	<path class="st1" d="M142.5,19c0.2,0.2,0.4,0.4,0.5,0.6C142.8,19.2,142.6,18.9,142.5,19z"/>
	<path class="st1" d="M113.6,50.2L113.6,50.2c-0.1,0-0.1,0-0.2,0H113.6z"/>
	<path class="st1" d="M143.4,20.6c-0.1-0.4-0.2-0.8-0.4-1C143.1,19.9,143.3,20.3,143.4,20.6z"/>
	<path class="st1" d="M70.1,10h-0.2c0,0,0,0,0,0.1L70.1,10z"/>
	<path class="st1" d="M69.9,10.1h-0.3C69.7,10.1,69.8,10.1,69.9,10.1z"/>
	<path class="st1" d="M69.1,10.2l0.5-0.1C69.4,10.1,69.2,10.1,69.1,10.2z"/>
	<path class="st1" d="M76.4,9.9l0.1-0.1C76.4,9.8,76.4,9.8,76.4,9.9z"/>
	<path class="st1" d="M78.3,9.8c-0.5,0-1.2-0.2-1.8-0.1v0.1C76.8,9.6,77.9,10,78.3,9.8z"/>
	<path class="st1" d="M86.3,11l-1.6-0.1c0.3,0.1,0.6,0.3-0.1,0.3C86.6,11.5,84.2,11,86.3,11z"/>
	<path class="st1" d="M91.2,11.2c-0.9,0,0,0.2,0,0.2C91.7,11.4,91.9,11.4,91.2,11.2z"/>
	<path class="st1" d="M126.7,14.6l-0.1,0.2C127.3,14.9,126.6,14.8,126.7,14.6z"/>
	<polygon class="st1" points="133.7,14.6 133.1,14.3 132.7,14.4 	"/>
	<path class="st1" d="M137.2,17.2h-0.3c0.3,0.1,0.7,0.1,1,0.2C137.7,17.3,137.4,17.3,137.2,17.2z"/>
	<path class="st1" d="M106.3,48.7l0.2,0.3C107,48.9,107.1,48.6,106.3,48.7z"/>
	<path class="st1" d="M80.6,50c-0.3-0.2-1-0.3-1.5-0.1C79.7,49.8,80.3,50,80.6,50z"/>
	<path class="st1" d="M6.7,34.8l0.4,0.3c-0.2-0.2-0.5-0.4-0.7-0.6L6.7,34.8z"/>
</g>
</svg>
