<?xml version="1.0" encoding="utf-8"?>
<!-- Generator: Adobe Illustrator 19.1.0, SVG Export Plug-In . SVG Version: 6.00 Build 0)  -->
<svg version="1.1" id="Layer_1" xmlns="http://www.w3.org/2000/svg" xmlns:xlink="http://www.w3.org/1999/xlink" x="0px" y="0px"
	 viewBox="0 0 335 55" style="enable-background:new 0 0 335 55;" xml:space="preserve">
<style type="text/css">
	.st0{fill:none;}
	.st1{fill:#202020;}
</style>
<g>
	<g>
		<path d="M73.6,25.9v9.2h-4v-6.5H60v6.5h-4v-9.2l6.8-18.8h4L73.6,25.9z M60.7,24.6h8.2l-4-11.2h-0.1L60.7,24.6z"/>
		<path d="M97.6,14.3v2.4c0,4-3.2,7.2-7.2,7.2H84v11.2h-4v-28h4h6.4C94.4,7.1,97.6,10.3,97.6,14.3z M93.6,14.3
			c0-1.8-1.4-3.2-3.2-3.2H84v8.8h6.4c1.8,0,3.2-1.4,3.2-3.2V14.3z"/>
		<path d="M121.6,14.3v2.4c0,4-3.2,7.2-7.2,7.2H108v11.2h-4v-28h4h6.4C118.4,7.1,121.6,10.3,121.6,14.3z M117.6,14.3
			c0-1.8-1.4-3.2-3.2-3.2H108v8.8h6.4c1.8,0,3.2-1.4,3.2-3.2V14.3z"/>
		<path d="M145.6,31.1v4H128v-28h4v24H145.6z"/>
		<path d="M156,11.1v7.3h12v4h-12v8.7h13.6v4H152V22.4V11.1v-4h17.6v4H156z"/>
		<path d="M217.6,7.1v28h-4V15.9l-3.7,7.9h-2.2l-3.7-7.9v19.2h-4v-28h4l4.8,10.4l4.8-10.4H217.6z"/>
		<path d="M241.6,27.8c0,4-3.2,7.2-7.2,7.2h-3.2c-4,0-7.2-3.3-7.2-7.2V7.1h4v20.8c0,1.8,1.4,3.2,3.2,3.2h3.2c1.8,0,3.2-1.4,3.2-3.2
			V7.1h4V27.8z"/>
		<path d="M252,26v1.6c0,1.9,1.6,3.4,3.4,3.4h2.7c2,0,3.5-1.3,3.5-3c0-5.5-13.2-6.7-13.2-14.3c0-3.9,3.1-6.6,7.4-6.6h1.9
			c4.1,0,7.5,3.3,7.5,7.4v1.2h-4v-1.2c0-1.9-1.6-3.4-3.5-3.4h-1.9c-2.2,0-3.4,1-3.4,2.6c0,4.2,13.2,5.9,13.2,14.3c0,4-3.2,7-7.5,7
			h-2.7c-4.1,0-7.4-3.3-7.4-7.4V26H252z"/>
		<path d="M282.8,11.1v20h6.8v4h-10.8H272v-4h6.8v-20H272v-4h10.8h6.8v4H282.8z"/>
		<path d="M309.6,14.3c0-1.8-1.4-3.2-3.2-3.2h-3.2c-1.8,0-3.2,1.4-3.2,3.2v13.6c0,1.8,1.4,3.2,3.2,3.2h3.2c1.8,0,3.2-1.4,3.2-3.2
			v-2.2h4v2.2c0,4-3.2,7.2-7.2,7.2h-3.2c-4,0-7.2-3.3-7.2-7.2V14.3c0-4,3.2-7.2,7.2-7.2h3.2c4,0,7.2,3.2,7.2,7.2v2.2h-4V14.3z"/>
	</g>
	<g>
		<path class="st0" d="M32.4,4.9H14.1c-3.8,0-6.9,3.1-6.9,6.9V30c0,3.8,3.1,6.9,6.9,6.9h18.3c3.8,0,6.9-3.1,6.9-6.9V11.8
			C39.3,8,36.2,4.9,32.4,4.9z M30.9,22.4v3v0h0c0,2.1-1.7,3.8-3.8,3.8h-0.4c-0.8,0-1.5-0.3-2-0.9c-0.5-0.6-0.8-1.3-0.7-2.1
			c0.1-1.3,1.3-2.4,2.8-2.4h1c0.8,0,1.5-0.7,1.5-1.5V15l-9.1,1.7v8v3c0,2.1-1.7,3.8-3.8,3.8H16c-0.8,0-1.5-0.3-2-0.9
			c-0.5-0.6-0.8-1.3-0.7-2.1c0.1-1.3,1.3-2.4,2.8-2.4h1c0.8,0,1.5-0.7,1.5-1.5V13.6c0-0.7,0.5-1.4,1.2-1.5l9.6-1.8
			c0.3-0.1,0.7,0,0.9,0.2c0.3,0.2,0.4,0.5,0.4,0.9V22.4z"/>
		<g>
			<path class="st1" d="M30.4,22.4c0.1,0.1,0.2,0,0.2-0.1l-0.2-0.1L30.4,22.4z"/>
			<path class="st1" d="M30.8,21.4c-0.1-0.2-0.3-0.4-0.6-0.3c0.2,0.2,0.1,0.2,0.4,0.4c0,0.2-0.1,0.3-0.2,0.2
				c0.1,0.1-0.1,0.2,0.1,0.3c0.2-0.2,0.2-0.4,0-0.7C30.7,21.3,30.8,21.4,30.8,21.4z"/>
			<path class="st1" d="M26.9,10.4L26.9,10.4C27,10.4,26.9,10.4,26.9,10.4z"/>
			<path class="st1" d="M18.2,13.4c0-0.1,0-0.1,0-0.1C18.2,13.3,18.2,13.4,18.2,13.4z"/>
			<path class="st1" d="M17.9,15C17.9,14.9,17.9,14.9,17.9,15C17.9,14.9,17.9,14.9,17.9,15z"/>
			<path class="st1" d="M26.9,10.4l-0.3,0C26.6,10.4,26.8,10.4,26.9,10.4z"/>
			<path class="st1" d="M30.2,19.4c0,0.1,0,0.1,0.1,0.1L30.2,19.4L30.2,19.4z"/>
			<path class="st1" d="M31.2,10.5L31.2,10.5c0.1,0.1,0.1,0.1,0.2,0.1L31.2,10.5z"/>
			<path class="st1" d="M31.5,13.8c0-0.1-0.2-0.1-0.3-0.1c0.1,0,0.1,0.1,0.1,0.2C31.4,13.9,31.4,13.8,31.5,13.8z"/>
			<path class="st1" d="M31.1,18.7L31.1,18.7C31.1,18.8,31.1,18.7,31.1,18.7z"/>
			<path class="st1" d="M28.6,9.8C28.6,9.8,28.6,9.8,28.6,9.8C28.6,9.8,28.6,9.8,28.6,9.8z"/>
			<path class="st1" d="M29.9,25.9C29.9,25.9,29.9,25.9,29.9,25.9C29.9,25.8,29.9,25.8,29.9,25.9z"/>
			<path class="st1" d="M30.9,22.4L30.9,22.4c0.1,0.1,0.1,0.1,0.1,0.1L30.9,22.4z"/>
			<path class="st1" d="M17.7,17.8L17.7,17.8C17.6,17.7,17.6,17.7,17.7,17.8z"/>
			<path class="st1" d="M21.1,26.8c-0.2,0.3-0.2-0.5-0.5,0C20.7,26.8,21,27.2,21.1,26.8z"/>
			<path class="st1" d="M30.3,19.3l0-0.1C30.3,19.2,30.3,19.3,30.3,19.3z"/>
			<path class="st1" d="M20.6,26.8L20.6,26.8L20.6,26.8C20.6,26.8,20.6,26.8,20.6,26.8z"/>
			<path class="st1" d="M17.8,24.3C17.8,24.3,17.9,24.3,17.8,24.3C17.9,24.3,17.8,24.3,17.8,24.3z"/>
			<path class="st1" d="M18.1,19.5l0,0.1C18.1,19.5,18.1,19.5,18.1,19.5z"/>
			<path class="st1" d="M17.3,25.6c0,0-0.1,0-0.1,0C17.2,25.6,17.2,25.6,17.3,25.6C17.2,25.6,17.3,25.6,17.3,25.6z"/>
			<path class="st1" d="M14.5,26C14.6,26,14.6,26,14.5,26c0.1,0,0.1,0,0.2,0L14.5,26z"/>
			<path class="st1" d="M25.4,27.8c0,0.1,0,0.1-0.1,0.2C25.4,27.9,25.6,28,25.4,27.8z"/>
			<path class="st1" d="M30.4,19.4C30.3,19.4,30.3,19.4,30.4,19.4L30.4,19.4C30.3,19.4,30.3,19.4,30.4,19.4z"/>
			<path class="st1" d="M17.4,27.3c0,0-0.2,0-0.3,0c-0.1,0-0.2,0-0.2,0C17,27.3,17.1,27.3,17.4,27.3z"/>
			<path class="st1" d="M27.5,14.4L27.5,14.4C27.6,14.4,27.5,14.4,27.5,14.4z"/>
			<path class="st1" d="M15.8,27.3c-0.1-0.1-0.1-0.1-0.2-0.1c0,0,0,0,0,0.1L15.8,27.3z"/>
			<path class="st1" d="M25.3,28L25.3,28L25.3,28z"/>
			<path class="st1" d="M27.3,28.1c-0.3,0-0.1,0.3-0.2,0.4c-0.5,0.1-0.2-0.2-0.4-0.3c-0.2,0.1-0.4,0.3-0.5,0.3c0,0,0-0.1,0-0.1
				c-0.3,0.2-0.6-0.2-0.9-0.2c0,0,0-0.1,0-0.1c-0.1,0.1-0.2,0.2-0.2,0.3c-0.1-0.1-0.3-0.1-0.2-0.3c0.1,0.1,0.1,0,0.2,0L24.9,28
				c0.1-0.3,0.2,0.1,0.3,0c-0.2-0.1-0.6-0.3-0.6-0.6c0.2-0.1,0.3,0.4,0.4,0.1c0,0,0.1,0.3,0.1,0.3c0.2-0.4,0.1,0.2,0.3-0.3
				c-0.1-0.3-0.3-0.3-0.3-0.7c-0.2-0.1-0.2,0.1-0.4,0c-0.2-0.3,0-0.4,0.2-0.5c0.2-0.1,0.3-0.1,0.2-0.3c-0.1-0.1-0.4-0.3-0.1-0.5
				l0.2,0.2c0.2-0.3-0.2-0.5,0.2-0.6c0,0.1-0.2,0.3-0.1,0.3c0.3,0,0-0.3,0.2-0.4l0.2,0.2c0.3-0.3,0.7-0.6,1.3-0.6
				c0,0.1-0.1,0.2,0,0.2c0.2,0,0.4,0,0.6,0l0.4,0c0.2,0,0.3,0,0.5-0.1c0.7-0.1,1.3-0.5,1.7-1.1c0,0,0-0.5,0-0.5c0-0.1,0.1-0.2,0.2,0
				c0.2-0.5-0.1-0.1-0.2-0.3c0-0.3,0.1-0.3,0.2-0.2c-0.2-0.7-0.4-1.6-0.2-2.2l0.1,0.1c0.1-0.4-0.5-0.5-0.2-0.9l0,0.1
				c0.1-1-0.1-2,0.2-2.8c-0.2-0.1-0.1-0.3-0.1-0.6c0-0.4,0-0.8-0.2-0.7c0.2-0.8,0.3-0.8,0.4-1.8c-0.1,0-0.2,0-0.4,0
				c-0.4,0-0.7,0.4-1.1,0.5l0.1-0.2c0,0-0.6,0.4-0.6,0.4c0,0-0.3-0.2-0.3-0.2c0,0-0.1,0-0.2,0.1c-0.1,0-0.1,0.1-0.1,0.1
				c0.1,0,0.2,0.1,0.2,0.1c-0.4,0.2-0.9,0-1-0.1L26,14.8c0-0.1,0.1-0.2,0.2-0.2c-0.4,0.3-0.1-0.2-0.5,0.1c0.1,0,0,0.1,0,0.2
				c-0.2-0.1-0.7,0-1.1,0.1l0-0.2c-0.7,0.1-1.4,0.3-2.1,0.5c0.3,0,0.3,0.3,0.1,0.4l-0.1-0.2c-0.1,0.2,0.2,0,0,0.3
				c-0.3,0-0.2-0.2-0.1-0.3l-0.3,0.1c0-0.1,0-0.1,0-0.2c-0.1,0.2-0.6-0.1-0.8,0.2l0-0.1c-0.4,0.1-0.8,0.2-1.1,0.2
				c-0.4,0.1-0.7,0.2-1.1,0.3c0,0.2,0,0.4,0,0.6c0.2,0.1,0.2,0.5,0.3,0.9c0,0.1,0,0.4-0.1,0.5c0,0.1,0,0.2-0.1,0.4
				c0,0.2-0.1,0.5-0.1,0.8c0.1,0.4,0.2,0.1,0.3,0.3c-0.2,0-0.2,0.6-0.3,0.3c0,0.6,0,0.8,0.2,1.6c0.1-0.1,0.1-0.2,0.2-0.1
				c0,0.1-0.1,0.3-0.2,0.3l0,0c0.3,0.9-0.6,2.1-0.2,2.8l0,0l0.2,0.8c0,0.3-0.1-0.2-0.3,0c0.3,0.8,0,1.3,0.2,2
				c-0.1,0.1-0.2,0.3-0.2,0.5c0,0.2,0,0.5,0,0.6c0,0.3,0,0.7-0.3,0.9l0.1,0c0.1,0.2-0.1,0.1-0.2,0.2c0.1,0,0.2-0.1,0.2,0
				c-0.2,0.6-0.7,1-1.3,1.2c-0.3,0.1-0.6,0.1-0.9,0.1c-0.1,0-0.3,0-0.4,0c-0.1,0-0.4,0-0.5-0.1c-0.3-0.1-0.3,0.7-0.7,0.2
				c0,0,0.2-0.2,0.2-0.2c-0.4,0-0.7-0.3-0.9-0.6c-0.2-0.3-0.3-0.7-0.3-1.1c0,0,0.1,0.1,0.1,0.1c0.2-0.1,0.1-0.5,0-0.6
				c0.1-0.1,0.1,0,0.2,0c0.1-0.1,0-0.5,0.2-0.4c0,0,0,0.1,0,0.1c0-0.1,0.3-0.3,0.1-0.4c0.3-0.1,0.4-0.4,0.7-0.3
				c0.1-0.3,0.5,0,0.6-0.3c0,0.3,0.7,0.3,1,0.1c-0.1,0.1,0.4,0.1,0.2,0.2c0.5-0.1,0.9-0.4,0.8-0.5c0.5,0,0.8-0.4,1-0.8
				c0.2-0.4,0.2-0.7,0.5-0.9c0-0.4-0.1-0.6-0.1-0.8c0-0.2-0.1-0.4-0.1-0.7c-0.1-0.4-0.1-0.8-0.2-1.3c0.3,0,0,0.9,0.4,0.9
				c-0.1-0.8-0.4-1.2-0.3-2c0-0.2,0.1,0.1,0.2,0.2c-0.1-0.8,0-1.5-0.2-2.2c0,0,0.1,0.1,0.1,0.1c0-0.1,0-0.3-0.1-0.3l0,0.1
				c-0.2,0.2-0.5-0.5-0.6-0.6c0.4,0.2,0.1-0.7,0.7-0.3c0-0.1-0.1-0.2-0.2-0.2c0-0.1,0.1-0.2,0.2,0c-0.1-0.5-0.2-0.3-0.2-0.8
				c0.1,0,0.1,0.1,0.2,0.1c-0.1-0.2-0.3-0.4-0.2-0.8c0,0,0.1,0,0.1,0.1c0-0.6-0.4-1.1-0.2-1.8c0.3,0.2,0.1-0.2,0.4-0.3l-0.1-0.4
				l-0.1,0.2c0-0.3-0.2-0.6-0.1-0.9c0,0,0.1,0.2,0.1,0.2s0-0.1,0-0.3c0-0.1,0-0.2,0-0.2c0,0-0.1,0.2-0.1,0.2c-0.1-0.3-0.4,0-0.2-0.4
				c0,0.1,0.1-0.3,0.3-0.3l0,0c0-0.2,0.1-0.3,0.3-0.4c0.1,0,0.1,0.3,0.2,0.3c0-0.1,0.1-0.2,0.2-0.3c0.1-0.1,0.4-0.1,0.4-0.3
				c-0.1,0.1,0,0.2,0,0.2l0.1-0.2c0.2,0,0.2,0.1,0.2,0.2c0.5-0.1-0.2-0.3,0.4-0.3c0,0,0,0-0.1,0.1c0.6,0,1-0.3,1.5-0.3
				c0.2,0.2-0.4,0.1-0.2,0.4c0.7-0.2,1.4-0.6,2.1-0.7l-0.1,0c0-0.4,0.6,0.1,0.9-0.2c-0.1,0-0.1,0.2-0.1,0.2c0.5,0,1-0.3,1.7-0.5
				l-0.1,0.1c0.3,0,0.7-0.1,1.1-0.1c0.1-0.1,0.2-0.1,0.1-0.3c0.7,0.3,1.2-0.1,1.7-0.3c0.2-0.1,0.5,0,0.6,0.2c-0.1,0-0.2,0-0.1,0
				c0,0,0.1,0,0.2,0.1c0.1,0.1,0.2,0.1,0.2,0.1c0.1-0.1,0.1-0.1,0.1-0.3c0.1,0,0.3,0.1,0.4,0.3c-0.2-0.2-0.2,0.1-0.3,0.2
				c0,0,0.1,0,0.2,0c-0.3,0.3,0.4,0,0.2,0.5l-0.1,0c0,0.2,0.2,0.4,0.1,0.6c-0.2,0.1-0.1-0.2-0.3-0.2c0,0.3,0.4,0.6,0.2,0.8
				c-0.1-0.1-0.1-0.3-0.1-0.4c-0.2,0.3-0.2,0.3-0.2,0.5l0,0l-0.1,0.5l0.1-0.1c0.5,0.4,0.1,0.7,0.4,1.2c-0.3-0.5-0.2-0.1-0.4-0.1
				c-0.1,0.1-0.1,0.3-0.2,0.3c0.2,0.2-0.1,0.4,0.1,0.7c-0.1,0,0,0.2-0.2,0.2c0.1,0.3,0.1-0.1,0.2,0c0.2,0.5-0.3,1.1,0,1.8
				c0.1,0.6,0.4,0.7,0.5,1.2c-0.1,0.2-0.3-0.1-0.3-0.1c-0.1,0.3-0.1,0.5,0,0.8c-0.1-0.1-0.1,0-0.2,0.1c0,0.2,0.3,0.1,0.2,0.4
				c-0.1,0-0.2-0.1-0.3-0.2c0.1,0.3,0.2,0.5,0.3,0.8c-0.1,0.1-0.2-0.2-0.3-0.3c0.1,0.3,0.1,0.8,0.3,0.9l0.1-0.2c0,0.1-0.2,0.1-0.2,0
				c-0.2-0.3,0.1-0.4,0.1-0.4l0,0.2c0.4-0.2-0.1-0.8,0-1.2l0.3,0.2l-0.3-0.4c0.1-0.1,0.3-0.1,0.3,0c0.2-0.3-0.1-0.2,0.1-0.5
				c0,0,0,0,0.1,0L31,18.4c0.1,0.1,0.2,0,0.2,0.1c0.2-0.5-0.2-0.8,0-1l0,0c-0.1-0.7-0.2-0.1-0.5-0.6l0.6-0.3L31,16.7
				c0-0.1,0-0.2,0.1-0.2c-0.2-0.3-0.1,0-0.2-0.1c0.2-0.3-0.1-0.9,0.3-1c-0.2-0.1-0.1,0.3-0.3,0c0.4-0.1-0.1-0.4,0.1-0.7
				c0.2,0.1,0.1,0.4,0.3,0.1c-0.3-0.2,0.1-0.6,0-0.8c-0.3,0-0.1-0.6-0.2-1c0.1,0,0.1-0.8,0.2-1.2l0,0c-0.3,0-0.2-0.6-0.4-0.9
				c0.1-0.1,0.3,0,0.4,0.2c0,0-0.1-0.4-0.2-0.4c-0.1,0-0.2-0.1-0.4-0.3l0.2-0.1c-0.4-0.4-1-0.4-1.6-0.4l0,0c0,0,0,0.1,0,0.1
				c0.1,0.2,0.3,0.3,0.1,0.5c0,0-0.1,0.1-0.1,0.1c0-0.1-0.1-0.3,0-0.3c0,0-0.1,0.1-0.2,0.1l0.2-0.2c-0.2,0-0.1,0.2-0.3,0.2
				c0-0.1-0.1-0.1-0.1-0.2c0,0,0.2,0,0.2,0c-0.2,0-0.5,0-0.6-0.1c0,0.1,0,0.2-0.1,0.2c-0.4,0.1-0.2-0.2-0.4-0.2
				c-0.1,0.1-0.3,0.1-0.3,0.3c-0.1,0-0.1-0.1-0.2-0.1c-0.2,0.1-0.9,0.2-0.6,0.4l0.1,0l0,0l0,0l0,0c-0.6,0.3-1.3,0.1-1.9,0.3l0-0.1
				c-0.4,0.2-0.8,0.2-1.1,0.4c-0.1,0-0.3-0.1-0.3-0.2c-0.3,0.1-0.3,0.2-0.7,0.2c0.3-0.2-0.1-0.1,0.3-0.1c-0.4,0-0.5-0.1-0.8,0.2
				c0.1-0.2-0.3-0.2-0.5-0.1l0.3,0.1c-0.2,0.1-0.4,0.1-0.5,0.1l0-0.3c-0.8-0.2-1.3,0.8-1.9,0.4c-0.2,0.2,0.4,0,0.3,0.3
				c-0.3,0-1-0.1-1.1,0c-0.4,0.1-0.4,0.4-0.5,0.5c0,0.2-0.1,0.4-0.2,0.7c0.1-0.1,0.3,0,0.3,0.4c-0.1,0.4-0.4,0.5-0.5,0.2
				c0-0.1,0-0.2,0.1-0.2c0-0.2,0-0.4-0.1-0.2l0.1,0.1c-0.1,0.1-0.1,0.4-0.1,0.5c0,0.1-0.1,0.2-0.1,0.2c0.1,0.3,0.1,0.1,0.2-0.1
				c-0.1,0.5,0,0.7-0.1,1.2c0-0.1,0.2-0.1,0.2-0.1c-0.1,0.7,0.2,0.3,0.2,0.8c-0.1,0.3-0.3-0.1-0.2,0.4c-0.1,0.3-0.2,0.1-0.3-0.1
				c0.2,0.4-0.1,0.8-0.1,1l-0.1-0.2c0,0.1,0,0.2,0,0.4l0.2-0.1c0,0.1,0,0.2-0.1,0.2c0.1,0.1,0.3-0.1,0.5,0.2
				c-0.1,0.2,0.1,0.5-0.1,0.6c0.1-0.6-0.2,0.1-0.3-0.4c0,0.1,0,0.2,0,0.3c0,0,0,0-0.1-0.1c-0.2,0.5,0.3,0.2,0.3,0.8
				c-0.1-0.1-0.3,0.1-0.2,0.2c0-0.2,0.2-0.1,0.3,0.1c-0.1,0.4,0.1,0.4,0.1,0.6l0-0.2c0.1,0.1,0.1,0.2,0.2,0.5
				c-0.1,0-0.1-0.2-0.1-0.1c0.2,0.3-0.2,0.6-0.1,1c-0.1,0.2-0.3,0-0.3,0.2c0.2,0.4-0.2,0.5,0,0.9c0.2-0.1,0.1-0.2,0.3,0.2l-0.1-0.7
				l0.3,0.5c0-0.2-0.1-0.5-0.1-0.6c0.1,0.2,0.1,0.2,0.2,0.1c-0.3,0.3,0.2,0.6,0,1l-0.4,0c-0.2,0.5,0.2,0.9,0.1,1.6l0.1-0.2
				c0.2,0.1,0,0.4,0.1,0.6c-0.1,0-0.2,0.1-0.3,0.2c0.1,0,0,0.5,0.3,0.5c0,0-0.2,0.2-0.2,0.1c-0.1,0.1,0,0.2,0,0.4
				c0,0.1,0,0.3-0.2,0.4c0-0.2-0.2-0.2-0.1-0.4c-0.1,0.1-0.2,0.1-0.1,0.2c-0.1-0.1-0.2,0.3-0.4,0.2c0,0.1-0.1,0.2-0.3,0.2
				c0,0,0-0.1,0-0.1c0,0.1-0.3,0.1-0.1,0.3c-0.3-0.2-0.6-0.2-1.1-0.2c-0.4,0.1-0.8,0.2-1.1,0.2c-0.4,0.2-0.8,0.6-1,1
				c0,0-0.1,0,0-0.1c-0.5,0.4,0.1,0.5-0.3,1c-0.3,0.2,0-0.4-0.2-0.2c-0.2-0.1-0.3,0.1-0.3,0.4c0,0.3,0,0.6-0.1,0.8l0-0.1
				c-0.2,0.4,0.2,0.9,0.4,1.4c0,0-0.1,0-0.1,0c0.4,0.3,0.8,0.8,1.2,1c-0.2,0-0.2-0.1-0.3,0.1c0.2,0.1,0.2-0.3,0.5-0.1
				c0.1,0.2,0.3,0.4,0.3,0.6c0,0-0.1,0-0.2-0.1c-0.1,0-0.2-0.1-0.2-0.1c0.1,0.4,0.5,0.3,0.7,0.4L15,32.1c0.7,0.2,0.8-0.2,1.4-0.1
				l-0.1-0.1c0.3-0.3,0.3,0.2,0.7-0.1l0.2,0.3c0.3-0.1,0.8-0.5,1.1-0.7c-0.1,0.3-0.6,0.6-0.9,0.8c0.3,0,0.8-0.3,0.9-0.5
				c-0.1,0.1-0.2,0.2-0.3,0.2c0.2-0.3,0.5-0.6,0.9-0.9c0.1,0.3,0.4,0.1,0.7-0.2c0.3-0.3,0.5-0.6,0.8-0.7c0.1-0.5,0.3-0.9,0.5-1.3
				c0.2-0.4,0.2-1,0.2-1.4c-0.4,0.3,0-0.3-0.5-0.2c0-0.2,0-0.3,0-0.3l0.3-0.6c0.1-0.2,0.1,0.2,0.2,0.2c0-0.5,0.2-0.2,0.3-0.5
				c-0.2,0.1-0.2-0.2-0.2-0.4L21,25.8c-0.2-0.6,0.4-0.6,0.1-1.2l0.1,0.2c-0.1-0.3,0-1.2-0.4-1.6c0.1-0.1,0.2-0.1,0.2,0
				c0.1-0.8-0.4-1.8-0.2-2.4l0.1,0.1c0-0.1-0.2-0.3-0.1-0.4c0,0,0.1,0.1,0.1,0c0-0.1-0.2-0.4-0.1-0.6l0.1,0.2
				c0.1-0.8-0.3-1.2-0.4-1.9c0.2,0,0.3-0.2,0.3-0.3c0-0.1,0.1-0.1,0.1-0.2c0,0,0,0,0.1,0l0,0c0,0,0,0,0-0.1c0,0,0-0.1,0.1-0.2
				c0,0,0.1,0,0.1-0.1l0.2-0.1c0.1-0.1,0.3-0.1,0.4-0.2c0.6,0.3,1.8-0.2,2.6-0.1c-0.1,0,0-0.3,0.1-0.3c0.2,0,0.5-0.3,0.5,0l-0.1,0
				c0.2,0.3,0.6,0.1,0.9,0.1l0-0.4c0.5,0.2,1,0.1,1.5-0.1c0.1,0,0.2-0.1,0.3-0.1c0.1,0,0.1,0,0.1,0c0.1,0,0.1,0,0.1,0.2
				c0.1-0.1,0.2-0.1,0.3-0.3l-0.2,0.3l0,0c0,0.2-0.1,0.2,0,0.3l-0.2,0c0,0,0,0,0.1,0.1c0.1,0.1,0.1,0.1,0.2,0.2
				c0.2,0.1,0.3,0.2,0.3,0.4l-0.3,0.1c0,0.7-0.3,1.4,0,2c0,0-0.1,0-0.2-0.1c0,0.3-0.2,1.2,0.2,1.1c-0.3,0,0,0.7,0.1,1.1l-0.2-0.1
				c0.3,0.3,0.3,0.3,0.4,0.7c0,0.1-0.2,0.1-0.1,0c-0.1,0.3,0.2,0.3,0.1,0.6l-0.1-0.1c0,0.2,0,0.2,0.1,0.4c0,0.2-0.3,0.4-0.5,0.3
				c0.1,0.1,0.1,0.3-0.1,0.3c0-0.1,0-0.1,0-0.1c-0.2,0-0.3,0.1-0.4,0.2c-0.1,0.1-0.3,0.1-0.5,0c0-0.1,0-0.1-0.1-0.1
				c0.2,0,0.4,0,0.6,0c0.1,0,0.1,0,0.1,0c-0.1-0.2-0.2-0.2-0.1-0.5c0,0.1-0.2,0.2-0.4,0.3c-0.2,0.1-0.4,0.1-0.6,0.1c0,0,0,0,0-0.1
				l0,0c-0.1,0-0.2,0-0.3,0c-0.2,0-0.2,0-0.4,0c-0.1-0.2-0.6,0-0.8,0.1c0.1,0.2-0.2,0.3,0.1,0.3c0,0,0,0,0.2-0.1c0,0,0.1,0,0.1-0.1
				l0,0c0.1-0.1,0.3-0.1,0.5-0.1c-0.2,0.1-0.3,0.3-0.6,0.2c-0.1,0.2-0.1,0.3-0.2,0.4c-0.4-0.2-1,0.1-1.2,0c-0.2,0.3-0.5,0.6-0.7,1
				c-0.2,0.4-0.2,0.7,0,1c0,0.2-0.1,0.2-0.2,0.3c0-0.1,0-0.3,0-0.3c0,0.4,0,1.2,0.3,1.2c0,0.5-0.3-0.2-0.1,0.4l-0.1-0.1
				c0,0.7,0.5,1.2,1,1.4c0.5,0.3,1,0.4,1.6,0.8c-0.1-0.1-0.1-0.1-0.1-0.1c0.2,0.1,0.4,0.1,0.6,0.1c0.2,0,0.4,0,0.6,0
				c0.4,0,0.8-0.1,1.2-0.2c0.8-0.3,1.4-0.7,2-1.2c0.3-0.3,0.2-0.5,0.3-0.7l0.2,0c0,0,0-0.5,0-0.5c0-0.5,0.7-0.9,0.6-1.6L30.9,26l0,0
				l0.7-0.2l-0.1-0.4c0-0.1,0-0.1-0.1-0.2l-0.2,0.1c0-0.3-0.1-0.8,0.1-0.8c0,0-0.2-0.1-0.1-0.2l0.1,0l-0.2-0.6
				c0.1-0.5,0.5,0.1,0.5-0.7c0-0.3-0.3-0.8-0.4-0.7c0,0.1-0.1,0.3-0.2,0.3l-0.1-0.2c-0.3,0-0.7-0.2-1,0.4l0.2,0.4L30,23.4l0-0.4
				c-0.2,0.2,0,0.3,0.1,0.5c-0.1,0-0.2,0.1-0.2,0.2l0.3,0.4c-0.1,0.1-0.3-0.2-0.3,0.1c0.2,0.2,0.3-0.2,0.4,0.1
				c-0.2,0.2-0.3,0.1-0.2,0.4c-0.1,0-0.1,0-0.2-0.1c0.1,0.2,0,0.6,0.2,0.7c0,0.1-0.1,0.1-0.1,0.2l0.8-0.8l0,0l-0.6-0.1l-0.2,0.8
				c0,0.2,0,0.4-0.2,0.4c0.1,0.1,0.2,0.3,0.2,0.5c-0.3-0.4-0.2,0.5-0.6,0.3c0.2,0.3-0.2,0.7-0.4,1.1c0,0,0-0.1,0-0.1
				c-0.2,0.1-0.3,0.1-0.4,0.1c0.2,0.3-0.1,0.5-0.2,0.7c-0.4-0.1,0-0.4-0.2-0.6c0.1,0.2-0.3,0.4-0.1,0.5c-0.2-0.1-0.2,0-0.4-0.2
				c0.1,0.4-0.1,0.1-0.3,0.4c-0.3-0.1-0.1-0.3-0.4-0.2C27.1,28.2,27.3,28.1,27.3,28.1z M26.9,24.5L26.9,24.5c-0.1,0-0.2,0-0.2,0
				C26.8,24.5,26.9,24.5,26.9,24.5z M27.7,24.5c-0.1,0-0.2,0-0.3,0c0-0.1,0-0.1,0.1-0.1C27.4,24.4,27.6,24.4,27.7,24.5z M25.9,23.2
				c0.2-0.1,0.2,0,0.2,0C26,23.2,25.9,23.2,25.9,23.2l0,0.1C25.8,23.2,25.8,23.2,25.9,23.2z"/>
			<path class="st1" d="M25.7,23.5C25.6,23.5,25.6,23.5,25.7,23.5C25.6,23.6,25.7,23.6,25.7,23.5L25.7,23.5L25.7,23.5z"/>
			<path class="st1" d="M27,10.4L27,10.4C27,10.4,27,10.4,27,10.4C27,10.4,27,10.4,27,10.4z"/>
			<polygon class="st1" points="28.8,14.1 28.8,14.1 28.9,14.1 			"/>
			<path class="st1" d="M30.5,11.3C30.4,11.3,30.4,11.3,30.5,11.3C30.4,11.3,30.4,11.3,30.5,11.3z"/>
			<path class="st1" d="M30.4,13l-0.1,0.3C30.4,13.2,30.4,13.1,30.4,13z"/>
			<path class="st1" d="M30.3,14.5C30.4,14.5,30.4,14.5,30.3,14.5L30.3,14.5L30.3,14.5z"/>
			<path class="st1" d="M19.5,19.4C19.5,19.4,19.5,19.4,19.5,19.4C19.6,19.6,19.5,19.5,19.5,19.4z"/>
			<path class="st1" d="M19.2,12.8c0,0.1,0,0.1,0,0.2C19.3,13,19.3,12.9,19.2,12.8z"/>
			<path class="st1" d="M17.5,27.3L17.5,27.3C17.4,27.3,17.4,27.3,17.5,27.3L17.5,27.3z"/>
			<path class="st1" d="M19.2,13.2c0.1-0.1,0.1-0.1,0.1-0.2C19.2,13.1,19.1,13.2,19.2,13.2z"/>
			<path class="st1" d="M30.2,20.7L30.2,20.7C30.2,20.7,30.2,20.7,30.2,20.7L30.2,20.7z"/>
			<path class="st1" d="M30.3,20.7L30.3,20.7C30.3,20.8,30.3,20.8,30.3,20.7z"/>
			<path class="st1" d="M30.3,21l-0.1-0.2C30.3,20.9,30.3,20.9,30.3,21z"/>
			<path class="st1" d="M30.3,18.8L30.3,18.8C30.3,18.8,30.3,18.8,30.3,18.8z"/>
			<path class="st1" d="M30.3,18.2c0,0.1-0.2,0.3-0.1,0.5l0.1,0C30.1,18.7,30.4,18.3,30.3,18.2z"/>
			<path class="st1" d="M31.2,15.8l-0.1,0.5c0.1-0.1,0.2-0.2,0.2,0C31.6,15.7,31.2,16.4,31.2,15.8z"/>
			<path class="st1" d="M31.4,14.3c0,0.3,0.1,0,0.2,0C31.5,14.1,31.4,14.1,31.4,14.3z"/>
			<path class="st1" d="M23.6,10.9l0-0.2C23.4,10.7,23.6,10.7,23.6,10.9z"/>
			<polygon class="st1" points="21.8,12.2 22,12.3 22.1,12.1 			"/>
			<polygon class="st1" points="20.3,11.1 20.4,11.1 20.1,11.2 			"/>
			<path class="st1" d="M15,25.6l0.1,0.2C15.3,25.7,15.3,25.5,15,25.6z"/>
			<path class="st1" d="M16.3,32.1c0.1,0.1,0.4,0.2,0.5,0.1C16.6,32.2,16.4,32.1,16.3,32.1z"/>
			<polygon class="st1" points="26.7,16.4 26.5,16.5 26.8,16.4 			"/>
		</g>
		<g>
			<path class="st1" d="M32.4,4.4c-0.1,0.1,0,0.2,0.1,0.2l0.1-0.2L32.4,4.4z"/>
			<path class="st1" d="M33.5,5C33.8,4.9,34,4.7,34,4.5c-0.3,0.2-0.3,0.1-0.5,0.3c-0.2,0-0.3-0.1-0.3-0.2c-0.1,0.1-0.3-0.1-0.4,0.1
				c0.2,0.2,0.5,0.2,0.8,0.1C33.6,4.9,33.6,4.9,33.5,5z"/>
			<path class="st1" d="M38.9,18.6l0-0.1C38.9,18.5,38.9,18.6,38.9,18.6z"/>
			<path class="st1" d="M38.8,28.8c0-0.1,0-0.1-0.1-0.1C38.7,28.8,38.8,28.8,38.8,28.8z"/>
			<path class="st1" d="M38.5,30.5C38.5,30.5,38.5,30.4,38.5,30.5C38.5,30.4,38.5,30.5,38.5,30.5z"/>
			<path class="st1" d="M38.9,18.6l-0.1,0.3C38.9,18.9,38.9,18.7,38.9,18.6z"/>
			<path class="st1" d="M36,5.2c-0.1,0-0.1,0-0.2,0L36,5.2L36,5.2z"/>
			<path class="st1" d="M38.7,14.1L38.7,14.1c0-0.1-0.1-0.1-0.1-0.2L38.7,14.1z"/>
			<path class="st1" d="M38.6,10.8c0,0.1,0.2,0.1,0.3,0.1c-0.1,0-0.1-0.1-0.2-0.1C38.7,10.7,38.6,10.7,38.6,10.8z"/>
			<path class="st1" d="M36.2,6.3L36.2,6.3C36.1,6.3,36.2,6.3,36.2,6.3z"/>
			<path class="st1" d="M38.7,16.6C38.6,16.6,38.6,16.6,38.7,16.6C38.6,16.6,38.6,16.6,38.7,16.6z"/>
			<path class="st1" d="M28.4,3.9C28.4,3.9,28.4,3.9,28.4,3.9C28.4,3.9,28.4,3.9,28.4,3.9z"/>
			<path class="st1" d="M32.4,5L32.4,5C32.3,5,32.3,5,32.3,5.1L32.4,5z"/>
			<path class="st1" d="M37.4,33L37.4,33C37.4,33,37.4,33,37.4,33z"/>
			<path class="st1" d="M10.9,35.1c0.1,0.3-0.5-0.1-0.3,0.4C10.6,35.3,11.1,35.4,10.9,35.1z"/>
			<path class="st1" d="M36.1,5.2l0.1,0.1C36.1,5.3,36.1,5.3,36.1,5.2z"/>
			<path class="st1" d="M10.6,35.4L10.6,35.4L10.6,35.4C10.6,35.4,10.6,35.4,10.6,35.4z"/>
			<path class="st1" d="M32.1,36C32.1,36,32.2,36.1,32.1,36C32.2,36.1,32.2,36,32.1,36z"/>
			<path class="st1" d="M36.7,34.6l-0.1,0.1C36.6,34.6,36.7,34.6,36.7,34.6z"/>
			<path class="st1" d="M29.3,36.3c-0.1,0-0.1,0-0.2,0c0,0,0,0,0,0C29.1,36.3,29.2,36.3,29.3,36.3z"/>
			<path class="st1" d="M26.3,36.3C26.3,36.3,26.3,36.3,26.3,36.3c0.1,0,0.1,0,0.1,0L26.3,36.3z"/>
			<path class="st1" d="M19.4,4c0.1,0.1,0.1,0.1,0.1,0.2C19.5,4.1,19.9,4,19.4,4z"/>
			<path class="st1" d="M35.9,5.3c0,0,0.1,0,0.1,0L35.9,5.3C35.9,5.2,35.9,5.2,35.9,5.3z"/>
			<path class="st1" d="M29.2,38l-0.5,0C28.8,38,29,38,29.2,38z"/>
			<path class="st1" d="M6.4,16.9l0-0.1C6.4,16.9,6.4,16.9,6.4,16.9z"/>
			<path class="st1" d="M27.3,38c-0.1-0.1-0.2-0.1-0.3-0.1c0,0,0,0-0.1,0.1L27.3,38z"/>
			<path class="st1" d="M19.5,4.2L19.5,4.2L19.5,4.2z"/>
			<path class="st1" d="M22.6,3.7c-0.4,0-0.2,0.3-0.3,0.4c-0.5,0.1-0.2-0.2-0.4-0.3c-0.3,0.1-0.6,0.3-0.8,0.3c0,0-0.1-0.1,0-0.1
				c-0.4,0.2-1,0-1.5,0.3c0,0,0,0-0.1-0.1c0.1,0.1,0.1,0.3,0.1,0.4c-0.2,0-0.4,0.2-0.4,0c0.1,0,0.1-0.1,0.2-0.1l-0.2,0.1
				c-0.2-0.3,0.3-0.1,0.3-0.3c-0.4,0.1-0.9,0.3-1.2,0.2c-0.1-0.3,0.7-0.1,0.3-0.3L19,4.3c-0.4-0.4,0.3,0,0-0.4
				c-0.6-0.1-0.7,0.1-1.4,0.1c-0.1,0.1,0,0.2-0.1,0.4c-0.9,0.3-0.7-0.6-1.4-0.3c-0.2,0.2-0.2,0.5-0.7,0.3L15.6,4
				c-0.6,0-0.4,0.4-1,0.2c0.1-0.1,0.5-0.1,0.4-0.1c-0.4-0.2-0.3,0.2-0.6,0.2L14.3,4C13.6,4,12.8,4.3,12,4.6c0-0.1,0.1-0.2-0.1-0.2
				C11,4.7,9.9,5.2,9,5.7L8.9,6.1c-0.1,0.1-0.2,0-0.1-0.1c-0.3,0.2,0.1,0.1,0,0.3c-0.1,0.2-0.3,0.1-0.2,0C8.1,7,7.6,8.1,7.1,8.7
				l0-0.2C6.8,9,7.3,9.3,7,9.7l0-0.1c-0.2,0.6-0.3,1.2-0.3,1.8c0,0.6,0,1.1-0.2,1.5C6.7,13,6.3,13.9,6.7,14
				c-0.2,0.6-0.3,0.4-0.4,1.3c0,0.2,0.3,0.3,0.3,0.6l-0.2,0l0.2,0.4l-0.3,0.2l0.1,0.3c0-0.1,0.1-0.2,0.2-0.2c0.1,0.4-0.2,1-0.3,1
				l0.2,1c-0.1,0-0.1-0.2-0.2-0.3c0.2,0.5-0.2,0.1,0,0.6c0.1-0.1,0.1,0,0.2,0c-0.1,0.2-0.1,0.8-0.1,1.2l-0.2-0.1
				c0,0.7,0.1,1.6,0.1,2.4c0.1-0.3,0.4-0.2,0.4,0l-0.2,0.1c0.2,0.2,0.1-0.3,0.3,0.1c0,0.3-0.3,0.2-0.4,0l0.1,0.4
				c-0.1,0-0.1-0.1-0.2-0.1c0.2,0.2-0.2,0.7,0,0.9l-0.1,0c0,0.8,0.1,1.2,0.1,1.9c0.2,0,0.2,0.3,0.3,0.5c-0.1,0.5-0.2,1.1-0.2,1.7
				c0.1,0.4,0.2,0.1,0.3,0.3c-0.2,0-0.2,0.6-0.3,0.3c0,0.7,0,0.9,0.2,1.9c0.1-0.1,0.1-0.2,0.2-0.2c0,0.2-0.1,0.4-0.2,0.4l0,0
				c0.2,0.5,0.2,1.2,0.2,1.8c0.1,0.6,0.3,1.3,0.7,1.6l0,0c0,0,0.2,0.2,0.3,0.3c0.2,0.2,0.4,0.3,0.4,0.3C8.4,35,7.9,34.5,8,34.9
				c0.9,0.6,1.1,1.2,1.9,1.6c0.1,0.4,0.6,0.7,1.2,0.9c0.6,0.2,1.2,0.3,1.6,0.6l0-0.1c0.2-0.1,0.3,0.1,0.4,0.2c0-0.1-0.2-0.2-0.1-0.2
				c1,0,1.9,0,2.8,0.1c0.9,0.1,1.8,0.2,2.7,0.3c0.6,0,0.4-0.7,1.2-0.4L19.5,38c1.3-0.3,2.7,0,3.9-0.2c-0.1,0.1-0.1,0.1-0.2,0.1
				c0.3,0.2,1,0,1-0.1c0.2,0,0,0.1,0.2,0.2c0.3,0.1,0.7-0.2,0.8-0.1c0,0-0.1,0.1-0.1,0.1c0.2-0.1,0.8,0,0.7-0.2
				c0.5,0.1,0.9-0.1,1.3,0c0.2-0.2,0.8,0.1,0.9-0.2c0,0.3,0.8,0.3,1.1,0.1c-0.1,0.1,0.3,0.1,0.1,0.2c0.3,0,0.7-0.1,0.6-0.2
				c0.6,0.4,1.3-0.3,1.6,0.2c1-0.2,2.1-0.3,3-0.7c0,0.2-0.2,0.2-0.5,0.3c-0.3,0.1-0.5,0.1-0.5,0.3c1-0.3,1.4-0.7,2.3-1.1
				c0.2-0.1-0.1,0.2-0.1,0.3c0.8-0.5,1.7-1,2.1-1.7c0,0,0,0.1-0.1,0.2c0.1-0.1,0.3-0.3,0.2-0.3l-0.1,0.2c-0.3,0,0.1-0.8,0-0.9
				c0.2,0.5,0.6-0.6,0.8,0.1c0-0.1,0.1-0.3,0-0.3c0.1-0.1,0.2-0.1,0.2,0.1c0.2-0.6,0-0.5,0.3-0.9c0.1,0,0,0.1,0.1,0.2
				c0-0.3,0-0.6,0.2-1c0,0,0.1,0,0.1,0.1c0.3-0.8,0-1.4,0.2-2.2c0.3,0.3,0.1-0.3,0.4-0.3c0,0-0.1-0.5-0.1-0.4L39.8,30
				c0-0.4-0.2-0.7-0.1-1l0.1,0.3l-0.1-0.7l-0.1,0.4c-0.1-0.4-0.4,0-0.3-0.5c0,0.1,0-0.4,0.2-0.6l0,0c-0.1-0.2-0.2-0.4-0.1-0.7
				c0.1-0.1,0.3,0.1,0.4,0c-0.2-0.2-0.1-0.9-0.3-1.1c0.1,0.1,0.2,0.1,0.2,0.1l-0.2-0.2c0.1-0.2,0.1-0.2,0.2-0.2
				c0-0.5-0.4,0.2-0.2-0.5c0,0,0,0,0.1,0.1c0.1-0.6-0.1-1.2,0-1.8c0.3-0.2,0.1,0.5,0.3,0.3c-0.1-0.8-0.3-1.7-0.3-2.5l0,0.1
				c-0.4-0.1,0.2-0.6,0-1c0,0.1,0.2,0.1,0.2,0.1c0.1-0.5-0.1-1.1-0.2-1.9l0.1,0.1c0.1-0.3,0.1-0.8,0.1-1.2c-0.1-0.1-0.1-0.3-0.2-0.2
				c0.6-1.1-0.3-2,0.2-3c0,0.1,0.1,0.3,0.1,0.2l-0.1-0.8c-0.2,0.1-0.1,0.1-0.2,0.3c-0.1-0.1-0.2-0.3-0.2-0.5c0.1,0.4,0.3,0,0.4-0.2
				c-0.1,0-0.1,0-0.2,0c0.3-0.4-0.3-0.1-0.1-0.6l0.1,0c0-0.2-0.2-0.4-0.1-0.6c0.2-0.1,0.1,0.2,0.3,0.2c0-0.3-0.4-0.6-0.2-0.9
				c0.1,0.1,0.1,0.3,0.1,0.5c0.2-0.3,0.2-0.4,0.2-0.6l0,0l0.1-0.6l-0.1,0.2c-0.6-0.4-0.2-0.9-0.7-1.3c0.4,0.4,0.2,0,0.4,0
				c0-0.2,0-0.4,0.1-0.4c-0.3-0.2,0-0.5-0.4-0.8c0.1,0-0.1-0.3,0.1-0.3C39,8.1,39.1,8.5,39,8.5c-0.4-0.4-0.4-1.3-1.2-1.7
				c-0.6-0.4-0.8-0.3-1.4-0.6c-0.1-0.2,0.3-0.1,0.3-0.1c-0.2-0.3-0.4-0.4-0.8-0.5c0.1,0,0.1-0.1,0-0.2c-0.2-0.1-0.3,0.2-0.5-0.1
				c0.1,0,0.2-0.1,0.4-0.1c-0.3-0.1-0.6-0.1-1-0.1c0-0.1,0.2-0.1,0.4-0.2c-0.4-0.1-0.9-0.2-1.1,0L34.3,5c-0.1,0,0-0.2,0.1-0.2
				c0.3-0.1,0.4,0.2,0.4,0.3l-0.2,0c0,0.2,0.2,0.3,0.5,0.3c0.2,0,0.6,0.1,0.7,0.2l-0.3,0.2c0,0,0.5,0,0.5,0c0,0.1,0,0.3-0.2,0.2
				c0.2,0.3,0.3,0,0.4,0.3c0,0,0,0,0,0l0.3,0.1c-0.1,0-0.1,0.2-0.2,0.1c0.3,0.4,0.8,0.4,0.8,0.7l0,0c0.6,0.5,0.2-0.1,0.8,0.1
				c0,0-0.1,0.2-0.1,0.3c-0.1,0.2-0.1,0.3-0.1,0.3l0.2-0.1c0,0.1,0.1,0.2,0,0.2c0.3,0.2,0.1-0.1,0.3,0c0,0.4,0.6,0.9,0.3,1.1
				c0.2,0,0-0.4,0.3-0.1c-0.3,0.3,0.2,0.4,0.2,0.8c-0.2,0-0.2-0.4-0.3,0c0.4,0.1,0.1,0.6,0.2,0.9c0.3,0,0.2,0.6,0.3,1
				c-0.1,0-0.1,0.9-0.2,1.4l0,0C39,13.2,39,13.6,39,14c-0.2,0-0.2-0.1-0.3-0.3l0,0.3c0.1,0.1,0.1,0.2,0.2,0.4l-0.2-0.1
				c0,0.4,0.2,0.9,0.1,1.4c0.2,0,0.5-0.4,0.7,0.1c-0.1,0-0.3,0-0.3-0.1c0,0,0.1,0.2,0,0.3L39,15.8c-0.1,0.2,0.1,0.1,0.1,0.3
				c-0.1,0-0.1,0.1-0.2,0.1c0-0.1,0.1-0.2,0-0.2c0,0.2-0.1,0.5-0.2,0.6c0.1,0,0.2,0,0.2,0.2c0,0.4-0.2,0.1-0.3,0.4
				c0.1,0.1,0,0.4,0.2,0.4c0,0.1-0.1,0.1-0.2,0.2c0.1,0.2,0,1,0.3,0.8l0-0.1l0,0v0v0c0.2,0.7-0.1,1.5,0,2.2l-0.1,0
				c0.1,0.4,0.1,0.9,0.2,1.2c0,0.1-0.1,0.3-0.2,0.2c0.1,0.3,0.1,0.4,0,0.8c-0.1-0.3-0.1,0.1-0.1-0.3c-0.1,0.4-0.2,0.5,0,1
				c-0.2-0.2-0.2,0.3-0.2,0.5l0.1-0.3c0,0.2,0,0.4,0,0.6l-0.2-0.1c-0.3,0.9,0.5,1.6,0,2.2c0.2,0.2,0.1-0.5,0.3-0.3
				c0,0.4-0.4,0.8-0.4,0.9c-0.1,0.5,0.4,0.5,0.3,1.1c0.1-0.1,0.3-0.1,0.4,0.3c0,0.4-0.4,0.5-0.4,0.2c0-0.1,0-0.1,0.1-0.1
				c0-0.1-0.1-0.3-0.2-0.1l0.1,0.1c-0.1,0.2-0.1,0.7-0.2,0.6c0.1,0.3,0.1,0.1,0.2-0.1c-0.1,0.5,0,0.8-0.1,1.3
				c0.1-0.1,0.2-0.1,0.2-0.1c-0.1,0.7,0.1,0.3,0.1,0.8c-0.2,0.2-0.3-0.2-0.3,0.3c-0.2,0.3-0.2,0-0.3-0.1c0.1,0.5-0.3,0.7-0.4,0.9
				l0-0.2c0,0.1,0,0.2-0.1,0.3l0.2,0c-0.1,0.1-0.1,0.2-0.2,0.2c0,0.2,0.3,0,0.3,0.3c-0.1,0.1-0.2,0.5-0.4,0.5c0.4-0.4-0.2-0.1,0-0.5
				c0,0.1-0.1,0.2-0.2,0.3c0,0,0,0,0-0.1c-0.4,0.3,0.1,0.3-0.2,0.8c-0.1-0.1-0.3-0.1-0.3,0c0.1-0.2,0.2,0.1,0.2,0.3
				c-0.3,0.2-0.2,0.3-0.4,0.5c0,0,0.2-0.1,0.2-0.1c0,0.1-0.1,0.3-0.3,0.5c-0.1-0.1,0.1-0.2,0-0.2c-0.1,0.4-0.6,0.2-0.9,0.6
				c-0.2,0-0.1-0.2-0.3-0.2c-0.3,0.4-0.5,0-0.8,0.4c0.2,0.1,0.2,0.1,0,0.3c0,0,0.6-0.4,0.6-0.4l-0.3,0.4c0.2-0.1,0.4-0.3,0.5-0.3
				c-0.1,0.2-0.1,0.2,0,0.3c-0.4-0.1-0.5,0.4-0.9,0.4l-0.1-0.4c-0.5,0-0.8,0.5-1.6,0.4c0,0,0.2,0.1,0.2,0.1c-0.1,0.2-0.4,0-0.7,0.1
				c0-0.1-0.1-0.2-0.2-0.3c0,0.1-0.6,0-0.6,0.3l-0.3-0.2c-0.6-0.1-0.7,0.4-1.3,0.4c0.2-0.2-0.1-0.3,0.3-0.4c-0.2,0-0.4,0-0.4,0.1
				c-0.1-0.1-0.6,0.2-0.7,0.1c-0.1,0.1-0.1,0.2-0.3,0.2c0,0,0-0.1,0-0.1c0,0.1-0.3,0.1-0.2,0.3c-0.6-0.5-1.7,0-2.2-0.4
				c-0.4,0-1,0.1-1.4,0.1c0,0,0-0.1,0.1-0.1c-0.5-0.1-0.3,0.4-1,0.3c-0.3-0.2,0.3-0.1,0.1-0.2c-0.1-0.5-0.7,0.1-1.2-0.2l0.1,0
				c-0.3-0.2-0.8,0.2-1.3,0.1c0,0,0,0,0-0.1c-0.4,0.2-1,0.3-1.5,0.4c0.2-0.2,0.2-0.1,0.1-0.3c-0.2,0,0.1,0.3-0.4,0.4
				c-0.1-0.1-0.5-0.2-0.5-0.4l0.4,0c-0.2-0.3-0.5,0-0.8,0l0-0.1c-0.6,0-0.7,0.3-1.4,0.3l0.1,0.1c-0.4,0.3-0.3-0.2-0.7,0.1l-0.1-0.3
				c-0.3,0.1-0.9,0.3-1.3,0.3c0.3-0.2,0.8-0.3,1.1-0.5c-0.2,0-0.8,0-1,0.2c0.1,0,0.2-0.1,0.3-0.1c-0.3,0.2-0.7,0.3-1.2,0.3
				c0.1-0.6-1.3-0.1-1.6-0.6c-0.8,0.1-1.5-0.4-2.3-0.7c0.1,0.5-0.2-0.1-0.4,0.3c-0.2-0.1-0.3-0.1-0.3-0.2c0,0-0.4-0.6-0.4-0.6
				c0-0.2,0.2,0,0.3-0.1c-0.3-0.3,0-0.3-0.2-0.5c-0.1,0.2-0.3,0.1-0.4-0.2c0,0,0.1,0.4,0.1,0.4c-0.6-0.3-0.1-0.6-0.7-1l0.2,0.1
				c-0.3-0.2-0.6-1-1.1-1.1c0-0.1,0.1-0.2,0.2-0.1c-0.3-0.7-0.9-1.6-0.6-2.3l0.1,0.1c0-0.1-0.2-0.3-0.1-0.5c0,0,0.1,0.1,0.1,0
				c0-0.1-0.2-0.4-0.1-0.7l0.1,0.2c0.1-0.9-0.3-1.3-0.4-2.1c0.3,0,0.4-0.7,0.5-1l0,0c0-1-0.3-1.7-0.4-2.7c0.4-0.6,0.1-2,0.4-2.9
				c-0.1,0.1-0.3,0-0.3-0.2c0.1-0.2-0.2-0.6,0.1-0.6l0,0.1c0.3-0.2,0.2-0.6,0.2-1l-0.4-0.1c0.6-0.9-0.2-2.4,0.3-2.9
				c-0.1-0.2-0.1-0.5-0.2-0.7l0.2,0c0.1-0.6,0.1-0.9,0-1.7l0.2,0.2c0-0.4-0.6-0.5-0.6-0.9l0.3-0.1c0-0.8,0.3-1.4,0.1-2.1
				c0,0,0.1,0.1,0.1,0.2c0.1-0.3,0.5-1,0.1-1.1c0.3,0.1,0.3-0.6,0.4-1L9,8.6C8.9,8.2,8.9,8.2,9.1,7.8c0.1-0.1,0.2,0,0.1,0.1
				c0.3-0.2,0-0.3,0.4-0.6l0,0.2C9.8,7.2,9.8,7.2,9.8,7c0.1-0.2,0.6-0.4,0.7-0.3c0-0.1,0-0.4,0.3-0.4c0.1,0,0,0.1,0,0.2
				c0.3-0.1,0.5-0.3,0.6-0.4c0.2-0.1,0.3-0.3,0.5-0.2C12,5.9,12,5.9,12,5.9c-0.5,0.1-0.8,0.3-0.8,0.3c0.1,0.2,0.4,0,0.3,0.4
				c0.2-0.3,0.5-0.7,0.9-0.8c0,0,0,0,0.1,0.1l0,0c0.1,0,0.2,0,0.2-0.1c0.1,0,0.2,0,0.3,0c0.1,0.2,0.4,0,0.6,0c0-0.2,0.2-0.2,0-0.4
				c0,0,0,0-0.2,0c0,0-0.1,0-0.1,0l0,0c-0.1,0-0.3,0.1-0.5,0.1c0.1-0.1,0.3-0.2,0.5-0.2c0.1-0.1,0.2-0.3,0.2-0.4
				c0.3,0.3,0.8,0.4,0.9,0.6c0.6-0.1,1.5-0.1,1.9-0.5c0.2-0.1,0.2,0.1,0.3,0.2c-0.1,0-0.2,0-0.3,0.1c0.4-0.1,1.1,0,1.2-0.3
				c0.5,0.1-0.3,0.3,0.4,0.2l-0.1,0.1c1.2,0.4,2-0.7,3.4-0.1c-0.1,0-0.1-0.1-0.2-0.1c1.6,0.3,3.2-0.2,4.8,0.2
				c0.4,0.1,0.5-0.1,0.8-0.2l0.1,0.2l0.5-0.3c0.6-0.2,1.1,0.6,1.9,0.2l-0.1-0.2c0.3,0,0.9-0.1,0.9,0.1c0,0,0.1-0.2,0.2-0.1l0,0.1
				l0.7-0.2c0.6,0.1-0.1,0.5,0.7,0.5c0.3,0,0.9-0.3,0.8-0.4c-0.1,0-0.3-0.1-0.3-0.2L32.4,5c0.1-0.3,0.3-0.7-0.4-1l-0.5,0.2l-0.2-0.2
				l0.4,0c-0.2-0.2-0.4,0-0.5,0.1C31.1,4,31.1,4,31,3.9l-0.5,0.3c-0.1-0.1,0.2-0.3-0.1-0.3c-0.2,0.2,0.2,0.3-0.2,0.4
				C30,4.2,30.1,4,29.8,4.2c0-0.1,0-0.1,0.1-0.2c-0.2,0.1-0.6,0-0.8,0.2c-0.2-0.2-0.8,0.1-0.8-0.3C28.3,4,28,4.2,27.8,4.2
				c0.4-0.4-0.8,0-0.7-0.4c-0.3,0.4-1.1,0.2-1.6,0.4c0,0,0.1-0.1,0.1-0.1c-0.3,0-0.4-0.1-0.6-0.2c0,0.3-0.5,0.4-0.7,0.5
				c-0.4-0.3,0.2-0.3,0.1-0.6c0,0.2-0.6,0.2-0.5,0.4c-0.3-0.2-0.2-0.1-0.4-0.3c0,0.4-0.3,0.1-0.5,0.3c-0.4-0.2-0.1-0.3-0.5-0.2
				C22.3,3.8,22.6,3.7,22.6,3.7z M12,4.6L12,4.6c0.1,0,0.2-0.1,0.2-0.1C12.2,4.6,12.2,4.6,12,4.6z M11.2,5c0.1,0,0.2-0.1,0.4-0.1
				c0.1,0.1,0,0.1,0,0.2C11.5,4.9,11.3,5,11.2,5z M13.3,5.9c-0.1,0-0.2,0-0.2,0C13.2,5.8,13.2,5.8,13.3,5.9l0-0.1
				C13.3,5.8,13.3,5.8,13.3,5.9z"/>
			<path class="st1" d="M13.5,5.6C13.5,5.6,13.5,5.5,13.5,5.6C13.5,5.5,13.5,5.5,13.5,5.6L13.5,5.6L13.5,5.6z"/>
			<path class="st1" d="M39,18.5L39,18.5C39,18.5,39,18.5,39,18.5C39,18.5,39,18.5,39,18.5z"/>
			<polygon class="st1" points="6.3,16 6.4,16 6.3,15.9 			"/>
			<path class="st1" d="M39.7,13.6C39.7,13.6,39.7,13.6,39.7,13.6C39.7,13.6,39.7,13.6,39.7,13.6z"/>
			<path class="st1" d="M39.7,11.5l0.1-0.3C39.7,11.4,39.7,11.5,39.7,11.5z"/>
			<path class="st1" d="M39.6,9.8C39.5,9.8,39.5,9.8,39.6,9.8L39.6,9.8L39.6,9.8z"/>
			<path class="st1" d="M37.8,35.5C37.7,35.5,37.7,35.6,37.8,35.5C37.6,35.7,37.7,35.6,37.8,35.5z"/>
			<path class="st1" d="M39.6,27.9c0,0.1,0.1,0.2,0.1,0.2C39.7,28,39.7,27.9,39.6,27.9z"/>
			<polygon class="st1" points="29.2,38 29.2,38 29.2,38 			"/>
			<path class="st1" d="M39.7,28.5c0-0.1,0-0.2,0-0.4C39.7,28.3,39.6,28.4,39.7,28.5z"/>
			<path class="st1" d="M34.5,4.6L34.5,4.6C34.5,4.5,34.4,4.5,34.5,4.6L34.5,4.6z"/>
			<path class="st1" d="M34.4,4.6L34.4,4.6C34.4,4.6,34.4,4.6,34.4,4.6z"/>
			<path class="st1" d="M34.1,4.6l0.2,0C34.3,4.5,34.2,4.5,34.1,4.6z"/>
			<path class="st1" d="M36.6,5.6L36.6,5.6C36.6,5.6,36.6,5.6,36.6,5.6z"/>
			<path class="st1" d="M37.2,6c-0.1-0.1-0.2-0.4-0.5-0.5l-0.1,0C36.8,5.6,37,6,37.2,6z"/>
			<path class="st1" d="M38.2,8.7c0,0-0.2-0.5-0.2-0.5c0,0.1-0.1,0.3-0.2,0.1C37.9,9,37.8,8.1,38.2,8.7z"/>
			<path class="st1" d="M38.6,10.3c-0.1-0.3-0.1,0-0.2,0C38.5,10.4,38.6,10.5,38.6,10.3z"/>
			<path class="st1" d="M38.8,22.3l-0.2,0C38.6,22.5,38.7,22.2,38.8,22.3z"/>
			<polygon class="st1" points="39.8,24.6 39.9,24.4 39.7,24.3 			"/>
			<polygon class="st1" points="38.4,26 38.4,25.9 38.4,26.2 			"/>
			<path class="st1" d="M26.8,36.1l0.1,0.2C27.1,36.3,27.1,36,26.8,36.1z"/>
			<path class="st1" d="M18,36.4c-0.1-0.1-0.3-0.2-0.5-0.1C17.7,36.3,17.9,36.4,18,36.4z"/>
			<polygon class="st1" points="8.2,18.3 8.3,18.5 8.2,18.1 			"/>
		</g>
	</g>
</g>
</svg>
