<?xml version="1.0" encoding="utf-8"?>
<!-- Generator: Adobe Illustrator 19.1.0, SVG Export Plug-In . SVG Version: 6.00 Build 0)  -->
<svg version="1.1" id="Layer_1" xmlns="http://www.w3.org/2000/svg" xmlns:xlink="http://www.w3.org/1999/xlink" x="0px" y="0px"
	 viewBox="0 0 230 55" style="enable-background:new 0 0 230 55;" xml:space="preserve">
<style type="text/css">
	.st0{fill:none;}
	.st1{fill:#202020;}
</style>
<g>
	<g>
		<path d="M66.6,7.1v9.1l-6.8,8.9v10h-4v-10L49,16.7V7.1h4v8.2l4.7,5.9h0.1l4.8-6.3V7.1H66.6z"/>
		<path d="M80.2,35.1c-4,0-7.2-3.3-7.2-7.2V14.3c0-4,3.2-7.2,7.2-7.2h3.2c4,0,7.2,3.2,7.2,7.2v13.6c0,4-3.2,7.2-7.2,7.2H80.2z
			 M86.6,27.8V14.3c0-1.8-1.4-3.2-3.2-3.2h-3.2c-1.8,0-3.2,1.4-3.2,3.2v13.6c0,1.8,1.4,3.2,3.2,3.2h3.2C85.1,31,86.6,29.6,86.6,27.8
			z"/>
		<path d="M114.6,27.8c0,4-3.2,7.2-7.2,7.2h-3.2c-4,0-7.2-3.3-7.2-7.2V7.1h4v20.8c0,1.8,1.4,3.2,3.2,3.2h3.2c1.8,0,3.2-1.4,3.2-3.2
			V7.1h4V27.8z"/>
		<path d="M138.6,11.1h-6.8v24h-4v-24H121v-4h10.8h6.8V11.1z"/>
		<path d="M162.6,27.8c0,4-3.2,7.2-7.2,7.2h-3.2c-4,0-7.2-3.3-7.2-7.2V7.1h4v20.8c0,1.8,1.4,3.2,3.2,3.2h3.2c1.8,0,3.2-1.4,3.2-3.2
			V7.1h4V27.8z"/>
		<path d="M186.6,26.3v1.6c0,4-3.2,7.2-7.2,7.2h-7.8H169v-28h4h5.6c4,0,7.2,3.2,7.2,7.2v1.6c0,1.8-0.7,3.6-1.8,4.8
			C185.5,22,186.6,24,186.6,26.3z M173,11.1v8h5.6c1.8,0,3.2-1.4,3.2-3.2v-1.6c0-1.8-1.4-3.2-3.2-3.2H173z M182.6,26.3
			c0-1.8-1.4-3.2-3.2-3.2H173v8h6.4c1.8,0,3.2-1.4,3.2-3.2V26.3z"/>
		<path d="M197,11.1v7.3h12v4h-12v8.7h13.6v4H193V22.4V11.1v-4h17.6v4H197z"/>
	</g>
	<g>
		<path class="st0" d="M34.6,13c-0.3-1.6-1.7-2.9-3.4-3.2c-2.5-0.5-7-0.9-12-0.9c-4.9,0-9.6,0.4-12.1,0.9C5.5,10.2,4,11.3,3.7,13
			c-0.3,1.9-0.6,4.5-0.6,7.9s0.3,6,0.7,7.9c0.3,1.6,1.7,2.9,3.4,3.2c2.6,0.5,7.1,0.9,12.1,0.9s9.5-0.4,12.1-0.9
			c1.6-0.4,3.1-1.5,3.4-3.2c0.3-1.9,0.7-4.6,0.8-7.9C35.3,17.5,34.9,14.9,34.6,13z M15.1,26.2V15.7l9.1,5.3L15.1,26.2z"/>
		<g>
			<path class="st1" d="M14.9,25.7c0,0.1,0.1,0.2,0.1,0.1L14.9,25.7L14.9,25.7z"/>
			<path class="st1" d="M15.4,26c0-0.1-0.1-0.3-0.2-0.5c0.1,0.2,0,0.2,0.1,0.4c0,0-0.1,0-0.1-0.1c0,0.1-0.1,0,0,0.1
				c0.1,0.1,0.2,0.1,0.2-0.1C15.3,25.9,15.4,25.9,15.4,26z"/>
			<path class="st1" d="M19.5,24.1L19.5,24.1C19.4,24.1,19.5,24.1,19.5,24.1z"/>
			<path class="st1" d="M21.9,22.8C21.9,22.8,21.9,22.9,21.9,22.8C22,22.8,22,22.8,21.9,22.8z"/>
			<path class="st1" d="M22.5,22.8C22.5,22.8,22.5,22.8,22.5,22.8C22.5,22.8,22.5,22.8,22.5,22.8z"/>
			<path class="st1" d="M19.5,24.1l0.1,0C19.5,24,19.5,24.1,19.5,24.1z"/>
			<path class="st1" d="M15.6,25.1C15.6,25.2,15.6,25.2,15.6,25.1C15.6,25.2,15.6,25.2,15.6,25.1L15.6,25.1z"/>
			<path class="st1" d="M18.5,24.9L18.5,24.9c0,0,0,0.1,0,0.1L18.5,24.9z"/>
			<path class="st1" d="M17.7,25.4c0,0-0.1-0.2-0.1-0.3c0,0.1,0,0.1,0,0.1C17.6,25.3,17.7,25.3,17.7,25.4z"/>
			<path class="st1" d="M16.2,25.8L16.2,25.8L16.2,25.8z"/>
			<path class="st1" d="M19.1,24.6C19.1,24.6,19.1,24.6,19.1,24.6C19.1,24.6,19.1,24.6,19.1,24.6z"/>
			<path class="st1" d="M16.1,25.1C16.1,25.1,16.1,25.1,16.1,25.1C16.1,25.1,16.1,25.1,16.1,25.1z"/>
			<polygon class="st1" points="15.1,26.2 15.1,26.1 15,26.1 			"/>
			<path class="st1" d="M23.7,22.4C23.7,22.4,23.7,22.4,23.7,22.4C23.7,22.5,23.7,22.4,23.7,22.4z"/>
			<path class="st1" d="M19.2,17c0,0.2-0.2,0.1-0.2,0.4C19,17.3,19.3,17.2,19.2,17z"/>
			<path class="st1" d="M15.7,25.2C15.7,25.1,15.7,25.1,15.7,25.2C15.7,25.1,15.7,25.1,15.7,25.2z"/>
			<path class="st1" d="M19,17.4L19,17.4L19,17.4C19,17.4,19,17.4,19,17.4z"/>
			<path class="st1" d="M25.6,20.6c-0.1,0-0.1,0-0.1,0C25.5,20.6,25.5,20.6,25.6,20.6z"/>
			<path class="st1" d="M24,21.7L24,21.7C24.1,21.7,24,21.7,24,21.7z"/>
			<path class="st1" d="M24,20.1C24,20,24.1,20,24,20.1C24,20,24,20,24,20.1C24,20,24,20,24,20.1z"/>
			<path class="st1" d="M23,19.5C23,19.5,23,19.5,23,19.5L23,19.5L23,19.5z"/>
			<path class="st1" d="M16,22.6c-0.1,0-0.1,0-0.2,0C16,22.6,16,22.8,16,22.6z"/>
			<path class="st1" d="M15.7,25.2C15.7,25.2,15.7,25.2,15.7,25.2L15.7,25.2C15.7,25.2,15.7,25.2,15.7,25.2z"/>
			<path class="st1" d="M22,20.8L22,20.8C22,20.8,22,20.8,22,20.8z"/>
			<path class="st1" d="M16,17.5L16,17.5C16,17.5,16,17.5,16,17.5z"/>
			<path class="st1" d="M22,20.8c0.1-0.1,0.1-0.1,0.1-0.1C22.1,20.7,22.1,20.7,22,20.8L22,20.8z"/>
			<path class="st1" d="M15.8,22.7L15.8,22.7L15.8,22.7z"/>
			<path class="st1" d="M16.3,23.5c0-0.1-0.3-0.1-0.4-0.1c-0.1-0.1,0.2-0.1,0.3-0.1c-0.1-0.1-0.3-0.2-0.3-0.2c0,0,0.1,0,0.1,0
				c-0.2-0.1,0-0.3-0.3-0.4c0,0,0,0,0.1,0c-0.1,0-0.3,0-0.4,0c0-0.1-0.2-0.1,0-0.1c0,0,0.1,0,0.1,0.1l-0.1-0.1
				c0.3-0.1,0.1,0.1,0.3,0.1c-0.1-0.1-0.3-0.2-0.2-0.3c0.3,0,0.1,0.2,0.3,0.1l-0.1,0.1c0.4-0.1,0,0.1,0.4,0c0.1-0.2-0.1-0.2-0.1-0.4
				c-0.1,0-0.2,0-0.4,0c-0.3-0.2,0.6-0.2,0.3-0.4c-0.2,0-0.5-0.1-0.3-0.2l0.3,0c0-0.2-0.4-0.1-0.2-0.3c0.1,0,0.1,0.1,0.1,0.1
				c0.2-0.1-0.2-0.1-0.2-0.2l0.3,0c0-0.2-0.2-0.4-0.3-0.6c0.1,0,0.2,0,0.2,0c-0.1-0.3,0-0.5,0.2-0.8L16,19.8c0,0,0.1,0,0.1,0
				c0.1-0.1-0.1,0-0.2-0.1c0-0.1,0.1-0.1,0.2,0c-0.2-0.2-0.4-0.5-0.2-0.6l0.1,0c0.1-0.1-0.5-0.2-0.2-0.3l0,0
				c0.1-0.3-0.1-0.6,0.2-0.8c-0.2,0-0.1-0.1-0.1-0.2c0-0.1,0-0.1-0.2-0.1c0.2-0.1,0.3,0,0.4,0c0,0-0.3-0.1-0.3-0.2l0.2,0.1
				c0,0-0.2-0.2-0.2-0.2l0.3,0.2L16,17.5c0,0-0.1-0.1-0.2-0.1c-0.1-0.1,0.2,0,0.3,0.1c0,0-0.2-0.3-0.2-0.3c0.1,0.1,0.1,0.2,0.2,0.2
				c-0.2-0.3,0.2,0.3,0,0c-0.1-0.1-0.1-0.2-0.2-0.2c0.1,0.1,0.1,0.1,0.1,0l0.2,0.2c0,0,0,0,0-0.1c0,0,0-0.1,0-0.1
				c-0.1-0.1-0.3-0.6-0.3-0.6l0.2,0.4C16,17,16,17,15.9,16.8c0.1,0.1,0.2,0.4,0.3,0.6l0-0.1c0,0.1,0.1,0.2,0.1,0.3
				c-0.1-0.2,0.2,0.4,0,0l0,0.1c0,0,0-0.1,0-0.1c0-0.3,0-0.2,0-0.4c0.1,0.1,0.1,0.3,0.1,0.3c0.1-0.1,0.1-0.2,0.1-0.3
				c-0.1,0.2,0,0.2-0.1,0.3c0,0,0,0,0,0c0,0,0.1,0,0.1,0c0.1,0,0.2,0,0.3,0c0-0.1,0-0.1,0.1-0.2c0.1,0,0,0.1,0,0.2l0,0
				c0.4-0.1,0.3,0.8,0.7,0.6l0,0l0.3-0.1c0.1,0.1-0.1,0.1-0.1,0.2c0.4-0.2,0.3,0.2,0.6,0.2c-0.1,0.6,0.5,0.2,0.5,0.7L19,19
				c0.1-0.1,0,0.1,0,0.1c0-0.1,0-0.1,0.1-0.2c0.5,0.1,0.7,0.6,1.1,1c0.1,0.1,0.4-0.5,0.5-0.2L20.5,20c0.5-0.1,0.6,0.4,1,0.3
				c0,0-0.1,0.1-0.1,0.1c0,0.2,0.2,0.1,0.3,0c0,0-0.1,0.1-0.1,0.2c0,0.1,0.3-0.1,0.2,0.1c0,0,0,0-0.1,0c0.1,0,0.2,0.1,0.2-0.1
				c0,0.1,0.1,0,0.1,0.1c0.2-0.1-0.1,0.1,0.3-0.1c-0.3,0.2-0.2,0.2,0,0.1c-0.1,0-0.1,0.1-0.3,0.1c0,0,0.1,0,0.3-0.1
				c-0.2,0.1-0.1,0.1,0,0.1c0.1,0,0.2,0-0.2,0.1c0.2,0,0.5,0,0.7,0c0,0,0.1,0,0.1,0.1c-0.5,0-0.2,0-0.4-0.1c-0.1,0-0.1,0-0.3,0l0,0
				c0.3,0,0.7,0.1,0.4,0.1c-0.1,0-0.2,0-0.3-0.1c0.1,0.1-0.1,0,0,0.2c0,0-0.1,0-0.1-0.1c0,0-0.1,0,0.1,0.1l0,0
				c0.3,0.1,0.4,0.3,0.5,0.4c-0.4-0.3-0.2,0-0.7-0.4c0,0,0.1,0.1,0.2,0.1c0,0-0.1,0-0.2-0.1c0,0.1,0.2,0.2,0.1,0.2
				c0-0.1-0.1-0.1-0.1-0.1c0.1,0.1,0.1,0.2,0.1,0.2c0,0-0.1-0.1,0-0.1c0,0-0.1,0.5-0.3,0.4c-0.1-0.3-0.1-0.1-0.3-0.3l-0.1,0.1
				l0.1,0.1c-0.1,0-0.1,0.3-0.2,0.2l0-0.1L21.4,22l0.1,0c0,0.2,0.2,0.3,0,0.3c0,0-0.1,0-0.2-0.1v0c0,0.1,0,0.2-0.1,0.2
				c-0.1-0.1-0.1-0.3-0.2-0.3c0.1,0.2-0.2,0.2-0.1,0.4c0-0.1-0.1-0.2-0.1-0.2l0.1,0.2c-0.1,0-0.1-0.1-0.1-0.2c-0.1,0,0.2,0.3,0,0.2
				c0,0,0,0,0-0.1c-0.2,0-0.2,0.3-0.4,0.3c-0.2-0.2,0.1-0.1-0.1-0.3C20.1,22.6,20,23,19.8,23l0.1,0c0.2,0.4-0.2-0.1-0.2,0.1
				c0,0-0.1-0.2-0.1-0.2c-0.2,0-0.2,0.2-0.3,0.5l0-0.1c-0.1,0-0.2,0.1-0.3,0.1c0,0.1,0,0.1,0.1,0.2c-0.5-0.4-0.3,0.5-0.8,0.3
				c0,0,0-0.1,0-0.1L18,24c0.1,0.1,0.1,0.1,0.2,0.2c0,0.1,0,0.2,0,0.2c0-0.1-0.1-0.2-0.2-0.3c0,0,0,0.1,0.1,0.1
				c-0.3-0.2,0.2,0.3-0.1,0.2l0-0.1c0,0.1,0,0.2-0.1,0.2c-0.1-0.2,0-0.1-0.1-0.3c-0.1,0.1,0,0.4-0.1,0.3c0-0.1,0.1-0.1,0.1-0.2
				c-0.2-0.2-0.2-0.1-0.2-0.1l0,0l-0.2,0l0.1,0c0.2,0.5-0.1,0.2-0.1,0.6c0-0.4-0.1-0.2-0.2-0.4c-0.1,0-0.2-0.1-0.2-0.1
				c0,0.2-0.2-0.1-0.1,0.2c0-0.1-0.1,0-0.1-0.1c-0.1,0.1,0.1,0.1,0.1,0.2c0,0.3-0.4-0.1-0.4,0.3c-0.1,0.2,0,0.4-0.1,0.6
				c-0.1-0.1-0.1-0.3-0.1-0.3c-0.1,0-0.2,0-0.2,0.1c0-0.1-0.1-0.1-0.1-0.2c0,0.1,0.1,0.3,0,0.2c0-0.1-0.1-0.2-0.1-0.3
				c0,0.1,0,0.3-0.1,0.4c-0.1-0.1-0.1-0.2-0.1-0.3c-0.1,0.1-0.1,0.2-0.1,0.4l0.1,0c0,0-0.1-0.1-0.1-0.2c0-0.2,0.1,0,0.2,0.1l0,0.1
				c0.3,0.3,0.2-0.2,0.3-0.2l0.1,0.3l0-0.3c0.1,0.1,0.2,0.2,0.1,0.3c0.1,0.1,0-0.1,0.2,0c0,0,0,0,0,0l0-0.1c0,0.1,0.1,0.2,0.1,0.2
				c0.2,0.1,0.1-0.3,0.3-0.1l0,0c0.1-0.2-0.1-0.2-0.1-0.5l0.4,0.4l-0.1-0.2c0,0,0.1,0,0.1,0.1c0-0.2-0.1-0.1-0.1-0.2
				c0.2,0.1,0.2-0.2,0.4,0.1c-0.1-0.2-0.2-0.1-0.1-0.2c0.2,0.3,0.1-0.1,0.2,0c0.1,0.2-0.1,0.1,0.1,0.3c-0.1-0.3,0.2,0,0.2-0.1
				c-0.1-0.2,0.1-0.2,0.2-0.3c0,0.1,0.3,0,0.4,0l0,0c-0.1-0.3,0-0.3,0.1-0.4c0.1,0.1,0.1,0.2,0.1,0.3l0.1,0c0-0.1,0-0.1,0-0.2
				l0.1,0.2c0.1-0.1,0.1-0.3,0.3-0.3c-0.1-0.2-0.4-0.4-0.3-0.6c0.1,0.1,0.2,0.2,0.1,0.3c0,0,0-0.1,0-0.1l0,0.2c0.1,0,0-0.1,0-0.2
				c0.1,0.1,0.1,0.1,0.1,0.2c0,0-0.1,0-0.1,0c0.1,0,0.2,0,0.3,0.1c0-0.1-0.1-0.2-0.1-0.2c0.1-0.1,0.1,0.1,0.2,0.2c0-0.1,0.1,0,0-0.2
				c0,0,0.1,0.1,0.1,0.1c0-0.1,0.2-0.2,0.1-0.3l0,0l0,0l0,0l0,0c0.1-0.3,0.4-0.1,0.5-0.3l0,0.1c0.1-0.1,0.2-0.2,0.2-0.4
				c0,0,0.1,0.1,0.2,0.2c0-0.1,0-0.2,0.2-0.1c0,0.2,0.1,0.1,0,0.1c0.1,0,0.2,0.1,0.2-0.1c0.1,0.2,0.2,0.2,0.2,0.1l-0.1-0.1
				c0-0.1,0.1-0.1,0.1-0.1l0.1,0.2c0.4,0.1,0.1-0.7,0.5-0.3c0-0.2-0.2,0-0.2-0.2c0.1,0,0.4,0.2,0.4,0.2c0.2,0-0.1-0.4,0.1-0.4
				c-0.1-0.1-0.2-0.3-0.1-0.4c0.1,0,0.3,0.3,0.3,0.4c0,0,0,0-0.1,0c0,0,0,0.1,0.1,0.2l0-0.1c0.1,0.1,0.2,0,0.3,0.1
				c0-0.1,0-0.1-0.1-0.2c0.2,0,0.2-0.1,0.4-0.1c0,0-0.1-0.1-0.1-0.1c0.2,0,0-0.2,0.1-0.3c0.1,0.1,0.1,0.3,0.2,0.1
				c0.1,0,0.1,0.2,0.1,0.3c0-0.2,0.4-0.1,0.5-0.1l-0.1,0.1c0-0.1,0.1-0.1,0.2-0.1l-0.2-0.1c0.1,0,0.1,0,0.2,0c0-0.1-0.2-0.2-0.3-0.4
				c0.1,0,0.1-0.2,0.3,0c-0.3,0.1,0.2,0.1,0,0.3c0,0,0.1-0.1,0.2-0.1c0,0,0,0,0,0.1c0.4,0-0.1-0.2,0.1-0.4c0.1,0.1,0.3,0.1,0.3,0.1
				c-0.1,0.1-0.3-0.1-0.3-0.2c0.3,0,0.1-0.1,0.2-0.2l-0.1,0c-0.1-0.1,0-0.1,0-0.2c0.1,0,0,0.1,0.1,0.1c-0.2-0.2,0.6,0,0.5-0.2
				c0.2,0,0.4,0.1,0.5,0.1c-0.1-0.2,0.5-0.1,0.5-0.2c-0.4,0-0.3,0-0.5-0.1c0,0-0.1,0.2-0.1,0.2c0,0-0.2-0.2-0.2-0.2
				c-0.1,0,0,0.1-0.1,0.2c-0.1-0.1-0.1-0.1-0.4-0.1c0.5,0-0.1-0.1,0.4-0.2l0.8,0.1c0.4-0.1,0.2-0.2,0.3-0.3c-0.1,0-0.2-0.1-0.2-0.1
				l-0.1,0.1c-0.4,0-0.2-0.1-0.4-0.1c0.3,0,0.3,0,0.4-0.1c-0.2,0-0.2-0.1-0.7-0.1l0.2-0.1c-0.1-0.2-0.9,0-1-0.1
				c0.3,0,0.3-0.1,0.6-0.1c-0.1,0-0.1-0.1-0.2-0.1c0.1-0.1-0.4,0-0.3-0.1c-0.1,0-0.3,0.1-0.3,0c0,0,0.1,0,0.1,0
				c-0.1,0-0.2,0-0.3,0.1c0.2-0.2,0-0.3-0.1-0.3c-0.1-0.1-0.3-0.1-0.2-0.3c-0.1,0-0.2-0.1-0.3-0.1c-0.1,0-0.1,0-0.2-0.1
				c0,0,0-0.1,0,0c-0.1-0.2-0.3,0.3-0.4,0.1c0-0.3,0.1-0.1,0.1-0.2c0.2-0.4-0.2,0-0.2-0.3l0,0c0-0.2-0.3,0.1-0.4,0c0,0,0,0,0-0.1
				c-0.2,0.2-0.4,0.1-0.6,0.1c0.1-0.1,0.1-0.1,0.2-0.2c-0.1,0-0.1,0.3-0.3,0.3c0-0.1,0-0.2,0.1-0.4l0.1,0c0.1-0.3-0.1-0.1-0.2-0.1
				l0.1-0.1c-0.2-0.1-0.3,0.2-0.5,0.1l0,0.1c-0.2,0.2,0-0.2-0.2,0l0.1-0.3c-0.1,0-0.3,0.1-0.5,0.1c0.2-0.2,0.3-0.2,0.5-0.3
				c-0.1,0-0.2-0.1-0.3,0c0,0,0.1-0.1,0.1,0c-0.2,0.2-0.3,0.2-0.5,0.1c0.3-0.5-0.2-0.3-0.1-0.7c-0.3,0.1-0.4-0.3-0.6-0.4
				c-0.1,0.4-0.1,0-0.3,0.4c-0.1,0-0.1,0-0.1-0.1l0-0.3c0-0.1,0.1-0.1,0.1-0.1c-0.1-0.1,0-0.2,0-0.4c-0.1,0.2-0.2,0.2-0.2,0.1l0,0.2
				c-0.3,0.1,0-0.4-0.3-0.3l0.1-0.1c-0.1,0-0.3-0.2-0.6,0.1c0-0.1,0.1-0.2,0.1-0.2c-0.2-0.2-0.7,0.1-0.7-0.2l0.1-0.1
				c-0.1,0-0.2,0.1-0.2,0c0,0,0.1-0.1,0.1-0.1c0,0-0.2,0.1-0.2,0c0,0,0.1-0.1,0.1-0.1c-0.1-0.1-0.3-0.2-0.5-0.1
				c-0.2,0-0.3,0.1-0.4,0.1c0.1-0.4-0.2-0.6-0.4-0.8l0-0.1c-0.5-0.3-0.7-0.1-1-0.1c-0.3-0.5-0.7-0.6-1-0.9c0,0.1,0,0.2-0.1,0.3
				c0.1,0,0.3,0.4,0.3,0.5c-0.1,0,0.2,0.6-0.1,0.2l0,0c-0.3-0.3-0.2,0-0.2,0.2l0.4,0.5c-0.3-0.1-0.2,0.2-0.2,0.5
				c0.1,0.3,0.1,0.5-0.1,0.5c0.1,0.2,0.1,0.3,0.2,0.4L14.2,17c-0.1,0.3-0.1,0.5,0,0.8l-0.2,0c0,0.1,0.6,0.1,0.6,0.3l-0.3,0
				c0,0.2-0.3,0.4,0,0.6c0,0-0.1,0-0.2,0c0,0.1-0.2,0.4,0.2,0.3c-0.3,0,0,0.2,0.1,0.3l-0.2,0c0.3,0.1,0.3,0.1,0.4,0.2
				c0,0-0.2,0-0.1,0c-0.1,0.1,0.2,0.1,0.1,0.2l-0.1,0c0,0.1,0.1,0.1,0.2,0.2c0.1,0.1-0.1,0.2-0.2,0.2c0.1,0,0.3,0.1,0.2,0.1
				c-0.1,0-0.1,0-0.1,0c-0.1,0.2,0.2,0.3,0,0.4c-0.1,0-0.1,0-0.1,0c0-0.1,0-0.3,0-0.2c-0.2,0-0.2,0.1-0.5,0c0.1,0.1,0.5,0.2,0.4,0.4
				c0,0,0,0-0.1,0l0,0c0,0,0,0,0,0.1c0,0-0.1,0.1-0.1,0.1c-0.2,0-0.1,0.1-0.1,0.2c0.2,0,0.2,0.1,0.4,0c0,0,0,0,0,0c0,0,0,0,0,0l0,0
				c0,0,0-0.1,0-0.1c0.1,0,0.2,0.1,0.1,0.2c0.1,0,0.3,0.1,0.3,0.1c-0.3,0.1-0.5,0.2-0.6,0.2c0.1,0.2,0.1,0.4,0.5,0.5
				c0.1,0-0.1,0.1-0.2,0.1c0,0,0-0.1-0.1-0.1c0.1,0.1,0,0.3,0.3,0.3c-0.1,0.1-0.3-0.1-0.2,0.1l-0.1,0c-0.4,0.3,0.7,0.5,0.1,0.9
				c0,0,0.1,0,0.1,0c-0.3,0.4,0.2,0.9-0.2,1.3c-0.1,0.1,0.1,0.1,0.2,0.2l-0.2,0l0.3,0.1c0.2,0.2-0.6,0.3-0.2,0.5l0.2,0
				c0,0.1,0.1,0.3-0.1,0.2c0,0,0.2,0,0.1,0.1l-0.1,0l0.2,0.2c-0.1,0.2-0.5,0-0.5,0.2c0,0.1,0.3,0.2,0.4,0.2c0,0,0.1-0.1,0.2-0.1
				l0.1,0.1c0.3,0,0.7,0.1,1-0.1l-0.2-0.1l0.2,0l0,0.1c0.2-0.1,0-0.1-0.1-0.1c0.1,0,0.2,0,0.2-0.1l-0.3-0.1c0.1,0,0.3,0.1,0.3,0
				c-0.2-0.1-0.3,0.1-0.4,0c0.2-0.1,0.3,0,0.2-0.1c0.1,0,0.1,0,0.2,0c-0.1-0.1,0-0.2-0.2-0.2c0.2-0.1-0.1-0.2,0.3-0.2
				c-0.1,0-0.3-0.1-0.3-0.2c0.4,0.1,0-0.2,0.4-0.2c-0.4-0.1-0.2-0.3-0.4-0.4c0,0,0.1,0,0.1,0c0-0.1,0.1-0.1,0.2-0.2
				c-0.3,0-0.4-0.1-0.5-0.2c0.3-0.1,0.3,0.1,0.6,0c-0.2,0-0.2-0.2-0.4-0.1c0.2-0.1,0.1-0.1,0.3-0.1c-0.4,0-0.1-0.1-0.3-0.1
				c0.2-0.1,0.3,0,0.2-0.1C16.2,23.4,16.3,23.5,16.3,23.5z M15.7,20.7L15.7,20.7C15.7,20.7,15.7,20.7,15.7,20.7
				C15.7,20.7,15.7,20.7,15.7,20.7z M15.7,20.4c0,0,0,0.1,0,0.1c-0.1,0-0.1,0-0.1,0C15.6,20.5,15.6,20.5,15.7,20.4z M14.2,20.9
				C14.2,20.9,14.2,20.9,14.2,20.9C14.3,20.9,14.3,20.9,14.2,20.9l0.1,0C14.3,20.9,14.3,20.9,14.2,20.9z"/>
			<path class="st1" d="M14.5,21C14.5,21,14.5,21,14.5,21C14.5,21,14.6,21,14.5,21L14.5,21L14.5,21z"/>
			<path class="st1" d="M19.4,24.1L19.4,24.1C19.4,24.1,19.4,24.1,19.4,24.1L19.4,24.1z"/>
			<polygon class="st1" points="16.1,17.6 16,17.6 16.1,17.6 			"/>
			<path class="st1" d="M17.9,24.1C17.9,24.1,17.9,24.1,17.9,24.1C17.9,24.1,17.9,24.1,17.9,24.1z"/>
			<path class="st1" d="M17.4,24.3l-0.1,0C17.3,24.3,17.4,24.3,17.4,24.3z"/>
			<path class="st1" d="M17,24.5C17,24.5,17,24.5,17,24.5L17,24.5L17,24.5z"/>
			<path class="st1" d="M22.3,21.1C22.3,21.1,22.3,21.1,22.3,21.1C22.3,21.1,22.3,21.1,22.3,21.1z"/>
			<path class="st1" d="M21.3,22.2c0,0,0-0.1,0-0.1C21.3,22.1,21.3,22.1,21.3,22.2z"/>
			<polygon class="st1" points="22,20.8 22,20.8 22,20.8 			"/>
			<path class="st1" d="M21.4,22.1C21.4,22.1,21.3,22.1,21.4,22.1C21.4,22.1,21.4,22.1,21.4,22.1z"/>
			<path class="st1" d="M15.3,25.3L15.3,25.3C15.3,25.3,15.3,25.3,15.3,25.3L15.3,25.3z"/>
			<path class="st1" d="M15.3,25.4L15.3,25.4C15.3,25.4,15.3,25.4,15.3,25.4z"/>
			<path class="st1" d="M15.2,25.5L15.2,25.5C15.2,25.4,15.2,25.4,15.2,25.5z"/>
			<path class="st1" d="M15.8,25.1L15.8,25.1C15.8,25.1,15.8,25.1,15.8,25.1z"/>
			<path class="st1" d="M16,25c0,0-0.2-0.1-0.2,0l0,0.1C15.8,24.9,16,25.1,16,25z"/>
			<path class="st1" d="M17.1,25.5l-0.2,0c0.1,0.1,0.1,0.1,0.1,0.2C17.3,25.8,16.9,25.5,17.1,25.5z"/>
			<path class="st1" d="M17.5,25.3c0,0.1,0.1,0.1,0.1,0.1C17.6,25.4,17.6,25.4,17.5,25.3z"/>
			<path class="st1" d="M20.4,23.7l0.1,0.2C20.5,23.8,20.5,23.8,20.4,23.7z"/>
			<polygon class="st1" points="20.5,22.5 20.3,22.4 20.4,22.6 			"/>
			<polygon class="st1" points="21.5,23.5 21.4,23.6 21.5,23.4 			"/>
			<path class="st1" d="M23.3,19.4l-0.1,0.2C23.2,19.6,23.5,19.4,23.3,19.4z"/>
			<path class="st1" d="M20.9,18.3c0-0.1,0-0.2-0.1-0.1C20.9,18.3,20.9,18.4,20.9,18.3z"/>
			<polygon class="st1" points="14.2,15.5 14.1,15.3 14.2,15.6 			"/>
		</g>
		<g>
			<path class="st1" d="M35.1,12.9c-0.1,0-0.2,0-0.2,0.2l0.3,0.1L35.1,12.9z"/>
			<path class="st1" d="M34.8,14c0.1,0.1,0.4,0.3,0.6,0.2c-0.3-0.1-0.2-0.2-0.5-0.3c-0.1-0.1,0-0.3,0.1-0.3c-0.1,0,0-0.2-0.2-0.3
				c-0.2,0.2-0.1,0.5,0.1,0.7C34.9,14,34.8,14,34.8,14z"/>
			<path class="st1" d="M34.5,28L34.5,28C34.5,28,34.5,28,34.5,28z"/>
			<path class="st1" d="M28.2,32C28.3,32,28.3,31.9,28.2,32C28.2,31.9,28.2,32,28.2,32z"/>
			<path class="st1" d="M26.7,31.8C26.7,31.9,26.8,31.9,26.7,31.8C26.8,31.8,26.7,31.8,26.7,31.8z"/>
			<path class="st1" d="M34.5,28l-0.1,0.2C34.4,28.3,34.4,28.1,34.5,28z"/>
			<path class="st1" d="M35.7,15.8c0,0,0-0.1-0.1-0.1L35.7,15.8L35.7,15.8z"/>
			<path class="st1" d="M34.7,24.2L34.7,24.2c0-0.1-0.1-0.1-0.1-0.1L34.7,24.2z"/>
			<path class="st1" d="M34.9,21.3c0,0.1,0.2,0.1,0.3,0.1c-0.1,0-0.1-0.1-0.1-0.1C35,21.2,34.9,21.2,34.9,21.3z"/>
			<path class="st1" d="M34.9,16.6L34.9,16.6C34.9,16.5,34.9,16.6,34.9,16.6z"/>
			<path class="st1" d="M34.5,26.3C34.4,26.3,34.4,26.3,34.5,26.3C34.4,26.3,34.4,26.3,34.5,26.3z"/>
			<path class="st1" d="M33.1,9.5C33.1,9.5,33.1,9.5,33.1,9.5C33.1,9.5,33.1,9.5,33.1,9.5z"/>
			<path class="st1" d="M34.5,13L34.5,13c-0.1,0-0.1,0-0.1,0L34.5,13z"/>
			<path class="st1" d="M24,31.8L24,31.8C24.1,31.7,24,31.7,24,31.8z"/>
			<path class="st1" d="M4.2,25.4c-0.2,0.3-0.3-0.4-0.5,0C3.8,25.4,4.1,25.8,4.2,25.4z"/>
			<path class="st1" d="M35.7,15.9l0,0.1C35.7,16,35.7,15.9,35.7,15.9z"/>
			<path class="st1" d="M3.8,25.4L3.8,25.4L3.8,25.4C3.7,25.4,3.8,25.4,3.8,25.4z"/>
			<path class="st1" d="M17.7,32C17.7,32,17.8,32.1,17.7,32C17.8,32.1,17.8,32,17.7,32z"/>
			<path class="st1" d="M22.4,32.3l-0.1,0C22.3,32.2,22.4,32.3,22.4,32.3z"/>
			<path class="st1" d="M15.3,32.2c-0.1,0-0.1,0-0.2,0c0,0,0,0,0,0C15.2,32.2,15.2,32.2,15.3,32.2z"/>
			<path class="st1" d="M12.8,32.1C12.8,32.1,12.8,32.1,12.8,32.1l0.1,0L12.8,32.1z"/>
			<path class="st1" d="M25.1,8.2c0.1,0.1,0.1,0.1,0.1,0.2C25.1,8.2,25.5,8.2,25.1,8.2z"/>
			<path class="st1" d="M35.6,15.9C35.6,15.9,35.6,15.9,35.6,15.9L35.6,15.9C35.6,15.8,35.6,15.8,35.6,15.9z"/>
			<path class="st1" d="M15.1,33.9l-0.4,0C14.8,33.9,15,33.9,15.1,33.9z"/>
			<path class="st1" d="M6.6,9.1L6.6,9.1C6.6,9,6.6,9,6.6,9.1z"/>
			<path class="st1" d="M13.5,33.8c-0.1-0.1-0.1-0.1-0.2-0.2c0,0,0,0-0.1,0.1L13.5,33.8z"/>
			<path class="st1" d="M25.2,8.4L25.2,8.4L25.2,8.4z"/>
			<path class="st1" d="M27.9,8.1c-0.4,0-0.2,0.3-0.3,0.4c-0.5,0-0.2-0.2-0.3-0.4c-0.3,0-0.5,0.3-0.8,0.3c0,0-0.1-0.1,0-0.1
				c-0.3,0.2-0.9-0.1-1.3,0.2c0,0,0-0.1,0-0.1c0,0.1,0,0.3,0,0.4c-0.2,0-0.3,0.2-0.4,0c0.1,0,0.1-0.1,0.2-0.1l-0.2,0.1
				c-0.1-0.3,0.3-0.1,0.3-0.3c-0.4,0.1-0.8,0.3-1.1,0.2c0-0.3,0.6-0.1,0.3-0.3l0.4,0.1c-0.3-0.4,0.3,0,0-0.4c-0.6-0.1-0.6,0.1-1.2,0
				c-0.1,0.1,0,0.2-0.1,0.3c-0.8,0.2-0.6-0.7-1.2-0.3c-0.2,0.2-0.2,0.5-0.6,0.3L21.8,8c-0.5,0-0.3,0.4-0.9,0.2
				c0.1-0.1,0.4-0.1,0.3-0.1c-0.4-0.2-0.3,0.2-0.5,0.2L20.6,8c-0.6,0-1.2,0.2-1.8,0.3c0-0.1,0.1-0.2,0-0.2c-0.8,0.1-1.7,0-2.5-0.1
				L16,8.1C15.9,8.1,15.9,8,16,8c-0.3-0.1,0,0.1-0.2,0.2c-0.2,0-0.2-0.1-0.1-0.2c-0.5,0.2-1.5,0.5-2.1,0.3l0.1-0.1
				c-0.4-0.1-0.5,0.5-0.9,0.3l0.1,0c-1,0-2,0.3-2.7,0c-0.1,0.3-1,0-1,0.4C8.7,8.8,8.8,8.7,8,8.6C7.8,8.6,7.8,8.9,7.5,9l0-0.2
				L7.2,9.1L6.9,8.9L6.7,9c0.1,0,0.2,0,0.2,0.1c-0.4,0.2-1,0.2-1.1,0.1c0,0-0.8,0.6-0.8,0.6c0-0.1,0.1-0.2,0.2-0.3
				C4.9,10,5,9.3,4.7,9.8c0.1,0,0.1,0.1,0.1,0.2c-0.3,0-0.7,0.4-1,0.8l-0.1-0.2c-0.6,0.6-0.9,1.6-1,2.4c0.1-0.3,0.4-0.1,0.4,0.1
				l-0.3,0C3,13.3,3,12.9,3.1,13.2c-0.1,0.3-0.3,0.1-0.4,0l0,0.3c-0.1,0-0.1-0.1-0.2-0.1c0.1,0.2-0.3,0.5-0.1,0.8l-0.1,0
				c-0.1,0.7,0,1.1-0.1,1.7c0.2,0,0.1,0.3,0.3,0.4c-0.1,0.4-0.3,0.9-0.3,1.4c0.1,0.4,0.2,0.1,0.3,0.3c-0.2,0-0.2,0.5-0.3,0.3
				c0,0.6,0,0.8,0.1,1.6c0.1-0.1,0.1-0.2,0.2-0.1c0,0.1-0.1,0.3-0.2,0.3l0,0c0.3,0.9-0.6,2.1-0.1,2.8l0,0l0.2,0.7
				c0,0.3-0.2-0.2-0.3,0.1c0.4,0.8,0,1.3,0.3,1.9c-0.5,0.6,0.2,1.8,0,2.5L2.7,28c0.2,0.2,0,0.2,0,0.4c0.1,0,0.1-0.2,0.2-0.1
				c0.1,0.4,0.2,0.7,0.3,1.2c0.1,0.5,0.3,0.9,0.5,1.3c0.5,0.8,1.2,1.5,2,2c0.6,0.3,0.6-0.5,1.3,0.1L6.6,33c0.7,0,1.2,0.1,1.8,0.2
				c0.6,0.1,1.1,0.2,1.7,0.1c-0.1,0-0.1,0.1-0.2,0.1c0.2,0.2,0.9,0.1,0.9,0c0.2,0,0,0.1,0.1,0.2c0.2,0.1,0.6-0.2,0.7,0
				c0,0-0.1,0.1-0.1,0.1c0.2-0.1,0.7,0.1,0.6-0.1c0.4,0.1,0.8,0,1.1,0.1c0.2-0.2,0.7,0.2,0.8-0.2c0,0.3,0.7,0.3,1,0.2
				c-0.1,0.1,0.2,0.1,0.1,0.3c0.3,0,0.6,0,0.5-0.2c0.5,0.4,1.1-0.3,1.4,0.2c0.9-0.2,1.7-0.3,2.5-0.4c0,0.3-0.9,0-0.8,0.4
				c0.8-0.1,1.2-0.4,1.9-0.4c0.2,0-0.1,0.1-0.2,0.2c0.8-0.1,1.5,0,2.1-0.2c0,0-0.1,0.1-0.1,0.1c0.1,0,0.3,0,0.3-0.1l-0.1,0
				c-0.2-0.2,0.5-0.5,0.5-0.6c-0.2,0.4,0.7,0.1,0.3,0.7c0.1,0,0.2-0.1,0.2-0.2c0.1,0,0.2,0.1,0,0.2c0.5-0.1,0.3-0.3,0.7-0.3
				c0,0.1-0.1,0.1-0.1,0.2c0.2-0.2,0.4-0.3,0.8-0.3c0,0,0,0.1-0.1,0.1c0.6-0.1,1-0.5,1.7-0.4c-0.2,0.3,0.2,0.1,0.3,0.4l0.4-0.1
				l-0.2-0.1c0.3,0,0.6-0.3,0.9-0.2L28,33.1l0.6-0.1l-0.4-0.1c0.3-0.2-0.1-0.3,0.4-0.3c-0.1,0,0.3,0,0.5,0.1l0,0
				c0.1-0.1,0.3-0.2,0.5-0.2c0.1,0.1,0,0.3,0,0.4c0.1-0.3,0.7-0.2,0.9-0.5c-0.1,0.1,0,0.2,0,0.2l0.1-0.2c0.2,0,0.2,0.1,0.2,0.2
				c0.5,0-0.2-0.3,0.4-0.3c0,0,0,0-0.1,0.1c0.6,0,1-0.4,1.5-0.5c0.3,0.2-0.4,0.3-0.1,0.4c0.7-0.4,1.2-1.1,1.8-1.6l-0.1,0.1
				c-0.2-0.3,0.5-0.3,0.5-0.8c0,0.1,0.1,0.2,0.1,0.2c0.3-0.4,0.4-1.1,0.3-1.8l0.1,0.1c0.1-0.3,0.2-0.7,0.2-1c-0.1-0.1,0-0.3-0.2-0.2
				c0.7-0.8-0.1-1.8,0.5-2.5c0,0.1,0.1,0.2,0.1,0.2l0-0.7c-0.2,0-0.1,0.1-0.3,0.2c-0.1-0.1-0.2-0.3-0.1-0.5c0.1,0.3,0.3,0,0.4-0.1
				c-0.1,0-0.1,0-0.2,0c0.3-0.3-0.3-0.1-0.1-0.6l0.1,0c0-0.2-0.1-0.4-0.1-0.6c0.2-0.1,0.1,0.2,0.2,0.2c0-0.3-0.3-0.6-0.1-0.8
				c0,0.1,0,0.3,0.1,0.4c0.2-0.3,0.2-0.3,0.2-0.5l0,0l0.1-0.5l-0.1,0.1c-0.5-0.4-0.1-0.7-0.4-1.2c0.3,0.5,0.2,0.1,0.4,0.1
				c0.1-0.1,0.1-0.3,0.2-0.3c-0.2-0.2,0.1-0.4-0.2-0.7c0.1,0,0-0.2,0.2-0.2c-0.1-0.3-0.1,0.1-0.2,0.1c-0.3-0.4,0.2-1.1-0.2-1.7
				c-0.2-0.5-0.5-0.6-0.6-1.1c0.1-0.2,0.3,0.1,0.3,0.1c0.1-0.3,0-0.5-0.1-0.8c0.1,0,0.1,0,0.2-0.1c0-0.2-0.3-0.1-0.2-0.4
				c0.1,0,0.2,0.1,0.3,0.2c-0.1-0.2-0.3-0.5-0.4-0.7c0.1-0.1,0.2,0.1,0.3,0.2c-0.1-0.3-0.2-0.7-0.4-0.8l0,0.2c0-0.1,0.2-0.1,0.2,0
				c0.2,0.2,0,0.4-0.1,0.4l-0.1-0.2c-0.4,0.3,0.2,0.7,0.2,1.1L35,15.8l0.3,0.3c-0.1,0.1-0.2,0.2-0.3,0c-0.1,0.3,0.1,0.2,0,0.5
				c0,0,0,0-0.1,0l0.1,0.2c-0.1,0-0.2,0.1-0.2-0.1c-0.1,0.5,0.3,0.7,0.1,0.9l0,0c0.2,0.6,0.2,0,0.5,0.5l-0.5,0.4l0.2,0
				c0,0.1,0,0.2-0.1,0.2c0.2,0.2,0.1-0.1,0.3,0.1c-0.2,0.3,0.2,0.9-0.2,1c0.2,0.1,0.1-0.3,0.3,0c-0.4,0.1,0.1,0.4-0.1,0.7
				c-0.2-0.1-0.1-0.4-0.3-0.1c0.4,0.2,0,0.6,0,0.8c0.3,0,0.1,0.5,0.2,0.9c-0.1,0-0.2,0.8-0.3,1.1l0,0c0.3,0.1,0.2,0.5,0.2,0.8
				c-0.2,0-0.2-0.1-0.3-0.2l0,0.3c0.1,0.1,0.1,0.2,0.1,0.3l-0.2-0.1c0,0.4,0.2,0.7,0,1.2c0.2,0,0.6-0.3,0.6,0.2
				c-0.1,0-0.3,0-0.3-0.1c0,0,0.1,0.2,0,0.2l-0.2-0.2c-0.1,0.2,0.1,0.1,0.1,0.3c-0.1,0-0.1,0.1-0.2,0.1c0,0,0.1-0.1,0-0.2
				c0,0.2-0.2,0.4-0.3,0.5c0.1,0,0.2,0,0.2,0.2c0,0.4-0.2,0.1-0.3,0.3c0.1,0.1,0,0.3,0.2,0.3c0,0.1-0.1,0.1-0.2,0.1
				c0.1,0.2-0.1,0.9,0.2,0.7l0,0l0,0l0,0l0,0c0.1,0.3,0,0.6-0.1,0.9c-0.1,0.3-0.3,0.5-0.3,0.8l-0.1,0c-0.1,0.3-0.3,0.6-0.4,0.9
				c-0.1,0.1-0.3,0.1-0.3,0c-0.1,0.2-0.1,0.3-0.5,0.4c0.1-0.3-0.1,0,0.2-0.2c-0.3,0.1-0.4,0.1-0.6,0.4c0-0.2-0.3-0.1-0.4,0l0.3,0
				c-0.1,0.1-0.3,0.1-0.4,0.2l0-0.3c-0.6-0.1-1.1,0.8-1.7,0.4c-0.2,0.2,0.4,0.1,0.3,0.3c-0.3,0-0.7-0.3-0.8-0.3
				c-0.5-0.1-0.4,0.4-0.9,0.4c0.1,0.1,0.2,0.3-0.2,0.4c-0.3,0-0.5-0.3-0.3-0.4c0.1,0,0.1,0,0.1,0c0.1,0,0.2-0.1,0.1-0.2l0,0.1
				c-0.2-0.1-0.6,0-0.5-0.2c-0.2,0.1-0.1,0.2,0.1,0.2c-0.4-0.1-0.7,0.1-1.1,0c0.1,0,0.1,0.1,0.1,0.1c-0.7-0.1-0.3,0.2-0.7,0.3
				c-0.3-0.1,0.1-0.3-0.4-0.2c-0.3-0.1-0.1-0.2,0-0.3c-0.4,0.2-0.8-0.1-1-0.1l0.2-0.1c-0.1,0.1-0.2,0.1-0.3,0.1l0.1,0.2
				c-0.1,0-0.2,0-0.2-0.1c-0.1,0.1,0.1,0.3-0.1,0.5c-0.2-0.1-0.5,0.1-0.6-0.1c0.5,0.1-0.1-0.2,0.4-0.3c-0.1,0-0.2,0-0.3,0
				c0,0,0,0,0-0.1c-0.5-0.2-0.2,0.3-0.7,0.3c0.1-0.1-0.1-0.2-0.2-0.2c0.2,0,0.1,0.2-0.1,0.3c-0.3-0.1-0.4,0.1-0.5,0.1l0.2,0
				c-0.1,0.1-0.2,0.1-0.5,0.2c0-0.1,0.2-0.1,0.1-0.1c-0.3,0.2-0.6-0.2-1-0.1c-0.2-0.1,0-0.2-0.2-0.3c-0.4,0.2-0.4-0.2-0.9,0
				c0.1,0.2,0.1,0.1-0.2,0.3l0.7-0.1l-0.4,0.3c0.2,0,0.4-0.1,0.6-0.1c-0.2,0.1-0.2,0.1-0.1,0.3c-0.3-0.3-0.6,0.2-0.9,0l0-0.4
				c-0.5-0.2-0.9,0.2-1.6,0.1l0.2,0.1c-0.1,0.2-0.4,0-0.6,0.1c0-0.1-0.1-0.2-0.2-0.3c0,0.1-0.5,0-0.5,0.3L17,32.2
				c-0.5-0.1-0.6,0.4-1.1,0.3c0.2-0.2-0.1-0.3,0.3-0.4c-0.2,0-0.3,0-0.3,0.1c-0.1-0.1-0.5,0.2-0.6,0c-0.1,0.1-0.1,0.2-0.3,0.2
				c0,0,0-0.1,0-0.1c0,0.1-0.3,0.1-0.1,0.3c-0.5-0.5-1.5,0-1.9-0.5c-0.4,0-0.8,0-1.2,0c0,0,0-0.1,0.1-0.1c-0.4-0.2-0.3,0.4-0.8,0.2
				c-0.2-0.3,0.3-0.1,0.1-0.2c0-0.5-0.6,0-1-0.3l0.1,0c-0.2-0.2-0.7,0.1-1.1,0c0,0,0,0,0-0.1c-0.3,0.2-0.9,0.2-1.3,0.2
				c0.2-0.2,0.2-0.1,0.2-0.3c-0.2,0,0,0.3-0.4,0.3c-0.1-0.1-0.3-0.3-0.3-0.5c0,0,0.3,0.1,0.3,0.1c-0.1-0.3-0.4-0.1-0.6-0.2L7,31.2
				c-0.5-0.1-0.6,0.1-1.1-0.1l0,0.1c-0.4,0.1-0.1-0.3-0.5-0.3l0.1-0.3c-0.2-0.1-0.7-0.2-1-0.5c0.3,0,0.6,0.3,0.9,0.3
				C5.4,30.3,5.1,30,4.9,30c0.1,0,0.2,0.1,0.2,0.2c-0.3,0-0.6-0.2-0.8-0.6c0.3-0.1,0.2-0.3,0.1-0.6c0-0.3-0.1-0.6,0.1-0.8
				c-0.3-0.7-0.1-1.5-0.3-2.3c-0.4,0.4,0-0.2-0.5-0.1c0-0.2,0-0.3,0-0.3L4,24.8c0.1-0.2,0.1,0.2,0.2,0.2c0-0.4,0.2-0.2,0.3-0.5
				c-0.2,0.1-0.2-0.1-0.2-0.4l-0.2,0.4c-0.3-0.6,0.3-0.6,0.1-1.2l0.2,0.2c-0.1-0.3,0-1.2-0.4-1.5c0.1-0.1,0.2-0.1,0.2,0
				c0-0.8-0.4-1.7-0.2-2.3l0.1,0.1c0-0.1-0.2-0.3-0.1-0.4c0,0,0.1,0.1,0.1,0c0-0.1-0.2-0.4-0.1-0.6l0.1,0.2c0.2-0.7-0.3-1.2-0.3-1.8
				c0.3,0,0.5-0.5,0.6-0.8l0,0c0.1-0.8-0.1-1.5-0.1-2.3c0.2-0.2,0.3-0.7,0.4-1c0.1-0.3,0.3-0.7,0.5-0.9C5.1,12.2,5,12,5,11.9
				c0.1-0.1,0.1-0.5,0.3-0.2l0,0c0.3,0.1,0.4-0.1,0.6-0.3l-0.2-0.4c0.4,0,0.8-0.2,1.2-0.4c0.3-0.2,0.8-0.3,1-0.1
				c0.2-0.1,0.4-0.2,0.6-0.3l0,0.2c0.5,0,0.8,0,1.4-0.2l-0.1,0.2c0.4,0,0.4-0.7,0.7-0.7l0.1,0.3c0.6-0.1,1.3,0.2,1.9-0.2
				c0,0,0,0.1-0.1,0.2c0.3,0,1.2,0.1,1-0.3c0,0.3,0.7,0,1-0.2l0,0.2c0.3-0.3,0.3-0.4,0.7-0.4c0.1,0,0.1,0.2,0,0.1
				c0.3,0.1,0.2-0.2,0.6-0.1l-0.1,0.1c0.3,0,0.3-0.1,0.5-0.2c0.2-0.1,0.6,0,0.7,0.2c0-0.1,0.2-0.3,0.4-0.2c0,0.1,0,0.1-0.1,0.1
				c0.6,0.1,0.8-0.3,1.2-0.1c0,0.1,0,0.1,0.1,0.1c-0.4,0-0.8,0-0.8,0c0,0.2,0.4,0.2,0.1,0.5c0.3-0.2,0.8-0.5,1.1-0.4c0,0,0,0,0,0.1
				l0,0c0.1,0,0.2,0,0.2,0c0.1,0,0.2,0.1,0.3,0.1c0,0.2,0.4,0.1,0.6,0.1c0-0.2,0.2-0.2,0-0.4c0,0,0,0-0.2,0c0,0-0.1,0-0.1,0l0,0
				c-0.1,0-0.3,0-0.4,0c0.1-0.1,0.3-0.2,0.5-0.1c0.1-0.1,0.2-0.3,0.3-0.3c0.2,0.3,0.7,0.5,0.8,0.6c0.5-0.1,1.3,0,1.6-0.4
				c0.2,0,0.2,0.1,0.2,0.2c-0.1,0-0.2,0-0.2,0.1c0.3-0.1,0.9,0,1-0.3c0.4,0.1-0.2,0.2,0.3,0.2l-0.1,0.1c1,0.5,1.8-0.6,2.9,0.1
				c-0.1,0-0.1-0.1-0.1-0.1c1.3,0.4,2.8,0,4,0.7c0.3,0.1,0.4,0,0.7-0.1l0,0.2c0,0,0.4-0.2,0.4-0.2c0.3,0,0.4,0.2,0.6,0.4
				c0.2,0.2,0.3,0.4,0.7,0.5l0-0.2c0.2,0.2,0.6,0.4,0.5,0.5c0,0,0.2,0,0.2,0.1l-0.1,0.1c0,0,0.5,0.3,0.5,0.3
				c0.1,0.4-0.4,0.2-0.2,0.7c0.1,0.2,0.5,0.5,0.6,0.4c0-0.1,0-0.3,0.1-0.3l0.1,0.2c0.3,0,0.8,0.2,0.8-0.6c0,0-0.4-0.4-0.4-0.4
				l0.1-0.2l0.2,0.4c0.1-0.3-0.1-0.4-0.3-0.5c0.1-0.1,0.1-0.2,0.1-0.3c0,0-0.1-0.1-0.3-0.1c-0.1-0.1-0.3-0.1-0.3-0.1
				c0.1-0.1,0.4,0,0.2-0.3c-0.3-0.1-0.1,0.4-0.4,0.1c0-0.3,0.1-0.3-0.2-0.4c0-0.1,0.1-0.1,0.2,0c-0.2-0.1-0.5-0.4-0.7-0.4
				c-0.1-0.3-0.7-0.4-0.5-0.7c-0.1,0-0.5,0-0.7,0c0.5-0.2-0.7-0.3-0.5-0.7c-0.4,0.2-1-0.1-1.5,0c0,0,0.1-0.1,0.1,0
				c-0.3-0.1-0.3-0.2-0.5-0.3c-0.1,0.3-0.5,0.3-0.7,0.4c-0.3-0.3,0.2-0.3,0.2-0.6c0,0.2-0.6,0.2-0.5,0.4c-0.2-0.2-0.2-0.1-0.3-0.4
				c-0.1,0.4-0.2,0-0.5,0.2c-0.3-0.2-0.1-0.4-0.4-0.3C27.5,8.2,27.9,8.1,27.9,8.1z M18.8,8.3L18.8,8.3c0.1,0,0.1,0,0.2,0
				C18.9,8.3,18.9,8.3,18.8,8.3z M18,8.4c0.1,0,0.2,0,0.3,0c0,0.1,0,0.1-0.1,0.1C18.3,8.5,18.1,8.4,18,8.4z M19.6,9.8
				c-0.1,0-0.2,0-0.2-0.1C19.5,9.8,19.6,9.7,19.6,9.8l0-0.1C19.7,9.7,19.7,9.8,19.6,9.8z"/>
			<path class="st1" d="M19.8,9.5C19.9,9.5,19.9,9.5,19.8,9.5C19.9,9.5,19.8,9.5,19.8,9.5L19.8,9.5L19.8,9.5z"/>
			<path class="st1" d="M34.5,27.9L34.5,27.9C34.5,27.9,34.5,27.9,34.5,27.9C34.5,27.9,34.5,27.9,34.5,27.9z"/>
			<polygon class="st1" points="7.5,8.8 7.5,8.8 7.5,8.8 			"/>
			<path class="st1" d="M35.7,23.9C35.7,23.9,35.8,23.8,35.7,23.9C35.8,23.8,35.7,23.8,35.7,23.9z"/>
			<path class="st1" d="M35.9,22.1l0.1-0.3C35.9,21.9,35.9,22,35.9,22.1z"/>
			<path class="st1" d="M36,20.6C36,20.6,35.9,20.6,36,20.6L36,20.6L36,20.6z"/>
			<path class="st1" d="M22.5,33.7C22.5,33.7,22.5,33.7,22.5,33.7C22.4,33.7,22.5,33.7,22.5,33.7z"/>
			<path class="st1" d="M29.1,32.7c-0.1,0-0.1,0.1-0.2,0.1C29,32.8,29.1,32.8,29.1,32.7z"/>
			<polygon class="st1" points="15.2,33.9 15.2,33.9 15.1,33.9 			"/>
			<path class="st1" d="M28.6,32.8c0.1,0,0.2,0,0.3,0C28.8,32.8,28.7,32.8,28.6,32.8z"/>
			<path class="st1" d="M35.5,14.6L35.5,14.6C35.5,14.5,35.5,14.5,35.5,14.6L35.5,14.6z"/>
			<path class="st1" d="M35.5,14.5L35.5,14.5C35.4,14.5,35.4,14.5,35.5,14.5z"/>
			<path class="st1" d="M35.4,14.3l0.1,0.1C35.4,14.4,35.4,14.3,35.4,14.3z"/>
			<path class="st1" d="M35.7,16.4L35.7,16.4C35.7,16.4,35.7,16.4,35.7,16.4z"/>
			<path class="st1" d="M35.8,17c0-0.1,0.1-0.4,0.1-0.5l-0.1,0C35.9,16.5,35.6,16.9,35.8,17z"/>
			<path class="st1" d="M35,19.4l0-0.5c-0.1,0.1-0.2,0.2-0.2,0C34.6,19.5,35,18.8,35,19.4z"/>
			<path class="st1" d="M35,20.8c-0.1-0.2-0.1,0-0.2,0C34.9,21,34.9,21,35,20.8z"/>
			<path class="st1" d="M33.2,30.5l-0.1-0.2C33,30.5,33.2,30.4,33.2,30.5z"/>
			<polygon class="st1" points="32,32.4 32.2,32.4 32.3,32.2 			"/>
			<polygon class="st1" points="30.5,31.3 30.6,31.2 30.3,31.4 			"/>
			<path class="st1" d="M13.2,31.9l0,0.2C13.4,32.1,13.5,31.9,13.2,31.9z"/>
			<path class="st1" d="M6.1,31c0-0.1-0.1-0.3-0.3-0.3C5.9,30.8,6,31,6.1,31z"/>
			<polygon class="st1" points="6.2,11.1 6.1,11.3 6.3,11.1 			"/>
		</g>
	</g>
</g>
</svg>
