<?xml version="1.0" encoding="utf-8"?>
<!-- Generator: Adobe Illustrator 19.1.0, SVG Export Plug-In . SVG Version: 6.00 Build 0)  -->
<svg version="1.1" id="Layer_1" xmlns="http://www.w3.org/2000/svg" xmlns:xlink="http://www.w3.org/1999/xlink" x="0px" y="0px"
	 viewBox="0 0 230 55" style="enable-background:new 0 0 230 55;" xml:space="preserve">
<style type="text/css">
	.st0{fill:#202020;}
</style>
<g>
	<g>
		<path d="M67.2,14.3v2.4c0,4-3.2,7.2-7.2,7.2h-6.4v11.2h-4v-28h4H60C64,7.1,67.2,10.3,67.2,14.3z M63.2,14.3c0-1.8-1.4-3.2-3.2-3.2
			h-6.4v8.8H60c1.8,0,3.2-1.4,3.2-3.2V14.3z"/>
		<path d="M91.2,25.9v9.2h-4v-6.5h-9.6v6.5h-4v-9.2l6.8-18.8h4L91.2,25.9z M78.4,24.6h8.2l-4-11.2h-0.1L78.4,24.6z"/>
		<path d="M115.2,7.1v28h-5.8l-7.8-21.3v21.3h-4v-28h5.8l7.8,21.3V7.1H115.2z"/>
		<path d="M139.2,14.3v13.6c0,4-3.2,7.2-7.2,7.2h-7.6h-2.8v-28h4h6.4C136,7.1,139.2,10.3,139.2,14.3z M135.2,14.3
			c0-1.8-1.4-3.2-3.2-3.2h-6.4v20h6.4c1.8,0,3.2-1.4,3.2-3.2V14.3z"/>
		<path d="M152.8,35.1c-4,0-7.2-3.3-7.2-7.2V14.3c0-4,3.2-7.2,7.2-7.2h3.2c4,0,7.2,3.2,7.2,7.2v13.6c0,4-3.2,7.2-7.2,7.2H152.8z
			 M159.2,27.8V14.3c0-1.8-1.4-3.2-3.2-3.2h-3.2c-1.8,0-3.2,1.4-3.2,3.2v13.6c0,1.8,1.4,3.2,3.2,3.2h3.2
			C157.8,31,159.2,29.6,159.2,27.8z"/>
		<path d="M182,23.6l5.2,11.5h-4.4l-5.1-11.2h-4.1v11.2h-4v-28h4h6.4c4,0,7.2,3.2,7.2,7.2v2.4C187.2,20,185,22.7,182,23.6z
			 M183.2,14.3c0-1.8-1.4-3.2-3.2-3.2h-6.4v8.8h6.4c1.8,0,3.2-1.4,3.2-3.2V14.3z"/>
		<path d="M211.2,25.9v9.2h-4v-6.5h-9.6v6.5h-4v-9.2l6.8-18.8h4L211.2,25.9z M198.3,24.6h8.2l-4-11.2h-0.1L198.3,24.6z"/>
	</g>
	<g>
		<path class="st0" d="M33.4,7.5c-0.1,0-0.2,0.1,0,0.2l0.3-0.1L33.4,7.5z"/>
		<path class="st0" d="M33.8,8.6c0.2,0.1,0.5,0.1,0.6-0.1c-0.3,0-0.3-0.1-0.6-0.1c-0.1-0.1-0.1-0.3,0-0.3c-0.1,0-0.1-0.2-0.3-0.2
			c0,0.3,0.2,0.5,0.4,0.6C33.9,8.6,33.8,8.6,33.8,8.6z"/>
		<path class="st0" d="M34.2,22.6L34.2,22.6C34.2,22.6,34.2,22.6,34.2,22.6z"/>
		<path class="st0" d="M26.8,27.6C26.9,27.6,26.9,27.6,26.8,27.6C26.8,27.6,26.8,27.6,26.8,27.6z"/>
		<path class="st0" d="M25.3,27.6C25.3,27.6,25.3,27.6,25.3,27.6C25.3,27.6,25.3,27.6,25.3,27.6z"/>
		<path class="st0" d="M34.2,22.6L34,22.8C34,22.9,34.1,22.7,34.2,22.6z"/>
		<path class="st0" d="M35.5,10c0,0-0.1-0.1-0.1-0.1C35.4,10,35.4,10,35.5,10L35.5,10z"/>
		<path class="st0" d="M35.6,18.9L35.6,18.9c0-0.1,0-0.1-0.1-0.2L35.6,18.9z"/>
		<path class="st0" d="M35.8,15.9c0,0.1,0.2,0.1,0.3,0.1C36,16,36,15.9,36,15.8C35.9,15.8,35.9,15.9,35.8,15.9z"/>
		<path class="st0" d="M35,11.1L35,11.1C35,11,35,11.1,35,11.1z"/>
		<path class="st0" d="M34.8,20.9C34.8,20.9,34.8,20.9,34.8,20.9C34.8,20.9,34.8,20.9,34.8,20.9z"/>
		<path class="st0" d="M30.6,4.7C30.6,4.7,30.6,4.7,30.6,4.7C30.6,4.7,30.6,4.7,30.6,4.7z"/>
		<path class="st0" d="M33,7.9L33,7.9c-0.1,0-0.1,0-0.1,0L33,7.9z"/>
		<path class="st0" d="M22.4,27.4C22.4,27.4,22.4,27.4,22.4,27.4C22.5,27.4,22.4,27.4,22.4,27.4z"/>
		<path class="st0" d="M9.5,28.9c-0.2,0.3-0.2-0.5-0.5,0C9.1,28.8,9.4,29.3,9.5,28.9z"/>
		<path class="st0" d="M35.5,10.1l0.1,0.1C35.5,10.2,35.5,10.2,35.5,10.1z"/>
		<path class="st0" d="M9,28.9L9,28.9L9,28.9C9,28.9,9,28.9,9,28.9z"/>
		<path class="st0" d="M17.8,31.6C17.9,31.6,17.9,31.5,17.8,31.6C17.9,31.5,17.9,31.5,17.8,31.6z"/>
		<path class="st0" d="M20.7,27.9l-0.1,0C20.6,27.9,20.6,27.9,20.7,27.9z"/>
		<path class="st0" d="M18.1,34c0,0-0.1,0.1-0.1,0.1c0,0,0,0,0,0C18,34.1,18,34.1,18.1,34z"/>
		<path class="st0" d="M16.6,35.4C16.6,35.4,16.6,35.4,16.6,35.4l0.1,0L16.6,35.4z"/>
		<path class="st0" d="M22.1,3.2c0.1,0.1,0.1,0.1,0.1,0.2C22.2,3.2,22.6,3.1,22.1,3.2z"/>
		<path class="st0" d="M35.4,10.1c0.1,0,0.1,0,0.1,0L35.4,10.1C35.4,10.1,35.4,10.1,35.4,10.1z"/>
		<path class="st0" d="M19.6,34.6c0,0-0.3,0.6-0.3,0.6C19.4,35,19.5,34.8,19.6,34.6z"/>
		<path class="st0" d="M7.8,10.5L7.8,10.5C7.7,10.5,7.7,10.5,7.8,10.5z"/>
		<path class="st0" d="M18.1,36.5c-0.1,0-0.2,0-0.4,0c0,0,0,0,0,0.1C17.7,36.7,18.1,36.5,18.1,36.5z"/>
		<path class="st0" d="M22.2,3.4L22.2,3.4L22.2,3.4z"/>
		<path class="st0" d="M25.2,2.9c-0.5,0-0.2,0.3-0.3,0.4c-0.5,0.1-0.2-0.2-0.4-0.4c-0.3,0.1-0.6,0.3-0.8,0.3c0,0-0.1-0.1,0-0.1
			c-0.3,0.2-1,0-1.3,0.3c0,0,0,0,0-0.1c0.1,0.1,0.1,0.3,0.1,0.4c-0.2,0-0.3,0.2-0.4,0C22,3.7,22,3.7,22,3.6l-0.2,0.1
			c-0.2-0.3,0.3-0.1,0.3-0.3c-0.4,0.1-0.8,0.3-1.1,0.2c-0.1-0.3,0.7-0.1,0.3-0.3l0.4,0.1c-0.3-0.4,0.3,0,0-0.4
			c-0.6-0.1-0.7,0.1-1.3,0.1c-0.1,0.1,0,0.2-0.1,0.4c-0.8,0.3-0.7-0.6-1.3-0.3c-0.2,0.2-0.2,0.5-0.7,0.3l0.1-0.3
			c-0.6,0-0.3,0.4-0.9,0.2c0.1-0.1,0.4-0.1,0.4-0.1c-0.4-0.2-0.3,0.2-0.6,0.2l-0.1-0.3c-0.6,0-1.3,0.2-2,0.3c0-0.1,0.2-0.2,0-0.2
			c-0.9,0.1-1.8,0-2.6-0.2l-0.3,0.2c-0.1,0-0.1-0.1-0.1-0.1c-0.3-0.1,0,0.1-0.2,0.2c-0.2,0-0.2-0.1-0.1-0.2
			c-0.6,0.2-1.6,0.4-2.2,0.2L10,3.2c-0.2,0-0.5,0.1-0.7,0.2C9.2,3.5,9.1,3.6,8.8,3.6l0.1-0.1C8.5,3.7,8.2,4,8.1,4.3
			C8,4.5,8,4.7,8,4.9c0,0.2,0,0.3,0,0.5c0,0.5,0,1-0.2,1.4c0.3,0.1-0.1,1,0.3,1.1C7.8,8.4,7.8,8.2,7.6,9c0,0.2,0.3,0.3,0.3,0.6
			l-0.2,0L8,10l-0.3,0.2l0.1,0.3c0-0.1,0.1-0.2,0.2-0.2c0.1,0.4-0.2,1-0.3,1l0.2,0.9c-0.1,0-0.1-0.2-0.2-0.3c0.2,0.5-0.2,0.1,0,0.5
			c0.1-0.1,0.1,0,0.2,0c-0.1,0.2-0.1,0.7-0.1,1.1l-0.2-0.1c0,0.7,0.1,1.4,0.1,2.2c0.1-0.3,0.4-0.2,0.4,0l-0.2,0.1
			c0.2,0.1,0.1-0.2,0.3,0.1c0,0.3-0.3,0.2-0.4,0l0.1,0.3c-0.1,0-0.1-0.1-0.2-0.1c0.2,0.1-0.2,0.6,0,0.8l-0.1,0
			c0,0.8,0.1,1.1,0.1,1.7c0.2,0,0.2,0.3,0.3,0.4c-0.1,0.5-0.2,1-0.2,1.5C7.8,21.1,7.9,20.8,8,21c-0.2,0-0.2,0.6-0.3,0.3
			c0,0.7,0,0.9,0.2,1.7C8,22.9,8,22.8,8.1,22.8c0,0.2-0.1,0.3-0.2,0.3l0,0c0.3,0.9-0.6,2.2-0.2,2.9l0,0l0.2,0.8
			c0,0.4-0.1-0.2-0.3,0.1c0.3,0.8,0,1.3,0.2,2c-0.6,0.5,0,1.9-0.3,2.6l0.1,0c0.1,0.2-0.1,0.2-0.1,0.4c0.1,0,0.1-0.2,0.2-0.1
			c0.1,0.8,0,1.6-0.1,2.4l-0.1,0.6c0,0.3-0.1,0.8,0,1.1c0.2,0.7,0.9,1.3,1.6,1.4c0.7,0,0.6-0.2,0.8-0.3c0.1-0.1,0.2-0.2,0.6-0.1
			l-0.2,0.2c1.2-0.3,2.5,0,3.6-0.2C14,37,14,37,13.9,37c0.2,0.2,0.9,0,0.9-0.1c0.2,0,0,0.1,0.2,0.2c0.2,0.1,0.6-0.2,0.8-0.1
			c0,0-0.1,0.1-0.1,0.1c0.2-0.1,0.8,0,0.6-0.2c0.6,0.1,1.1-0.3,1.6-0.4c0.2-0.3,0.9-0.5,0.7-0.8c0.1,0.1,0.3,0,0.5-0.3
			c0.2-0.3,0.3-0.6,0.3-0.8c0.1,0.2,0.2-0.3,0.3-0.1c0.1-0.4,0.1-0.9-0.1-0.8c0.1-0.2,0.1-0.4,0.1-0.5c0-0.1,0-0.3-0.1-0.4
			c-0.1-0.3-0.1-0.5,0.1-0.7c-0.1-0.5-0.2-0.9-0.2-1.4c-0.1-0.4-0.1-0.8-0.2-1.2c0.1,0,0.1,0,0.2,0.1c0,0.1,0,0.2,0,0.3
			c0,0.2,0,0.4,0.2,0.4c-0.1-0.9-0.4-0.9-0.4-1.3c0,0,0,0,0.1,0c0.1,0,0.1,0.1,0.1,0.2c0,0,0,0.1,0,0.1l0,0c0.1-0.1,0.2,0,0.3,0
			c0.3,0,0.7,0,1-0.1c0,0-0.1,0.1-0.2,0.1c0.1,0,0.3,0,0.3-0.1l-0.1,0c-0.2-0.2,0.6-0.5,0.6-0.6c-0.2,0.4,0.7,0.1,0.3,0.7
			c0.1,0,0.2-0.1,0.2-0.2c0.1,0,0.2,0.1,0,0.2c0.5-0.1,0.3-0.2,0.8-0.2c0,0.1-0.1,0.1-0.1,0.2c0.2-0.1,0.5-0.3,0.9-0.2
			c0,0,0,0.1-0.1,0.1c0.7,0,1.2-0.4,1.9-0.3c-0.2,0.4,0.3,0.1,0.3,0.3l0.4-0.1L26,28.9c0.4,0,0.6-0.3,0.9-0.3l-0.2,0.2l0.6-0.2
			l-0.4,0c0.3-0.2-0.1-0.3,0.4-0.4c-0.1,0,0.3-0.1,0.6,0l0,0c0.1-0.1,0.3-0.3,0.5-0.3c0.1,0.1,0.1,0.3,0.1,0.4
			c0.1-0.3,0.8-0.4,0.9-0.7c0,0.1,0,0.2,0,0.2l0.1-0.2c0.2,0,0.2,0,0.2,0.1c0.5-0.2-0.3-0.2,0.3-0.4c0,0,0,0.1-0.1,0.1
			c0.5-0.2,0.9-0.6,1.4-0.9c0.3,0.1-0.4,0.3-0.1,0.4c0.6-0.5,1.1-1.2,1.7-1.7l-0.1,0.1c-0.2-0.4,0.5-0.3,0.7-0.7
			c0,0.1,0.1,0.2,0.1,0.2c0.4-0.3,0.6-0.9,1-1.6l0,0.1c0.2-0.2,0.5-0.6,0.7-0.9c0-0.1,0.1-0.3-0.1-0.3c0.5-0.3,0.7-0.8,0.7-1.3
			c0.1-0.5,0.1-0.9,0.5-1.3c0,0.1,0,0.3,0,0.2c0,0,0.1-0.8,0.1-0.8c-0.2,0-0.1,0.1-0.3,0.2c-0.1-0.1-0.1-0.3-0.1-0.5
			c0,0.4,0.3,0.1,0.4-0.1c-0.1,0-0.1,0-0.2,0c0.4-0.3-0.3-0.1,0-0.6l0.1,0c0-0.2-0.1-0.4-0.1-0.6c0.2-0.1,0.1,0.2,0.2,0.3
			c0-0.3-0.3-0.6-0.1-0.9c0,0.1,0,0.3,0.1,0.5c0.3-0.3,0.2-0.3,0.3-0.6l0,0l0.1-0.5l-0.1,0.1c-0.5-0.4-0.1-0.8-0.5-1.3
			c0.4,0.5,0.2,0.1,0.4,0.1c0.1-0.1,0.1-0.4,0.2-0.3c-0.2-0.2,0.1-0.4-0.2-0.8c0.1,0,0-0.3,0.1-0.2c-0.1-0.3-0.1,0.1-0.2,0.1
			c-0.3-0.4,0-1.2-0.5-1.8c-0.3-0.5-0.6-0.5-1-1c0-0.2,0.3,0,0.3,0c0-0.3-0.2-0.5-0.4-0.7c0.1,0,0.1-0.1,0.1-0.2
			c-0.1-0.2-0.3,0-0.4-0.3c0.1,0,0.2,0,0.4,0.1c-0.2-0.2-0.5-0.4-0.7-0.6c0.1-0.1,0.3,0,0.4,0.1c-0.2-0.2-0.6-0.6-0.8-0.6l0.1,0.2
			C34.2,9,34.4,8.9,34.5,9c0.3,0.1,0.2,0.4,0.1,0.4l-0.2-0.1c-0.2,0.4,0.5,0.6,0.7,1l-0.4,0l0.4,0.2c0,0.1-0.2,0.2-0.3,0.1
			c0,0.3,0.2,0.2,0.2,0.5c0,0,0,0-0.1,0l0.2,0.2c-0.1,0-0.2,0.1-0.2,0c0,0.5,0.5,0.6,0.4,0.9l0,0c0.3,0.6,0.2,0,0.7,0.4L35.6,13
			l0.2,0c0,0.1,0,0.2-0.1,0.2c0.2,0.2,0.1-0.1,0.3,0c-0.1,0.4,0.3,0.9-0.1,1c0.2,0.1,0.1-0.3,0.3,0c-0.4,0.2,0.1,0.4,0,0.7
			c-0.2-0.1-0.1-0.4-0.3,0c0.4,0.2,0,0.6,0,0.8c0.3,0,0.1,0.6,0.2,1c-0.1,0-0.2,0.8-0.4,1.2l0,0c0.3,0.1,0.1,0.5,0.1,0.8
			c-0.2,0-0.2-0.1-0.3-0.3l-0.1,0.3c0.1,0.1,0.1,0.2,0.1,0.4l-0.2-0.1c-0.1,0.4,0,0.8-0.3,1.2c0.2,0.1,0.7-0.2,0.6,0.4
			c-0.1,0-0.3-0.1-0.3-0.2c0,0,0,0.2-0.1,0.2l-0.1-0.3c-0.2,0.2,0.1,0.2,0,0.3c-0.1-0.1-0.1,0.1-0.2,0c0,0,0.1-0.1,0.1-0.2
			c-0.1,0.2-0.3,0.4-0.4,0.4c0.1,0,0.2,0.1,0.1,0.2c-0.2,0.3-0.2,0-0.4,0.2c0,0.1-0.2,0.3,0,0.4c-0.1,0.1-0.2,0.1-0.2,0.1
			c0,0.2-0.4,0.8-0.1,0.7l0,0l0,0l0,0l0,0c-0.2,0.7-0.9,1-1.2,1.6L33,24.1c-0.2,0.3-0.6,0.6-0.6,0.9c-0.1,0.1-0.3,0.1-0.3,0
			c-0.2,0.2-0.2,0.3-0.6,0.5c0.1-0.3-0.1,0,0.2-0.3c-0.3,0.2-0.5,0.1-0.7,0.5c0-0.2-0.4,0-0.5,0.1l0.3,0c-0.2,0.1-0.3,0.2-0.5,0.3
			l0-0.3c-0.4,0.1-0.6,0.3-0.9,0.6c-0.2,0.2-0.5,0.4-0.8,0.3C28.5,27,29,26.7,28.9,27c-0.3,0.1-0.8-0.1-0.9-0.1
			c-0.5,0-0.3,0.5-0.8,0.6c0.1,0.1,0.2,0.3-0.1,0.5c-0.4,0.1-0.5-0.3-0.3-0.4c0.1,0,0.1,0,0.1,0c0.1-0.1,0.2-0.1,0.1-0.2l0,0.1
			c-0.2,0-0.7,0.1-0.6-0.1c-0.2,0.1-0.1,0.2,0.1,0.2c-0.5,0-0.7,0.1-1.2,0.1c0.1,0,0.2,0.1,0.1,0.1c-0.7,0-0.3,0.2-0.7,0.3
			c-0.3-0.1,0.1-0.3-0.4-0.2c-0.3-0.1-0.1-0.2,0-0.3c-0.4,0.2-0.8-0.1-1-0.1l0.2-0.1c-0.1,0-0.3,0-0.4,0l0.1,0.2
			c-0.1,0-0.3,0-0.2-0.1c-0.1,0.1,0.1,0.3-0.2,0.5c-0.2-0.1-0.6,0.1-0.6-0.1c0.6,0.1-0.1-0.2,0.4-0.3c-0.1,0-0.2,0-0.3,0
			c0,0,0,0,0.1-0.1c-0.5-0.2-0.3,0.3-0.8,0.3c0.1-0.1-0.1-0.3-0.2-0.2c0.2,0,0.1,0.2-0.1,0.3c-0.4-0.1-0.4,0.1-0.6,0.1l0.2,0
			c-0.1,0.1-0.3,0.1-0.5,0.2c0-0.1,0.2-0.1,0.1-0.1c-0.1,0.1-0.3,0.1-0.5,0c-0.1-0.1-0.5-0.1-0.8-0.1c-0.3-0.1-0.1-0.3-0.4-0.3
			c-0.4,0.1-0.7,0-1.1-0.1c0,0.1,0,0.3,0,0.7c0.2-0.1,0.1-0.1,0.3,0.5L18,27.7l0.3,0l-0.3,0.1l0.1,0.5c0-0.1,0-0.3,0-0.4
			c0.2,0,0.3-0.1,0.5-0.1c-0.2,0.1-0.2,0.1,0,0.3c-0.2-0.1-0.3-0.1-0.4-0.1c0,0.3,0.2,0.7,0.1,1l-0.4-0.2c-0.2,1,0.2,1.3,0.1,2
			l0.1-0.2c0.2,0.1,0,0.4,0.1,0.7c-0.1,0-0.2,0.1-0.3,0.2c0.1,0,0,0.5,0.3,0.6L18,32.4c-0.1,0.6,0.4,0.7,0.4,1.2
			c-0.2-0.2-0.3,0.1-0.4-0.3c0,0.2,0,0.3,0.1,0.3c-0.1,0.1,0.1,0.4,0,0.5c0,0.1,0.2,0.2,0.1,0.3c0,0-0.1,0-0.1,0
			c0.1,0,0,0.3,0.2,0.2c-0.3,0.1-0.5,0.4-0.8,0.6c-0.2,0.2-0.6,0.4-0.8,0.2c-0.1,0.1-0.3,0.1-0.5,0.1c-0.2,0-0.4,0-0.6,0
			c0,0,0-0.1,0.1-0.1c-0.5-0.1-0.3,0.4-0.9,0.3c-0.3-0.2,0.3-0.1,0.1-0.2c-0.1-0.5-0.7,0.1-1.1-0.2l0.1,0c-0.3-0.2-0.7,0.2-1.2,0.1
			c0,0,0,0,0-0.1c-0.3,0.2-0.9,0.3-1.4,0.4c0.1-0.2,0.2-0.1,0.1-0.3c-0.2,0,0.1,0.3-0.4,0.4c-0.1-0.1-0.4-0.2-0.5-0.4l0.4,0
			c-0.2-0.3-0.5,0-0.7,0l0-0.1c-0.3,0-0.5,0.1-0.5,0.2c-0.1,0.1-0.2,0.2-0.4,0.1l0,0.1c-0.2,0.1-0.2,0-0.2-0.1c0-0.1,0-0.2-0.1-0.2
			c0,0,0.3-0.2,0.3-0.2c-0.1,0-0.1-0.1-0.2-0.3c-0.1-0.2-0.1-0.5-0.2-0.7C9.1,34.4,9.2,35,9.3,35c0,0,0-0.1,0-0.1c0-0.1,0-0.1,0-0.2
			c0-0.2-0.1-0.3-0.1-0.4c0,0.1,0.1,0.2,0.1,0.3C9,34.3,8.9,34,8.9,33.5C9.4,33.6,9,32.3,9.4,32c-0.2-0.8,0.1-1.6,0.1-2.5
			c-0.4,0.3,0-0.3-0.5-0.2c0-0.2,0-0.3,0-0.3l0.3-0.7c0.1-0.2,0.1,0.2,0.2,0.2c0-0.5,0.2-0.2,0.3-0.5c-0.2,0.1-0.2-0.2-0.2-0.4
			l-0.2,0.4c-0.2-0.7,0.4-0.6,0.1-1.3l0.1,0.2c-0.1-0.3,0-1.3-0.4-1.6c0.1-0.1,0.2-0.1,0.2,0c0.1-0.8-0.4-1.8-0.2-2.5l0.1,0.1
			c0-0.2-0.2-0.3-0.1-0.5c0,0,0.1,0.1,0.1,0c0-0.1-0.2-0.4-0.1-0.6l0.1,0.2c0.1-0.8-0.3-1.2-0.4-1.9c0.3,0,0.4-0.6,0.5-1l0,0
			c0-0.9-0.3-1.6-0.4-2.5c0.4-0.5,0.1-1.8,0.4-2.7c-0.1,0.1-0.3,0-0.3-0.2c0.1-0.2-0.2-0.6,0.1-0.5l0,0.1c0.3-0.2,0.2-0.6,0.2-0.9
			l-0.4-0.1C9.8,11.3,9,9.9,9.6,9.5C9.5,9.3,9.5,9,9.4,8.8l0.2,0c0.1-0.6,0.1-0.9,0-1.6l0.2,0.1c0-0.4-0.6-0.5-0.6-0.9l0.3-0.1
			c0-0.3,0.1-0.7,0.1-1.1c0-0.1,0-0.1,0-0.1c0,0,0,0,0-0.1c0-0.1,0-0.1-0.1-0.2c0,0,0.1,0.1,0.1,0.1C9.7,5,9.8,5.2,9.8,4.8
			c0,0.1,0,0.1,0.1,0.1c0.1,0,0.2,0,0.3,0c0.2,0,0.5-0.1,0.7-0.2l-0.1,0.2c0.3-0.3,0.3-0.3,0.8-0.4c0.1,0,0.1,0.2,0,0.1
			c0.4,0.1,0.3-0.2,0.7-0.1L12,4.7c0.4,0,0.3-0.1,0.5-0.2c0.2-0.1,0.7,0.1,0.7,0.2c0-0.1,0.2-0.3,0.5-0.2c0,0.1,0,0.1-0.1,0.1
			c0.6,0.1,0.9-0.2,1.3,0c0,0.1,0,0.1,0.1,0.1c-0.5,0-0.9,0-0.8,0c0,0.2,0.4,0.2,0.1,0.5c0.3-0.1,0.8-0.5,1.2-0.4c0,0,0,0,0,0.1l0,0
			c0.1,0,0.2,0,0.2,0c0.1,0,0.2,0.1,0.3,0.1c0,0.2,0.4,0.1,0.6,0.1c0-0.2,0.2-0.2,0-0.4c0,0,0,0-0.2,0c0,0-0.1,0-0.1,0l0,0
			c-0.1,0-0.3,0-0.5,0c0.2-0.1,0.3-0.2,0.5-0.1c0.1-0.1,0.2-0.3,0.3-0.3c0.3,0.3,0.8,0.5,0.8,0.6c0.6-0.1,1.4-0.1,1.8-0.5
			c0.2-0.1,0.2,0.1,0.3,0.2c-0.1,0-0.2,0-0.3,0.1c0.3-0.1,1,0,1.1-0.3c0.4,0.1-0.2,0.3,0.3,0.2l-0.1,0.1c1.1,0.4,1.9-0.7,3.1-0.1
			c-0.1,0-0.1-0.1-0.1-0.1c0.7,0.1,1.4,0.1,2.1,0.1c0.7,0.1,1.4,0.2,2,0.6c0.3,0.2,0.4,0,0.7,0l0,0.2L29,5.4c0.6,0.1,0.6,0.9,1.4,1
			l0-0.2c0.2,0.2,0.8,0.4,0.6,0.5c0,0,0.2-0.1,0.2,0l-0.1,0.1c0,0,0.2,0.1,0.3,0.1c0.2,0.1,0.3,0.1,0.3,0.1c0.3,0.4-0.4,0.3,0.2,0.8
			C32.2,8,32.8,8.2,32.8,8c-0.1-0.1-0.1-0.3-0.1-0.3L33,7.8c0.3-0.2,0.7-0.3,0.4-1c0,0-0.1,0-0.2-0.1c-0.1,0-0.2-0.1-0.2-0.1l0-0.2
			l0.3,0.3c-0.1-0.3-0.3-0.3-0.4-0.3c0-0.1,0-0.2,0-0.3l-0.6,0c0-0.1,0.3-0.1,0.1-0.3c-0.3,0,0,0.4-0.4,0.2c-0.1-0.3,0-0.3-0.2-0.4
			c0-0.1,0.1-0.1,0.2-0.1c-0.2-0.1-0.5-0.3-0.7-0.2C31,5.1,30.4,5,30.6,4.7c-0.1,0-0.5,0-0.7-0.1c0.5-0.2-0.7-0.4-0.5-0.7
			c-0.4,0.2-1.1-0.3-1.6-0.2c0,0,0.1-0.1,0.1,0c-0.3-0.1-0.3-0.2-0.5-0.3c-0.1,0.3-0.6,0.2-0.8,0.4c-0.3-0.3,0.3-0.3,0.2-0.6
			c0,0.2-0.7,0.1-0.6,0.3c-0.2-0.2-0.2-0.1-0.3-0.4c-0.1,0.4-0.3,0-0.5,0.2C25.1,3.2,25.4,3,25,3.1C24.8,3,25.2,2.9,25.2,2.9z
			 M15.4,3.5L15.4,3.5c0.1,0,0.2,0,0.2,0C15.6,3.5,15.5,3.5,15.4,3.5z M14.6,3.5c0.1,0,0.2,0,0.4,0c0,0.1,0,0.1-0.1,0.1
			C14.9,3.6,14.7,3.6,14.6,3.5z M16.3,5c-0.1,0-0.2,0-0.2-0.1C16.2,4.9,16.3,4.9,16.3,5l0.1-0.1C16.4,4.9,16.3,4.9,16.3,5z"/>
		<path class="st0" d="M16.6,4.7C16.6,4.7,16.6,4.7,16.6,4.7C16.6,4.6,16.6,4.6,16.6,4.7L16.6,4.7L16.6,4.7z"/>
		<path class="st0" d="M34.3,22.6L34.3,22.6C34.3,22.6,34.3,22.6,34.3,22.6C34.3,22.6,34.3,22.6,34.3,22.6z"/>
		<polygon class="st0" points="7.7,9.6 7.7,9.6 7.7,9.6 		"/>
		<path class="st0" d="M36.6,18.7C36.6,18.7,36.6,18.7,36.6,18.7C36.6,18.6,36.6,18.7,36.6,18.7z"/>
		<path class="st0" d="M36.9,16.7l0.1-0.3C36.9,16.5,36.9,16.6,36.9,16.7z"/>
		<path class="st0" d="M36.9,15.2C36.9,15.1,36.9,15.1,36.9,15.2L36.9,15.2L36.9,15.2z"/>
		<path class="st0" d="M20.8,29.3C20.7,29.3,20.7,29.3,20.8,29.3C20.6,29.3,20.7,29.3,20.8,29.3z"/>
		<path class="st0" d="M27.8,28.2c-0.1,0.1-0.1,0.1-0.2,0.2C27.8,28.3,27.9,28.3,27.8,28.2z"/>
		<path class="st0" d="M19.6,34.6L19.6,34.6C19.6,34.6,19.6,34.6,19.6,34.6L19.6,34.6z"/>
		<path class="st0" d="M27.3,28.4c0.1,0,0.2,0,0.3-0.1C27.5,28.4,27.4,28.4,27.3,28.4z"/>
		<path class="st0" d="M34.7,8.9L34.7,8.9C34.7,8.8,34.7,8.8,34.7,8.9L34.7,8.9z"/>
		<path class="st0" d="M34.7,8.8L34.7,8.8C34.6,8.8,34.6,8.8,34.7,8.8z"/>
		<path class="st0" d="M34.4,8.6l0.1,0.1C34.6,8.7,34.5,8.6,34.4,8.6z"/>
		<path class="st0" d="M35.7,10.7L35.7,10.7C35.8,10.7,35.7,10.7,35.7,10.7z"/>
		<path class="st0" d="M36,11.2c0-0.1,0-0.4-0.1-0.6l-0.1,0C35.9,10.7,35.8,11.2,36,11.2z"/>
		<path class="st0" d="M35.8,13.9l0-0.5c-0.1,0.1-0.1,0.2-0.2,0C35.5,14.1,35.7,13.3,35.8,13.9z"/>
		<path class="st0" d="M35.9,15.4c-0.1-0.3-0.1,0-0.2,0C35.8,15.6,35.8,15.6,35.9,15.4z"/>
		<path class="st0" d="M31.9,25l-0.1-0.2C31.7,25,31.9,24.9,31.9,25z"/>
		<path class="st0" d="M30.8,27.1l0.2,0l0-0.2C31,26.9,30.8,27.1,30.8,27.1z"/>
		<polygon class="st0" points="29,26.5 29.1,26.4 28.8,26.6 		"/>
		<path class="st0" d="M16.9,35.1l0.1,0.2C17.1,35.2,17,35,16.9,35.1z"/>
		<path class="st0" d="M9.4,35.5c0-0.1,0-0.2-0.1-0.2C9.4,35.3,9.4,35.5,9.4,35.5z"/>
		<polygon class="st0" points="9.6,11.8 9.6,12 9.6,11.6 		"/>
	</g>
</g>
</svg>
