<?xml version="1.0" encoding="utf-8"?>
<!-- Generator: Adobe Illustrator 19.1.0, SVG Export Plug-In . SVG Version: 6.00 Build 0)  -->
<svg version="1.1" id="Layer_1" xmlns="http://www.w3.org/2000/svg" xmlns:xlink="http://www.w3.org/1999/xlink" x="0px" y="0px"
	 viewBox="0 0 180 55" style="enable-background:new 0 0 180 55;" xml:space="preserve">
<style type="text/css">
	.st0{fill:none;}
	.st1{fill:#202020;}
</style>
<g>
	<g>
		<path d="M76.1,11.1h-6.8v24h-4v-24h-6.8v-4h10.8h6.8V11.1z"/>
		<path d="M93.3,11.1v20h6.8v4H89.3h-6.8v-4h6.8v-20h-6.8v-4h10.8h6.8v4H93.3z"/>
		<path d="M124.1,14.3v13.6c0,4-3.2,7.2-7.2,7.2h-7.6h-2.8v-28h4h6.4C120.8,7.1,124.1,10.3,124.1,14.3z M120.1,14.3
			c0-1.8-1.4-3.2-3.2-3.2h-6.4v20h6.4c1.8,0,3.2-1.4,3.2-3.2V14.3z"/>
		<path d="M148.1,25.9v9.2h-4v-6.5h-9.6v6.5h-4v-9.2l6.8-18.8h4L148.1,25.9z M135.2,24.6h8.2l-4-11.2h-0.1L135.2,24.6z"/>
		<path d="M172.1,31.1v4h-17.6v-28h4v24H172.1z"/>
	</g>
	<g>
		<path class="st0" d="M10.5,5.6c-0.2,0-0.4,0.1-0.6,0.2L3.7,12c-0.3,0.3-0.3,0.8,0,1.2l6.2,6.2c0.3,0.3,0.8,0.3,1.2,0l6.2-6.2
			c0.2-0.2,0.2-0.4,0.2-0.6c0-0.2-0.1-0.4-0.2-0.6L11,5.8C10.9,5.7,10.7,5.6,10.5,5.6z M17.5,12.6c0,0.2,0.1,0.4,0.2,0.6l6.2,6.2
			c0.2,0.2,0.4,0.2,0.6,0.2c0.2,0,0.4-0.1,0.6-0.2l6.2-6.2c0.2-0.2,0.2-0.4,0.2-0.6c0-0.2-0.1-0.4-0.2-0.6L25,5.8
			c-0.3-0.3-0.8-0.3-1.2,0L17.7,12C17.5,12.2,17.5,12.4,17.5,12.6z M31.5,12.6c0,0.2,0.1,0.4,0.2,0.6l6.2,6.2c0.3,0.3,0.8,0.3,1.2,0
			l6.2-6.2c0.3-0.3,0.3-0.8,0-1.2L39,5.8c-0.3-0.3-0.8-0.3-1.2,0L31.7,12C31.5,12.2,31.5,12.4,31.5,12.6z M24.5,19.6
			c-0.2,0-0.4,0.1-0.6,0.2L17.7,26c-0.3,0.3-0.3,0.8,0,1.2l6.2,6.2c0.3,0.3,0.8,0.3,1.2,0l6.2-6.2c0.3-0.3,0.3-0.8,0-1.2L25,19.8
			C24.9,19.7,24.7,19.6,24.5,19.6z"/>
		<g>
			<path class="st1" d="M24.5,19.1c0,0.1,0,0.2,0.1,0.2l0.1-0.2L24.5,19.1z"/>
			<path class="st1" d="M24.8,19.6c0.1-0.1,0.3-0.2,0.4-0.4c-0.2,0.1-0.2,0-0.4,0.3c-0.1,0-0.1-0.1-0.1-0.2c0,0.1-0.1-0.1-0.2,0.1
				c0.1,0.2,0.1,0.2,0.3,0.1C24.9,19.6,24.9,19.6,24.8,19.6z"/>
			<path class="st1" d="M28.6,23.9L28.6,23.9C28.6,23.9,28.6,23.9,28.6,23.9z"/>
			<path class="st1" d="M30.8,26.3C30.8,26.3,30.8,26.3,30.8,26.3C30.8,26.3,30.8,26.4,30.8,26.3z"/>
			<path class="st1" d="M30.6,26.7L30.6,26.7C30.6,26.6,30.6,26.6,30.6,26.7z"/>
			<path class="st1" d="M28.6,23.9l0,0.1C28.7,24,28.6,24,28.6,23.9z"/>
			<path class="st1" d="M25.9,19.8C25.8,19.7,25.8,19.8,25.9,19.8C25.8,19.8,25.8,19.8,25.9,19.8L25.9,19.8z"/>
			<path class="st1" d="M27.4,23L27.4,23c0,0-0.1,0-0.1,0L27.4,23z"/>
			<path class="st1" d="M26.5,22.1c0,0,0.2-0.1,0.2-0.2C26.7,22,26.6,22,26.6,22C26.6,22.1,26.6,22.1,26.5,22.1z"/>
			<path class="st1" d="M25.4,20.5L25.4,20.5C25.4,20.5,25.4,20.5,25.4,20.5z"/>
			<path class="st1" d="M28,23.6C27.9,23.6,27.9,23.6,28,23.6C27.9,23.6,27.9,23.6,28,23.6z"/>
			<path class="st1" d="M22.7,19.7C22.7,19.7,22.7,19.7,22.7,19.7C22.7,19.7,22.7,19.6,22.7,19.7z"/>
			<polygon class="st1" points="24.5,19.6 24.4,19.7 24.4,19.8 			"/>
			<path class="st1" d="M30,26.9L30,26.9C30,26.9,30,26.9,30,26.9z"/>
			<path class="st1" d="M24,32.2c-0.1,0.2-0.3,0-0.3,0.3C23.7,32.5,24,32.4,24,32.2z"/>
			<path class="st1" d="M25.9,19.8C25.9,19.8,25.9,19.8,25.9,19.8C25.9,19.8,25.9,19.8,25.9,19.8z"/>
			<path class="st1" d="M23.7,32.5L23.7,32.5L23.7,32.5C23.7,32.5,23.7,32.5,23.7,32.5z"/>
			<path class="st1" d="M28.3,28.8C28.4,28.8,28.4,28.8,28.3,28.8C28.4,28.8,28.4,28.8,28.3,28.8z"/>
			<path class="st1" d="M29.9,27.6L29.9,27.6C29.9,27.7,29.9,27.7,29.9,27.6z"/>
			<path class="st1" d="M27.8,29.7C27.8,29.7,27.8,29.7,27.8,29.7C27.8,29.7,27.8,29.7,27.8,29.7C27.8,29.7,27.8,29.7,27.8,29.7z"/>
			<polygon class="st1" points="27.1,30.4 27.2,30.4 27.2,30.4 			"/>
			<path class="st1" d="M20.5,21.9c0.1,0,0.1,0.1,0.2,0.1C20.6,21.9,20.6,21.8,20.5,21.9z"/>
			<path class="st1" d="M25.8,19.8C25.8,19.8,25.8,19.8,25.8,19.8L25.8,19.8C25.8,19.8,25.8,19.8,25.8,19.8z"/>
			<path class="st1" d="M29,30.9L28.9,31C28.9,31,29,30.9,29,30.9z"/>
			<path class="st1" d="M17.9,28.6L17.9,28.6C17.9,28.6,17.9,28.6,17.9,28.6z"/>
			<path class="st1" d="M28.5,31.3c-0.1,0-0.1,0-0.2,0c0,0,0,0,0,0.1L28.5,31.3z"/>
			<path class="st1" d="M20.7,22L20.7,22L20.7,22z"/>
			<path class="st1" d="M21.1,20.9c-0.1,0.1,0.1,0.2,0.2,0.4c-0.1,0.2-0.2-0.1-0.3-0.1c0,0.1,0.1,0.4,0,0.4c0,0-0.1,0-0.1-0.1
				c0.1,0.2-0.2,0.3-0.2,0.6c0,0,0,0-0.1,0c0.1,0.1,0.2,0.2,0.3,0.3c0,0.1,0,0.2-0.1,0.1c0,0,0-0.1,0-0.1l0,0.1
				c-0.2-0.1,0-0.1-0.1-0.3c0,0.2,0,0.4-0.1,0.5c-0.2-0.2,0.1-0.2-0.1-0.3l0.2,0c-0.4-0.2,0.1-0.1-0.3-0.3c-0.2,0.1-0.1,0.3-0.3,0.4
				c0.1,0.1,0.2,0.1,0.2,0.3c0,0.4-0.6-0.3-0.6,0.1c0.1,0.2,0.3,0.4,0.1,0.4l-0.2-0.2c-0.2,0.1,0.2,0.4-0.1,0.4
				c-0.1-0.1,0.1-0.2,0-0.2c-0.3-0.1,0,0.2,0,0.3l-0.2-0.2c-0.1,0.2-0.2,0.5-0.3,0.7c0-0.1-0.1-0.2-0.2-0.2
				c-0.1,0.3-0.5,0.5-0.8,0.6l0.1,0.2c0,0-0.1,0-0.1-0.1c-0.1,0,0.1,0.1,0.1,0.2c0,0.1-0.2,0-0.2-0.1c0,0.3-0.1,0.7-0.5,0.7l0-0.1
				c-0.1,0.1-0.1,0.2-0.1,0.3c0,0.1,0,0.2-0.1,0.2l0-0.1c-0.2,0.2-0.3,0.5-0.4,0.7c0,0.3,0,0.5-0.1,0.8c0.3,0,0.2,0.6,0.6,0.4
				c0,0.2,0,0.3,0,0.4c0,0.1,0,0.2,0.1,0.4c0,0.1,0.3-0.1,0.4-0.1l-0.2,0.2l0.3-0.1l-0.1,0.2l0.1,0c0,0,0-0.1,0.1-0.2
				c0.2,0,0.1,0.4,0.1,0.5l0.4,0.1c-0.1,0.1-0.1,0-0.2,0.1c0.3,0-0.1,0.2,0.1,0.2c0-0.1,0.1-0.1,0.1-0.1c0,0.2,0.1,0.3,0.2,0.4
				l-0.1,0.1c0.2,0.2,0.4,0.3,0.6,0.5c0-0.1,0.2-0.3,0.3-0.3L19.3,30c0.1-0.1,0-0.1,0.2-0.2c0.1,0.1-0.1,0.2-0.2,0.3l0.2,0
				c0,0.1-0.1,0.1-0.2,0.1c0.1-0.1,0,0.3,0.2,0.2l0,0.1c0.2,0.2,0.4,0.2,0.5,0.4c0.2-0.1,0.2,0,0.4-0.1c0.1,0.2,0.1,0.4,0.3,0.6
				c0.2,0,0.2-0.1,0.3-0.1c-0.1,0.1,0,0.3-0.1,0.3c0.2,0.2,0.3,0.2,0.6,0.3c0-0.1,0-0.1,0.1-0.2c0.1,0,0,0.1,0,0.2l0,0
				c0.5,0,0.2,1,0.7,0.9l0,0l0.4,0.1c0.1,0.1-0.2,0-0.2,0.2c0.4,0,0.3,0.4,0.7,0.4c-0.1,0.1-0.1,0.2,0,0.3c0,0,0,0.1,0.1,0.1
				c0.1,0,0.1,0.1,0.2,0.2c0.3,0.2,0.5,0.4,0.7,0.6l0-0.1c0.1-0.1,0.1,0.1,0.2,0.2c0-0.1-0.1-0.2,0-0.2c0.5,0.1,1,0.1,1.5-0.2
				c0.2-0.1,0.5-0.3,0.7-0.4c0.1-0.1,0.3-0.2,0.4-0.2c0.2-0.1-0.4-0.6,0-0.6l0.1,0.2c0.1-0.5,0.7-0.6,0.8-1.1c0,0.1,0.1,0.1,0,0.1
				c0.2,0.1,0.2-0.2,0.1-0.3c0.1,0,0.1,0.1,0.2,0.1c0.1,0,0-0.3,0.2-0.2c0,0,0,0.1,0,0.1c0-0.1,0.2-0.2,0-0.3c0.2,0,0.2-0.3,0.3-0.3
				c-0.1-0.2,0.3-0.1,0.1-0.4c0.2,0.2,0.4,0,0.4-0.2c0,0.1,0.1,0,0.2,0.1c0.1-0.1,0.1-0.2,0-0.3c0.4,0.1,0.1-0.5,0.5-0.3
				c0.1-0.4,0.3-0.7,0.4-1c0.2,0.2-0.2,0.3,0,0.5c0.1-0.3,0-0.6,0.3-0.8c0.1,0,0.1,0.1,0.1,0.2c0.1-0.3,0.4-0.4,0.5-0.7
				c0,0,0,0.1,0,0.1c0,0,0.1-0.1,0-0.2l0,0.1c-0.2-0.1-0.2-0.5-0.3-0.6c0.2,0.4,0.3-0.1,0.6,0.4c0,0,0-0.1-0.1-0.2
				c0.1,0,0.1,0,0.2,0.1c0.1-0.2-0.1-0.3,0-0.4c0.1,0.1,0,0.1,0.1,0.2c-0.1-0.2-0.1-0.3,0.1-0.4l0,0c0,0,0,0,0.1,0c0,0,0,0,0,0.1
				l0,0c0.2-0.3,0-0.6,0.2-0.9c0.3,0.2,0.1-0.1,0.4-0.1c0,0-0.1-0.2-0.1-0.2L32,26.6c0-0.2-0.2-0.3-0.2-0.5l0.2,0.1
				c0,0-0.2-0.3-0.2-0.3l0,0.2c-0.2-0.1-0.3,0.1-0.4-0.1c0.1,0-0.1-0.1,0-0.3h0c-0.1,0-0.3,0-0.3-0.1c0-0.1,0.3-0.2,0.3-0.2
				c-0.3,0.1-0.3-0.2-0.5-0.1c0.1,0,0.2-0.1,0.2-0.2l-0.2,0.1c0-0.1,0-0.1,0.1-0.2c-0.1-0.2-0.2,0.3-0.3,0c0,0,0,0,0.1,0
				c-0.1-0.2-0.4-0.2-0.5-0.4c0.2-0.2,0.2,0.1,0.3-0.1c-0.2-0.2-0.7-0.2-0.8-0.4l0,0.1c-0.3,0.3,0-0.3-0.2-0.2c0,0,0.2-0.1,0.1-0.1
				c-0.1-0.2-0.3-0.2-0.6-0.3l0.1,0c0-0.1-0.2-0.2-0.2-0.4c-0.1,0-0.1,0-0.2,0.1c0.2-0.7-0.7-0.3-0.6-0.9c0,0,0.1,0,0.1,0l-0.3-0.1
				c-0.1,0.1,0,0.1-0.1,0.2c-0.1,0-0.2,0-0.3,0c0.2,0,0.2-0.2,0.2-0.3c0,0-0.1,0.1-0.1,0.1c0.1-0.3-0.3,0.2-0.3-0.1l0.1-0.1
				c-0.1,0-0.2,0-0.3-0.1c0.1-0.2,0.1,0,0.2-0.1c-0.1-0.1-0.4,0.1-0.4-0.1c0.1,0,0.1,0,0.2,0c0.1-0.2,0-0.2,0-0.3l0,0l-0.1-0.2
				l0,0.1c-0.5,0.3-0.3-0.1-0.6,0c0.4-0.1,0.2-0.1,0.3-0.3c0-0.1,0-0.2,0.1-0.2c-0.2,0.1,0-0.2-0.3-0.1c0-0.1-0.1-0.1,0.1-0.2
				c-0.1,0-0.1,0.1-0.1,0.2c-0.3,0-0.1-0.5-0.5-0.5c-0.3-0.1-0.5,0.1-0.7,0c0-0.1,0.2-0.1,0.2-0.1c0-0.2-0.1-0.2-0.2-0.2
				c0.1,0,0.1-0.1,0.1-0.2c-0.1,0-0.2,0.1-0.2,0c0.1,0,0.2-0.1,0.3-0.1c-0.1,0-0.3,0-0.4,0c0.1-0.1,0.2-0.1,0.3-0.1
				c-0.1,0-0.3-0.1-0.5,0c0,0,0,0.1,0,0.1c0,0,0.1-0.1,0.2-0.1c0.2,0,0.1,0.2,0,0.2l-0.1,0c-0.2,0.4,0.3,0.2,0.3,0.3l-0.3,0.2
				l0.3-0.1c0,0.1-0.1,0.2-0.2,0.2c0,0.2,0.1,0,0.1,0.2c0,0,0,0,0,0l0.1,0c-0.1,0-0.1,0.2-0.2,0.1c0,0.3,0.4,0,0.3,0.3l0,0
				c0.3,0.1,0.2-0.1,0.5-0.2l-0.3,0.5l0.2-0.1c0,0,0,0.1,0,0.1c0.2,0,0.1-0.1,0.2-0.1c-0.1,0.2,0.3,0.2,0.1,0.5
				c0.2-0.1,0-0.2,0.2-0.2c-0.2,0.3,0.2,0.1,0.1,0.3c-0.2,0.1-0.2,0-0.2,0.2c0.3-0.2,0.1,0.2,0.2,0.2c0.2-0.2,0.2,0.1,0.4,0.1
				c-0.1,0.1,0.1,0.3,0.2,0.5l0,0c0.2-0.2,0.3,0,0.4,0c-0.1,0.1-0.2,0.1-0.3,0.2l0.1,0.1c0.1,0,0.1-0.1,0.2,0L27.4,23
				c0.1,0.1,0.4,0,0.4,0.3c0.1-0.1,0.3-0.5,0.5-0.4c-0.1,0.1-0.2,0.2-0.3,0.2c0,0,0.1,0,0.1,0L28,23.2c0,0.1,0.1-0.1,0.2,0
				c-0.1,0.1,0,0.1-0.1,0.2c0,0,0-0.1-0.1-0.1c0,0.1,0,0.2,0,0.3c0.1-0.1,0.1-0.1,0.2-0.1c0.1,0.1-0.1,0.2-0.1,0.3
				c0.1,0,0.1,0.1,0.2-0.1c0,0,0,0.1-0.1,0.2c0.1,0,0.3,0.2,0.4,0l0,0c0,0,0,0,0,0l0,0l0,0c0.3,0,0.3,0.5,0.5,0.6l-0.1,0.1
				c0.2,0,0.3,0.2,0.5,0.2c0,0,0,0.2-0.1,0.2c0.1,0,0.2,0,0.2,0.2c-0.2,0-0.1,0.1-0.1,0c0.1,0.1,0,0.3,0.3,0.2
				c-0.2,0.1-0.1,0.2,0,0.3l0-0.2c0.1,0,0.1,0.1,0.1,0.2l-0.2,0.2c0,0.4,0.7,0,0.5,0.5c0.2-0.1,0-0.2,0.2-0.3
				c0.1,0.1-0.1,0.5-0.1,0.5c-0.1,0.1,0.3-0.2,0.3,0c0.1,0,0.3-0.2,0.4-0.1c0,0.1-0.3,0.2-0.4,0.2c0,0,0,0,0,0c0,0-0.1,0-0.2,0
				l0.1,0c-0.1,0.1,0,0.1-0.2,0.1c0.1,0,0.2,0,0.2-0.1c-0.1,0.1,0,0.1-0.1,0.2c0.1,0,0.2,0,0.2,0c-0.2,0.1,0.2,0.1,0.2,0.2
				c-0.2,0-0.3-0.1-0.3,0c-0.1,0-0.2-0.1-0.3-0.1c0.1,0.1,0,0.1-0.1,0c0,0-0.1,0-0.1,0l0-0.1c0,0,0,0,0,0l0.1,0.1c0,0,0,0-0.1-0.1
				c0.1,0.1,0.2,0.2,0.3,0.4c-0.1,0-0.1,0.2-0.3,0.1c0.2-0.1-0.2-0.2-0.1-0.3c0,0,0,0.1-0.1,0.1c0,0,0,0,0-0.1c-0.3,0,0.1,0.3,0,0.4
				c-0.1-0.1-0.2-0.1-0.2-0.1c0.1-0.1,0.2,0.1,0.2,0.3c-0.2,0-0.1,0.2-0.1,0.2l0.1,0c0.1,0.1,0,0.1,0,0.2c-0.1-0.1,0-0.1,0-0.1
				c0.1,0.2-0.3,0-0.3,0.2c-0.1,0-0.2-0.2-0.3-0.2c0,0.2-0.3,0-0.3,0.2c0.2,0.1,0.1,0.1,0.2,0.3l0.1-0.3l0.1,0.3
				c0.1-0.1,0-0.2,0.1-0.2c0,0.2,0,0.1,0.2,0.2c-0.3-0.1-0.1,0.3-0.3,0.2L29,28.2c-0.3,0-0.1,0.4-0.4,0.5l0.1,0
				c0.1,0.1-0.1,0.1-0.1,0.2c-0.1-0.1-0.2-0.1-0.3-0.1c0.1,0.1-0.1,0.1,0,0.4l-0.2-0.1c-0.2,0.1,0.1,0.5-0.1,0.6
				c-0.1-0.2-0.2-0.2-0.2-0.3c0,0-0.1,0.1,0,0.1c-0.1,0,0,0.3-0.1,0.2c0,0.1,0.1,0.2,0.1,0.2c0,0-0.1-0.1-0.1-0.1
				c0.1,0.1,0,0.2,0.1,0.2c-0.5-0.2-0.4,0.4-0.8,0.3c-0.1,0.1-0.2,0.3-0.3,0.4c0,0-0.1-0.1,0-0.1c-0.2,0,0.2,0.4,0,0.4
				c-0.2-0.1,0-0.2-0.1-0.2c-0.4-0.3-0.1,0.2-0.4,0.1l0,0c-0.2,0-0.1,0.3-0.2,0.4c0,0,0,0-0.1-0.1c0.1,0.3,0,0.5-0.1,0.7
				c-0.1-0.2,0-0.1-0.2-0.2c0,0.1,0.2,0.2,0.2,0.4c-0.1,0-0.3,0-0.4-0.2l0.1-0.1c-0.2-0.1-0.1,0.1-0.2,0.2L25.3,32
				c-0.1,0.2,0.1,0.4-0.1,0.6l0.1,0c0.1,0.3-0.2,0-0.1,0.2l-0.2-0.2c0,0.1,0.1,0.4,0,0.5c0-0.3,0-0.4-0.1-0.6c0,0-0.1,0.1,0,0.3
				c0,0,0-0.1,0-0.1c0.1,0.2,0.1,0.4-0.1,0.5c-0.1-0.3-0.1-0.3-0.2-0.3c-0.1,0-0.2,0-0.1-0.3c-0.1,0.1-0.1,0-0.1,0l0-0.1
				c0,0,0,0,0,0c0,0-0.1-0.1-0.1-0.1c-0.2,0.4-0.1-0.1-0.4,0.3c-0.1,0-0.1-0.1-0.1-0.1l0-0.4c0.1-0.1,0.1,0,0.2-0.1
				c-0.1-0.2,0.1-0.2,0.1-0.4c-0.1,0.1-0.2,0.1-0.2,0l0,0.3c-0.4,0,0.1-0.4-0.2-0.4l0.2,0c-0.2,0-0.3-0.3-0.7-0.2
				c0-0.1,0.1-0.2,0.2-0.1c-0.2-0.3-0.8-0.2-0.8-0.5l0.1-0.1c-0.1,0-0.2,0.1-0.2-0.1c0,0,0.1-0.1,0.1-0.1c0,0-0.2,0-0.3-0.1l0.1,0
				c-0.1-0.3-0.5-0.1-0.8-0.2c0.2-0.2,0.1-0.5,0.1-0.6l0,0c-0.2-0.3-0.6-0.2-0.9-0.4c0.1-0.4-0.4-0.6-0.5-1c0,0.1-0.2,0.2-0.3,0.2
				c0-0.1-0.3,0-0.1-0.2l0,0c0.2-0.3,0-0.3-0.1-0.4L19.4,28c0.2-0.6-0.7-0.4-0.5-0.9c-0.1,0-0.2-0.1-0.3,0l0.2-0.1
				c-0.1-0.1-0.1-0.1-0.1-0.1c0,0,0,0-0.1,0l0.2-0.1c0,0-0.6,0.2-0.7,0.1l0.3-0.1c0-0.1,0.3-0.1,0-0.2c0,0,0.1,0.1,0.1,0.1
				c0,0,0.1,0,0.1,0c0,0-0.1-0.1-0.2-0.2c0.1,0.1,0.1,0.1,0.1,0c0-0.1,0-0.2,0-0.3l0.1,0.2c-0.1-0.3-0.2-0.3-0.1-0.5
				c0,0,0.1,0.1,0.1,0.1c0.2,0-0.1-0.2,0.1-0.2l0.1,0.1c0.1-0.1,0-0.1,0-0.3c0-0.1,0.2-0.1,0.4,0c-0.1-0.1-0.1-0.3,0-0.3
				c0.1,0,0.1,0.1,0.1,0.1c0.3-0.1,0.1-0.4,0.3-0.4c0.1,0,0.1,0.1,0.1,0.1c-0.1,0.1-0.2,0.2-0.2,0.2c0.1,0.1,0.3,0.1,0.4,0.3
				c0-0.2-0.1-0.5,0.1-0.6c0,0,0,0,0.1,0l0,0c0,0,0,0,0-0.1c0.1,0,0.1,0,0.1,0c0.1,0.1,0.2-0.1,0.2-0.1c-0.2-0.1-0.1-0.2-0.2-0.2
				c0,0,0,0,0,0.1c0,0,0,0,0,0l0,0c0,0-0.1,0.1-0.1,0.1c0-0.1-0.1-0.2,0.1-0.2c-0.1-0.1-0.1-0.3-0.2-0.3c0.3,0.1,0.5,0.1,0.7,0.2
				c0.1-0.2,0.3-0.4,0.1-0.8c0-0.1,0.1,0,0.2,0.1c0,0.1,0,0.1,0,0.1c0-0.2,0.2-0.3,0.1-0.5c0.2,0,0.1,0.2,0.2,0.1l0,0.1
				c0.6,0,0-1,0.7-0.9c0,0-0.1,0-0.1,0c0.6-0.2,0.6-1,1.3-1c0.2-0.1,0.1-0.2,0-0.3l0.2,0.1l-0.1-0.3c0-0.3,0.7,0.1,0.6-0.3l-0.1-0.1
				c0.1-0.1,0.2-0.3,0.3-0.2c0,0-0.1-0.1,0-0.1l0.1,0.1c0,0,0-0.1,0-0.2c0-0.1,0-0.1,0-0.1c0.1,0,0.3,0.4,0.3,0.4c0,0,0-0.4,0-0.4
				c-0.1,0-0.1-0.1-0.1-0.2c0,0,0.1-0.1,0.1-0.1c0-0.2,0-0.4,0-0.5c0-0.1,0-0.2,0-0.2c-0.1-0.1-0.2-0.1-0.3-0.2c0,0-0.3,0.3-0.2,0.3
				l-0.2-0.1c0,0,0.3-0.1,0.3-0.1c-0.2-0.1-0.3,0.1-0.3,0.2c-0.1-0.1-0.1-0.1-0.2-0.1c0,0-0.1,0.5,0,0.4c-0.1-0.1-0.1-0.2-0.3-0.2
				c0.1,0.2,0.3,0.2,0.3,0.3c-0.2-0.1-0.2-0.2-0.2,0c-0.1-0.1-0.1-0.1-0.1-0.2c0,0.1-0.1,0.2,0,0.3c-0.2-0.1-0.2,0.2-0.4,0
				c0,0.1,0.1,0.3,0,0.3c-0.2-0.4-0.2,0.2-0.5-0.1c0.2,0.3-0.1,0.4-0.1,0.6c0,0,0-0.1,0-0.1c-0.1,0.1-0.2,0-0.3,0
				c0.2,0.2,0.1,0.4,0.2,0.6c-0.3-0.1-0.2-0.3-0.4-0.5c0.2,0.2,0,0.3,0.2,0.4c-0.2-0.1-0.1,0-0.3-0.1c0.2,0.3,0,0.1,0.1,0.3
				c-0.2,0-0.3-0.2-0.3,0C21.1,21.1,21.1,20.9,21.1,20.9z M19,23.9L19,23.9C19,23.9,19,23.9,19,23.9C19,23.9,19,23.9,19,23.9z
				 M18.8,24.1C18.8,24.1,18.9,24.1,18.8,24.1c0.2,0,0.2,0,0.2,0C18.9,24.1,18.9,24.1,18.8,24.1z M20.3,24.7
				C20.3,24.8,20.2,24.7,20.3,24.7C20.2,24.7,20.2,24.7,20.3,24.7L20.3,24.7C20.2,24.7,20.3,24.7,20.3,24.7z"/>
			<path class="st1" d="M20.1,24.5C20.1,24.4,20.1,24.4,20.1,24.5C20.1,24.4,20.1,24.4,20.1,24.5L20.1,24.5L20.1,24.5z"/>
			<path class="st1" d="M28.6,23.9L28.6,23.9C28.6,23.9,28.6,23.9,28.6,23.9C28.6,23.8,28.6,23.9,28.6,23.9z"/>
			<polygon class="st1" points="17.6,28.4 17.6,28.4 17.6,28.4 			"/>
			<path class="st1" d="M28,22.2C28,22.2,28,22.1,28,22.2C28,22.1,28,22.1,28,22.2z"/>
			<path class="st1" d="M27.5,21.6l0-0.1C27.5,21.6,27.5,21.6,27.5,21.6z"/>
			<path class="st1" d="M27.2,21.2C27.1,21.2,27.1,21.2,27.2,21.2L27.2,21.2L27.2,21.2z"/>
			<path class="st1" d="M30.9,28.6C30.9,28.6,30.9,28.6,30.9,28.6C30.9,28.7,30.9,28.7,30.9,28.6z"/>
			<path class="st1" d="M31.4,25.8c0.1,0,0.1,0,0.2,0C31.6,25.7,31.5,25.7,31.4,25.8z"/>
			<polygon class="st1" points="29,30.9 29,30.9 29,30.9 			"/>
			<path class="st1" d="M31.7,25.9c0-0.1,0-0.1-0.1-0.1C31.6,25.9,31.6,25.9,31.7,25.9z"/>
			<path class="st1" d="M25.5,19.4L25.5,19.4C25.5,19.4,25.5,19.4,25.5,19.4L25.5,19.4z"/>
			<path class="st1" d="M25.5,19.4C25.5,19.4,25.4,19.4,25.5,19.4C25.4,19.4,25.5,19.4,25.5,19.4z"/>
			<path class="st1" d="M25.3,19.3c0,0,0.1,0,0.1,0C25.4,19.4,25.4,19.3,25.3,19.3z"/>
			<path class="st1" d="M26,20L26,20C26,19.9,26,20,26,20z"/>
			<path class="st1" d="M26.1,20.1c0,0,0-0.2-0.1-0.2l0,0C26.1,19.9,26,20.2,26.1,20.1z"/>
			<path class="st1" d="M26.1,21.4L26,21.3c0,0.1-0.1,0.2-0.2,0.1C25.9,21.8,26,21.3,26.1,21.4z"/>
			<path class="st1" d="M26.5,21.9c-0.1,0-0.1,0.1-0.1,0.1C26.4,22,26.5,22,26.5,21.9z"/>
			<path class="st1" d="M29.4,24.9L29.3,25C29.4,25.1,29.3,25,29.4,24.9z"/>
			<polygon class="st1" points="30.7,24.8 30.7,24.6 30.6,24.7 			"/>
			<polygon class="st1" points="30.1,26.1 30,26.1 30.2,26.1 			"/>
			<path class="st1" d="M27.1,30.1l0.2,0.2C27.3,30.2,27.1,30,27.1,30.1z"/>
			<path class="st1" d="M25.1,32.5c-0.1-0.1-0.2-0.1-0.2,0.1C25,32.5,25.1,32.5,25.1,32.5z"/>
			<polygon class="st1" points="19.5,27.6 19.6,27.6 19.5,27.6 			"/>
		</g>
		<g>
			<path class="st1" d="M31,12.6c0.1,0,0.2,0,0.2-0.1l-0.2-0.1L31,12.6z"/>
			<path class="st1" d="M31.5,12.2c-0.1-0.1-0.2-0.3-0.4-0.4c0.1,0.2,0,0.2,0.3,0.4c0,0.1-0.1,0.1-0.2,0.1c0.1,0-0.1,0.1,0.1,0.2
				c0.2-0.1,0.2-0.1,0.1-0.3C31.4,12.1,31.5,12.2,31.5,12.2z"/>
			<path class="st1" d="M35.8,8.4L35.8,8.4C35.8,8.4,35.8,8.4,35.8,8.4z"/>
			<path class="st1" d="M38.2,6.2C38.2,6.2,38.2,6.2,38.2,6.2C38.2,6.2,38.2,6.2,38.2,6.2z"/>
			<path class="st1" d="M38.5,6.5L38.5,6.5C38.5,6.5,38.5,6.5,38.5,6.5z"/>
			<path class="st1" d="M35.8,8.4l0.1,0C35.9,8.3,35.8,8.4,35.8,8.4z"/>
			<path class="st1" d="M31.6,11.2C31.6,11.2,31.6,11.2,31.6,11.2C31.6,11.2,31.6,11.2,31.6,11.2L31.6,11.2z"/>
			<path class="st1" d="M34.8,9.7L34.8,9.7c0,0,0,0.1,0,0.1L34.8,9.7z"/>
			<path class="st1" d="M34,10.5c0,0-0.1-0.2-0.2-0.2c0.1,0.1,0.1,0.1,0.1,0.1C33.9,10.5,34,10.5,34,10.5z"/>
			<path class="st1" d="M32.4,11.6L32.4,11.6C32.4,11.6,32.4,11.6,32.4,11.6z"/>
			<path class="st1" d="M35.5,9.1C35.5,9.1,35.5,9.1,35.5,9.1C35.5,9.1,35.5,9.1,35.5,9.1z"/>
			<path class="st1" d="M31.5,14.4C31.5,14.4,31.5,14.4,31.5,14.4C31.5,14.4,31.5,14.4,31.5,14.4z"/>
			<polygon class="st1" points="31.5,12.6 31.5,12.6 31.6,12.6 			"/>
			<path class="st1" d="M38.8,7L38.8,7C38.7,7,38.7,7,38.8,7z"/>
			<path class="st1" d="M44.1,13.1c0.2,0.1,0,0.3,0.3,0.3C44.3,13.3,44.3,13,44.1,13.1z"/>
			<path class="st1" d="M31.7,11.2C31.7,11.2,31.7,11.2,31.7,11.2C31.7,11.2,31.7,11.2,31.7,11.2z"/>
			<path class="st1" d="M44.4,13.4L44.4,13.4L44.4,13.4C44.4,13.4,44.4,13.4,44.4,13.4z"/>
			<path class="st1" d="M40.6,8.7C40.7,8.7,40.7,8.7,40.6,8.7C40.7,8.6,40.7,8.7,40.6,8.7z"/>
			<path class="st1" d="M39.5,7.2L39.5,7.2C39.5,7.2,39.5,7.2,39.5,7.2z"/>
			<path class="st1" d="M41.5,9.2C41.6,9.2,41.5,9.2,41.5,9.2C41.6,9.2,41.6,9.2,41.5,9.2C41.6,9.2,41.5,9.2,41.5,9.2z"/>
			<polygon class="st1" points="42.3,9.9 42.3,9.9 42.3,9.9 			"/>
			<path class="st1" d="M33.8,16.5c0-0.1,0.1-0.1,0.1-0.2C33.8,16.5,33.6,16.4,33.8,16.5z"/>
			<path class="st1" d="M31.7,11.3C31.7,11.2,31.7,11.2,31.7,11.3L31.7,11.3C31.7,11.2,31.7,11.3,31.7,11.3z"/>
			<path class="st1" d="M42.7,8l0.1,0.1C42.8,8.1,42.8,8.1,42.7,8z"/>
			<path class="st1" d="M40.4,19.1L40.4,19.1C40.5,19.2,40.5,19.2,40.4,19.1z"/>
			<path class="st1" d="M43.2,8.5c0,0.1,0,0.1,0,0.2c0,0,0,0,0.1,0L43.2,8.5z"/>
			<path class="st1" d="M33.9,16.3L33.9,16.3L33.9,16.3z"/>
			<path class="st1" d="M32.8,15.9c0.1,0.1,0.2-0.1,0.4-0.2c0.2,0.1-0.1,0.2-0.1,0.3c0.1,0,0.4-0.1,0.4,0c0,0,0,0.1-0.1,0.1
				c0.2-0.1,0.3,0.2,0.6,0.2c0,0,0,0,0,0.1c0.1-0.1,0.2-0.2,0.3-0.3c0.1,0,0.2,0,0.1,0.1c0,0-0.1,0-0.1,0l0.1,0
				c-0.1,0.2-0.1,0-0.3,0.1c0.2,0,0.4,0,0.5,0.1c-0.2,0.2-0.2-0.1-0.3,0.1l-0.1-0.2c-0.2,0.4-0.1-0.1-0.3,0.3
				c0.1,0.2,0.3,0.1,0.4,0.3c0.1-0.1,0.1-0.2,0.3-0.2c0.4,0-0.3,0.6,0.1,0.6c0.2-0.1,0.4-0.3,0.4-0.1l-0.2,0.2
				c0.1,0.2,0.4-0.2,0.4,0.1c-0.1,0.1-0.2-0.1-0.2,0c-0.1,0.3,0.2,0,0.3,0L35,17.8c0.2,0.1,0.5,0.2,0.7,0.3c-0.1,0-0.2,0.1-0.2,0.2
				c0.3,0.1,0.5,0.5,0.6,0.8l0.2-0.1c0,0,0,0.1-0.1,0.1c0,0.1,0.1-0.1,0.2-0.1c0.1,0,0,0.2-0.1,0.2c0.3,0,0.7,0.1,0.7,0.5l-0.1,0
				c0.1,0.1,0.2,0.1,0.3,0.1c0.1,0,0.2,0,0.2,0.1l-0.1,0c0.2,0.2,0.5,0.3,0.7,0.4c0.3,0,0.5,0,0.8,0.1c0-0.3,0.6-0.2,0.4-0.6
				c0.2,0,0.3,0,0.4,0c0.1,0,0.2,0,0.4-0.1c0.1,0-0.1-0.3-0.1-0.4l0.2,0.2l-0.1-0.3l0.2,0.1l0-0.1c0,0-0.1,0-0.2-0.1
				c0-0.2,0.4-0.1,0.5-0.1l0.1-0.4c0.1,0.1,0,0.1,0.1,0.2c0-0.3,0.2,0.1,0.2-0.1c-0.1,0-0.1-0.1-0.1-0.1c0.2,0,0.3-0.1,0.4-0.2
				l0.1,0.1c0.2-0.2,0.3-0.4,0.5-0.6c-0.1,0-0.3-0.2-0.3-0.3l0.2,0.1c-0.1-0.1-0.1,0-0.2-0.2c0.1-0.1,0.2,0.1,0.3,0.2l0-0.2
				c0.1,0,0.1,0.1,0.1,0.2c-0.1-0.1,0.3,0,0.2-0.2l0.1,0c0.2-0.2,0.2-0.4,0.4-0.5c-0.1-0.2,0-0.2-0.1-0.4c0.2-0.1,0.4-0.1,0.6-0.3
				c0-0.2-0.1-0.2-0.1-0.3c0.1,0.1,0.3,0,0.3,0.1c0.2-0.2,0.2-0.3,0.3-0.6c-0.1,0-0.1,0-0.2-0.1c0-0.1,0.1,0,0.2,0l0,0
				c0-0.5,1-0.2,0.9-0.7l0,0l0.1-0.4c0.1-0.1,0,0.2,0.2,0.2c0-0.4,0.4-0.3,0.4-0.7c0.3,0.1,0.4,0,0.7-0.3c0.2-0.2,0.3-0.5,0.5-0.6
				l-0.1,0c-0.1-0.1,0.1-0.1,0.2-0.2c-0.1,0-0.2,0.1-0.2,0c0.1-0.5,0.1-1-0.2-1.5c-0.1-0.2-0.3-0.5-0.4-0.7
				c-0.1-0.1-0.2-0.3-0.2-0.4c-0.1-0.2-0.6,0.4-0.6,0l0.2-0.1c-0.5-0.1-0.6-0.7-1.1-0.8c0.1,0,0.1-0.1,0.1,0
				c0.1-0.2-0.2-0.2-0.3-0.1c0-0.1,0.1-0.1,0.1-0.2c0-0.1-0.3,0-0.2-0.2c0,0,0.1,0,0.1,0c-0.1,0-0.2-0.2-0.3,0
				c0-0.2-0.3-0.2-0.3-0.3c-0.2,0.1-0.1-0.3-0.4-0.1c0.2-0.2,0-0.4-0.2-0.4c0.1,0,0-0.1,0.1-0.2c-0.1-0.1-0.2-0.1-0.3,0
				c0.1-0.4-0.5-0.1-0.3-0.5c-0.4-0.1-0.7-0.3-1-0.4c0.2-0.2,0.3,0.2,0.5,0c-0.3-0.1-0.6,0-0.8-0.3c0-0.1,0.1-0.1,0.2-0.1
				c-0.3-0.1-0.4-0.4-0.7-0.5c0,0,0.1,0,0.1,0c0,0-0.1-0.1-0.2,0l0.1,0c-0.1,0.2-0.5,0.2-0.6,0.3c0.4-0.2-0.1-0.3,0.4-0.6
				c0,0-0.1,0-0.2,0.1c0-0.1,0-0.1,0.1-0.2c-0.2-0.1-0.3,0.1-0.4,0c0.1-0.1,0.1,0,0.2-0.1c-0.2,0.1-0.3,0.1-0.4-0.1l0,0
				c0,0,0,0,0-0.1c0,0,0,0,0.1,0l0,0c-0.3-0.2-0.6,0-0.9-0.2c0.2-0.3-0.1-0.1-0.1-0.4c0,0-0.2,0.1-0.2,0.1L38.4,5
				c-0.2,0-0.3,0.2-0.5,0.2l0.1-0.2c0,0-0.3,0.2-0.3,0.2l0.2,0c-0.1,0.2,0.1,0.3-0.1,0.4c0-0.1-0.1,0.1-0.3,0v0c0,0.1,0,0.3-0.1,0.3
				c-0.1,0-0.2-0.3-0.2-0.3c0.1,0.3-0.2,0.3-0.1,0.5C37.2,6.1,37.1,6,37,6l0.1,0.2c-0.1,0-0.1,0-0.2-0.1c-0.2,0.1,0.3,0.2,0,0.3
				c0,0,0,0,0-0.1c-0.2,0.1-0.2,0.4-0.4,0.5c-0.2-0.2,0.1-0.2-0.1-0.3C36.2,6.6,36.2,7,36,7.2l0.1,0c0.3,0.3-0.3,0-0.2,0.2
				c0,0-0.1-0.2-0.1-0.1c-0.2,0.1-0.2,0.3-0.3,0.6l0-0.1c-0.1,0-0.2,0.2-0.4,0.2c0,0.1,0,0.1,0.1,0.2c-0.7-0.2-0.3,0.7-0.9,0.6
				c0,0,0-0.1,0-0.1L34.1,9c0.1,0.1,0.1,0,0.2,0.1c0,0.1,0,0.2,0,0.3c0-0.2-0.2-0.2-0.3-0.2c0,0,0.1,0.1,0.1,0.1
				c-0.3-0.1,0.2,0.3-0.1,0.3L34,9.4c0,0.1,0,0.2-0.1,0.3c-0.2-0.1,0-0.1-0.1-0.2c-0.1,0.1,0.1,0.4-0.1,0.4c0-0.1,0-0.1,0-0.2
				c-0.2-0.1-0.2,0-0.3,0l0,0l-0.2,0.1l0.1,0c0.3,0.5-0.1,0.3,0,0.6c-0.1-0.4-0.1-0.2-0.3-0.3c-0.1,0-0.2,0-0.2-0.1
				c0.1,0.2-0.2,0-0.1,0.3c-0.1,0-0.1,0.1-0.2-0.1c0,0.1,0.1,0.1,0.2,0.1c0,0.3-0.5,0.1-0.5,0.5c-0.1,0.3,0.1,0.5,0,0.7
				c-0.1,0-0.1-0.2-0.1-0.2c-0.2,0-0.2,0.1-0.2,0.2c0-0.1-0.1-0.1-0.2-0.1c0,0.1,0.1,0.2,0,0.2c0-0.1-0.1-0.2-0.1-0.3
				c0,0.1,0,0.3,0,0.4c-0.1-0.1-0.1-0.2-0.1-0.3c0,0.1-0.1,0.3,0,0.5c0,0,0.1,0,0.1,0c0,0-0.1-0.1-0.1-0.2c0-0.2,0.2-0.1,0.2,0
				l0,0.1c0.4,0.2,0.2-0.3,0.3-0.3l0.2,0.3L32,11.4c0.1,0,0.2,0.1,0.2,0.2c0.2,0,0-0.1,0.2-0.1c0,0,0,0,0,0l0-0.1
				c0,0.1,0.2,0.1,0.1,0.2c0.3,0,0-0.4,0.3-0.3l0,0c0.1-0.3-0.1-0.2-0.2-0.5l0.5,0.3L32.9,11c0,0,0.1,0,0.1,0c0-0.2-0.1-0.1-0.1-0.2
				c0.2,0.1,0.2-0.3,0.5-0.1c-0.1-0.2-0.2,0-0.2-0.2c0.3,0.2,0.1-0.2,0.3-0.1c0.1,0.2,0,0.2,0.2,0.2c-0.2-0.3,0.2-0.1,0.2-0.2
				C33.7,10.2,34,10.2,34,10c0.1,0.1,0.3-0.1,0.5-0.2l0,0c-0.2-0.2,0-0.3,0-0.4c0.1,0.1,0.1,0.2,0.2,0.3l0.1-0.1
				c0-0.1-0.1-0.1,0-0.2l0.1,0.2c0.1-0.1,0-0.4,0.3-0.4c-0.1-0.1-0.5-0.3-0.4-0.5C34.8,8.8,35,8.9,34.9,9c0,0,0-0.1,0-0.1L35.1,9
				c0.1,0-0.1-0.1,0-0.2c0.1,0.1,0.1,0,0.2,0.1c0,0-0.1,0-0.1,0.1c0.1,0,0.2,0,0.3,0c-0.1-0.1-0.1-0.1-0.1-0.2
				C35.4,8.8,35.5,9,35.6,9c0-0.1,0.1-0.1-0.1-0.2c0,0,0.1,0,0.2,0.1c0-0.1,0.2-0.3,0-0.4l0,0c0,0,0,0,0,0l0,0l0,0
				c0-0.3,0.5-0.3,0.6-0.5l0.1,0.1c0-0.2,0.2-0.3,0.2-0.5c0,0,0.2,0,0.2,0.1c0-0.1,0-0.2,0.2-0.2c0,0.2,0.1,0.1,0,0.1
				c0.1-0.1,0.3,0,0.2-0.3c0.1,0.2,0.2,0.1,0.3,0l-0.2,0c0-0.1,0.1-0.1,0.2-0.1l0.2,0.2c0.4,0,0-0.7,0.5-0.5c-0.1-0.2-0.2,0-0.3-0.2
				c0.1-0.1,0.5,0.1,0.5,0.1c0.1,0.1-0.2-0.3,0-0.3C38.1,6.3,38,6,38,5.9c0.1,0,0.2,0.3,0.2,0.4c0,0,0,0,0,0c0,0,0,0.1,0,0.2l0-0.1
				c0.1,0.1,0.1,0,0.1,0.2c0-0.1,0-0.2-0.1-0.2c0.1,0.1,0.1,0,0.2,0.1c0-0.1,0-0.2,0-0.2c0.1,0.2,0.1-0.2,0.2-0.2
				c0,0.2-0.1,0.3,0,0.3c0,0.1-0.1,0.2-0.1,0.3c0.1-0.1,0.1,0,0,0.1c0,0,0,0.1,0,0.1l-0.1,0c0,0,0,0,0,0l0.1-0.1c0,0,0,0-0.1,0.1
				c0.1-0.1,0.2-0.2,0.4-0.3c0,0.1,0.2,0.1,0.1,0.3c-0.1-0.2-0.2,0.2-0.3,0.1c0,0,0.1,0,0.1,0.1c0,0,0,0-0.1,0c0,0.3,0.3-0.1,0.4,0
				C39,7.1,39,7.2,39.1,7.3c-0.1-0.1,0.1-0.2,0.3-0.2c0,0.2,0.2,0.1,0.2,0.1l0-0.1c0.1-0.1,0.1,0,0.2,0c-0.1,0.1-0.1,0-0.1,0
				c0.2-0.1,0,0.3,0.2,0.3c0,0.1-0.2,0.2-0.2,0.3c0.2,0,0,0.3,0.2,0.3c0.1-0.2,0.1-0.1,0.3-0.2l-0.3-0.1l0.3-0.1
				c-0.1-0.1-0.2,0-0.2-0.1c0.2,0,0.1,0,0.2-0.2c-0.1,0.3,0.3,0.1,0.2,0.3L40.1,8c0,0.3,0.4,0.1,0.5,0.4l0-0.1
				c0.1-0.1,0.1,0.1,0.2,0.1c-0.1,0.1-0.1,0.2-0.1,0.3c0.1-0.1,0.1,0.1,0.4,0L41,8.8c0.1,0.2,0.5-0.1,0.6,0.1
				c-0.2,0.1-0.2,0.2-0.3,0.2c0,0,0.1,0.1,0.1,0c0,0.1,0.3,0,0.2,0.1c0.1,0,0.2-0.1,0.2-0.1c0,0-0.1,0.1-0.1,0.1
				c0.1-0.1,0.2,0,0.2-0.1c-0.2,0.5,0.4,0.4,0.3,0.8c0.1,0.1,0.3,0.2,0.4,0.3c0,0-0.1,0.1-0.1,0c0,0.2,0.4-0.2,0.4,0
				c-0.1,0.2-0.2,0-0.2,0.1c-0.3,0.4,0.2,0.1,0.1,0.4l0,0c0,0.2,0.3,0.1,0.4,0.2c0,0,0,0-0.1,0.1c0.3-0.1,0.5,0,0.7,0.1
				c-0.2,0.1-0.1,0-0.2,0.2c0.1,0,0.2-0.2,0.4-0.2c0,0.1,0,0.3-0.2,0.4l-0.1-0.1c-0.1,0.2,0.1,0.1,0.2,0.2l-0.1,0.1
				c0.2,0.1,0.4-0.1,0.6,0.1l0-0.1c0.3-0.1,0,0.2,0.2,0.1l-0.2,0.2c0.1,0,0.4-0.1,0.5,0c-0.3,0-0.4,0-0.6,0.1c0,0,0.1,0.1,0.3,0
				c0,0-0.1,0-0.1,0c0.2-0.1,0.4-0.1,0.5,0.1c-0.3,0.1-0.3,0.1-0.3,0.2c0,0.1,0,0.2-0.3,0.1c0.1,0.1,0,0.2-0.1,0.2
				c0,0-0.1,0-0.2,0.1c0.4,0.2-0.1,0.1,0.3,0.4c0,0.1-0.1,0.1-0.1,0.1l-0.4,0c-0.1-0.1,0-0.1-0.1-0.2c-0.2,0.1-0.2-0.1-0.4-0.1
				c0.1,0.1,0.1,0.2,0,0.2l0.3,0c0,0.4-0.4-0.1-0.4,0.2l0-0.2c0,0.2-0.3,0.3-0.2,0.7C43.1,14.1,43,14,43,14
				c-0.3,0.2-0.2,0.8-0.5,0.8l-0.1-0.1c0,0.1,0.1,0.2-0.1,0.2c0,0-0.1-0.1-0.1-0.1c0,0,0,0.2-0.1,0.3l0-0.1
				c-0.3,0.1-0.1,0.5-0.2,0.8c-0.2-0.2-0.5-0.1-0.6-0.1l0,0c-0.3,0.2-0.2,0.6-0.4,0.9c-0.4-0.1-0.6,0.4-1,0.5c0.1,0,0.2,0.2,0.2,0.3
				c-0.1,0,0,0.3-0.2,0.1l0,0c-0.3-0.2-0.3,0-0.4,0.1l0.3,0.3c-0.6-0.2-0.4,0.7-0.9,0.5c0,0.1-0.1,0.2,0,0.3l-0.1-0.2
				c-0.1,0.1-0.1,0.1-0.1,0.1c0,0,0,0,0,0.1l-0.1-0.2c0,0,0.2,0.6,0.1,0.7l-0.1-0.3c-0.1,0-0.1-0.3-0.2,0c0,0,0.1-0.1,0.1-0.1
				c0,0,0-0.1,0-0.1c0,0-0.1,0.1-0.2,0.2c0.1-0.1,0.1-0.1,0-0.1c-0.1,0-0.2,0-0.3,0l0.2-0.1c-0.3,0.1-0.3,0.2-0.5,0.1
				c0,0,0.1-0.1,0.1-0.1c0-0.2-0.2,0.1-0.2-0.1l0.1-0.1c-0.1-0.1-0.1,0-0.3,0c-0.1,0-0.1-0.2,0-0.4c-0.1,0.1-0.3,0.1-0.3,0
				c0-0.1,0.1-0.1,0.1-0.1c-0.1-0.3-0.4-0.1-0.4-0.3c0-0.1,0.1-0.1,0.1-0.1c0.1,0.1,0.2,0.2,0.2,0.2c0.1-0.1,0.1-0.3,0.3-0.4
				c-0.2,0-0.5,0.1-0.6-0.1c0,0,0,0,0-0.1l0,0c0,0,0,0-0.1,0c0-0.1,0-0.1,0-0.1c0.1-0.1-0.1-0.2-0.1-0.2c-0.1,0.2-0.2,0.1-0.2,0.2
				c0,0,0,0,0.1,0c0,0,0,0,0,0l0,0c0,0,0.1,0.1,0.1,0.1c-0.1,0-0.2,0.1-0.2-0.1C36.2,17,36,17.1,36,17.1c0.1-0.3,0.1-0.5,0.2-0.7
				c-0.2-0.1-0.4-0.3-0.8-0.1c-0.1,0,0-0.1,0.1-0.2c0.1,0,0.1,0,0.1,0c-0.2,0-0.3-0.2-0.5-0.1c0-0.2,0.2-0.1,0.1-0.2l0.1,0
				c0-0.6-1,0-0.9-0.7c0,0,0,0.1,0,0.1c-0.2-0.6-1-0.6-1-1.3c-0.1-0.2-0.2-0.1-0.3,0l0.1-0.2l-0.3,0.1c-0.3,0,0.1-0.7-0.3-0.6
				l-0.1,0.1c-0.1-0.1-0.3-0.2-0.2-0.3c0,0-0.1,0.1-0.1,0l0.1-0.1c0,0-0.1,0-0.2,0c-0.1,0-0.1,0-0.1,0c0-0.1,0.4-0.3,0.4-0.3
				c0,0-0.4,0-0.4,0c0,0.1-0.1,0.1-0.2,0.1c0,0-0.1-0.1-0.1-0.1c-0.2,0-0.4,0-0.5,0c-0.1,0-0.2,0-0.2,0c-0.1,0.1-0.1,0.2-0.2,0.3
				c0,0,0.3,0.3,0.3,0.2l-0.1,0.2c0,0-0.1-0.3-0.1-0.3c-0.1,0.2,0.1,0.3,0.2,0.3c-0.1,0.1-0.1,0.1-0.1,0.2c0,0,0.5,0.1,0.4,0
				c-0.1,0.1-0.2,0.1-0.2,0.3c0.2-0.1,0.2-0.3,0.3-0.3c-0.1,0.2-0.2,0.2,0,0.2c-0.1,0.1-0.1,0.1-0.2,0.1c0.1,0,0.2,0.1,0.3,0
				c-0.1,0.2,0.2,0.2,0,0.4c0.1,0,0.3-0.1,0.3,0c-0.4,0.2,0.2,0.2-0.1,0.5c0.3-0.2,0.4,0.1,0.6,0.1c0,0-0.1,0-0.1,0
				c0.1,0.1,0,0.2,0,0.3c0.2-0.2,0.4-0.1,0.6-0.2c-0.1,0.3-0.3,0.2-0.5,0.4c0.2-0.2,0.3,0,0.4-0.2c-0.1,0.2,0,0.1-0.1,0.3
				c0.3-0.2,0.1,0,0.3-0.1c0,0.2-0.2,0.3,0,0.3C33,15.9,32.8,15.9,32.8,15.9z M35.8,18L35.8,18C35.8,18,35.7,18,35.8,18
				C35.7,18,35.7,18,35.8,18z M36,18.3C36,18.2,35.9,18.2,36,18.3c0-0.2,0-0.2,0-0.2C36,18.1,36,18.2,36,18.3z M36.6,16.8
				C36.6,16.8,36.6,16.8,36.6,16.8C36.6,16.8,36.5,16.8,36.6,16.8L36.6,16.8C36.5,16.8,36.6,16.8,36.6,16.8z"/>
			<path class="st1" d="M36.3,16.9C36.3,16.9,36.3,16.9,36.3,16.9C36.3,16.9,36.3,16.9,36.3,16.9L36.3,16.9L36.3,16.9z"/>
			<path class="st1" d="M35.7,8.4L35.7,8.4C35.7,8.4,35.7,8.4,35.7,8.4C35.7,8.4,35.7,8.4,35.7,8.4z"/>
			<polygon class="st1" points="40.3,19.5 40.2,19.4 40.3,19.5 			"/>
			<path class="st1" d="M34,9.1C34,9.1,34,9.1,34,9.1C34,9.1,34,9.1,34,9.1z"/>
			<path class="st1" d="M33.5,9.6l-0.1,0C33.4,9.6,33.5,9.6,33.5,9.6z"/>
			<path class="st1" d="M33,9.9C33,9.9,33.1,9.9,33,9.9L33,9.9L33,9.9z"/>
			<path class="st1" d="M40.5,6.1C40.5,6.1,40.5,6.1,40.5,6.1C40.6,6.2,40.5,6.1,40.5,6.1z"/>
			<path class="st1" d="M37.6,5.6c0-0.1,0-0.1,0-0.2C37.6,5.5,37.6,5.5,37.6,5.6z"/>
			<polygon class="st1" points="42.7,8 42.7,8 42.7,8 			"/>
			<path class="st1" d="M37.8,5.4c-0.1,0-0.1,0-0.1,0.1C37.7,5.4,37.8,5.4,37.8,5.4z"/>
			<path class="st1" d="M31.3,11.5L31.3,11.5C31.2,11.5,31.2,11.5,31.3,11.5L31.3,11.5z"/>
			<path class="st1" d="M31.3,11.6C31.3,11.6,31.2,11.6,31.3,11.6C31.2,11.6,31.3,11.6,31.3,11.6z"/>
			<path class="st1" d="M31.2,11.7c0,0,0-0.1,0-0.1C31.2,11.6,31.2,11.7,31.2,11.7z"/>
			<path class="st1" d="M31.8,11.1L31.8,11.1C31.8,11,31.8,11,31.8,11.1z"/>
			<path class="st1" d="M32,10.9c0,0-0.2,0-0.2,0.1l0,0C31.7,10.9,32,11,32,10.9z"/>
			<path class="st1" d="M33.3,10.9L33.1,11c0.1,0,0.2,0.1,0.1,0.2C33.6,11.2,33.1,11.1,33.3,10.9z"/>
			<path class="st1" d="M33.8,10.6c0,0.1,0.1,0.1,0.1,0.1C33.9,10.6,33.9,10.6,33.8,10.6z"/>
			<path class="st1" d="M36.8,7.6l0.1,0.1C36.9,7.7,36.9,7.7,36.8,7.6z"/>
			<polygon class="st1" points="36.6,6.3 36.5,6.3 36.6,6.5 			"/>
			<polygon class="st1" points="37.9,7 37.9,7 38,6.9 			"/>
			<path class="st1" d="M42,9.9l0.2-0.2C42.1,9.7,41.9,9.9,42,9.9z"/>
			<path class="st1" d="M44.3,11.9c-0.1,0.1-0.1,0.2,0.1,0.2C44.4,12,44.4,11.9,44.3,11.9z"/>
			<polygon class="st1" points="39.5,17.5 39.5,17.4 39.5,17.6 			"/>
		</g>
		<g>
			<path class="st1" d="M17,12.6c0.1,0,0.2,0,0.2-0.1l-0.2-0.1L17,12.6z"/>
			<path class="st1" d="M17.5,12.2c-0.1-0.1-0.2-0.3-0.4-0.4c0.1,0.2,0,0.2,0.3,0.4c0,0.1-0.1,0.1-0.2,0.1c0.1,0-0.1,0.1,0.1,0.2
				c0.2-0.1,0.2-0.1,0.1-0.3C17.4,12.1,17.5,12.2,17.5,12.2z"/>
			<path class="st1" d="M21.8,8.4L21.8,8.4C21.8,8.4,21.8,8.4,21.8,8.4z"/>
			<path class="st1" d="M24.2,6.2C24.2,6.2,24.2,6.2,24.2,6.2C24.2,6.2,24.2,6.2,24.2,6.2z"/>
			<path class="st1" d="M24.5,6.5L24.5,6.5C24.5,6.5,24.5,6.5,24.5,6.5z"/>
			<path class="st1" d="M21.8,8.4l0.1,0C21.9,8.3,21.8,8.4,21.8,8.4z"/>
			<path class="st1" d="M17.6,11.2C17.6,11.2,17.6,11.2,17.6,11.2C17.6,11.2,17.6,11.2,17.6,11.2L17.6,11.2z"/>
			<path class="st1" d="M20.8,9.7L20.8,9.7c0,0,0,0.1,0,0.1L20.8,9.7z"/>
			<path class="st1" d="M20,10.5c0,0-0.1-0.2-0.2-0.2c0.1,0.1,0.1,0.1,0.1,0.1C19.9,10.5,20,10.5,20,10.5z"/>
			<path class="st1" d="M18.4,11.6L18.4,11.6C18.4,11.6,18.4,11.6,18.4,11.6z"/>
			<path class="st1" d="M21.5,9.1C21.5,9.1,21.5,9.1,21.5,9.1C21.5,9.1,21.5,9.1,21.5,9.1z"/>
			<path class="st1" d="M17.5,14.4C17.5,14.4,17.5,14.4,17.5,14.4C17.5,14.4,17.5,14.4,17.5,14.4z"/>
			<polygon class="st1" points="17.5,12.6 17.5,12.6 17.6,12.6 			"/>
			<path class="st1" d="M24.8,7L24.8,7C24.7,7,24.7,7,24.8,7z"/>
			<path class="st1" d="M30.1,13.1c0.2,0.1,0,0.3,0.3,0.3C30.3,13.3,30.3,13,30.1,13.1z"/>
			<path class="st1" d="M17.7,11.2C17.7,11.2,17.7,11.2,17.7,11.2C17.7,11.2,17.7,11.2,17.7,11.2z"/>
			<path class="st1" d="M30.4,13.4L30.4,13.4L30.4,13.4C30.4,13.4,30.4,13.4,30.4,13.4z"/>
			<path class="st1" d="M26.6,8.7C26.7,8.7,26.7,8.7,26.6,8.7C26.7,8.6,26.7,8.7,26.6,8.7z"/>
			<path class="st1" d="M25.5,7.2L25.5,7.2C25.5,7.2,25.5,7.2,25.5,7.2z"/>
			<path class="st1" d="M27.5,9.2C27.6,9.2,27.5,9.2,27.5,9.2C27.6,9.2,27.6,9.2,27.5,9.2C27.6,9.2,27.5,9.2,27.5,9.2z"/>
			<polygon class="st1" points="28.3,9.9 28.3,9.9 28.3,9.9 			"/>
			<path class="st1" d="M19.8,16.5c0-0.1,0.1-0.1,0.1-0.2C19.8,16.5,19.6,16.4,19.8,16.5z"/>
			<path class="st1" d="M17.7,11.3C17.7,11.2,17.7,11.2,17.7,11.3L17.7,11.3C17.7,11.2,17.7,11.3,17.7,11.3z"/>
			<path class="st1" d="M28.7,8l0.1,0.1C28.8,8.1,28.8,8.1,28.7,8z"/>
			<path class="st1" d="M26.4,19.1L26.4,19.1C26.5,19.2,26.5,19.2,26.4,19.1z"/>
			<path class="st1" d="M29.2,8.5c0,0.1,0,0.1,0,0.2c0,0,0,0,0.1,0L29.2,8.5z"/>
			<path class="st1" d="M19.9,16.3L19.9,16.3L19.9,16.3z"/>
			<path class="st1" d="M18.8,15.9c0.1,0.1,0.2-0.1,0.4-0.2c0.2,0.1-0.1,0.2-0.1,0.3c0.1,0,0.4-0.1,0.4,0c0,0,0,0.1-0.1,0.1
				c0.2-0.1,0.3,0.2,0.6,0.2c0,0,0,0,0,0.1c0.1-0.1,0.2-0.2,0.3-0.3c0.1,0,0.2,0,0.1,0.1c0,0-0.1,0-0.1,0l0.1,0
				c-0.1,0.2-0.1,0-0.3,0.1c0.2,0,0.4,0,0.5,0.1c-0.2,0.2-0.2-0.1-0.3,0.1l0-0.2c-0.2,0.4-0.1-0.1-0.3,0.3c0.1,0.2,0.3,0.1,0.4,0.3
				c0.1-0.1,0.1-0.2,0.3-0.2c0.4,0-0.3,0.6,0.1,0.6c0.2-0.1,0.4-0.3,0.4-0.1l-0.2,0.2c0.1,0.2,0.4-0.2,0.4,0.1
				c-0.1,0.1-0.2-0.1-0.2,0c-0.1,0.3,0.2,0,0.3,0L21,17.8c0.2,0.1,0.5,0.2,0.7,0.3c-0.1,0-0.2,0.1-0.2,0.2c0.3,0.1,0.5,0.5,0.6,0.8
				l0.2-0.1c0,0,0,0.1-0.1,0.1c0,0.1,0.1-0.1,0.2-0.1c0.1,0,0,0.2-0.1,0.2c0.3,0,0.7,0.1,0.7,0.5l-0.1,0c0.1,0.1,0.2,0.1,0.3,0.1
				c0.1,0,0.2,0,0.2,0.1l-0.1,0c0.2,0.2,0.5,0.3,0.7,0.4c0.3,0,0.5,0,0.8,0.1c0-0.3,0.6-0.2,0.4-0.6c0.2,0,0.3,0,0.4,0
				c0.1,0,0.2,0,0.4-0.1c0.1,0-0.1-0.3-0.1-0.4l0.2,0.2l-0.1-0.3l0.2,0.1l0-0.1c0,0-0.1,0-0.2-0.1c0-0.2,0.4-0.1,0.5-0.1l0.1-0.4
				c0.1,0.1,0,0.1,0.1,0.2c0-0.3,0.2,0.1,0.2-0.1c-0.1,0-0.1-0.1-0.1-0.1c0.2,0,0.3-0.1,0.4-0.2l0.1,0.1c0.2-0.2,0.3-0.4,0.5-0.6
				c-0.1,0-0.3-0.2-0.3-0.3l0.2,0.1c-0.1-0.1-0.1,0-0.2-0.2c0.1-0.1,0.2,0.1,0.3,0.2l0-0.2c0.1,0,0.1,0.1,0.1,0.2
				c-0.1-0.1,0.3,0,0.2-0.2l0.1,0c0.2-0.2,0.2-0.4,0.4-0.5c-0.1-0.2,0-0.2-0.1-0.4c0.2-0.1,0.4-0.1,0.6-0.3c0-0.2-0.1-0.2-0.1-0.3
				c0.1,0.1,0.3,0,0.3,0.1c0.2-0.2,0.2-0.3,0.3-0.6c-0.1,0-0.1,0-0.2-0.1c0-0.1,0.1,0,0.2,0l0,0c0-0.5,1-0.2,0.9-0.7l0,0l0.1-0.4
				c0.1-0.1,0,0.2,0.2,0.2c0-0.4,0.4-0.3,0.4-0.7c0.1,0.1,0.2,0.1,0.3,0c0,0,0.1,0,0.1-0.1c0.1-0.1,0.1-0.1,0.2-0.2
				c0.2-0.3,0.4-0.5,0.6-0.7l-0.1,0c-0.1-0.1,0.1-0.1,0.2-0.2c-0.1,0-0.2,0.1-0.2,0c0.1-0.5,0.1-1-0.2-1.5c-0.1-0.2-0.3-0.5-0.4-0.7
				c-0.1-0.1-0.2-0.3-0.2-0.4c-0.1-0.2-0.6,0.4-0.6,0l0.2-0.1c-0.5-0.1-0.6-0.7-1.1-0.8c0.1,0,0.1-0.1,0.1,0
				c0.1-0.2-0.2-0.2-0.3-0.1c0-0.1,0.1-0.1,0.1-0.2c0-0.1-0.3,0-0.2-0.2c0,0,0.1,0,0.1,0c-0.1,0-0.2-0.2-0.3,0
				c0-0.2-0.3-0.2-0.3-0.3c-0.2,0.1-0.1-0.3-0.4-0.1c0.2-0.2,0-0.4-0.2-0.4c0.1,0,0-0.1,0.1-0.2c-0.1-0.1-0.2-0.1-0.3,0
				c0.1-0.4-0.5-0.1-0.3-0.5c-0.4-0.1-0.7-0.3-1-0.4c0.2-0.2,0.3,0.2,0.5,0c-0.3-0.1-0.6,0-0.8-0.3c0-0.1,0.1-0.1,0.2-0.1
				c-0.3-0.1-0.4-0.4-0.7-0.5c0,0,0.1,0,0.1,0c0,0-0.1-0.1-0.2,0l0.1,0c-0.1,0.2-0.5,0.2-0.6,0.3c0.4-0.2-0.1-0.3,0.4-0.6
				c0,0-0.1,0-0.2,0.1c0-0.1,0-0.1,0.1-0.2c-0.2-0.1-0.3,0.1-0.4,0c0.1-0.1,0.1,0,0.2-0.1c-0.2,0.1-0.3,0.1-0.5-0.1c0,0,0,0,0-0.1
				c0,0,0,0,0.1,0l0,0c-0.3-0.2-0.6,0-0.9-0.2c0.2-0.3-0.1-0.1-0.1-0.4c0,0-0.2,0.1-0.2,0.1L24.4,5c-0.2,0-0.3,0.2-0.5,0.2l0.1-0.2
				c0,0-0.3,0.2-0.3,0.2l0.2,0c-0.1,0.2,0.1,0.3-0.1,0.4c0-0.1-0.1,0.1-0.3,0v0c0,0.1,0,0.3-0.1,0.3c-0.1,0-0.2-0.3-0.2-0.3
				c0.1,0.3-0.2,0.3-0.1,0.5C23.2,6.1,23.1,6,23,6l0.1,0.2c-0.1,0-0.1,0-0.2-0.1c-0.2,0.1,0.3,0.2,0,0.3c0,0,0,0,0-0.1
				c-0.2,0.1-0.2,0.4-0.4,0.5c-0.2-0.2,0.1-0.2-0.1-0.3C22.2,6.6,22.2,7,22,7.2l0.1,0c0.3,0.3-0.3,0-0.2,0.2c0,0-0.1-0.2-0.1-0.1
				c-0.2,0.1-0.2,0.3-0.3,0.6l0-0.1c-0.1,0-0.2,0.2-0.4,0.2c0,0.1,0,0.1,0.1,0.2c-0.7-0.2-0.3,0.7-0.9,0.6c0,0,0-0.1,0-0.1L20.1,9
				c0.1,0.1,0.1,0,0.2,0.1c0,0.1,0,0.2,0,0.3c0-0.2-0.2-0.2-0.3-0.2c0,0,0.1,0.1,0.1,0.1c-0.3-0.1,0.2,0.3-0.1,0.3L20,9.4
				c0,0.1,0,0.2-0.1,0.3c-0.2-0.1,0-0.1-0.1-0.2c-0.1,0.1,0.1,0.4-0.1,0.4c0-0.1,0-0.1,0-0.2c-0.2-0.1-0.2,0-0.3,0l0,0l-0.2,0.1
				l0.1,0c0.3,0.5-0.1,0.3,0,0.6c-0.1-0.4-0.1-0.2-0.3-0.3c-0.1,0-0.2,0-0.2-0.1c0.1,0.2-0.2,0-0.1,0.3c-0.1,0-0.1,0.1-0.2-0.1
				c0,0.1,0.1,0.1,0.2,0.1c0,0.3-0.5,0.1-0.5,0.5c-0.1,0.3,0.1,0.5,0,0.7c-0.1,0-0.1-0.2-0.1-0.2c-0.2,0-0.2,0.1-0.2,0.2
				c0-0.1-0.1-0.1-0.2-0.1c0,0.1,0.1,0.2,0,0.2c0-0.1-0.1-0.2-0.1-0.3c0,0.1,0,0.3,0,0.4c-0.1-0.1-0.1-0.2-0.1-0.3
				c0,0.1-0.1,0.3,0,0.5c0,0,0.1,0,0.1,0c0,0-0.1-0.1-0.1-0.2c0-0.2,0.2-0.1,0.2,0l0,0.1c0.4,0.2,0.2-0.3,0.3-0.3l0.2,0.3L18,11.4
				c0.1,0,0.2,0.1,0.2,0.2c0.2,0,0-0.1,0.2-0.1c0,0,0,0,0,0l0-0.1c0,0.1,0.2,0.1,0.1,0.2c0.3,0,0-0.4,0.3-0.3l0,0
				c0.1-0.3-0.1-0.2-0.2-0.5l0.5,0.3L18.9,11c0,0,0.1,0,0.1,0c0-0.2-0.1-0.1-0.1-0.2c0.2,0.1,0.2-0.3,0.5-0.1
				c-0.1-0.2-0.2,0-0.2-0.2c0.3,0.2,0.1-0.2,0.3-0.1c0.1,0.2,0,0.2,0.2,0.2c-0.2-0.3,0.2-0.1,0.2-0.2C19.7,10.2,20,10.2,20,10
				c0.1,0.1,0.3-0.1,0.5-0.2l0,0c-0.2-0.2,0-0.3,0-0.4c0.1,0.1,0.1,0.2,0.2,0.3l0.1-0.1c0-0.1-0.1-0.1,0-0.2l0.1,0.2
				c0.1-0.1,0-0.4,0.3-0.4c-0.1-0.1-0.5-0.3-0.4-0.5C20.8,8.8,21,8.9,20.9,9c0,0,0-0.1,0-0.1L21.1,9c0.1,0-0.1-0.1,0-0.2
				c0.1,0.1,0.1,0,0.2,0.1c0,0-0.1,0-0.1,0.1c0.1,0,0.2,0,0.3,0c-0.1-0.1-0.1-0.1-0.1-0.2C21.4,8.8,21.5,9,21.6,9
				c0-0.1,0.1-0.1-0.1-0.2c0,0,0.1,0,0.2,0.1c0-0.1,0.2-0.3,0-0.4l0,0c0,0,0,0,0,0l0,0l0,0c0-0.3,0.5-0.3,0.6-0.5l0.1,0.1
				c0-0.2,0.2-0.3,0.2-0.5c0,0,0.2,0,0.2,0.1c0-0.1,0-0.2,0.2-0.2c0,0.2,0.1,0.1,0,0.1c0.1-0.1,0.3,0,0.2-0.3c0.1,0.2,0.2,0.1,0.3,0
				l-0.2,0c0-0.1,0.1-0.1,0.2-0.1l0.2,0.2c0.4,0,0-0.7,0.5-0.5c-0.1-0.2-0.2,0-0.3-0.2c0.1-0.1,0.5,0.1,0.5,0.1
				c0.1,0.1-0.2-0.3,0-0.3C24.1,6.3,24,6,24,5.9c0.1,0,0.2,0.3,0.2,0.4c0,0,0,0,0,0c0,0,0,0.1,0,0.2l0-0.1c0.1,0.1,0.1,0,0.1,0.2
				c0-0.1,0-0.2-0.1-0.2c0.1,0.1,0.1,0,0.2,0.1c0-0.1,0-0.2,0-0.2c0.1,0.2,0.1-0.2,0.2-0.2c0,0.2-0.1,0.3,0,0.3
				c0,0.1-0.1,0.2-0.1,0.3c0.1-0.1,0.1,0,0,0.1c0,0,0,0.1,0,0.1l-0.1,0c0,0,0,0,0,0l0.1-0.1c0,0,0,0-0.1,0.1
				c0.1-0.1,0.2-0.2,0.4-0.3c0,0.1,0.2,0.1,0.1,0.3c-0.1-0.2-0.2,0.2-0.3,0.1c0,0,0.1,0,0.1,0.1c0,0,0,0-0.1,0c0,0.3,0.3-0.1,0.4,0
				C25,7.1,25,7.2,25.1,7.3c-0.1-0.1,0.1-0.2,0.3-0.2c0,0.2,0.2,0.1,0.2,0.1l0-0.1c0.1-0.1,0.1,0,0.2,0c-0.1,0.1-0.1,0-0.1,0
				c0.2-0.1,0,0.3,0.2,0.3c0,0.1-0.2,0.2-0.2,0.3c0.2,0,0,0.3,0.2,0.3c0.1-0.2,0.1-0.1,0.3-0.2l-0.3-0.1l0.3-0.1
				c-0.1-0.1-0.2,0-0.2-0.1c0.2,0,0.1,0,0.2-0.2c-0.1,0.3,0.3,0.1,0.2,0.3L26.1,8c0,0.3,0.4,0.1,0.5,0.4l0-0.1
				c0.1-0.1,0.1,0.1,0.2,0.1c-0.1,0.1-0.1,0.2-0.1,0.3c0.1-0.1,0.1,0.1,0.4,0L27,8.8c0.1,0.2,0.5-0.1,0.6,0.1
				c-0.2,0.1-0.2,0.2-0.3,0.2c0,0,0.1,0.1,0.1,0c0,0.1,0.3,0,0.2,0.1c0.1,0,0.2-0.1,0.2-0.1c0,0-0.1,0.1-0.1,0.1
				c0.1-0.1,0.2,0,0.2-0.1c-0.2,0.5,0.4,0.4,0.3,0.8c0.1,0.1,0.3,0.2,0.4,0.3c0,0-0.1,0.1-0.1,0c0,0.2,0.4-0.2,0.4,0
				c-0.1,0.2-0.2,0-0.2,0.1c-0.3,0.4,0.2,0.1,0.1,0.4l0,0c0,0.2,0.3,0.1,0.4,0.2c0,0,0,0-0.1,0.1c0.3-0.1,0.5,0,0.7,0.1
				c-0.2,0.1-0.1,0-0.2,0.2c0.1,0,0.2-0.2,0.4-0.2c0,0.1,0,0.3-0.2,0.4l-0.1-0.1c-0.1,0.2,0.1,0.1,0.2,0.2l-0.1,0.1
				c0.2,0.1,0.4-0.1,0.6,0.1l0-0.1c0.3-0.1,0,0.2,0.2,0.1l-0.2,0.2c0.1,0,0.4-0.1,0.5,0c-0.3,0-0.4,0-0.6,0.1c0,0,0.1,0.1,0.3,0
				c0,0-0.1,0-0.1,0c0.2-0.1,0.4-0.1,0.5,0.1c-0.3,0.1-0.3,0.1-0.3,0.2c0,0.1,0,0.2-0.3,0.1c0.1,0.1,0,0.1,0,0.1l-0.1,0c0,0,0,0,0,0
				c0,0-0.1,0.1-0.1,0.1c0.4,0.2-0.1,0.1,0.3,0.4c0,0.1-0.1,0.1-0.1,0.1l-0.4,0c-0.1-0.1,0-0.1-0.1-0.2c-0.2,0.1-0.2-0.1-0.4-0.1
				c0.1,0.1,0.1,0.2,0,0.2l0.3,0c0,0.4-0.4-0.1-0.4,0.2l0-0.2c0,0.2-0.3,0.3-0.2,0.7C29.1,14.1,29,14,29,14
				c-0.3,0.2-0.2,0.8-0.5,0.8l-0.1-0.1c0,0.1,0.1,0.2-0.1,0.2c0,0-0.1-0.1-0.1-0.1c0,0,0,0.2-0.1,0.3l0-0.1
				c-0.3,0.1-0.1,0.5-0.2,0.8c-0.2-0.2-0.5-0.1-0.6-0.1l0,0c-0.3,0.2-0.2,0.6-0.4,0.9c-0.4-0.1-0.6,0.4-1,0.5c0.1,0,0.2,0.2,0.2,0.3
				c-0.1,0,0,0.3-0.2,0.1l0,0c-0.3-0.2-0.3,0-0.4,0.1l0.3,0.3c-0.6-0.2-0.4,0.7-0.9,0.5c0,0.1-0.1,0.2,0,0.3l-0.1-0.2
				c-0.1,0.1-0.1,0-0.1,0.1c0,0,0,0,0,0.1l-0.1-0.2c0,0,0.2,0.6,0.1,0.7l-0.1-0.3c-0.1,0-0.1-0.3-0.2,0c0,0,0.1-0.1,0.1-0.1
				c0,0,0-0.1,0-0.1c0,0-0.1,0.1-0.2,0.2c0.1-0.1,0.1-0.1,0-0.1c-0.1,0-0.2,0-0.3,0l0.2-0.1c-0.3,0.1-0.3,0.2-0.5,0.1
				c0,0,0.1-0.1,0.1-0.1c0-0.2-0.2,0.1-0.2-0.1l0.1-0.1c-0.1-0.1-0.1,0-0.3,0c-0.1,0-0.1-0.2,0-0.4c-0.1,0.1-0.3,0.1-0.3,0
				c0-0.1,0.1-0.1,0.1-0.1c-0.1-0.3-0.4-0.1-0.4-0.3c0-0.1,0.1-0.1,0.1-0.1c0.1,0.1,0.2,0.2,0.2,0.2c0.1-0.1,0.1-0.3,0.3-0.4
				c-0.2,0-0.5,0.1-0.6-0.1c0,0,0,0,0-0.1l0,0c0,0,0,0-0.1,0c0-0.1,0-0.1,0-0.1c0.1-0.1-0.1-0.2-0.1-0.2c-0.1,0.2-0.2,0.1-0.2,0.2
				c0,0,0,0,0.1,0c0,0,0,0,0,0l0,0c0,0,0.1,0.1,0.1,0.1c-0.1,0-0.2,0.1-0.2-0.1C22.2,17,22,17.1,22,17.1c0.1-0.3,0.1-0.5,0.2-0.7
				c-0.2-0.1-0.4-0.3-0.8-0.1c-0.1,0,0-0.1,0.1-0.2c0.1,0,0.1,0,0.1,0c-0.2,0-0.3-0.2-0.5-0.1c0-0.2,0.2-0.1,0.1-0.2l0.1,0
				c0-0.6-1,0-0.9-0.7c0,0,0,0.1,0,0.1c-0.2-0.6-1-0.6-1-1.3c-0.1-0.2-0.2-0.1-0.3,0l0.1-0.2l-0.3,0.1c-0.3,0,0.1-0.7-0.3-0.6
				l-0.1,0.1c-0.1-0.1-0.3-0.2-0.2-0.3c0,0-0.1,0.1-0.1,0l0.1-0.1c0,0-0.1,0-0.2,0c-0.1,0-0.1,0-0.1,0c0-0.1,0.4-0.3,0.4-0.3
				c0,0-0.4,0-0.4,0c0,0.1-0.1,0.1-0.2,0.1c0,0-0.1-0.1-0.1-0.1c-0.2,0-0.4,0-0.5,0c-0.1,0-0.2,0-0.2,0c-0.1,0.1-0.1,0.2-0.2,0.3
				c0,0,0.3,0.3,0.3,0.2l-0.1,0.2c0,0-0.1-0.3-0.1-0.3c-0.1,0.2,0.1,0.3,0.2,0.3c-0.1,0.1-0.1,0.1-0.1,0.2c0,0,0.5,0.1,0.4,0
				c-0.1,0.1-0.2,0.1-0.2,0.3c0.2-0.1,0.2-0.3,0.3-0.3c-0.1,0.2-0.2,0.2,0,0.2c-0.1,0.1-0.1,0.1-0.2,0.1c0.1,0,0.2,0.1,0.3,0
				c-0.1,0.2,0.2,0.2,0,0.4c0.1,0,0.3-0.1,0.3,0c-0.4,0.2,0.2,0.2-0.1,0.5c0.3-0.2,0.4,0.1,0.6,0.1c0,0-0.1,0-0.1,0
				c0.1,0.1,0,0.2,0,0.3c0.2-0.2,0.4-0.1,0.6-0.2c-0.1,0.3-0.3,0.2-0.5,0.4c0.2-0.2,0.3,0,0.4-0.2c-0.1,0.2,0,0.1-0.1,0.3
				c0.3-0.2,0.1,0,0.3-0.1c0,0.2-0.2,0.3,0,0.3C19,15.9,18.8,15.9,18.8,15.9z M21.8,18L21.8,18C21.8,18,21.7,18,21.8,18
				C21.7,18,21.7,18,21.8,18z M22,18.3C22,18.2,21.9,18.2,22,18.3c0-0.2,0-0.2,0-0.2C22,18.1,22,18.2,22,18.3z M22.6,16.8
				C22.6,16.8,22.6,16.8,22.6,16.8C22.6,16.8,22.5,16.8,22.6,16.8L22.6,16.8C22.5,16.8,22.6,16.8,22.6,16.8z"/>
			<path class="st1" d="M22.3,16.9C22.3,16.9,22.3,16.9,22.3,16.9C22.3,16.9,22.3,16.9,22.3,16.9L22.3,16.9L22.3,16.9z"/>
			<path class="st1" d="M21.7,8.4L21.7,8.4C21.7,8.4,21.7,8.4,21.7,8.4C21.7,8.4,21.7,8.4,21.7,8.4z"/>
			<polygon class="st1" points="26.3,19.5 26.2,19.4 26.3,19.5 			"/>
			<path class="st1" d="M20,9.1C20,9.1,20,9.1,20,9.1C20,9.1,20,9.1,20,9.1z"/>
			<path class="st1" d="M19.5,9.6l-0.1,0C19.4,9.6,19.5,9.6,19.5,9.6z"/>
			<path class="st1" d="M19,9.9C19,9.9,19.1,9.9,19,9.9L19,9.9L19,9.9z"/>
			<path class="st1" d="M26.5,6.1C26.5,6.1,26.5,6.1,26.5,6.1C26.6,6.2,26.5,6.1,26.5,6.1z"/>
			<path class="st1" d="M23.6,5.6c0-0.1,0-0.1,0-0.2C23.6,5.5,23.6,5.5,23.6,5.6z"/>
			<polygon class="st1" points="28.7,8 28.7,8 28.7,8 			"/>
			<path class="st1" d="M23.8,5.4c-0.1,0-0.1,0-0.1,0.1C23.7,5.4,23.8,5.4,23.8,5.4z"/>
			<path class="st1" d="M17.3,11.5L17.3,11.5C17.2,11.5,17.2,11.5,17.3,11.5L17.3,11.5z"/>
			<path class="st1" d="M17.3,11.6C17.3,11.6,17.2,11.6,17.3,11.6C17.2,11.6,17.3,11.6,17.3,11.6z"/>
			<path class="st1" d="M17.2,11.7c0,0,0-0.1,0-0.1C17.2,11.6,17.2,11.7,17.2,11.7z"/>
			<path class="st1" d="M17.8,11.1L17.8,11.1C17.8,11,17.8,11,17.8,11.1z"/>
			<path class="st1" d="M18,10.9c0,0-0.2,0-0.2,0.1l0,0C17.7,10.9,18,11,18,10.9z"/>
			<path class="st1" d="M19.3,10.9L19.1,11c0.1,0,0.2,0.1,0.1,0.2C19.6,11.2,19.1,11.1,19.3,10.9z"/>
			<path class="st1" d="M19.8,10.6c0,0.1,0.1,0.1,0.1,0.1C19.9,10.6,19.9,10.6,19.8,10.6z"/>
			<path class="st1" d="M22.8,7.6l0.1,0.1C22.9,7.7,22.9,7.7,22.8,7.6z"/>
			<polygon class="st1" points="22.6,6.3 22.5,6.3 22.6,6.5 			"/>
			<polygon class="st1" points="23.9,7 23.9,7 24,6.9 			"/>
			<path class="st1" d="M28,9.9l0.2-0.2C28.1,9.7,27.9,9.9,28,9.9z"/>
			<path class="st1" d="M30.3,11.9c-0.1,0.1-0.1,0.2,0.1,0.2C30.4,12,30.4,11.9,30.3,11.9z"/>
			<polygon class="st1" points="25.5,17.5 25.5,17.4 25.5,17.6 			"/>
		</g>
		<g>
			<path class="st1" d="M10.5,5.1c0,0.1,0,0.2,0.1,0.2L10.6,5L10.5,5.1z"/>
			<path class="st1" d="M10.8,5.6c0.1-0.1,0.3-0.2,0.4-0.4c-0.2,0.1-0.2,0-0.4,0.3c-0.1,0-0.1-0.1-0.1-0.2c0,0.1-0.1-0.1-0.2,0.1
				c0.1,0.2,0.1,0.2,0.3,0.1C10.9,5.6,10.9,5.6,10.8,5.6z"/>
			<path class="st1" d="M14.6,9.9L14.6,9.9C14.6,9.9,14.6,9.9,14.6,9.9z"/>
			<path class="st1" d="M16.8,12.3C16.8,12.3,16.8,12.3,16.8,12.3C16.8,12.3,16.8,12.4,16.8,12.3z"/>
			<path class="st1" d="M16.6,12.7L16.6,12.7C16.6,12.6,16.6,12.6,16.6,12.7z"/>
			<path class="st1" d="M14.6,9.9l0,0.1C14.7,10,14.6,10,14.6,9.9z"/>
			<path class="st1" d="M11.9,5.8C11.8,5.7,11.8,5.8,11.9,5.8C11.8,5.8,11.8,5.8,11.9,5.8L11.9,5.8z"/>
			<path class="st1" d="M13.4,9L13.4,9c0,0-0.1,0-0.1,0L13.4,9z"/>
			<path class="st1" d="M12.5,8.1c0,0,0.2-0.1,0.2-0.2C12.7,8,12.6,8,12.6,8C12.6,8.1,12.6,8.1,12.5,8.1z"/>
			<path class="st1" d="M11.4,6.5L11.4,6.5C11.4,6.5,11.4,6.5,11.4,6.5z"/>
			<path class="st1" d="M14,9.6C13.9,9.6,13.9,9.6,14,9.6C13.9,9.6,13.9,9.6,14,9.6z"/>
			<path class="st1" d="M8.7,5.7C8.7,5.7,8.7,5.7,8.7,5.7C8.7,5.7,8.7,5.6,8.7,5.7z"/>
			<polygon class="st1" points="10.5,5.6 10.4,5.7 10.4,5.8 			"/>
			<path class="st1" d="M16,12.9L16,12.9C16,12.8,16,12.9,16,12.9z"/>
			<path class="st1" d="M10,18.2c-0.1,0.2-0.3,0-0.3,0.3C9.7,18.5,10,18.4,10,18.2z"/>
			<path class="st1" d="M11.9,5.8C11.9,5.8,11.9,5.8,11.9,5.8C11.9,5.8,11.9,5.8,11.9,5.8z"/>
			<path class="st1" d="M9.7,18.5L9.7,18.5L9.7,18.5C9.7,18.5,9.7,18.5,9.7,18.5z"/>
			<path class="st1" d="M14.3,14.8C14.4,14.8,14.4,14.8,14.3,14.8C14.4,14.8,14.4,14.8,14.3,14.8z"/>
			<path class="st1" d="M15.9,13.6L15.9,13.6C15.9,13.7,15.9,13.7,15.9,13.6z"/>
			<path class="st1" d="M13.8,15.7C13.8,15.7,13.8,15.7,13.8,15.7C13.8,15.7,13.8,15.7,13.8,15.7C13.8,15.7,13.8,15.7,13.8,15.7z"/>
			<polygon class="st1" points="13.1,16.4 13.2,16.4 13.2,16.4 			"/>
			<path class="st1" d="M6.5,7.9C6.6,7.9,6.6,8,6.7,8C6.6,7.9,6.6,7.8,6.5,7.9z"/>
			<path class="st1" d="M11.8,5.8C11.8,5.8,11.8,5.8,11.8,5.8L11.8,5.8C11.8,5.8,11.8,5.8,11.8,5.8z"/>
			<path class="st1" d="M15,16.9L14.9,17C14.9,17,15,16.9,15,16.9z"/>
			<path class="st1" d="M3.9,14.6L3.9,14.6C3.9,14.6,3.9,14.6,3.9,14.6z"/>
			<path class="st1" d="M14.5,17.3c-0.1,0-0.1,0-0.2,0c0,0,0,0,0,0.1L14.5,17.3z"/>
			<path class="st1" d="M6.7,8L6.7,8L6.7,8z"/>
			<path class="st1" d="M7.1,6.9C7,7,7.2,7.2,7.3,7.3C7.3,7.5,7.1,7.2,7,7.1c0,0.1,0.1,0.4,0,0.4c0,0-0.1,0-0.1-0.1
				C7,7.7,6.7,7.8,6.8,8.1c0,0,0,0-0.1,0C6.8,8.1,6.9,8.2,7,8.3c0,0.1,0,0.2-0.1,0.1c0,0,0-0.1,0-0.1l0,0.1c-0.2-0.1,0-0.1-0.1-0.3
				c0,0.2,0,0.4-0.1,0.5C6.4,8.4,6.7,8.3,6.4,8.2l0.2,0C6.2,8,6.7,8.1,6.3,7.9C6.1,8,6.2,8.2,6,8.3c0.1,0.1,0.2,0.1,0.2,0.3
				c0,0.4-0.6-0.3-0.6,0.1C5.8,8.8,6,9.1,5.8,9.1L5.6,8.8C5.4,9,5.8,9.2,5.5,9.2c-0.1-0.1,0.1-0.2,0-0.2c-0.3-0.1,0,0.2,0,0.3
				L5.3,9.2C5.1,9.3,5.1,9.7,4.9,9.9c0-0.1-0.1-0.2-0.2-0.2C4.6,10,4.3,10.2,4,10.3L4,10.5c0,0-0.1,0-0.1-0.1
				c-0.1,0,0.1,0.1,0.1,0.2c0,0.1-0.2,0-0.2-0.1c0,0.3-0.1,0.7-0.5,0.7l0-0.1c-0.3,0.2,0.1,0.5-0.2,0.6l0-0.1
				c-0.2,0.2-0.3,0.5-0.4,0.7c0,0.3,0,0.5-0.1,0.8c0.3,0,0.2,0.6,0.6,0.4c0,0.2,0,0.3,0,0.4c0,0.1,0,0.2,0.1,0.4
				c0,0.1,0.3-0.1,0.4-0.1l-0.2,0.2l0.3-0.1l-0.1,0.2l0.1,0c0,0,0-0.1,0.1-0.2c0.2,0,0.1,0.4,0.1,0.5L4.4,15C4.3,15,4.2,15,4.2,15
				c0.3,0-0.1,0.2,0.1,0.2c0-0.1,0.1-0.1,0.1-0.1c0,0.2,0.1,0.3,0.2,0.4l-0.1,0.1C4.7,15.7,5,15.8,5.2,16c0-0.1,0.2-0.3,0.3-0.3
				L5.3,16c0.1-0.1,0-0.1,0.2-0.2C5.6,15.9,5.4,16,5.3,16l0.2,0c0,0.1-0.1,0.1-0.2,0.1c0.1-0.1,0,0.3,0.2,0.2l0,0.1
				c0.2,0.2,0.4,0.2,0.5,0.4c0.2-0.1,0.2,0,0.4-0.1c0.1,0.2,0.1,0.4,0.3,0.6c0.2,0,0.2-0.1,0.3-0.1c-0.1,0.1,0,0.3-0.1,0.3
				c0.2,0.2,0.3,0.2,0.6,0.3c0-0.1,0-0.1,0.1-0.2c0.1,0,0,0.1,0,0.2l0,0c0.5,0,0.2,1,0.7,0.9l0,0l0.4,0.1c0.1,0.1-0.2,0-0.2,0.2
				c0.4,0,0.3,0.4,0.7,0.4c-0.1,0.3,0,0.4,0.3,0.7c0.2,0.2,0.5,0.3,0.6,0.5l0-0.1c0.1-0.1,0.1,0.1,0.2,0.2c0-0.1-0.1-0.2,0-0.2
				c0.5,0.1,1,0.1,1.5-0.2c0.2-0.1,0.5-0.3,0.7-0.4c0.1-0.1,0.3-0.2,0.4-0.2c0.2-0.1-0.4-0.6,0-0.6l0.1,0.2c0.1-0.5,0.7-0.6,0.8-1.1
				c0,0.1,0.1,0.1,0,0.1c0.2,0.1,0.2-0.2,0.1-0.3c0.1,0,0.1,0.1,0.2,0.1c0.1,0,0-0.3,0.2-0.2c0,0,0,0.1,0,0.1c0-0.1,0.2-0.2,0-0.3
				c0.2,0,0.2-0.3,0.3-0.3c-0.1-0.2,0.3-0.1,0.1-0.4c0.2,0.2,0.4,0,0.4-0.2c0,0.1,0.1,0,0.2,0.1c0.1-0.1,0.1-0.2,0-0.3
				c0.4,0.1,0.1-0.5,0.5-0.3c0.1-0.4,0.3-0.7,0.4-1c0.2,0.2-0.2,0.3,0,0.5c0.1-0.3,0-0.6,0.3-0.8c0.1,0,0.1,0.1,0.1,0.2
				c0.1-0.3,0.4-0.4,0.5-0.7c0,0,0,0.1,0,0.1c0,0,0.1-0.1,0-0.2l0,0.1c-0.2-0.1-0.2-0.5-0.3-0.6c0.2,0.4,0.3-0.1,0.6,0.4
				c0,0,0-0.1-0.1-0.2c0.1,0,0.1,0,0.2,0.1c0.1-0.2-0.1-0.3,0-0.4c0.1,0.1,0,0.1,0.1,0.2c-0.1-0.2-0.1-0.3,0.1-0.4l0,0
				c0,0,0,0,0.1,0c0,0,0,0,0,0.1l0,0c0.2-0.3,0-0.6,0.2-0.9c0.3,0.2,0.1-0.1,0.4-0.1c0,0-0.1-0.2-0.1-0.2L18,12.6
				c0-0.2-0.2-0.3-0.2-0.5l0.2,0.1c0,0-0.2-0.3-0.2-0.3l0,0.2c-0.2-0.1-0.3,0.1-0.4-0.1c0.1,0-0.1-0.1,0-0.3h0c-0.1,0-0.3,0-0.3-0.1
				c0-0.1,0.3-0.2,0.3-0.2c-0.3,0.1-0.3-0.2-0.5-0.1c0.1,0,0.2-0.1,0.2-0.2l-0.2,0.1c0-0.1,0-0.1,0.1-0.2c-0.1-0.2-0.2,0.3-0.3,0
				c0,0,0,0,0.1,0c-0.1-0.2-0.4-0.2-0.5-0.4c0.2-0.2,0.2,0.1,0.3-0.1c-0.2-0.2-0.7-0.2-0.8-0.4l0,0.1c-0.3,0.3,0-0.3-0.2-0.2
				c0,0,0.2-0.1,0.1-0.1c-0.1-0.2-0.3-0.2-0.6-0.3l0.1,0c0-0.1-0.2-0.2-0.2-0.4c-0.1,0-0.1,0-0.2,0.1C15,8.6,14.1,9,14.2,8.4
				c0,0,0.1,0,0.1,0l-0.3-0.1C14,8.4,14,8.3,14,8.5c-0.1,0-0.2,0-0.3,0c0.2,0,0.2-0.2,0.2-0.3c0,0-0.1,0.1-0.1,0.1
				c0.1-0.3-0.3,0.2-0.3-0.1l0.1-0.1c-0.1,0-0.2,0-0.3-0.1c0.1-0.2,0.1,0,0.2-0.1c-0.1-0.1-0.4,0.1-0.4-0.1c0.1,0,0.1,0,0.2,0
				c0.1-0.2,0-0.2,0-0.3l0,0l-0.1-0.2l0,0.1c-0.5,0.3-0.3-0.1-0.6,0c0.4-0.1,0.2-0.1,0.3-0.3c0-0.1,0-0.2,0.1-0.2
				c-0.2,0.1,0-0.2-0.3-0.1c0-0.1-0.1-0.1,0.1-0.2c-0.1,0-0.1,0.1-0.1,0.2c-0.3,0-0.1-0.5-0.5-0.5c-0.3-0.1-0.5,0.1-0.7,0
				c0-0.1,0.2-0.1,0.2-0.1c0-0.2-0.1-0.2-0.2-0.2c0.1,0,0.1-0.1,0.1-0.2c-0.1,0-0.2,0.1-0.2,0c0.1,0,0.2-0.1,0.3-0.1
				c-0.1,0-0.3,0-0.4,0c0.1-0.1,0.2-0.1,0.3-0.1c-0.1,0-0.3-0.1-0.5,0c0,0,0,0.1,0,0.1c0,0,0.1-0.1,0.2-0.1c0.2,0,0.1,0.2,0,0.2
				l-0.1,0C11,6.1,11.5,5.9,11.6,6l-0.3,0.2l0.3-0.1c0,0.1-0.1,0.2-0.2,0.2c0,0.2,0.1,0,0.1,0.2c0,0,0,0,0,0l0.1,0
				c-0.1,0-0.1,0.2-0.2,0.1c0,0.3,0.4,0,0.3,0.3l0,0c0.3,0.1,0.2-0.1,0.5-0.2l-0.3,0.5L12,7.1c0,0,0,0.1,0,0.1
				c0.2,0,0.1-0.1,0.2-0.1c-0.1,0.2,0.3,0.2,0.1,0.5c0.2-0.1,0-0.2,0.2-0.2c-0.2,0.3,0.2,0.1,0.1,0.3c-0.2,0.1-0.2,0-0.2,0.2
				C12.7,7.6,12.5,8,12.6,8c0.2-0.2,0.2,0.1,0.4,0.1c-0.1,0.1,0.1,0.3,0.2,0.5l0,0c0.2-0.2,0.3,0,0.4,0c-0.1,0.1-0.2,0.1-0.3,0.2
				l0.1,0.1c0.1,0,0.1-0.1,0.2,0L13.4,9c0.1,0.1,0.4,0,0.4,0.3c0.1-0.1,0.3-0.5,0.5-0.4c-0.1,0.1-0.2,0.2-0.3,0.2c0,0,0.1,0,0.1,0
				L14,9.2c0,0.1,0.1-0.1,0.2,0c-0.1,0.1,0,0.1-0.1,0.2c0,0,0-0.1-0.1-0.1c0,0.1,0,0.2,0,0.3c0.1-0.1,0.1-0.1,0.2-0.1
				c0.1,0.1-0.1,0.2-0.1,0.3c0.1,0,0.1,0.1,0.2-0.1c0,0,0,0.1-0.1,0.2c0.1,0,0.3,0.2,0.4,0l0,0c0,0,0,0,0,0l0,0l0,0
				c0.3,0,0.3,0.5,0.5,0.6l-0.1,0.1c0.2,0,0.3,0.2,0.5,0.2c0,0,0,0.2-0.1,0.2c0.1,0,0.2,0,0.2,0.2c-0.2,0-0.1,0.1-0.1,0
				c0.1,0.1,0,0.3,0.3,0.2c-0.2,0.1-0.1,0.2,0,0.3l0-0.2c0.1,0,0.1,0.1,0.1,0.2l-0.2,0.1c0,0.4,0.7,0,0.5,0.5c0.2-0.1,0-0.2,0.2-0.3
				c0.1,0.1-0.1,0.5-0.1,0.5c-0.1,0.1,0.3-0.2,0.3,0c0.1,0,0.3-0.2,0.4-0.1c0,0.1-0.3,0.2-0.4,0.2c0,0,0,0,0,0c0,0-0.1,0-0.2,0
				l0.1,0c-0.1,0.1,0,0.1-0.2,0.1c0.1,0,0.2,0,0.2-0.1c-0.1,0.1,0,0.1-0.1,0.2c0.1,0,0.2,0,0.2,0c-0.2,0.1,0.2,0.1,0.2,0.2
				c-0.2,0-0.3-0.1-0.3,0c-0.1,0-0.2-0.1-0.3-0.1c0.1,0.1,0,0.1-0.1,0c0,0-0.1,0-0.1,0l0-0.1c0,0,0,0,0,0l0.1,0.1c0,0,0,0-0.1-0.1
				c0.1,0.1,0.2,0.2,0.3,0.4c-0.1,0-0.1,0.2-0.3,0.1c0.2-0.1-0.2-0.2-0.1-0.3c0,0,0,0.1-0.1,0.1c0,0,0,0,0-0.1c-0.3,0,0.1,0.3,0,0.4
				c-0.1-0.1-0.2-0.1-0.2-0.1c0.1-0.1,0.2,0.1,0.2,0.3c-0.2,0-0.1,0.2-0.1,0.2l0.1,0c0.1,0.1,0,0.1,0,0.2c-0.1-0.1,0-0.1,0-0.1
				c0.1,0.2-0.3,0-0.3,0.2c-0.1,0-0.2-0.2-0.3-0.2c0,0.2-0.3,0-0.3,0.2c0.2,0.1,0.1,0.1,0.2,0.3l0.1-0.3l0.1,0.3
				c0.1-0.1,0-0.2,0.1-0.2c0,0.2,0,0.1,0.2,0.2c-0.3-0.1-0.1,0.3-0.3,0.2L15,14.2c-0.3,0-0.1,0.4-0.4,0.5l0.1,0
				c0.1,0.1-0.1,0.1-0.1,0.2c-0.1-0.1-0.2-0.1-0.3-0.1c0.1,0.1-0.1,0.1,0,0.4l-0.2-0.1c-0.2,0.1,0.1,0.5-0.1,0.6
				c-0.1-0.2-0.2-0.2-0.2-0.3c0,0-0.1,0.1,0,0.1c-0.1,0,0,0.3-0.1,0.2c0,0.1,0.1,0.2,0.1,0.2c0,0-0.1-0.1-0.1-0.1
				c0.1,0.1,0,0.2,0.1,0.2c-0.5-0.2-0.4,0.4-0.8,0.3c-0.1,0.1-0.2,0.3-0.3,0.4c0,0-0.1-0.1,0-0.1c-0.2,0,0.2,0.4,0,0.4
				c-0.2-0.1,0-0.2-0.1-0.2c-0.4-0.3-0.1,0.2-0.4,0.1l0,0c-0.2,0-0.1,0.3-0.2,0.4c0,0,0,0-0.1-0.1c0.1,0.3,0,0.5-0.1,0.7
				c-0.1-0.2,0-0.1-0.2-0.2c0,0.1,0.2,0.2,0.2,0.4c-0.1,0-0.3,0-0.4-0.2l0.1-0.1c-0.2-0.1-0.1,0.1-0.2,0.2L11.3,18
				c-0.1,0.2,0.1,0.4-0.1,0.6l0.1,0c0.1,0.3-0.2,0-0.1,0.2l-0.2-0.2c0,0.1,0.1,0.4,0,0.5c0-0.3,0-0.4-0.1-0.6c0,0-0.1,0.1,0,0.3
				c0,0,0-0.1,0-0.1c0.1,0.2,0.1,0.4-0.1,0.5c-0.1-0.3-0.1-0.3-0.2-0.3c-0.1,0-0.2,0-0.1-0.3c-0.1,0.1-0.2,0-0.2-0.1
				c0,0,0-0.1-0.1-0.2c-0.2,0.4-0.1-0.1-0.4,0.3c-0.1,0-0.1-0.1-0.1-0.1l0-0.4c0.1-0.1,0.1,0,0.2-0.1c-0.1-0.2,0.1-0.2,0.1-0.4
				c-0.1,0.1-0.2,0.1-0.2,0l0,0.3c-0.4,0,0.1-0.4-0.2-0.4l0.2,0c-0.2,0-0.3-0.3-0.7-0.2c0-0.1,0.1-0.2,0.2-0.1
				c-0.2-0.3-0.8-0.2-0.8-0.5l0.1-0.1c-0.1,0-0.2,0.1-0.2-0.1c0,0,0.1-0.1,0.1-0.1c0,0-0.2,0-0.3-0.1l0.1,0C8,16,7.6,16.2,7.4,16.1
				c0.2-0.2,0.1-0.5,0.1-0.6l0,0c-0.2-0.3-0.6-0.2-0.9-0.4c0.1-0.4-0.4-0.6-0.5-1c0,0.1-0.2,0.2-0.3,0.2c0-0.1-0.3,0-0.1-0.2l0,0
				c0.2-0.3,0-0.3-0.1-0.4L5.4,14c0.2-0.6-0.7-0.4-0.5-0.9c-0.1,0-0.2-0.1-0.3,0l0.2-0.1c-0.1-0.1-0.1-0.1-0.1-0.1c0,0,0,0-0.1,0
				l0.2-0.1c0,0-0.6,0.2-0.7,0.1l0.3-0.1c0-0.1,0.3-0.1,0-0.2c0,0,0.1,0.1,0.1,0.1c0,0,0.2,0.1-0.1-0.2c0.1,0.1,0.1,0.1,0.1,0
				c0-0.1,0-0.2,0-0.3l0.1,0.2c-0.1-0.3-0.2-0.3-0.1-0.5c0,0,0.1,0.1,0.1,0.1c0.2,0-0.1-0.2,0.1-0.2l0.1,0.1c0.1-0.1,0-0.1,0-0.3
				c0-0.1,0.2-0.1,0.4,0c-0.1-0.1-0.1-0.3,0-0.3c0.1,0,0.1,0.1,0.1,0.1c0.3-0.1,0.1-0.4,0.3-0.4c0.1,0,0.1,0.1,0.1,0.1
				c-0.1,0.1-0.2,0.2-0.2,0.2c0.1,0.1,0.3,0.1,0.4,0.3c0-0.2-0.1-0.5,0.1-0.6c0,0,0,0,0.1,0l0,0c0,0,0,0,0-0.1c0.1,0,0.1,0,0.1,0
				c0.1,0.1,0.2-0.1,0.2-0.1c-0.2-0.1-0.1-0.2-0.2-0.2c0,0,0,0,0,0.1c0,0,0,0,0,0l0,0c0,0-0.1,0.1-0.1,0.1c0-0.1-0.1-0.2,0.1-0.2
				c-0.1-0.1-0.1-0.3-0.2-0.3c0.3,0.1,0.5,0.1,0.7,0.2c0.1-0.2,0.3-0.4,0.1-0.8c0-0.1,0.1,0,0.2,0.1c0,0.1,0,0.1,0,0.1
				c0-0.2,0.2-0.3,0.1-0.5c0.2,0,0.1,0.2,0.2,0.1l0,0.1c0.6,0,0-1,0.7-0.9c0,0-0.1,0-0.1,0c0.6-0.2,0.6-1,1.3-1
				c0.2-0.1,0.1-0.2,0-0.3l0.2,0.1L9.3,6.8c0-0.3,0.7,0.1,0.6-0.3L9.8,6.4C9.8,6.4,9.9,6.1,10,6.3c0,0-0.1-0.1,0-0.1l0.1,0.1
				c0,0,0-0.1,0-0.2c0-0.1,0-0.1,0-0.1c0.1,0,0.3,0.4,0.3,0.4c0,0,0-0.4,0-0.4c-0.1,0-0.1-0.1-0.1-0.2c0,0,0.1-0.1,0.1-0.1
				c0-0.2,0-0.4,0-0.5c0-0.1,0-0.2,0-0.2c-0.1-0.1-0.2-0.1-0.3-0.2c0,0-0.3,0.3-0.2,0.3L9.7,4.9c0,0,0.3-0.1,0.3-0.1
				C9.8,4.7,9.7,4.9,9.7,5C9.6,5,9.5,4.9,9.4,4.9c0,0-0.1,0.5,0,0.4C9.3,5.3,9.3,5.2,9.2,5.2c0.1,0.2,0.3,0.2,0.3,0.3
				c-0.2-0.1-0.2-0.2-0.2,0C9.1,5.4,9.1,5.4,9.1,5.3c0,0.1-0.1,0.2,0,0.3c-0.2-0.1-0.2,0.2-0.4,0c0,0.1,0.1,0.3,0,0.3
				C8.5,5.6,8.5,6.2,8.2,5.9c0.2,0.3-0.1,0.4-0.1,0.6c0,0,0-0.1,0-0.1c-0.1,0.1-0.2,0-0.3,0C8,6.7,7.9,6.8,8,7
				C7.7,6.9,7.8,6.7,7.6,6.5c0.2,0.2,0,0.3,0.2,0.4C7.6,6.9,7.6,7,7.4,6.8c0.2,0.3,0,0.1,0.1,0.3c-0.2,0-0.3-0.2-0.3,0
				C7.1,7.1,7.1,6.9,7.1,6.9z M5,9.9L5,9.9C5,9.9,5,9.9,5,9.9C5,9.9,5,9.9,5,9.9z M4.8,10.1C4.8,10.1,4.8,10.1,4.8,10.1
				c0.2,0,0.2,0,0.2,0C4.9,10.1,4.9,10.1,4.8,10.1z M6.3,10.7C6.3,10.8,6.2,10.7,6.3,10.7C6.2,10.7,6.2,10.7,6.3,10.7L6.3,10.7
				C6.2,10.7,6.3,10.7,6.3,10.7z"/>
			<path class="st1" d="M6.1,10.5C6.1,10.4,6.1,10.4,6.1,10.5C6.1,10.4,6.1,10.4,6.1,10.5L6.1,10.5L6.1,10.5z"/>
			<path class="st1" d="M14.6,9.9L14.6,9.9C14.6,9.9,14.6,9.9,14.6,9.9C14.6,9.8,14.6,9.9,14.6,9.9z"/>
			<polygon class="st1" points="3.6,14.4 3.6,14.4 3.6,14.4 			"/>
			<path class="st1" d="M14,8.2C14,8.2,14,8.1,14,8.2C14,8.1,14,8.1,14,8.2z"/>
			<path class="st1" d="M13.5,7.6l0-0.1C13.5,7.6,13.5,7.6,13.5,7.6z"/>
			<path class="st1" d="M13.2,7.2C13.1,7.2,13.1,7.2,13.2,7.2L13.2,7.2L13.2,7.2z"/>
			<path class="st1" d="M16.9,14.6C16.9,14.6,16.9,14.6,16.9,14.6C16.9,14.7,16.9,14.7,16.9,14.6z"/>
			<path class="st1" d="M17.4,11.8c0.1,0,0.1,0,0.2,0C17.6,11.7,17.5,11.7,17.4,11.8z"/>
			<polygon class="st1" points="15,16.9 15,16.9 15,16.9 			"/>
			<path class="st1" d="M17.7,11.9c0-0.1,0-0.1-0.1-0.1C17.6,11.8,17.6,11.9,17.7,11.9z"/>
			<path class="st1" d="M11.5,5.4L11.5,5.4C11.5,5.4,11.5,5.4,11.5,5.4L11.5,5.4z"/>
			<path class="st1" d="M11.5,5.4C11.5,5.4,11.4,5.4,11.5,5.4C11.4,5.4,11.5,5.4,11.5,5.4z"/>
			<path class="st1" d="M11.3,5.3c0,0,0.1,0,0.1,0C11.4,5.4,11.4,5.3,11.3,5.3z"/>
			<path class="st1" d="M12,6L12,6C12,5.9,12,6,12,6z"/>
			<path class="st1" d="M12.1,6.1c0,0,0-0.2-0.1-0.2l0,0C12.1,5.9,12,6.2,12.1,6.1z"/>
			<path class="st1" d="M12.1,7.4L12,7.3c0,0.1-0.1,0.2-0.2,0.1C11.9,7.8,12,7.3,12.1,7.4z"/>
			<path class="st1" d="M12.5,7.9c-0.1,0-0.1,0.1-0.1,0.1C12.4,8,12.5,8,12.5,7.9z"/>
			<path class="st1" d="M15.4,10.9L15.3,11C15.4,11.1,15.3,11,15.4,10.9z"/>
			<polygon class="st1" points="16.7,10.8 16.7,10.6 16.6,10.7 			"/>
			<polygon class="st1" points="16.1,12.1 16,12.1 16.2,12.1 			"/>
			<path class="st1" d="M13.1,16.1l0.2,0.2C13.3,16.2,13.1,16,13.1,16.1z"/>
			<path class="st1" d="M11.1,18.5c-0.1-0.1-0.2-0.1-0.2,0.1C11,18.5,11.1,18.5,11.1,18.5z"/>
			<polygon class="st1" points="5.5,13.6 5.6,13.6 5.5,13.6 			"/>
		</g>
	</g>
	<g>
		<path class="st1" d="M177.2,51.9c0.1-0.1,0-0.3-0.2-0.3l-0.2,0.3L177.2,51.9z"/>
		<path class="st1" d="M175.6,51.2c-0.3,0.1-0.6,0.4-0.5,0.7c0.3-0.3,0.4-0.2,0.7-0.5c0.2,0,0.4,0.1,0.4,0.2
			c0.1-0.1,0.4,0.1,0.5-0.1c-0.3-0.3-0.7-0.3-1.1-0.1C175.5,51.3,175.6,51.3,175.6,51.2z"/>
		<path class="st1" d="M152,49.9l0.2,0C152.1,49.9,152,49.9,152,49.9z"/>
		<path class="st1" d="M137.3,49.3c0.1,0,0.2,0,0.2-0.1C137.4,49.2,137.3,49.2,137.3,49.3z"/>
		<path class="st1" d="M134.8,48.8c0.1,0,0.1,0,0.1,0C134.9,48.8,134.9,48.8,134.8,48.8z"/>
		<path class="st1" d="M152,49.9l-0.4-0.1C151.6,49.9,151.8,49.8,152,49.9z"/>
		<path class="st1" d="M172.3,51.9c0.1,0,0.2,0,0.2-0.1L172.3,51.9C172.4,51.8,172.4,51.9,172.3,51.9z"/>
		<path class="st1" d="M158.5,49.8l0.1,0c0,0,0.1-0.1,0.1-0.1L158.5,49.8z"/>
		<path class="st1" d="M163.4,49.9c-0.1,0-0.2,0.3-0.2,0.4c0.1-0.1,0.2-0.2,0.3-0.2C163.5,50.1,163.5,50,163.4,49.9z"/>
		<path class="st1" d="M171.3,50.7l0.1,0C171.4,50.7,171.3,50.7,171.3,50.7z"/>
		<path class="st1" d="M154.9,49.6c0,0,0-0.1,0-0.1C154.9,49.6,154.9,49.6,154.9,49.6z"/>
		<path class="st1" d="M16.1,50.3C16.1,50.3,16.1,50.3,16.1,50.3C16,50.3,16,50.3,16.1,50.3z"/>
		<path class="st1" d="M10.3,49L10.3,49c0.1-0.1,0.1-0.1,0.1-0.2L10.3,49z"/>
		<path class="st1" d="M130.2,48.4C130.3,48.4,130.3,48.4,130.2,48.4C130.4,48.3,130.3,48.3,130.2,48.4z"/>
		<path class="st1" d="M88.1,47.8c0.5,0.3-0.8,0.3-0.1,0.6C88,48.3,88.7,48,88.1,47.8z"/>
		<path class="st1" d="M172.2,51.8c-0.1,0-0.1,0-0.2,0C172.1,51.8,172.2,51.8,172.2,51.8z"/>
		<path class="st1" d="M88.1,48.4L88.1,48.4L88.1,48.4C88.1,48.5,88.1,48.4,88.1,48.4z"/>
		<path class="st1" d="M119.7,48.3c0,0.1,0.1,0.1,0.1,0.1C119.8,48.4,119.8,48.4,119.7,48.3z"/>
		<path class="st1" d="M127.5,48.9l-0.2,0C127.4,48.9,127.5,48.9,127.5,48.9z"/>
		<path class="st1" d="M115.6,48.6c-0.1,0-0.1-0.1-0.3,0c0,0,0,0,0,0C115.4,48.6,115.5,48.6,115.6,48.6z"/>
		<path class="st1" d="M111.3,48.5C111.4,48.6,111.4,48.6,111.3,48.5c0.1,0.1,0.2,0,0.2,0L111.3,48.5z"/>
		<path class="st1" d="M29,50.1c-0.1-0.1-0.2-0.2-0.2-0.3C28.9,50,28.2,50.1,29,50.1z"/>
		<path class="st1" d="M172.4,51.7c0,0.1-0.1,0.1-0.1,0.1l0.1,0C172.4,51.8,172.4,51.7,172.4,51.7z"/>
		<path class="st1" d="M115.4,50.8l-0.7-0.1C114.9,50.8,115.1,50.8,115.4,50.8z"/>
		<path class="st1" d="M59.5,50l-0.2,0C59.4,50,59.4,50,59.5,50z"/>
		<path class="st1" d="M112.7,50.8c-0.1-0.1-0.2-0.2-0.4-0.2c0,0-0.1,0-0.1,0.1L112.7,50.8z"/>
		<path class="st1" d="M28.8,49.8L28.8,49.8L28.8,49.8z"/>
		<path class="st1" d="M24.3,50.5c0.6,0,0.3-0.4,0.4-0.6c0.8-0.1,0.4,0.3,0.6,0.5c0.5-0.1,0.8-0.4,1.2-0.4c0,0.1,0.1,0.1,0,0.2
			c0.5-0.3,1.5,0,2.1-0.4c0,0,0.1,0.1,0.1,0.1c-0.1-0.2-0.1-0.4-0.1-0.5c0.3,0,0.5-0.2,0.6,0c-0.2,0-0.2,0.1-0.3,0.2l0.3-0.1
			c0.3,0.3-0.4,0.1-0.4,0.4c0.6-0.1,1.3-0.4,1.7-0.3c0.1,0.3-1.1,0.1-0.5,0.4l-0.7-0.1c0.5,0.5-0.4,0,0.1,0.5c0.9,0.1,1-0.2,1.9-0.1
			c0.2-0.2-0.1-0.3,0.1-0.5c1.3-0.3,1,0.8,2,0.4c0.2-0.2,0.3-0.7,1-0.4l-0.2,0.4c0.9,0,0.5-0.6,1.4-0.3c-0.2,0.2-0.7,0.1-0.6,0.2
			c0.6,0.3,0.4-0.2,0.9-0.2l0.1,0.3c0.9-0.1,2-0.3,3-0.4c-0.1,0.1-0.2,0.2,0,0.3c1.3-0.2,2.8,0,4.1,0.2l0.5-0.3
			c0.1,0,0.2,0.1,0.1,0.2c0.5,0.1,0-0.2,0.3-0.3c0.3,0,0.4,0.2,0.2,0.3c0.9-0.3,2.5-0.5,3.4-0.2l-0.2,0.1c0.7,0.1,0.8-0.6,1.5-0.3
			l-0.1,0.1c1.6,0.1,3.3-0.1,4.5,0.3c0.2-0.4,1.5,0.2,1.6-0.4c0.9,0.3,0.6,0.4,1.9,0.6c0.3,0,0.5-0.4,0.9-0.4l0,0.3l0.6-0.3l0.3,0.4
			l0.4-0.1c-0.2,0-0.3-0.1-0.3-0.2c0.6-0.1,1.5,0.2,1.5,0.4l1.4-0.3c0,0.1-0.3,0.2-0.5,0.2c0.8-0.3,0.1,0.3,0.8,0
			c-0.1-0.1,0.1-0.2,0.1-0.2c0.4,0.2,1.1,0.2,1.7,0.1L64,50.2c1.1,0.1,2.3-0.1,3.5-0.1c-0.4-0.1-0.3-0.5,0-0.5l0.1,0.3
			c0.2-0.2-0.4-0.1,0.1-0.4c0.4,0,0.3,0.4,0,0.5l0.5-0.1c0,0.1-0.1,0.1-0.1,0.3c0.2-0.2,0.9,0.3,1.3,0l0,0.1c1.2,0,1.7-0.1,2.7-0.1
			c0-0.3,0.4-0.2,0.7-0.4c0.7,0.1,1.5,0.3,2.4,0.3c0.6-0.1,0.2-0.2,0.5-0.4c0,0.3,0.9,0.2,0.5,0.4c1,0,1.3,0,2.6-0.2
			c-0.1-0.1-0.3-0.2-0.2-0.2c0.2,0,0.5,0.1,0.5,0.2l-0.1,0c1.5-0.4,3.4,0.8,4.6,0.2l-0.1,0l1.2-0.3c0.6,0.1-0.3,0.2,0.1,0.4
			c1.3-0.4,2.1,0.1,3.2-0.2c0.8,0.8,3,0,4.1,0.5L92,50.4c0.3-0.2,0.4,0.1,0.6,0.1c0-0.1-0.3-0.2-0.1-0.3c2.5-0.2,5.1,0.3,7.6,0.5
			c0.9,0.1,0.5-0.9,1.7-0.5l-0.3,0.3c1.9-0.4,3.8,0.1,5.7-0.2c-0.1,0.1-0.1,0.2-0.3,0.2c0.4,0.2,1.4,0,1.4-0.2
			c0.3,0,0.1,0.2,0.2,0.3c0.4,0.1,1-0.3,1.2,0c0,0-0.1,0.1-0.2,0.1c0.3-0.1,1.2,0.1,0.9-0.2c0.7,0.1,1.3-0.1,1.9,0.1
			c0.4-0.3,1.2,0.2,1.3-0.3c-0.1,0.5,1.2,0.4,1.6,0.2c-0.1,0.1,0.4,0.1,0.2,0.3c0.5,0,1-0.1,0.9-0.3c0.9,0.6,1.8-0.4,2.3,0.3
			c1.5-0.2,2.8-0.3,4.2-0.4c-0.1,0.4-1.5,0-1.4,0.5c1.3-0.2,2-0.5,3.2-0.4c0.3,0.1-0.2,0.2-0.3,0.3c1.3-0.2,2.4,0.1,3.5-0.1
			c0,0-0.1,0.1-0.2,0.1c0.2,0,0.5,0.1,0.5-0.1l-0.2,0.1c-0.3-0.3,0.9-0.6,0.9-0.8c-0.4,0.6,1.1,0.2,0.5,0.9c0.1,0,0.3-0.1,0.3-0.3
			c0.2,0,0.3,0.1,0.1,0.3c0.8-0.1,0.5-0.3,1.2-0.3c0,0.1-0.2,0.1-0.2,0.2c0.4-0.2,0.7-0.4,1.3-0.3c0,0.1,0,0.1-0.1,0.1
			c1,0,1.8-0.5,2.9-0.3c-0.3,0.4,0.4,0.2,0.4,0.5l0.6-0.1l-0.2-0.2c0.5,0,1-0.2,1.5-0.1l-0.4,0.1l1,0l-0.6-0.2
			c0.5-0.2,0-0.7,0.7-0.6c-0.1,0,0.5,0,0.8,0h0c0.3,0,0.5,0,0.9,0.1c0.1,0.1-0.1,0.5,0,0.6c0.3-0.3,1.3,0,1.6-0.3
			c-0.1,0.1-0.1,0.3-0.1,0.3l0.2-0.2c0.2,0.1,0.3,0.1,0.2,0.3c0.7,0.1-0.2-0.5,0.7-0.2c-0.1,0,0,0.1-0.2,0.1c0.9,0.1,1.7-0.1,2.5,0
			c0.2,0.4-0.7,0.1-0.4,0.4c1.2,0,2.5-0.4,3.6-0.3l-0.2,0c0.2-0.5,0.8,0.3,1.4,0.1c-0.1,0-0.2,0.3-0.2,0.2c0.8,0.1,1.6-0.1,2.8-0.2
			l-0.2,0.1c0.5,0.1,1.2,0.1,1.7,0.2c0.2-0.1,0.4-0.1,0.3-0.3c1.5,0.8,2.9-0.3,4.3,0.4c-0.2,0-0.4,0.1-0.3,0.1l1.2-0.1
			c-0.1-0.2-0.1-0.1-0.4-0.3c0.2-0.1,0.5-0.2,0.8-0.2c-0.5,0.1,0,0.4,0.2,0.5c0-0.1,0-0.1,0-0.2c0.6,0.4,0.1-0.5,0.9-0.2l0,0.1
			c0.3-0.1,0.6-0.2,0.9-0.2c0.1,0.3-0.3,0.1-0.4,0.3c0.5,0,0.9-0.5,1.4-0.2c-0.2,0.1-0.5,0.1-0.7,0.1c0.5,0.3,0.5,0.3,0.8,0.3l0,0
			l0.8,0.2l-0.2-0.1c0.6-0.7,1.2-0.1,2-0.5c-0.8,0.4-0.1,0.2-0.2,0.5c0.2,0.1,0.5,0.2,0.4,0.3c0.4-0.2,0.6,0.2,1.2-0.1
			c0,0.1,0.4,0,0.3,0.3c0.5-0.1-0.1-0.2-0.1-0.3c0.8-0.3,1.7,0.5,2.8,0c0.9-0.2,1.1-0.5,2-0.6c0.3,0.2-0.3,0.3-0.3,0.3
			c0.5,0.2,0.8,0.1,1.3,0.1c-0.1,0.1,0,0.2,0.1,0.3c0.4,0,0.3-0.3,0.7-0.2c-0.1,0.1-0.2,0.3-0.4,0.4c0.4-0.1,0.8-0.2,1.3-0.3
			c0.1,0.2-0.3,0.2-0.4,0.4c0.5-0.1,1.3-0.1,1.4-0.4l-0.3-0.1c0.2,0,0.1,0.2-0.1,0.3c-0.4,0.2-0.6-0.1-0.6-0.2l0.3-0.1
			c-0.3-0.6-1.2,0-1.9,0l0.3-0.4l-0.6,0.3c-0.1-0.1-0.2-0.3,0.1-0.4c-0.4-0.2-0.4,0.1-0.8-0.1c0,0,0-0.1,0-0.1l-0.4,0.1
			c0.1-0.1-0.1-0.3,0.2-0.2c-0.8-0.3-1.3,0.3-1.6-0.1l0.1,0c-1.1,0.1-0.1,0.3-0.9,0.6l-0.5-0.8l-0.1,0.3c-0.1,0-0.3,0-0.3-0.2
			c-0.4,0.2,0.1,0.1-0.2,0.3c-0.5-0.3-1.5,0.1-1.6-0.4c-0.2,0.2,0.5,0.2-0.1,0.3c-0.1-0.5-0.7,0.1-1.1-0.2c0.2-0.3,0.6-0.1,0.1-0.4
			c-0.3,0.4-1-0.1-1.4-0.1c0,0.4-0.9,0.1-1.6,0.2c0-0.1-1.3-0.2-1.9-0.4l0-0.1c-0.1,0.4-0.8,0.3-1.3,0.3c0-0.2,0.1-0.3,0.4-0.4
			l-0.5,0c-0.1,0.1-0.3,0.2-0.6,0.2l0.1-0.3c-0.6,0-1.2,0.3-2,0.1c-0.1,0.3,0.6,0.7-0.2,0.9c0-0.1,0-0.4,0.2-0.4
			c-0.1,0-0.3,0.1-0.4,0l0.3-0.2c-0.4-0.1-0.2,0.2-0.5,0.2c0-0.2-0.2-0.1-0.2-0.3c0.1,0,0.2,0.1,0.4,0c-0.3,0-0.7-0.2-0.8-0.3
			c0,0.1,0,0.3-0.2,0.3c-0.6,0-0.2-0.2-0.6-0.4c-0.2,0.1-0.5,0-0.6,0.3c-0.2,0-0.2-0.2-0.3-0.2c-0.3,0.1-1.5,0.3-1.1,0.3h0.1
			c0,0,0,0-0.1,0h0h0c-1,0-2.1-0.2-3.2-0.1l0-0.1c-0.6,0.1-1.4,0-1.8,0.2c-0.2,0-0.4-0.2-0.3-0.3c-0.5,0.1-0.5,0.2-1.2,0
			c0.5-0.2-0.2-0.2,0.5-0.1c-0.6-0.1-0.7-0.3-1.4,0c0.2-0.2-0.4-0.3-0.7-0.3l0.4,0.2c-0.3,0-0.6,0-0.9,0l0.2-0.3
			c-1.2-0.4-2.3,0.6-3.2-0.1c-0.3,0.2,0.7,0.2,0.4,0.4c-0.6-0.1-1.2-0.6-1.3-0.6c-0.8-0.2-0.7,0.5-1.6,0.3c0.1,0.1,0.2,0.4-0.4,0.5
			c-0.6-0.1-0.7-0.5-0.3-0.6c0.1,0,0.2,0,0.2,0.1c0.2,0,0.4-0.1,0.2-0.2l-0.1,0.1c-0.3-0.1-1.1-0.1-0.9-0.3
			c-0.4,0.1-0.2,0.2,0.1,0.3c-0.7-0.2-1.1,0-1.9-0.2c0.1,0.1,0.2,0.2,0.1,0.2c-1.1-0.2-0.5,0.2-1.2,0.2c-0.4-0.2,0.2-0.4-0.6-0.3
			c-0.5-0.1-0.1-0.3,0.1-0.4c-0.7,0.2-1.3-0.2-1.7-0.2l0.4-0.1c-0.2,0.1-0.4,0-0.6,0l0.2,0.2c-0.2,0-0.4-0.1-0.4-0.2
			c-0.2,0.2,0.2,0.4-0.3,0.6c-0.3-0.1-0.9,0.1-1-0.2c0.9,0.1-0.1-0.3,0.7-0.4c-0.1,0-0.3,0-0.5,0c0,0,0-0.1,0.1-0.1
			c-0.8-0.3-0.4,0.3-1.3,0.3c0.1-0.2-0.2-0.3-0.3-0.3c0.4,0,0.2,0.3-0.2,0.4c-0.6-0.2-0.6,0.1-0.9,0.1l0.3,0.1
			c-0.1,0.2-0.4,0.1-0.8,0.2c0-0.1,0.4-0.1,0.2-0.2c-0.4,0.3-1-0.3-1.6-0.2c-0.3-0.1,0-0.3-0.3-0.4c-0.7,0.2-0.7-0.3-1.5-0.1
			c0.2,0.2,0.2,0.2-0.3,0.4l1.2-0.1l-0.8,0.3c0.4,0,0.8-0.1,1-0.1c-0.4,0.2-0.3,0.1-0.2,0.3c-0.5-0.4-1,0.2-1.5-0.1l0-0.6
			c-0.8-0.3-1.5,0.3-2.6,0.1l0.4,0.1c-0.2,0.2-0.7,0-1,0.1c0-0.2-0.2-0.3-0.3-0.4c0,0.1-0.8,0-0.9,0.4l-0.5-0.3
			c-0.9-0.1-1,0.5-1.9,0.5c0.3-0.2-0.1-0.4,0.5-0.5c-0.3,0-0.5,0-0.5,0.1c-0.2-0.1-0.8,0.2-1.1,0.1c-0.1,0.1-0.2,0.3-0.5,0.3
			c0,0,0-0.1,0-0.1c0,0.1-0.5,0.1-0.2,0.3c-0.9-0.6-2.5,0-3.2-0.5c-0.6,0.1-1.4,0.1-1.9,0.1c0-0.1,0-0.1,0.1-0.1
			c-0.8-0.2-0.5,0.6-1.4,0.3c-0.4-0.3,0.5-0.2,0.2-0.3c-0.1-0.7-1.1,0.1-1.7-0.3l0.1,0c-0.5-0.2-1.1,0.2-1.9,0.2c0,0,0-0.1,0-0.1
			c-0.5,0.3-1.5,0.4-2.2,0.5c0.2-0.3,0.3-0.1,0.2-0.4c-0.3,0,0.1,0.4-0.6,0.5c-0.2-0.1-0.7-0.3-0.7-0.5l0.6,0
			c-0.3-0.4-0.8,0-1.1-0.1l0-0.2c-0.9,0-1,0.4-1.9,0.4l0.1,0.1c-0.6,0.4-0.5-0.2-1,0.1l-0.2-0.4c-0.4,0.1-1.3,0.4-1.9,0.4
			c0.4-0.3,1.1-0.4,1.6-0.6c-0.4,0-1.2,0-1.4,0.2c0.1,0,0.3-0.1,0.5-0.1c-0.4,0.3-1,0.4-1.7,0.4c0.1-0.8-1.9-0.2-2.4-0.8
			c-1.3,0.3-2.5-0.1-4-0.1c0.5,0.6-0.4,0-0.3,0.6c-0.3,0-0.5,0-0.5,0l-1-0.4c-0.2-0.2,0.3-0.1,0.3-0.3c-0.7-0.1-0.3-0.3-0.8-0.4
			c0.1,0.2-0.3,0.3-0.7,0.2l0.6,0.3c-1,0.3-0.9-0.5-2-0.2l0.3-0.2c-0.5,0.1-2,0-2.5,0.5c-0.1-0.1-0.2-0.2,0-0.3
			c-1.3-0.1-2.9,0.5-3.9,0.2l0.1-0.1c-0.2,0-0.4,0.3-0.7,0.1c0-0.1,0.1-0.1,0-0.2c-0.1,0.1-0.6,0.3-1,0.2l0.3-0.2
			c-1.3-0.2-1.9,0.4-3,0.5c0-0.4-1-0.6-1.5-0.7l0-0.1c-1.5-0.1-2.5,0.4-3.9,0.5c-0.8-0.5-2.9-0.2-4.2-0.5c0.2,0.1,0,0.3-0.3,0.4
			c-0.3-0.1-0.9,0.3-0.8-0.1l0.1,0c-0.2-0.4-0.9-0.3-1.4-0.3L62.1,48c-1.3-0.8-3.5,0.3-4.2-0.4c-0.3,0.1-0.7,0.1-1,0.3l0-0.3
			c-0.9-0.1-1.3-0.1-2.4,0l0.2-0.2c-0.6,0-0.8,0.8-1.4,0.8l-0.2-0.4c-1.1,0-2.2-0.4-3.3,0c0-0.1,0-0.2,0.2-0.2c-0.5,0-2-0.3-1.8,0.3
			c0-0.4-1.1,0-1.7,0.1l0.1-0.3c-0.5,0.4-0.5,0.5-1.2,0.6c-0.2,0-0.1-0.2,0.1-0.2c-0.5-0.1-0.4,0.3-1.1,0.1l0.2-0.2
			c-0.6,0-0.5,0.1-0.8,0.3c-0.4,0.1-1.1-0.1-1.2-0.3c-0.1,0.2-0.4,0.4-0.7,0.3c0-0.1,0.1-0.2,0.1-0.2c-0.9-0.2-1.4,0.3-2,0.1
			C40,48,40,48,39.9,48c0.7,0,1.3,0,1.3,0c0-0.3-0.6-0.3-0.1-0.7c-0.5,0.2-1.3,0.6-1.9,0.5c0,0-0.1,0-0.1-0.1l0.1,0
			c-0.1,0-0.3,0-0.4,0c-0.2,0-0.3-0.1-0.5-0.1c-0.1-0.2-0.7-0.1-1-0.1c0,0.3-0.4,0.2,0,0.5c0,0,0.1,0,0.3,0c0,0,0.1,0,0.1,0l0,0
			c0.2,0,0.5,0,0.7,0c-0.2,0.1-0.5,0.3-0.8,0.1c-0.2,0.2-0.3,0.4-0.4,0.5c-0.4-0.4-1.2-0.6-1.3-0.8c-0.9,0.2-2.2,0.1-2.7,0.6
			c-0.3,0.1-0.3-0.1-0.4-0.2c0.2-0.1,0.3,0,0.4-0.1c-0.5,0.1-1.5,0.1-1.7,0.4c-0.7-0.2,0.4-0.3-0.5-0.3l0.1-0.1
			c-1.8-0.6-2.9,1-4.9,0.2c0.1,0,0.2,0.1,0.2,0.1c-2.3-0.3-4.6,0.3-6.9-0.2c-0.6-0.1-0.7,0.1-1.1,0.3l-0.1-0.3l-0.7,0.4
			c-0.9,0.3-1.6-0.7-2.8-0.2l0.2,0.2c-0.4,0-1.3,0.1-1.3-0.1c0,0-0.1,0.2-0.3,0.1l0-0.2l-1,0.3c-0.8-0.1,0.1-0.6-1.1-0.6
			c-0.4,0.1-1.2,0.5-1.1,0.6c0.2,0,0.5,0.1,0.5,0.3L10.4,49c-0.1,0.5-0.4,0.9,0.6,1.3l0.7-0.3l0.2,0.2l-0.6,0c0.3,0.2,0.5,0,0.8-0.1
			c0.1,0.1,0.2,0.2,0.3,0.2l0.7-0.5c0.1,0.2-0.3,0.4,0.2,0.5c0.3-0.2-0.3-0.4,0.2-0.5c0.3,0.2,0.2,0.4,0.6,0.2
			c0.1,0.1,0,0.2-0.2,0.3c0.3-0.1,0.9-0.1,1.1-0.3c0.3,0.3,1.2-0.1,1.1,0.4c0.1-0.1,0.6-0.4,0.9-0.4c-0.6,0.5,1.2,0,1,0.6
			c0.4-0.5,1.5-0.2,2.3-0.5c0,0-0.1,0.1-0.2,0.1c0.4,0,0.5,0.2,0.8,0.3c0.1-0.4,0.7-0.5,1.1-0.7c0.5,0.4-0.3,0.5-0.1,0.8
			c0-0.3,0.9-0.3,0.7-0.6c0.4,0.2,0.3,0.1,0.6,0.4c0.1-0.5,0.4-0.1,0.7-0.4c0.6,0.2,0.2,0.5,0.8,0.3C24.9,50.3,24.3,50.5,24.3,50.5z
			 M39.4,49.6L39.4,49.6c-0.1,0-0.2,0-0.3,0C39.1,49.6,39.2,49.6,39.4,49.6z M40.6,49.6c-0.2,0-0.3,0-0.5,0c0-0.1,0-0.2,0.1-0.2
			C40.1,49.4,40.4,49.5,40.6,49.6z M38,47.6c0.2,0,0.3,0,0.3,0.1c-0.1,0-0.2,0-0.3,0l0,0C37.9,47.7,37.9,47.7,38,47.6z"/>
		<path class="st1" d="M37.6,48C37.6,48,37.5,48,37.6,48C37.6,48,37.6,48.1,37.6,48l0.1,0C37.7,48,37.6,48,37.6,48z"/>
		<path class="st1" d="M152.2,49.9L152.2,49.9C152.2,49.9,152.2,49.9,152.2,49.9C152.2,49.9,152.2,49.9,152.2,49.9z"/>
		<polygon class="st1" points="58.1,50.1 58.1,50 58,50.1 		"/>
		<path class="st1" d="M159.1,51.1C159.1,51.1,159.1,51.2,159.1,51.1C159.2,51.2,159.1,51.1,159.1,51.1z"/>
		<path class="st1" d="M162.1,51.3l0.4,0.1C162.3,51.3,162.2,51.3,162.1,51.3z"/>
		<path class="st1" d="M164.4,51.5c0,0,0-0.1,0-0.1l0,0L164.4,51.5z"/>
		<path class="st1" d="M127.7,50.8C127.6,50.8,127.6,50.8,127.7,50.8C127.4,50.8,127.5,50.8,127.7,50.8z"/>
		<path class="st1" d="M138.6,50.4c-0.1,0-0.2,0.1-0.4,0.1C138.4,50.5,138.6,50.5,138.6,50.4z"/>
		<polygon class="st1" points="115.4,50.8 115.4,50.8 115.4,50.8 		"/>
		<path class="st1" d="M137.7,50.5c0.2,0.1,0.4,0.1,0.5,0C138.1,50.5,137.9,50.4,137.7,50.5z"/>
		<path class="st1" d="M174.4,52l0.1,0c0,0,0,0,0,0L174.4,52z"/>
		<path class="st1" d="M174.5,51.9l0.1,0C174.6,51.9,174.5,51.9,174.5,51.9z"/>
		<path class="st1" d="M174.9,51.9l-0.3,0.1C174.7,51.9,174.9,51.9,174.9,51.9z"/>
		<path class="st1" d="M171.4,51.7l0,0.1C171.3,51.8,171.3,51.8,171.4,51.7z"/>
		<path class="st1" d="M170.4,51.7c0.2,0,0.5,0.2,0.9,0.2l0-0.1C171.2,52,170.6,51.6,170.4,51.7z"/>
		<path class="st1" d="M166.6,50.3l0.8,0.1c-0.1-0.1-0.3-0.3,0-0.3C166.4,49.8,167.6,50.4,166.6,50.3z"/>
		<path class="st1" d="M164.2,50.1c0.4,0,0-0.2,0-0.2C163.9,50,163.9,50,164.2,50.1z"/>
		<path class="st1" d="M146.7,49.5l0-0.3C146.4,49.3,146.8,49.4,146.7,49.5z"/>
		<polygon class="st1" points="143.3,50.8 143.7,50.9 143.8,50.7 		"/>
		<polygon class="st1" points="141.4,48.9 141.6,48.8 141,48.9 		"/>
		<path class="st1" d="M112.1,48.3l0.1,0.3C112.4,48.6,112.5,48.2,112.1,48.3z"/>
		<path class="st1" d="M99.4,48.4c-0.1-0.2-0.5-0.3-0.7-0.1C99,48.3,99.3,48.4,99.4,48.4z"/>
		<polygon class="st1" points="61.4,47.6 61.7,47.5 61.2,47.5 		"/>
	</g>
</g>
</svg>
