<?xml version="1.0" encoding="utf-8"?>
<!-- Generator: Adobe Illustrator 19.1.0, SVG Export Plug-In . SVG Version: 6.00 Build 0)  -->
<svg version="1.1" id="Layer_1" xmlns="http://www.w3.org/2000/svg" xmlns:xlink="http://www.w3.org/1999/xlink" x="0px" y="0px"
	 viewBox="0 0 215 55" style="enable-background:new 0 0 215 55;" xml:space="preserve">
<style type="text/css">
	.st0{fill:none;}
	.st1{fill:#202020;}
</style>
<g>
	<g>
		<g>
			<path d="M51.4,26v1.6c0,1.9,1.6,3.4,3.4,3.4h2.7c2,0,3.5-1.3,3.5-3c0-5.5-13.2-6.7-13.2-14.3c0-3.9,3.1-6.6,7.4-6.6h1.9
				c4.1,0,7.5,3.3,7.5,7.4v1.2h-4v-1.2c0-1.9-1.6-3.4-3.5-3.4h-1.9c-2.2,0-3.4,1-3.4,2.6C51.8,18,65,19.6,65,28c0,4-3.2,7-7.5,7
				h-2.7c-4.1,0-7.4-3.3-7.4-7.4V26H51.4z"/>
			<path d="M89,14.3v2.4c0,4-3.2,7.2-7.2,7.2h-6.4v11.2h-4v-28h4h6.4C85.8,7.1,89,10.3,89,14.3z M85,14.3c0-1.8-1.4-3.2-3.2-3.2
				h-6.4v8.8h6.4c1.8,0,3.2-1.4,3.2-3.2V14.3z"/>
			<path d="M102.6,35.1c-4,0-7.2-3.3-7.2-7.2V14.3c0-4,3.2-7.2,7.2-7.2h3.2c4,0,7.2,3.2,7.2,7.2v13.6c0,4-3.2,7.2-7.2,7.2H102.6z
				 M109,27.8V14.3c0-1.8-1.4-3.2-3.2-3.2h-3.2c-1.8,0-3.2,1.4-3.2,3.2v13.6c0,1.8,1.4,3.2,3.2,3.2h3.2C107.6,31,109,29.6,109,27.8z
				"/>
			<path d="M137,11.1h-6.8v24h-4v-24h-6.8v-4h10.8h6.8V11.1z"/>
			<path d="M154.2,11.1v20h6.8v4h-10.8h-6.8v-4h6.8v-20h-6.8v-4h10.8h6.8v4H154.2z"/>
			<path d="M171.4,11.1v8.5h12v4h-12v11.5h-4V19.6V7.1H185v4H171.4z"/>
			<path d="M209,7.1v9.1l-6.8,8.9v10h-4v-10l-6.8-8.4V7.1h4v8.2l4.7,5.9h0.1l4.8-6.3V7.1H209z"/>
		</g>
		<g>
			<path class="st0" d="M22.8,3.1c-8.8,0-16,7.2-16,16s7.2,16,16,16s16-7.2,16-16S31.6,3.1,22.8,3.1z M29.5,26.3
				c-0.2,0.3-0.5,0.5-0.9,0.5c-0.2,0-0.4-0.1-0.6-0.2c-1.7-1.1-4.6-1.9-7.1-1.9c-2.6,0-4.5,0.6-4.5,0.6c-0.5,0.2-1.1-0.1-1.3-0.7
				c-0.2-0.5,0.1-1.1,0.7-1.3c0.1,0,2.3-0.7,5.2-0.7c2.4,0,5.8,0.7,8.2,2.3C29.7,25.1,29.9,25.8,29.5,26.3z M31.6,22
				c-0.2,0.4-0.6,0.6-1,0.6c-0.2,0-0.4-0.1-0.6-0.2c-3.1-1.9-6.3-2.4-9.1-2.3c-3.1,0-5.6,0.6-5.7,0.6c-0.6,0.2-1.3-0.2-1.5-0.8
				c-0.2-0.6,0.2-1.3,0.8-1.5c0.2-0.1,2.7-0.7,6.1-0.7c3.1,0,7,0.4,10.6,2.7C31.8,20.7,32,21.4,31.6,22z M33.7,17
				c-0.3,0.4-0.7,0.7-1.2,0.7c-0.2,0-0.5-0.1-0.7-0.2c-3.6-2.1-8.1-2.6-11.1-2.6c0,0,0,0,0,0c-3.7,0-6.6,0.7-6.6,0.7
				c-0.7,0.2-1.5-0.3-1.7-1c-0.2-0.7,0.3-1.5,1-1.7c0.1,0,3.2-0.7,7.2-0.7c0,0,0,0,0,0c3.4,0,8.4,0.5,12.5,3
				C33.9,15.5,34.1,16.3,33.7,17z"/>
			<g>
				<path class="st1" d="M33.3,16.7c0,0.1,0.2,0.1,0.2,0.1L33.3,16.7L33.3,16.7z"/>
				<path class="st1" d="M33.8,16.6c-0.1-0.1-0.3-0.2-0.5-0.2c0.2,0.1,0.1,0.1,0.4,0.2c0,0.1-0.1,0.1-0.2,0c0.1,0-0.1,0.1,0.1,0.1
					c0.2,0,0.3-0.1,0.1-0.2C33.7,16.5,33.8,16.5,33.8,16.6z"/>
				<path class="st1" d="M28.7,12.8L28.7,12.8C28.7,12.9,28.7,12.8,28.7,12.8z"/>
				<path class="st1" d="M24.6,11.9C24.6,11.9,24.7,11.9,24.6,11.9C24.6,11.8,24.6,11.9,24.6,11.9z"/>
				<path class="st1" d="M23.9,11.5C23.9,11.5,23.9,11.5,23.9,11.5C23.9,11.5,23.9,11.5,23.9,11.5z"/>
				<path class="st1" d="M28.7,12.8l-0.1-0.1C28.6,12.8,28.7,12.8,28.7,12.8z"/>
				<path class="st1" d="M33.2,16C33.2,16,33.2,16,33.2,16L33.2,16L33.2,16z"/>
				<path class="st1" d="M30.6,13.2L30.6,13.2C30.6,13.2,30.6,13.2,30.6,13.2L30.6,13.2z"/>
				<path class="st1" d="M31.9,13.8c0,0-0.1,0.2-0.2,0.2c0.1-0.1,0.1-0.1,0.1-0.1C31.9,13.9,31.9,13.8,31.9,13.8z"/>
				<path class="st1" d="M33.7,15.3L33.7,15.3C33.8,15.3,33.8,15.3,33.7,15.3z"/>
				<path class="st1" d="M29.6,12.8C29.6,12.8,29.6,12.8,29.6,12.8C29.6,12.8,29.6,12.8,29.6,12.8z"/>
				<path class="st1" d="M32.4,16.7C32.4,16.7,32.4,16.7,32.4,16.7C32.4,16.7,32.4,16.7,32.4,16.7z"/>
				<polygon class="st1" points="33.7,17 33.7,17.1 33.8,17.1 				"/>
				<path class="st1" d="M22.6,11.2L22.6,11.2C22.6,11.1,22.6,11.1,22.6,11.2z"/>
				<path class="st1" d="M11.9,15.5c0-0.3,0.4,0.1,0.4-0.2C12.2,15.4,11.8,15.2,11.9,15.5z"/>
				<path class="st1" d="M33.2,15.9C33.2,15.9,33.2,15.9,33.2,15.9C33.2,15.9,33.2,15.9,33.2,15.9z"/>
				<path class="st1" d="M12.3,15.3L12.3,15.3L12.3,15.3C12.3,15.3,12.3,15.3,12.3,15.3z"/>
				<path class="st1" d="M19.5,11.2C19.5,11.3,19.5,11.3,19.5,11.2C19.6,11.3,19.6,11.3,19.5,11.2z"/>
				<path class="st1" d="M21.8,11.5L21.8,11.5C21.8,11.5,21.8,11.5,21.8,11.5z"/>
				<path class="st1" d="M18.4,11.6C18.3,11.6,18.3,11.6,18.4,11.6C18.3,11.6,18.3,11.6,18.4,11.6C18.3,11.6,18.3,11.6,18.4,11.6z"
					/>
				<polygon class="st1" points="17.1,11.7 17.2,11.7 17.2,11.7 				"/>
				<path class="st1" d="M29.3,15.4c0,0.1,0,0.1,0,0.2C29.3,15.4,29.5,15.4,29.3,15.4z"/>
				<path class="st1" d="M33.3,15.9C33.2,15.9,33.2,15.9,33.3,15.9L33.3,15.9C33.2,15.9,33.3,15.9,33.3,15.9z"/>
				<path class="st1" d="M18.4,13.3l-0.2,0C18.3,13.3,18.4,13.3,18.4,13.3z"/>
				<path class="st1" d="M20.5,14L20.5,14C20.5,14,20.5,14,20.5,14z"/>
				<path class="st1" d="M17.7,13.3c0-0.1-0.1-0.1-0.1-0.1c0,0,0,0,0,0.1L17.7,13.3z"/>
				<path class="st1" d="M29.3,15.6L29.3,15.6L29.3,15.6z"/>
				<path class="st1" d="M30.7,15.6c-0.2-0.1-0.2,0.2-0.3,0.3c-0.2,0,0-0.2,0-0.4c-0.2,0-0.4,0.2-0.5,0.2c0,0,0-0.1,0-0.1
					c-0.2,0.2-0.4-0.1-0.7,0.1c0,0,0-0.1,0-0.1c0,0.1-0.1,0.3-0.1,0.4c-0.1,0-0.2,0.1-0.2-0.1c0,0,0.1,0,0.1-0.1l-0.1,0
					c0-0.3,0.1,0,0.2-0.2c-0.2,0-0.4,0.2-0.6,0.1c0.1-0.3,0.3,0,0.2-0.3l0.2,0.2c0-0.4,0.1,0.1,0.1-0.4c-0.2-0.2-0.3,0-0.6-0.1
					c-0.1,0.1,0,0.2-0.1,0.3c-0.4,0.1-0.1-0.7-0.5-0.5c-0.1,0.1-0.2,0.4-0.4,0.2l0.1-0.3c-0.2-0.1-0.2,0.4-0.5,0.1
					c0.1-0.1,0.2,0,0.2-0.1c-0.1-0.3-0.2,0.1-0.3,0.1l0-0.3c-0.3,0-0.6,0.1-0.9,0.1c0-0.1,0.1-0.1,0-0.2c-0.4,0.1-0.8-0.2-1.2-0.4
					L25,14.4c0,0,0-0.1,0-0.1c-0.1-0.1,0,0.1-0.1,0.2c-0.1,0-0.1-0.1,0-0.2c-0.3,0.1-0.8,0.3-1,0l0.1-0.1c-0.2-0.1-0.3,0.4-0.5,0.2
					l0,0c-0.4-0.1-1,0-1.3-0.3c-0.1,0.3-0.4-0.2-0.5,0.3c-0.3-0.2-0.2-0.3-0.5-0.5c-0.1,0-0.2,0.3-0.3,0.3l0-0.2l-0.2,0.2L20.6,14
					L20.5,14c0,0,0.1,0.1,0.1,0.2c-0.2,0.1-0.4-0.2-0.4-0.3l-0.4,0.2c0-0.1,0.1-0.1,0.1-0.2c-0.2,0.2,0-0.2-0.2,0c0,0.1,0,0.1,0,0.2
					C19.5,14,19.3,14,19.1,14l0-0.2c-0.3,0-0.7,0.1-1,0.1c0.1,0.1,0.1,0.3,0,0.4l-0.1-0.2c-0.1,0.2,0.1,0.1,0,0.3
					c-0.1,0-0.1-0.3,0-0.4l-0.2,0.1c0-0.1,0-0.1,0-0.2c-0.1,0.2-0.3-0.2-0.4,0l0-0.1c-0.3,0-0.5,0.1-0.8,0.2c0,0.2-0.1,0.2-0.2,0.4
					c-0.2,0-0.5-0.2-0.7-0.1c-0.2,0.1,0,0.2-0.1,0.3c0-0.2-0.3-0.1-0.2-0.3c-0.3,0.1-0.4,0.1-0.7,0.3c0.1,0.1,0.1,0.1,0.1,0.2
					c-0.1,0-0.2-0.1-0.2-0.1l0,0c-0.2,0.2-0.5,0.1-0.7,0c-0.1,0-0.1,0-0.2,0c0,0-0.1,0-0.1,0c0,0,0,0,0,0c0,0-0.1,0-0.1,0.1l0,0
					c0,0-0.2,0.2-0.2,0.2c-0.1-0.1,0.1-0.1,0.1-0.3c-0.1,0.1-0.2,0.1-0.2,0c0-0.1,0-0.1-0.2-0.1c0.2-0.2,0.2-0.2,0.1-0.3
					c-0.1,0-0.1-0.1,0.1-0.1l-0.1,0c-0.1-0.1,0.1,0,0.1,0c-0.1,0-0.1,0-0.2,0c0-0.1,0.1-0.3,0.3-0.3c0,0,0.1,0,0.1,0
					c0,0,0.1,0,0.2,0c0.2,0,0.4,0,0.5,0c0.3,0,0-0.7,0.4-0.4l0,0.3c0.5-0.4,1-0.2,1.5-0.5c0,0.1,0,0.1-0.1,0.1
					c0.1,0.2,0.4,0,0.4-0.2c0.1,0,0,0.1,0.1,0.2c0.1,0.1,0.2-0.3,0.3-0.1c0,0,0,0.1,0,0.1c0.1-0.1,0.3,0,0.2-0.2
					c0.2,0.1,0.4-0.1,0.5,0c0.1-0.2,0.3,0.1,0.3-0.2c0,0.3,0.4,0.3,0.5,0.1c0,0.1,0.1,0.1,0.1,0.2c0.1,0,0.3-0.1,0.2-0.3
					c0.3,0.4,0.5-0.4,0.7,0.2c0.4-0.2,0.8-0.3,1.1-0.4c0,0.3-0.4,0-0.4,0.4c0.3-0.1,0.5-0.4,0.9-0.4c0.1,0-0.1,0.1-0.1,0.2
					c0.3-0.1,0.7,0,1-0.1c0,0,0,0.1-0.1,0.1c0.1,0,0.1,0.1,0.1-0.1l-0.1,0c-0.1-0.2,0.3-0.5,0.3-0.6c-0.1,0.4,0.3,0.1,0.1,0.7
					c0,0,0.1-0.1,0.1-0.2c0.1,0,0.1,0.1,0,0.2c0.2-0.1,0.2-0.2,0.4-0.2c0,0.1,0,0.1-0.1,0.2c0.1-0.1,0.2-0.3,0.4-0.2
					c0,0,0,0.1,0,0.1c0.3,0,0.5-0.3,0.8-0.2c-0.1,0.3,0.1,0.1,0.1,0.4l0.2-0.1L24,12.9c0.1,0,0.3-0.2,0.4-0.1l-0.1,0.1l0.3,0
					l-0.1-0.1c0.2-0.1,0-0.4,0.2-0.3c0,0,0.1,0,0.2,0.2l0,0c0.1-0.1,0.2-0.2,0.3-0.1c0,0.1-0.1,0.3-0.1,0.4c0.1-0.2,0.4,0,0.5-0.2
					c0,0.1-0.1,0.2-0.1,0.2l0.1-0.2c0.1,0.1,0.1,0.1,0,0.2c0.2,0.1,0-0.4,0.2-0.2c0,0,0,0-0.1,0.1c0.2,0.1,0.5,0,0.7,0.1
					c0,0.3-0.2,0-0.2,0.3c0.3,0,0.7-0.2,1-0.1l-0.1,0c0.1-0.4,0.2,0.2,0.4,0.1c0,0-0.1,0.2-0.1,0.2c0.2,0.1,0.5,0,0.8,0l-0.1,0.1
					c0.1,0.1,0.3,0.1,0.4,0.2c0.1-0.1,0.1,0,0.1-0.2c0.2,0.7,0.9,0,1.1,0.5c0,0-0.1,0-0.1,0.1l0.3,0c0-0.2,0-0.1,0-0.3
					c0.1-0.1,0.2-0.1,0.3-0.1c-0.2,0.1-0.1,0.3-0.1,0.4c0-0.1,0.1-0.1,0.1-0.2c0,0.3,0.2-0.3,0.3,0l0,0.1c0.1,0,0.2-0.1,0.3,0
					c0,0.2-0.1,0-0.2,0.2c0.1,0,0.4-0.2,0.4,0c-0.1,0-0.1,0-0.2,0c0,0.3,0.1,0.2,0.1,0.3l0,0l0.2,0.2l0-0.1c0.4-0.4,0.3,0.1,0.7-0.2
					c-0.3,0.2-0.1,0.2-0.2,0.4c0,0.1,0.1,0.2,0,0.2c0.2-0.1,0.1,0.2,0.3,0c0,0.1,0.1,0.1,0,0.2c0.1,0,0-0.1,0.1-0.2
					c0.3-0.1,0.3,0.5,0.7,0.3c0.3,0,0.4-0.2,0.7-0.1c0,0.1-0.2,0.1-0.2,0.1c0,0.2,0,0.2,0.2,0.2c-0.1,0-0.1,0.1-0.2,0.1
					c0,0,0.3-0.1,0.2,0.1c-0.1,0-0.2,0-0.3,0c0.1,0,0.2,0.1,0.3,0.2c-0.1,0-0.2,0-0.3,0c0.1,0.1,0.1,0.2,0.3,0.2l0.1-0.1
					c0,0-0.2,0-0.2,0c-0.2-0.1,0.1-0.1,0.1-0.1l0.1,0.1c0.4-0.1-0.1-0.3-0.2-0.4l0.3-0.1c0,0-0.3,0-0.3,0c0.1-0.1,0.2-0.2,0.3-0.1
					c0.1-0.2-0.2,0-0.1-0.2c0,0,0,0,0,0l-0.2,0c0.1,0,0.1-0.2,0.2-0.1c-0.1-0.3-0.5-0.1-0.4-0.3l0,0c-0.3-0.1-0.1,0.2-0.5,0.3
					l0.1-0.6l-0.1,0.2c0,0-0.1-0.1,0-0.1c-0.2,0.1,0,0.1-0.2,0.2c0-0.3-0.4-0.1-0.3-0.5c-0.1,0.1,0.1,0.2-0.1,0.2
					c0.1-0.4-0.2,0-0.2-0.2c0.1-0.2,0.2,0,0.2-0.2c-0.2,0.3-0.2-0.2-0.4-0.2c-0.1,0.2-0.3,0-0.5,0c0-0.1-0.3-0.3-0.4-0.5l0,0
					c-0.1,0.2-0.3,0.1-0.4,0.1c0.1-0.2,0.1-0.2,0.2-0.2l-0.1,0c-0.1,0.1-0.1,0.1-0.2,0.1l0.1-0.2c-0.2-0.1-0.4,0.1-0.6-0.1
					c-0.1,0.2,0,0.6-0.3,0.6c0-0.1,0.1-0.3,0.1-0.3c0,0-0.1,0.1-0.1,0l0.1-0.1c-0.1-0.1-0.1,0.1-0.2,0.1c0-0.1,0-0.1,0-0.2
					c0,0,0,0.1,0.1,0c-0.1-0.1-0.2-0.2-0.2-0.3c0,0.1-0.1,0.2-0.1,0.2c-0.2,0,0-0.2-0.1-0.3c-0.1,0.1-0.1,0-0.2,0.2c0,0,0-0.1,0-0.2
					c-0.1,0.1-0.4-0.1-0.4,0.2l0,0l0,0l0,0l0,0c-0.3,0.1-0.6-0.3-0.9-0.3l0-0.1c-0.2,0-0.4,0-0.5,0.1c-0.1,0-0.1-0.2,0-0.2
					c-0.1,0-0.2,0.1-0.3-0.1c0.2-0.1,0-0.1,0.2-0.1c-0.2-0.1-0.2-0.2-0.4-0.1c0.1-0.2-0.1-0.3-0.2-0.2l0.1,0.2c-0.1,0-0.2,0-0.3-0.1
					l0.1-0.2c-0.3-0.4-0.7,0.4-0.9-0.1c-0.1,0.2,0.2,0.2,0.1,0.3c-0.2-0.1-0.3-0.4-0.3-0.4c-0.2-0.2-0.3,0.3-0.5,0.2
					c0,0.1,0,0.3-0.2,0.4c-0.2-0.1-0.2-0.4,0-0.5c0,0,0.1,0,0.1,0.1c0.1,0,0.1-0.1,0.1-0.2l0,0.1c-0.1-0.1-0.3-0.1-0.2-0.3
					c-0.1,0.1-0.1,0.1,0,0.2c-0.2-0.2-0.3,0-0.5-0.1c0,0.1,0.1,0.2,0,0.2c-0.3-0.1-0.2,0.2-0.4,0.2c-0.1-0.1,0.1-0.3-0.2-0.2
					c-0.1-0.1,0-0.2,0.1-0.3c-0.2,0.2-0.4-0.1-0.5-0.2l0.1-0.1c-0.1,0-0.1,0-0.2,0l0,0.2c-0.1,0-0.1,0-0.1-0.1
					c-0.1,0.1,0,0.3-0.1,0.4c-0.1-0.1-0.3,0.1-0.3-0.2c0.3,0.1,0-0.2,0.2-0.3c0,0-0.1,0-0.2,0c0,0,0,0,0-0.1
					c-0.2-0.2-0.1,0.3-0.4,0.2c0-0.1,0-0.3-0.1-0.2c0.1,0,0,0.2-0.1,0.3c-0.2-0.1-0.2,0.1-0.3,0.1l0.1,0.1c0,0.1-0.1,0.1-0.2,0.2
					c0-0.1,0.1-0.1,0.1-0.1c-0.1,0.2-0.3-0.3-0.5-0.1c-0.1-0.1,0-0.3-0.1-0.3c-0.2,0.2-0.2-0.2-0.4,0c0.1,0.2,0.1,0.1-0.1,0.3
					l0.3-0.1l-0.2,0.3c0.1,0,0.2-0.1,0.3-0.1c-0.1,0.1-0.1,0.1,0,0.2c-0.1-0.3-0.3,0.2-0.4,0l0-0.4c-0.2-0.2-0.4,0.2-0.8,0.1
					l0.1,0.1c0,0.2-0.2,0-0.3,0.1c0-0.1-0.1-0.2-0.1-0.3c0,0.1-0.2,0-0.3,0.3l-0.1-0.2c-0.3-0.1-0.3,0.4-0.5,0.4
					c0.1-0.2-0.1-0.3,0.1-0.4c-0.1,0-0.2,0-0.2,0.1c-0.1-0.1-0.2,0.2-0.3,0.1c0,0.1,0,0.2-0.1,0.2c0,0,0-0.1,0-0.1
					c0,0.1-0.1,0.1,0,0.3c-0.3-0.4-0.7,0.1-1-0.3c-0.2,0.1-0.4,0.1-0.5,0.2c0,0,0-0.1,0-0.1c-0.2-0.1-0.1,0.4-0.4,0.3
					c-0.2-0.2,0.1-0.1,0-0.2c-0.1-0.5-0.3,0.1-0.5-0.2l0,0c-0.2-0.1-0.3,0.2-0.5,0.2c0,0,0,0,0-0.1c-0.1,0.3-0.4,0.4-0.6,0.5
					c0-0.2,0.1-0.1,0-0.3c-0.1,0,0.1,0.3-0.1,0.4c-0.1-0.1-0.2-0.2-0.3-0.4l0.2,0c-0.1-0.2-0.2,0-0.3,0l0-0.1
					C14,12,14,12.3,13.7,12.4l0,0.1c-0.1,0.3-0.2-0.1-0.3,0.1l-0.1-0.3c-0.1,0.1-0.4,0.4-0.5,0.5c0-0.3,0.2-0.5,0.4-0.6
					c-0.1,0-0.5,0.2-0.5,0.3c0-0.1,0.1-0.2,0.1-0.1c-0.1,0.3-0.2,0.5-0.4,0.6c-0.2-0.2-0.3-0.1-0.5,0c-0.2,0.2-0.3,0.4-0.5,0.4
					c0,0.3-0.1,0.6-0.1,0.8c0,0.3,0,0.6,0.1,0.9c0.3-0.4,0.1,0.2,0.5-0.1c0.1,0.1,0.1,0.1,0.1,0.2c0,0,0.1,0.5,0.1,0.5
					c0,0.2-0.2,0-0.2,0.1c0.2,0.3,0,0.2,0.1,0.5c0.1-0.2,0.2-0.1,0.4,0c0,0-0.1-0.3-0.1-0.3c0.5,0,0.2,0.6,0.8,0.5l-0.2,0.1
					c0.3,0,1.1,0.1,1.2-0.3c0,0,0.1,0.2,0,0.2c0.3,0,0.7-0.5,1-0.4l0,0.1c0.1,0,0.1-0.2,0.2-0.1c0,0,0,0.1,0,0.1
					c0,0,0.1-0.2,0.2-0.2l-0.1,0.1c0.4,0.1,0.5-0.4,0.8-0.5c0,0.3,0.3,0.4,0.5,0.4l0,0c0.4,0,0.7-0.3,1-0.5c0.3,0.3,0.8,0.1,1.2,0.3
					c-0.1-0.1,0-0.3,0.1-0.3c0.1,0.1,0.2-0.2,0.2,0.1l0,0c0.1,0.3,0.3,0.2,0.4,0.2l0-0.4c0.4,0.6,1-0.2,1.2,0.3
					c0.1-0.1,0.2-0.1,0.3-0.2l0,0.2c0.2,0.1,0.4,0.1,0.7,0.1l-0.1,0.1c0.2,0,0.2-0.6,0.4-0.6l0,0.3c0.3,0,0.6,0.3,0.9,0
					c0,0,0,0.1-0.1,0.1c0.1,0,0.5,0.3,0.5-0.2c0,0.3,0.3,0.1,0.5,0l0,0.2c0.2-0.2,0.2-0.3,0.4-0.4c0,0,0,0.2,0,0.1
					c0.1,0.1,0.1-0.2,0.3,0l-0.1,0.1c0.2,0,0.1,0,0.3-0.2c0.1-0.1,0.3,0.1,0.3,0.3c0-0.1,0.1-0.3,0.2-0.2c0,0.1,0,0.1-0.1,0.1
					c0.2,0.2,0.4-0.2,0.6,0.1c0,0.1,0,0.1,0,0.1c-0.2,0-0.4-0.1-0.3-0.1c0,0.2,0.1,0.3-0.1,0.5c0.2-0.1,0.4-0.4,0.6-0.3
					c0,0,0,0,0,0.1l0,0c0,0,0.1,0,0.1,0c0,0,0.1,0.1,0.1,0.1c0,0.2,0.2,0.1,0.2,0.1c0-0.2,0.1-0.2,0.1-0.3c0,0,0,0-0.1,0
					c0,0,0,0,0,0l0,0c-0.1,0-0.1,0-0.2,0c0.1-0.1,0.2-0.2,0.2,0c0.1-0.1,0.1-0.2,0.2-0.3c0,0.3,0.2,0.5,0.2,0.7
					c0.3-0.1,0.6,0.1,0.9-0.3c0.1,0,0,0.1,0.1,0.2c-0.1,0-0.1,0-0.1,0.1c0.2-0.1,0.4,0.1,0.5-0.2c0.1,0.2-0.2,0.2,0.1,0.2l-0.1,0.1
					c0.3,0.6,1-0.4,1.3,0.3c0,0,0-0.1,0-0.1c0.5,0.5,1.3,0.3,1.6,0.9c0.1,0.2,0.2,0,0.4-0.1l-0.1,0.2c0,0,0.3-0.1,0.3-0.1
					c0.2,0,0.2,0.2,0.4,0.3c0.1,0.1,0.3,0.3,0.6,0.1L32.6,18c0.2,0,0.4-0.2,0.5,0c0,0,0-0.2,0.1-0.1l0,0.1c0,0,0.2-0.3,0.2-0.4
					c0.3-0.1,0.2,0.4,0.6,0.1c0.1-0.2,0-0.6-0.1-0.6c0,0.1-0.1,0.1-0.2,0l0-0.1c-0.3-0.2-0.6-0.4-0.8-0.4c0,0,0.1,0.2,0.1,0.2
					l-0.1-0.1l0-0.1c-0.1-0.1,0,0,0,0.1c-0.1-0.1-0.1-0.1-0.1-0.1c0,0,0.1,0.3,0.1,0.3c-0.1-0.1-0.1-0.3-0.2-0.3
					c0,0.2,0.2,0.3,0.1,0.4c-0.1-0.1-0.1-0.3-0.1-0.1c0-0.1,0-0.1,0-0.2c0,0.1-0.1,0.1-0.1,0.3c-0.1-0.2-0.2,0-0.1-0.3
					c0,0.1-0.1,0.2-0.2,0.2c0.2-0.3-0.1-0.1,0.1-0.4c-0.3,0.2-0.5-0.1-0.8,0c0,0,0.1-0.1,0.1,0c-0.1-0.1-0.1-0.2-0.1-0.3
					c-0.1,0.3-0.4,0.2-0.5,0.3c0-0.3,0.2-0.3,0.3-0.5c-0.1,0.2-0.3,0.1-0.4,0.3c0-0.2-0.1-0.1,0-0.4c-0.2,0.3-0.1,0-0.3,0.2
					c-0.1-0.2,0.1-0.3-0.1-0.3C30.5,15.6,30.7,15.6,30.7,15.6z M26.2,14.9L26.2,14.9C26.3,14.9,26.3,14.9,26.2,14.9
					C26.3,14.9,26.3,14.9,26.2,14.9z M25.9,14.8c0,0,0.1,0,0.2,0c0,0.1,0,0.1-0.1,0.1C26,14.9,25.9,14.9,25.9,14.8z M26.3,16.4
					C26.3,16.4,26.3,16.4,26.3,16.4C26.3,16.3,26.3,16.3,26.3,16.4L26.3,16.4C26.4,16.3,26.4,16.4,26.3,16.4z"/>
				<path class="st1" d="M26.5,16.1C26.5,16.1,26.5,16.1,26.5,16.1C26.5,16.1,26.5,16.1,26.5,16.1L26.5,16.1L26.5,16.1z"/>
				<path class="st1" d="M28.8,12.9L28.8,12.9C28.8,12.9,28.8,12.9,28.8,12.9C28.8,12.9,28.8,12.9,28.8,12.9z"/>
				<polygon class="st1" points="20.9,13.9 20.9,14 20.9,14 				"/>
				<path class="st1" d="M30.4,14.2C30.4,14.2,30.4,14.2,30.4,14.2C30.4,14.2,30.4,14.2,30.4,14.2z"/>
				<path class="st1" d="M31.1,14.6l0.1,0.1C31.2,14.6,31.2,14.6,31.1,14.6z"/>
				<path class="st1" d="M31.7,14.9C31.7,14.9,31.7,14.9,31.7,14.9L31.7,14.9L31.7,14.9z"/>
				<path class="st1" d="M21.8,13C21.8,13,21.8,13,21.8,13C21.7,13,21.8,13,21.8,13z"/>
				<path class="st1" d="M24.9,12.7c0,0-0.1,0.1-0.1,0.1C24.8,12.8,24.9,12.8,24.9,12.7z"/>
				<polygon class="st1" points="18.4,13.3 18.4,13.3 18.4,13.3 				"/>
				<path class="st1" d="M24.6,12.8c0,0,0.1,0,0.1,0C24.7,12.8,24.7,12.8,24.6,12.8z"/>
				<path class="st1" d="M33.2,16.3L33.2,16.3C33.2,16.3,33.2,16.3,33.2,16.3L33.2,16.3z"/>
				<path class="st1" d="M33.3,16.3L33.3,16.3C33.3,16.3,33.3,16.3,33.3,16.3z"/>
				<path class="st1" d="M33.3,16.3L33.3,16.3C33.3,16.3,33.3,16.3,33.3,16.3z"/>
				<path class="st1" d="M33.1,15.8L33.1,15.8C33.1,15.8,33.1,15.8,33.1,15.8z"/>
				<path class="st1" d="M33,15.7c0,0-0.1,0.2,0,0.2l0.1,0C33,15.9,33.1,15.6,33,15.7z"/>
				<path class="st1" d="M32.6,14.4l0.2,0.2c0-0.1,0-0.2,0.1-0.2C32.8,14,32.9,14.5,32.6,14.4z"/>
				<path class="st1" d="M32.1,13.9c0.1,0,0-0.1,0.1-0.1C32,13.8,32,13.8,32.1,13.9z"/>
				<path class="st1" d="M27.3,12.3l0.1-0.2C27.2,12.2,27.3,12.2,27.3,12.3z"/>
				<polygon class="st1" points="26.2,13.1 26.2,13.3 26.3,13.1 				"/>
				<polygon class="st1" points="25.8,11.7 25.9,11.7 25.7,11.7 				"/>
				<path class="st1" d="M17.3,11.5l0,0.2C17.4,11.7,17.4,11.4,17.3,11.5z"/>
				<path class="st1" d="M13.8,12.2c-0.1-0.1-0.2-0.2-0.2,0C13.6,12.2,13.7,12.3,13.8,12.2z"/>
				<polygon class="st1" points="19.9,15.8 19.9,15.9 20,15.9 				"/>
			</g>
			<g>
				<path class="st1" d="M31.2,21.7c0,0.1,0.2,0.1,0.2,0.1L31.2,21.7L31.2,21.7z"/>
				<path class="st1" d="M31.7,21.6c-0.1-0.1-0.3-0.2-0.5-0.2c0.2,0.1,0.1,0.1,0.4,0.2c0,0.1-0.1,0.1-0.2,0c0.1,0-0.1,0,0.1,0.1
					c0.2,0,0.2-0.1,0.1-0.2C31.6,21.6,31.7,21.6,31.7,21.6z"/>
				<path class="st1" d="M27.6,18.3L27.6,18.3C27.6,18.3,27.6,18.3,27.6,18.3z"/>
				<path class="st1" d="M24.1,17.4C24.1,17.4,24.1,17.4,24.1,17.4C24.1,17.4,24.1,17.4,24.1,17.4z"/>
				<path class="st1" d="M23.5,17.1C23.5,17.1,23.5,17.1,23.5,17.1C23.5,17.1,23.5,17,23.5,17.1z"/>
				<path class="st1" d="M27.6,18.3l-0.1-0.1C27.5,18.3,27.5,18.3,27.6,18.3z"/>
				<path class="st1" d="M31.1,21.1C31.1,21.1,31.2,21.1,31.1,21.1C31.2,21.1,31.2,21.1,31.1,21.1L31.1,21.1z"/>
				<path class="st1" d="M29.1,18.6L29.1,18.6C29.2,18.6,29.2,18.6,29.1,18.6L29.1,18.6z"/>
				<path class="st1" d="M30.2,19.1c0,0-0.1,0.2-0.2,0.2c0.1-0.1,0.1-0.1,0.1-0.1C30.2,19.2,30.2,19.2,30.2,19.1z"/>
				<path class="st1" d="M31.7,20.5L31.7,20.5C31.8,20.5,31.8,20.5,31.7,20.5z"/>
				<path class="st1" d="M28.3,18.3C28.3,18.3,28.3,18.2,28.3,18.3C28.3,18.2,28.3,18.3,28.3,18.3z"/>
				<path class="st1" d="M30.6,21.6C30.6,21.6,30.6,21.6,30.6,21.6C30.6,21.6,30.6,21.6,30.6,21.6z"/>
				<polygon class="st1" points="31.7,22 31.7,22 31.8,22.1 				"/>
				<path class="st1" d="M22.4,16.7L22.4,16.7C22.4,16.7,22.4,16.7,22.4,16.7z"/>
				<path class="st1" d="M13.2,20.7c0.1-0.2,0.4,0.1,0.4-0.2C13.5,20.5,13.2,20.4,13.2,20.7z"/>
				<path class="st1" d="M31.1,21.1C31.1,21.1,31.1,21.1,31.1,21.1C31.1,21.1,31.1,21.1,31.1,21.1z"/>
				<path class="st1" d="M13.6,20.4L13.6,20.4L13.6,20.4C13.6,20.4,13.6,20.4,13.6,20.4z"/>
				<path class="st1" d="M19.8,16.8C19.8,16.8,19.8,16.9,19.8,16.8C19.8,16.9,19.8,16.9,19.8,16.8z"/>
				<path class="st1" d="M21.7,17.1L21.7,17.1C21.7,17.1,21.7,17.1,21.7,17.1z"/>
				<path class="st1" d="M18.8,17.2C18.8,17.1,18.8,17.1,18.8,17.2C18.7,17.2,18.8,17.2,18.8,17.2C18.8,17.1,18.8,17.1,18.8,17.2z"
					/>
				<polygon class="st1" points="17.8,17.2 17.8,17.3 17.8,17.3 				"/>
				<path class="st1" d="M28,20.4c0,0.1,0,0.1,0,0.2C28,20.4,28.2,20.4,28,20.4z"/>
				<path class="st1" d="M31.2,21.1C31.2,21.1,31.1,21.1,31.2,21.1L31.2,21.1C31.2,21.1,31.2,21.1,31.2,21.1z"/>
				<path class="st1" d="M18.9,18.8l-0.2,0C18.8,18.8,18.8,18.8,18.9,18.8z"/>
				<path class="st1" d="M20.5,19.2L20.5,19.2C20.5,19.2,20.5,19.2,20.5,19.2z"/>
				<path class="st1" d="M18.3,18.9c0-0.1-0.1-0.1-0.1-0.1c0,0,0,0,0,0.1L18.3,18.9z"/>
				<path class="st1" d="M28,20.6L28,20.6L28,20.6z"/>
				<path class="st1" d="M29.2,20.6c-0.1-0.1-0.2,0.2-0.3,0.3c-0.2,0,0-0.2,0-0.4c-0.1,0-0.3,0.2-0.4,0.2c0,0,0-0.1,0-0.1
					c-0.2,0.2-0.4-0.1-0.6,0.1c0,0,0-0.1,0-0.1c0,0.1-0.1,0.3-0.1,0.4c-0.1,0-0.2,0.1-0.1-0.1c0,0,0.1,0,0.1-0.1l-0.1,0
					c0-0.3,0.1,0,0.2-0.2c-0.2,0-0.4,0.2-0.5,0.1c0.1-0.2,0.3,0,0.2-0.3l0.1,0.2c0-0.4,0.1,0.1,0.1-0.4c-0.2-0.2-0.3,0-0.5-0.1
					c-0.1,0.1-0.1,0.2-0.1,0.3c-0.4,0.1,0-0.7-0.4-0.4c-0.1,0.1-0.2,0.4-0.3,0.2l0.1-0.3c-0.2-0.1-0.2,0.4-0.4,0.1
					c0.1-0.1,0.2,0,0.2-0.1c-0.1-0.3-0.1,0.1-0.3,0.1l0-0.3c-0.2,0-0.5,0.1-0.8,0.1c0-0.1,0.1-0.1,0-0.2c-0.4,0.1-0.7-0.2-1-0.4
					l-0.2,0.2c0,0,0-0.1,0-0.1c-0.1-0.1,0,0.1-0.1,0.2c-0.1,0-0.1-0.1,0-0.2c-0.2,0.2-0.7,0.3-0.9,0.1l0.1-0.1
					c-0.2-0.1-0.2,0.4-0.4,0.2l0,0c-0.4-0.1-0.8,0.1-1.1-0.3c-0.1,0.3-0.4-0.2-0.4,0.3c-0.2-0.2-0.2-0.3-0.5-0.4
					c-0.1,0-0.1,0.3-0.2,0.3l0-0.2l-0.1,0.2l-0.1-0.3l-0.1,0.1c0,0,0.1,0.1,0.1,0.2c-0.1,0.1-0.4-0.2-0.4-0.3l-0.3,0.2
					c0-0.1,0.1-0.1,0.1-0.2c-0.2,0.2,0-0.2-0.2,0c0,0.1,0,0.1,0,0.2c-0.1-0.1-0.3-0.1-0.4-0.1l0-0.2c-0.3,0-0.6,0.1-0.8,0.1
					c0.1,0.1,0.1,0.3,0,0.4l-0.1-0.2c0,0.2,0.1,0.1,0,0.3c-0.1,0-0.1-0.3,0-0.4l-0.1,0.1c0-0.1,0-0.1,0-0.2c0,0.2-0.3-0.2-0.3,0
					l0-0.1c-0.3,0-0.4,0.1-0.7,0.2c0,0.2-0.1,0.2-0.1,0.4c-0.2,0-0.4-0.2-0.6-0.1c-0.1,0.1,0,0.2-0.1,0.3c0-0.2-0.2-0.1-0.2-0.3
					c-0.2,0.1-0.3,0.1-0.6,0.3c0,0.1,0.1,0.1,0.1,0.2c-0.1,0-0.1-0.1-0.2-0.1l0,0c-0.2,0.2-0.4,0.1-0.6,0c-0.3-0.1-0.2-0.2-0.2,0
					l0,0c0,0-0.1,0.2-0.1,0.2c0-0.1,0.1-0.1,0.1-0.3c-0.1,0.1-0.1,0.1-0.1,0.1c0,0,0-0.1-0.1-0.1c0.2-0.2,0.2-0.2,0.2-0.2
					c0,0-0.1-0.1,0.1,0l-0.1,0c-0.1,0,0.1,0,0.1,0c-0.1,0-0.1,0-0.2-0.1c-0.1-0.1,0.1-0.2,0.2-0.1c0,0.1,0.4,0.1,0.7,0.1
					c0.2,0,0-0.7,0.3-0.4l0,0.3c0.4-0.4,0.9-0.1,1.2-0.4c0,0.1,0,0.1,0,0.1c0.1,0.2,0.3,0,0.3-0.2c0.1,0,0,0.1,0.1,0.2
					c0.1,0.1,0.2-0.3,0.3-0.1c0,0,0,0.1,0,0.1c0-0.1,0.3,0,0.2-0.2c0.2,0.1,0.3-0.1,0.4,0c0.1-0.2,0.3,0.1,0.3-0.2
					c0,0.3,0.3,0.3,0.4,0.1c0,0.1,0.1,0.1,0.1,0.2c0.1,0,0.2-0.1,0.2-0.3c0.2,0.4,0.4-0.4,0.6,0.2c0.3-0.2,0.6-0.3,1-0.4
					c0,0.3-0.3,0-0.3,0.4c0.3-0.1,0.5-0.4,0.7-0.4c0.1,0,0,0.1-0.1,0.2c0.3-0.1,0.6,0,0.8-0.1c0,0,0,0.1-0.1,0.1
					c0.1,0,0.1,0.1,0.1-0.1l-0.1,0C21.7,18.2,22,18,22,17.9c-0.1,0.4,0.3,0.1,0.1,0.7c0,0,0.1-0.1,0.1-0.2c0,0,0.1,0.1,0,0.2
					c0.2-0.1,0.1-0.2,0.3-0.2c0,0.1,0,0.1-0.1,0.2c0.1-0.1,0.2-0.3,0.3-0.2c0,0,0,0.1,0,0.1c0.2,0,0.4-0.4,0.7-0.2
					c-0.1,0.3,0.1,0.1,0.1,0.4l0.1-0.1l0-0.1c0.1,0,0.3-0.2,0.4-0.1l-0.1,0.1l0.2,0l-0.1-0.1c0.1-0.1,0-0.4,0.2-0.3
					c0,0,0.1,0,0.2,0.2l0,0c0.1-0.1,0.2-0.2,0.2-0.1c0,0.1-0.1,0.3-0.1,0.4c0.1-0.2,0.3,0,0.4-0.3c0,0.1-0.1,0.2-0.1,0.2l0.1-0.2
					c0,0.1,0.1,0.1,0,0.2c0.2,0.1,0-0.4,0.2-0.2c0,0,0,0-0.1,0.1c0.2,0.1,0.4,0,0.6,0.1c0,0.3-0.2,0-0.2,0.3c0.3,0,0.6-0.2,0.9-0.1
					l0,0c0.1-0.4,0.1,0.2,0.3,0.1c0,0-0.1,0.2-0.1,0.2c0.2,0.1,0.4,0,0.7,0L27.2,19c0.1,0.1,0.3,0.1,0.3,0.2
					c0.1-0.1,0.1-0.1,0.1-0.2c0.1,0.7,0.8-0.1,0.9,0.5c0,0-0.1,0-0.1,0.1l0.3,0c0-0.2,0-0.1,0-0.3c0.1-0.1,0.2-0.1,0.2-0.1
					c-0.2,0.1-0.1,0.3-0.1,0.4c0-0.1,0.1-0.1,0.1-0.2c0,0.3,0.2-0.3,0.3,0l0,0.1c0.1,0,0.2-0.1,0.3,0c-0.1,0.2-0.1,0.1-0.2,0.2
					c0.1,0,0.4-0.3,0.4,0c-0.1,0-0.1,0-0.2,0c0,0.3,0,0.2,0.1,0.3l0,0l0.1,0.2l0-0.1c0.4-0.4,0.3,0,0.6-0.2C29.9,20,30.1,20,30,20.2
					c0,0.1,0,0.2,0,0.2c0.2-0.1,0.1,0.2,0.3,0c0,0.1,0.1,0.1,0,0.2c0.1,0,0-0.1,0.1-0.2c0.3-0.1,0.2,0.5,0.6,0.3
					c0.2,0,0.4-0.2,0.6-0.1c-0.1,0.1-0.2,0.1-0.2,0.1c0,0.1,0,0.2,0.1,0.2c-0.1,0-0.1,0.1-0.2,0.1c0,0,0.3-0.1,0.2,0.1
					c-0.1,0-0.2,0-0.3,0c0.1,0,0.2,0,0.3,0.1c-0.1,0-0.2,0-0.3,0c0.1,0,0.1,0.1,0.3,0.2l0.1-0.1c0,0-0.2,0-0.2,0
					c-0.2-0.1,0.1-0.1,0.1-0.1l0.1,0.1c0.4-0.1-0.1-0.3-0.1-0.3l0.3-0.1c0,0-0.3,0-0.3,0c0.1-0.1,0.2-0.2,0.3-0.1
					c0.1-0.2-0.1,0-0.1-0.2c0,0,0,0,0,0l-0.1,0c0.1,0,0.2-0.2,0.2-0.1c0-0.1-0.1-0.2-0.2-0.2c-0.1,0-0.1,0-0.1-0.1l0,0
					c-0.3-0.1-0.2,0.2-0.5,0.3l0.2-0.6L31,20c0,0-0.1-0.1,0-0.1c-0.2,0.1,0,0.1-0.2,0.2c0-0.2-0.4-0.1-0.2-0.4
					c-0.1,0.1,0,0.2-0.1,0.2c0.2-0.4-0.2,0-0.2-0.2c0.1-0.2,0.2,0,0.2-0.2c-0.2,0.3-0.2-0.2-0.3-0.2c-0.1,0.2-0.2,0-0.4,0
					c0-0.1-0.2-0.3-0.3-0.4l0,0c-0.1,0.2-0.3,0.1-0.4,0.1c0.1-0.2,0.1-0.2,0.2-0.2l-0.1,0c-0.1,0.1-0.1,0.1-0.2,0.1l0.1-0.2
					c-0.1,0-0.4,0.1-0.5-0.1c-0.1,0.2-0.1,0.6-0.3,0.6c0-0.1,0.1-0.3,0.1-0.3c0,0-0.1,0.1-0.1,0l0.1-0.1c-0.1-0.1-0.1,0.1-0.2,0.1
					c0.1-0.1,0-0.1,0-0.2c0,0,0,0.1,0.1,0c-0.1-0.1-0.1-0.2-0.1-0.3c0,0.1-0.1,0.2-0.1,0.2c-0.1,0,0-0.2,0-0.3
					c-0.1,0.1-0.1,0-0.2,0.2c0,0,0-0.1,0-0.2c-0.1,0.1-0.4-0.1-0.3,0.2l0,0l0,0l0,0l0,0c-0.3,0.1-0.5-0.3-0.7-0.2l0-0.1
					c-0.2,0-0.3,0-0.5,0.1c0,0-0.1-0.2,0-0.2c-0.1,0-0.2,0.1-0.3-0.1c0.1-0.1,0-0.1,0.1-0.1c-0.1-0.1-0.1-0.2-0.3-0.1
					c0.1-0.2-0.1-0.3-0.1-0.2l0.1,0.2c-0.1,0-0.1,0-0.2,0l0.1-0.2c-0.2-0.4-0.6,0.4-0.8-0.1c-0.1,0.2,0.1,0.1,0,0.3
					c-0.1-0.1-0.2-0.4-0.3-0.4c-0.2-0.2-0.2,0.3-0.4,0.2c0,0.1,0,0.3-0.2,0.4c-0.1-0.1-0.1-0.4,0-0.5c0,0,0,0,0,0.1
					c0,0,0.1-0.1,0.1-0.2l0,0.1c-0.1-0.1-0.3-0.1-0.2-0.3c-0.1,0.1-0.1,0.1,0,0.2c-0.2-0.2-0.3,0-0.5-0.1c0,0.1,0,0.2,0,0.2
					c-0.3-0.1-0.1,0.2-0.3,0.2c-0.1-0.1,0.1-0.3-0.1-0.2c-0.1-0.1,0-0.2,0-0.3c-0.2,0.2-0.3-0.1-0.4-0.2l0.1-0.1c-0.1,0-0.1,0-0.1,0
					l0,0.2c-0.1,0-0.1,0-0.1-0.1c-0.1,0.1,0,0.3-0.1,0.4c-0.1-0.1-0.2,0.1-0.2-0.2c0.2,0.1,0-0.2,0.2-0.3c0,0-0.1,0-0.1,0
					c0,0,0,0,0-0.1c-0.2-0.2-0.1,0.3-0.3,0.2c0-0.1,0-0.3-0.1-0.2c0.1,0,0,0.2-0.1,0.3c-0.1-0.1-0.2,0.1-0.2,0.1l0.1,0.1
					c0,0.1-0.1,0.1-0.2,0.2c0-0.1,0.1-0.1,0.1-0.1c-0.1,0.2-0.2-0.2-0.4-0.1c-0.1-0.1,0-0.3-0.1-0.3c-0.2,0.2-0.2-0.2-0.4,0
					c0.1,0.2,0.1,0.1-0.1,0.3l0.3-0.1l-0.2,0.3c0.1,0,0.2-0.1,0.2-0.1c-0.1,0.1-0.1,0.1,0,0.2c-0.1-0.3-0.2,0.2-0.4,0l0-0.4
					c-0.2-0.2-0.4,0.2-0.6,0.1l0.1,0.1c0,0.2-0.2,0-0.2,0.1c0-0.1-0.1-0.2-0.1-0.3c0,0.1-0.2,0-0.2,0.3L19.5,17
					c-0.2-0.1-0.2,0.4-0.4,0.4c0.1-0.2,0-0.3,0.1-0.4c-0.1,0-0.1,0-0.1,0.1c0-0.1-0.2,0.2-0.3,0.1c0,0.1,0,0.2-0.1,0.2
					c0,0,0-0.1,0-0.1c0,0.1-0.1,0.1,0,0.3c-0.2-0.4-0.6,0.1-0.8-0.3c-0.1,0.1-0.3,0.1-0.5,0.2c0,0,0-0.1,0-0.1
					c-0.2-0.1-0.1,0.4-0.3,0.3c-0.1-0.2,0.1-0.1,0-0.2c-0.1-0.5-0.3,0.1-0.4-0.2l0,0c-0.1-0.1-0.2,0.2-0.4,0.2c0,0,0,0,0-0.1
					c-0.1,0.3-0.3,0.4-0.5,0.5c0-0.2,0.1-0.1,0-0.3c-0.1,0,0.1,0.3-0.1,0.4c-0.1-0.1-0.2-0.2-0.2-0.4l0.1,0c-0.1-0.2-0.2,0-0.3,0
					l0-0.1c-0.2,0.1-0.2,0.4-0.4,0.4l0,0.1c-0.1,0.3-0.1-0.1-0.2,0.1l-0.1-0.3c-0.1,0.1-0.3,0.4-0.4,0.5c0-0.1,0-0.2,0.1-0.3
					c0-0.1,0.1-0.1,0.1-0.1l0.1-0.1c-0.1,0-0.4,0.2-0.4,0.3c0,0,0.1-0.1,0.1-0.1c-0.1,0.3-0.1,0.4-0.3,0.6c-0.2-0.2-0.3-0.2-0.5,0
					c-0.1,0.1-0.2,0.3-0.5,0.4c0,0.3-0.1,0.5-0.1,0.8c0,0.3-0.1,0.5,0.1,0.8c0.3-0.4,0.1,0.2,0.5-0.1c0.1,0.1,0.1,0.1,0.1,0.1
					c0,0,0,0.4,0,0.5c0,0.2-0.2,0-0.2,0.1c0.2,0.2,0,0.2,0.1,0.5c0.1-0.2,0.2-0.1,0.4,0c0,0-0.1-0.3-0.1-0.3c0.5,0,0.1,0.6,0.7,0.5
					l-0.2,0.1c0.3,0,0.9,0.2,1.1-0.3c0,0,0.1,0.2,0,0.2c0.3,0,0.6-0.5,0.8-0.3l0,0.1c0,0,0.1-0.2,0.1-0.1c0,0,0,0.1,0,0.1
					c0,0,0.1-0.2,0.2-0.2l0,0.1c0.3,0.1,0.4-0.4,0.6-0.5c0,0.3,0.3,0.4,0.4,0.4l0,0c0.3,0,0.5-0.3,0.8-0.5c0.2,0.3,0.7,0.1,1,0.3
					c-0.1-0.1,0-0.3,0-0.3c0.1,0.1,0.2-0.2,0.2,0.1l0,0c0.1,0.3,0.2,0.2,0.3,0.2l0-0.4c0.3,0.6,0.8-0.2,1,0.3
					c0.1-0.1,0.2-0.1,0.2-0.2l0,0.2c0.2,0.1,0.3,0.1,0.6,0l-0.1,0.2c0.1,0,0.2-0.6,0.3-0.6l0,0.3c0.3,0,0.5,0.3,0.7,0
					c0,0,0,0.1-0.1,0.1c0.1,0,0.4,0.3,0.4-0.2c0,0.3,0.3,0.1,0.4-0.1l0,0.2c0.1-0.2,0.2-0.3,0.3-0.4c0,0,0,0.2,0,0.1
					c0.1,0.1,0.1-0.2,0.3-0.1L24,20.8c0.1,0,0.1,0,0.2-0.2c0.1-0.1,0.2,0.1,0.2,0.3c0-0.1,0.1-0.3,0.2-0.2c0,0.1,0,0.1-0.1,0.1
					c0.2,0.2,0.4-0.2,0.5,0.1c0,0.1,0,0.1,0,0.1c-0.2,0-0.3-0.1-0.3-0.1c0,0.2,0.1,0.2-0.1,0.5c0.1-0.1,0.4-0.4,0.5-0.3
					c0,0,0,0,0,0.1l0,0c0,0,0.1,0,0.1,0c0,0,0.1,0.1,0.1,0.1c0,0.2,0.1,0.1,0.2,0.1c0-0.2,0.1-0.2,0.1-0.3c0,0,0,0-0.1,0
					c0,0,0,0,0,0l0,0c0,0-0.1,0-0.2,0c0.1-0.1,0.2-0.2,0.2,0c0.1-0.1,0.1-0.2,0.2-0.3c0,0.3,0.2,0.5,0.1,0.7
					c0.2-0.1,0.5,0.1,0.7-0.3c0.1,0,0,0.1,0,0.2c0,0-0.1,0-0.1,0.1c0.1-0.1,0.3,0.1,0.5-0.2c0.1,0.2-0.2,0.2,0,0.2L27,21.6
					c0.2,0.5,0.9-0.4,1.1,0.3c0,0,0-0.1,0-0.1c0.4,0.4,1.1,0.3,1.3,0.9c0.1,0.1,0.2,0,0.3-0.1l-0.1,0.2c0,0,0.3-0.1,0.3-0.1
					c0.2,0,0.2,0.1,0.3,0.3c0.1,0.1,0.3,0.3,0.5,0.1l-0.1-0.1c0.1,0,0.4-0.2,0.4,0c0,0,0-0.2,0.1-0.1l0,0.1c0,0,0.2-0.3,0.2-0.3
					c0.2-0.1,0.2,0.4,0.6,0.2c0-0.1,0.1-0.2,0-0.4c0-0.1-0.1-0.2-0.1-0.2c0,0-0.1,0.1-0.2,0l0-0.1c-0.1-0.1-0.3-0.2-0.4-0.3
					c-0.1-0.1-0.3-0.1-0.4-0.2c0,0,0.1,0.2,0.1,0.2l-0.1-0.1l0,0c-0.1-0.1,0,0,0,0.1c-0.1-0.1-0.1-0.1-0.1-0.1c0,0,0.1,0.3,0.1,0.3
					c-0.1-0.1-0.1-0.2-0.2-0.3c0,0.2,0.2,0.3,0.1,0.4c-0.1-0.1-0.1-0.3-0.1-0.1c0-0.1,0-0.1,0-0.2c0,0.1,0,0.1,0,0.2
					c0-0.2-0.1,0-0.1-0.3c0,0.1-0.1,0.2-0.1,0.2c0.2-0.4-0.1-0.1,0.1-0.4c-0.3,0.3-0.4,0-0.6,0c0,0,0.1-0.1,0.1,0
					c-0.1-0.1,0-0.2-0.1-0.3c-0.2,0.2-0.3,0.2-0.5,0.3c0-0.3,0.2-0.3,0.3-0.5c-0.1,0.2-0.3,0.1-0.4,0.3c0-0.2,0-0.1,0-0.4
					c-0.2,0.3-0.1,0-0.3,0.2c0-0.2,0.1-0.3-0.1-0.3C29,20.6,29.2,20.6,29.2,20.6z M25.4,19.9L25.4,19.9
					C25.5,19.9,25.5,19.9,25.4,19.9C25.5,19.9,25.5,19.9,25.4,19.9z M25.1,19.9c0,0,0.1,0,0.1,0c0,0.1,0,0.1-0.1,0.1
					C25.2,20,25.2,19.9,25.1,19.9z M25.4,21.4C25.4,21.4,25.4,21.4,25.4,21.4C25.4,21.4,25.4,21.4,25.4,21.4L25.4,21.4
					C25.4,21.4,25.4,21.4,25.4,21.4z"/>
				<path class="st1" d="M25.6,21.2C25.6,21.2,25.6,21.2,25.6,21.2C25.6,21.2,25.6,21.1,25.6,21.2L25.6,21.2L25.6,21.2z"/>
				<path class="st1" d="M27.6,18.3L27.6,18.3C27.6,18.3,27.6,18.3,27.6,18.3C27.6,18.3,27.6,18.3,27.6,18.3z"/>
				<polygon class="st1" points="20.9,19.1 20.9,19.1 20.9,19.1 				"/>
				<path class="st1" d="M28.9,19.6C28.9,19.6,28.9,19.6,28.9,19.6C28.9,19.6,28.9,19.6,28.9,19.6z"/>
				<path class="st1" d="M29.5,19.9l0.1,0.1C29.5,20,29.5,19.9,29.5,19.9z"/>
				<path class="st1" d="M29.9,20.3C30,20.2,30,20.2,29.9,20.3L29.9,20.3L29.9,20.3z"/>
				<path class="st1" d="M21.7,18.5C21.7,18.5,21.7,18.5,21.7,18.5C21.7,18.6,21.7,18.5,21.7,18.5z"/>
				<path class="st1" d="M24.3,18.2C24.3,18.3,24.2,18.3,24.3,18.2C24.3,18.3,24.3,18.4,24.3,18.2z"/>
				<polygon class="st1" points="18.9,18.8 18.9,18.8 18.9,18.8 				"/>
				<path class="st1" d="M24.1,18.3c0,0,0.1,0,0.1,0C24.2,18.3,24.1,18.3,24.1,18.3z"/>
				<path class="st1" d="M31.1,21.4L31.1,21.4C31.1,21.4,31.2,21.4,31.1,21.4L31.1,21.4z"/>
				<path class="st1" d="M31.2,21.4L31.2,21.4C31.2,21.4,31.2,21.4,31.2,21.4z"/>
				<path class="st1" d="M31.2,21.4L31.2,21.4C31.2,21.4,31.2,21.4,31.2,21.4z"/>
				<path class="st1" d="M31.1,21L31.1,21C31.1,21,31.1,21,31.1,21z"/>
				<path class="st1" d="M31,20.9c0,0-0.1,0.2,0,0.1l0.1,0C31,21.1,31.1,20.9,31,20.9z"/>
				<path class="st1" d="M30.8,19.7l0.1,0.1c0-0.1,0-0.2,0.1-0.2C31,19.3,31,19.8,30.8,19.7z"/>
				<path class="st1" d="M30.4,19.3c0.1,0,0.1-0.1,0.1-0.1C30.4,19.2,30.3,19.2,30.4,19.3z"/>
				<path class="st1" d="M26.4,17.8l0.1-0.2C26.3,17.6,26.4,17.7,26.4,17.8z"/>
				<polygon class="st1" points="25.4,18.6 25.4,18.7 25.5,18.6 				"/>
				<polygon class="st1" points="25.2,17.2 25.2,17.2 25,17.2 				"/>
				<path class="st1" d="M17.9,17l0,0.2C18,17.2,18,17,17.9,17z"/>
				<path class="st1" d="M14.9,17.7c-0.1-0.1-0.2-0.2-0.2,0C14.8,17.7,14.9,17.8,14.9,17.7z"/>
				<polygon class="st1" points="20.1,21 20,21.1 20.2,21 				"/>
			</g>
			<g>
				<path class="st1" d="M29.1,26c0,0.1,0.2,0.1,0.2,0.1L29.1,26L29.1,26z"/>
				<path class="st1" d="M29.6,26c-0.1-0.1-0.3-0.2-0.5-0.2c0.2,0.1,0.1,0.1,0.4,0.2c0,0-0.1,0-0.2,0c0.1,0-0.1,0,0.1,0.1
					c0.2,0.1,0.2,0,0.1-0.1C29.5,25.9,29.6,25.9,29.6,26z"/>
				<path class="st1" d="M26.4,23.1L26.4,23.1C26.4,23.1,26.4,23.1,26.4,23.1z"/>
				<path class="st1" d="M23.6,22.3C23.6,22.3,23.6,22.3,23.6,22.3C23.6,22.2,23.6,22.3,23.6,22.3z"/>
				<path class="st1" d="M23.1,21.9C23.1,21.9,23.1,22,23.1,21.9C23.2,21.9,23.1,21.9,23.1,21.9z"/>
				<path class="st1" d="M26.4,23.1L26.4,23.1C26.3,23.1,26.4,23.1,26.4,23.1z"/>
				<path class="st1" d="M29.1,25.6C29.1,25.6,29.1,25.6,29.1,25.6L29.1,25.6L29.1,25.6z"/>
				<path class="st1" d="M27.7,23.4L27.7,23.4C27.7,23.3,27.7,23.3,27.7,23.4L27.7,23.4z"/>
				<path class="st1" d="M28.6,23.8c0,0-0.1,0.2-0.2,0.2c0.1-0.1,0.1-0.1,0.1-0.1C28.6,23.9,28.6,23.8,28.6,23.8z"/>
				<path class="st1" d="M29.8,25L29.8,25L29.8,25z"/>
				<path class="st1" d="M27,23C27,23,27,23,27,23C27,23,27,23,27,23z"/>
				<path class="st1" d="M28.7,25.7C28.7,25.8,28.7,25.8,28.7,25.7C28.7,25.8,28.7,25.7,28.7,25.7z"/>
				<polygon class="st1" points="29.6,26.3 29.6,26.3 29.7,26.4 				"/>
				<path class="st1" d="M22.2,21.6L22.2,21.6C22.3,21.6,22.2,21.6,22.2,21.6z"/>
				<path class="st1" d="M14.4,25.2c0.1-0.2,0.3,0.1,0.4-0.2C14.8,25,14.5,24.9,14.4,25.2z"/>
				<path class="st1" d="M29.1,25.5C29.1,25.5,29.1,25.5,29.1,25.5C29.1,25.5,29.1,25.5,29.1,25.5z"/>
				<path class="st1" d="M14.9,25L14.9,25L14.9,25C14.9,25,14.9,25,14.9,25z"/>
				<path class="st1" d="M20,21.7C20.1,21.7,20.1,21.7,20,21.7C20.1,21.8,20.1,21.7,20,21.7z"/>
				<path class="st1" d="M21.7,22L21.7,22C21.6,22,21.6,22,21.7,22z"/>
				<path class="st1" d="M19.2,22C19.2,22,19.2,22,19.2,22C19.2,22,19.2,22,19.2,22C19.2,22,19.2,22,19.2,22z"/>
				<polygon class="st1" points="18.4,22.1 18.4,22.2 18.4,22.2 				"/>
				<path class="st1" d="M26.6,24.8c0,0.1,0,0.1,0,0.2C26.7,24.9,26.8,24.9,26.6,24.8z"/>
				<path class="st1" d="M29.2,25.5C29.1,25.5,29.1,25.5,29.2,25.5C29.1,25.5,29.1,25.5,29.2,25.5C29.1,25.5,29.2,25.5,29.2,25.5z"
					/>
				<path class="st1" d="M19.4,23.7l-0.1,0C19.3,23.7,19.3,23.7,19.4,23.7z"/>
				<path class="st1" d="M20.5,23.8L20.5,23.8C20.5,23.8,20.5,23.8,20.5,23.8z"/>
				<path class="st1" d="M18.9,23.8c0-0.1-0.1-0.1-0.1-0.1C18.8,23.6,18.8,23.6,18.9,23.8L18.9,23.8z"/>
				<path class="st1" d="M26.6,25L26.6,25L26.6,25z"/>
				<path class="st1" d="M27.7,24.9c-0.1-0.1-0.2,0.2-0.3,0.3c-0.2,0,0-0.2,0-0.4c-0.1,0-0.3,0.2-0.4,0.2c0,0,0-0.1,0-0.1
					c-0.2,0.2-0.3-0.1-0.5,0.1c0,0,0,0,0-0.1c0,0.1-0.1,0.3-0.1,0.4c-0.1,0-0.2,0.1-0.1-0.1c0,0,0.1,0,0.1-0.1l-0.1,0.1
					c0-0.3,0.1-0.1,0.2-0.2c-0.1,0-0.3,0.2-0.4,0.1c0.1-0.2,0.2,0,0.2-0.3l0.1,0.1c0-0.4,0.1,0.1,0.1-0.4c-0.2-0.1-0.2,0-0.4-0.1
					c-0.1,0.1-0.1,0.2-0.1,0.3c-0.3,0.2,0-0.7-0.3-0.4c-0.1,0.1-0.2,0.4-0.3,0.2l0.1-0.3c-0.2-0.1-0.2,0.4-0.3,0.1
					c0.1-0.1,0.2-0.1,0.1-0.1c-0.1-0.3-0.1,0.1-0.2,0.1l0-0.3c-0.2,0-0.5,0.1-0.7,0.1c0-0.1,0.1-0.1,0.1-0.2
					c-0.3,0.1-0.6-0.2-0.8-0.4l-0.1,0.2c0,0,0-0.1,0-0.1c-0.1-0.1,0,0.1-0.1,0.2c-0.1,0-0.1-0.1,0-0.2c-0.2,0.2-0.6,0.3-0.7,0.1
					l0-0.1c-0.1-0.1-0.2,0.4-0.3,0.2l0,0c-0.3-0.1-0.7,0-0.9-0.3c-0.1,0.3-0.3-0.2-0.3,0.3c-0.2-0.2-0.1-0.3-0.4-0.5
					c-0.1,0-0.1,0.3-0.2,0.3l0-0.2L20.7,24l-0.1-0.3l-0.1,0.1c0,0,0.1,0.1,0.1,0.2c-0.1,0.1-0.3-0.1-0.3-0.3L20,23.9
					c0-0.1,0-0.1,0.1-0.2c-0.1,0.2,0-0.2-0.2,0c0,0.1,0,0.1,0,0.2c-0.1-0.1-0.2-0.1-0.4-0.1l0-0.2c-0.2,0-0.5,0.1-0.7,0.1
					c0.1,0.1,0.1,0.3,0,0.4l-0.1-0.2c0,0.2,0.1,0.1,0,0.3c-0.1,0-0.1-0.3-0.1-0.4l-0.1,0.1c0-0.1,0-0.1,0-0.2c0,0.2-0.2-0.2-0.3,0.1
					l0-0.1c-0.2,0-0.3,0.1-0.5,0.2c0,0.2-0.1,0.2-0.1,0.4c-0.2,0-0.3-0.2-0.5-0.1c-0.1,0.1,0,0.2,0,0.3c-0.1-0.2-0.2-0.1-0.2-0.3
					c-0.2,0.1-0.3,0.1-0.5,0.3c0,0.1,0.1,0.1,0.1,0.2c0,0-0.1,0-0.1-0.1l0,0c-0.1,0.2-0.4,0.1-0.4,0c0-0.1,0-0.2-0.1,0l0,0
					c0,0-0.1,0.2-0.1,0.2c0,0,0.1-0.1,0.1-0.2C16,24.5,16,24.5,16,24.4c0,0,0-0.1-0.1,0c0.1-0.1,0.2-0.1,0.2-0.1c0,0,0,0,0,0l0,0
					l0,0c0,0,0,0,0-0.1c0,0,0,0,0,0c0,0,0,0,0,0c0,0,0.1,0,0.1,0l-0.1,0c-0.1,0,0.1,0,0.1,0c-0.1,0-0.1,0-0.1-0.1
					c-0.1-0.1,0-0.1,0.1,0c0,0,0,0,0,0.1c0,0,0.1,0,0.2,0c0.1,0,0.2,0,0.4,0c0.2,0-0.1-0.7,0.2-0.4l0,0.3c0.3-0.4,0.7-0.1,1-0.5
					c0,0.1,0,0.1,0,0.1c0.1,0.2,0.3,0,0.2-0.2c0.1,0,0,0.1,0.1,0.2c0.1,0.1,0.1-0.3,0.2-0.1c0,0,0,0.1,0,0.1c0-0.1,0.2,0,0.1-0.2
					c0.1,0.1,0.2-0.1,0.3,0c0-0.2,0.2,0.1,0.2-0.2c0,0.3,0.3,0.2,0.3,0.1c0,0.1,0.1,0.1,0.1,0.2c0.1,0,0.2-0.1,0.1-0.3
					c0.2,0.4,0.3-0.4,0.4,0.2c0.3-0.2,0.5-0.3,0.8-0.4c0,0.3-0.3,0-0.3,0.4c0.2-0.1,0.4-0.4,0.6-0.4c0.1,0,0,0.1-0.1,0.2
					c0.2-0.1,0.4,0,0.7-0.1c0,0,0,0.1,0,0.1c0,0,0.1,0.1,0.1-0.1l0,0c-0.1-0.2,0.2-0.5,0.2-0.6c-0.1,0.4,0.2,0.1,0.1,0.7
					c0,0,0.1-0.1,0.1-0.2c0,0,0,0.1,0,0.2c0.2-0.1,0.1-0.2,0.2-0.2c0,0.1,0,0.1-0.1,0.2c0.1-0.1,0.2-0.3,0.3-0.2c0,0,0,0.1,0,0.1
					c0.2,0,0.4-0.3,0.6-0.2c-0.1,0.3,0.1,0.1,0,0.4l0.1-0.1l0-0.1c0.1,0,0.2-0.2,0.3-0.1l-0.1,0.1l0.2,0l-0.1-0.1
					c0.1-0.1,0-0.4,0.2-0.3c0,0,0.1,0,0.1,0.2l0,0c0.1-0.1,0.1-0.2,0.2-0.1c0,0.1-0.1,0.3-0.1,0.4c0.1-0.2,0.2,0,0.4-0.3
					c0,0.1-0.1,0.2-0.1,0.2l0.1-0.2c0,0.1,0,0.1,0,0.2c0.1,0.1,0-0.4,0.2-0.2c0,0,0,0,0,0.1c0.1,0.1,0.3,0,0.5,0.1
					c0,0.3-0.1,0-0.2,0.3c0.2,0,0.5-0.2,0.7-0.1l0,0c0.1-0.4,0.1,0.2,0.3,0.1c0,0-0.1,0.2-0.1,0.2c0.1,0.1,0.3,0,0.6-0.1L26,23.8
					c0.1,0.1,0.2,0.1,0.3,0.2c0.1-0.1,0.1-0.1,0.1-0.2c0.1,0.6,0.6-0.1,0.7,0.4c0,0-0.1,0.1-0.1,0.1l0.2,0c0.1-0.2,0-0.1,0-0.3
					c0.1-0.1,0.2-0.1,0.2-0.1c-0.1,0.1-0.1,0.3-0.1,0.4c0-0.1,0.1-0.1,0.1-0.1c0,0.3,0.2-0.3,0.2-0.1l0,0.1c0.1,0,0.2-0.1,0.2-0.1
					c-0.1,0.2-0.1,0.1-0.2,0.2c0.1,0,0.3-0.3,0.3,0c-0.1,0-0.1,0-0.2,0c0,0.3,0,0.2,0.1,0.3l0,0l0.1,0.2l0-0.1
					c0.3-0.4,0.2,0,0.5-0.2c-0.3,0.2-0.1,0.2-0.2,0.3c0,0.1,0,0.2,0,0.2c0.2-0.1,0,0.2,0.2,0c0,0.1,0.1,0,0,0.2c0.1,0,0-0.1,0.1-0.2
					c0.2-0.1,0.1,0.4,0.4,0.2c0.2,0,0.4-0.2,0.6-0.1c-0.1,0.1-0.2,0.1-0.2,0.1c0,0.1,0,0.1,0.1,0.2c-0.1,0-0.1,0-0.2,0.1
					c0,0,0.3-0.1,0.2,0c-0.1,0-0.2,0-0.3,0c0.1,0,0.2,0,0.3,0.1c-0.1,0-0.2,0-0.3,0c0.1,0,0.1,0.1,0.3,0.2l0.1,0c0,0-0.2,0-0.2,0
					c-0.2-0.1,0.1-0.1,0.1-0.1l0,0c0.4-0.1-0.1-0.2-0.1-0.3l0.3-0.1c0,0-0.3,0-0.3,0c0.1,0,0.2-0.1,0.3-0.1c0.1-0.2-0.1,0,0-0.2
					c0,0,0,0,0,0l-0.1,0c0.1,0,0.2-0.1,0.2-0.1c0-0.3-0.4-0.1-0.3-0.3l0,0c-0.2-0.1-0.2,0.2-0.4,0.3l0.2-0.5l-0.1,0.2
					c0,0,0-0.1,0-0.1c-0.2,0.1,0,0.1-0.2,0.2c0-0.2-0.3-0.1-0.1-0.4c-0.1,0.1,0,0.2-0.1,0.2c0.2-0.4-0.1,0-0.1-0.2
					c0.1-0.2,0.2,0,0.2-0.2c-0.2,0.3-0.1-0.2-0.2-0.1c-0.1,0.2-0.2,0-0.4,0c0-0.1-0.2-0.3-0.2-0.4l0,0c-0.1,0.2-0.2,0.1-0.3,0.2
					c0.1-0.1,0.1-0.2,0.2-0.2l-0.1,0c-0.1,0.1-0.1,0.1-0.2,0.1l0.1-0.2c-0.1,0-0.3,0.1-0.4-0.1c-0.1,0.2-0.1,0.5-0.3,0.6
					c0-0.1,0.1-0.3,0.1-0.3c0,0-0.1,0.1-0.1,0l0.1-0.1c0-0.1-0.1,0.1-0.1,0.1c0.1-0.1,0-0.1,0-0.2c0,0,0,0.1,0.1,0
					c-0.1,0-0.1-0.2-0.1-0.3c0,0.1-0.1,0.2-0.1,0.2c-0.1,0,0-0.2,0-0.3c-0.1,0.1-0.1,0-0.2,0.2c0,0,0-0.1,0-0.2
					c-0.1,0.1-0.3-0.1-0.3,0.2l0,0l0,0l0,0l0,0c-0.3,0.1-0.4-0.2-0.6-0.2l0-0.1c-0.1,0-0.3,0-0.4,0.1c0,0,0-0.2,0-0.2
					c-0.1,0-0.1,0.1-0.2,0c0.1-0.1,0-0.1,0.1-0.1c-0.1-0.1-0.1-0.2-0.3,0c0.1-0.2,0-0.3-0.1-0.2l0.1,0.2c-0.1,0-0.1,0-0.2,0l0.1-0.2
					c-0.2-0.4-0.5,0.4-0.6-0.1c-0.1,0.2,0.1,0.1,0,0.3c-0.1-0.1-0.2-0.4-0.2-0.4c-0.1-0.2-0.2,0.3-0.4,0.2c0,0.1,0,0.3-0.1,0.4
					c-0.1-0.1-0.1-0.4,0-0.5c0,0,0,0,0,0.1c0,0,0.1-0.1,0.1-0.2l0,0.1c0-0.1-0.2-0.1-0.1-0.3c-0.1,0.1-0.1,0.1,0,0.2
					c-0.1-0.1-0.2,0-0.4-0.1c0,0.1,0,0.2,0,0.2C23,22,23,22.3,22.9,22.3c-0.1-0.1,0.1-0.3-0.1-0.2c-0.1-0.1,0-0.2,0.1-0.3
					c-0.2,0.2-0.2-0.1-0.3-0.2l0.1-0.1c0,0-0.1,0-0.1,0l0,0.2c0,0-0.1,0-0.1-0.1c-0.1,0.1,0,0.3-0.1,0.4c0-0.1-0.2,0.1-0.2-0.2
					c0.2,0.1,0-0.2,0.2-0.3c0,0-0.1,0-0.1,0c0,0,0,0,0-0.1c-0.2-0.2-0.1,0.3-0.3,0.2c0-0.1,0-0.3-0.1-0.2c0.1,0,0,0.2,0,0.3
					c-0.1-0.1-0.1,0.1-0.2,0.1l0.1,0.1c0,0.1-0.1,0.1-0.2,0.1c0-0.1,0.1-0.1,0-0.1c-0.1,0.2-0.2-0.2-0.3-0.1c-0.1-0.1,0-0.3-0.1-0.3
					c-0.1,0.2-0.2-0.2-0.3,0c0,0.2,0,0.1-0.1,0.3l0.2-0.1L21,22.1c0.1,0,0.2-0.1,0.2-0.1c-0.1,0.1-0.1,0.1,0,0.2
					c-0.1-0.3-0.2,0.2-0.3,0l0-0.4c-0.2-0.2-0.3,0.2-0.5,0.1l0.1,0.1c0,0.2-0.1,0-0.2,0.1c0-0.1,0-0.2-0.1-0.3c0,0.1-0.2,0-0.2,0.3
					l-0.1-0.2c-0.2-0.1-0.2,0.4-0.3,0.4c0-0.2,0-0.3,0.1-0.4c-0.1,0-0.1,0-0.1,0.1c0-0.1-0.1,0.2-0.2,0.1c0,0.1,0,0.2-0.1,0.2
					c0,0,0-0.1,0-0.1c0,0.1-0.1,0.1,0,0.3c-0.2-0.4-0.5,0.1-0.7-0.3c-0.1,0.1-0.3,0.1-0.4,0.2c0,0,0-0.1,0-0.1
					c-0.2-0.1,0,0.4-0.2,0.3c-0.1-0.2,0.1-0.1,0-0.2c-0.1-0.5-0.2,0.1-0.4-0.2l0,0c-0.1-0.1-0.2,0.2-0.3,0.2c0,0,0,0,0-0.1
					c-0.1,0.3-0.2,0.4-0.3,0.5c0-0.2,0-0.1,0-0.3c-0.1,0,0.1,0.3,0,0.4c-0.1-0.1-0.2-0.2-0.2-0.4l0.1,0c-0.1-0.2-0.2,0-0.2,0l0-0.1
					c-0.2,0.1-0.1,0.4-0.3,0.4l0,0.1c0,0.3-0.1-0.1-0.2,0.1l-0.1-0.3c0,0.1-0.2,0.3-0.3,0.5c0-0.2,0.2-0.4,0.2-0.6
					c-0.1,0-0.3,0.1-0.3,0.3c0,0,0-0.1,0.1-0.1c0,0.3-0.1,0.4-0.2,0.5c-0.2-0.2-0.3-0.2-0.4-0.1c-0.1,0.1-0.2,0.3-0.5,0.3
					c0,0.2-0.1,0.4-0.1,0.6c0,0.1-0.1,0.2-0.1,0.4c0,0.1,0,0.2,0,0.2c0,0,0,0.1,0,0.1c0.4-0.3,0.1,0.2,0.5,0c0.1,0.1,0.1,0.1,0,0.1
					c0,0-0.1,0.4-0.1,0.4c-0.1,0.1-0.1,0-0.2,0c0.1,0.2-0.1,0.2,0,0.4c0.1-0.1,0.2-0.1,0.3,0.1c0,0,0-0.3,0-0.3c0.4,0,0,0.5,0.5,0.5
					l-0.2,0.1c0.2,0,0.8,0.3,1-0.1c0,0.1,0.1,0.2,0,0.2c0.1,0,0.2,0,0.4-0.1c0.2-0.1,0.1-0.1,0.2-0.2c0.1-0.1,0.2-0.2,0.3-0.1l0,0.1
					c0,0,0-0.2,0.1-0.1c0,0,0,0.1,0,0.1c0,0,0.1-0.2,0.1-0.2l0,0.1c0.3,0.1,0.3-0.4,0.5-0.5c0.1,0.3,0.3,0.4,0.4,0.4l0,0
					c0.3,0,0.4-0.3,0.6-0.5c0.2,0.3,0.5,0.1,0.8,0.3c0-0.1,0-0.3,0-0.3c0.1,0.1,0.1-0.2,0.2,0.1l0,0c0.1,0.3,0.2,0.2,0.3,0.2l0-0.4
					c0.3,0.6,0.6-0.2,0.8,0.3c0.1-0.1,0.1-0.1,0.2-0.2l0,0.2c0.2,0.1,0.2,0.1,0.4,0l0,0.2c0.1,0,0.2-0.6,0.3-0.6l0,0.3
					c0.2,0,0.4,0.3,0.6,0c0,0,0,0.1-0.1,0.1c0.1,0,0.3,0.3,0.4-0.2c0,0.3,0.2,0,0.3-0.1l0,0.2c0.1-0.3,0.1-0.3,0.3-0.4
					c0,0,0,0.2,0,0.1c0.1,0.1,0.1-0.2,0.2-0.1l-0.1,0.1c0.1,0,0.1,0,0.2-0.2c0.1-0.1,0.2,0.1,0.2,0.3c0-0.1,0.1-0.3,0.2-0.2
					c0,0.1,0,0.1-0.1,0.1c0.1,0.2,0.3-0.2,0.4,0c0,0.1,0,0.1,0,0.1c-0.1,0-0.2-0.1-0.2-0.1c0,0.2,0.1,0.2-0.1,0.5
					c0.1-0.1,0.3-0.4,0.4-0.3c0,0,0,0,0,0.1l0,0c0,0,0,0,0.1,0c0,0,0,0.1,0.1,0.1c0,0.2,0.1,0.1,0.2,0.1c0-0.2,0.1-0.2,0.1-0.3
					c0,0,0,0-0.1,0c0,0,0,0,0,0l0,0c0,0-0.1,0-0.1,0c0.1-0.1,0.1-0.2,0.2,0c0.1-0.1,0.1-0.2,0.2-0.3c0,0.3,0.1,0.5,0.1,0.7
					c0.2-0.1,0.4,0,0.6-0.3c0.1,0,0,0.1,0,0.2c0,0-0.1,0-0.1,0.1c0.1-0.1,0.3,0.1,0.4-0.2c0.1,0.2-0.1,0.2,0,0.2l0,0.1
					c0.1,0.5,0.8-0.5,0.9,0.2c0,0,0-0.1,0-0.1c0.3,0.4,0.9,0.2,1,0.7c0.1,0.1,0.2,0,0.3-0.1l-0.1,0.2c0,0,0.3-0.1,0.3-0.2
					c0.1,0,0.2,0.1,0.3,0.2c0.1,0.1,0.3,0.2,0.4,0l-0.1-0.1c0.1,0,0.3-0.2,0.3,0c0,0,0-0.2,0-0.1l0,0.1c0,0,0.2-0.3,0.1-0.3
					c0.2-0.1,0.2,0.4,0.5,0.2c0-0.1,0-0.2,0-0.3c0-0.1-0.1-0.2-0.1-0.2c0,0-0.1,0-0.2,0l0-0.1c-0.1-0.1-0.3-0.2-0.4-0.3
					c-0.1,0-0.1-0.1-0.2-0.1c-0.1,0-0.1,0-0.2-0.1c0,0,0.1,0.2,0.1,0.2l-0.1-0.1l0,0c-0.1-0.1,0,0,0,0.1c-0.1-0.1-0.1-0.1-0.1-0.1
					c0,0,0.2,0.3,0.1,0.3c-0.1-0.1-0.1-0.2-0.2-0.3c0.1,0.1,0.2,0.3,0.2,0.4c-0.1-0.1-0.1-0.3-0.1-0.1c0-0.1,0-0.1,0-0.2
					c0,0.1,0,0.1,0,0.2c0-0.2-0.1,0.1-0.1-0.3c0,0.1-0.1,0.3-0.1,0.3c0.1-0.2,0-0.2,0-0.2c0,0,0,0,0,0c0,0,0.1-0.1,0-0.1
					c0,0,0,0.1,0,0.1c0,0,0,0,0,0c-0.1,0-0.1,0-0.1,0c-0.1,0-0.2-0.1-0.3,0c0,0,0.1-0.1,0.1,0c-0.1-0.1,0-0.2,0-0.3
					c-0.2,0.2-0.3,0.2-0.5,0.3c0-0.3,0.2-0.3,0.3-0.5c-0.1,0.2-0.3,0.1-0.4,0.3c0-0.2,0-0.1,0-0.3c-0.2,0.3-0.1,0-0.3,0.2
					c0-0.2,0.1-0.3,0-0.3C27.5,25,27.7,24.9,27.7,24.9z M24.5,24.5L24.5,24.5C24.5,24.5,24.6,24.5,24.5,24.5
					C24.6,24.5,24.6,24.5,24.5,24.5z M24.3,24.5c0,0,0.1,0,0.1,0c0,0.1,0,0.1-0.1,0.1C24.3,24.6,24.3,24.5,24.3,24.5z M24.4,26
					C24.4,26,24.4,26,24.4,26C24.4,25.9,24.4,25.9,24.4,26L24.4,26C24.5,25.9,24.4,26,24.4,26z"/>
				<path class="st1" d="M24.6,25.7C24.6,25.7,24.6,25.7,24.6,25.7C24.6,25.7,24.6,25.7,24.6,25.7L24.6,25.7L24.6,25.7z"/>
				<path class="st1" d="M26.4,23.1L26.4,23.1C26.4,23.1,26.4,23.1,26.4,23.1C26.4,23.1,26.4,23.1,26.4,23.1z"/>
				<polygon class="st1" points="20.8,23.7 20.8,23.7 20.8,23.7 				"/>
				<path class="st1" d="M27.4,24.3C27.4,24.3,27.4,24.3,27.4,24.3C27.4,24.3,27.4,24.3,27.4,24.3z"/>
				<path class="st1" d="M27.9,24.6l0,0.1C27.9,24.6,27.9,24.6,27.9,24.6z"/>
				<path class="st1" d="M28.2,24.9C28.3,24.8,28.3,24.8,28.2,24.9L28.2,24.9L28.2,24.9z"/>
				<path class="st1" d="M21.6,23.4C21.6,23.4,21.6,23.4,21.6,23.4C21.6,23.4,21.6,23.4,21.6,23.4z"/>
				<path class="st1" d="M23.7,23.1C23.7,23.1,23.7,23.2,23.7,23.1C23.7,23.2,23.7,23.2,23.7,23.1z"/>
				<polygon class="st1" points="19.4,23.7 19.4,23.7 19.4,23.7 				"/>
				<path class="st1" d="M23.5,23.2C23.6,23.2,23.6,23.2,23.5,23.2C23.6,23.2,23.6,23.2,23.5,23.2z"/>
				<path class="st1" d="M29.1,25.7L29.1,25.7C29.1,25.7,29.1,25.7,29.1,25.7L29.1,25.7z"/>
				<path class="st1" d="M29.1,25.7L29.1,25.7C29.1,25.7,29.1,25.7,29.1,25.7z"/>
				<path class="st1" d="M29.2,25.8L29.2,25.8C29.1,25.7,29.1,25.7,29.2,25.8z"/>
				<path class="st1" d="M29.1,25.4L29.1,25.4C29,25.5,29.1,25.5,29.1,25.4z"/>
				<path class="st1" d="M29,25.4c0,0-0.1,0.1-0.1,0.1L29,25.4C28.9,25.5,29.1,25.3,29,25.4z"/>
				<path class="st1" d="M29.1,24.3l0.1,0.1c0-0.1,0-0.2,0.1-0.2C29.2,23.9,29.2,24.4,29.1,24.3z"/>
				<path class="st1" d="M28.7,23.9c0.1,0,0.1-0.1,0.1-0.1C28.7,23.8,28.7,23.8,28.7,23.9z"/>
				<path class="st1" d="M25.4,22.7l0.1-0.2C25.4,22.5,25.5,22.5,25.4,22.7z"/>
				<polygon class="st1" points="24.6,23.5 24.6,23.6 24.7,23.4 				"/>
				<polygon class="st1" points="24.5,22.1 24.5,22 24.4,22.1 				"/>
				<path class="st1" d="M18.5,21.9l0,0.2C18.6,22.1,18.6,21.9,18.5,21.9z"/>
				<path class="st1" d="M16.1,22.7c-0.1-0.1-0.2-0.2-0.2,0C16,22.6,16,22.7,16.1,22.7z"/>
				<polygon class="st1" points="20.2,25.6 20.1,25.7 20.2,25.6 				"/>
			</g>
			<g>
				<path class="st1" d="M22.8,2.6c-0.1,0.1,0,0.2,0.1,0.2L23,2.5L22.8,2.6z"/>
				<path class="st1" d="M23.8,3.1c0.2-0.1,0.4-0.3,0.3-0.5c-0.2,0.2-0.2,0.1-0.4,0.4c-0.1,0-0.3-0.1-0.2-0.2
					c-0.1,0.1-0.2-0.1-0.3,0.1c0.2,0.2,0.4,0.2,0.7,0.1C23.8,3,23.8,3,23.8,3.1z"/>
				<path class="st1" d="M35.5,10L35.5,10C35.5,10,35.5,10,35.5,10z"/>
				<path class="st1" d="M38.2,18C38.2,18,38.2,18,38.2,18C38.2,18,38.2,18.1,38.2,18z"/>
				<path class="st1" d="M38,19.5C38,19.5,38,19.4,38,19.5C38,19.4,38,19.5,38,19.5z"/>
				<path class="st1" d="M35.5,10l0.1,0.2C35.7,10.2,35.6,10.1,35.5,10z"/>
				<path class="st1" d="M25.8,2.7c-0.1,0-0.1,0-0.1,0L25.8,2.7L25.8,2.7z"/>
				<path class="st1" d="M32.8,7.4L32.8,7.4c-0.1,0-0.1,0-0.2,0L32.8,7.4z"/>
				<path class="st1" d="M30.4,5.7c0.1,0,0.2-0.1,0.2-0.2c-0.1,0.1-0.1,0.1-0.2,0.1C30.5,5.6,30.5,5.7,30.4,5.7z"/>
				<path class="st1" d="M26.3,3.7L26.3,3.7C26.2,3.7,26.3,3.7,26.3,3.7z"/>
				<path class="st1" d="M34.2,8.8C34.2,8.9,34.2,8.9,34.2,8.8C34.2,8.9,34.2,8.9,34.2,8.8z"/>
				<path class="st1" d="M19.1,2.5C19.1,2.5,19.1,2.5,19.1,2.5C19.1,2.5,19.1,2.5,19.1,2.5z"/>
				<path class="st1" d="M22.8,3.1L22.8,3.1c-0.1,0.1-0.1,0.1-0.1,0.1L22.8,3.1z"/>
				<path class="st1" d="M37.4,22.1C37.4,22,37.4,22,37.4,22.1C37.4,22,37.4,22,37.4,22.1z"/>
				<path class="st1" d="M19.6,33.9c0.2,0.3-0.5,0.1-0.1,0.4C19.4,34.2,19.9,34.1,19.6,33.9z"/>
				<path class="st1" d="M25.9,2.8l0.1,0C26,2.8,25.9,2.8,25.9,2.8z"/>
				<path class="st1" d="M19.4,34.3L19.4,34.3L19.4,34.3C19.5,34.3,19.5,34.3,19.4,34.3z"/>
				<path class="st1" d="M35.2,27.6c0,0,0.1,0,0.1,0C35.3,27.6,35.3,27.6,35.2,27.6z"/>
				<path class="st1" d="M37.5,23.6L37.5,23.6C37.4,23.7,37.5,23.7,37.5,23.6z"/>
				<path class="st1" d="M34,29.6c-0.1,0-0.1,0-0.1,0.1c0,0,0,0,0,0C33.9,29.6,33.9,29.6,34,29.6z"/>
				<path class="st1" d="M32.2,31.2C32.2,31.2,32.2,31.2,32.2,31.2l0.1,0L32.2,31.2z"/>
				<path class="st1" d="M11.9,6.2c0.1,0,0.2,0,0.2,0.1C11.9,6.2,12.2,5.9,11.9,6.2z"/>
				<path class="st1" d="M25.8,2.8C25.8,2.8,25.8,2.8,25.8,2.8L25.8,2.8C25.8,2.8,25.8,2.8,25.8,2.8z"/>
				<path class="st1" d="M35.1,30.8l-0.3,0.3C34.9,31,35,30.9,35.1,30.8z"/>
				<path class="st1" d="M6.6,23.7L6.6,23.7C6.5,23.7,6.5,23.7,6.6,23.7z"/>
				<path class="st1" d="M33.9,32c-0.1,0-0.2,0-0.3,0.1c0,0,0,0,0,0.1L33.9,32z"/>
				<path class="st1" d="M12.1,6.3L12.1,6.3L12.1,6.3z"/>
				<path class="st1" d="M14.1,4.2c-0.4,0.2,0,0.3,0,0.5c-0.4,0.3-0.3-0.1-0.5-0.1c-0.2,0.2-0.3,0.6-0.5,0.7c0,0-0.1,0-0.1-0.1
					c-0.1,0.4-0.8,0.6-0.9,1c0,0-0.1,0-0.1,0c0.1,0.1,0.2,0.2,0.3,0.3c-0.1,0.1-0.1,0.4-0.3,0.3c0.1-0.1,0-0.1,0-0.2L12,6.8
					c-0.3-0.1,0.1-0.2,0-0.4c-0.2,0.3-0.4,0.8-0.6,0.9c-0.2-0.1,0.4-0.5,0-0.4l0.4-0.2c-0.5-0.1,0.2-0.2-0.3-0.3
					c-0.5,0.3-0.4,0.5-0.9,0.9c0,0.2,0.2,0.1,0.2,0.3c-0.4,0.8-0.9,0.1-1.1,0.7C9.8,8.5,10,8.8,9.6,9L9.5,8.7
					C9.1,9.1,9.6,9.2,9.1,9.6c0-0.1,0.2-0.4,0.1-0.4C8.8,9.4,9.2,9.5,9,9.7L8.7,9.6c-0.3,0.5-0.5,1.2-0.7,1.8
					c-0.1-0.1-0.1-0.2-0.2-0.1c-0.1,0.4-0.3,0.8-0.6,1.2c-0.2,0.4-0.4,0.8-0.6,1.1L6.7,14c0,0.1-0.1,0.1-0.2,0
					c-0.2,0.3,0.1,0.1,0.2,0.2c0,0.2-0.2,0.2-0.2,0.1c0,0.6,0,1.6-0.3,2.2l0-0.1c-0.2,0.4,0.4,0.6,0.1,1l0-0.1c-0.2,1,0,2-0.3,2.8
					c0.3,0.1-0.1,1,0.4,1c-0.1,0.6-0.2,0.4-0.3,1.3c0,0.2,0.3,0.3,0.4,0.5l-0.2,0.1l0.3,0.3l-0.2,0.3l0.1,0.2c0-0.1,0-0.2,0.1-0.2
					c0.2,0.3,0.1,0.9,0,1l0.5,0.8C7,25.2,7,25.1,6.9,25c0.4,0.4-0.2,0.2,0.2,0.5c0-0.1,0.1,0,0.2,0c-0.1,0.3,0.2,0.7,0.4,1l-0.2,0
					c0.2,0.7,0.8,1.2,1.1,1.9c-0.1-0.3,0.2-0.4,0.3-0.2l-0.2,0.2c0.2,0,0-0.2,0.3-0.1c0.1,0.2-0.1,0.3-0.3,0.2L9,28.8
					c0,0.1-0.1,0-0.2,0.1c0.2,0,0.2,0.6,0.5,0.6l0,0.1c0.4,0.6,0.8,0.8,1.2,1.3c0.2-0.1,0.3,0.1,0.5,0.1c0.3,0.3,0.5,0.8,1,1.2
					c0.4,0.2,0.2-0.1,0.4-0.1c-0.1,0.2,0.3,0.5,0,0.4c0.6,0.4,0.7,0.5,1.5,0.8c0-0.1-0.1-0.2,0-0.2c0.1,0.1,0.2,0.2,0.2,0.3l0,0
					c0.9,0.3,1.6,1.5,2.5,1.5l0,0l0.8,0.1c0.3,0.2-0.2,0.1,0,0.3c0.9,0,1.3,0.4,2,0.4c0.2,0.4,0.7,0.4,1.2,0.4c0.5,0.1,1,0,1.4,0.2
					l0-0.1c0.2-0.1,0.2,0.1,0.4,0.1c0-0.1-0.2-0.1-0.1-0.2c1.6-0.1,3.2,0.1,4.9-0.1c0.6-0.1,0.1-0.8,1-0.6l-0.1,0.3
					c0.5-0.3,1.1-0.5,1.7-0.7c0.6-0.2,1.1-0.5,1.6-0.9c0,0.1,0,0.2-0.1,0.2c0.3,0,0.8-0.5,0.7-0.6c0.2-0.1,0.1,0.1,0.2,0.1
					c0.3,0,0.4-0.5,0.6-0.4c0,0,0,0.1-0.1,0.1c0.1-0.2,0.6-0.4,0.4-0.5c0.4-0.2,0.6-0.6,1-0.7c0-0.3,0.6-0.4,0.5-0.7
					c0.2,0.3,0.8-0.3,0.8-0.6c0,0.1,0.2-0.1,0.3,0.1c0.2-0.2,0.4-0.5,0.2-0.6c0.7-0.2,0.5-1.1,1.1-1c0.2-0.4,0.4-0.8,0.6-1.3
					c0.2-0.4,0.4-0.8,0.5-1.2c0.3,0.2-0.4,0.8-0.1,1c0.3-0.7,0.2-1.3,0.6-2c0.1-0.2,0.1,0.2,0.1,0.2c0.2-0.8,0.6-1.4,0.6-2.2
					c0,0,0,0.1,0.1,0.2c0-0.1,0.1-0.3,0-0.3l0,0.1c-0.3,0.1-0.3-0.7-0.4-0.7c0.4,0.3,0.3-0.6,0.7-0.1c0-0.1,0-0.2-0.2-0.2
					c0.1-0.1,0.1-0.2,0.2,0c0-0.5-0.2-0.4-0.1-0.8c0.1,0,0.1,0.1,0.2,0.2c-0.1-0.3-0.2-0.5-0.1-0.9c0,0,0.1,0,0.1,0.1
					c0.1-0.6-0.3-1.1-0.1-1.8c0.3,0.2,0.1-0.2,0.4-0.3c0,0-0.1-0.4-0.1-0.4L39.3,19c0-0.3-0.2-0.6-0.2-0.9l0.1,0.2l-0.1-0.6
					l-0.1,0.4c-0.2-0.3-0.4,0.1-0.3-0.4c0,0.1,0-0.3,0.1-0.5l0,0c-0.1-0.2-0.2-0.3-0.2-0.5c0.1-0.1,0.3,0,0.4,0
					c-0.3-0.1-0.2-0.8-0.5-0.9c0.1,0.1,0.2,0,0.2,0l-0.2-0.1c0-0.2,0-0.2,0.2-0.2c-0.1-0.5-0.3,0.2-0.3-0.3c0,0,0,0,0.1,0.1
					c-0.1-0.6-0.4-1-0.5-1.5c0.2-0.2,0.2,0.4,0.4,0.2c-0.3-0.7-0.8-1.3-1.1-2l0,0.1c-0.4,0.1,0-0.6-0.4-0.8c0.1,0.1,0.3,0,0.2,0
					c-0.2-0.4-0.6-0.8-1.1-1.3l0.1,0C36.3,9.6,36,9.2,35.8,9c-0.1,0-0.2-0.2-0.3,0c0-0.6-0.4-0.8-0.8-1.1c-0.4-0.3-0.7-0.5-0.9-0.9
					C33.9,7,34.1,7,34,7l-0.6-0.4c-0.1,0.2,0,0.1,0,0.3c-0.1,0-0.3-0.1-0.5-0.2c0.3,0.1,0.2-0.2,0.1-0.4c0,0.1-0.1,0.1-0.1,0.1
					c-0.1-0.5-0.3,0.2-0.5-0.2l0.1-0.1C32.4,6.1,32.2,6.1,32,6c0-0.2,0.2,0,0.3-0.1c-0.2-0.2-0.7,0-0.8-0.3c0.1,0,0.3,0.1,0.4,0.1
					c-0.1-0.4-0.2-0.3-0.3-0.5l0,0l-0.4-0.3L31.4,5c-0.6,0.3-0.7-0.3-1.3-0.2c0.6-0.1,0.2-0.1,0.3-0.3c-0.1-0.1-0.2-0.3-0.1-0.3
					C30,4.3,30,3.9,29.6,4c0-0.1-0.2-0.1-0.1-0.3c-0.3-0.1,0,0.1,0,0.2c-0.5,0-0.9-0.7-1.7-0.6c-0.6,0-0.8,0.2-1.3,0.2
					c-0.1-0.2,0.2-0.2,0.2-0.2c-0.3-0.2-0.5-0.2-0.7-0.2c0.1-0.1,0-0.1,0-0.2c-0.2,0-0.2,0.2-0.5,0.1c0.1-0.1,0.1-0.2,0.3-0.3
					c-0.3,0-0.5,0.1-0.8,0.1c-0.1-0.1,0.2-0.2,0.3-0.2c-0.3,0-0.8,0-0.9,0.2L24.4,3c-0.1,0,0-0.2,0-0.2c0.3-0.1,0.4,0.1,0.4,0.2
					l-0.2,0c0.1,0.5,0.7,0,1.1,0.1l-0.2,0.3L26,3.2c0.1,0.1,0.1,0.3-0.1,0.3c0.2,0.2,0.3-0.1,0.4,0.2c0,0,0,0,0,0.1l0.3,0
					c-0.1,0.1,0,0.2-0.2,0.1c0.4,0.3,0.8,0,0.9,0.2l0,0c0.6,0.1,0.1-0.2,0.7-0.3l0.1,0.6l0.1-0.2c0.1,0,0.2,0.1,0.1,0.2
					c0.3-0.1,0-0.1,0.2-0.2c0.2,0.3,0.9,0.2,0.8,0.6c0.2-0.1-0.2-0.3,0.1-0.2C29.3,5,29.8,4.7,30,5c-0.2,0.1-0.4-0.1-0.2,0.2
					c0.3-0.2,0.5,0.3,0.7,0.4c0.1-0.2,0.5,0.2,0.9,0.3c-0.1,0,0.5,0.6,0.8,0.9l0,0c0.2-0.2,0.5,0.1,0.8,0.2
					c-0.1,0.1-0.2,0.1-0.4,0.1c0,0,0.2,0.2,0.2,0.2c0.1,0,0.2,0,0.3,0.1l-0.2,0.1c0.3,0.2,0.7,0.3,0.9,0.7C34,8.1,34,7.6,34.4,7.9
					c-0.1,0.1-0.2,0.2-0.3,0.2c0,0,0.2,0.1,0.2,0.1l-0.3,0c0.1,0.2,0.2,0,0.3,0.1c-0.1,0.1,0,0.2-0.1,0.2c0,0-0.1-0.1-0.1-0.2
					c0.1,0.2,0.2,0.4,0.2,0.5c0.1-0.1,0.1-0.1,0.3,0c0.2,0.3-0.1,0.2,0,0.4c0.1,0,0.2,0.2,0.4,0.1c0.1,0.1,0,0.2,0,0.2
					c0.2,0.1,0.5,0.7,0.6,0.4l0,0l0,0l0,0l0,0c0.6,0.3,0.6,1.1,1,1.6l-0.1,0c0.3,0.3,0.4,0.7,0.7,0.9c0,0.1,0,0.3-0.1,0.3
					c0.2,0.2,0.3,0.2,0.3,0.6c-0.2-0.2-0.1,0.1-0.2-0.2c0.1,0.4,0,0.5,0.3,0.8c-0.2-0.1-0.1,0.3,0,0.5l0-0.3
					c0.1,0.2,0.1,0.3,0.2,0.5l-0.3,0c-0.1,0.8,0.8,1.1,0.4,1.8c0.2,0.2,0.1-0.4,0.3-0.3c0,0.3-0.3,0.7-0.3,0.8
					c-0.1,0.5,0.4,0.4,0.4,0.8c0.1-0.1,0.3-0.2,0.4,0.2c0,0.3-0.4,0.4-0.4,0.2c0-0.1,0-0.1,0-0.1c0-0.1-0.1-0.2-0.2-0.1l0.1,0
					c-0.1,0.2-0.1,0.6-0.2,0.5c0.1,0.2,0.2,0.1,0.2-0.1C38,18.7,38.1,19,38,19.4c0.1-0.1,0.2-0.1,0.2-0.1c-0.1,0.6,0.2,0.3,0.2,0.7
					c-0.1,0.2-0.3-0.1-0.2,0.3c-0.1,0.3-0.2,0-0.3-0.1c0.2,0.4-0.2,0.7-0.3,0.9l0-0.2c0,0.1,0,0.2,0,0.3l0.2-0.1
					c0,0.1-0.1,0.2-0.1,0.2c0.1,0.1,0.3,0,0.4,0.2c-0.1,0.1,0,0.5-0.2,0.5c0.2-0.5-0.2,0-0.2-0.4c0,0.1,0,0.2-0.1,0.3
					c0,0,0,0-0.1-0.1c-0.3,0.4,0.2,0.3,0.1,0.8c-0.1-0.1-0.3,0.1-0.3,0.1c0.1-0.2,0.2,0,0.3,0.2c-0.2,0.3,0,0.4-0.1,0.5l0.1-0.2
					c0.1,0.1,0.1,0.3,0,0.5c-0.1,0,0-0.2-0.1-0.2c0.1,0.3-0.4,0.5-0.4,0.8c-0.1,0.1-0.2-0.1-0.3,0c0,0.4-0.3,0.3-0.4,0.7
					c0.2,0,0.2-0.1,0.2,0.3l0.2-0.7l0,0.5c0.1-0.2,0.1-0.4,0.2-0.5c0.1,0.3,0,0.2,0.2,0.2c-0.4,0.1-0.1,0.6-0.4,0.8l-0.4-0.2
					c-0.4,0.4-0.2,0.9-0.6,1.4l0.2-0.1c0.1,0.2-0.2,0.4-0.2,0.6c-0.1-0.1-0.2,0-0.3,0c0.1,0.1-0.3,0.4-0.1,0.6l-0.3,0.1
					c-0.4,0.4,0,0.7-0.4,1.1c0-0.2-0.3-0.1-0.1-0.4c-0.1,0.1-0.2,0.2-0.2,0.3c-0.1,0-0.2,0.5-0.4,0.5c0,0.1,0.1,0.2,0,0.4
					c0,0-0.1-0.1-0.1-0.1c0.1,0.1-0.1,0.3,0.1,0.3c-0.7,0-1,1-1.7,1c-0.3,0.3-0.6,0.6-0.8,0.8c0,0,0-0.1,0-0.1
					c-0.5,0.1,0,0.5-0.5,0.6c-0.4-0.1,0.2-0.3,0-0.2c-0.3-0.4-0.5,0.4-0.9,0.3l0.1-0.1c-0.3,0-0.5,0.4-0.9,0.6c0,0,0,0,0-0.1
					c-0.2,0.4-0.7,0.6-1,0.8c0.1-0.2,0.1-0.2,0-0.3c-0.2,0.1,0.2,0.3-0.2,0.5c-0.2-0.1-0.4,0-0.5-0.2c0,0,0.3-0.1,0.3-0.1
					c-0.2-0.2-0.4,0.2-0.6,0.2l0-0.1c-0.5,0.2-0.4,0.5-1,0.6l0.1,0.1c-0.3,0.4-0.3-0.1-0.6,0.2l-0.1-0.3c-0.2,0.1-0.7,0.4-1.1,0.5
					c0.2-0.2,0.6-0.4,0.9-0.6c-0.2,0-0.7,0.1-0.8,0.3c0.1,0,0.2-0.1,0.3-0.1c-0.2,0.3-0.6,0.4-1,0.4c0-0.6-1.1-0.1-1.4-0.6
					c-0.4,0.1-0.7,0.1-1.1,0c-0.4-0.1-0.7-0.2-1.1-0.3c0.2,0.5-0.2,0-0.3,0.4c-0.2,0-0.3,0-0.3-0.1l-0.5-0.4
					c-0.1-0.2,0.2-0.1,0.2-0.2c-0.4-0.1-0.1-0.2-0.4-0.4c0,0.2-0.2,0.2-0.4,0.1l0.3,0.3c-0.7,0.1-0.4-0.5-1-0.5l0.2-0.1
					c-0.3,0-1-0.4-1.5-0.2c0-0.1,0-0.2,0.1-0.2c-0.3-0.2-0.7-0.3-1.1-0.4c-0.4-0.1-0.7-0.3-0.9-0.5l0.1-0.1c-0.1,0-0.3,0.1-0.4-0.1
					c0,0,0.1-0.1,0.1-0.1c-0.1,0-0.4-0.1-0.5-0.2l0.2,0c-0.2-0.3-0.5-0.4-0.8-0.5c-0.3-0.1-0.5-0.2-0.8-0.3c0.2-0.3-0.1-0.7-0.3-0.9
					l0,0c-0.5-0.6-1.2-0.8-1.7-1.4c0-0.3-0.2-0.6-0.4-1c-0.2-0.4-0.5-0.8-0.5-1.2c0,0.1-0.2,0.1-0.3,0c0-0.2-0.4-0.4-0.1-0.5l0,0.1
					c0.2-0.3,0-0.5-0.1-0.8l-0.4,0.1c0.1-0.5-0.1-0.9-0.3-1.3C8,23,7.9,22.6,8.1,22.3c-0.2-0.2-0.2-0.4-0.3-0.5l0.2,0
					c0-0.5-0.1-0.8-0.2-1.4L8,20.5c0-0.3-0.6-0.4-0.7-0.7l0.3-0.1c-0.1-0.6,0.3-1.2,0-1.9c0,0,0.1,0,0.1,0.1c0-0.3,0.3-1.1-0.1-1
					c0.3,0,0.1-0.6,0.1-1L7.9,16c-0.2-0.3-0.3-0.4-0.2-0.8c0.1-0.1,0.2,0,0.1,0.1C8,15,7.7,15,7.9,14.7L8,14.8
					c0.1-0.3,0-0.3-0.1-0.5c0-0.2,0.3-0.6,0.5-0.5c-0.1-0.1-0.2-0.3-0.1-0.5c0.1,0,0.1,0.1,0.1,0.1c0.3-0.5,0.1-0.8,0.4-1.1
					c0.1,0,0.1,0,0.1,0C8.8,12.7,8.6,13,8.6,13c0.2,0.1,0.4-0.2,0.5,0.1c0-0.3-0.1-0.9,0.1-1.1c0,0,0,0,0.1,0l0,0
					c0.1-0.1,0.1-0.1,0.1-0.2c0.1-0.1,0.1-0.1,0.2-0.2c0.2,0,0.3-0.3,0.4-0.4c-0.2-0.1,0-0.3-0.3-0.2c0,0,0,0,0,0.1c0,0,0,0.1,0,0.1
					l0,0c-0.1,0.1-0.1,0.2-0.2,0.4c0-0.2,0-0.3,0.2-0.4c-0.1-0.1-0.1-0.3-0.2-0.4c0.4-0.1,0.7-0.4,0.9-0.3c0.2-0.5,0.7-1,0.6-1.5
					c0.1-0.1,0.2-0.1,0.3-0.1c0,0.1-0.1,0.2-0.1,0.2c0.1-0.3,0.6-0.7,0.4-0.9c0.4-0.2,0,0.3,0.4-0.1l0,0.1c0.5-0.2,0.7-0.6,0.9-1
					c0.2-0.4,0.5-0.8,1.2-0.9c-0.1,0-0.1,0-0.2,0c1.2-0.5,2.2-1.6,3.6-1.7c0.4-0.1,0.3-0.2,0.5-0.4l0.1,0.2L18.4,4
					c0.5-0.3,1,0.3,1.6-0.2L20,3.7c0.3,0,0.8-0.2,0.8,0c0,0,0.1-0.2,0.2-0.1l0,0.1c0,0,0.6-0.3,0.6-0.3c0.5,0.1,0,0.5,0.6,0.5
					c0.2-0.1,0.7-0.4,0.6-0.5c-0.1,0-0.3-0.1-0.3-0.2l0.2-0.1c0-0.4,0.2-0.7-0.4-0.9l-0.4,0.2l-0.1-0.2l0.4,0
					c-0.2-0.1-0.3,0-0.5,0.1c0-0.1-0.1-0.1-0.2-0.2l-0.4,0.4c-0.1-0.1,0.2-0.3-0.1-0.3c-0.2,0.2,0.2,0.3-0.1,0.4
					c-0.2-0.1-0.2-0.3-0.4-0.1c0-0.1,0-0.1,0.1-0.2c-0.2,0.1-0.6,0.1-0.6,0.3c-0.3-0.2-0.7,0.2-0.8-0.1c-0.1,0.1-0.3,0.3-0.5,0.4
					c0.3-0.5-0.7,0.2-0.8-0.3c-0.2,0.4-0.9,0.5-1.3,0.8c0,0,0-0.1,0.1-0.1c-0.3,0.1-0.4,0-0.6,0c0.1,0.3-0.3,0.5-0.4,0.8
					c-0.4-0.1,0-0.4-0.2-0.6c0.1,0.2-0.4,0.5-0.2,0.6c-0.3,0-0.2,0-0.5-0.1c0.1,0.3-0.2,0.2-0.3,0.5c-0.4,0-0.3-0.3-0.5,0.1
					C13.9,4.5,14.1,4.2,14.1,4.2z M8.1,11.5L8.1,11.5c0-0.1,0.1-0.1,0.1-0.2C8.1,11.3,8.1,11.4,8.1,11.5z M7.7,12.2
					c0-0.1,0.1-0.2,0.2-0.3C8,11.9,8,11.9,8,12C8,12,7.8,12.1,7.7,12.2z M9.8,11.5c0,0.1-0.1,0.1-0.1,0.1
					C9.6,11.5,9.7,11.5,9.8,11.5L9.8,11.5C9.7,11.4,9.7,11.4,9.8,11.5z"/>
				<path class="st1" d="M9.6,11.1C9.6,11.1,9.6,11.1,9.6,11.1C9.6,11.1,9.6,11.1,9.6,11.1L9.6,11.1L9.6,11.1z"/>
				<path class="st1" d="M35.5,9.9L35.5,9.9C35.5,9.9,35.5,9.9,35.5,9.9C35.5,9.9,35.5,9.9,35.5,9.9z"/>
				<polygon class="st1" points="6.3,22.9 6.3,22.9 6.2,22.8 				"/>
				<path class="st1" d="M33.1,6.4C33.1,6.3,33.1,6.3,33.1,6.4C33.1,6.3,33.1,6.3,33.1,6.4z"/>
				<path class="st1" d="M31.6,5.2L31.5,5C31.5,5.1,31.6,5.2,31.6,5.2z"/>
				<path class="st1" d="M30.5,4.4C30.4,4.4,30.4,4.5,30.5,4.4L30.5,4.4L30.5,4.4z"/>
				<path class="st1" d="M38.8,24C38.8,24,38.8,24,38.8,24C38.8,24.2,38.9,24.1,38.8,24z"/>
				<path class="st1" d="M39,17.2c0,0.1,0.1,0.1,0.1,0.2C39.1,17.3,39.1,17.2,39,17.2z"/>
				<polygon class="st1" points="35.2,30.8 35.2,30.8 35.1,30.8 				"/>
				<path class="st1" d="M39.1,17.7c0-0.1,0-0.2,0-0.3C39.1,17.5,39.1,17.6,39.1,17.7z"/>
				<path class="st1" d="M24.5,2.5L24.5,2.5C24.5,2.5,24.5,2.5,24.5,2.5L24.5,2.5z"/>
				<path class="st1" d="M24.5,2.5L24.5,2.5C24.4,2.5,24.4,2.5,24.5,2.5z"/>
				<path class="st1" d="M24.2,2.6l0.2,0C24.3,2.5,24.3,2.5,24.2,2.6z"/>
				<path class="st1" d="M26.4,2.9L26.4,2.9C26.4,2.9,26.4,2.9,26.4,2.9z"/>
				<path class="st1" d="M27,3.1c-0.1-0.1-0.3-0.2-0.5-0.2l0,0.1C26.6,2.8,26.8,3.1,27,3.1z"/>
				<path class="st1" d="M28.9,4.7c0,0-0.4-0.2-0.4-0.2c0,0.1,0.1,0.2-0.1,0.2C28.8,5.1,28.3,4.4,28.9,4.7z"/>
				<path class="st1" d="M30.1,5.4c-0.2-0.1-0.1,0.1-0.1,0.1C30.2,5.6,30.2,5.6,30.1,5.4z"/>
				<path class="st1" d="M36.9,12.8l-0.2,0.1C36.8,13,36.8,12.8,36.9,12.8z"/>
				<path class="st1" d="M38.6,14.3l0.1-0.2l-0.2,0C38.4,14,38.6,14.3,38.6,14.3z"/>
				<polygon class="st1" points="37.5,15.8 37.5,15.7 37.6,16 				"/>
				<path class="st1" d="M32.4,30.8l0.2,0.1C32.7,30.8,32.5,30.6,32.4,30.8z"/>
				<path class="st1" d="M26,34.2c-0.1-0.1-0.3-0.1-0.4,0C25.8,34.2,25.9,34.2,26,34.2z"/>
				<polygon class="st1" points="8.6,24.3 8.8,24.4 8.6,24.2 				"/>
			</g>
		</g>
	</g>
	<g>
		<path class="st1" d="M208,42.7c0.1-0.1,0-0.3-0.2-0.2l-0.2,0.3L208,42.7z"/>
		<path class="st1" d="M206,42.1c-0.3,0.2-0.7,0.4-0.5,0.8c0.3-0.3,0.4-0.2,0.8-0.6c0.3,0,0.5,0.1,0.5,0.2c0.1-0.1,0.5,0.1,0.6-0.1
			c-0.4-0.3-0.9-0.3-1.4,0C205.9,42.2,206,42.1,206,42.1z"/>
		<path class="st1" d="M177.5,41.8l0.2,0C177.6,41.9,177.6,41.9,177.5,41.8z"/>
		<path class="st1" d="M159.8,41.9c0.1,0,0.2,0,0.2-0.1C159.9,41.9,159.8,41.9,159.8,41.9z"/>
		<path class="st1" d="M156.8,41.6c0.1,0,0.1,0,0.2,0C156.9,41.6,156.8,41.6,156.8,41.6z"/>
		<path class="st1" d="M177.5,41.8l-0.5-0.1C177,41.9,177.3,41.8,177.5,41.8z"/>
		<path class="st1" d="M202.1,42.9c0.1,0,0.2,0,0.3-0.1L202.1,42.9C202.1,42.9,202.1,42.9,202.1,42.9z"/>
		<path class="st1" d="M185.3,41.5l0.1,0c0,0,0.1-0.1,0.1-0.1L185.3,41.5z"/>
		<path class="st1" d="M191.2,41.4c-0.1,0-0.2,0.3-0.2,0.4c0.1-0.1,0.2-0.2,0.3-0.2C191.3,41.5,191.3,41.5,191.2,41.4z"/>
		<path class="st1" d="M200.7,41.8l0.2,0C200.8,41.7,200.8,41.8,200.7,41.8z"/>
		<path class="st1" d="M181,41.5C181,41.4,181,41.4,181,41.5C180.9,41.4,181,41.4,181,41.5z"/>
		<path class="st1" d="M14,48.2C14,48.2,14,48.2,14,48.2C14,48.2,14,48.2,14,48.2z"/>
		<path class="st1" d="M7,47.1L7,47.1C7.1,47.1,7.1,47,7.1,47L7,47.1z"/>
		<path class="st1" d="M151.3,41.3C151.3,41.3,151.3,41.3,151.3,41.3C151.4,41.3,151.4,41.3,151.3,41.3z"/>
		<path class="st1" d="M100.6,42.7c0.6,0.2-0.9,0.3-0.1,0.6C100.5,43.2,101.3,42.8,100.6,42.7z"/>
		<path class="st1" d="M201.9,42.9l-0.2,0C201.8,42.9,201.9,42.9,201.9,42.9z"/>
		<path class="st1" d="M100.6,43.3L100.6,43.3L100.6,43.3C100.6,43.3,100.6,43.3,100.6,43.3z"/>
		<path class="st1" d="M138.6,41.7c0,0,0.1,0.1,0.1,0.1C138.7,41.8,138.7,41.8,138.6,41.7z"/>
		<path class="st1" d="M148,42l-0.2,0C147.9,42,148,42,148,42z"/>
		<path class="st1" d="M133.6,42.2c-0.1,0-0.2-0.1-0.3,0c0,0,0,0,0.1,0C133.4,42.2,133.5,42.2,133.6,42.2z"/>
		<path class="st1" d="M128.5,42.4C128.6,42.4,128.6,42.4,128.5,42.4c0.1,0,0.2,0,0.3,0L128.5,42.4z"/>
		<path class="st1" d="M29.5,47.4c-0.1-0.1-0.2-0.2-0.2-0.2C29.4,47.4,28.6,47.5,29.5,47.4z"/>
		<path class="st1" d="M202.1,42.7c0,0.1-0.1,0.1-0.2,0.1c0.1,0,0.1,0,0.2,0C202.1,42.8,202.1,42.8,202.1,42.7z"/>
		<path class="st1" d="M133.5,44.5l-0.8,0C132.9,44.5,133.2,44.5,133.5,44.5z"/>
		<path class="st1" d="M66.2,46l-0.2,0C66.1,46.1,66.2,46.1,66.2,46z"/>
		<path class="st1" d="M130.3,44.5c-0.1-0.1-0.3-0.1-0.5-0.2c0,0-0.1,0-0.1,0.1L130.3,44.5z"/>
		<path class="st1" d="M29.3,47.2L29.3,47.2L29.3,47.2z"/>
		<path class="st1" d="M24,48.1c0.8,0,0.3-0.4,0.5-0.6c0.9-0.1,0.4,0.3,0.8,0.4c0.6-0.1,1-0.5,1.4-0.5c0,0.1,0.1,0.1,0,0.2
			c0.6-0.3,1.8-0.1,2.5-0.5c0.1,0,0.1,0.1,0.1,0.1c-0.1-0.2-0.1-0.4-0.1-0.5c0.3,0,0.6-0.3,0.8,0c-0.2,0-0.2,0.1-0.3,0.2l0.4-0.1
			c0.3,0.3-0.5,0.1-0.5,0.4c0.7-0.1,1.5-0.5,2.1-0.4c0.1,0.3-1.3,0.2-0.5,0.4l-0.8-0.1c0.7,0.5-0.5,0,0.1,0.5
			c1.1,0.1,1.2-0.2,2.3-0.2c0.2-0.2-0.1-0.3,0.1-0.5c1.6-0.4,1.3,0.8,2.4,0.3c0.3-0.2,0.4-0.7,1.2-0.5l-0.3,0.4
			c1.1,0,0.6-0.6,1.7-0.4C37.7,47,37,47,37.2,47c0.7,0.3,0.5-0.2,1.1-0.3l0.1,0.3c1.1-0.1,2.4-0.4,3.6-0.5c-0.1,0.1-0.3,0.2,0,0.3
			c1.6-0.2,3.4-0.1,4.9,0.1l0.6-0.3c0.1,0,0.3,0.1,0.1,0.2c0.6,0.1,0-0.2,0.3-0.3c0.3,0,0.5,0.2,0.2,0.2c1-0.3,3-0.6,4.1-0.4
			l-0.2,0.1c0.9,0.1,1-0.6,1.8-0.4l-0.2,0.1c1.9,0.1,4-0.3,5.4,0.1c0.3-0.4,1.9,0.1,2-0.5c1.1,0.3,0.8,0.4,2.3,0.5
			c0.4,0,0.6-0.4,1.1-0.5l0,0.3l0.7-0.3l0.4,0.4l0.5-0.1c-0.2,0-0.4-0.1-0.4-0.2c0.7-0.2,1.8,0.2,1.8,0.3l1.7-0.3
			c0,0.1-0.3,0.2-0.5,0.3c0.9-0.3,0.2,0.3,1,0c-0.1-0.1,0.1-0.2,0.1-0.2c0.4,0.2,1.4,0.1,2.1,0l-0.1,0.2c1.3,0,2.7-0.2,4.1-0.2
			c-0.5-0.1-0.4-0.5,0-0.5l0.2,0.3c0.3-0.2-0.4-0.1,0.1-0.4c0.5,0,0.4,0.4,0.1,0.5l0.7-0.1c0,0.1-0.1,0.2-0.1,0.3
			c0.3-0.2,1.1,0.3,1.5-0.1l0,0.1c1.4,0,2.1-0.2,3.3-0.2c0-0.3,0.5-0.2,0.8-0.5c0.9,0.1,1.8,0.3,2.9,0.2c0.7-0.2,0.2-0.2,0.5-0.4
			c0.1,0.3,1.1,0.2,0.6,0.4c1.2-0.1,1.6-0.1,3.2-0.4c-0.2-0.1-0.4-0.1-0.3-0.2c0.3-0.1,0.7,0.1,0.6,0.2l-0.1,0
			c1.8-0.4,4.1,0.6,5.5,0.1l-0.1,0l1.5-0.3c0.7,0-0.4,0.2,0.1,0.3c1.6-0.5,2.5,0,3.8-0.3c1,0.7,3.6-0.1,4.9,0.3l-0.1-0.2
			c0.3-0.2,0.4,0.1,0.7,0.1c0-0.1-0.4-0.1-0.2-0.3c3-0.3,6.1,0.1,9.2,0.2c1.1,0,0.6-0.9,2-0.5l-0.4,0.3c2.2-0.5,4.6-0.1,6.8-0.5
			c-0.1,0.1-0.1,0.2-0.3,0.2c0.5,0.2,1.7,0,1.7-0.2c0.3,0,0.1,0.2,0.3,0.3c0.5,0.1,1.2-0.3,1.4-0.1c0,0-0.1,0.1-0.2,0.1
			c0.3-0.1,1.4,0,1.1-0.3c0.8,0.1,1.6-0.2,2.2,0c0.4-0.3,1.4,0.1,1.5-0.3c0,0.5,1.5,0.3,2,0.1c-0.2,0.1,0.5,0.1,0.3,0.3
			c0.6,0,1.1-0.1,1-0.3c1.1,0.5,2.2-0.5,2.8,0.2c1.8-0.3,3.4-0.5,5-0.6c0,0.5-1.8,0.1-1.7,0.6c1.5-0.2,2.4-0.6,3.9-0.5
			c0.4,0.1-0.2,0.2-0.3,0.3c1.5-0.2,2.9,0,4.3-0.3c0,0-0.1,0.1-0.3,0.1c0.3,0,0.6,0.1,0.6-0.1l-0.3,0.1c-0.4-0.3,1-0.6,1.1-0.8
			c-0.4,0.6,1.3,0.1,0.6,0.9c0.2,0,0.4-0.1,0.3-0.3c0.3,0,0.3,0.1,0.1,0.3c0.9-0.1,0.6-0.3,1.5-0.4c0,0.1-0.2,0.1-0.3,0.3
			c0.4-0.2,0.9-0.4,1.6-0.3c0,0.1,0,0.1-0.2,0.1c1.2-0.1,2.1-0.6,3.5-0.4c-0.4,0.4,0.5,0.1,0.5,0.5l0.7-0.1l-0.3-0.2
			c0.6,0,1.2-0.3,1.8-0.2l-0.5,0.2l1.2-0.1l-0.7-0.1c0.6-0.2-0.1-0.5,0.8-0.4c-0.2,0,0.6,0,1,0.2l0,0c0.3-0.1,0.6-0.3,1.1-0.2
			c0.1,0.1-0.1,0.4,0,0.5c0.3-0.3,1.5-0.1,1.9-0.4c-0.1,0.1-0.1,0.3-0.1,0.3l0.3-0.3c0.3,0.1,0.3,0.1,0.3,0.3c0.9,0-0.3-0.5,0.8-0.3
			c-0.1,0,0,0.1-0.2,0.1c1.1,0.1,2.1-0.2,3.1-0.1c0.3,0.4-0.9,0.1-0.5,0.4c1.4-0.1,2.9-0.5,4.3-0.4l-0.3,0c0.2-0.5,1,0.2,1.7,0
			c-0.2,0-0.2,0.3-0.2,0.2c0.9,0.1,1.9-0.2,3.3-0.3l-0.2,0.1c0.6,0.1,1.5,0.1,2.1,0.1c0.2-0.1,0.5-0.1,0.3-0.3
			c1.9,0.8,3.5-0.5,5.2,0.2c-0.2,0-0.5,0.1-0.3,0.1l1.4-0.1c-0.1-0.2-0.2-0.1-0.5-0.3c0.2-0.1,0.6-0.2,0.9-0.3
			c-0.6,0.2,0,0.4,0.3,0.5c0-0.1,0-0.1,0-0.2c0.7,0.4,0.1-0.5,1.1-0.2l-0.1,0.1c0.4-0.1,0.7-0.2,1.1-0.2c0.2,0.3-0.4,0.1-0.4,0.3
			c0.6,0,1.1-0.5,1.6-0.3c-0.2,0.1-0.6,0.1-0.8,0.2c0.6,0.3,0.6,0.2,1,0.3l0,0l1,0.1l-0.2-0.1c0.7-0.7,1.4-0.1,2.4-0.6
			c-0.9,0.4-0.2,0.3-0.2,0.6c0.2,0.1,0.6,0.2,0.5,0.3c0.4-0.2,0.8,0.2,1.4-0.2c0,0.1,0.5,0,0.4,0.3c0.6-0.1-0.1-0.2-0.1-0.3
			c0.9-0.3,2.1,0.4,3.4-0.1c1.1-0.2,1.3-0.5,2.4-0.7c0.4,0.2-0.3,0.4-0.3,0.4c0.6,0.1,1,0.1,1.5,0c-0.1,0.1,0,0.2,0.2,0.3
			c0.4,0,0.3-0.4,0.8-0.2c-0.1,0.1-0.2,0.3-0.4,0.4c0.5-0.1,1-0.3,1.5-0.4c0.1,0.2-0.3,0.3-0.5,0.4c0.6-0.1,1.5-0.2,1.7-0.4
			l-0.4-0.1c0.2,0,0.1,0.2,0,0.3c-0.5,0.2-0.7-0.1-0.8-0.2l0.4-0.1c-0.4-0.6-1.5,0.1-2.2,0.1l0.3-0.4l-0.8,0.4
			c-0.2-0.1-0.3-0.3,0.1-0.4c-0.5-0.2-0.5,0.2-0.9-0.1c-0.1,0,0-0.1,0-0.1l-0.5,0.1c0.1-0.1-0.1-0.3,0.2-0.2c-0.9-0.2-1.5,0.3-1.9,0
			l0.1,0c-1.3,0.2-0.1,0.3-1.1,0.7l-0.7-0.7l-0.1,0.3c-0.1,0-0.4,0-0.4-0.2c-0.5,0.2,0.1,0.1-0.2,0.3c-0.6-0.3-1.8,0.1-1.9-0.3
			c-0.2,0.2,0.6,0.2-0.1,0.3c-0.2-0.5-0.8,0.1-1.4-0.1c0.2-0.3,0.7-0.1,0.1-0.4c-0.4,0.5-1.2-0.1-1.6,0c0,0.4-1.1,0.2-1.9,0.3
			c0.1-0.1-1.6-0.2-2.4-0.3l0-0.1c-0.1,0.4-1,0.3-1.5,0.4c0-0.2,0.1-0.3,0.4-0.4l-0.5,0c-0.1,0.1-0.3,0.2-0.7,0.2l0.1-0.3
			c-0.7,0-1.5,0.3-2.4,0.2c0,0.3,0.8,0.7-0.2,0.9c0-0.1-0.1-0.4,0.2-0.4c-0.1,0-0.3,0.1-0.5,0.1l0.4-0.2c-0.4-0.1-0.2,0.2-0.6,0.2
			c0-0.2-0.3-0.1-0.2-0.3c0.1,0,0.3,0.1,0.4,0c-0.4,0-0.9-0.1-1-0.3c0,0.1,0,0.3-0.3,0.3c-0.7,0-0.3-0.2-0.7-0.3
			c-0.2,0.1-0.6,0-0.7,0.3c-0.2,0-0.3-0.1-0.3-0.2c-0.4,0.1-1.8,0.1-1.3,0.4l0.1-0.1c0,0,0-0.1-0.1-0.1h0h0c-1.2,1-2.8,0.2-3.8,0.3
			v-0.1c-1,0.1-1.6,0.1-2.2,0.3c-0.2,0-0.5-0.2-0.4-0.3c-0.6,0.1-0.6,0.2-1.4,0c0.6-0.2-0.2-0.2,0.6-0.1c-0.7-0.1-0.9-0.2-1.7,0.1
			c0.3-0.3-0.6-0.3-0.9-0.2l0.5,0.2c-0.4,0-0.7,0-1.1,0l0.2-0.3c-1.5-0.4-2.7,0.7-3.8,0.1c-0.4,0.2,0.8,0.2,0.5,0.4
			c-0.7,0-1.4-0.5-1.6-0.5c-0.9-0.2-0.9,0.5-1.9,0.4c0.1,0.1,0.3,0.4-0.5,0.6c-0.7,0-0.9-0.5-0.4-0.6c0.2,0,0.2,0,0.2,0.1
			c0.2,0,0.5-0.1,0.2-0.2l-0.1,0.1c-0.3-0.1-1.3-0.1-1.1-0.3c-0.5,0.1-0.2,0.2,0.2,0.3c-0.9-0.2-1.4,0-2.3-0.1
			c0.1,0.1,0.3,0.2,0.1,0.2c-1.3-0.1-0.6,0.2-1.5,0.3c-0.5-0.2,0.2-0.4-0.7-0.3c-0.6-0.1-0.1-0.3,0.1-0.4c-0.8,0.2-1.5-0.1-2-0.2
			l0.4-0.1c-0.3,0.1-0.5,0.1-0.7,0.1l0.3,0.2c-0.3,0-0.5,0-0.5-0.1c-0.3,0.2,0.2,0.4-0.3,0.6c-0.3-0.1-1,0.1-1.2-0.2
			c1.1,0.1-0.1-0.3,0.8-0.4c-0.2,0-0.4,0-0.6,0c0,0,0-0.1,0.1-0.1c-1-0.3-0.5,0.4-1.5,0.4c0.1-0.2-0.3-0.3-0.4-0.3
			c0.4,0,0.2,0.3-0.2,0.4c-0.7-0.1-0.7,0.1-1.1,0.1l0.4,0.1c-0.1,0.2-0.5,0.2-1,0.2c0-0.1,0.4-0.1,0.3-0.2c-0.5,0.3-1.2-0.3-1.9-0.1
			c-0.3-0.1,0-0.3-0.3-0.4c-0.8,0.2-0.9-0.2-1.8,0c0.3,0.2,0.3,0.2-0.3,0.4l1.4-0.2l-0.9,0.4c0.4,0,0.9-0.2,1.2-0.1
			c-0.4,0.2-0.4,0.1-0.2,0.3c-0.6-0.3-1.2,0.2-1.8,0l0-0.6c-1-0.2-1.8,0.3-3.1,0.2l0.4,0.1c-0.2,0.2-0.8,0-1.2,0.2
			c0-0.2-0.2-0.3-0.4-0.4c0,0.1-1,0-1.1,0.4L137,42c-1.1-0.1-1.2,0.6-2.2,0.5c0.3-0.2-0.2-0.4,0.5-0.5c-0.3,0-0.7,0-0.7,0.1
			c-0.2-0.1-0.9,0.3-1.3,0.1c-0.1,0.1-0.2,0.3-0.6,0.3c0,0,0-0.1,0-0.1c0,0.1-0.6,0.1-0.3,0.4c-1.1-0.6-3,0.1-3.9-0.4
			c-0.8,0.1-1.7,0.2-2.3,0.2c0-0.1,0-0.1,0.1-0.1c-0.9-0.2-0.6,0.6-1.6,0.4c-0.6-0.3,0.6-0.2,0.2-0.3c-0.2-0.6-1.3,0.1-2-0.2l0.2,0
			c-0.6-0.2-1.3,0.3-2.2,0.2c0,0,0-0.1,0-0.1c-0.6,0.3-1.8,0.5-2.6,0.6c0.3-0.3,0.4-0.1,0.2-0.4c-0.4,0,0.1,0.4-0.6,0.5
			c-0.3-0.1-0.8-0.2-0.9-0.5l0.7,0c-0.4-0.3-0.9,0-1.3,0l0-0.2c-1.1,0.1-1.1,0.5-2.3,0.5l0.1,0.1c-0.6,0.4-0.6-0.2-1.2,0.1l-0.2-0.4
			c-0.4,0.1-1.5,0.4-2.3,0.5c0.4-0.3,1.3-0.5,1.9-0.7c-0.4,0-1.5,0.1-1.7,0.3c0.2,0,0.4-0.1,0.6-0.1c-0.5,0.3-1.2,0.5-2.1,0.5
			c0.1-0.8-2.2-0.1-2.9-0.7c-1.5,0.3-3,0-4.8,0.1c0.6,0.6-0.5,0-0.4,0.6c-0.4,0.1-0.6,0-0.6,0L99.3,43c-0.3-0.2,0.4-0.1,0.3-0.3
			c-0.9,0-0.4-0.2-1-0.4c0.1,0.2-0.3,0.3-0.8,0.3l0.7,0.3c-1.3,0.4-1.1-0.5-2.4-0.1l0.4-0.2c-0.6,0.1-2.4,0.1-3,0.6
			c-0.1-0.1-0.3-0.2,0-0.3c-1.6,0-3.4,0.6-4.7,0.4L89,43c-0.3,0.1-0.5,0.3-0.9,0.2c0-0.1,0.1-0.2,0-0.2C88,43,87.4,43.2,87,43.2
			l0.3-0.2c-1.5-0.2-2.3,0.5-3.6,0.6c0-0.4-1.2-0.5-1.8-0.6l0-0.1c-1.8,0-3,0.5-4.6,0.7c-1-0.4-3.4-0.1-5.1-0.3
			c0.3,0.1,0,0.3-0.3,0.4c-0.4-0.1-1,0.3-1-0.1l0.1,0c-0.3-0.4-1.1-0.3-1.7-0.2l-0.1,0.5c-1.6-0.7-4.2,0.4-5.1-0.2
			c-0.4,0.1-0.9,0.2-1.2,0.3l0-0.3c-1.1,0-1.6-0.1-2.9,0.1l0.3-0.2c-0.8,0-0.9,0.8-1.6,0.9L58.4,44c-1.3,0-2.6-0.3-3.9,0.2
			c0-0.1,0.1-0.2,0.3-0.2c-0.6,0-2.4-0.2-2.1,0.4c0-0.4-1.4,0-2.1,0.2l0.1-0.3c-0.6,0.4-0.6,0.5-1.4,0.6c-0.2,0-0.2-0.2,0.1-0.2
			c-0.7-0.1-0.5,0.3-1.3,0.2l0.3-0.2c-0.7,0-0.6,0.1-1,0.3c-0.4,0.1-1.3,0-1.4-0.3c-0.1,0.2-0.4,0.4-0.8,0.3
			c-0.1-0.1,0.1-0.2,0.2-0.2c-1.1-0.1-1.7,0.4-2.5,0.1c0-0.1-0.1-0.1-0.1-0.2c0.9,0,1.6,0,1.6,0c0-0.3-0.7-0.3-0.2-0.7
			c-0.6,0.2-1.6,0.7-2.3,0.6c0,0-0.1,0-0.1-0.1l0.1,0c-0.2,0-0.3,0-0.4,0.1c-0.2,0-0.4-0.1-0.6-0.1c-0.1-0.2-0.8-0.1-1.2-0.1
			c0,0.3-0.4,0.3,0,0.5c-0.1,0,0.1,0,0.3-0.1c0.1,0,0.1,0,0.2,0l0,0c0.2,0,0.5,0,0.9-0.1c-0.3,0.2-0.6,0.3-1,0.1
			c-0.2,0.2-0.4,0.4-0.5,0.5c-0.5-0.4-1.5-0.5-1.6-0.8c-1.1,0.2-2.6,0.2-3.3,0.8c-0.3,0.1-0.4-0.1-0.5-0.2c0.2-0.1,0.4-0.1,0.5-0.1
			c-0.6,0.2-1.9,0.1-2,0.5c-0.8-0.1,0.4-0.4-0.7-0.3l0.1-0.1c-2.2-0.5-3.4,1.1-5.8,0.4c0.2,0,0.2,0.1,0.3,0.1
			c-2.7-0.2-5.6,0.5-8.3,0.1c-0.8-0.1-0.8,0.2-1.3,0.4l-0.2-0.3l-0.8,0.4c-1.1,0.3-2-0.7-3.4-0.1l0.2,0.2c-0.5,0-1.6,0.2-1.5,0
			c-0.1,0-0.2,0.2-0.4,0.1l0-0.2l-1.2,0.3c-1-0.1,0.1-0.6-1.3-0.6c-0.5,0.1-1.5,0.5-1.3,0.6c0.2,0,0.5,0.1,0.6,0.2l-0.5,0.1
			c-0.1,0.5-0.4,1,0.8,1.2L8.7,48L9,48.2l-0.7,0c0.4,0.2,0.6,0,0.9-0.1c0.1,0.1,0.2,0.2,0.4,0.2l0.8-0.5c0.1,0.2-0.3,0.4,0.2,0.5
			c0.4-0.2-0.4-0.4,0.2-0.6c0.4,0.2,0.3,0.4,0.8,0.2c0.1,0.1,0,0.2-0.2,0.3c0.4-0.2,1.1-0.1,1.3-0.4c0.4,0.2,1.4-0.1,1.4,0.3
			c0.1-0.1,0.7-0.4,1.1-0.4c-0.7,0.6,1.4,0,1.3,0.5c0.5-0.5,1.8-0.3,2.7-0.6c0,0-0.1,0.1-0.2,0.1c0.5,0,0.7,0.2,1,0.2
			c0-0.4,0.8-0.5,1.3-0.8c0.6,0.4-0.4,0.5-0.1,0.8c0-0.3,1.1-0.4,0.8-0.6c0.5,0.2,0.4,0.1,0.7,0.4c0.1-0.5,0.4-0.1,0.8-0.4
			c0.7,0.2,0.2,0.5,1,0.3C24.6,47.9,24,48.1,24,48.1z M42,46.5L42,46.5c-0.2,0-0.3,0-0.4,0C41.7,46.5,41.8,46.5,42,46.5z M43.5,46.4
			c-0.2,0-0.4,0-0.7,0c-0.1-0.1,0-0.2,0.2-0.2C42.9,46.3,43.3,46.4,43.5,46.4z M40.2,44.6c0.2,0,0.3,0,0.4,0.1c-0.1,0-0.2,0-0.4,0.1
			c0,0,0,0,0,0C40.2,44.7,40.2,44.7,40.2,44.6z"/>
		<path class="st1" d="M39.8,45C39.8,45,39.8,45,39.8,45C39.8,45.1,39.8,45.1,39.8,45l0.1,0C39.9,45,39.9,45,39.8,45z"/>
		<path class="st1" d="M177.7,41.9L177.7,41.9C177.7,41.9,177.7,41.9,177.7,41.9C177.7,41.9,177.7,41.9,177.7,41.9z"/>
		<polygon class="st1" points="64.5,46.2 64.5,46.2 64.4,46.2 		"/>
		<path class="st1" d="M186.1,42.8c0,0,0,0,0.1,0.1C186.2,42.8,186.1,42.8,186.1,42.8z"/>
		<path class="st1" d="M189.7,42.8l0.5,0.1C190,42.8,189.8,42.8,189.7,42.8z"/>
		<path class="st1" d="M192.5,42.9c0,0,0-0.1,0.1-0.1l0,0L192.5,42.9z"/>
		<path class="st1" d="M148.3,43.8c0,0-0.1,0-0.1,0C147.9,43.9,148.1,43.9,148.3,43.8z"/>
		<path class="st1" d="M161.4,43c-0.1,0.1-0.3,0.1-0.4,0.1C161.2,43.1,161.4,43.1,161.4,43z"/>
		<polygon class="st1" points="133.6,44.5 133.6,44.5 133.5,44.5 		"/>
		<path class="st1" d="M160.4,43.1c0.2,0.1,0.4,0,0.6,0C160.8,43.1,160.6,43.1,160.4,43.1z"/>
		<path class="st1" d="M204.6,42.9l0.1,0c0,0,0,0,0,0L204.6,42.9z"/>
		<path class="st1" d="M204.7,42.9l0.1,0C204.8,42.8,204.7,42.8,204.7,42.9z"/>
		<path class="st1" d="M205.2,42.8l-0.3,0.1C205,42.8,205.1,42.9,205.2,42.8z"/>
		<path class="st1" d="M200.9,42.8l0,0.1C200.8,42.9,200.9,42.9,200.9,42.8z"/>
		<path class="st1" d="M199.7,42.9c0.3,0,0.7,0.2,1,0.1l0-0.1C200.7,43.1,200,42.7,199.7,42.9z"/>
		<path class="st1" d="M195.1,41.6l0.9,0.1c-0.2-0.1-0.4-0.3,0-0.3C194.9,41.1,196.3,41.7,195.1,41.6z"/>
		<path class="st1" d="M192.2,41.5c0.5-0.1,0-0.2,0-0.2C191.9,41.4,191.8,41.4,192.2,41.5z"/>
		<path class="st1" d="M171.1,41.7l0-0.3C170.8,41.5,171.2,41.6,171.1,41.7z"/>
		<polygon class="st1" points="167.1,43.1 167.5,43.3 167.7,43 		"/>
		<polygon class="st1" points="164.7,41.3 164.9,41.3 164.3,41.4 		"/>
		<path class="st1" d="M129.4,42.1l0.1,0.3C129.8,42.3,129.9,42,129.4,42.1z"/>
		<path class="st1" d="M114.2,42.8c-0.2-0.2-0.6-0.2-0.9-0.1C113.7,42.7,114,42.8,114.2,42.8z"/>
		<polygon class="st1" points="68.5,43.6 68.8,43.4 68.2,43.6 		"/>
	</g>
</g>
</svg>
